M48
METRIC,0000.00
T01C0.25
T02C0.5
T03C0.8
T04C0.82
T05C0.9
T06C0.925
T07C0.97
T08C1.0
T09C1.02
T10C1.28
T11C1.63
T12C1.7
T13C1.75
T14C1.76
T15C2.0
T16C2.3
T17C2.6
T18C2.69
T19C3.2
%
T01
X+006961Y+010690
X+007041Y+010690
X+007031Y+010570
X+007031Y+010370
X+007031Y+010290
X+007251Y+010360
X+007231Y+010530
X+007001Y+010820
X+007441Y+010835
X+007701Y+010833
X+007801Y+010833
X+008001Y+010833
X+008101Y+010833
X+008201Y+010833
X+008501Y+010830
X+008851Y+010830
X+009226Y+010830
X+009521Y+011125
X+009601Y+011195
X+009601Y+011258
X+009401Y+011310
X+009331Y+011450
X+009301Y+011480
X+009271Y+011450
X+009241Y+011480
X+009151Y+011410
X+009361Y+011480
X+009854Y+011383
X+009941Y+011480
X+009971Y+011450
X+010001Y+011480
X+010031Y+011450
X+010061Y+011480
X+010031Y+011510
X+009971Y+011510
X+009886Y+011160
X+009801Y+011123
X+009801Y+011060
X+009891Y+011020
X+009686Y+011035
X+010381Y+011020
X+010451Y+010868
X+010274Y+010465
X+010051Y+010293
X+009924Y+010320
X+010501Y+010290
X+010851Y+010290
X+010901Y+010345
X+011089Y+010223
X+011146Y+010320
X+011476Y+010390
X+011701Y+010465
X+011651Y+010640
X+011821Y+010850
X+011901Y+010793
X+011951Y+010730
X+012001Y+010780
X+012051Y+010680
X+012101Y+010490
X+012201Y+010430
X+012131Y+010370
X+012251Y+010268
X+012301Y+010210
X+012359Y+010273
X+012501Y+010150
X+012451Y+010100
X+012601Y+010070
X+012701Y+010058
X+012801Y+010028
X+012751Y+009860
X+012851Y+009820
X+013001Y+009810
X+013101Y+009756
X+013051Y+009670
X+013091Y+009590
X+013221Y+009550
X+013301Y+009450
X+013336Y+009383
X+013241Y+009345
X+013181Y+009295
X+013351Y+009530
X+013451Y+009433
X+013201Y+009700
X+012896Y+009485
X+012606Y+009238
X+012531Y+009225
X+012421Y+009295
X+012471Y+009345
X+012531Y+009610
X+012421Y+009705
X+012471Y+009900
X+012551Y+009970
X+012651Y+009920
X+012606Y+009796
X+012191Y+010100
X+011921Y+010280
X+011926Y+009855
X+011701Y+009670
X+011701Y+009488
X+011536Y+009455
X+011481Y+009505
X+011386Y+009748
X+011476Y+009796
X+011089Y+009748
X+010636Y+009750
X+010501Y+009730
X+010274Y+009670
X+010051Y+009610
X+010041Y+009130
X+010111Y+009130
X+009961Y+009130
X+009881Y+009130
X+009716Y+009175
X+009516Y+009225
X+009461Y+009160
X+009381Y+009065
X+009326Y+009013
X+009516Y+008710
X+009516Y+008620
X+009516Y+008474
X+009516Y+008390
X+009721Y+008255
X+009851Y+008065
X+010091Y+008320
X+010111Y+008520
X+009981Y+008530
X+009911Y+008698
X+009851Y+008900
X+009716Y+008945
X+010379Y+008633
X+010376Y+008568
X+010376Y+008438
X+010376Y+008373
X+010601Y+008665
X+010781Y+008740
X+010781Y+008810
X+011089Y+008925
X+011221Y+009170
X+011481Y+008950
X+011536Y+008890
X+011716Y+008953
X+011721Y+009150
X+011881Y+009130
X+011961Y+009130
X+012041Y+009130
X+012121Y+009130
X+012431Y+008850
X+012429Y+008763
X+012479Y+008518
X+012133Y+008518
X+011971Y+008520
X+011909Y+008568
X+011904Y+008633
X+011911Y+008750
X+011841Y+008763
X+011851Y+008440
X+011891Y+008390
X+011716Y+008255
X+011481Y+008290
X+011481Y+008210
X+011381Y+008575
X+011221Y+008575
X+011071Y+008575
X+010501Y+009170
X+009111Y+010180
X+009036Y+010175
X+009041Y+010300
X+008951Y+010320
X+008801Y+010420
X+008501Y+010300
X+008302Y+010300
X+008201Y+010300
X+008101Y+010300
X+008086Y+009865
X+008236Y+009865
X+008526Y+009865
X+008701Y+010060
X+008811Y+009690
X+008591Y+009310
X+008206Y+009545
X+007916Y+009545
X+007766Y+009545
X+007561Y+009670
X+007581Y+010050
X+007501Y+010050
X+007421Y+010050
X+007661Y+010050
X+007041Y+009850
X+006961Y+009850
X+007031Y+009690
X+007031Y+009610
X+007031Y+009530
X+007031Y+009450
X+007041Y+009290
X+006961Y+009290
X+006961Y+009090
X+007041Y+009090
X+006761Y+009080
X+006691Y+009080
X+006574Y+009080
X+006691Y+008910
X+006761Y+008910
X+006461Y+008590
X+006401Y+008655
X+006321Y+008780
X+006321Y+008855
X+006316Y+008510
X+006021Y+008510
X+005591Y+008485
X+005591Y+008655
X+005309Y+008815
X+005236Y+008665
X+005021Y+008665
X+005016Y+008340
X+005099Y+008340
X+005381Y+008300
X+005381Y+008230
X+005309Y+008090
X+005381Y+007935
X+005021Y+007940
X+004741Y+007615
X+004741Y+007545
X+004641Y+007545
X+004641Y+007615
X+004641Y+007205
X+004641Y+007148
X+004741Y+007148
X+004741Y+007205
X+004471Y+006975
X+004361Y+006975
X+004271Y+006975
X+004161Y+006975
X+004191Y+006685
X+004191Y+006585
X+004191Y+006485
X+004191Y+006385
X+004091Y+006385
X+004091Y+006285
X+004091Y+006185
X+004191Y+006185
X+004191Y+006285
X+004291Y+006285
X+004291Y+006385
X+004291Y+006485
X+004291Y+006585
X+004291Y+006685
X+004091Y+006685
X+003991Y+006685
X+003991Y+006585
X+003991Y+006485
X+003891Y+006485
X+003891Y+006385
X+003891Y+006285
X+003891Y+006185
X+003791Y+006185
X+003791Y+006285
X+003791Y+006385
X+003691Y+006385
X+003691Y+006485
X+003691Y+006585
X+003691Y+006685
X+003791Y+006685
X+003891Y+006685
X+003891Y+006585
X+003791Y+006585
X+003791Y+006485
X+003991Y+006385
X+003991Y+006285
X+003991Y+006185
X+003991Y+005950
X+004091Y+005950
X+004091Y+005850
X+003991Y+005850
X+003991Y+005750
X+003891Y+005750
X+003791Y+005750
X+003791Y+005850
X+003891Y+005850
X+003891Y+005950
X+003791Y+005950
X+003691Y+005950
X+003691Y+005850
X+003691Y+005750
X+003691Y+005650
X+003691Y+005550
X+003691Y+005450
X+003791Y+005450
X+003891Y+005450
X+003891Y+005550
X+003891Y+005650
X+003991Y+005650
X+003991Y+005550
X+003991Y+005450
X+004091Y+005450
X+004191Y+005450
X+004291Y+005450
X+004291Y+005550
X+004291Y+005650
X+004191Y+005650
X+004191Y+005750
X+004091Y+005750
X+004091Y+005650
X+004091Y+005550
X+004191Y+005550
X+004291Y+005750
X+004291Y+005850
X+004291Y+005950
X+004191Y+005950
X+004191Y+005850
X+004291Y+006185
X+004561Y+005960
X+004561Y+005910
X+004631Y+005910
X+004631Y+005960
X+004701Y+005960
X+004701Y+005910
X+005021Y+005845
X+005101Y+005845
X+005386Y+005800
X+005386Y+005730
X+005311Y+005598
X+005386Y+005440
X+005016Y+005445
X+004741Y+005120
X+004741Y+005050
X+004641Y+005050
X+004641Y+005120
X+004641Y+004705
X+004641Y+004648
X+004741Y+004648
X+004741Y+004705
X+004471Y+004475
X+004361Y+004475
X+004271Y+004475
X+004161Y+004475
X+004051Y+004205
X+004246Y+004105
X+004421Y+003955
X+004111Y+003695
X+004046Y+003493
X+003996Y+003493
X+003946Y+003493
X+003896Y+003493
X+003721Y+003650
X+003779Y+003747
X+003631Y+003730
X+003471Y+003655
X+003461Y+003375
X+003411Y+003375
X+003361Y+003375
X+003361Y+003325
X+003411Y+003325
X+003461Y+003325
X+003511Y+003325
X+003511Y+003375
X+003511Y+003195
X+003461Y+003195
X+003411Y+003195
X+003361Y+003195
X+003364Y+002935
X+003414Y+002935
X+003464Y+002935
X+003514Y+002935
X+003666Y+003025
X+003716Y+003025
X+003716Y+003075
X+003716Y+003125
X+003766Y+003125
X+003816Y+003125
X+003866Y+003125
X+003766Y+003175
X+003716Y+003175
X+003666Y+003125
X+003666Y+003075
X+003716Y+002975
X+004076Y+003125
X+004126Y+003125
X+004176Y+003125
X+004226Y+003125
X+004226Y+003175
X+004176Y+003175
X+004226Y+003075
X+004226Y+003025
X+004226Y+002975
X+004276Y+003025
X+004276Y+003075
X+004276Y+003125
X+004431Y+003195
X+004481Y+003195
X+004531Y+003195
X+004581Y+003195
X+004581Y+003325
X+004581Y+003375
X+004531Y+003375
X+004481Y+003375
X+004431Y+003375
X+004431Y+003325
X+004481Y+003325
X+004531Y+003325
X+004816Y+003325
X+004816Y+003375
X+004866Y+003375
X+004866Y+003325
X+004916Y+003325
X+004916Y+003375
X+004966Y+003375
X+004966Y+003325
X+004966Y+003195
X+004916Y+003195
X+004866Y+003195
X+004816Y+003195
X+004816Y+002935
X+004866Y+002935
X+004916Y+002935
X+004966Y+002935
X+005121Y+003025
X+005171Y+003025
X+005171Y+003075
X+005171Y+003125
X+005221Y+003125
X+005271Y+003125
X+005321Y+003125
X+005221Y+003175
X+005171Y+003175
X+005121Y+003125
X+005121Y+003075
X+005171Y+002975
X+005126Y+003360
X+005351Y+003493
X+005401Y+003493
X+005451Y+003493
X+005501Y+003493
X+005566Y+003695
X+005229Y+003753
X+005181Y+003650
X+005091Y+003730
X+004926Y+003655
X+005046Y+004105
X+005276Y+004030
X+005506Y+004205
X+005701Y+004105
X+005876Y+003955
X+006054Y+003838
X+006104Y+003788
X+006036Y+003375
X+005986Y+003375
X+005936Y+003375
X+005886Y+003375
X+005886Y+003325
X+005936Y+003325
X+005986Y+003325
X+006036Y+003325
X+006039Y+003195
X+005989Y+003195
X+005939Y+003195
X+005889Y+003195
X+005731Y+003125
X+005681Y+003125
X+005631Y+003125
X+005581Y+003125
X+005531Y+003125
X+005631Y+003175
X+005681Y+003175
X+005681Y+003075
X+005681Y+003025
X+005681Y+002975
X+005731Y+003025
X+005731Y+003075
X+005889Y+002935
X+005939Y+002935
X+005989Y+002935
X+006039Y+002935
X+006221Y+002630
X+006221Y+002580
X+006221Y+002530
X+006221Y+002480
X+006221Y+002430
X+006221Y+002380
X+006221Y+002330
X+006221Y+002280
X+006281Y+002280
X+006281Y+002330
X+006281Y+002380
X+006281Y+002430
X+006281Y+002480
X+006281Y+002530
X+006281Y+002580
X+006281Y+002630
X+006036Y+002525
X+005986Y+002525
X+005936Y+002525
X+005886Y+002525
X+005886Y+002475
X+005936Y+002475
X+005986Y+002475
X+006036Y+002475
X+006036Y+002350
X+005986Y+002350
X+005936Y+002350
X+005886Y+002350
X+005886Y+002300
X+005936Y+002300
X+005986Y+002300
X+006036Y+002300
X+006034Y+001910
X+005984Y+001910
X+005934Y+001910
X+005884Y+001910
X+005294Y+001910
X+005244Y+001910
X+005194Y+001910
X+005144Y+001910
X+004969Y+001910
X+004919Y+001910
X+004869Y+001910
X+004819Y+001910
X+004584Y+001910
X+004534Y+001910
X+004484Y+001910
X+004434Y+001910
X+004471Y+001525
X+004471Y+001475
X+004471Y+001425
X+004471Y+001375
X+004521Y+001375
X+004521Y+001425
X+004521Y+001475
X+004521Y+001525
X+004531Y+002300
X+004481Y+002300
X+004481Y+002350
X+004431Y+002350
X+004431Y+002300
X+004531Y+002350
X+004581Y+002350
X+004581Y+002300
X+004581Y+002475
X+004581Y+002525
X+004531Y+002525
X+004481Y+002525
X+004431Y+002525
X+004431Y+002475
X+004481Y+002475
X+004531Y+002475
X+004816Y+002475
X+004816Y+002525
X+004866Y+002525
X+004866Y+002475
X+004916Y+002475
X+004916Y+002525
X+004966Y+002525
X+004966Y+002475
X+004966Y+002350
X+004916Y+002350
X+004866Y+002350
X+004816Y+002350
X+004816Y+002300
X+004866Y+002300
X+004916Y+002300
X+004966Y+002300
X+005426Y+002360
X+004581Y+002935
X+004531Y+002935
X+004481Y+002935
X+004431Y+002935
X+003971Y+002360
X+003511Y+002350
X+003511Y+002300
X+003461Y+002300
X+003411Y+002300
X+003361Y+002300
X+003361Y+002350
X+003411Y+002350
X+003461Y+002350
X+003461Y+002475
X+003511Y+002475
X+003511Y+002525
X+003461Y+002525
X+003411Y+002525
X+003361Y+002525
X+003361Y+002475
X+003411Y+002475
X+003131Y+002285
X+003036Y+002285
X+002941Y+002285
X+002936Y+001960
X+002886Y+001960
X+002886Y+001760
X+002936Y+001760
X+003359Y+001910
X+003409Y+001910
X+003459Y+001910
X+003509Y+001910
X+003689Y+001910
X+003739Y+001910
X+003789Y+001910
X+003839Y+001910
X+003466Y+001525
X+003416Y+001525
X+003416Y+001475
X+003416Y+001425
X+003416Y+001375
X+003466Y+001375
X+003466Y+001425
X+003466Y+001475
X+002546Y+002135
X+002476Y+002135
X+002406Y+002135
X+002336Y+002135
X+002266Y+002135
X+001856Y+001900
X+001856Y+001770
X+002154Y+002668
X+002204Y+002668
X+002204Y+002785
X+002154Y+002785
X+003591Y+004105
X+003821Y+004030
X+003766Y+004960
X+003716Y+004960
X+003666Y+004960
X+003616Y+004960
X+003396Y+004935
X+003286Y+004935
X+003286Y+005100
X+003396Y+005100
X+003791Y+005550
X+003791Y+005650
X+003691Y+006185
X+003691Y+006285
X+004091Y+006485
X+004091Y+006585
X+004561Y+006640
X+004561Y+006690
X+004631Y+006690
X+004631Y+006640
X+004701Y+006640
X+004701Y+006690
X+005021Y+006570
X+005099Y+006570
X+005311Y+006490
X+005311Y+006323
X+005236Y+006165
X+005096Y+006165
X+005591Y+006159
X+005591Y+005985
X+005821Y+005995
X+005821Y+006045
X+005871Y+006045
X+005871Y+005995
X+005921Y+005995
X+005921Y+005945
X+005871Y+005945
X+005821Y+005945
X+005921Y+006045
X+005979Y+005820
X+005979Y+005748
X+006386Y+006005
X+006526Y+005945
X+006461Y+005845
X+006591Y+005665
X+006646Y+005665
X+006646Y+005625
X+006646Y+005585
X+006591Y+005585
X+006876Y+005625
X+006941Y+005570
X+006991Y+005625
X+006941Y+005680
X+006876Y+005945
X+007301Y+006180
X+007361Y+006180
X+007421Y+006180
X+007566Y+006295
X+007541Y+006330
X+007591Y+006330
X+007616Y+006295
X+007641Y+006330
X+007666Y+006295
X+007691Y+006330
X+007716Y+006295
X+007741Y+006330
X+007766Y+006295
X+007791Y+006330
X+007816Y+006295
X+007841Y+006330
X+007866Y+006295
X+007891Y+006330
X+007916Y+006295
X+007941Y+006330
X+008041Y+006350
X+008211Y+006350
X+008201Y+006088
X+008481Y+006350
X+008681Y+006350
X+008881Y+006350
X+009001Y+006350
X+009121Y+006350
X+008901Y+006620
X+008821Y+006620
X+008781Y+006740
X+008721Y+006790
X+008611Y+006835
X+008461Y+006690
X+008381Y+006690
X+008341Y+006610
X+008261Y+006610
X+007961Y+006660
X+007881Y+006660
X+007801Y+006660
X+007721Y+006660
X+007641Y+006660
X+007561Y+006660
X+007021Y+006540
X+006321Y+006540
X+006366Y+006160
X+005596Y+006540
X+005211Y+006900
X+005071Y+006900
X+005401Y+007560
X+005461Y+007560
X+006021Y+007210
X+006341Y+007240
X+006461Y+007160
X+006341Y+007080
X+006739Y+007355
X+007001Y+007350
X+007137Y+007355
X+007141Y+007480
X+007143Y+007609
X+007401Y+007870
X+007671Y+007995
X+007671Y+007600
X+007671Y+007350
X+008401Y+007700
X+008451Y+007750
X+008281Y+007905
X+008331Y+007960
X+008481Y+008220
X+008531Y+008270
X+008651Y+008156
X+008751Y+008100
X+008841Y+008010
X+008891Y+008065
X+008961Y+007850
X+009021Y+007800
X+008891Y+008340
X+008151Y+008340
X+007944Y+009080
X+007466Y+008923
X+007341Y+008890
X+007311Y+008835
X+007244Y+008832
X+006565Y+007990
X+006024Y+009035
X+005591Y+009035
X+005311Y+008985
X+005099Y+009065
X+005016Y+009065
X+004701Y+009140
X+004701Y+009190
X+004631Y+009190
X+004631Y+009140
X+004561Y+009140
X+004561Y+009190
X+004301Y+009185
X+004201Y+009185
X+004101Y+009185
X+004101Y+009085
X+004201Y+009085
X+004301Y+009085
X+004301Y+008985
X+004201Y+008985
X+004201Y+008885
X+004201Y+008785
X+004201Y+008685
X+004101Y+008685
X+004001Y+008685
X+004001Y+008785
X+004001Y+008885
X+003901Y+008885
X+003901Y+008985
X+003801Y+008985
X+003801Y+008885
X+003801Y+008785
X+003801Y+008685
X+003701Y+008685
X+003701Y+008785
X+003701Y+008885
X+003701Y+008985
X+003701Y+009085
X+003801Y+009085
X+003901Y+009085
X+003901Y+009185
X+004001Y+009185
X+004001Y+009085
X+004001Y+008985
X+004101Y+008985
X+004101Y+008885
X+004101Y+008785
X+004301Y+008785
X+004301Y+008685
X+004301Y+008885
X+003901Y+008785
X+003901Y+008685
X+003901Y+008450
X+004001Y+008450
X+004101Y+008450
X+004201Y+008450
X+004301Y+008450
X+004301Y+008350
X+004201Y+008350
X+004101Y+008350
X+004101Y+008250
X+004101Y+008150
X+004201Y+008150
X+004201Y+008050
X+004201Y+007950
X+004101Y+007950
X+004001Y+007950
X+003901Y+007950
X+003801Y+007950
X+003701Y+007950
X+003701Y+008050
X+003701Y+008150
X+003801Y+008150
X+003901Y+008150
X+003901Y+008250
X+003801Y+008250
X+003801Y+008350
X+003901Y+008350
X+004001Y+008350
X+004001Y+008250
X+004001Y+008150
X+004001Y+008050
X+003901Y+008050
X+003801Y+008050
X+003701Y+008250
X+003701Y+008350
X+003701Y+008450
X+003801Y+008450
X+004201Y+008250
X+004301Y+008250
X+004301Y+008150
X+004301Y+008050
X+004301Y+007950
X+004101Y+008050
X+004561Y+008410
X+004561Y+008460
X+004631Y+008460
X+004631Y+008410
X+004701Y+008410
X+004701Y+008460
X+004751Y+009550
X+004651Y+009590
X+004561Y+009588
X+004391Y+009630
X+004221Y+009670
X+004031Y+009683
X+003851Y+009700
X+003751Y+009700
X+003671Y+009700
X+003601Y+009700
X+003531Y+009750
X+003461Y+009760
X+003401Y+009810
X+003351Y+009860
X+003271Y+009910
X+003151Y+009960
X+003201Y+010070
X+003091Y+010130
X+002991Y+010190
X+003041Y+010020
X+003301Y+010355
X+003551Y+010200
X+003701Y+010190
X+003801Y+010210
X+003906Y+010355
X+003551Y+011230
X+003501Y+011390
X+003551Y+011463
X+003601Y+011390
X+003701Y+011390
X+003801Y+011390
X+004131Y+011400
X+004241Y+011480
X+004271Y+011450
X+004301Y+011480
X+004331Y+011450
X+004361Y+011480
X+004581Y+011420
X+004561Y+011320
X+004517Y+011276
X+004821Y+011420
X+004941Y+011480
X+004971Y+011450
X+005001Y+011480
X+005031Y+011450
X+005061Y+011480
X+005031Y+011510
X+004971Y+011510
X+004891Y+011150
X+004826Y+011103
X+004826Y+011040
X+005231Y+010990
X+005371Y+010990
X+005341Y+011150
X+005651Y+011510
X+006001Y+011750
X+007451Y+011450
X+007701Y+011450
X+007801Y+011450
X+007951Y+011450
X+008201Y+011450
X+008301Y+011450
X+008526Y+011450
X+008591Y+011400
X+008701Y+011400
X+008551Y+011755
X+010651Y+011550
X+010751Y+011500
X+011001Y+011750
X+011441Y+011160
X+011901Y+011433
X+012001Y+011430
X+012101Y+011433
X+012201Y+011433
X+012301Y+011433
X+012401Y+011440
X+012501Y+011433
X+012601Y+011433
X+012701Y+011433
X+012801Y+011433
X+012921Y+011440
X+013001Y+011433
X+013101Y+011433
X+013201Y+011433
X+013301Y+011433
X+013401Y+011433
X+013551Y+011480
X+013561Y+011400
X+013661Y+011400
X+013760Y+011400
X+014001Y+011160
X+014131Y+011400
X+014241Y+011480
X+014271Y+011450
X+014301Y+011480
X+014331Y+011450
X+014361Y+011480
X+014609Y+011258
X+014609Y+011195
X+014536Y+011145
X+014788Y+011097
X+014833Y+011141
X+015001Y+011160
X+015001Y+011023
X+015151Y+011325
X+015031Y+011450
X+015001Y+011480
X+014971Y+011450
X+014941Y+011480
X+014971Y+011510
X+015031Y+011510
X+015061Y+011480
X+014851Y+011388
X+015351Y+011160
X+015311Y+010730
X+015451Y+010730
X+015549Y+010628
X+015559Y+010565
X+015711Y+010413
X+015814Y+010438
X+015821Y+010370
X+015444Y+009998
X+015389Y+009958
X+015326Y+009915
X+015261Y+009875
X+015241Y+009650
X+015321Y+009530
X+015281Y+009480
X+015321Y+009430
X+015281Y+009380
X+015031Y+009290
X+015001Y+009090
X+015001Y+008970
X+015291Y+008975
X+015279Y+009110
X+015341Y+009120
X+015461Y+008975
X+015924Y+008840
X+016451Y+008850
X+016661Y+009250
X+016661Y+009428
X+016662Y+009659
X+016661Y+010075
X+017231Y+009955
X+017311Y+009885
X+017516Y+009955
X+017596Y+009885
X+017801Y+009955
X+017881Y+009885
X+018086Y+009955
X+018166Y+009885
X+017999Y+009675
X+017881Y+009465
X+017801Y+009395
X+017596Y+009465
X+017516Y+009395
X+017311Y+009465
X+017231Y+009395
X+016961Y+009175
X+017201Y+008850
X+017844Y+008988
X+017896Y+008930
X+017876Y+009190
X+018086Y+009395
X+018166Y+009465
X+018561Y+009465
X+018601Y+009465
X+018641Y+009465
X+018641Y+009530
X+018601Y+009530
X+018561Y+009530
X+018521Y+009868
X+018565Y+009912
X+018566Y+010034
X+018610Y+010079
X+018608Y+010197
X+018652Y+010241
X+018691Y+010400
X+018751Y+010470
X+018831Y+010310
X+019071Y+010125
X+019016Y+009965
X+019014Y+009860
X+019026Y+009705
X+019176Y+009705
X+019176Y+009535
X+018891Y+009445
X+019370Y+009269
X+019432Y+009269
X+019516Y+009200
X+019516Y+009138
X+019546Y+009030
X+019546Y+008968
X+019764Y+009035
X+019651Y+008700
X+019651Y+008520
X+019926Y+008525
X+019926Y+008620
X+019926Y+008720
X+020191Y+008516
X+020191Y+008375
X+020346Y+008445
X+020346Y+008795
X+019582Y+009759
X+019461Y+009720
X+019301Y+009860
X+019246Y+010125
X+019579Y+010138
X+019711Y+010248
X+019651Y+010590
X+019651Y+010760
X+019466Y+010730
X+019391Y+010800
X+019321Y+010730
X+019176Y+010730
X+019281Y+010875
X+019281Y+010938
X+019481Y+010980
X+019571Y+011150
X+019571Y+011213
X+019670Y+011252
X+019732Y+011252
X+019831Y+011370
X+019881Y+011370
X+019971Y+011450
X+020001Y+011480
X+020031Y+011450
X+020061Y+011480
X+020031Y+011510
X+019971Y+011510
X+019941Y+011480
X+020281Y+011310
X+020501Y+011280
X+020451Y+011050
X+020351Y+010850
X+020191Y+010569
X+020351Y+010500
X+019926Y+010580
X+019926Y+010675
X+019926Y+010775
X+019806Y+011105
X+019426Y+011425
X+019361Y+011480
X+019331Y+011450
X+019301Y+011480
X+019271Y+011450
X+019241Y+011480
X+019131Y+011400
X+019166Y+011160
X+018916Y+011160
X+018801Y+011160
X+018751Y+010950
X+018651Y+010950
X+018901Y+010960
X+018971Y+010960
X+018801Y+011450
X+018511Y+011410
X+018401Y+011410
X+018401Y+011160
X+018171Y+011160
X+018271Y+010910
X+018491Y+010740
X+018446Y+010545
X+018186Y+010560
X+017831Y+010500
X+017781Y+010550
X+017251Y+010680
X+017721Y+011160
X+017951Y+011448
X+017491Y+011450
X+017421Y+011450
X+017301Y+011450
X+017101Y+011450
X+016641Y+011500
X+016541Y+011160
X+016161Y+011160
X+015851Y+011160
X+015761Y+011500
X+015651Y+011550
X+016001Y+011750
X+015001Y+010490
X+015001Y+010250
X+015001Y+009850
X+015031Y+009690
X+015031Y+009610
X+014721Y+009070
X+014651Y+009100
X+014661Y+008975
X+014751Y+008770
X+014451Y+009161
X+014131Y+009201
X+013851Y+009321
X+013561Y+008955
X+013711Y+008500
X+013611Y+008450
X+013656Y+007960
X+013761Y+007910
X+013871Y+007910
X+013870Y+008015
X+013804Y+007743
X+013369Y+007305
X+013061Y+007380
X+013051Y+007470
X+013007Y+007514
X+013025Y+007646
X+012981Y+007690
X+012479Y+007850
X+012429Y+007750
X+012379Y+007700
X+011801Y+007800
X+011381Y+007510
X+011221Y+007275
X+011221Y+007155
X+011361Y+007075
X+011071Y+007510
X+010501Y+007075
X+011001Y+006535
X+011276Y+006100
X+011476Y+005900
X+011931Y+005890
X+011931Y+005955
X+011931Y+006020
X+011931Y+006085
X+011811Y+006535
X+012451Y+006350
X+012496Y+006350
X+012541Y+006350
X+012586Y+006350
X+012489Y+006218
X+012444Y+006245
X+012399Y+006218
X+012444Y+006190
X+012436Y+006100
X+012751Y+005970
X+012816Y+005970
X+012886Y+005970
X+012961Y+005970
X+013121Y+005970
X+013236Y+006010
X+013296Y+005980
X+013351Y+006010
X+013406Y+005980
X+013201Y+006100
X+013181Y+006335
X+013261Y+006330
X+013441Y+006350
X+012861Y+006350
X+013631Y+006928
X+014364Y+006933
X+014506Y+007128
X+014961Y+007025
X+015076Y+007090
X+015546Y+007025
X+015711Y+006940
X+015651Y+006675
X+015401Y+006735
X+015321Y+006575
X+015206Y+006625
X+015801Y+006450
X+015881Y+006530
X+015889Y+006350
X+015801Y+006150
X+015801Y+006070
X+015799Y+006000
X+015731Y+005485
X+015681Y+005445
X+015631Y+005485
X+015581Y+005445
X+015726Y+004870
X+016326Y+004895
X+016326Y+004814
X+016326Y+004734
X+016326Y+004650
X+016111Y+004390
X+016176Y+003400
X+016176Y+002750
X+016901Y+002750
X+017116Y+002465
X+016901Y+001850
X+016176Y+001850
X+016251Y+001335
X+015401Y+001850
X+015401Y+002750
X+015401Y+003400
X+014351Y+003400
X+013971Y+004020
X+014546Y+004390
X+014761Y+004650
X+014761Y+004735
X+014761Y+004815
X+014761Y+004900
X+014166Y+004870
X+013831Y+005640
X+013761Y+005640
X+013681Y+005635
X+013616Y+005635
X+013326Y+005050
X+013326Y+004515
X+012761Y+004580
X+012761Y+004135
X+012416Y+004140
X+012761Y+003600
X+013051Y+003275
X+013111Y+003210
X+013111Y+003140
X+013211Y+003260
X+013291Y+003260
X+013361Y+003260
X+013431Y+003260
X+013501Y+003260
X+013601Y+003400
X+013151Y+003330
X+013621Y+002635
X+014551Y+002660
X+014601Y+001335
X+013051Y+001850
X+012621Y+002465
X+012551Y+002465
X+012486Y+002465
X+012211Y+001193
X+011746Y+001193
X+011396Y+001192
X+011281Y+001193
X+009926Y+002040
X+009926Y+002085
X+009926Y+002130
X+009881Y+002130
X+009836Y+002130
X+009836Y+002085
X+009881Y+002085
X+009881Y+002040
X+009836Y+002040
X+009616Y+002035
X+009571Y+002035
X+009571Y+002080
X+009616Y+002080
X+009616Y+002125
X+009571Y+002125
X+009526Y+002125
X+009526Y+002080
X+009526Y+002035
X+009696Y+002555
X+009696Y+002605
X+009696Y+002655
X+009696Y+002705
X+009756Y+002705
X+009756Y+002655
X+009756Y+002605
X+009756Y+002555
X+009664Y+002800
X+009664Y+002945
X+009919Y+002945
X+009919Y+002800
X+010066Y+003820
X+010116Y+003820
X+010166Y+003820
X+010216Y+003820
X+010216Y+003880
X+010166Y+003880
X+010116Y+003880
X+010066Y+003880
X+009381Y+003880
X+009331Y+003880
X+009281Y+003880
X+009231Y+003880
X+009231Y+003820
X+009281Y+003820
X+009331Y+003820
X+009381Y+003820
X+008584Y+004125
X+008584Y+004270
X+008329Y+004270
X+008329Y+004125
X+008316Y+003990
X+008366Y+003990
X+008416Y+003990
X+008466Y+003990
X+008466Y+003920
X+008416Y+003920
X+008366Y+003920
X+008316Y+003920
X+007784Y+004125
X+007784Y+004270
X+007529Y+004270
X+007529Y+004125
X+007516Y+003990
X+007566Y+003990
X+007616Y+003990
X+007666Y+003990
X+007666Y+003920
X+007616Y+003920
X+007566Y+003920
X+007516Y+003920
X+006984Y+004123
X+006984Y+004268
X+006729Y+004268
X+006729Y+004123
X+006716Y+003990
X+006766Y+003990
X+006816Y+003990
X+006866Y+003990
X+006866Y+003920
X+006816Y+003920
X+006766Y+003920
X+006716Y+003920
X+006376Y+004605
X+006356Y+004795
X+006326Y+004830
X+006386Y+004830
X+006386Y+005015
X+006356Y+005055
X+006326Y+005015
X+006561Y+005200
X+006706Y+005200
X+006634Y+004975
X+007284Y+005108
X+007341Y+005460
X+007931Y+005513
X+007931Y+005205
X+007981Y+005120
X+008201Y+005120
X+008241Y+004880
X+007906Y+004540
X+007566Y+004540
X+007221Y+004540
X+005926Y+004830
X+005866Y+004830
X+005866Y+005015
X+005926Y+005015
X+005461Y+005060
X+005401Y+005060
X+005211Y+004400
X+005071Y+004400
X+006496Y+002075
X+006541Y+002075
X+006541Y+002030
X+006541Y+001985
X+006496Y+001985
X+006496Y+002030
X+006586Y+002030
X+006586Y+001985
X+006586Y+002075
X+006896Y+002075
X+006941Y+002075
X+006941Y+002030
X+006941Y+001985
X+006896Y+001985
X+006896Y+002030
X+006986Y+002030
X+006986Y+001985
X+006986Y+002075
X+007296Y+002075
X+007341Y+002075
X+007341Y+002030
X+007296Y+002030
X+007296Y+001985
X+007341Y+001985
X+007386Y+001985
X+007386Y+002030
X+007386Y+002075
X+007696Y+002075
X+007741Y+002075
X+007786Y+002075
X+007786Y+002030
X+007786Y+001985
X+007741Y+001985
X+007696Y+001985
X+007696Y+002030
X+007741Y+002030
X+008096Y+002030
X+008141Y+002030
X+008141Y+001985
X+008096Y+001985
X+008186Y+001985
X+008186Y+002030
X+008186Y+002075
X+008141Y+002075
X+008096Y+002075
X+008496Y+002075
X+008541Y+002075
X+008541Y+002030
X+008496Y+002030
X+008496Y+001985
X+008541Y+001985
X+008586Y+001985
X+008586Y+002030
X+008586Y+002075
X+009451Y+004685
X+009671Y+004687
X+009756Y+004857
X+009846Y+004990
X+009996Y+005015
X+010061Y+005060
X+010191Y+005148
X+010281Y+005000
X+010126Y+004875
X+009986Y+004850
X+010096Y+004687
X+010226Y+004687
X+010381Y+004740
X+010383Y+004492
X+010986Y+004355
X+011171Y+004240
X+011114Y+004140
X+011116Y+004705
X+011621Y+004898
X+011621Y+004945
X+011621Y+004993
X+012061Y+005470
X+012186Y+005470
X+012311Y+005470
X+012440Y+005470
X+012761Y+005050
X+014321Y+006350
X+014514Y+006218
X+014559Y+006190
X+014604Y+006218
X+014559Y+006245
X+014506Y+007743
X+014981Y+007825
X+015206Y+007675
X+015321Y+007780
X+015426Y+007825
X+015651Y+007725
X+015831Y+007890
X+015881Y+007940
X+015831Y+007990
X+015881Y+008040
X+015876Y+007353
X+016454Y+007353
X+016701Y+007130
X+016941Y+007060
X+016901Y+007350
X+017601Y+007070
X+017691Y+007670
X+017176Y+006580
X+016454Y+006350
X+017531Y+005640
X+017621Y+005640
X+017805Y+005641
X+017891Y+005640
X+017881Y+004899
X+017881Y+004815
X+017881Y+004735
X+017881Y+004650
X+017671Y+004390
X+017291Y+004870
X+016901Y+003400
X+018001Y+002525
X+018751Y+002525
X+019291Y+002530
X+019341Y+002531
X+019391Y+002530
X+019721Y+002530
X+019771Y+002531
X+019821Y+002530
X+019821Y+002105
X+019771Y+002105
X+019721Y+002105
X+019381Y+002100
X+019331Y+002100
X+019281Y+002100
X+019737Y+001630
X+020081Y+001278
X+020144Y+001278
X+020191Y+001115
X+020141Y+002180
X+020841Y+002180
X+020841Y+002230
X+020841Y+002130
X+020796Y+004390
X+020289Y+004685
X+020416Y+004870
X+019456Y+004899
X+019456Y+004815
X+019456Y+004735
X+019456Y+004650
X+019231Y+004390
X+018851Y+004870
X+019181Y+005630
X+019181Y+005700
X+019421Y+005700
X+019421Y+005630
X+019496Y+006900
X+020386Y+006900
X+018961Y+007700
X+019076Y+008850
X+018326Y+008850
X+019321Y+010495
X+018551Y+011755
X+016216Y+009318
X+013760Y+010630
X+013661Y+010630
X+012931Y+011160
X+012431Y+011160
X+013551Y+011755
X+012111Y+008320
X+009676Y+007075
X+009501Y+007155
X+009501Y+007216
X+009501Y+007275
X+009021Y+006690
X+008941Y+006690
X+008611Y+007058
X+008611Y+007110
X+008616Y+007325
X+008661Y+006090
X+008651Y+005940
X+009071Y+005800
X+009091Y+005635
X+008951Y+005540
X+009251Y+005980
X+009726Y+006035
X+010016Y+005980
X+009971Y+005470
X+009971Y+005375
X+009971Y+005280
X+009871Y+005280
X+009871Y+005375
X+009871Y+005470
X+009771Y+005470
X+009771Y+005375
X+009771Y+005280
X+009551Y+005400
X+009511Y+005480
X+009551Y+005148
X+010231Y+005428
X+006101Y+010180
X+005551Y+010180
X+005339Y+009525
X+005231Y+009510
X+004031Y+009370
X+003801Y+009185
X+003701Y+009185
X+003721Y+009370
X+003296Y+009422
X+003161Y+009400
X+003051Y+009420
X+002501Y+009400
X+002371Y+009430
X+002121Y+009430
X+001976Y+010355
X+002371Y+010355
X+002551Y+010570
X+002651Y+010520
X+002751Y+010470
X+002851Y+010400
X+002801Y+010620
X+002701Y+010660
X+002601Y+010690
X+002501Y+010730
X+002451Y+010680
X+002351Y+010805
X+002301Y+010750
X+002251Y+010850
X+002151Y+010910
X+002201Y+010960
X+002101Y+010970
X+002051Y+011020
X+001951Y+011080
X+002001Y+011130
X+001901Y+011190
X+001901Y+011390
X+002001Y+011390
X+002101Y+011390
X+002201Y+011390
X+002301Y+011390
X+002451Y+011460
X+002501Y+011390
X+002601Y+011390
X+002701Y+011390
X+002801Y+011390
X+002911Y+011390
X+002991Y+011390
X+003091Y+011390
X+003201Y+011390
X+003301Y+011390
X+003401Y+011390
X+003551Y+011750
X+002911Y+011230
X+002451Y+011230
X+001731Y+011300
X+001851Y+010790
X+003286Y+007600
X+003396Y+007600
X+003396Y+007435
X+003286Y+007435
X+003616Y+007460
X+003666Y+007460
X+003716Y+007460
X+003766Y+007460
T02
X+001574Y+001573
X+001641Y+001410
X+001574Y+001247
X+001411Y+001180
X+001248Y+001247
X+001181Y+001410
X+001248Y+001573
X+001411Y+001640
X+001411Y+009360
X+001574Y+009427
X+001641Y+009590
X+001574Y+009753
X+001411Y+009820
X+001248Y+009753
X+001181Y+009590
X+001248Y+009427
X+010771Y+005500
X+010838Y+005663
X+011001Y+005730
X+011164Y+005663
X+011231Y+005500
X+011164Y+005337
X+011001Y+005270
X+010838Y+005337
X+020361Y+001410
X+020428Y+001573
X+020591Y+001640
X+020754Y+001573
X+020821Y+001410
X+020754Y+001247
X+020591Y+001180
X+020428Y+001247
X+020591Y+009360
X+020428Y+009427
X+020361Y+009590
X+020428Y+009753
X+020591Y+009820
X+020754Y+009753
X+020821Y+009590
X+020754Y+009427
T03
X+002444Y+003373
X+002798Y+003727
X+002798Y+004658
X+002444Y+005012
X+002793Y+007158
X+002439Y+007512
X+009246Y+004100
X+009246Y+003600
X+010341Y+003600
X+010341Y+004100
T04
X+010204Y+002426
X+010349Y+002934
X+009249Y+002934
X+009104Y+002426
X+008519Y+002851
X+008119Y+002851
X+007719Y+002851
X+007319Y+002851
X+006919Y+002851
X+006519Y+002851
X+006664Y+003359
X+007064Y+003359
X+007464Y+003359
X+007864Y+003359
X+008264Y+003359
X+008664Y+003359
X+002885Y+005638
X+002377Y+005783
X+002377Y+006508
X+002885Y+006363
X+002880Y+008138
X+002372Y+008283
X+002372Y+009008
X+002880Y+008863
T05
X+002391Y+001340
X+002641Y+001340
X+002891Y+001340
X+001341Y+010240
X+001341Y+010490
X+001341Y+010740
X+001341Y+010990
X+011811Y+004590
X+012061Y+004590
X+012311Y+004590
X+012561Y+004590
X+013351Y+003850
X+013601Y+003850
X+013851Y+003850
X+014101Y+003850
X+014351Y+003850
X+014601Y+003850
X+014851Y+003850
X+015101Y+003850
X+015351Y+003850
X+015976Y+003850
X+016226Y+003850
X+016476Y+003850
X+016726Y+003850
X+016976Y+003850
X+017226Y+003850
X+017476Y+003850
X+017726Y+003850
X+017976Y+003850
X+018601Y+003850
X+018851Y+003850
X+019101Y+003850
X+019351Y+003850
X+019601Y+003850
X+019851Y+003850
X+020101Y+003850
X+020351Y+003850
X+020601Y+003850
X+020601Y+002950
X+020351Y+002950
X+020101Y+002950
X+019851Y+002950
X+019601Y+002950
X+019351Y+002950
X+018501Y+002950
X+018251Y+002950
X+018251Y+001340
X+018501Y+001340
X+018751Y+001340
X+019001Y+001340
X+019626Y+001340
X+019876Y+001340
X+019851Y+005450
X+020101Y+005450
X+020351Y+005450
X+020601Y+005450
X+019601Y+005450
X+019351Y+005450
X+019101Y+005450
X+018851Y+005450
X+018601Y+005450
X+017976Y+005450
X+017726Y+005450
X+017476Y+005450
X+017226Y+005450
X+016976Y+005450
X+016726Y+005450
X+016476Y+005450
X+016226Y+005450
X+015976Y+005450
X+015351Y+005450
X+015101Y+005450
X+014851Y+005450
X+014601Y+005450
X+014351Y+005450
X+014101Y+005450
X+013851Y+005450
X+013601Y+005450
X+013351Y+005450
X+016201Y+008400
X+016451Y+008400
X+016701Y+008400
X+016951Y+008400
X+017201Y+008400
X+017451Y+008400
X+018076Y+008400
X+018326Y+008400
X+018576Y+008400
X+018826Y+008400
X+019076Y+008400
X+019326Y+008400
X+019526Y+007450
X+019776Y+007450
X+020026Y+007450
X+020276Y+007450
X+020526Y+007450
X+020626Y+008370
X+020626Y+008620
X+020626Y+008870
X+020626Y+010300
X+020626Y+010550
X+020626Y+010800
X+020526Y+006450
X+020276Y+006450
X+020026Y+006450
X+019776Y+006450
X+019526Y+006450
X+014291Y+001340
X+014041Y+001340
X+013791Y+001340
X+013541Y+001340
X+013291Y+001340
X+013041Y+001340
T06
X+012256Y+003095
X+012046Y+003095
X+011846Y+003095
X+011646Y+003095
X+011446Y+003095
X+011236Y+003095
T07
X+012096Y+002181
X+011846Y+002181
X+011646Y+002181
X+011396Y+002181
X+017051Y+006250
X+017051Y+006504
X+017305Y+006504
X+017305Y+006250
X+017559Y+006250
X+017559Y+006504
X+017813Y+006504
X+017813Y+006250
X+018067Y+006250
X+018067Y+006504
X+018067Y+007250
X+018067Y+007504
X+017813Y+007504
X+017559Y+007504
X+017559Y+007250
X+017305Y+007250
X+017305Y+007504
X+017051Y+007504
X+017051Y+007250
X+017813Y+007250
T08
X+009021Y+004931
X+008482Y+005469
T09
X+011137Y+003628
X+011391Y+003628
X+012101Y+003628
X+012355Y+003628
T10
X+012146Y+003995
X+011892Y+003995
X+011638Y+003995
X+011384Y+003995
X+020059Y+009208
X+020059Y+009462
X+020059Y+009716
X+020059Y+009970
T11
X+012553Y+002722
X+012553Y+001660
X+010940Y+001660
X+010940Y+002722
T12
X+014866Y+001345
X+015247Y+001345
X+015628Y+001345
X+016009Y+001345
X+016491Y+001345
X+016872Y+001345
X+017253Y+001345
X+017634Y+001345
T13
X+001496Y+008950
X+001496Y+008554
X+001496Y+008158
X+001496Y+007762
X+001496Y+007366
X+001496Y+006970
X+001501Y+006450
X+001501Y+006054
X+001501Y+005658
X+001501Y+005262
X+001501Y+004866
X+001501Y+004470
X+003773Y+001450
X+004169Y+001450
X+006606Y+001480
X+007002Y+001480
X+007398Y+001480
X+007794Y+001480
X+008190Y+001480
X+008586Y+001480
T14
X+001501Y+003919
X+001501Y+003523
X+001501Y+003127
X+001501Y+002731
X+004857Y+001480
X+005253Y+001480
X+005649Y+001480
X+006045Y+001480
X+009132Y+001480
X+009528Y+001480
X+009924Y+001480
X+010320Y+001480
T15
X+005631Y+011750
X+006371Y+011750
X+010631Y+011750
X+011371Y+011750
X+015631Y+011750
X+016371Y+011750
X+020631Y+011750
X+001371Y+011750
T16
X+011090Y+001911
X+012403Y+001911
T17
X+012501Y+007500
X+011001Y+006250
X+009501Y+007500
X+011001Y+010750
T18
X+016162Y+007352
X+016162Y+006352
X+018956Y+006352
X+018956Y+007352
T19
X+001411Y+001410
X+001411Y+009590
X+011001Y+005500
X+020591Y+009590
X+020591Y+001410
T00
M30
