G04 DipTrace 5.2.0.4*
G04 TopAssembly.gbr*
%MOMM*%
G04 #@! TF.FileFunction,Drawing,Top*
G04 #@! TF.Part,Single*
%ADD10C,0.1*%
%ADD13C,0.12*%
%ADD14C,0.05*%
%ADD38C,0.2*%
%ADD49C,0.127*%
%ADD68C,0.075*%
%ADD152C,0.07843*%
%ADD156C,0.11765*%
%FSLAX35Y35*%
G04*
G71*
G90*
G75*
G01*
G04 TopAssy*
%LPD*%
X19941086Y2555011D2*
D13*
X19601086Y2554992D1*
X19601113Y2074992D1*
X19941113Y2075011D1*
X19941086Y2555011D1*
X16974099Y9127001D2*
Y9223001D1*
X16798099D1*
Y9127001D1*
X16974099D1*
X2095825Y5359984D2*
X3145825Y5360019D1*
X3145853Y4521019D1*
X2935860Y4310012D1*
X2306860Y4309991D1*
X2095853Y4520984D1*
X2095825Y5359984D1*
X2096052Y4074935D2*
X3146052Y4075062D1*
X3146154Y3236062D1*
X2936180Y3025036D1*
X2307180Y3024960D1*
X2096154Y3235935D1*
X2096052Y4074935D1*
X3814850Y10322503D2*
X3814849Y10387503D1*
X3697349Y10387500D1*
X3697350Y10322500D1*
X3814850Y10322503D1*
X14388098Y2627999D2*
X14388101Y2531999D1*
X14564101Y2532004D1*
X14564098Y2628004D1*
X14388098Y2627999D1*
X4289095Y7170004D2*
X4143095Y7169999D1*
X4143104Y6949999D1*
X4289104Y6950004D1*
X4289095Y7170004D1*
X5036093Y3375007D2*
X4766093Y3374996D1*
X4766106Y3034996D1*
X5036106Y3035007D1*
X5036093Y3375007D1*
X4489095Y7170004D2*
X4343095Y7169999D1*
X4343104Y6949999D1*
X4489104Y6950004D1*
X4489095Y7170004D1*
X3989097Y7548003D2*
X3893097Y7548000D1*
X3893102Y7372000D1*
X3989102Y7372003D1*
X3989097Y7548003D1*
X5069097Y6333003D2*
X4973097Y6333000D1*
X4973102Y6157000D1*
X5069102Y6157003D1*
X5069097Y6333003D1*
X10153102Y10187000D2*
X10249102Y10187003D1*
X10249097Y10363003D1*
X10153097Y10363000D1*
X10153102Y10187000D1*
X5558104Y5051999D2*
X5654104Y5052004D1*
X5654095Y5228004D1*
X5558095Y5227999D1*
X5558104Y5051999D1*
X5631095Y4755004D2*
X5451095Y4754999D1*
X5451104Y4414999D1*
X5631104Y4415004D1*
X5631095Y4755004D1*
X1959848Y10322499D2*
X1959851Y10387499D1*
X1842351Y10387504D1*
X1842348Y10322504D1*
X1959848Y10322499D1*
X5509096Y5933003D2*
X5413096Y5933000D1*
X5413103Y5757000D1*
X5509103Y5757003D1*
X5509096Y5933003D1*
X6086090Y3375009D2*
X5816090Y3374994D1*
X5816109Y3034994D1*
X6086109Y3035009D1*
X6086090Y3375009D1*
X5069097Y8828003D2*
X4973097Y8828000D1*
X4973102Y8652000D1*
X5069102Y8652003D1*
X5069097Y8828003D1*
X10492348Y9052498D2*
X10492351Y8987498D1*
X10609851Y8987505D1*
X10609848Y9052505D1*
X10492348Y9052498D1*
X5756097Y3360003D2*
X5696097Y3360000D1*
X5696102Y3250000D1*
X5756102Y3250003D1*
X5756097Y3360003D1*
X5156097D2*
X5096097Y3360000D1*
X5096102Y3250000D1*
X5156102Y3250003D1*
X5156097Y3360003D1*
X5514103Y3907009D2*
X5514096Y4003009D1*
X5338096Y4002994D1*
X5338103Y3906994D1*
X5514103Y3907009D1*
X5816108Y2484995D2*
X6086108Y2485008D1*
X6086091Y2825008D1*
X5816091Y2824995D1*
X5816108Y2484995D1*
X5903104Y3566999D2*
X5999104Y3567004D1*
X5999095Y3743004D1*
X5903095Y3742999D1*
X5903104Y3566999D1*
X6364093Y6173005D2*
X6268093Y6172998D1*
X6268106Y5996998D1*
X6364106Y5997005D1*
X6364093Y6173005D1*
X7883099Y5267001D2*
X7979099D1*
Y5443001D1*
X7883099D1*
Y5267001D1*
X5069097Y8103003D2*
X4973097Y8103000D1*
X4973102Y7927000D1*
X5069102Y7927003D1*
X5069097Y8103003D1*
X2091082Y7859984D2*
X3141082Y7860019D1*
X3141110Y7021019D1*
X2931117Y6810012D1*
X2302117Y6809991D1*
X2091110Y7020984D1*
X2091082Y7859984D1*
X3596090Y7194989D2*
X3596109Y6924989D1*
X3936109Y6925014D1*
X3936090Y7195014D1*
X3596090Y7194989D1*
X19649098Y1903011D2*
X19553098Y1903006D1*
X19553108Y1727006D1*
X19649108Y1727011D1*
X19649098Y1903011D1*
X5359097Y6333003D2*
X5263097Y6333000D1*
X5263102Y6157000D1*
X5359102Y6157003D1*
X5359097Y6333003D1*
X5228597Y6578753D2*
X5163597Y6578750D1*
X5163602Y6461250D1*
X5228602Y6461253D1*
X5228597Y6578753D1*
X5558102Y7552000D2*
X5654102Y7552003D1*
X5654097Y7728003D1*
X5558097Y7728000D1*
X5558102Y7552000D1*
X14559076Y4251977D2*
X14559070Y4347977D1*
X14383070Y4347966D1*
X14383076Y4251966D1*
X14559076Y4251977D1*
X5631095Y7280004D2*
X5451095Y7279999D1*
X5451104Y6939999D1*
X5631104Y6940004D1*
X5631095Y7280004D1*
X4489097Y4670003D2*
X4343097Y4670000D1*
X4343102Y4450000D1*
X4489102Y4450003D1*
X4489097Y4670003D1*
X4289095Y4670004D2*
X4143095Y4669999D1*
X4143104Y4449999D1*
X4289104Y4450004D1*
X4289095Y4670004D1*
X3989097Y5048003D2*
X3893097Y5048000D1*
X3893102Y4872000D1*
X3989102Y4872003D1*
X3989097Y5048003D1*
X19273099Y10482001D2*
X19369099D1*
Y10658001D1*
X19273099D1*
Y10482001D1*
X16124076Y4251977D2*
X16124070Y4347977D1*
X15948070Y4347966D1*
X15948076Y4251966D1*
X16124076Y4251977D1*
X11674097Y9963003D2*
X11578097Y9963000D1*
X11578102Y9787000D1*
X11674102Y9787003D1*
X11674097Y9963003D1*
X10249097D2*
X10153097Y9963000D1*
X10153102Y9787000D1*
X10249102Y9787003D1*
X10249097Y9963003D1*
X11578101Y10187001D2*
X11674101Y10187002D1*
X11674098Y10363002D1*
X11578098Y10363001D1*
X11578101Y10187001D1*
X10399097Y9963003D2*
X10303097Y9963000D1*
X10303102Y9787000D1*
X10399102Y9787003D1*
X10399097Y9963003D1*
X11824097D2*
X11728097Y9963000D1*
X11728102Y9787000D1*
X11824102Y9787003D1*
X11824097Y9963003D1*
X10303102Y10187000D2*
X10399102Y10187003D1*
X10399097Y10363003D1*
X10303097Y10363000D1*
X10303102Y10187000D1*
X6364097Y8668003D2*
X6268097Y8668000D1*
X6268102Y8492000D1*
X6364102Y8492003D1*
X6364097Y8668003D1*
X18603100Y2361996D2*
X18699100Y2362000D1*
X18699092Y2538000D1*
X18603092Y2537996D1*
X18603100Y2361996D1*
X11728102Y10187000D2*
X11824102Y10187003D1*
X11824097Y10363003D1*
X11728097Y10363000D1*
X11728102Y10187000D1*
X10251099Y4375001D2*
Y3325001D1*
X9412099D1*
X9201099Y3535001D1*
Y4164001D1*
X9412099Y4375001D1*
X10251099D1*
X5504097Y8428003D2*
X5408097Y8428000D1*
X5408102Y8252000D1*
X5504102Y8252003D1*
X5504097Y8428003D1*
X18053100Y2361996D2*
X18149100Y2362000D1*
X18149092Y2538000D1*
X18053092Y2537996D1*
X18053100Y2361996D1*
X17684076Y4251977D2*
X17684070Y4347977D1*
X17508070Y4347966D1*
X17508076Y4251966D1*
X17684076Y4251977D1*
X14388098Y2787999D2*
X14388101Y2691999D1*
X14564101Y2692004D1*
X14564098Y2788004D1*
X14388098Y2787999D1*
X6513099Y4962001D2*
X6609099D1*
Y5138001D1*
X6513099D1*
Y4962001D1*
X5937349Y4512500D2*
X5937350Y4577500D1*
X5819850Y4577503D1*
X5819849Y4512503D1*
X5937349Y4512500D1*
X18649096Y1928027D2*
X18553096Y1928023D1*
X18553103Y1752023D1*
X18649103Y1752027D1*
X18649096Y1928027D1*
X19418099Y10482001D2*
X19514099D1*
Y10658001D1*
X19418099D1*
Y10482001D1*
X18929099Y1928025D2*
X18833099D1*
Y1752025D1*
X18929099D1*
Y1928025D1*
X9624855Y4655003D2*
X9624850Y4720003D1*
X9507350Y4719993D1*
X9507355Y4654993D1*
X9624855Y4655003D1*
X10158606Y4978748D2*
X10223606Y4978755D1*
X10223593Y5096255D1*
X10158593Y5096248D1*
X10158606Y4978748D1*
X17143094Y9367992D2*
X17143104Y9271992D1*
X17319104Y9272011D1*
X17319094Y9368011D1*
X17143094Y9367992D1*
X9518605Y4978749D2*
X9583605Y4978754D1*
X9583594Y5096254D1*
X9518594Y5096249D1*
X9518605Y4978749D1*
X10333110Y4724494D2*
X10429110Y4724502D1*
X10429096Y4900502D1*
X10333096Y4900494D1*
X10333110Y4724494D1*
X19244076Y4251977D2*
X19244070Y4347977D1*
X19068070Y4347966D1*
X19068076Y4251966D1*
X19244076Y4251977D1*
X19128099Y10482001D2*
X19224099D1*
Y10658001D1*
X19128099D1*
Y10482001D1*
X17428095Y9367994D2*
X17428104Y9271994D1*
X17604104Y9272009D1*
X17604095Y9368009D1*
X17428095Y9367994D1*
X6296099Y5875001D2*
Y5755001D1*
X6236099Y5695001D1*
X5956099D1*
Y5875001D1*
X6296099D1*
X6658102Y4962000D2*
X6754102Y4962003D1*
X6754097Y5138003D1*
X6658097Y5138000D1*
X6658102Y4962000D1*
X3596093Y4694994D2*
X3596105Y4424994D1*
X3936105Y4425009D1*
X3936093Y4695009D1*
X3596093Y4694994D1*
X7493598Y7978752D2*
X7428598Y7978751D1*
X7428601Y7861251D1*
X7493601Y7861252D1*
X7493598Y7978752D1*
X17713095Y9367994D2*
X17713104Y9271994D1*
X17889104Y9272009D1*
X17889095Y9368009D1*
X17713095Y9367994D1*
X10322348Y5782499D2*
X10322351Y5717499D1*
X10439851Y5717504D1*
X10439848Y5782504D1*
X10322348Y5782499D1*
X16348099Y9223001D2*
Y9127001D1*
X16524099D1*
Y9223001D1*
X16348099D1*
X19618599Y8561251D2*
X19683599D1*
Y8678751D1*
X19618599D1*
Y8561251D1*
X17998095Y9367994D2*
X17998104Y9271994D1*
X18174104Y9272009D1*
X18174095Y9368009D1*
X17998095Y9367994D1*
X20809076Y4251977D2*
X20809070Y4347977D1*
X20633070Y4347966D1*
X20633076Y4251966D1*
X20809076Y4251977D1*
X17998094Y10077992D2*
X17998104Y9981992D1*
X18174104Y9982011D1*
X18174094Y10078011D1*
X17998094Y10077992D1*
X5359097Y8828003D2*
X5263097Y8828000D1*
X5263102Y8652000D1*
X5359102Y8652003D1*
X5359097Y8828003D1*
X20223598Y8553752D2*
X20158598Y8553751D1*
X20158601Y8436251D1*
X20223601Y8436252D1*
X20223598Y8553752D1*
X17713094Y10077992D2*
X17713104Y9981992D1*
X17889104Y9982011D1*
X17889094Y10078011D1*
X17713094Y10077992D1*
X17428094D2*
X17428104Y9981992D1*
X17604104Y9982011D1*
X17604094Y10078011D1*
X17428094Y10077992D1*
X17143094D2*
X17143104Y9981992D1*
X17319104Y9982011D1*
X17319094Y10078011D1*
X17143094Y10077992D1*
X15664100Y7777003D2*
X15664098Y7873003D1*
X15488098Y7873000D1*
X15488100Y7777000D1*
X15664100Y7777003D1*
Y6702003D2*
X15664098Y6798003D1*
X15488098Y6798000D1*
X15488100Y6702000D1*
X15664100Y6702003D1*
X10688099Y9798001D2*
Y9702001D1*
X10864099D1*
Y9798001D1*
X10688099D1*
X7629097Y8008003D2*
X7533097Y8008000D1*
X7533102Y7832000D1*
X7629102Y7832003D1*
X7629097Y8008003D1*
X6569849Y7957501D2*
Y8022501D1*
X6452349D1*
Y7957501D1*
X6569849D1*
X6457349Y7895001D2*
Y7830001D1*
X6574849D1*
Y7895001D1*
X6457349D1*
X5228598Y9073752D2*
X5163598Y9073751D1*
X5163601Y8956251D1*
X5228601Y8956252D1*
X5228598Y9073752D1*
X5359097Y8103003D2*
X5263097Y8103000D1*
X5263102Y7927000D1*
X5359102Y7927003D1*
X5359097Y8103003D1*
X6479099Y7703001D2*
X6383099D1*
Y7527001D1*
X6479099D1*
Y7703001D1*
X20223597Y8803753D2*
X20158597Y8803750D1*
X20158602Y8686250D1*
X20223602Y8686253D1*
X20223597Y8803753D1*
X5228597Y8348753D2*
X5163597Y8348750D1*
X5163602Y8231250D1*
X5228602Y8231253D1*
X5228597Y8348753D1*
X6518601Y7106250D2*
X6583601Y7106253D1*
X6583597Y7223753D1*
X6518597Y7223750D1*
X6518601Y7106250D1*
X19618599Y10616251D2*
X19683599D1*
Y10733751D1*
X19618599D1*
Y10616251D1*
X5064097Y5608003D2*
X4968097Y5608000D1*
X4968102Y5432000D1*
X5064102Y5432003D1*
X5064097Y5608003D1*
X5359097D2*
X5263097Y5608000D1*
X5263102Y5432000D1*
X5359102Y5432003D1*
X5359097Y5608003D1*
X5228597Y5853753D2*
X5163597Y5853750D1*
X5163602Y5736250D1*
X5228602Y5736253D1*
X5228597Y5853753D1*
X10322348Y5657499D2*
X10322351Y5592499D1*
X10439851Y5592504D1*
X10439848Y5657504D1*
X10322348Y5657499D1*
X5413601Y11171250D2*
X5478601Y11171253D1*
X5478597Y11288753D1*
X5413597Y11288750D1*
X5413601Y11171250D1*
X10418601D2*
X10483601Y11171253D1*
X10483597Y11288753D1*
X10418597Y11288750D1*
X10418601Y11171250D1*
X15418601Y11171251D2*
X15483601Y11171252D1*
X15483598Y11288752D1*
X15418598Y11288751D1*
X15418601Y11171251D1*
X20418601D2*
X20483601Y11171252D1*
X20483598Y11288752D1*
X20418598Y11288751D1*
X20418601Y11171251D1*
X20223599Y10608751D2*
X20158599D1*
Y10491251D1*
X20223599D1*
Y10608751D1*
X20223598Y10858752D2*
X20158598Y10858751D1*
X20158601Y10741251D1*
X20223601Y10741252D1*
X20223598Y10858752D1*
X2091099Y7335001D2*
G02X2091099Y7335001I525000J0D01*
G01*
G36*
X2651468Y6700647D2*
X2646550Y6696335D1*
X2641112Y6692701D1*
X2635247Y6689808D1*
X2629053Y6687706D1*
X2622639Y6686430D1*
X2616113Y6686002D1*
X2609586Y6686430D1*
X2603172Y6687705D1*
X2596978Y6689808D1*
X2591112Y6692700D1*
X2585674Y6696334D1*
X2580757Y6700646D1*
X2576444Y6705563D1*
X2572811Y6711001D1*
X2569918Y6716867D1*
X2567816Y6723060D1*
X2566539Y6729475D1*
X2566112Y6736001D1*
X2566539Y6742527D1*
X2567815Y6748942D1*
X2569917Y6755135D1*
X2572810Y6761001D1*
X2576443Y6766439D1*
X2580755Y6771357D1*
D1*
X2585673Y6775669D1*
X2591111Y6779303D1*
X2596976Y6782195D1*
X2603170Y6784298D1*
X2609584Y6785574D1*
X2616111Y6786002D1*
X2622637Y6785574D1*
X2629052Y6784298D1*
X2635245Y6782196D1*
X2641111Y6779304D1*
X2646549Y6775670D1*
X2651466Y6771358D1*
X2655779Y6766441D1*
X2659412Y6761003D1*
X2662305Y6755137D1*
X2664408Y6748944D1*
X2665684Y6742529D1*
X2666112Y6736003D1*
X2665684Y6729477D1*
X2664408Y6723062D1*
X2662306Y6716869D1*
X2659413Y6711003D1*
X2655780Y6705565D1*
X2651468Y6700647D1*
D1*
G37*
X8721099Y3850001D2*
D13*
G02X8721099Y3850001I525000J0D01*
G01*
G36*
X8822543Y3376445D2*
X8816016Y3376873D1*
X8809602Y3378149D1*
X8803409Y3380251D1*
X8797543Y3383144D1*
X8792105Y3386777D1*
X8787187Y3391089D1*
X8782875Y3396007D1*
X8779241Y3401445D1*
X8776349Y3407311D1*
X8774246Y3413504D1*
X8772971Y3419919D1*
X8772543Y3426445D1*
X8772971Y3432971D1*
X8774246Y3439386D1*
X8776349Y3445579D1*
X8779241Y3451445D1*
X8782875Y3456883D1*
X8787187Y3461800D1*
X8792105Y3466112D1*
X8797543Y3469746D1*
X8803409Y3472639D1*
X8809602Y3474741D1*
X8816016Y3476017D1*
X8822543Y3476445D1*
D1*
X8829069Y3476017D1*
X8835484Y3474741D1*
X8841677Y3472639D1*
X8847543Y3469746D1*
X8852981Y3466112D1*
X8857898Y3461800D1*
X8862210Y3456883D1*
X8865844Y3451445D1*
X8868737Y3445579D1*
X8870839Y3439386D1*
X8872115Y3432971D1*
X8872543Y3426445D1*
X8872115Y3419919D1*
X8870839Y3413504D1*
X8868737Y3407311D1*
X8865844Y3401445D1*
X8862210Y3396007D1*
X8857898Y3391089D1*
X8852981Y3386777D1*
X8847543Y3383144D1*
X8841677Y3380251D1*
X8835484Y3378149D1*
X8829069Y3376873D1*
X8822543Y3376445D1*
D1*
G37*
X9816099Y3850001D2*
D13*
G02X9816099Y3850001I525000J0D01*
G01*
G36*
X9917543Y3376445D2*
X9911016Y3376873D1*
X9904602Y3378149D1*
X9898409Y3380251D1*
X9892543Y3383144D1*
X9887105Y3386777D1*
X9882187Y3391089D1*
X9877875Y3396007D1*
X9874241Y3401445D1*
X9871349Y3407311D1*
X9869246Y3413504D1*
X9867971Y3419919D1*
X9867543Y3426445D1*
X9867971Y3432971D1*
X9869246Y3439386D1*
X9871349Y3445579D1*
X9874241Y3451445D1*
X9877875Y3456883D1*
X9882187Y3461800D1*
X9887105Y3466112D1*
X9892543Y3469746D1*
X9898409Y3472639D1*
X9904602Y3474741D1*
X9911016Y3476017D1*
X9917543Y3476445D1*
D1*
X9924069Y3476017D1*
X9930484Y3474741D1*
X9936677Y3472639D1*
X9942543Y3469746D1*
X9947981Y3466112D1*
X9952898Y3461800D1*
X9957210Y3456883D1*
X9960844Y3451445D1*
X9963737Y3445579D1*
X9965839Y3439386D1*
X9967115Y3432971D1*
X9967543Y3426445D1*
X9967115Y3419919D1*
X9965839Y3413504D1*
X9963737Y3407311D1*
X9960844Y3401445D1*
X9957210Y3396007D1*
X9952898Y3391089D1*
X9947981Y3386777D1*
X9942543Y3383144D1*
X9936677Y3380251D1*
X9930484Y3378149D1*
X9924069Y3376873D1*
X9917543Y3376445D1*
D1*
G37*
X2096099Y3550001D2*
D13*
G02X2096099Y3550001I525000J0D01*
G01*
G36*
X1986746Y3514626D2*
X1982433Y3519543D1*
X1978799Y3524981D1*
X1975906Y3530847D1*
X1973804Y3537040D1*
X1972528Y3543455D1*
X1972100Y3549981D1*
X1972527Y3556508D1*
X1973803Y3562922D1*
X1975905Y3569116D1*
X1978798Y3574981D1*
X1982431Y3580420D1*
X1986743Y3585337D1*
X1991661Y3589649D1*
X1997099Y3593283D1*
X2002964Y3596176D1*
X2009157Y3598279D1*
X2015572Y3599555D1*
X2022098Y3599983D1*
X2028625Y3599555D1*
X2035039Y3598279D1*
X2041233Y3596177D1*
X2047099Y3593285D1*
X2052537Y3589651D1*
X2057454Y3585339D1*
D1*
X2061767Y3580422D1*
X2065400Y3574984D1*
X2068293Y3569118D1*
X2070396Y3562925D1*
X2071672Y3556511D1*
X2072100Y3549984D1*
X2071672Y3543458D1*
X2070397Y3537043D1*
X2068294Y3530850D1*
X2065402Y3524984D1*
X2061768Y3519546D1*
X2057456Y3514629D1*
X2052539Y3510316D1*
X2047101Y3506682D1*
X2041235Y3503789D1*
X2035042Y3501687D1*
X2028628Y3500411D1*
X2022101Y3499983D1*
X2015575Y3500410D1*
X2009160Y3501686D1*
X2002967Y3503788D1*
X1997101Y3506681D1*
X1991663Y3510314D1*
X1986746Y3514626D1*
D1*
G37*
X9743601Y5871250D2*
D13*
X9808601Y5871253D1*
X9808597Y5988753D1*
X9743597Y5988750D1*
X9743601Y5871250D1*
X5038097Y4002996D2*
X5038102Y3906996D1*
X5214102Y3907007D1*
X5214097Y4003007D1*
X5038097Y4002996D1*
X4766108Y2484995D2*
X5036108Y2485008D1*
X5036091Y2825008D1*
X4766091Y2824995D1*
X4766108Y2484995D1*
X5036088Y2350011D2*
X4766088Y2349992D1*
X4766111Y2009992D1*
X5036111Y2010011D1*
X5036088Y2350011D1*
X6086090Y2350009D2*
X5816090Y2349994D1*
X5816109Y2009994D1*
X6086109Y2010009D1*
X6086090Y2350009D1*
X2716094Y1832993D2*
X2716105Y1686993D1*
X2936105Y1687010D1*
X2936094Y1833010D1*
X2716094Y1832993D1*
X2716099Y2033001D2*
Y1887001D1*
X2936099D1*
Y2033001D1*
X2716099D1*
X2713104Y2196999D2*
X2809104Y2197004D1*
X2809095Y2373004D1*
X2713095Y2372999D1*
X2713104Y2196999D1*
X2901113Y2574991D2*
X3171113Y2575012D1*
X3171086Y2915012D1*
X2901086Y2914991D1*
X2901113Y2574991D1*
X3611095Y3375005D2*
X3341095Y3374998D1*
X3341104Y3034998D1*
X3611104Y3035005D1*
X3611095Y3375005D1*
X4661095D2*
X4391095Y3374998D1*
X4391104Y3034998D1*
X4661104Y3035005D1*
X4661095Y3375005D1*
X3729098Y3360002D2*
X3669098Y3360001D1*
X3669101Y3250001D1*
X3729101Y3250002D1*
X3729098Y3360002D1*
X4331098D2*
X4271098Y3360001D1*
X4271101Y3250001D1*
X4331101Y3250002D1*
X4331098Y3360002D1*
X4089100Y3907003D2*
X4089098Y4003003D1*
X3913098Y4003000D1*
X3913100Y3907000D1*
X4089100Y3907003D1*
X3341105Y2484997D2*
X3611105Y2485006D1*
X3611094Y2825006D1*
X3341094Y2824997D1*
X3341105Y2484997D1*
X4478102Y3567000D2*
X4574102Y3567003D1*
X4574097Y3743003D1*
X4478097Y3743000D1*
X4478102Y3567000D1*
X3613101Y4003004D2*
X3613098Y3907004D1*
X3789098Y3906999D1*
X3789101Y4002999D1*
X3613101Y4003004D1*
X3611090Y2350009D2*
X3341090Y2349994D1*
X3341109Y2009994D1*
X3611109Y2010009D1*
X3611090Y2350009D1*
X4661093Y2350007D2*
X4391093Y2349996D1*
X4391106Y2009996D1*
X4661106Y2010007D1*
X4661093Y2350007D1*
X4391105Y2484997D2*
X4661105Y2485006D1*
X4661094Y2825006D1*
X4391094Y2824997D1*
X4391105Y2484997D1*
X2096099Y4835001D2*
G02X2096099Y4835001I525000J0D01*
G01*
G36*
X2656455Y4200647D2*
X2651538Y4196334D1*
X2646099Y4192701D1*
X2640234Y4189808D1*
X2634040Y4187706D1*
X2627626Y4186430D1*
X2621099Y4186002D1*
X2614573Y4186430D1*
X2608158Y4187706D1*
X2601965Y4189808D1*
X2596099Y4192701D1*
X2590661Y4196334D1*
X2585744Y4200647D1*
X2581432Y4205564D1*
X2577798Y4211002D1*
X2574905Y4216868D1*
X2572803Y4223061D1*
X2571527Y4229476D1*
X2571099Y4236002D1*
X2571527Y4242528D1*
X2572803Y4248943D1*
X2574905Y4255136D1*
X2577798Y4261002D1*
X2581432Y4266440D1*
X2585744Y4271357D1*
D1*
X2590661Y4275670D1*
X2596099Y4279303D1*
X2601965Y4282196D1*
X2608158Y4284298D1*
X2614573Y4285574D1*
X2621099Y4286002D1*
X2627626Y4285574D1*
X2634040Y4284298D1*
X2640234Y4282196D1*
X2646099Y4279303D1*
X2651538Y4275670D1*
X2656455Y4271357D1*
X2660767Y4266440D1*
X2664401Y4261002D1*
X2667293Y4255136D1*
X2669396Y4248943D1*
X2670672Y4242528D1*
X2671099Y4236002D1*
X2670672Y4229476D1*
X2669396Y4223061D1*
X2667293Y4216868D1*
X2664401Y4211002D1*
X2660767Y4205564D1*
X2656455Y4200647D1*
D1*
G37*
X12492348Y8982500D2*
D13*
X12492350Y8917500D1*
X12609850Y8917503D1*
X12609848Y8982503D1*
X12492348Y8982500D1*
X8681077Y2025012D2*
X8494411Y2024998D1*
X8401070Y2118324D1*
X8401042Y2484991D1*
X8681042Y2485012D1*
X8681077Y2025012D1*
X8281081Y2025014D2*
X8094414Y2024997D1*
X8001072Y2118322D1*
X8001038Y2484989D1*
X8281038Y2485014D1*
X8281081Y2025014D1*
X3560850Y6205006D2*
X3374184Y6205000D1*
X3280847Y6298330D1*
X3280835Y6664997D1*
X3560835Y6665006D1*
X3560850Y6205006D1*
X3280830Y5939994D2*
X3467497Y5940004D1*
X3560835Y5846676D1*
X3560855Y5480009D1*
X3280855Y5479994D1*
X3280830Y5939994D1*
X7881077Y2025012D2*
X7694411Y2024998D1*
X7601070Y2118324D1*
X7601042Y2484991D1*
X7881042Y2485012D1*
X7881077Y2025012D1*
X7481081Y2025014D2*
X7294414Y2024997D1*
X7201072Y2118322D1*
X7201038Y2484989D1*
X7481038Y2485014D1*
X7481081Y2025014D1*
X7081068Y2025007D2*
X6894401Y2025000D1*
X6801064Y2118330D1*
X6801051Y2484996D1*
X7081051Y2485007D1*
X7081068Y2025007D1*
X19978599Y10327501D2*
Y10367501D1*
X19938599Y10407501D1*
X19738599D1*
Y10327501D1*
X19978599D1*
X6681084Y2025016D2*
X6494417Y2024997D1*
X6401074Y2118320D1*
X6401035Y2484987D1*
X6681035Y2485016D1*
X6681084Y2025016D1*
X3556104Y8705004D2*
X3369437Y8705001D1*
X3276102Y8798332D1*
X3276095Y9164999D1*
X3556095Y9165004D1*
X3556104Y8705004D1*
X3276094Y8439998D2*
X3462760Y8440003D1*
X3556096Y8346672D1*
X3556105Y7980005D1*
X3276105Y7979998D1*
X3276094Y8439998D1*
X4571100Y4065004D2*
X4571099Y4105004D1*
X4531099Y4145003D1*
X4331099Y4144999D1*
X4331100Y4064999D1*
X4571100Y4065004D1*
X19346099Y6760001D2*
Y6946668D1*
X19439433Y7040001D1*
X19806099D1*
Y6760001D1*
X19346099D1*
X20556096Y7040007D2*
X20556100Y6853340D1*
X20462769Y6760004D1*
X20096103Y6759996D1*
X20096096Y7039996D1*
X20556096Y7040007D1*
X9581092Y2220013D2*
X9581102Y2033347D1*
X9487773Y1940009D1*
X9121107Y1939990D1*
X9121092Y2219990D1*
X9581092Y2220013D1*
X9871106Y1939991D2*
X9871097Y2126658D1*
X9964427Y2219995D1*
X10331093Y2220012D1*
X10331106Y1940012D1*
X9871106Y1939991D1*
X6821099Y5255001D2*
Y5295001D1*
X6781099Y5335001D1*
X6581099D1*
Y5255001D1*
X6821099D1*
X2131095Y2405003D2*
X2091095Y2405001D1*
X2051096Y2365000D1*
X2051104Y2165000D1*
X2131104Y2165003D1*
X2131095Y2405003D1*
X5996100Y4065004D2*
X5996099Y4105004D1*
X5956099Y4145003D1*
X5756099Y4144999D1*
X5756100Y4064999D1*
X5996100Y4065004D1*
X5551103Y5725000D2*
X5591103Y5725001D1*
X5631102Y5765003D1*
X5631095Y5965003D1*
X5551095Y5965000D1*
X5551103Y5725000D1*
X5551102Y8220001D2*
X5591102D1*
X5631101Y8260002D1*
X5631097Y8460002D1*
X5551097Y8460001D1*
X5551102Y8220001D1*
X20847083Y2491020D2*
X20847110Y1969020D1*
X20747115Y1869015D1*
X20135115Y1868983D1*
X20135083Y2490983D1*
X20847083Y2491020D1*
X3481104Y4585004D2*
X3294104Y4585001D1*
X3201102Y4677999D1*
X3201095Y5034999D1*
X3481095Y5035004D1*
X3481104Y4585004D1*
X2631105Y2880016D2*
X2631120Y2693016D1*
X2538127Y2600009D1*
X2181127Y2599980D1*
X2181105Y2879980D1*
X2631105Y2880016D1*
X4831107Y4660006D2*
X4644107Y4660000D1*
X4551104Y4752997D1*
X4551092Y5109997D1*
X4831092Y5110006D1*
X4831107Y4660006D1*
X5651084Y2195026D2*
X5651105Y2008026D1*
X5558115Y1915016D1*
X5201115Y1914977D1*
X5201084Y2194977D1*
X5651084Y2195026D1*
X5411094Y5200010D2*
X5411101Y5013010D1*
X5318105Y4920006D1*
X4961105Y4919993D1*
X4961094Y5199993D1*
X5411094Y5200010D1*
X2446096Y1975006D2*
X2446100Y1788006D1*
X2353103Y1695004D1*
X1996103Y1694997D1*
X1996096Y1974997D1*
X2446096Y1975006D1*
X4226088Y2195020D2*
X4226103Y2008020D1*
X4133111Y1915012D1*
X3776111Y1914983D1*
X3776088Y2194983D1*
X4226088Y2195020D1*
X3481099Y7085001D2*
X3294099D1*
X3201099Y7178001D1*
Y7535001D1*
X3481099D1*
Y7085001D1*
X4831107Y7160006D2*
X4644107Y7160000D1*
X4551104Y7252997D1*
X4551092Y7609997D1*
X4831092Y7610006D1*
X4831107Y7160006D1*
X5411096Y7700006D2*
X5411100Y7513006D1*
X5318103Y7420004D1*
X4961103Y7419997D1*
X4961096Y7699997D1*
X5411096Y7700006D1*
X16554429Y8920030D2*
X16601098Y8873365D1*
X16601103Y8780032D1*
X16301103Y8780017D1*
X16301096Y8920017D1*
X16554429Y8920030D1*
X17304430Y8920032D2*
X17351099Y8873367D1*
X17351102Y8780033D1*
X17051102Y8780022D1*
X17051097Y8920022D1*
X17304430Y8920032D1*
X18429435Y8920027D2*
X18476102Y8873361D1*
X18476104Y8780028D1*
X18176104Y8780021D1*
X18176101Y8920021D1*
X18429435Y8920027D1*
X19179435Y8920030D2*
X19226102Y8873365D1*
X19226104Y8780031D1*
X18926104Y8780025D1*
X18926101Y8920025D1*
X19179435Y8920030D1*
X8416146Y2654983D2*
X8766146Y2655020D1*
X8766053Y3555020D1*
X8416053Y3554983D1*
X8416146Y2654983D1*
X2030843Y6645001D2*
Y6225001D1*
X3230843D1*
Y6645001D1*
X2030843D1*
X2026099Y8420001D2*
Y8000001D1*
X3226099D1*
Y8420001D1*
X2026099D1*
X8016146Y2654983D2*
X8366146Y2655020D1*
X8366053Y3555020D1*
X8016053Y3554983D1*
X8016146Y2654983D1*
X7616146D2*
X7966146Y2655020D1*
X7966053Y3555020D1*
X7616053Y3554983D1*
X7616146Y2654983D1*
X7216146D2*
X7566146Y2655020D1*
X7566053Y3555020D1*
X7216053Y3554983D1*
X7216146Y2654983D1*
X6816146D2*
X7166146Y2655020D1*
X7166053Y3555020D1*
X6816053Y3554983D1*
X6816146Y2654983D1*
X6416146D2*
X6766146Y2655020D1*
X6766053Y3555020D1*
X6416053Y3554983D1*
X6416146Y2654983D1*
X9001128Y2279991D2*
X9351128Y2280012D1*
X9351071Y3180012D1*
X9001071Y3179991D1*
X9001128Y2279991D1*
X10101134Y2279988D2*
X10451134Y2280015D1*
X10451065Y3180015D1*
X10101065Y3179988D1*
X10101134Y2279988D1*
X2026099Y9145001D2*
Y8725001D1*
X3226099D1*
Y9145001D1*
X2026099D1*
X2030843Y5920001D2*
Y5500001D1*
X3230843D1*
Y5920001D1*
X2030843D1*
X9631099Y6200001D2*
Y6500001D1*
X7371099D1*
Y6200001D1*
X9631099D1*
G36*
X7541099Y6600001D2*
X7540928Y6597391D1*
X7540418Y6594825D1*
X7539577Y6592348D1*
X7538420Y6590001D1*
X7536967Y6587826D1*
X7535242Y6585859D1*
X7533275Y6584134D1*
X7531099Y6582681D1*
X7528753Y6581524D1*
X7526276Y6580683D1*
X7523710Y6580173D1*
X7521099Y6580001D1*
X7518489Y6580173D1*
X7515923Y6580683D1*
X7513446Y6581524D1*
X7511099Y6582681D1*
X7508924Y6584134D1*
X7506957Y6585859D1*
X7505232Y6587826D1*
X7503779Y6590001D1*
X7502622Y6592348D1*
X7501781Y6594825D1*
X7501271Y6597391D1*
X7501099Y6600001D1*
D1*
X7501271Y6602612D1*
X7501781Y6605178D1*
X7502622Y6607655D1*
X7503779Y6610001D1*
X7505232Y6612177D1*
X7506957Y6614144D1*
X7508924Y6615869D1*
X7511099Y6617322D1*
X7513446Y6618479D1*
X7515923Y6619320D1*
X7518489Y6619830D1*
X7521099Y6620001D1*
X7523710Y6619830D1*
X7526276Y6619320D1*
X7528753Y6618479D1*
X7531099Y6617322D1*
X7533275Y6615869D1*
X7535242Y6614144D1*
X7536967Y6612177D1*
X7538420Y6610001D1*
X7539577Y6607655D1*
X7540418Y6605178D1*
X7540928Y6602612D1*
X7541099Y6600001D1*
D1*
G37*
X2246099Y999501D2*
D13*
X2146099Y1099501D1*
Y1575501D1*
X3136099D1*
Y999501D1*
X2246099D1*
X1696099Y9145001D2*
D49*
Y9007001D1*
X1866099D1*
Y6913001D1*
X1696099D1*
Y6775001D1*
X1016099D1*
Y9145001D1*
X1696099D1*
G36*
X1496099Y9230001D2*
X1498710Y9229830D1*
X1501276Y9229320D1*
X1503753Y9228479D1*
X1506099Y9227322D1*
X1508275Y9225869D1*
X1510242Y9224144D1*
X1511967Y9222177D1*
X1513420Y9220001D1*
X1514577Y9217655D1*
X1515418Y9215178D1*
X1515928Y9212612D1*
X1516099Y9210001D1*
X1515928Y9207391D1*
X1515418Y9204825D1*
X1514577Y9202348D1*
X1513420Y9200001D1*
X1511967Y9197826D1*
X1510242Y9195859D1*
X1508275Y9194134D1*
X1506099Y9192681D1*
X1503753Y9191524D1*
X1501276Y9190683D1*
X1498710Y9190173D1*
X1496099Y9190001D1*
D1*
X1493489Y9190173D1*
X1490923Y9190683D1*
X1488446Y9191524D1*
X1486099Y9192681D1*
X1483924Y9194134D1*
X1481957Y9195859D1*
X1480232Y9197826D1*
X1478779Y9200001D1*
X1477622Y9202348D1*
X1476781Y9204825D1*
X1476271Y9207391D1*
X1476099Y9210001D1*
X1476271Y9212612D1*
X1476781Y9215178D1*
X1477622Y9217655D1*
X1478779Y9220001D1*
X1480232Y9222177D1*
X1481957Y9224144D1*
X1483924Y9225869D1*
X1486099Y9227322D1*
X1488446Y9228479D1*
X1490923Y9229320D1*
X1493489Y9229830D1*
X1496099Y9230001D1*
D1*
G37*
X16056113Y8059497D2*
D13*
X15956109Y8159493D1*
X15956091Y8635493D1*
X17696091Y8635557D1*
X17696113Y8059557D1*
X16056113Y8059497D1*
X17931116Y8059517D2*
X17831112Y8159513D1*
X17831095Y8635513D1*
X19571095Y8635577D1*
X19571116Y8059577D1*
X17931116Y8059517D1*
X20966599Y8225001D2*
X20866599Y8125001D1*
X20390599D1*
Y9115001D1*
X20966599D1*
Y8225001D1*
X1000599Y11135001D2*
X1100599Y11235001D1*
X1576599D1*
Y9995001D1*
X1000599D1*
Y11135001D1*
X20966599Y10155001D2*
X20866599Y10055001D1*
X20390599D1*
Y11045001D1*
X20966599D1*
Y10155001D1*
X19381099Y7109501D2*
X19281099Y7209501D1*
Y7685501D1*
X20771099D1*
Y7109501D1*
X19381099D1*
Y6109501D2*
X19281099Y6209501D1*
Y6685501D1*
X20771099D1*
Y6109501D1*
X19381099D1*
X19481103Y999508D2*
X19381103Y1099508D1*
Y1575508D1*
X20121103D1*
Y999508D1*
X19481103D1*
X15496050Y4190526D2*
X15596057Y4090533D1*
X15596092Y3614533D1*
X13106092Y3614350D1*
X13106050Y4190350D1*
X15496050Y4190526D1*
X18121047Y4190539D2*
X18221054Y4090546D1*
X18221089Y3614546D1*
X15731089Y3614363D1*
X15731047Y4190363D1*
X18121047Y4190539D1*
X20746050Y4190526D2*
X20846057Y4090533D1*
X20846092Y3614533D1*
X18356092Y3614350D1*
X18356050Y4190350D1*
X20746050Y4190526D1*
X14760588Y1799992D2*
X16214588Y1800034D1*
X16214612Y1000034D1*
X14660612Y999989D1*
X14660591Y1699989D1*
X14760588Y1799992D1*
X15496053Y5790512D2*
X15596061Y5690520D1*
X15596096Y5214520D1*
X13106096Y5214337D1*
X13106053Y5790337D1*
X15496053Y5790512D1*
X16385588Y1800002D2*
X17839588Y1800044D1*
X17839612Y1000044D1*
X16285612Y999999D1*
X16285591Y1699999D1*
X16385588Y1800002D1*
X1061104Y11999948D2*
X5941104Y12000055D1*
X1711117Y11369962D2*
X1711098Y12229962D1*
X1061098Y12229948D1*
X1061117Y11369948D1*
X1711117Y11369962D1*
X5941117Y11370055D2*
X5941098Y12230055D1*
X5291098Y12230041D1*
X5291117Y11370041D1*
X5941117Y11370055D1*
X1551104Y11999959D2*
X1551081Y12999959D1*
X5451104Y12000044D2*
X5451081Y13000044D1*
X1551081Y12999959D2*
X5451081Y13000044D1*
X6001104Y11980057D2*
X1001104Y11979946D1*
X3051096Y12329992D2*
D68*
X1001096Y12329946D1*
X1051097Y12279947D1*
X1001096Y12329946D2*
X1051095Y12379947D1*
X4276096Y12330019D2*
X6001096Y12330057D1*
X1001095Y12379946D2*
X1001105Y11929946D1*
X6001096Y12330057D2*
X5951095Y12380055D1*
X5951097Y12280055D2*
X6001096Y12330057D1*
X6001095Y12380057D2*
X6001105Y11930057D1*
G36*
X1481031Y4179998D2*
X1481202Y4182609D1*
X1481712Y4185175D1*
X1482553Y4187652D1*
X1483709Y4189999D1*
X1485163Y4192174D1*
X1486887Y4194141D1*
X1488854Y4195866D1*
X1491029Y4197320D1*
X1493376Y4198477D1*
X1495853Y4199318D1*
X1498419Y4199829D1*
X1501029Y4200000D1*
X1503640Y4199829D1*
X1506205Y4199319D1*
X1508683Y4198479D1*
X1511029Y4197322D1*
X1513205Y4195869D1*
X1515172Y4194144D1*
X1516897Y4192177D1*
X1518351Y4190002D1*
X1519508Y4187656D1*
X1520349Y4185179D1*
X1520860Y4182613D1*
X1521031Y4180002D1*
D1*
X1520860Y4177392D1*
X1520350Y4174826D1*
X1519509Y4172348D1*
X1518352Y4170002D1*
X1516899Y4167827D1*
X1515175Y4165860D1*
X1513208Y4164134D1*
X1511033Y4162681D1*
X1508687Y4161523D1*
X1506209Y4160682D1*
X1503644Y4160172D1*
X1501033Y4160000D1*
X1498422Y4160171D1*
X1495857Y4160681D1*
X1493379Y4161522D1*
X1491033Y4162679D1*
X1488857Y4164132D1*
X1486890Y4165857D1*
X1485165Y4167823D1*
X1483711Y4169999D1*
X1482554Y4172345D1*
X1481713Y4174822D1*
X1481202Y4177388D1*
X1481031Y4179998D1*
D1*
G37*
X1871038Y4114037D2*
D49*
X1021038Y4113953D1*
X1021194Y2535953D1*
X1871194Y2536037D1*
X1871038Y4114037D1*
G36*
X4596100Y1459938D2*
X4593490Y1460108D1*
X4590924Y1460619D1*
X4588446Y1461459D1*
X4586100Y1462616D1*
X4583925Y1464070D1*
X4581958Y1465794D1*
X4580233Y1467761D1*
X4578779Y1469936D1*
X4577622Y1472283D1*
X4576781Y1474760D1*
X4576270Y1477326D1*
X4576099Y1479936D1*
X4576270Y1482547D1*
X4576780Y1485113D1*
X4577621Y1487590D1*
X4578777Y1489936D1*
X4580231Y1492112D1*
X4581956Y1494079D1*
X4583922Y1495804D1*
X4586097Y1497257D1*
X4588444Y1498415D1*
X4590921Y1499256D1*
X4593487Y1499766D1*
X4596097Y1499938D1*
D1*
X4598708Y1499767D1*
X4601274Y1499256D1*
X4603751Y1498416D1*
X4606097Y1497259D1*
X4608273Y1495806D1*
X4610240Y1494081D1*
X4611965Y1492114D1*
X4613418Y1489939D1*
X4614576Y1487593D1*
X4615417Y1485115D1*
X4615927Y1482550D1*
X4616099Y1479939D1*
X4615928Y1477329D1*
X4615418Y1474763D1*
X4614577Y1472285D1*
X4613420Y1469939D1*
X4611967Y1467764D1*
X4610242Y1465797D1*
X4608275Y1464071D1*
X4606100Y1462618D1*
X4603754Y1461461D1*
X4601277Y1460619D1*
X4598711Y1460109D1*
X4596100Y1459938D1*
D1*
G37*
X4662072Y1849942D2*
D49*
X4662134Y999942D1*
X6240134Y1000058D1*
X6240072Y1850058D1*
X4662072Y1849942D1*
X6411077Y1679883D2*
X6549077Y1679896D1*
X6549060Y1849896D1*
X8643060Y1850106D1*
X8643077Y1680106D1*
X8781077Y1680120D1*
X8781145Y1000120D1*
X6411145Y999883D1*
X6411077Y1679883D1*
G36*
X6326097Y1479874D2*
X6326268Y1482485D1*
X6326778Y1485051D1*
X6327619Y1487528D1*
X6328776Y1489874D1*
X6330229Y1492050D1*
X6331954Y1494017D1*
X6333920Y1495742D1*
X6336096Y1497196D1*
X6338442Y1498353D1*
X6340919Y1499194D1*
X6343485Y1499705D1*
X6346095Y1499876D1*
X6348706Y1499705D1*
X6351272Y1499195D1*
X6353749Y1498355D1*
X6356096Y1497198D1*
X6358271Y1495744D1*
X6360238Y1494020D1*
X6361963Y1492053D1*
X6363417Y1489878D1*
X6364574Y1487532D1*
X6365415Y1485054D1*
X6365926Y1482489D1*
X6366097Y1479878D1*
D1*
X6365926Y1477268D1*
X6365416Y1474702D1*
X6364576Y1472224D1*
X6363419Y1469878D1*
X6361966Y1467703D1*
X6360241Y1465735D1*
X6358274Y1464010D1*
X6356099Y1462557D1*
X6353753Y1461399D1*
X6351276Y1460558D1*
X6348710Y1460048D1*
X6346099Y1459876D1*
X6343489Y1460047D1*
X6340923Y1460557D1*
X6338445Y1461398D1*
X6336099Y1462555D1*
X6333924Y1464008D1*
X6331957Y1465733D1*
X6330231Y1467699D1*
X6328778Y1469874D1*
X6327620Y1472221D1*
X6326779Y1474698D1*
X6326269Y1477264D1*
X6326097Y1479874D1*
D1*
G37*
G36*
X8871101Y1459953D2*
X8868490Y1460124D1*
X8865924Y1460634D1*
X8863447Y1461475D1*
X8861101Y1462632D1*
X8858925Y1464085D1*
X8856958Y1465810D1*
X8855233Y1467777D1*
X8853780Y1469952D1*
X8852622Y1472298D1*
X8851781Y1474776D1*
X8851271Y1477341D1*
X8851100Y1479952D1*
X8851270Y1482562D1*
X8851781Y1485128D1*
X8852622Y1487606D1*
X8853778Y1489952D1*
X8855232Y1492127D1*
X8856957Y1494094D1*
X8858923Y1495819D1*
X8861099Y1497273D1*
X8863445Y1498430D1*
X8865922Y1499271D1*
X8868488Y1499782D1*
X8871098Y1499953D1*
D1*
X8873709Y1499782D1*
X8876275Y1499272D1*
X8878752Y1498431D1*
X8881099Y1497274D1*
X8883274Y1495821D1*
X8885241Y1494096D1*
X8886966Y1492129D1*
X8888419Y1489954D1*
X8889577Y1487608D1*
X8890418Y1485131D1*
X8890928Y1482565D1*
X8891100Y1479954D1*
X8890929Y1477344D1*
X8890418Y1474778D1*
X8889578Y1472300D1*
X8888421Y1469954D1*
X8886967Y1467779D1*
X8885243Y1465812D1*
X8883276Y1464087D1*
X8881101Y1462633D1*
X8878754Y1461476D1*
X8876277Y1460635D1*
X8873711Y1460124D1*
X8871101Y1459953D1*
D1*
G37*
X8937078Y1849957D2*
D49*
X8937128Y999957D1*
X10515128Y1000050D1*
X10515078Y1850050D1*
X8937078Y1849957D1*
X1700843Y6645001D2*
Y6507001D1*
X1870843D1*
Y4413001D1*
X1700843D1*
Y4275001D1*
X1020843D1*
Y6645001D1*
X1700843D1*
G36*
X1500843Y6730001D2*
X1503453Y6729830D1*
X1506019Y6729320D1*
X1508496Y6728479D1*
X1510843Y6727322D1*
X1513018Y6725869D1*
X1514985Y6724144D1*
X1516710Y6722177D1*
X1518163Y6720001D1*
X1519320Y6717655D1*
X1520161Y6715178D1*
X1520672Y6712612D1*
X1520843Y6710001D1*
X1520672Y6707391D1*
X1520161Y6704825D1*
X1519320Y6702348D1*
X1518163Y6700001D1*
X1516710Y6697826D1*
X1514985Y6695859D1*
X1513018Y6694134D1*
X1510843Y6692681D1*
X1508496Y6691524D1*
X1506019Y6690683D1*
X1503453Y6690173D1*
X1500843Y6690001D1*
D1*
X1498232Y6690173D1*
X1495666Y6690683D1*
X1493189Y6691524D1*
X1490843Y6692681D1*
X1488668Y6694134D1*
X1486701Y6695859D1*
X1484976Y6697826D1*
X1483522Y6700001D1*
X1482365Y6702348D1*
X1481524Y6704825D1*
X1481014Y6707391D1*
X1480843Y6710001D1*
X1481014Y6712612D1*
X1481524Y6715178D1*
X1482365Y6717655D1*
X1483522Y6720001D1*
X1484976Y6722177D1*
X1486701Y6724144D1*
X1488668Y6725869D1*
X1490843Y6727322D1*
X1493189Y6728479D1*
X1495666Y6729320D1*
X1498232Y6729830D1*
X1500843Y6730001D1*
D1*
G37*
X18121053Y5790512D2*
D13*
X18221061Y5690520D1*
X18221096Y5214520D1*
X15731096Y5214337D1*
X15731053Y5790337D1*
X18121053Y5790512D1*
X20746050Y5790526D2*
X20846057Y5690533D1*
X20846092Y5214533D1*
X18356092Y5214350D1*
X18356050Y5790350D1*
X20746050Y5790526D1*
X15959099Y6977001D2*
D49*
Y7830001D1*
X19159099D1*
Y6977001D1*
X15959099D1*
Y7830001D1*
X19159099D1*
Y6977001D1*
X15961099Y7100001D2*
D13*
X16081099Y6980001D1*
G36*
X16556099Y6880001D2*
X16552836Y6880215D1*
X16549629Y6880853D1*
X16546532Y6881904D1*
X16543599Y6883351D1*
X16540880Y6885168D1*
X16538422Y6887324D1*
X16536266Y6889782D1*
X16534449Y6892501D1*
X16533002Y6895434D1*
X16531951Y6898531D1*
X16531313Y6901738D1*
X16531099Y6905002D1*
X16531313Y6908265D1*
X16531951Y6911472D1*
X16533002Y6914569D1*
X16534449Y6917502D1*
X16536266Y6920221D1*
X16538422Y6922679D1*
X16540880Y6924835D1*
X16543599Y6926652D1*
X16546532Y6928098D1*
X16549629Y6929150D1*
X16552836Y6929788D1*
X16556099Y6930001D1*
X16559099D1*
X16562363Y6929788D1*
X16565570Y6929150D1*
X16568667Y6928098D1*
X16571599Y6926652D1*
X16574318Y6924835D1*
X16576777Y6922679D1*
X16578933Y6920221D1*
X16580750Y6917501D1*
X16582196Y6914569D1*
X16583248Y6911472D1*
X16583886Y6908265D1*
X16584099Y6905002D1*
X16583886Y6901738D1*
X16583248Y6898531D1*
X16582196Y6895434D1*
X16580750Y6892502D1*
X16578933Y6889782D1*
X16576777Y6887324D1*
X16574318Y6885168D1*
X16571599Y6883351D1*
X16568667Y6881905D1*
X16565570Y6880853D1*
X16562363Y6880215D1*
X16559099Y6880001D1*
X16556099D1*
G37*
X15959099Y5977001D2*
D49*
Y6830001D1*
X19159099D1*
Y5977001D1*
X15959099D1*
Y6830001D1*
X19159099D1*
Y5977001D1*
X15961099Y6100001D2*
D13*
X16081099Y5980001D1*
G36*
X16556099Y5880001D2*
X16552836Y5880215D1*
X16549629Y5880853D1*
X16546532Y5881904D1*
X16543599Y5883351D1*
X16540880Y5885168D1*
X16538422Y5887324D1*
X16536266Y5889782D1*
X16534449Y5892501D1*
X16533002Y5895434D1*
X16531951Y5898531D1*
X16531313Y5901738D1*
X16531099Y5905002D1*
X16531313Y5908265D1*
X16531951Y5911472D1*
X16533002Y5914569D1*
X16534449Y5917502D1*
X16536266Y5920221D1*
X16538422Y5922679D1*
X16540880Y5924835D1*
X16543599Y5926652D1*
X16546532Y5928098D1*
X16549629Y5929150D1*
X16552836Y5929788D1*
X16556099Y5930001D1*
X16559099D1*
X16562363Y5929788D1*
X16565570Y5929150D1*
X16568667Y5928098D1*
X16571599Y5926652D1*
X16574318Y5924835D1*
X16576777Y5922679D1*
X16578933Y5920221D1*
X16580750Y5917501D1*
X16582196Y5914569D1*
X16583248Y5911472D1*
X16583886Y5908265D1*
X16584099Y5905002D1*
X16583886Y5901738D1*
X16583248Y5898531D1*
X16582196Y5895434D1*
X16580750Y5892502D1*
X16578933Y5889782D1*
X16576777Y5887324D1*
X16574318Y5885168D1*
X16571599Y5883351D1*
X16568667Y5881905D1*
X16565570Y5880853D1*
X16562363Y5880215D1*
X16559099Y5880001D1*
X16556099D1*
G37*
X19925605Y9125831D2*
D13*
X19925571Y10139498D1*
X20191571Y10139507D1*
X20191608Y9037507D1*
X20013941Y9037501D1*
X19925605Y9125831D1*
X6061104Y11999948D2*
X10941104Y12000055D1*
X6711117Y11369962D2*
X6711098Y12229962D1*
X6061098Y12229948D1*
X6061117Y11369948D1*
X6711117Y11369962D1*
X10941117Y11370055D2*
X10941098Y12230055D1*
X10291098Y12230041D1*
X10291117Y11370041D1*
X10941117Y11370055D1*
X6551104Y11999959D2*
X6551081Y12999959D1*
X10451104Y12000044D2*
X10451081Y13000044D1*
X6551081Y12999959D2*
X10451081Y13000044D1*
X11001104Y11980057D2*
X6001104Y11979946D1*
X8051096Y12329992D2*
D68*
X6001096Y12329946D1*
X6051097Y12279947D1*
X6001096Y12329946D2*
X6051095Y12379947D1*
X9276096Y12330019D2*
X11001096Y12330057D1*
X6001095Y12379946D2*
X6001105Y11929946D1*
X11001096Y12330057D2*
X10951095Y12380055D1*
X10951097Y12280055D2*
X11001096Y12330057D1*
X11001095Y12380057D2*
X11001105Y11930057D1*
X11061099Y12000001D2*
D13*
X15941099D1*
X11711099Y11370001D2*
Y12230001D1*
X11061099D1*
Y11370001D1*
X11711099D1*
X15941099D2*
Y12230001D1*
X15291099D1*
Y11370001D1*
X15941099D1*
X11551099Y12000001D2*
Y13000001D1*
X15451099Y12000001D2*
Y13000001D1*
X11551099D2*
X15451099D1*
X16001099Y11980001D2*
X11001099D1*
X13051099Y12330001D2*
D68*
X11001099D1*
X11051099Y12280001D1*
X11001099Y12330001D2*
X11051099Y12380001D1*
X14276099Y12330001D2*
X16001099D1*
X11001099Y12380001D2*
Y11930001D1*
X16001099Y12330001D2*
X15951099Y12380001D1*
Y12280001D2*
X16001099Y12330001D1*
Y12380001D2*
Y11930001D1*
X16061099Y12000001D2*
D13*
X20941099D1*
X16711099Y11370001D2*
Y12230001D1*
X16061099D1*
Y11370001D1*
X16711099D1*
X20941099D2*
Y12230001D1*
X20291099D1*
Y11370001D1*
X20941099D1*
X16551099Y12000001D2*
Y13000001D1*
X20451099Y12000001D2*
Y13000001D1*
X16551099D2*
X20451099D1*
X21001099Y11980001D2*
X16001099D1*
X18051099Y12330001D2*
D68*
X16001099D1*
X16051099Y12280001D1*
X16001099Y12330001D2*
X16051099Y12380001D1*
X19276099Y12330001D2*
X21001099D1*
X16001099Y12380001D2*
Y11930001D1*
X21001099Y12330001D2*
X20951099Y12380001D1*
Y12280001D2*
X21001099Y12330001D1*
Y12380001D2*
Y11930001D1*
X18106099Y999501D2*
D13*
X18006099Y1099501D1*
Y1575501D1*
X19246099D1*
Y999501D1*
X18106099D1*
X18646080Y3290514D2*
X18746086Y3190520D1*
X18746114Y2714520D1*
X18006114Y2714476D1*
X18006080Y3290476D1*
X18646080Y3290514D1*
X20746069Y3290545D2*
X20846079Y3190555D1*
X20846127Y2714555D1*
X19106127Y2714381D1*
X19106069Y3290381D1*
X20746069Y3290545D1*
X11868596Y5676425D2*
D10*
X11932096Y5676427D1*
X11932094Y5758994D1*
X12440094Y5759009D1*
X12440096Y5676442D1*
X12503596Y5676444D1*
X12503606Y5333577D1*
X12440106Y5333576D1*
X12440108Y5251009D1*
X11932108Y5250994D1*
X11932106Y5333561D1*
X11868606Y5333559D1*
X11868596Y5676425D1*
G36*
X11912114Y5062093D2*
X11912285Y5064704D1*
X11912795Y5067270D1*
X11913636Y5069747D1*
X11914793Y5072094D1*
X11916247Y5074269D1*
X11917971Y5076236D1*
X11919938Y5077961D1*
X11922113Y5079414D1*
X11924460Y5080571D1*
X11926937Y5081412D1*
X11929503Y5081923D1*
X11932113Y5082094D1*
X11934724Y5081923D1*
X11937290Y5081413D1*
X11939767Y5080572D1*
X11942113Y5079415D1*
X11944289Y5077961D1*
X11946256Y5076237D1*
X11947981Y5074270D1*
X11949434Y5072095D1*
X11950591Y5069748D1*
X11951432Y5067271D1*
X11951943Y5064705D1*
X11952114Y5062095D1*
D1*
X11951943Y5059484D1*
X11951433Y5056918D1*
X11950592Y5054441D1*
X11949435Y5052095D1*
X11947981Y5049919D1*
X11946257Y5047952D1*
X11944290Y5046227D1*
X11942114Y5044774D1*
X11939768Y5043617D1*
X11937291Y5042776D1*
X11934725Y5042265D1*
X11932115Y5042094D1*
X11929504Y5042265D1*
X11926938Y5042775D1*
X11924461Y5043616D1*
X11922114Y5044773D1*
X11919939Y5046227D1*
X11917972Y5047951D1*
X11916247Y5049918D1*
X11914794Y5052094D1*
X11913637Y5054440D1*
X11912796Y5056917D1*
X11912285Y5059483D1*
X11912114Y5062093D1*
D1*
G37*
X12706099Y4930501D2*
D13*
X12806099Y4830501D1*
Y4354501D1*
X11566099D1*
Y4930501D1*
X12706099D1*
X12227766Y3862001D2*
X11214099D1*
Y4128001D1*
X12316099D1*
Y3950335D1*
X12227766Y3862001D1*
X12896105Y999498D2*
X12796103Y1099496D1*
X12796093Y1575496D1*
X14536093Y1575534D1*
X14536105Y999534D1*
X12896105Y999498D1*
G36*
X3531099Y1450001D2*
X3531271Y1452612D1*
X3531781Y1455178D1*
X3532622Y1457655D1*
X3533779Y1460001D1*
X3535232Y1462177D1*
X3536957Y1464144D1*
X3538924Y1465869D1*
X3541099Y1467322D1*
X3543446Y1468479D1*
X3545923Y1469320D1*
X3548489Y1469830D1*
X3551099Y1470001D1*
X3553710Y1469830D1*
X3556276Y1469320D1*
X3558753Y1468479D1*
X3561099Y1467322D1*
X3563275Y1465869D1*
X3565242Y1464144D1*
X3566967Y1462177D1*
X3568420Y1460001D1*
X3569577Y1457655D1*
X3570418Y1455178D1*
X3570928Y1452612D1*
X3571099Y1450001D1*
D1*
X3570928Y1447391D1*
X3570418Y1444825D1*
X3569577Y1442348D1*
X3568420Y1440001D1*
X3566967Y1437826D1*
X3565242Y1435859D1*
X3563275Y1434134D1*
X3561099Y1432681D1*
X3558753Y1431524D1*
X3556276Y1430683D1*
X3553710Y1430173D1*
X3551099Y1430001D1*
X3548489Y1430173D1*
X3545923Y1430683D1*
X3543446Y1431524D1*
X3541099Y1432681D1*
X3538924Y1434134D1*
X3536957Y1435859D1*
X3535232Y1437826D1*
X3533779Y1440001D1*
X3532622Y1442348D1*
X3531781Y1444825D1*
X3531271Y1447391D1*
X3531099Y1450001D1*
D1*
G37*
X3728099Y1850001D2*
D49*
Y1650001D1*
X4274099D2*
Y1850001D1*
X3728099D1*
X3608099Y1650001D2*
Y1000001D1*
X4394099D1*
Y1650001D1*
X4274099D1*
X3728099D2*
X3608099D1*
X6851099Y8620001D2*
D13*
X7151099D1*
Y10880001D1*
X6851099D1*
Y8620001D1*
G36*
X7251099Y10710001D2*
X7248489Y10710173D1*
X7245923Y10710683D1*
X7243446Y10711524D1*
X7241099Y10712681D1*
X7238924Y10714134D1*
X7236957Y10715859D1*
X7235232Y10717826D1*
X7233779Y10720001D1*
X7232622Y10722348D1*
X7231781Y10724825D1*
X7231271Y10727391D1*
X7231099Y10730001D1*
X7231271Y10732612D1*
X7231781Y10735178D1*
X7232622Y10737655D1*
X7233779Y10740001D1*
X7235232Y10742177D1*
X7236957Y10744144D1*
X7238924Y10745869D1*
X7241099Y10747322D1*
X7243446Y10748479D1*
X7245923Y10749320D1*
X7248489Y10749830D1*
X7251099Y10750001D1*
D1*
X7253710Y10749830D1*
X7256276Y10749320D1*
X7258753Y10748479D1*
X7261099Y10747322D1*
X7263275Y10745869D1*
X7265242Y10744144D1*
X7266967Y10742177D1*
X7268420Y10740001D1*
X7269577Y10737655D1*
X7270418Y10735178D1*
X7270928Y10732612D1*
X7271099Y10730001D1*
X7270928Y10727391D1*
X7270418Y10724825D1*
X7269577Y10722348D1*
X7268420Y10720001D1*
X7266967Y10717826D1*
X7265242Y10715859D1*
X7263275Y10714134D1*
X7261099Y10712681D1*
X7258753Y10711524D1*
X7256276Y10710683D1*
X7253710Y10710173D1*
X7251099Y10710001D1*
D1*
G37*
X14851099Y8620001D2*
D13*
X15151099D1*
Y10880001D1*
X14851099D1*
Y8620001D1*
G36*
X15251099Y10710001D2*
X15248489Y10710173D1*
X15245923Y10710683D1*
X15243446Y10711524D1*
X15241099Y10712681D1*
X15238924Y10714134D1*
X15236957Y10715859D1*
X15235232Y10717826D1*
X15233779Y10720001D1*
X15232622Y10722348D1*
X15231781Y10724825D1*
X15231271Y10727391D1*
X15231099Y10730001D1*
X15231271Y10732612D1*
X15231781Y10735178D1*
X15232622Y10737655D1*
X15233779Y10740001D1*
X15235232Y10742177D1*
X15236957Y10744144D1*
X15238924Y10745869D1*
X15241099Y10747322D1*
X15243446Y10748479D1*
X15245923Y10749320D1*
X15248489Y10749830D1*
X15251099Y10750001D1*
D1*
X15253710Y10749830D1*
X15256276Y10749320D1*
X15258753Y10748479D1*
X15261099Y10747322D1*
X15263275Y10745869D1*
X15265242Y10744144D1*
X15266967Y10742177D1*
X15268420Y10740001D1*
X15269577Y10737655D1*
X15270418Y10735178D1*
X15270928Y10732612D1*
X15271099Y10730001D1*
X15270928Y10727391D1*
X15270418Y10724825D1*
X15269577Y10722348D1*
X15268420Y10720001D1*
X15266967Y10717826D1*
X15265242Y10715859D1*
X15263275Y10714134D1*
X15261099Y10712681D1*
X15258753Y10711524D1*
X15256276Y10710683D1*
X15253710Y10710173D1*
X15251099Y10710001D1*
D1*
G37*
X14631099Y6200001D2*
D13*
Y6500001D1*
X12371099D1*
Y6200001D1*
X14631099D1*
G36*
X12541099Y6600001D2*
X12540928Y6597391D1*
X12540418Y6594825D1*
X12539577Y6592348D1*
X12538420Y6590001D1*
X12536967Y6587826D1*
X12535242Y6585859D1*
X12533275Y6584134D1*
X12531099Y6582681D1*
X12528753Y6581524D1*
X12526276Y6580683D1*
X12523710Y6580173D1*
X12521099Y6580001D1*
X12518489Y6580173D1*
X12515923Y6580683D1*
X12513446Y6581524D1*
X12511099Y6582681D1*
X12508924Y6584134D1*
X12506957Y6585859D1*
X12505232Y6587826D1*
X12503779Y6590001D1*
X12502622Y6592348D1*
X12501781Y6594825D1*
X12501271Y6597391D1*
X12501099Y6600001D1*
D1*
X12501271Y6602612D1*
X12501781Y6605178D1*
X12502622Y6607655D1*
X12503779Y6610001D1*
X12505232Y6612177D1*
X12506957Y6614144D1*
X12508924Y6615869D1*
X12511099Y6617322D1*
X12513446Y6618479D1*
X12515923Y6619320D1*
X12518489Y6619830D1*
X12521099Y6620001D1*
X12523710Y6619830D1*
X12526276Y6619320D1*
X12528753Y6618479D1*
X12531099Y6617322D1*
X12533275Y6615869D1*
X12535242Y6614144D1*
X12536967Y6612177D1*
X12538420Y6610001D1*
X12539577Y6607655D1*
X12540418Y6605178D1*
X12540928Y6602612D1*
X12541099Y6600001D1*
D1*
G37*
X4081087Y5169989D2*
D13*
X4081112Y4749989D1*
X4501112Y4750014D1*
X4501087Y5170014D1*
X4081087Y5169989D1*
X5762081Y2991020D2*
X5090081Y2990983D1*
X5090118Y2318983D1*
X5762118Y2319020D1*
X5762081Y2991020D1*
X4081087Y7669989D2*
X4081112Y7249989D1*
X4501112Y7250014D1*
X4501087Y7670014D1*
X4081087Y7669989D1*
X10421092Y4642502D2*
X10341098Y4642494D1*
X10341114Y4482494D1*
X10421107Y4482502D1*
X10421092Y4642502D1*
X2616085Y2495016D2*
X2196085Y2494987D1*
X2196114Y2074987D1*
X2616114Y2075016D1*
X2616085Y2495016D1*
X4337086Y2991015D2*
X3665086Y2990988D1*
X3665113Y2318988D1*
X4337113Y2319015D1*
X4337086Y2991015D1*
X1011099Y9590001D2*
G02X1011099Y9590001I400000J0D01*
G01*
G36*
X1411099Y9580001D2*
X1409794Y9580087D1*
X1408511Y9580342D1*
X1407273Y9580763D1*
X1406099Y9581341D1*
X1405012Y9582068D1*
X1404028Y9582930D1*
X1403166Y9583914D1*
X1402439Y9585001D1*
X1401861Y9586175D1*
X1401440Y9587413D1*
X1401185Y9588696D1*
X1401099Y9590001D1*
X1401185Y9591307D1*
X1401440Y9592590D1*
X1401861Y9593828D1*
X1402439Y9595001D1*
X1403166Y9596089D1*
X1404028Y9597073D1*
X1405012Y9597935D1*
X1406099Y9598662D1*
X1407273Y9599240D1*
X1408511Y9599661D1*
X1409794Y9599916D1*
X1411099Y9600001D1*
D1*
X1412405Y9599916D1*
X1413688Y9599661D1*
X1414926Y9599240D1*
X1416099Y9598662D1*
X1417187Y9597935D1*
X1418171Y9597073D1*
X1419033Y9596089D1*
X1419760Y9595001D1*
X1420338Y9593828D1*
X1420759Y9592590D1*
X1421014Y9591307D1*
X1421099Y9590001D1*
X1421014Y9588696D1*
X1420759Y9587413D1*
X1420338Y9586175D1*
X1419760Y9585001D1*
X1419033Y9583914D1*
X1418171Y9582930D1*
X1417187Y9582068D1*
X1416099Y9581341D1*
X1414926Y9580763D1*
X1413688Y9580342D1*
X1412405Y9580087D1*
X1411099Y9580001D1*
D1*
G37*
X1011099Y1410001D2*
D13*
G02X1011099Y1410001I400000J0D01*
G01*
G36*
X1411099Y1400001D2*
X1409794Y1400087D1*
X1408511Y1400342D1*
X1407273Y1400763D1*
X1406099Y1401341D1*
X1405012Y1402068D1*
X1404028Y1402930D1*
X1403166Y1403914D1*
X1402439Y1405001D1*
X1401861Y1406175D1*
X1401440Y1407413D1*
X1401185Y1408696D1*
X1401099Y1410001D1*
X1401185Y1411307D1*
X1401440Y1412590D1*
X1401861Y1413828D1*
X1402439Y1415001D1*
X1403166Y1416089D1*
X1404028Y1417073D1*
X1405012Y1417935D1*
X1406099Y1418662D1*
X1407273Y1419240D1*
X1408511Y1419661D1*
X1409794Y1419916D1*
X1411099Y1420001D1*
D1*
X1412405Y1419916D1*
X1413688Y1419661D1*
X1414926Y1419240D1*
X1416099Y1418662D1*
X1417187Y1417935D1*
X1418171Y1417073D1*
X1419033Y1416089D1*
X1419760Y1415001D1*
X1420338Y1413828D1*
X1420759Y1412590D1*
X1421014Y1411307D1*
X1421099Y1410001D1*
X1421014Y1408696D1*
X1420759Y1407413D1*
X1420338Y1406175D1*
X1419760Y1405001D1*
X1419033Y1403914D1*
X1418171Y1402930D1*
X1417187Y1402068D1*
X1416099Y1401341D1*
X1414926Y1400763D1*
X1413688Y1400342D1*
X1412405Y1400087D1*
X1411099Y1400001D1*
D1*
G37*
X20191099Y9590001D2*
D13*
G02X20191099Y9590001I400000J0D01*
G01*
G36*
X20591099Y9580001D2*
X20589794Y9580087D1*
X20588511Y9580342D1*
X20587273Y9580763D1*
X20586099Y9581341D1*
X20585012Y9582068D1*
X20584028Y9582930D1*
X20583166Y9583914D1*
X20582439Y9585001D1*
X20581861Y9586175D1*
X20581440Y9587413D1*
X20581185Y9588696D1*
X20581099Y9590001D1*
X20581185Y9591307D1*
X20581440Y9592590D1*
X20581861Y9593828D1*
X20582439Y9595001D1*
X20583166Y9596089D1*
X20584028Y9597073D1*
X20585012Y9597935D1*
X20586099Y9598662D1*
X20587273Y9599240D1*
X20588511Y9599661D1*
X20589794Y9599916D1*
X20591099Y9600001D1*
D1*
X20592405Y9599916D1*
X20593688Y9599661D1*
X20594926Y9599240D1*
X20596099Y9598662D1*
X20597187Y9597935D1*
X20598171Y9597073D1*
X20599033Y9596089D1*
X20599760Y9595001D1*
X20600338Y9593828D1*
X20600759Y9592590D1*
X20601014Y9591307D1*
X20601099Y9590001D1*
X20601014Y9588696D1*
X20600759Y9587413D1*
X20600338Y9586175D1*
X20599760Y9585001D1*
X20599033Y9583914D1*
X20598171Y9582930D1*
X20597187Y9582068D1*
X20596099Y9581341D1*
X20594926Y9580763D1*
X20593688Y9580342D1*
X20592405Y9580087D1*
X20591099Y9580001D1*
D1*
G37*
X10601099Y5500001D2*
D13*
G02X10601099Y5500001I400000J0D01*
G01*
G36*
X11001099Y5490001D2*
X10999794Y5490087D1*
X10998511Y5490342D1*
X10997273Y5490763D1*
X10996099Y5491341D1*
X10995012Y5492068D1*
X10994028Y5492930D1*
X10993166Y5493914D1*
X10992439Y5495001D1*
X10991861Y5496175D1*
X10991440Y5497413D1*
X10991185Y5498696D1*
X10991099Y5500001D1*
X10991185Y5501307D1*
X10991440Y5502590D1*
X10991861Y5503828D1*
X10992439Y5505001D1*
X10993166Y5506089D1*
X10994028Y5507073D1*
X10995012Y5507935D1*
X10996099Y5508662D1*
X10997273Y5509240D1*
X10998511Y5509661D1*
X10999794Y5509916D1*
X11001099Y5510001D1*
D1*
X11002405Y5509916D1*
X11003688Y5509661D1*
X11004926Y5509240D1*
X11006099Y5508662D1*
X11007187Y5507935D1*
X11008171Y5507073D1*
X11009033Y5506089D1*
X11009760Y5505001D1*
X11010338Y5503828D1*
X11010759Y5502590D1*
X11011014Y5501307D1*
X11011099Y5500001D1*
X11011014Y5498696D1*
X11010759Y5497413D1*
X11010338Y5496175D1*
X11009760Y5495001D1*
X11009033Y5493914D1*
X11008171Y5492930D1*
X11007187Y5492068D1*
X11006099Y5491341D1*
X11004926Y5490763D1*
X11003688Y5490342D1*
X11002405Y5490087D1*
X11001099Y5490001D1*
D1*
G37*
X20191099Y1410001D2*
D13*
G02X20191099Y1410001I400000J0D01*
G01*
G36*
X20591099Y1400001D2*
X20589794Y1400087D1*
X20588511Y1400342D1*
X20587273Y1400763D1*
X20586099Y1401341D1*
X20585012Y1402068D1*
X20584028Y1402930D1*
X20583166Y1403914D1*
X20582439Y1405001D1*
X20581861Y1406175D1*
X20581440Y1407413D1*
X20581185Y1408696D1*
X20581099Y1410001D1*
X20581185Y1411307D1*
X20581440Y1412590D1*
X20581861Y1413828D1*
X20582439Y1415001D1*
X20583166Y1416089D1*
X20584028Y1417073D1*
X20585012Y1417935D1*
X20586099Y1418662D1*
X20587273Y1419240D1*
X20588511Y1419661D1*
X20589794Y1419916D1*
X20591099Y1420001D1*
D1*
X20592405Y1419916D1*
X20593688Y1419661D1*
X20594926Y1419240D1*
X20596099Y1418662D1*
X20597187Y1417935D1*
X20598171Y1417073D1*
X20599033Y1416089D1*
X20599760Y1415001D1*
X20600338Y1413828D1*
X20600759Y1412590D1*
X20601014Y1411307D1*
X20601099Y1410001D1*
X20601014Y1408696D1*
X20600759Y1407413D1*
X20600338Y1406175D1*
X20599760Y1405001D1*
X20599033Y1403914D1*
X20598171Y1402930D1*
X20597187Y1402068D1*
X20596099Y1401341D1*
X20594926Y1400763D1*
X20593688Y1400342D1*
X20592405Y1400087D1*
X20591099Y1400001D1*
D1*
G37*
X8641121Y3755027D2*
D13*
X8141121Y3754974D1*
X8141078Y4154974D1*
X8541078Y4155017D1*
X8641089Y4055027D1*
X8641121Y3755027D1*
X3772106Y7872994D2*
X3772093Y8546994D1*
X4394093Y8547006D1*
X4394104Y7973006D1*
X4294106Y7873004D1*
X3772106Y7872994D1*
X3772099Y6098001D2*
Y6772001D1*
X4394099D1*
Y6198001D1*
X4294099Y6098001D1*
X3772099D1*
X7841121Y3755027D2*
X7341121Y3754974D1*
X7341078Y4154974D1*
X7741078Y4155017D1*
X7841089Y4055027D1*
X7841121Y3755027D1*
X3772106Y8597994D2*
X3772093Y9271994D1*
X4394093Y9272006D1*
X4394104Y8698006D1*
X4294106Y8598004D1*
X3772106Y8597994D1*
X3772099Y5373001D2*
Y6047001D1*
X4394099D1*
Y5473001D1*
X4294099Y5373001D1*
X3772099D1*
X15263098Y7033333D2*
X15304764Y7075001D1*
X15389097Y7075003D1*
X15389102Y6875003D1*
X15263102Y6875000D1*
X15263098Y7033333D1*
X10992766Y4467001D2*
X10951099Y4508668D1*
Y4593001D1*
X11151099D1*
Y4467001D1*
X10992766D1*
X8716431Y7050004D2*
X8763099Y7003338D1*
X8763101Y6910005D1*
X8459101Y6909998D1*
X8459098Y7049998D1*
X8716431Y7050004D1*
X7041121Y3755027D2*
X6541121Y3754974D1*
X6541078Y4154974D1*
X6941078Y4155017D1*
X7041089Y4055027D1*
X7041121Y3755027D1*
X9976116Y2430021D2*
X9476116Y2429981D1*
X9476083Y2829981D1*
X9876083Y2830013D1*
X9976091Y2730021D1*
X9976116Y2430021D1*
X6916099Y11028001D2*
Y10932001D1*
X7086099D1*
Y11028001D1*
X6916099D1*
X5214096Y8825003D2*
X5118096Y8825000D1*
X5118103Y8655000D1*
X5214103Y8655003D1*
X5214096Y8825003D1*
X8027561Y4814503D2*
X7931561Y4814500D1*
X7931565Y4644500D1*
X8027565Y4644503D1*
X8027561Y4814503D1*
X8456095Y4452993D2*
X8456104Y4356993D1*
X8626104Y4357010D1*
X8626095Y4453010D1*
X8456095Y4452993D1*
X7877559Y4814503D2*
X7781559Y4814500D1*
X7781566Y4644500D1*
X7877566Y4644503D1*
X7877559Y4814503D1*
X19496087Y2540011D2*
X19166087Y2539992D1*
X19166112Y2089992D1*
X19496112Y2090011D1*
X19496087Y2540011D1*
X8156095Y4452993D2*
X8156104Y4356993D1*
X8326104Y4357010D1*
X8326095Y4453010D1*
X8156095Y4452993D1*
X7687561Y4814503D2*
X7591561Y4814500D1*
X7591565Y4644500D1*
X7687565Y4644503D1*
X7687561Y4814503D1*
X7656095Y4452993D2*
X7656104Y4356993D1*
X7826104Y4357010D1*
X7826095Y4453010D1*
X7656095Y4452993D1*
X7537561Y4814503D2*
X7441561Y4814500D1*
X7441565Y4644500D1*
X7537565Y4644503D1*
X7537561Y4814503D1*
X7356095Y4452993D2*
X7356104Y4356993D1*
X7526104Y4357010D1*
X7526095Y4453010D1*
X7356095Y4452993D1*
X5214097Y6330003D2*
X5118097Y6330000D1*
X5118102Y6160000D1*
X5214102Y6160003D1*
X5214097Y6330003D1*
X15543599Y6916251D2*
X15608599D1*
Y7033751D1*
X15543599D1*
Y6916251D1*
X4828102Y6160000D2*
X4924102Y6160003D1*
X4924097Y6330003D1*
X4828097Y6330000D1*
X4828102Y6160000D1*
Y8655000D2*
X4924102Y8655003D1*
X4924097Y8825003D1*
X4828097Y8825000D1*
X4828102Y8655000D1*
X7347561Y4814503D2*
X7251561Y4814500D1*
X7251565Y4644500D1*
X7347565Y4644503D1*
X7347561Y4814503D1*
X5214097Y8100003D2*
X5118097Y8100000D1*
X5118102Y7930000D1*
X5214102Y7930003D1*
X5214097Y8100003D1*
X4828101Y7930001D2*
X4924101Y7930002D1*
X4924098Y8100002D1*
X4828098Y8100001D1*
X4828101Y7930001D1*
X6856095Y4452993D2*
X6856104Y4356993D1*
X7026104Y4357010D1*
X7026095Y4453010D1*
X6856095Y4452993D1*
X5214097Y5605003D2*
X5118097Y5605000D1*
X5118102Y5435000D1*
X5214102Y5435003D1*
X5214097Y5605003D1*
X5359096Y6655003D2*
X5263096Y6655000D1*
X5263103Y6485000D1*
X5359103Y6485003D1*
X5359096Y6655003D1*
X4828102Y5435000D2*
X4924102Y5435003D1*
X4924097Y5605003D1*
X4828097Y5605000D1*
X4828102Y5435000D1*
X5359097Y5930003D2*
X5263097Y5930000D1*
X5263102Y5760000D1*
X5359102Y5760003D1*
X5359097Y5930003D1*
X7197561Y4814503D2*
X7101561Y4814500D1*
X7101565Y4644500D1*
X7197565Y4644503D1*
X7197561Y4814503D1*
X6556095Y4452993D2*
X6556104Y4356993D1*
X6726104Y4357010D1*
X6726095Y4453010D1*
X6556095Y4452993D1*
X10439851Y5092505D2*
X10439848Y5157505D1*
X10322348Y5157498D1*
X10322351Y5092498D1*
X10439851Y5092505D1*
X15108599Y7033751D2*
X15043599D1*
Y6916251D1*
X15108599D1*
Y7033751D1*
X10439851Y4967505D2*
X10439848Y5032505D1*
X10322348Y5032498D1*
X10322351Y4967498D1*
X10439851Y4967505D1*
X12448602Y4053750D2*
X12383602Y4053753D1*
X12383597Y3936253D1*
X12448597Y3936250D1*
X12448602Y4053750D1*
X11146599Y4053751D2*
X11081599D1*
Y3936251D1*
X11146599D1*
Y4053751D1*
X11306100Y9699503D2*
X11306098Y9795503D1*
X11136098Y9795500D1*
X11136100Y9699500D1*
X11306100Y9699503D1*
X19901103Y1697008D2*
X19901096Y1793008D1*
X19731096Y1792995D1*
X19731103Y1696995D1*
X19901103Y1697008D1*
X14916099Y11038001D2*
Y10942001D1*
X15086099D1*
Y11038001D1*
X14916099D1*
X5359094Y9150005D2*
X5263094Y9149998D1*
X5263105Y8979998D1*
X5359105Y8980005D1*
X5359094Y9150005D1*
X10003101Y10190001D2*
X10099101Y10190002D1*
X10099098Y10360002D1*
X10003098Y10360001D1*
X10003101Y10190001D1*
X20258599Y8686251D2*
X20323599D1*
Y8803751D1*
X20258599D1*
Y8686251D1*
X20258601Y8436250D2*
X20323601Y8436253D1*
X20323597Y8553753D1*
X20258597Y8553750D1*
X20258601Y8436250D1*
X12492349Y8782501D2*
Y8717501D1*
X12609849D1*
Y8782501D1*
X12492349D1*
X11524097Y9960003D2*
X11428097Y9960000D1*
X11428102Y9790000D1*
X11524102Y9790003D1*
X11524097Y9960003D1*
X12492349Y8882501D2*
Y8817501D1*
X12609849D1*
Y8882501D1*
X12492349D1*
X5819850Y4377503D2*
X5819849Y4312503D1*
X5937349Y4312500D1*
X5937350Y4377500D1*
X5819850Y4377503D1*
X9748598Y9328752D2*
X9683598Y9328751D1*
X9683601Y9211251D1*
X9748601Y9211252D1*
X9748598Y9328752D1*
X3923597Y5268753D2*
X3858597Y5268750D1*
X3858602Y5151250D1*
X3923602Y5151253D1*
X3923597Y5268753D1*
X20258602Y10741250D2*
X20323602Y10741253D1*
X20323597Y10858753D1*
X20258597Y10858750D1*
X20258602Y10741250D1*
X5359096Y8425003D2*
X5263096Y8425000D1*
X5263103Y8255000D1*
X5359103Y8255003D1*
X5359096Y8425003D1*
X4023596Y5268753D2*
X3958596Y5268750D1*
X3958603Y5151250D1*
X4023603Y5151253D1*
X4023596Y5268753D1*
X9389099Y8518001D2*
Y8182001D1*
X9213099D1*
Y8459001D1*
X9272099Y8518001D1*
X9389099D1*
X3923596Y7768753D2*
X3858596Y7768750D1*
X3858603Y7651250D1*
X3923603Y7651253D1*
X3923596Y7768753D1*
X20258601Y10491250D2*
X20323601Y10491253D1*
X20323597Y10608753D1*
X20258597Y10608750D1*
X20258601Y10491250D1*
X4023597Y7768753D2*
X3958597Y7768750D1*
X3958602Y7651250D1*
X4023602Y7651253D1*
X4023597Y7768753D1*
X10099097Y9960003D2*
X10003097Y9960000D1*
X10003102Y9790000D1*
X10099102Y9790003D1*
X10099097Y9960003D1*
X11428101Y10190001D2*
X11524101Y10190002D1*
X11524098Y10360002D1*
X11428098Y10360001D1*
X11428101Y10190001D1*
X10549099Y9960001D2*
X10453099D1*
Y9790001D1*
X10549099D1*
Y9960001D1*
X11974099D2*
X11878099D1*
Y9790001D1*
X11974099D1*
Y9960001D1*
X10453101Y10190001D2*
X10549101Y10190002D1*
X10549098Y10360002D1*
X10453098Y10360001D1*
X10453101Y10190001D1*
X11878101D2*
X11974101Y10190002D1*
X11974098Y10360002D1*
X11878098Y10360001D1*
X11878101Y10190001D1*
X11106853Y4207503D2*
X11106852Y4272503D1*
X10989352Y4272500D1*
X10989353Y4207500D1*
X11106853Y4207503D1*
X9453101Y3070001D2*
X9549101Y3070002D1*
X9549098Y3240002D1*
X9453098Y3240001D1*
X9453101Y3070001D1*
X11109850Y4787503D2*
X11109849Y4852503D1*
X10992349Y4852500D1*
X10992350Y4787500D1*
X11109850Y4787503D1*
X11246599Y4571251D2*
X11311599D1*
Y4688751D1*
X11246599D1*
Y4571251D1*
X11311599Y4483751D2*
X11246599D1*
Y4366251D1*
X11311599D1*
Y4483751D1*
X5937352Y4412505D2*
X5937347Y4477505D1*
X5819847Y4477498D1*
X5819852Y4412498D1*
X5937352Y4412505D1*
X9624855Y4555003D2*
X9624850Y4620003D1*
X9507350Y4619993D1*
X9507355Y4554993D1*
X9624855Y4555003D1*
X10117350Y4619994D2*
X10117355Y4554994D1*
X10234855Y4555002D1*
X10234850Y4620002D1*
X10117350Y4619994D1*
Y4819994D2*
X10117355Y4754994D1*
X10234855Y4755002D1*
X10234850Y4820002D1*
X10117350Y4819994D1*
X9624855Y4755003D2*
X9624850Y4820003D1*
X9507350Y4819993D1*
X9507355Y4754993D1*
X9624855Y4755003D1*
X5341096Y4152995D2*
X5341103Y4056995D1*
X5511103Y4057008D1*
X5511096Y4153008D1*
X5341096Y4152995D1*
X10028602Y5871250D2*
X10093602Y5871253D1*
X10093597Y5988753D1*
X10028597Y5988750D1*
X10028602Y5871250D1*
X18453100Y2364996D2*
X18549100Y2365000D1*
X18549092Y2535000D1*
X18453092Y2534996D1*
X18453100Y2364996D1*
X5211102Y4057006D2*
X5211097Y4153006D1*
X5041097Y4152997D1*
X5041102Y4056997D1*
X5211102Y4057006D1*
X9933602Y5871250D2*
X9998602Y5871253D1*
X9998597Y5988753D1*
X9933597Y5988750D1*
X9933602Y5871250D1*
X18203100Y2364996D2*
X18299100Y2365000D1*
X18299092Y2535000D1*
X18203092Y2534996D1*
X18203100Y2364996D1*
X18789099Y1925025D2*
X18693099D1*
Y1755025D1*
X18789099D1*
Y1925025D1*
X9584852Y5637505D2*
X9584847Y5702505D1*
X9467347Y5702498D1*
X9467352Y5637498D1*
X9584852Y5637505D1*
X9463603Y5871249D2*
X9528603Y5871254D1*
X9528596Y5988754D1*
X9463596Y5988749D1*
X9463603Y5871249D1*
X19069099Y1925001D2*
X18973099D1*
Y1755001D1*
X19069099D1*
Y1925001D1*
X9584852Y5542505D2*
X9584847Y5607505D1*
X9467347Y5607498D1*
X9467352Y5542498D1*
X9584852Y5542505D1*
X9558603Y5871249D2*
X9623603Y5871254D1*
X9623596Y5988754D1*
X9558596Y5988749D1*
X9558603Y5871249D1*
X10123603D2*
X10188603Y5871254D1*
X10188596Y5988754D1*
X10123596Y5988749D1*
X10123603Y5871249D1*
X9838602Y5871250D2*
X9903602Y5871253D1*
X9903597Y5988753D1*
X9838597Y5988750D1*
X9838602Y5871250D1*
X9713597Y5988753D2*
X9648597Y5988750D1*
X9648602Y5871250D1*
X9713602Y5871253D1*
X9713597Y5988753D1*
X9368602Y5871250D2*
X9433602Y5871253D1*
X9433597Y5988753D1*
X9368597Y5988750D1*
X9368602Y5871250D1*
X10492349Y8777501D2*
Y8712501D1*
X10609849D1*
Y8777501D1*
X10492349D1*
Y8877501D2*
Y8812501D1*
X10609849D1*
Y8877501D1*
X10492349D1*
X19689061Y4942979D2*
X19689084Y4606979D1*
X19513084Y4606967D1*
X19513065Y4883967D1*
X19572061Y4942971D1*
X19689061Y4942979D1*
X16249097Y8935026D2*
X16153097Y8935024D1*
X16153102Y8765024D1*
X16249102Y8765026D1*
X16249097Y8935026D1*
X13243103Y1739999D2*
X13339103Y1740004D1*
X13339095Y1910004D1*
X13243095Y1909999D1*
X13243103Y1739999D1*
X17146095Y9512994D2*
X17146104Y9416994D1*
X17316104Y9417009D1*
X17316095Y9513009D1*
X17146095Y9512994D1*
X13589104Y2002010D2*
X13589095Y2178010D1*
X13253095Y2177993D1*
X13253104Y2001993D1*
X13589104Y2002010D1*
X18114061Y4942979D2*
X18114084Y4606979D1*
X17938084Y4606967D1*
X17938065Y4883967D1*
X17997061Y4942971D1*
X18114061Y4942979D1*
X16749097Y8935026D2*
X16653097Y8935024D1*
X16653102Y8765024D1*
X16749102Y8765026D1*
X16749097Y8935026D1*
X16564061Y4941979D2*
X16564084Y4605979D1*
X16388084Y4605967D1*
X16388065Y4882967D1*
X16447061Y4941971D1*
X16564061Y4941979D1*
X14989064Y4942977D2*
X14989082Y4606977D1*
X14813082Y4606968D1*
X14813067Y4883968D1*
X14872064Y4942971D1*
X14989064Y4942977D1*
X17431094Y9512993D2*
X17431104Y9416993D1*
X17601104Y9417010D1*
X17601094Y9513010D1*
X17431094Y9512993D1*
X13414064Y4942977D2*
X13414082Y4606977D1*
X13238082Y4606968D1*
X13238067Y4883968D1*
X13297064Y4942971D1*
X13414064Y4942977D1*
X16999097Y8935029D2*
X16903097Y8935027D1*
X16903102Y8765027D1*
X16999102Y8765029D1*
X16999097Y8935029D1*
X5011102Y3757006D2*
X5011097Y3853006D1*
X4841097Y3852997D1*
X4841102Y3756997D1*
X5011102Y3757006D1*
X4853103Y3944999D2*
X4949103Y3945004D1*
X4949095Y4115004D1*
X4853095Y4114999D1*
X4853103Y3944999D1*
X5753103Y3569999D2*
X5849103Y3570004D1*
X5849095Y3740004D1*
X5753095Y3739999D1*
X5753103Y3569999D1*
X17716095Y9512994D2*
X17716104Y9416994D1*
X17886104Y9417009D1*
X17886095Y9513009D1*
X17716095Y9512994D1*
X4841097Y3552998D2*
X4841102Y3456998D1*
X5011102Y3457005D1*
X5011097Y3553005D1*
X4841097Y3552998D1*
X5011101Y3607005D2*
X5011098Y3703005D1*
X4841098Y3702998D1*
X4841101Y3606998D1*
X5011101Y3607005D1*
X9699097Y3240003D2*
X9603097Y3240000D1*
X9603102Y3070000D1*
X9699102Y3070003D1*
X9699097Y3240003D1*
X17499095Y8935031D2*
X17403095Y8935026D1*
X17403104Y8765026D1*
X17499104Y8765031D1*
X17499095Y8935031D1*
X18001094Y9512993D2*
X18001104Y9416993D1*
X18171104Y9417010D1*
X18171094Y9513010D1*
X18001094Y9512993D1*
X19901103Y1842008D2*
X19901096Y1938008D1*
X19731096Y1937995D1*
X19731103Y1841995D1*
X19901103Y1842008D1*
X3208595Y1888754D2*
X3143595Y1888749D1*
X3143604Y1771249D1*
X3208604Y1771254D1*
X3208595Y1888754D1*
X18001094Y9932993D2*
X18001104Y9836993D1*
X18171104Y9837010D1*
X18171094Y9933010D1*
X18001094Y9932993D1*
X18124099Y8935027D2*
X18028099Y8935023D1*
X18028106Y8765023D1*
X18124106Y8765027D1*
X18124099Y8935027D1*
X3108595Y1888754D2*
X3043595Y1888749D1*
X3043604Y1771249D1*
X3108604Y1771254D1*
X3108595Y1888754D1*
X17716094Y9932993D2*
X17716104Y9836993D1*
X17886104Y9837010D1*
X17886094Y9933010D1*
X17716094Y9932993D1*
X18624098Y8935027D2*
X18528098Y8935022D1*
X18528107Y8765022D1*
X18624107Y8765027D1*
X18624098Y8935027D1*
X15071099Y7855001D2*
Y7795001D1*
X15181099D1*
Y7855001D1*
X15071099D1*
X18874101Y8935029D2*
X18778101Y8935027D1*
X18778105Y8765027D1*
X18874105Y8765029D1*
X18874101Y8935029D1*
X3916097Y4152998D2*
X3916102Y4056998D1*
X4086102Y4057005D1*
X4086097Y4153005D1*
X3916097Y4152998D1*
X3786100Y4057003D2*
X3786098Y4153003D1*
X3616098Y4153000D1*
X3616100Y4057000D1*
X3786100Y4057003D1*
X3586102Y3757006D2*
X3586097Y3853006D1*
X3416097Y3852997D1*
X3416102Y3756997D1*
X3586102Y3757006D1*
X3428102Y3945000D2*
X3524102Y3945003D1*
X3524097Y4115003D1*
X3428097Y4115000D1*
X3428102Y3945000D1*
X17431094Y9932993D2*
X17431104Y9836993D1*
X17601104Y9837010D1*
X17601094Y9933010D1*
X17431094Y9932993D1*
X17146094D2*
X17146104Y9836993D1*
X17316104Y9837010D1*
X17316094Y9933010D1*
X17146094Y9932993D1*
X19374098Y8935031D2*
X19278098Y8935026D1*
X19278107Y8765026D1*
X19374107Y8765031D1*
X19374098Y8935031D1*
X13493103Y1739999D2*
X13589103Y1740004D1*
X13589095Y1910004D1*
X13493095Y1909999D1*
X13493103Y1739999D1*
X13743102Y1740000D2*
X13839102Y1740003D1*
X13839097Y1910003D1*
X13743097Y1910000D1*
X13743102Y1740000D1*
X15289097Y2755013D2*
X15193097Y2755010D1*
X15193102Y2585010D1*
X15289102Y2585013D1*
X15289097Y2755013D1*
X13993102Y1740000D2*
X14089102Y1740003D1*
X14089097Y1910003D1*
X13993097Y1910000D1*
X13993102Y1740000D1*
X4328102Y3570000D2*
X4424102Y3570003D1*
X4424097Y3740003D1*
X4328097Y3740000D1*
X4328102Y3570000D1*
X16039097Y2755013D2*
X15943097Y2755010D1*
X15943102Y2585010D1*
X16039102Y2585013D1*
X16039097Y2755013D1*
X16414097D2*
X16318097Y2755010D1*
X16318102Y2585010D1*
X16414102Y2585013D1*
X16414097Y2755013D1*
Y2255013D2*
X16318097Y2255010D1*
X16318102Y2085010D1*
X16414102Y2085013D1*
X16414097Y2255013D1*
X3416098Y3552999D2*
X3416101Y3456999D1*
X3586101Y3457004D1*
X3586098Y3553004D1*
X3416098Y3552999D1*
X3586100Y3607003D2*
X3586098Y3703003D1*
X3416098Y3703000D1*
X3416100Y3607000D1*
X3586100Y3607003D1*
X9389099Y8968001D2*
Y8632001D1*
X9213099D1*
Y8909001D1*
X9272099Y8968001D1*
X9389099D1*
X10169103Y9182008D2*
X9833103Y9181995D1*
X9833097Y9357995D1*
X10110097Y9358005D1*
X10169099Y9299008D1*
X10169103Y9182008D1*
X19813599Y9726251D2*
X19878599D1*
Y9843751D1*
X19813599D1*
Y9726251D1*
X19093599Y9181251D2*
X19158599D1*
Y9298751D1*
X19093599D1*
Y9181251D1*
X19943602Y10192006D2*
X19943597Y10288006D1*
X19773597Y10287997D1*
X19773602Y10191997D1*
X19943602Y10192006D1*
X7609851Y7317504D2*
X7609848Y7382504D1*
X7492348Y7382499D1*
X7492351Y7317499D1*
X7609851Y7317504D1*
X17164097Y2755013D2*
X17068097Y2755010D1*
X17068102Y2585010D1*
X17164102Y2585013D1*
X17164097Y2755013D1*
Y2255013D2*
X17068097Y2255010D1*
X17068102Y2085010D1*
X17164102Y2085013D1*
X17164097Y2255013D1*
X6786100Y5387003D2*
X6786098Y5483003D1*
X6616098Y5483000D1*
X6616100Y5387000D1*
X6786100Y5387003D1*
X6616099Y6083001D2*
Y5987001D1*
X6786099D1*
Y6083001D1*
X6616099D1*
X7609849Y7567501D2*
Y7632501D1*
X7492349D1*
Y7567501D1*
X7609849D1*
X6593599Y7756251D2*
X6528599D1*
Y7638751D1*
X6593599D1*
Y7756251D1*
Y7578751D2*
X6528599D1*
Y7461251D1*
X6593599D1*
Y7578751D1*
X6559849Y7272501D2*
Y7337501D1*
X6442349D1*
Y7272501D1*
X6559849D1*
X6559850Y6992503D2*
X6559849Y7057503D1*
X6442349Y7057500D1*
X6442350Y6992500D1*
X6559850Y6992503D1*
X7086100Y8107003D2*
X7086098Y8203003D1*
X6916098Y8203000D1*
X6916100Y8107000D1*
X7086100Y8107003D1*
X9753101Y3070001D2*
X9849101Y3070002D1*
X9849098Y3240002D1*
X9753098Y3240001D1*
X9753101Y3070001D1*
X9999097Y3240003D2*
X9903097Y3240000D1*
X9903102Y3070000D1*
X9999102Y3070003D1*
X9999097Y3240003D1*
X4536099Y3907001D2*
Y4003001D1*
X4366099D1*
Y3907001D1*
X4536099D1*
X1994094Y2370005D2*
X1898094Y2369998D1*
X1898105Y2199998D1*
X1994105Y2200005D1*
X1994094Y2370005D1*
X5961099Y3907001D2*
Y4003001D1*
X5791099D1*
Y3907001D1*
X5961099D1*
X5509097Y5605003D2*
X5413097Y5605000D1*
X5413102Y5435000D1*
X5509102Y5435003D1*
X5509097Y5605003D1*
X5504099Y8100001D2*
X5408099D1*
Y7930001D1*
X5504099D1*
Y8100001D1*
X11753597Y9328753D2*
X11688597Y9328750D1*
X11688602Y9211250D1*
X11753602Y9211253D1*
X11753597Y9328753D1*
X11389093Y8518006D2*
X11389106Y8182006D1*
X11213106Y8181999D1*
X11213095Y8458999D1*
X11272093Y8518001D1*
X11389093Y8518006D1*
Y8968006D2*
X11389106Y8632006D1*
X11213106Y8631999D1*
X11213095Y8908999D1*
X11272093Y8968001D1*
X11389093Y8968006D1*
X12169099Y9182001D2*
X11833099D1*
Y9358001D1*
X12110099D1*
X12169099Y9299001D1*
Y9182001D1*
X5601093Y3605009D2*
D49*
X5251093Y3604994D1*
X5251109Y3204994D1*
X5601109Y3205009D1*
X5601093Y3605009D1*
G36*
X5566088Y3715007D2*
X5568699Y3714836D1*
X5571265Y3714326D1*
X5573742Y3713485D1*
X5576088Y3712328D1*
X5578264Y3710875D1*
X5580231Y3709150D1*
X5581956Y3707183D1*
X5583409Y3705008D1*
X5584566Y3702662D1*
X5585407Y3700184D1*
X5585918Y3697618D1*
X5586089Y3695008D1*
X5585918Y3692397D1*
X5585408Y3689832D1*
X5584567Y3687354D1*
X5583410Y3685008D1*
X5581957Y3682833D1*
X5580232Y3680866D1*
X5578265Y3679141D1*
X5576090Y3677687D1*
X5573743Y3676530D1*
X5571266Y3675689D1*
X5568700Y3675178D1*
X5566090Y3675007D1*
D1*
X5563479Y3675178D1*
X5560913Y3675688D1*
X5558436Y3676529D1*
X5556090Y3677686D1*
X5553914Y3679140D1*
X5551947Y3680864D1*
X5550222Y3682831D1*
X5548769Y3685006D1*
X5547612Y3687353D1*
X5546771Y3689830D1*
X5546260Y3692396D1*
X5546089Y3695006D1*
X5546260Y3697617D1*
X5546770Y3700183D1*
X5547611Y3702660D1*
X5548768Y3705006D1*
X5550221Y3707182D1*
X5551946Y3709149D1*
X5553913Y3710874D1*
X5556088Y3712327D1*
X5558435Y3713484D1*
X5560912Y3714325D1*
X5563478Y3714836D1*
X5566088Y3715007D1*
D1*
G37*
X3785760Y7548007D2*
D13*
X3844097Y7489678D1*
X3844105Y7372011D1*
X3538105Y7371991D1*
X3538094Y7547991D1*
X3785760Y7548007D1*
X5282764Y4708005D2*
X5366099Y4624673D1*
X5366103Y4458006D1*
X4916103Y4457997D1*
X4916097Y4707997D1*
X5282764Y4708005D1*
X2941437Y2196998D2*
X2883101Y2255328D1*
X2883096Y2372995D1*
X3189096Y2373009D1*
X3189103Y2197009D1*
X2941437Y2196998D1*
X4176093Y3605009D2*
D49*
X3826093Y3604994D1*
X3826109Y3204994D1*
X4176109Y3205009D1*
X4176093Y3605009D1*
G36*
X4141088Y3715007D2*
X4143699Y3714836D1*
X4146265Y3714326D1*
X4148742Y3713485D1*
X4151088Y3712328D1*
X4153264Y3710875D1*
X4155231Y3709150D1*
X4156956Y3707183D1*
X4158409Y3705008D1*
X4159566Y3702662D1*
X4160407Y3700184D1*
X4160918Y3697618D1*
X4161089Y3695008D1*
X4160918Y3692397D1*
X4160408Y3689832D1*
X4159567Y3687354D1*
X4158410Y3685008D1*
X4156957Y3682833D1*
X4155232Y3680866D1*
X4153265Y3679141D1*
X4151090Y3677687D1*
X4148743Y3676530D1*
X4146266Y3675689D1*
X4143700Y3675178D1*
X4141090Y3675007D1*
D1*
X4138479Y3675178D1*
X4135913Y3675688D1*
X4133436Y3676529D1*
X4131090Y3677686D1*
X4128914Y3679140D1*
X4126947Y3680864D1*
X4125222Y3682831D1*
X4123769Y3685006D1*
X4122612Y3687353D1*
X4121771Y3689830D1*
X4121260Y3692396D1*
X4121089Y3695006D1*
X4121260Y3697617D1*
X4121770Y3700183D1*
X4122611Y3702660D1*
X4123768Y3705006D1*
X4125221Y3707182D1*
X4126946Y3709149D1*
X4128913Y3710874D1*
X4131088Y3712327D1*
X4133435Y3713484D1*
X4135912Y3714325D1*
X4138478Y3714836D1*
X4141088Y3715007D1*
D1*
G37*
X2726107Y9515009D2*
D13*
X2016107Y9514994D1*
X2016092Y10224994D1*
X2626092Y10225007D1*
X2726094Y10125009D1*
X2726107Y9515009D1*
X5616115Y6099989D2*
X5616083Y6599989D1*
X6016083Y6600014D1*
X6016108Y6200014D1*
X5916115Y6100008D1*
X5616115Y6099989D1*
X3651107Y9515009D2*
X2941107Y9514994D1*
X2941092Y10224994D1*
X3551092Y10225007D1*
X3651094Y10125009D1*
X3651107Y9515009D1*
X5036101Y6475003D2*
X4976102Y6415002D1*
X4856102Y6415000D1*
X4856096Y6725000D1*
X5036096Y6725003D1*
X5036101Y6475003D1*
X7826099Y5199501D2*
X7306099D1*
Y5509501D1*
X7726099D1*
X7826099Y5409501D1*
Y5199501D1*
X5282764Y7203005D2*
X5366099Y7119673D1*
X5366103Y6953006D1*
X4916103Y6952997D1*
X4916097Y7202997D1*
X5282764Y7203005D1*
X14601086Y4575004D2*
X13601086Y4574938D1*
X13601060Y4974938D1*
X14501060Y4974997D1*
X14601066Y4875004D1*
X14601086Y4575004D1*
X3785763Y5048005D2*
X3844098Y4989674D1*
X3844103Y4872007D1*
X3538103Y4871996D1*
X3538096Y5047996D1*
X3785763Y5048005D1*
X5036101Y8970003D2*
X4976102Y8910002D1*
X4856102Y8910000D1*
X4856096Y9220000D1*
X5036096Y9220003D1*
X5036101Y8970003D1*
Y8245003D2*
X4976102Y8185002D1*
X4856102Y8185000D1*
X4856096Y8495000D1*
X5036096Y8495003D1*
X5036101Y8245003D1*
Y5750003D2*
X4976102Y5690002D1*
X4856102Y5690000D1*
X4856096Y6000000D1*
X5036096Y6000003D1*
X5036101Y5750003D1*
X16163586Y4575004D2*
X15163586Y4574938D1*
X15163560Y4974938D1*
X16063560Y4974997D1*
X16163566Y4875004D1*
X16163586Y4575004D1*
X19651117Y9510019D2*
X18951117Y9509983D1*
X18951081Y10209983D1*
X19551081Y10210014D1*
X19651087Y10110019D1*
X19651117Y9510019D1*
X10776104Y9869997D2*
X10776094Y10379997D1*
X11226094Y10380006D1*
X11226102Y9970006D1*
X11126104Y9870004D1*
X10776104Y9869997D1*
X17726083Y4575004D2*
X16726083Y4574938D1*
X16726056Y4974938D1*
X17626056Y4974997D1*
X17726063Y4875004D1*
X17726083Y4575004D1*
X19288589Y4575011D2*
X18288589Y4574930D1*
X18288557Y4974930D1*
X19188557Y4975003D1*
X19288565Y4875011D1*
X19288589Y4575011D1*
X20851086Y4575004D2*
X19851086Y4574938D1*
X19851060Y4974938D1*
X20751060Y4974997D1*
X20851066Y4875004D1*
X20851086Y4575004D1*
X16436123Y9284987D2*
X16436074Y10074987D1*
X16886074Y10075016D1*
X16886117Y9385016D1*
X16786123Y9285009D1*
X16436123Y9284987D1*
X9666099Y5170001D2*
Y5580001D1*
X10076099D1*
Y5270001D1*
X9976099Y5170001D1*
X9666099D1*
X15481089Y7710008D2*
X15481110Y7190008D1*
X15171110Y7189995D1*
X15171093Y7609995D1*
X15271089Y7709999D1*
X15481089Y7710008D1*
X15481086Y6660010D2*
X15481114Y6140010D1*
X15171114Y6139993D1*
X15171091Y6559993D1*
X15271086Y6659998D1*
X15481086Y6660010D1*
X15141104Y2200015D2*
X14841104Y2200008D1*
X14841095Y2640008D1*
X15041095Y2640013D1*
X15141097Y2540015D1*
X15141104Y2200015D1*
X10226099Y8930001D2*
Y8270001D1*
X9776099D1*
Y8830001D1*
X9876099Y8930001D1*
X10226099D1*
X6937430Y5805003D2*
X6984099Y5758338D1*
X6984102Y5665005D1*
X6768102Y5664997D1*
X6768097Y5804997D1*
X6937430Y5805003D1*
X15891104Y2200015D2*
X15591104Y2200008D1*
X15591095Y2640008D1*
X15791095Y2640013D1*
X15891097Y2540015D1*
X15891104Y2200015D1*
X6587433Y5805001D2*
X6634099Y5758335D1*
Y5665001D1*
X6418099D1*
Y5805001D1*
X6587433D1*
X16466099Y2640021D2*
X16766099D1*
Y2200021D1*
X16566099D1*
X16466099Y2300021D1*
Y2640021D1*
X17216099D2*
X17516099D1*
Y2200021D1*
X17316099D1*
X17216099Y2300021D1*
Y2640021D1*
X5611122Y8594983D2*
X5611076Y9094983D1*
X6011076Y9095020D1*
X6011112Y8695020D1*
X5911122Y8595011D1*
X5611122Y8594983D1*
X14296107Y2195010D2*
X13796107Y2194992D1*
X13796092Y2594992D1*
X14196092Y2595007D1*
X14296096Y2495010D1*
X14296107Y2195010D1*
X5890099Y5049001D2*
X5790099Y5149001D1*
Y5421001D1*
X6462099D1*
Y5049001D1*
X5890099D1*
X7206099Y8050001D2*
Y7040001D1*
X6796099D1*
Y7950001D1*
X6896099Y8050001D1*
X7206099D1*
X12226099Y8930001D2*
Y8270001D1*
X11776099D1*
Y8830001D1*
X11876099Y8930001D1*
X12226099D1*
X20081099Y8775001D2*
Y8465001D1*
X19771099D1*
Y8675001D1*
X19871099Y8775001D1*
X20081099D1*
X6071103Y4339997D2*
X6071096Y4549997D1*
X6311096Y4550005D1*
X6311101Y4410005D1*
X6241103Y4340002D1*
X6071103Y4339997D1*
X5536101Y11150000D2*
X5536098Y11310000D1*
X5706098Y11310003D1*
X5706100Y11203003D1*
X5653101Y11150002D1*
X5536101Y11150000D1*
X10546101D2*
X10546098Y11310000D1*
X10716098Y11310003D1*
X10716100Y11203003D1*
X10663101Y11150002D1*
X10546101Y11150000D1*
X15546101D2*
X15546098Y11310000D1*
X15716098Y11310003D1*
X15716100Y11203003D1*
X15663101Y11150002D1*
X15546101Y11150000D1*
X20546101D2*
X20546098Y11310000D1*
X20716098Y11310003D1*
X20716100Y11203003D1*
X20663101Y11150002D1*
X20546101Y11150000D1*
X20081099Y10830001D2*
Y10520001D1*
X19771099D1*
Y10730001D1*
X19871099Y10830001D1*
X20081099D1*
X10281100Y5294988D2*
D14*
X10481103Y5294995D1*
X10281094Y5454994D2*
X10481097Y5455002D1*
X10481103Y5294995D2*
X10481097Y5455002D1*
X10281100Y5294988D2*
X10281094Y5454994D1*
X18413104Y9241998D2*
D13*
X18749104Y9242005D1*
X18749095Y9758005D1*
X18413095Y9757998D1*
X18413104Y9241998D1*
D38*
X1001099Y1000001D3*
X6251099Y11100001D2*
D13*
X15751099D1*
Y5900001D1*
X6251099D1*
Y11100001D1*
G36*
X1013739Y1037025D2*
Y1013358D1*
X1023072D1*
X1025072Y1013692D1*
X1027072Y1014358D1*
X1029072Y1015358D1*
X1030405Y1016358D1*
X1031072Y1017025D1*
X1032072Y1018358D1*
X1032739Y1019358D1*
X1033405Y1020692D1*
X1034072Y1022692D1*
X1034405Y1024358D1*
Y1029358D1*
X1034072Y1031025D1*
X1033739Y1032025D1*
X1032405Y1034692D1*
X1031739Y1035692D1*
X1030072Y1037358D1*
X1029072Y1038025D1*
X1027072Y1039025D1*
X1025072Y1039692D1*
X1023072Y1040025D1*
X1013739D1*
Y1037025D1*
X1016739D1*
X1018739Y1037358D1*
X1020739D1*
X1022739Y1037025D1*
X1024405Y1036692D1*
X1025405Y1036358D1*
X1027405Y1035358D1*
X1029405Y1033358D1*
Y1033025D1*
X1030072Y1032025D1*
X1030405Y1031025D1*
X1030739Y1029358D1*
X1031072Y1029025D1*
Y1024358D1*
X1030739Y1024025D1*
X1030405Y1022358D1*
X1030072Y1021358D1*
X1029739Y1020692D1*
X1028739Y1019358D1*
X1028629Y1018954D1*
X1028405Y1018692D1*
X1027739Y1018358D1*
X1027072Y1017692D1*
X1025739Y1017025D1*
X1024739Y1016692D1*
X1023072Y1016358D1*
X1020961Y1016025D1*
X1018850D1*
X1016739Y1016358D1*
Y1037025D1*
X1013739D1*
G37*
G36*
X1074072Y1040025D2*
Y1036692D1*
X1077739D1*
Y1040025D1*
X1074072D1*
G37*
G36*
X1168405D2*
Y1036692D1*
X1172072D1*
Y1040025D1*
X1168405D1*
G37*
G36*
X1197072D2*
Y1036692D1*
X1200739D1*
Y1040025D1*
X1197072D1*
G37*
G36*
X1039739Y1031358D2*
X1038739Y1030358D1*
X1037739Y1028358D1*
X1037405Y1027358D1*
X1037072Y1026025D1*
Y1020692D1*
X1037405Y1019358D1*
X1037739Y1018358D1*
X1038405Y1017025D1*
X1039405Y1015692D1*
X1039739Y1015358D1*
X1041072Y1014358D1*
X1042405Y1013692D1*
X1043405Y1013358D1*
X1045072Y1013025D1*
X1048739D1*
X1050405Y1013358D1*
X1052405Y1014025D1*
X1053739Y1014692D1*
Y1018025D1*
X1050405Y1016358D1*
X1047739Y1015692D1*
X1046405D1*
X1043739Y1016358D1*
X1043072Y1016692D1*
X1042739Y1017025D1*
X1042072Y1017358D1*
X1041677Y1017733D1*
X1041739Y1018025D1*
X1041072Y1019025D1*
X1040739Y1019692D1*
X1040405Y1021025D1*
X1040072Y1021358D1*
Y1023025D1*
X1054072Y1023358D1*
Y1026358D1*
X1053739Y1028358D1*
X1053405Y1029358D1*
X1052405Y1031358D1*
X1051072Y1032692D1*
X1049072Y1033692D1*
X1047739Y1034025D1*
X1044405D1*
X1043072Y1033692D1*
X1041072Y1032692D1*
X1039739Y1031358D1*
X1044072D1*
X1045294Y1031692D1*
X1046516D1*
X1047739Y1031358D1*
X1048739Y1031025D1*
X1050405Y1029358D1*
Y1029025D1*
X1050739Y1027692D1*
X1051072Y1027358D1*
Y1026025D1*
X1047405Y1025692D1*
X1043739D1*
X1040072Y1026025D1*
Y1026692D1*
X1040405Y1027025D1*
X1040739Y1028358D1*
X1041405Y1029358D1*
Y1029692D1*
X1042072Y1030358D1*
X1044072Y1031358D1*
X1039739D1*
G37*
G36*
X1062405Y1034025D2*
X1061072Y1033692D1*
X1060072Y1033358D1*
X1059405Y1033025D1*
X1057405Y1031025D1*
X1056739Y1029692D1*
Y1026358D1*
X1057739Y1024358D1*
X1058072Y1024025D1*
X1059072Y1023358D1*
X1060405Y1022692D1*
X1063072Y1022025D1*
X1064739Y1021692D1*
X1065739Y1021358D1*
X1067072Y1020692D1*
X1067340Y1020261D1*
X1067405Y1020025D1*
X1067739Y1019692D1*
Y1017692D1*
X1066405Y1016358D1*
X1065072Y1016025D1*
X1063850Y1015692D1*
X1062628D1*
X1061405Y1016025D1*
X1059405Y1016692D1*
X1057405Y1017692D1*
X1056739Y1018358D1*
Y1014692D1*
X1057072Y1014358D1*
X1057739Y1014025D1*
X1059739Y1013358D1*
X1061072Y1013025D1*
X1065072D1*
X1066405Y1013358D1*
X1067405Y1013692D1*
X1068405Y1014358D1*
X1070072Y1016025D1*
X1070739Y1017358D1*
Y1021025D1*
X1070405Y1022025D1*
X1068739Y1023692D1*
X1067405Y1024358D1*
X1064739Y1025025D1*
X1063072Y1025358D1*
X1061072Y1026025D1*
X1060072Y1027025D1*
Y1027358D1*
X1059739Y1027692D1*
Y1029025D1*
X1060072Y1029358D1*
Y1029692D1*
X1060739Y1030358D1*
X1062072Y1031025D1*
X1063405Y1031358D1*
X1064739D1*
X1067405Y1030692D1*
X1068072Y1030358D1*
X1069072Y1030025D1*
X1069739Y1029692D1*
X1070072Y1029358D1*
Y1032692D1*
X1069739Y1033025D1*
X1067739Y1033692D1*
X1066072Y1034025D1*
X1062405D1*
G37*
G36*
X1083739Y1031025D2*
X1083072Y1030358D1*
X1082072Y1028358D1*
X1081739Y1027358D1*
X1081405Y1026025D1*
Y1020692D1*
X1081739Y1019358D1*
X1082072Y1018358D1*
X1083072Y1016358D1*
X1084739Y1014692D1*
X1086072Y1014025D1*
X1087405Y1013692D1*
X1090405D1*
X1091739Y1014025D1*
X1092405Y1014358D1*
X1093405Y1015025D1*
X1094072Y1015692D1*
X1094382Y1015581D1*
X1094739Y1015358D1*
Y1012025D1*
X1094405Y1011692D1*
X1094072Y1010692D1*
Y1010358D1*
X1093072Y1009358D1*
X1092405Y1009025D1*
X1091405Y1008692D1*
X1089961Y1008358D1*
X1088516D1*
X1087072Y1008692D1*
X1084405Y1009358D1*
X1083405Y1009692D1*
Y1006358D1*
X1084739Y1006025D1*
X1086739Y1005692D1*
X1091072D1*
X1092405Y1006025D1*
X1093405Y1006358D1*
X1094072Y1006692D1*
X1095072Y1007358D1*
X1096072Y1008358D1*
X1096739Y1009358D1*
X1097072Y1010025D1*
X1097405Y1011025D1*
X1097739Y1012358D1*
Y1033358D1*
X1095072D1*
X1094385Y1032663D1*
X1094213Y1032717D1*
X1094072Y1033025D1*
X1093405Y1033358D1*
X1091405Y1034025D1*
X1088405D1*
X1087072Y1033692D1*
X1085739Y1033025D1*
X1084739Y1032358D1*
X1083739Y1031358D1*
Y1031025D1*
X1088405D1*
X1089628Y1031358D1*
X1090850D1*
X1092072Y1031025D1*
X1093405Y1030692D1*
X1094739Y1030025D1*
Y1018692D1*
X1094072Y1018025D1*
X1093405Y1017692D1*
X1093072Y1017358D1*
X1091072Y1016692D1*
X1089961Y1016358D1*
X1088850D1*
X1087739Y1016692D1*
X1086405Y1017358D1*
X1085405Y1018358D1*
Y1018692D1*
X1085072Y1019692D1*
X1084739Y1021358D1*
X1084405Y1021692D1*
Y1025358D1*
X1084739Y1025692D1*
X1085072Y1027358D1*
X1085739Y1028692D1*
Y1029025D1*
X1087072Y1030358D1*
X1088405Y1031025D1*
X1083739D1*
G37*
G36*
X1111072Y1034025D2*
X1110072Y1033692D1*
X1108072Y1032692D1*
X1106739Y1031692D1*
X1106385Y1031330D1*
X1106213Y1031384D1*
X1106072Y1031692D1*
Y1033358D1*
X1103072D1*
Y1013358D1*
X1106072D1*
Y1028358D1*
X1106405Y1028692D1*
X1107072Y1029025D1*
X1107739Y1029692D1*
X1109072Y1030358D1*
X1110072Y1030692D1*
X1111183Y1031025D1*
X1112294D1*
X1113405Y1030692D1*
X1114072Y1030358D1*
X1115072Y1029358D1*
Y1028692D1*
X1115405Y1026358D1*
X1115739Y1013358D1*
X1118739D1*
Y1027358D1*
X1118405Y1029358D1*
X1118072Y1030358D1*
X1117405Y1031692D1*
X1115739Y1033358D1*
X1115072Y1033692D1*
X1113739Y1034025D1*
X1111072D1*
G37*
G36*
X1136072Y1031025D2*
Y1030692D1*
X1135405Y1030025D1*
X1135072Y1029358D1*
X1134739Y1028358D1*
X1134405Y1027692D1*
X1134072Y1026025D1*
Y1020692D1*
X1134405Y1019358D1*
X1135072Y1017358D1*
X1135405Y1016692D1*
X1136072Y1015692D1*
X1137405Y1014358D1*
X1138405Y1013692D1*
X1139739Y1013025D1*
X1141072Y1012692D1*
X1144405D1*
X1145739Y1013025D1*
X1147739Y1014025D1*
X1149739Y1016025D1*
X1150405Y1017025D1*
X1150739Y1018025D1*
X1151072Y1018692D1*
X1151405Y1020025D1*
Y1026692D1*
X1151072Y1028025D1*
X1150739Y1028692D1*
X1150405Y1029692D1*
X1149739Y1030692D1*
X1147739Y1032692D1*
X1145739Y1033692D1*
X1144405Y1034025D1*
X1141072D1*
X1139072Y1033358D1*
X1138405Y1033025D1*
X1137405Y1032358D1*
X1136072Y1031025D1*
X1141072D1*
X1142183Y1031358D1*
X1143294D1*
X1144405Y1031025D1*
X1145405Y1030692D1*
X1146072Y1030358D1*
X1147072Y1029358D1*
Y1029025D1*
X1147739Y1027692D1*
X1148072Y1026358D1*
X1148405Y1026025D1*
Y1020692D1*
X1148072Y1020358D1*
X1147739Y1019025D1*
X1147072Y1017692D1*
Y1017358D1*
X1146405Y1016692D1*
X1145739Y1016358D1*
X1145405Y1016025D1*
X1144405Y1015692D1*
X1143294Y1015358D1*
X1142183D1*
X1141072Y1015692D1*
X1139739Y1016358D1*
X1138072Y1018025D1*
Y1018358D1*
X1137739Y1019358D1*
X1137405Y1021358D1*
X1137072Y1021692D1*
Y1025358D1*
X1137405Y1025692D1*
X1137739Y1027358D1*
X1138072Y1028358D1*
Y1028692D1*
X1139739Y1030358D1*
X1141072Y1031025D1*
X1136072D1*
G37*
G36*
X1178072D2*
X1177405Y1030358D1*
X1176405Y1028358D1*
X1176072Y1027358D1*
X1175739Y1026025D1*
Y1020692D1*
X1176072Y1019358D1*
X1176405Y1018358D1*
X1177405Y1016358D1*
X1179072Y1014692D1*
X1180405Y1014025D1*
X1181739Y1013692D1*
X1184739D1*
X1186072Y1014025D1*
X1186739Y1014358D1*
X1187739Y1015025D1*
X1188405Y1015692D1*
X1188716Y1015581D1*
X1189072Y1015358D1*
Y1012025D1*
X1188739Y1011692D1*
X1188405Y1010692D1*
Y1010358D1*
X1187405Y1009358D1*
X1186739Y1009025D1*
X1185739Y1008692D1*
X1184294Y1008358D1*
X1182850D1*
X1181405Y1008692D1*
X1178739Y1009358D1*
X1177739Y1009692D1*
Y1006358D1*
X1179072Y1006025D1*
X1181072Y1005692D1*
X1185405D1*
X1186739Y1006025D1*
X1187739Y1006358D1*
X1188405Y1006692D1*
X1189405Y1007358D1*
X1190405Y1008358D1*
X1191072Y1009358D1*
X1191405Y1010025D1*
X1191739Y1011025D1*
X1192072Y1012358D1*
Y1033358D1*
X1189405D1*
X1188719Y1032663D1*
X1188546Y1032717D1*
X1188405Y1033025D1*
X1187739Y1033358D1*
X1185739Y1034025D1*
X1182739D1*
X1181405Y1033692D1*
X1180072Y1033025D1*
X1179072Y1032358D1*
X1178072Y1031358D1*
Y1031025D1*
X1182739D1*
X1183961Y1031358D1*
X1185183D1*
X1186405Y1031025D1*
X1187739Y1030692D1*
X1189072Y1030025D1*
Y1018692D1*
X1188405Y1018025D1*
X1187739Y1017692D1*
X1187405Y1017358D1*
X1185405Y1016692D1*
X1184294Y1016358D1*
X1183183D1*
X1182072Y1016692D1*
X1180739Y1017358D1*
X1179739Y1018358D1*
Y1018692D1*
X1179405Y1019692D1*
X1179072Y1021358D1*
X1178739Y1021692D1*
Y1025358D1*
X1179072Y1025692D1*
X1179405Y1027358D1*
X1180072Y1028692D1*
Y1029025D1*
X1181405Y1030358D1*
X1182739Y1031025D1*
X1178072D1*
G37*
G36*
X1213739Y1034025D2*
X1212739Y1033692D1*
X1210739Y1032692D1*
X1209405Y1031692D1*
X1209052Y1031330D1*
X1208879Y1031384D1*
X1208739Y1031692D1*
Y1033358D1*
X1205739D1*
Y1013358D1*
X1208739D1*
Y1028358D1*
X1209072Y1028692D1*
X1209739Y1029025D1*
X1210405Y1029692D1*
X1211739Y1030358D1*
X1212739Y1030692D1*
X1213850Y1031025D1*
X1214961D1*
X1216072Y1030692D1*
X1216739Y1030358D1*
X1217739Y1029358D1*
Y1028692D1*
X1218072Y1026358D1*
X1218405Y1013358D1*
X1221405D1*
Y1027358D1*
X1221072Y1029358D1*
X1220739Y1030358D1*
X1220072Y1031692D1*
X1218405Y1033358D1*
X1217739Y1033692D1*
X1216405Y1034025D1*
X1213739D1*
G37*
G36*
X1074405Y1033358D2*
Y1013358D1*
X1077405D1*
Y1033358D1*
X1074405D1*
G37*
G36*
X1155405D2*
Y1013358D1*
X1158405D1*
Y1027358D1*
X1159405Y1028358D1*
X1160072Y1028692D1*
X1160405Y1029025D1*
X1162405Y1029692D1*
X1165739Y1030025D1*
Y1033358D1*
X1163405D1*
X1162405Y1033025D1*
X1161072Y1032358D1*
X1159739Y1031358D1*
X1159072Y1030692D1*
X1158719Y1030330D1*
X1158546Y1030384D1*
X1158405Y1030692D1*
Y1033358D1*
X1155405D1*
G37*
G36*
X1168739D2*
Y1013358D1*
X1171739D1*
Y1033358D1*
X1168739D1*
G37*
G36*
X1197405D2*
Y1013358D1*
X1200405D1*
Y1033358D1*
X1197405D1*
G37*
X4024501Y11887062D2*
D152*
X4029386Y11891892D1*
X4031800Y11899192D1*
Y11908906D1*
X4029385Y11916206D1*
X4024500Y11921091D1*
X4019671D1*
X4014785Y11918620D1*
X4012371Y11916206D1*
X4009956Y11911377D1*
X4005071Y11896776D1*
X4002657Y11891891D1*
X4000186Y11889476D1*
X3995357Y11887062D1*
X3988057Y11887061D1*
X3983227Y11891891D1*
X3980756Y11899190D1*
Y11908905D1*
X3983227Y11916205D1*
X3988056Y11921091D1*
X4031801Y11871376D2*
X3980757Y11871375D1*
X4014787Y11843560D2*
X4012372Y11848389D1*
X4007487Y11853275D1*
X4000187Y11855689D1*
X3995357D1*
X3988057Y11853274D1*
X3983228Y11848389D1*
X3980758Y11843559D1*
Y11836259D1*
X3983229Y11831374D1*
X3988058Y11826545D1*
X3995358Y11824074D1*
X4000187Y11824075D1*
X4007487Y11826545D1*
X4012373Y11831375D1*
X4014787Y11836260D1*
Y11843560D1*
X4031802Y11801089D2*
X3990473Y11801088D1*
X3983229Y11798673D1*
X3980759Y11793788D1*
Y11788959D1*
X4014788Y11808389D2*
Y11791374D1*
X4007490Y11694694D2*
X4012375Y11699580D1*
X4014790Y11704465D1*
Y11711709D1*
X4012375Y11716594D1*
X4007490Y11721424D1*
X4000190Y11723894D1*
X3995360D1*
X3988060Y11721423D1*
X3983231Y11716594D1*
X3980761Y11711708D1*
Y11704464D1*
X3983232Y11699579D1*
X3988061Y11694694D1*
X4014791Y11679008D2*
X3990476D1*
X3983232Y11676593D1*
X3980761Y11671707D1*
X3980762Y11664407D1*
X3983233Y11659578D1*
X3990477Y11652278D1*
X4014791Y11652279D2*
X3980762Y11652278D1*
X4031806Y11629293D2*
X3990477Y11629292D1*
X3983233Y11626877D1*
X3980763Y11621992D1*
Y11617163D1*
X4014791Y11636593D2*
X4014792Y11619578D1*
X4014793Y11589348D2*
X4012378Y11594177D1*
X4007492Y11599062D1*
X4000192Y11601477D1*
X3995363D1*
X3988063Y11599062D1*
X3983234Y11594176D1*
X3980763Y11589347D1*
Y11582047D1*
X3983234Y11577162D1*
X3988064Y11572333D1*
X3995364Y11569862D1*
X4000193D1*
X4007493Y11572333D1*
X4012378Y11577163D1*
X4014793Y11582048D1*
Y11589348D1*
Y11554176D2*
X3990479D1*
X3983235Y11551761D1*
X3980764Y11546876D1*
Y11539576D1*
X3983235Y11534746D1*
X3990479Y11527447D1*
X4014794D2*
X3980765Y11527446D1*
X4031809Y11504461D2*
X3990480Y11504460D1*
X3983236Y11502045D1*
X3980765Y11497160D1*
Y11492331D1*
X4014794Y11511761D2*
X4014795Y11494746D1*
X4163048Y12317168D2*
D156*
X4166670Y12309924D1*
X4173999Y12302596D1*
X4181243Y12298975D1*
X4195815D1*
X4203143Y12302597D1*
X4210386Y12309925D1*
X4214092Y12317169D1*
X4217714Y12328119D1*
Y12346397D1*
X4214091Y12357263D1*
X4210385Y12364591D1*
X4203141Y12371835D1*
X4195813Y12375541D1*
X4181241Y12375540D1*
X4173997Y12371834D1*
X4166669Y12364590D1*
X4163048Y12357262D1*
X4139519Y12298974D2*
X4139518Y12375539D1*
X4139519Y12339068D2*
X4128569Y12328117D1*
X4121241Y12324495D1*
X4110291D1*
X4103047Y12328117D1*
X4099425Y12339067D1*
X4099424Y12375539D1*
X4032180Y12324493D2*
X4032179Y12375537D1*
X4032180Y12335443D2*
X4039424Y12328115D1*
X4046752Y12324494D1*
X4057617D1*
X4064945Y12328116D1*
X4072189Y12335444D1*
X4075895Y12346394D1*
Y12353638D1*
X4072189Y12364588D1*
X4064945Y12371832D1*
X4057616Y12375538D1*
X4046751Y12375537D1*
X4039423Y12371831D1*
X4032179Y12364587D1*
X4008650Y12324493D2*
X4008649Y12375537D1*
X4008650Y12339065D2*
X3997700Y12328114D1*
X3990372Y12324492D1*
X3979507D1*
X3972178Y12328114D1*
X3968556Y12339064D1*
X3968555Y12375536D1*
X3968556Y12339064D2*
X3957606Y12328114D1*
X3950278Y12324491D1*
X3939413D1*
X3932085Y12328113D1*
X3928378Y12339063D1*
X3928377Y12375535D1*
X3875706Y12298968D2*
X3882950D1*
X3890278Y12302590D1*
X3893899Y12313540D1*
X3893898Y12375534D1*
X3904849Y12324490D2*
X3879327D1*
X3852175Y12346389D2*
X3808460Y12346388D1*
Y12339060D1*
X3812082Y12331732D1*
X3815704Y12328110D1*
X3823032Y12324489D1*
X3833982D1*
X3841226Y12328111D1*
X3848554Y12335439D1*
X3852175Y12346389D1*
Y12353633D1*
X3848553Y12364583D1*
X3841225Y12371827D1*
X3833981Y12375533D1*
X3823031Y12375532D1*
X3815703Y12371826D1*
X3808459Y12364582D1*
X3784931Y12324488D2*
X3784929Y12375532D1*
X3784930Y12346388D2*
X3781224Y12335438D1*
X3773981Y12328109D1*
X3766653Y12324487D1*
X3755703D1*
X3658105Y12339057D2*
X3625255Y12339056D1*
X3614389Y12335434D1*
X3610683Y12331728D1*
X3607061Y12324484D1*
X3607062Y12313534D1*
X3610684Y12306290D1*
X3614390Y12302584D1*
X3625256Y12298962D1*
X3658106Y12298963D1*
X3658104Y12375529D1*
X3528866Y12317154D2*
X3532488Y12309910D1*
X3539817Y12302582D1*
X3547061Y12298961D1*
X3561633D1*
X3568961Y12302583D1*
X3576204Y12309911D1*
X3579910Y12317155D1*
X3583532Y12328105D1*
Y12346383D1*
X3579909Y12357249D1*
X3576203Y12364577D1*
X3568959Y12371821D1*
X3561631Y12375527D1*
X3547059Y12375526D1*
X3539815Y12371820D1*
X3532487Y12364576D1*
X3528866Y12357248D1*
X3505337Y12298960D2*
X3505336Y12375525D1*
X3472486D1*
X3461536Y12371818D1*
X3457914Y12368196D1*
X3454292Y12360952D1*
Y12350002D1*
X3457914Y12342674D1*
X3461536Y12339053D1*
X3472487Y12335431D1*
X3461537Y12331725D1*
X3457915Y12328103D1*
X3454293Y12320859D1*
Y12313530D1*
X3457915Y12306287D1*
X3461537Y12302581D1*
X3472487Y12298959D1*
X3505337Y12298960D1*
Y12335432D2*
X3472487Y12335431D1*
X3356695Y12346378D2*
X3312979Y12346377D1*
X3312980Y12339049D1*
X3316602Y12331721D1*
X3320224Y12328099D1*
X3327552Y12324478D1*
X3338502D1*
X3345746Y12328100D1*
X3353074Y12335428D1*
X3356695Y12346378D1*
Y12353622D1*
X3353073Y12364572D1*
X3345745Y12371816D1*
X3338501Y12375522D1*
X3327551D1*
X3320223Y12371815D1*
X3312979Y12364571D1*
X3245735Y12298954D2*
X3245734Y12375520D1*
Y12335426D2*
X3252978Y12328098D1*
X3260307Y12324476D1*
X3271257D1*
X3278500Y12328099D1*
X3285828Y12335427D1*
X3289450Y12346377D1*
Y12353621D1*
X3285828Y12364571D1*
X3278499Y12371814D1*
X3271256Y12375520D1*
X3260306D1*
X3252978Y12371814D1*
X3245734Y12364570D1*
X3178489Y12328096D2*
X3178488Y12386468D1*
X3182110Y12397334D1*
X3185732Y12401040D1*
X3193060Y12404662D1*
X3204010Y12404663D1*
X3211254Y12401041D1*
X3178489Y12339046D2*
X3185733Y12331803D1*
X3193061Y12328097D1*
X3204011D1*
X3211255Y12331803D1*
X3218583Y12339047D1*
X3222205Y12349997D1*
Y12357325D1*
X3218582Y12368191D1*
X3211254Y12375519D1*
X3204010Y12379141D1*
X3193060D1*
X3185732Y12375518D1*
X3178489Y12368190D1*
X3154960Y12346374D2*
X3111244Y12346373D1*
Y12339045D1*
X3114866Y12331717D1*
X3118488Y12328095D1*
X3125816Y12324473D1*
X3136766Y12324474D1*
X3144010Y12328096D1*
X3151338Y12335424D1*
X3154960Y12346374D1*
X3154959Y12353618D1*
X3151337Y12364568D1*
X3144009Y12371811D1*
X3136765Y12375517D1*
X3125815D1*
X3118487Y12371811D1*
X3111243Y12364567D1*
X9024501Y11887062D2*
D152*
X9029386Y11891892D1*
X9031800Y11899192D1*
Y11908906D1*
X9029385Y11916206D1*
X9024500Y11921091D1*
X9019671D1*
X9014785Y11918620D1*
X9012371Y11916206D1*
X9009956Y11911377D1*
X9005071Y11896776D1*
X9002657Y11891891D1*
X9000186Y11889476D1*
X8995357Y11887062D1*
X8988057Y11887061D1*
X8983227Y11891891D1*
X8980756Y11899190D1*
Y11908905D1*
X8983227Y11916205D1*
X8988056Y11921091D1*
X9031801Y11871376D2*
X8980757Y11871375D1*
X9014787Y11843560D2*
X9012372Y11848389D1*
X9007487Y11853275D1*
X9000187Y11855689D1*
X8995357D1*
X8988057Y11853274D1*
X8983228Y11848389D1*
X8980758Y11843559D1*
Y11836259D1*
X8983229Y11831374D1*
X8988058Y11826545D1*
X8995358Y11824074D1*
X9000187Y11824075D1*
X9007487Y11826545D1*
X9012373Y11831375D1*
X9014787Y11836260D1*
Y11843560D1*
X9031802Y11801089D2*
X8990473Y11801088D1*
X8983229Y11798673D1*
X8980759Y11793788D1*
Y11788959D1*
X9014788Y11808389D2*
Y11791374D1*
X9007490Y11694694D2*
X9012375Y11699580D1*
X9014790Y11704465D1*
Y11711709D1*
X9012375Y11716594D1*
X9007490Y11721424D1*
X9000190Y11723894D1*
X8995360D1*
X8988060Y11721423D1*
X8983231Y11716594D1*
X8980761Y11711708D1*
Y11704464D1*
X8983232Y11699579D1*
X8988061Y11694694D1*
X9014791Y11679008D2*
X8990476D1*
X8983232Y11676593D1*
X8980761Y11671707D1*
X8980762Y11664407D1*
X8983233Y11659578D1*
X8990477Y11652278D1*
X9014791Y11652279D2*
X8980762Y11652278D1*
X9031806Y11629293D2*
X8990477Y11629292D1*
X8983233Y11626877D1*
X8980763Y11621992D1*
Y11617163D1*
X9014791Y11636593D2*
X9014792Y11619578D1*
X9014793Y11589348D2*
X9012378Y11594177D1*
X9007492Y11599062D1*
X9000192Y11601477D1*
X8995363D1*
X8988063Y11599062D1*
X8983234Y11594176D1*
X8980763Y11589347D1*
Y11582047D1*
X8983234Y11577162D1*
X8988064Y11572333D1*
X8995364Y11569862D1*
X9000193D1*
X9007493Y11572333D1*
X9012378Y11577163D1*
X9014793Y11582048D1*
Y11589348D1*
Y11554176D2*
X8990479D1*
X8983235Y11551761D1*
X8980764Y11546876D1*
Y11539576D1*
X8983235Y11534746D1*
X8990479Y11527447D1*
X9014794D2*
X8980765Y11527446D1*
X9031809Y11504461D2*
X8990480Y11504460D1*
X8983236Y11502045D1*
X8980765Y11497160D1*
Y11492331D1*
X9014794Y11511761D2*
X9014795Y11494746D1*
X9163048Y12317168D2*
D156*
X9166670Y12309924D1*
X9173999Y12302596D1*
X9181243Y12298975D1*
X9195815D1*
X9203143Y12302597D1*
X9210386Y12309925D1*
X9214092Y12317169D1*
X9217714Y12328119D1*
Y12346397D1*
X9214091Y12357263D1*
X9210385Y12364591D1*
X9203141Y12371835D1*
X9195813Y12375541D1*
X9181241Y12375540D1*
X9173997Y12371834D1*
X9166669Y12364590D1*
X9163048Y12357262D1*
X9139519Y12298974D2*
X9139518Y12375539D1*
X9139519Y12339068D2*
X9128569Y12328117D1*
X9121241Y12324495D1*
X9110291D1*
X9103047Y12328117D1*
X9099425Y12339067D1*
X9099424Y12375539D1*
X9032180Y12324493D2*
X9032179Y12375537D1*
X9032180Y12335443D2*
X9039424Y12328115D1*
X9046752Y12324494D1*
X9057617D1*
X9064945Y12328116D1*
X9072189Y12335444D1*
X9075895Y12346394D1*
Y12353638D1*
X9072189Y12364588D1*
X9064945Y12371832D1*
X9057616Y12375538D1*
X9046751Y12375537D1*
X9039423Y12371831D1*
X9032179Y12364587D1*
X9008650Y12324493D2*
X9008649Y12375537D1*
X9008650Y12339065D2*
X8997700Y12328114D1*
X8990372Y12324492D1*
X8979507D1*
X8972178Y12328114D1*
X8968556Y12339064D1*
X8968555Y12375536D1*
X8968556Y12339064D2*
X8957606Y12328114D1*
X8950278Y12324491D1*
X8939413D1*
X8932085Y12328113D1*
X8928378Y12339063D1*
X8928377Y12375535D1*
X8875706Y12298968D2*
X8882950D1*
X8890278Y12302590D1*
X8893899Y12313540D1*
X8893898Y12375534D1*
X8904849Y12324490D2*
X8879327D1*
X8852175Y12346389D2*
X8808460Y12346388D1*
Y12339060D1*
X8812082Y12331732D1*
X8815704Y12328110D1*
X8823032Y12324489D1*
X8833982D1*
X8841226Y12328111D1*
X8848554Y12335439D1*
X8852175Y12346389D1*
Y12353633D1*
X8848553Y12364583D1*
X8841225Y12371827D1*
X8833981Y12375533D1*
X8823031Y12375532D1*
X8815703Y12371826D1*
X8808459Y12364582D1*
X8784931Y12324488D2*
X8784929Y12375532D1*
X8784930Y12346388D2*
X8781224Y12335438D1*
X8773981Y12328109D1*
X8766653Y12324487D1*
X8755703D1*
X8658105Y12339057D2*
X8625255Y12339056D1*
X8614389Y12335434D1*
X8610683Y12331728D1*
X8607061Y12324484D1*
X8607062Y12313534D1*
X8610684Y12306290D1*
X8614390Y12302584D1*
X8625256Y12298962D1*
X8658106Y12298963D1*
X8658104Y12375529D1*
X8528866Y12317154D2*
X8532488Y12309910D1*
X8539817Y12302582D1*
X8547061Y12298961D1*
X8561633D1*
X8568961Y12302583D1*
X8576204Y12309911D1*
X8579910Y12317155D1*
X8583532Y12328105D1*
Y12346383D1*
X8579909Y12357249D1*
X8576203Y12364577D1*
X8568959Y12371821D1*
X8561631Y12375527D1*
X8547059Y12375526D1*
X8539815Y12371820D1*
X8532487Y12364576D1*
X8528866Y12357248D1*
X8505337Y12298960D2*
X8505336Y12375525D1*
X8472486D1*
X8461536Y12371818D1*
X8457914Y12368196D1*
X8454292Y12360952D1*
Y12350002D1*
X8457914Y12342674D1*
X8461536Y12339053D1*
X8472487Y12335431D1*
X8461537Y12331725D1*
X8457915Y12328103D1*
X8454293Y12320859D1*
Y12313530D1*
X8457915Y12306287D1*
X8461537Y12302581D1*
X8472487Y12298959D1*
X8505337Y12298960D1*
Y12335432D2*
X8472487Y12335431D1*
X8356695Y12346378D2*
X8312979Y12346377D1*
X8312980Y12339049D1*
X8316602Y12331721D1*
X8320224Y12328099D1*
X8327552Y12324478D1*
X8338502D1*
X8345746Y12328100D1*
X8353074Y12335428D1*
X8356695Y12346378D1*
Y12353622D1*
X8353073Y12364572D1*
X8345745Y12371816D1*
X8338501Y12375522D1*
X8327551D1*
X8320223Y12371815D1*
X8312979Y12364571D1*
X8245735Y12298954D2*
X8245734Y12375520D1*
Y12335426D2*
X8252978Y12328098D1*
X8260307Y12324476D1*
X8271257D1*
X8278500Y12328099D1*
X8285828Y12335427D1*
X8289450Y12346377D1*
Y12353621D1*
X8285828Y12364571D1*
X8278499Y12371814D1*
X8271256Y12375520D1*
X8260306D1*
X8252978Y12371814D1*
X8245734Y12364570D1*
X8178489Y12328096D2*
X8178488Y12386468D1*
X8182110Y12397334D1*
X8185732Y12401040D1*
X8193060Y12404662D1*
X8204010Y12404663D1*
X8211254Y12401041D1*
X8178489Y12339046D2*
X8185733Y12331803D1*
X8193061Y12328097D1*
X8204011D1*
X8211255Y12331803D1*
X8218583Y12339047D1*
X8222205Y12349997D1*
Y12357325D1*
X8218582Y12368191D1*
X8211254Y12375519D1*
X8204010Y12379141D1*
X8193060D1*
X8185732Y12375518D1*
X8178489Y12368190D1*
X8154960Y12346374D2*
X8111244Y12346373D1*
Y12339045D1*
X8114866Y12331717D1*
X8118488Y12328095D1*
X8125816Y12324473D1*
X8136766Y12324474D1*
X8144010Y12328096D1*
X8151338Y12335424D1*
X8154960Y12346374D1*
X8154959Y12353618D1*
X8151337Y12364568D1*
X8144009Y12371811D1*
X8136765Y12375517D1*
X8125815D1*
X8118487Y12371811D1*
X8111243Y12364567D1*
X14024494Y11887051D2*
D152*
X14029379Y11891880D1*
X14031794Y11899180D1*
Y11908895D1*
X14029379Y11916195D1*
X14024494Y11921080D1*
X14019665D1*
X14014779Y11918609D1*
X14012365Y11916195D1*
X14009950Y11911365D1*
X14005065Y11896765D1*
X14002650Y11891880D1*
X14000179Y11889465D1*
X13995350Y11887051D1*
X13988050D1*
X13983221Y11891880D1*
X13980750Y11899180D1*
Y11908895D1*
X13983221Y11916195D1*
X13988050Y11921080D1*
X14031794Y11871364D2*
X13980750D1*
X14014779Y11843549D2*
X14012365Y11848378D1*
X14007479Y11853264D1*
X14000179Y11855678D1*
X13995350D1*
X13988050Y11853264D1*
X13983221Y11848378D1*
X13980750Y11843549D1*
Y11836249D1*
X13983221Y11831364D1*
X13988050Y11826534D1*
X13995350Y11824064D1*
X14000179D1*
X14007479Y11826534D1*
X14012365Y11831364D1*
X14014779Y11836249D1*
Y11843549D1*
X14031794Y11801077D2*
X13990465D1*
X13983221Y11798663D1*
X13980750Y11793777D1*
Y11788948D1*
X14014779Y11808377D2*
Y11791363D1*
X14007479Y11694683D2*
X14012365Y11699569D1*
X14014779Y11704454D1*
Y11711698D1*
X14012365Y11716583D1*
X14007479Y11721412D1*
X14000179Y11723883D1*
X13995350D1*
X13988050Y11721412D1*
X13983221Y11716583D1*
X13980750Y11711698D1*
Y11704454D1*
X13983221Y11699569D1*
X13988050Y11694683D1*
X14014779Y11678997D2*
X13990465D1*
X13983221Y11676582D1*
X13980750Y11671697D1*
Y11664397D1*
X13983221Y11659568D1*
X13990465Y11652268D1*
X14014779D2*
X13980750D1*
X14031794Y11629281D2*
X13990465D1*
X13983221Y11626867D1*
X13980750Y11621981D1*
Y11617152D1*
X14014779Y11636581D2*
Y11619567D1*
Y11589337D2*
X14012365Y11594166D1*
X14007479Y11599051D1*
X14000179Y11601466D1*
X13995350D1*
X13988050Y11599051D1*
X13983221Y11594166D1*
X13980750Y11589337D1*
Y11582037D1*
X13983221Y11577151D1*
X13988050Y11572322D1*
X13995350Y11569851D1*
X14000179D1*
X14007479Y11572322D1*
X14012365Y11577151D1*
X14014779Y11582037D1*
Y11589337D1*
Y11554165D2*
X13990465D1*
X13983221Y11551750D1*
X13980750Y11546865D1*
Y11539565D1*
X13983221Y11534736D1*
X13990465Y11527436D1*
X14014779D2*
X13980750D1*
X14031794Y11504449D2*
X13990465D1*
X13983221Y11502035D1*
X13980750Y11497149D1*
Y11492320D1*
X14014779Y11511749D2*
Y11494735D1*
X14163051Y12317153D2*
D156*
X14166673Y12309910D1*
X14174001Y12302582D1*
X14181245Y12298960D1*
X14195817D1*
X14203145Y12302582D1*
X14210389Y12309910D1*
X14214095Y12317153D1*
X14217717Y12328103D1*
Y12346382D1*
X14214095Y12357247D1*
X14210389Y12364575D1*
X14203145Y12371819D1*
X14195817Y12375525D1*
X14181245D1*
X14174001Y12371819D1*
X14166673Y12364575D1*
X14163051Y12357247D1*
X14139522Y12298960D2*
Y12375525D1*
Y12339053D2*
X14128572Y12328103D1*
X14121244Y12324482D1*
X14110294D1*
X14103050Y12328103D1*
X14099428Y12339053D1*
Y12375525D1*
X14032183Y12324482D2*
Y12375525D1*
Y12335432D2*
X14039427Y12328103D1*
X14046755Y12324482D1*
X14057621D1*
X14064949Y12328103D1*
X14072192Y12335432D1*
X14075899Y12346382D1*
Y12353625D1*
X14072192Y12364575D1*
X14064949Y12371819D1*
X14057621Y12375525D1*
X14046755D1*
X14039427Y12371819D1*
X14032183Y12364575D1*
X14008653Y12324482D2*
Y12375525D1*
Y12339053D2*
X13997703Y12328103D1*
X13990375Y12324482D1*
X13979510D1*
X13972182Y12328103D1*
X13968560Y12339053D1*
Y12375525D1*
Y12339053D2*
X13957610Y12328103D1*
X13950282Y12324482D1*
X13939416D1*
X13932088Y12328103D1*
X13928382Y12339053D1*
Y12375525D1*
X13875708Y12298960D2*
X13882952D1*
X13890280Y12302582D1*
X13893902Y12313532D1*
Y12375525D1*
X13904852Y12324482D2*
X13879330D1*
X13852179Y12346382D2*
X13808463D1*
Y12339053D1*
X13812085Y12331725D1*
X13815707Y12328103D1*
X13823035Y12324482D1*
X13833985D1*
X13841229Y12328103D1*
X13848557Y12335432D1*
X13852179Y12346382D1*
Y12353625D1*
X13848557Y12364575D1*
X13841229Y12371819D1*
X13833985Y12375525D1*
X13823035D1*
X13815707Y12371819D1*
X13808463Y12364575D1*
X13784934Y12324482D2*
Y12375525D1*
Y12346382D2*
X13781228Y12335432D1*
X13773984Y12328103D1*
X13766656Y12324482D1*
X13755706D1*
X13658108Y12339053D2*
X13625258D1*
X13614393Y12335432D1*
X13610686Y12331725D1*
X13607064Y12324482D1*
Y12313532D1*
X13610686Y12306288D1*
X13614393Y12302582D1*
X13625258Y12298960D1*
X13658108D1*
Y12375525D1*
X13528869Y12317153D2*
X13532491Y12309910D1*
X13539819Y12302582D1*
X13547063Y12298960D1*
X13561635D1*
X13568963Y12302582D1*
X13576207Y12309910D1*
X13579913Y12317153D1*
X13583535Y12328103D1*
Y12346382D1*
X13579913Y12357247D1*
X13576207Y12364575D1*
X13568963Y12371819D1*
X13561635Y12375525D1*
X13547063D1*
X13539819Y12371819D1*
X13532491Y12364575D1*
X13528869Y12357247D1*
X13505340Y12298960D2*
Y12375525D1*
X13472490D1*
X13461540Y12371819D1*
X13457918Y12368197D1*
X13454296Y12360953D1*
Y12350003D1*
X13457918Y12342675D1*
X13461540Y12339053D1*
X13472490Y12335432D1*
X13461540Y12331725D1*
X13457918Y12328103D1*
X13454296Y12320860D1*
Y12313532D1*
X13457918Y12306288D1*
X13461540Y12302582D1*
X13472490Y12298960D1*
X13505340D1*
Y12335432D2*
X13472490D1*
X13356699Y12346382D2*
X13312983D1*
Y12339053D1*
X13316605Y12331725D1*
X13320227Y12328103D1*
X13327555Y12324482D1*
X13338505D1*
X13345749Y12328103D1*
X13353077Y12335432D1*
X13356699Y12346382D1*
Y12353625D1*
X13353077Y12364575D1*
X13345749Y12371819D1*
X13338505Y12375525D1*
X13327555D1*
X13320227Y12371819D1*
X13312983Y12364575D1*
X13245738Y12298960D2*
Y12375525D1*
Y12335432D2*
X13252982Y12328103D1*
X13260310Y12324482D1*
X13271260D1*
X13278504Y12328103D1*
X13285832Y12335432D1*
X13289454Y12346382D1*
Y12353625D1*
X13285832Y12364575D1*
X13278504Y12371819D1*
X13271260Y12375525D1*
X13260310D1*
X13252982Y12371819D1*
X13245738Y12364575D1*
X13178493Y12328103D2*
Y12386475D1*
X13182115Y12397341D1*
X13185736Y12401047D1*
X13193065Y12404669D1*
X13204015D1*
X13211258Y12401047D1*
X13178493Y12339053D2*
X13185736Y12331810D1*
X13193065Y12328103D1*
X13204015D1*
X13211258Y12331810D1*
X13218586Y12339053D1*
X13222208Y12350003D1*
Y12357332D1*
X13218586Y12368197D1*
X13211258Y12375525D1*
X13204015Y12379147D1*
X13193065D1*
X13185736Y12375525D1*
X13178493Y12368197D1*
X13154963Y12346382D2*
X13111247D1*
Y12339053D1*
X13114869Y12331725D1*
X13118491Y12328103D1*
X13125819Y12324482D1*
X13136769D1*
X13144013Y12328103D1*
X13151341Y12335432D1*
X13154963Y12346382D1*
Y12353625D1*
X13151341Y12364575D1*
X13144013Y12371819D1*
X13136769Y12375525D1*
X13125819D1*
X13118491Y12371819D1*
X13111247Y12364575D1*
X19024494Y11887051D2*
D152*
X19029379Y11891880D1*
X19031794Y11899180D1*
Y11908895D1*
X19029379Y11916195D1*
X19024494Y11921080D1*
X19019665D1*
X19014779Y11918609D1*
X19012365Y11916195D1*
X19009950Y11911365D1*
X19005065Y11896765D1*
X19002650Y11891880D1*
X19000179Y11889465D1*
X18995350Y11887051D1*
X18988050D1*
X18983221Y11891880D1*
X18980750Y11899180D1*
Y11908895D1*
X18983221Y11916195D1*
X18988050Y11921080D1*
X19031794Y11871364D2*
X18980750D1*
X19014779Y11843549D2*
X19012365Y11848378D1*
X19007479Y11853264D1*
X19000179Y11855678D1*
X18995350D1*
X18988050Y11853264D1*
X18983221Y11848378D1*
X18980750Y11843549D1*
Y11836249D1*
X18983221Y11831364D1*
X18988050Y11826534D1*
X18995350Y11824064D1*
X19000179D1*
X19007479Y11826534D1*
X19012365Y11831364D1*
X19014779Y11836249D1*
Y11843549D1*
X19031794Y11801077D2*
X18990465D1*
X18983221Y11798663D1*
X18980750Y11793777D1*
Y11788948D1*
X19014779Y11808377D2*
Y11791363D1*
X19007479Y11694683D2*
X19012365Y11699569D1*
X19014779Y11704454D1*
Y11711698D1*
X19012365Y11716583D1*
X19007479Y11721412D1*
X19000179Y11723883D1*
X18995350D1*
X18988050Y11721412D1*
X18983221Y11716583D1*
X18980750Y11711698D1*
Y11704454D1*
X18983221Y11699569D1*
X18988050Y11694683D1*
X19014779Y11678997D2*
X18990465D1*
X18983221Y11676582D1*
X18980750Y11671697D1*
Y11664397D1*
X18983221Y11659568D1*
X18990465Y11652268D1*
X19014779D2*
X18980750D1*
X19031794Y11629281D2*
X18990465D1*
X18983221Y11626867D1*
X18980750Y11621981D1*
Y11617152D1*
X19014779Y11636581D2*
Y11619567D1*
Y11589337D2*
X19012365Y11594166D1*
X19007479Y11599051D1*
X19000179Y11601466D1*
X18995350D1*
X18988050Y11599051D1*
X18983221Y11594166D1*
X18980750Y11589337D1*
Y11582037D1*
X18983221Y11577151D1*
X18988050Y11572322D1*
X18995350Y11569851D1*
X19000179D1*
X19007479Y11572322D1*
X19012365Y11577151D1*
X19014779Y11582037D1*
Y11589337D1*
Y11554165D2*
X18990465D1*
X18983221Y11551750D1*
X18980750Y11546865D1*
Y11539565D1*
X18983221Y11534736D1*
X18990465Y11527436D1*
X19014779D2*
X18980750D1*
X19031794Y11504449D2*
X18990465D1*
X18983221Y11502035D1*
X18980750Y11497149D1*
Y11492320D1*
X19014779Y11511749D2*
Y11494735D1*
X19163051Y12317153D2*
D156*
X19166673Y12309910D1*
X19174001Y12302582D1*
X19181245Y12298960D1*
X19195817D1*
X19203145Y12302582D1*
X19210389Y12309910D1*
X19214095Y12317153D1*
X19217717Y12328103D1*
Y12346382D1*
X19214095Y12357247D1*
X19210389Y12364575D1*
X19203145Y12371819D1*
X19195817Y12375525D1*
X19181245D1*
X19174001Y12371819D1*
X19166673Y12364575D1*
X19163051Y12357247D1*
X19139522Y12298960D2*
Y12375525D1*
Y12339053D2*
X19128572Y12328103D1*
X19121244Y12324482D1*
X19110294D1*
X19103050Y12328103D1*
X19099428Y12339053D1*
Y12375525D1*
X19032183Y12324482D2*
Y12375525D1*
Y12335432D2*
X19039427Y12328103D1*
X19046755Y12324482D1*
X19057621D1*
X19064949Y12328103D1*
X19072192Y12335432D1*
X19075899Y12346382D1*
Y12353625D1*
X19072192Y12364575D1*
X19064949Y12371819D1*
X19057621Y12375525D1*
X19046755D1*
X19039427Y12371819D1*
X19032183Y12364575D1*
X19008653Y12324482D2*
Y12375525D1*
Y12339053D2*
X18997703Y12328103D1*
X18990375Y12324482D1*
X18979510D1*
X18972182Y12328103D1*
X18968560Y12339053D1*
Y12375525D1*
Y12339053D2*
X18957610Y12328103D1*
X18950282Y12324482D1*
X18939416D1*
X18932088Y12328103D1*
X18928382Y12339053D1*
Y12375525D1*
X18875708Y12298960D2*
X18882952D1*
X18890280Y12302582D1*
X18893902Y12313532D1*
Y12375525D1*
X18904852Y12324482D2*
X18879330D1*
X18852179Y12346382D2*
X18808463D1*
Y12339053D1*
X18812085Y12331725D1*
X18815707Y12328103D1*
X18823035Y12324482D1*
X18833985D1*
X18841229Y12328103D1*
X18848557Y12335432D1*
X18852179Y12346382D1*
Y12353625D1*
X18848557Y12364575D1*
X18841229Y12371819D1*
X18833985Y12375525D1*
X18823035D1*
X18815707Y12371819D1*
X18808463Y12364575D1*
X18784934Y12324482D2*
Y12375525D1*
Y12346382D2*
X18781228Y12335432D1*
X18773984Y12328103D1*
X18766656Y12324482D1*
X18755706D1*
X18658108Y12339053D2*
X18625258D1*
X18614393Y12335432D1*
X18610686Y12331725D1*
X18607064Y12324482D1*
Y12313532D1*
X18610686Y12306288D1*
X18614393Y12302582D1*
X18625258Y12298960D1*
X18658108D1*
Y12375525D1*
X18528869Y12317153D2*
X18532491Y12309910D1*
X18539819Y12302582D1*
X18547063Y12298960D1*
X18561635D1*
X18568963Y12302582D1*
X18576207Y12309910D1*
X18579913Y12317153D1*
X18583535Y12328103D1*
Y12346382D1*
X18579913Y12357247D1*
X18576207Y12364575D1*
X18568963Y12371819D1*
X18561635Y12375525D1*
X18547063D1*
X18539819Y12371819D1*
X18532491Y12364575D1*
X18528869Y12357247D1*
X18505340Y12298960D2*
Y12375525D1*
X18472490D1*
X18461540Y12371819D1*
X18457918Y12368197D1*
X18454296Y12360953D1*
Y12350003D1*
X18457918Y12342675D1*
X18461540Y12339053D1*
X18472490Y12335432D1*
X18461540Y12331725D1*
X18457918Y12328103D1*
X18454296Y12320860D1*
Y12313532D1*
X18457918Y12306288D1*
X18461540Y12302582D1*
X18472490Y12298960D1*
X18505340D1*
Y12335432D2*
X18472490D1*
X18356699Y12346382D2*
X18312983D1*
Y12339053D1*
X18316605Y12331725D1*
X18320227Y12328103D1*
X18327555Y12324482D1*
X18338505D1*
X18345749Y12328103D1*
X18353077Y12335432D1*
X18356699Y12346382D1*
Y12353625D1*
X18353077Y12364575D1*
X18345749Y12371819D1*
X18338505Y12375525D1*
X18327555D1*
X18320227Y12371819D1*
X18312983Y12364575D1*
X18245738Y12298960D2*
Y12375525D1*
Y12335432D2*
X18252982Y12328103D1*
X18260310Y12324482D1*
X18271260D1*
X18278504Y12328103D1*
X18285832Y12335432D1*
X18289454Y12346382D1*
Y12353625D1*
X18285832Y12364575D1*
X18278504Y12371819D1*
X18271260Y12375525D1*
X18260310D1*
X18252982Y12371819D1*
X18245738Y12364575D1*
X18178493Y12328103D2*
Y12386475D1*
X18182115Y12397341D1*
X18185736Y12401047D1*
X18193065Y12404669D1*
X18204015D1*
X18211258Y12401047D1*
X18178493Y12339053D2*
X18185736Y12331810D1*
X18193065Y12328103D1*
X18204015D1*
X18211258Y12331810D1*
X18218586Y12339053D1*
X18222208Y12350003D1*
Y12357332D1*
X18218586Y12368197D1*
X18211258Y12375525D1*
X18204015Y12379147D1*
X18193065D1*
X18185736Y12375525D1*
X18178493Y12368197D1*
X18154963Y12346382D2*
X18111247D1*
Y12339053D1*
X18114869Y12331725D1*
X18118491Y12328103D1*
X18125819Y12324482D1*
X18136769D1*
X18144013Y12328103D1*
X18151341Y12335432D1*
X18154963Y12346382D1*
Y12353625D1*
X18151341Y12364575D1*
X18144013Y12371819D1*
X18136769Y12375525D1*
X18125819D1*
X18118491Y12371819D1*
X18111247Y12364575D1*
M02*
