G04 DipTrace 5.2.0.4*
G04 TopDimension.gbr*
%MOMM*%
G04 #@! TF.FileFunction,Drawing,Top*
G04 #@! TF.Part,Single*
%ADD15C,0.035*%
%ADD157C,0.15686*%
%FSLAX35Y35*%
G04*
G71*
G90*
G75*
G01*
G04 TopDimension*
%LPD*%
X21001099Y12000001D2*
D15*
X22351099D1*
X20591099Y1000001D2*
X22351099D1*
X22301099Y6500001D2*
Y11900001D1*
G36*
Y12000001D2*
X22321099Y11900001D1*
X22281099D1*
X22301099Y12000001D1*
G37*
Y6500001D2*
D15*
Y1100001D1*
G36*
Y1000001D2*
X22281099Y1100001D1*
X22321099D1*
X22301099Y1000001D1*
G37*
X1001099Y1440001D2*
D15*
Y-149999D1*
X21001099Y1409995D2*
Y-149999D1*
X11001099Y-99999D2*
X1101099D1*
G36*
X1001099D2*
X1101099Y-79999D1*
Y-119999D1*
X1001099Y-99999D1*
G37*
X11001099D2*
D15*
X20901099D1*
G36*
X21001099D2*
X20901099Y-119999D1*
Y-79999D1*
X21001099Y-99999D1*
G37*
X8501099Y6350001D2*
D15*
Y13750001D1*
X6251099Y5900001D2*
Y13750001D1*
X7376099Y13700001D2*
X8401099D1*
G36*
X8501099D2*
X8401099Y13680001D1*
Y13720001D1*
X8501099Y13700001D1*
G37*
X7376099D2*
D15*
X6351099D1*
G36*
X6251099D2*
X6351099Y13720001D1*
Y13680001D1*
X6251099Y13700001D1*
G37*
Y5900001D2*
D15*
X-548901D1*
X7001099Y9750001D2*
X-548901D1*
X-498901Y7825001D2*
Y6000001D1*
G36*
Y5900001D2*
X-518901Y6000001D1*
X-478901D1*
X-498901Y5900001D1*
G37*
Y7825001D2*
D15*
Y9650001D1*
G36*
Y9750001D2*
X-478901Y9650001D1*
X-518901D1*
X-498901Y9750001D1*
G37*
X6251099Y5900001D2*
D15*
Y13150001D1*
X7001099Y9750001D2*
Y13150001D1*
X6626099Y13100001D2*
X6351099D1*
G36*
X6251099D2*
X6351099Y13120001D1*
Y13080001D1*
X6251099Y13100001D1*
G37*
X6626099D2*
D15*
X6901099D1*
G36*
X7001099D2*
X6901099Y13080001D1*
Y13120001D1*
X7001099Y13100001D1*
G37*
X6251099Y5900001D2*
D15*
X-248901D1*
X8501099Y6350001D2*
X-248901D1*
X-198901D2*
Y5900001D1*
Y6500001D2*
Y6450001D1*
G36*
Y6350001D2*
X-218901Y6450001D1*
X-178901D1*
X-198901Y6350001D1*
G37*
Y5750001D2*
D15*
Y5800001D1*
G36*
Y5900001D2*
X-178901Y5800001D1*
X-218901D1*
X-198901Y5900001D1*
G37*
X15751099D2*
D15*
X21651099D1*
X15001099Y9750001D2*
X21651099D1*
X21601099Y7825001D2*
Y6000001D1*
G36*
Y5900001D2*
X21581099Y6000001D1*
X21621099D1*
X21601099Y5900001D1*
G37*
Y7825001D2*
D15*
Y9650001D1*
G36*
Y9750001D2*
X21621099Y9650001D1*
X21581099D1*
X21601099Y9750001D1*
G37*
X15001099D2*
D15*
Y13150001D1*
X15751099Y5900001D2*
Y13150001D1*
X15376099Y13100001D2*
X15101099D1*
G36*
X15001099D2*
X15101099Y13120001D1*
Y13080001D1*
X15001099Y13100001D1*
G37*
X15376099D2*
D15*
X15651099D1*
G36*
X15751099D2*
X15651099Y13080001D1*
Y13120001D1*
X15751099Y13100001D1*
G37*
X13501099Y6350001D2*
D15*
X21251099D1*
X15751099Y5900001D2*
X21251099D1*
X21201099Y6350001D2*
Y5900001D1*
Y6500001D2*
Y6450001D1*
G36*
Y6350001D2*
X21181099Y6450001D1*
X21221099D1*
X21201099Y6350001D1*
G37*
Y5750001D2*
D15*
Y5800001D1*
G36*
Y5900001D2*
X21221099Y5800001D1*
X21181099D1*
X21201099Y5900001D1*
G37*
X15751099D2*
D15*
Y13750001D1*
X13501099Y6350001D2*
Y13750001D1*
X14626099Y13700001D2*
X15651099D1*
G36*
X15751099D2*
X15651099Y13680001D1*
Y13720001D1*
X15751099Y13700001D1*
G37*
X14626099D2*
D15*
X13601099D1*
G36*
X13501099D2*
X13601099Y13720001D1*
Y13680001D1*
X13501099Y13700001D1*
G37*
Y6350001D2*
D15*
X21351099D1*
X12501099Y7500001D2*
X21351099D1*
X21301099Y6925001D2*
Y6450001D1*
G36*
Y6350001D2*
X21281099Y6450001D1*
X21321099D1*
X21301099Y6350001D1*
G37*
Y6925001D2*
D15*
Y7400001D1*
G36*
Y7500001D2*
X21321099Y7400001D1*
X21281099D1*
X21301099Y7500001D1*
G37*
X13501099Y6350001D2*
D15*
Y13750001D1*
X12501099Y7500001D2*
Y13750001D1*
X13001099Y13700001D2*
X13401099D1*
G36*
X13501099D2*
X13401099Y13680001D1*
Y13720001D1*
X13501099Y13700001D1*
G37*
X13001099D2*
D15*
X12601099D1*
G36*
X12501099D2*
X12601099Y13720001D1*
Y13680001D1*
X12501099Y13700001D1*
G37*
X9501099Y7500001D2*
D15*
Y13750001D1*
X8501099Y6350001D2*
Y13750001D1*
X9001099Y13700001D2*
X9401099D1*
G36*
X9501099D2*
X9401099Y13680001D1*
Y13720001D1*
X9501099Y13700001D1*
G37*
X9001099D2*
D15*
X8601099D1*
G36*
X8501099D2*
X8601099Y13720001D1*
Y13680001D1*
X8501099Y13700001D1*
G37*
X1001099Y1000001D2*
D15*
Y250001D1*
X11001099Y5500001D2*
Y250001D1*
X6001099Y300001D2*
X1101099D1*
G36*
X1001099D2*
X1101099Y320001D1*
Y280001D1*
X1001099Y300001D1*
G37*
X6001099D2*
D15*
X10901099D1*
G36*
X11001099D2*
X10901099Y280001D1*
Y320001D1*
X11001099Y300001D1*
G37*
Y5500001D2*
D15*
Y250001D1*
X21001099Y1409995D2*
Y250001D1*
X16001099Y300001D2*
X11101099D1*
G36*
X11001099D2*
X11101099Y320001D1*
Y280001D1*
X11001099Y300001D1*
G37*
X16001099D2*
D15*
X20901099D1*
G36*
X21001099D2*
X20901099Y280001D1*
Y320001D1*
X21001099Y300001D1*
G37*
X11001099Y6250001D2*
D15*
X651099D1*
X1001099Y1000001D2*
X651099D1*
X701099Y3625001D2*
Y6150001D1*
G36*
Y6250001D2*
X721099Y6150001D1*
X681099D1*
X701099Y6250001D1*
G37*
Y3625001D2*
D15*
Y1100001D1*
G36*
Y1000001D2*
X681099Y1100001D1*
X721099D1*
X701099Y1000001D1*
G37*
X11001099Y6250001D2*
D15*
X651099D1*
X11001099Y10750001D2*
X651099D1*
X701099Y8500001D2*
Y6350001D1*
G36*
Y6250001D2*
X681099Y6350001D1*
X721099D1*
X701099Y6250001D1*
G37*
Y8500001D2*
D15*
Y10650001D1*
G36*
Y10750001D2*
X721099Y10650001D1*
X681099D1*
X701099Y10750001D1*
G37*
X11001099D2*
D15*
X651099D1*
X1001099Y12000001D2*
X651099D1*
X701099Y11375001D2*
Y10850001D1*
G36*
Y10750001D2*
X681099Y10850001D1*
X721099D1*
X701099Y10750001D1*
G37*
Y11375001D2*
D15*
Y11900001D1*
G36*
Y12000001D2*
X721099Y11900001D1*
X681099D1*
X701099Y12000001D1*
G37*
X1001099Y1000001D2*
D15*
X351099D1*
X9501099Y7500001D2*
X351099D1*
X401099Y4250001D2*
Y1100001D1*
G36*
Y1000001D2*
X381099Y1100001D1*
X421099D1*
X401099Y1000001D1*
G37*
Y4250001D2*
D15*
Y7400001D1*
G36*
Y7500001D2*
X421099Y7400001D1*
X381099D1*
X401099Y7500001D1*
G37*
X1001099Y12000001D2*
D15*
X351099D1*
X9501099Y7500001D2*
X351099D1*
X401099Y9750001D2*
Y11900001D1*
G36*
Y12000001D2*
X421099Y11900001D1*
X381099D1*
X401099Y12000001D1*
G37*
Y9750001D2*
D15*
Y7600001D1*
G36*
Y7500001D2*
X381099Y7600001D1*
X421099D1*
X401099Y7500001D1*
G37*
X6251099Y5900001D2*
D15*
X51099D1*
X6251099Y11100001D2*
X51099D1*
X101099Y8500001D2*
Y6000001D1*
G36*
Y5900001D2*
X81099Y6000001D1*
X121099D1*
X101099Y5900001D1*
G37*
Y8500001D2*
D15*
Y11000001D1*
G36*
Y11100001D2*
X121099Y11000001D1*
X81099D1*
X101099Y11100001D1*
G37*
X6251099Y5900001D2*
D15*
Y13450001D1*
X15751099Y5905001D2*
Y13450001D1*
X11001099Y13400001D2*
X6351099D1*
G36*
X6251099D2*
X6351099Y13420001D1*
Y13380001D1*
X6251099Y13400001D1*
G37*
X11001099D2*
D15*
X15651099D1*
G36*
X15751099D2*
X15651099Y13380001D1*
Y13420001D1*
X15751099Y13400001D1*
G37*
X1001103Y11979945D2*
D15*
Y14050001D1*
X6001099Y12000001D2*
Y14050001D1*
X3501101Y14000001D2*
X1101103D1*
G36*
X1001103D2*
X1101103Y14020001D1*
Y13980001D1*
X1001103Y14000001D1*
G37*
X3501101D2*
D15*
X5901099D1*
G36*
X6001099D2*
X5901099Y13980001D1*
Y14020001D1*
X6001099Y14000001D1*
G37*
Y12000001D2*
D15*
Y14050001D1*
X11001099Y12000001D2*
Y14050001D1*
X8501099Y14000001D2*
X6101099D1*
G36*
X6001099D2*
X6101099Y14020001D1*
Y13980001D1*
X6001099Y14000001D1*
G37*
X8501099D2*
D15*
X10901099D1*
G36*
X11001099D2*
X10901099Y13980001D1*
Y14020001D1*
X11001099Y14000001D1*
G37*
X11001103Y11980058D2*
D15*
Y14050001D1*
X16001099Y11980001D2*
Y14050001D1*
X13501101Y14000001D2*
X11101103D1*
G36*
X11001103D2*
X11101103Y14020001D1*
Y13980001D1*
X11001103Y14000001D1*
G37*
X13501101D2*
D15*
X15901099D1*
G36*
X16001099D2*
X15901099Y13980001D1*
Y14020001D1*
X16001099Y14000001D1*
G37*
Y11980001D2*
D15*
Y14050001D1*
X21001099Y11980001D2*
Y14050001D1*
X18501099Y14000001D2*
X16101099D1*
G36*
X16001099D2*
X16101099Y14020001D1*
Y13980001D1*
X16001099Y14000001D1*
G37*
X18501099D2*
D15*
X20901099D1*
G36*
X21001099D2*
X20901099Y13980001D1*
Y14020001D1*
X21001099Y14000001D1*
G37*
X9501099Y7500001D2*
D15*
Y13750001D1*
X12501099Y7500001D2*
Y13750001D1*
X11001099Y13700001D2*
X9601099D1*
G36*
X9501099D2*
X9601099Y13720001D1*
Y13680001D1*
X9501099Y13700001D1*
G37*
X11001099D2*
D15*
X12401099D1*
G36*
X12501099D2*
X12401099Y13680001D1*
Y13720001D1*
X12501099Y13700001D1*
G37*
X1411099Y1410001D2*
D15*
Y550001D1*
X20591099Y1410001D2*
Y550001D1*
X11001099Y600001D2*
X1511099D1*
G36*
X1411099D2*
X1511099Y620001D1*
Y580001D1*
X1411099Y600001D1*
G37*
X11001099D2*
D15*
X20491099D1*
G36*
X20591099D2*
X20491099Y580001D1*
Y620001D1*
X20591099Y600001D1*
G37*
Y1410001D2*
D15*
Y650001D1*
X21001099Y1400001D2*
Y650001D1*
X20591099Y700001D2*
X21001099D1*
X20441099D2*
X20491099D1*
G36*
X20591099D2*
X20491099Y680001D1*
Y720001D1*
X20591099Y700001D1*
G37*
X21151099D2*
D15*
X21101099D1*
G36*
X21001099D2*
X21101099Y720001D1*
Y680001D1*
X21001099Y700001D1*
G37*
X1411099Y1410001D2*
D15*
Y650001D1*
X1001099Y1400001D2*
Y650001D1*
Y700001D2*
X1411099D1*
X851099D2*
X901099D1*
G36*
X1001099D2*
X901099Y680001D1*
Y720001D1*
X1001099Y700001D1*
G37*
X1561099D2*
D15*
X1511099D1*
G36*
X1411099D2*
X1511099Y720001D1*
Y680001D1*
X1411099Y700001D1*
G37*
X20591099Y1410001D2*
D15*
X21951099D1*
X20591099Y9590001D2*
X21951099D1*
X21901099Y5500001D2*
Y1510001D1*
G36*
Y1410001D2*
X21881099Y1510001D1*
X21921099D1*
X21901099Y1410001D1*
G37*
Y5500001D2*
D15*
Y9490001D1*
G36*
Y9590001D2*
X21921099Y9490001D1*
X21881099D1*
X21901099Y9590001D1*
G37*
X20591099Y1000001D2*
D15*
X21851099D1*
X20591099Y1410001D2*
X21851099D1*
X21801099D2*
Y1000001D1*
Y1560001D2*
Y1510001D1*
G36*
Y1410001D2*
X21781099Y1510001D1*
X21821099D1*
X21801099Y1410001D1*
G37*
Y850001D2*
D15*
Y900001D1*
G36*
Y1000001D2*
X21821099Y900001D1*
X21781099D1*
X21801099Y1000001D1*
G37*
X20591099Y9590001D2*
D15*
X21951099D1*
X21001099Y12000001D2*
X21951099D1*
X21901099Y10795001D2*
Y9690001D1*
G36*
Y9590001D2*
X21881099Y9690001D1*
X21921099D1*
X21901099Y9590001D1*
G37*
Y10795001D2*
D15*
Y11900001D1*
G36*
Y12000001D2*
X21921099Y11900001D1*
X21881099D1*
X21901099Y12000001D1*
G37*
X1001099D2*
D15*
Y13250001D1*
X1851109Y11679965D2*
Y13250001D1*
X1426104Y13200001D2*
X1101099D1*
G36*
X1001099D2*
X1101099Y13220001D1*
Y13180001D1*
X1001099Y13200001D1*
G37*
X1426104D2*
D15*
X1751109D1*
G36*
X1851109D2*
X1751109Y13180001D1*
Y13220001D1*
X1851109Y13200001D1*
G37*
X6001099Y12000001D2*
D15*
Y13250001D1*
X5151109Y11680038D2*
Y13250001D1*
X5576104Y13200001D2*
X5901099D1*
G36*
X6001099D2*
X5901099Y13180001D1*
Y13220001D1*
X6001099Y13200001D1*
G37*
X5576104D2*
D15*
X5251109D1*
G36*
X5151109D2*
X5251109Y13220001D1*
Y13180001D1*
X5151109Y13200001D1*
G37*
X3851109Y11680008D2*
D15*
Y13250001D1*
X1851109Y11679965D2*
Y13250001D1*
X2851109Y13200001D2*
X3751109D1*
G36*
X3851109D2*
X3751109Y13180001D1*
Y13220001D1*
X3851109Y13200001D1*
G37*
X2851109D2*
D15*
X1951109D1*
G36*
X1851109D2*
X1951109Y13220001D1*
Y13180001D1*
X1851109Y13200001D1*
G37*
X5151109Y11680038D2*
D15*
Y13250001D1*
X4151109Y11680015D2*
Y13250001D1*
X4651109Y13200001D2*
X5051109D1*
G36*
X5151109D2*
X5051109Y13180001D1*
Y13220001D1*
X5151109Y13200001D1*
G37*
X4651109D2*
D15*
X4251109D1*
G36*
X4151109D2*
X4251109Y13220001D1*
Y13180001D1*
X4151109Y13200001D1*
G37*
X3906116Y11495011D2*
D15*
Y12850001D1*
X4096116Y11495015D2*
Y12850001D1*
X3906116Y12800001D2*
X4096116D1*
X3756116D2*
X3806116D1*
G36*
X3906116D2*
X3806116Y12780001D1*
Y12820001D1*
X3906116Y12800001D1*
G37*
X4246116D2*
D15*
X4196116D1*
G36*
X4096116D2*
X4196116Y12820001D1*
Y12780001D1*
X4096116Y12800001D1*
G37*
X4356232D2*
D15*
X4096116D1*
X3851109Y11680008D2*
Y13150001D1*
X4151109Y11680015D2*
Y13150001D1*
X3851109Y13100001D2*
X4151109D1*
X3701109D2*
X3751109D1*
G36*
X3851109D2*
X3751109Y13080001D1*
Y13120001D1*
X3851109Y13100001D1*
G37*
X4301109D2*
D15*
X4251109D1*
G36*
X4151109D2*
X4251109Y13120001D1*
Y13080001D1*
X4151109Y13100001D1*
G37*
X3906116Y11495011D2*
D15*
X51099D1*
X1001099Y12000001D2*
X51099D1*
X101099D2*
Y11495011D1*
Y12150001D2*
Y12100001D1*
G36*
Y12000001D2*
X81099Y12100001D1*
X121099D1*
X101099Y12000001D1*
G37*
Y11345011D2*
D15*
Y11395011D1*
G36*
Y11495011D2*
X121099Y11395011D1*
X81099D1*
X101099Y11495011D1*
G37*
X22414661Y6581931D2*
D157*
X22419602Y6572160D1*
X22434090Y6557560D1*
X22332115D1*
X22414661Y6526188D2*
X22419602Y6516417D1*
X22434090Y6501817D1*
X22332115D1*
X22434090Y6441244D2*
X22429261Y6455844D1*
X22414661Y6465615D1*
X22390402Y6470444D1*
X22375802D1*
X22351544Y6465615D1*
X22336944Y6455844D1*
X22332115Y6441244D1*
Y6431586D1*
X22336944Y6416986D1*
X22351544Y6407327D1*
X22375802Y6402386D1*
X22390402D1*
X22414661Y6407327D1*
X22429261Y6416986D1*
X22434090Y6431586D1*
Y6441244D1*
X22414661Y6407327D2*
X22351544Y6465615D1*
X10880424Y8734D2*
Y13563D1*
X10885253Y23334D1*
X10890082Y28163D1*
X10899853Y32992D1*
X10919282D1*
X10928941Y28163D1*
X10933770Y23334D1*
X10938712Y13563D1*
Y3905D1*
X10933770Y-5866D1*
X10924112Y-20354D1*
X10875482Y-68983D1*
X10943541D1*
X11004113Y32992D2*
X10989513Y28163D1*
X10979743Y13563D1*
X10974913Y-10695D1*
Y-25295D1*
X10979743Y-49554D1*
X10989513Y-64154D1*
X11004113Y-68983D1*
X11013772D1*
X11028372Y-64154D1*
X11038030Y-49554D1*
X11042972Y-25295D1*
Y-10695D1*
X11038030Y13563D1*
X11028372Y28163D1*
X11013772Y32992D1*
X11004113D1*
X11038030Y13563D2*
X10979743Y-49554D1*
X11103544Y32992D2*
X11088944Y28163D1*
X11079174Y13563D1*
X11074344Y-10695D1*
Y-25295D1*
X11079174Y-49554D1*
X11088944Y-64154D1*
X11103544Y-68983D1*
X11113203D1*
X11127803Y-64154D1*
X11137461Y-49554D1*
X11142403Y-25295D1*
Y-10695D1*
X11137461Y13563D1*
X11127803Y28163D1*
X11113203Y32992D1*
X11103544D1*
X11137461Y13563D2*
X11079174Y-49554D1*
X7234852Y13808734D2*
Y13813563D1*
X7239681Y13823334D1*
X7244511Y13828163D1*
X7254281Y13832992D1*
X7273711D1*
X7283369Y13828163D1*
X7288198Y13823334D1*
X7293140Y13813563D1*
Y13803905D1*
X7288198Y13794134D1*
X7278540Y13779646D1*
X7229911Y13731017D1*
X7297969D1*
X7334283Y13808734D2*
Y13813563D1*
X7339112Y13823334D1*
X7343942Y13828163D1*
X7353712Y13832992D1*
X7373142D1*
X7382800Y13828163D1*
X7387629Y13823334D1*
X7392571Y13813563D1*
Y13803905D1*
X7387629Y13794134D1*
X7377971Y13779646D1*
X7329342Y13731017D1*
X7397400D1*
X7433602Y13740788D2*
X7428773Y13735846D1*
X7433602Y13731017D1*
X7438543Y13735846D1*
X7433602Y13740788D1*
X7528204Y13832992D2*
X7479687D1*
X7474858Y13789305D1*
X7479687Y13794134D1*
X7494287Y13799075D1*
X7508774D1*
X7523374Y13794134D1*
X7533145Y13784475D1*
X7537974Y13769875D1*
Y13760217D1*
X7533145Y13745617D1*
X7523374Y13735846D1*
X7508774Y13731017D1*
X7494287D1*
X7479687Y13735846D1*
X7474858Y13740788D1*
X7469916Y13750446D1*
X-631891Y7688640D2*
Y7741986D1*
X-593033Y7712898D1*
Y7727498D1*
X-588204Y7737157D1*
X-583374Y7741986D1*
X-568774Y7746927D1*
X-559116D1*
X-544516Y7741986D1*
X-534745Y7732327D1*
X-529916Y7717727D1*
Y7703127D1*
X-534745Y7688640D1*
X-539687Y7683810D1*
X-549345Y7678869D1*
X-631891Y7802558D2*
X-627062Y7788071D1*
X-617404Y7783129D1*
X-607633D1*
X-597974Y7788071D1*
X-593033Y7797729D1*
X-588204Y7817158D1*
X-583374Y7831758D1*
X-573604Y7841417D1*
X-563945Y7846246D1*
X-549345D1*
X-539687Y7841417D1*
X-534745Y7836588D1*
X-529916Y7821988D1*
Y7802558D1*
X-534745Y7788071D1*
X-539687Y7783129D1*
X-549345Y7778300D1*
X-563945D1*
X-573604Y7783129D1*
X-583374Y7792900D1*
X-588204Y7807388D1*
X-593033Y7826817D1*
X-597974Y7836588D1*
X-607633Y7841417D1*
X-617404D1*
X-627062Y7836588D1*
X-631891Y7821988D1*
Y7802558D1*
X-539687Y7882448D2*
X-534745Y7877619D1*
X-529916Y7882448D1*
X-534745Y7887389D1*
X-539687Y7882448D1*
X-631891Y7977050D2*
Y7928533D1*
X-588204Y7923703D1*
X-593033Y7928533D1*
X-597974Y7943133D1*
Y7957620D1*
X-593033Y7972220D1*
X-583374Y7981991D1*
X-568774Y7986820D1*
X-559116D1*
X-544516Y7981991D1*
X-534745Y7972220D1*
X-529916Y7957620D1*
Y7943133D1*
X-534745Y7928533D1*
X-539687Y7923703D1*
X-549345Y7918762D1*
X6549055Y13131017D2*
X6597685Y13232992D1*
X6529626D1*
X6633886Y13140788D2*
X6629057Y13135846D1*
X6633886Y13131017D1*
X6638828Y13135846D1*
X6633886Y13140788D1*
X6728488Y13232992D2*
X6679971D1*
X6675142Y13189305D1*
X6679971Y13194134D1*
X6694571Y13199075D1*
X6709059D1*
X6723659Y13194134D1*
X6733430Y13184475D1*
X6738259Y13169875D1*
Y13160217D1*
X6733430Y13145617D1*
X6723659Y13135846D1*
X6709059Y13131017D1*
X6694571D1*
X6679971Y13135846D1*
X6675142Y13140788D1*
X6670201Y13150446D1*
X-229916Y6074743D2*
X-331891D1*
X-263945Y6026114D1*
Y6099001D1*
X-239687Y6135203D2*
X-234745Y6130374D1*
X-229916Y6135203D1*
X-234745Y6140145D1*
X-239687Y6135203D1*
X-331891Y6229805D2*
Y6181288D1*
X-288204Y6176459D1*
X-293033Y6181288D1*
X-297974Y6195888D1*
Y6210376D1*
X-293033Y6224976D1*
X-283374Y6234746D1*
X-268774Y6239576D1*
X-259116D1*
X-244516Y6234746D1*
X-234745Y6224976D1*
X-229916Y6210376D1*
Y6195888D1*
X-234745Y6181288D1*
X-239687Y6176459D1*
X-249345Y6171517D1*
X21734090Y7961363D2*
Y7908017D1*
X21695232Y7937105D1*
Y7922505D1*
X21690402Y7912846D1*
X21685573Y7908017D1*
X21670973Y7903076D1*
X21661315D1*
X21646715Y7908017D1*
X21636944Y7917676D1*
X21632115Y7932276D1*
Y7946876D1*
X21636944Y7961363D1*
X21641886Y7966193D1*
X21651544Y7971134D1*
X21734090Y7847445D2*
X21729261Y7861932D1*
X21719602Y7866874D1*
X21709832D1*
X21700173Y7861932D1*
X21695232Y7852274D1*
X21690402Y7832845D1*
X21685573Y7818245D1*
X21675802Y7808586D1*
X21666144Y7803757D1*
X21651544D1*
X21641886Y7808586D1*
X21636944Y7813415D1*
X21632115Y7828015D1*
Y7847445D1*
X21636944Y7861932D1*
X21641886Y7866874D1*
X21651544Y7871703D1*
X21666144D1*
X21675802Y7866874D1*
X21685573Y7857103D1*
X21690402Y7842615D1*
X21695232Y7823186D1*
X21700173Y7813415D1*
X21709832Y7808586D1*
X21719602D1*
X21729261Y7813415D1*
X21734090Y7828015D1*
Y7847445D1*
X21641886Y7767555D2*
X21636944Y7772384D1*
X21632115Y7767555D1*
X21636944Y7762614D1*
X21641886Y7767555D1*
X21734090Y7672953D2*
Y7721470D1*
X21690402Y7726300D1*
X21695232Y7721470D1*
X21700173Y7706870D1*
Y7692383D1*
X21695232Y7677783D1*
X21685573Y7668012D1*
X21670973Y7663183D1*
X21661315D1*
X21646715Y7668012D1*
X21636944Y7677783D1*
X21632115Y7692383D1*
Y7706870D1*
X21636944Y7721470D1*
X21641886Y7726300D1*
X21651544Y7731241D1*
X15299055Y13131017D2*
X15347685Y13232992D1*
X15279626D1*
X15383886Y13140788D2*
X15379057Y13135846D1*
X15383886Y13131017D1*
X15388828Y13135846D1*
X15383886Y13140788D1*
X15478488Y13232992D2*
X15429971D1*
X15425142Y13189305D1*
X15429971Y13194134D1*
X15444571Y13199075D1*
X15459059D1*
X15473659Y13194134D1*
X15483430Y13184475D1*
X15488259Y13169875D1*
Y13160217D1*
X15483430Y13145617D1*
X15473659Y13135846D1*
X15459059Y13131017D1*
X15444571D1*
X15429971Y13135846D1*
X15425142Y13140788D1*
X15420201Y13150446D1*
X21232115Y6175260D2*
X21334090D1*
X21266144Y6223889D1*
Y6151002D1*
X21241886Y6114800D2*
X21236944Y6119629D1*
X21232115Y6114800D1*
X21236944Y6109858D1*
X21241886Y6114800D1*
X21334090Y6020198D2*
Y6068715D1*
X21290402Y6073544D1*
X21295232Y6068715D1*
X21300173Y6054115D1*
Y6039627D1*
X21295232Y6025027D1*
X21285573Y6015257D1*
X21270973Y6010427D1*
X21261315D1*
X21246715Y6015257D1*
X21236944Y6025027D1*
X21232115Y6039627D1*
Y6054115D1*
X21236944Y6068715D1*
X21241886Y6073544D1*
X21251544Y6078486D1*
X14484852Y13808734D2*
Y13813563D1*
X14489681Y13823334D1*
X14494511Y13828163D1*
X14504281Y13832992D1*
X14523711D1*
X14533369Y13828163D1*
X14538198Y13823334D1*
X14543140Y13813563D1*
Y13803905D1*
X14538198Y13794134D1*
X14528540Y13779646D1*
X14479911Y13731017D1*
X14547969D1*
X14584283Y13808734D2*
Y13813563D1*
X14589112Y13823334D1*
X14593942Y13828163D1*
X14603712Y13832992D1*
X14623142D1*
X14632800Y13828163D1*
X14637629Y13823334D1*
X14642571Y13813563D1*
Y13803905D1*
X14637629Y13794134D1*
X14627971Y13779646D1*
X14579342Y13731017D1*
X14647400D1*
X14683602Y13740788D2*
X14678773Y13735846D1*
X14683602Y13731017D1*
X14688543Y13735846D1*
X14683602Y13740788D1*
X14778204Y13832992D2*
X14729687D1*
X14724858Y13789305D1*
X14729687Y13794134D1*
X14744287Y13799075D1*
X14758774D1*
X14773374Y13794134D1*
X14783145Y13784475D1*
X14787974Y13769875D1*
Y13760217D1*
X14783145Y13745617D1*
X14773374Y13735846D1*
X14758774Y13731017D1*
X14744287D1*
X14729687Y13735846D1*
X14724858Y13740788D1*
X14719916Y13750446D1*
X21414661Y7027503D2*
X21419602Y7017732D1*
X21434090Y7003132D1*
X21332115D1*
X21414661Y6971759D2*
X21419602Y6961988D1*
X21434090Y6947388D1*
X21332115D1*
X21341886Y6911187D2*
X21336944Y6916016D1*
X21332115Y6911187D1*
X21336944Y6906245D1*
X21341886Y6911187D1*
X21434090Y6816585D2*
Y6865102D1*
X21390402Y6869931D1*
X21395232Y6865102D1*
X21400173Y6850502D1*
Y6836014D1*
X21395232Y6821414D1*
X21385573Y6811643D1*
X21370973Y6806814D1*
X21361315D1*
X21346715Y6811643D1*
X21336944Y6821414D1*
X21332115Y6836014D1*
Y6850502D1*
X21336944Y6865102D1*
X21341886Y6869931D1*
X21351544Y6874873D1*
X12947042Y13813563D2*
X12956812Y13818505D1*
X12971412Y13832992D1*
Y13731017D1*
X13031985Y13832992D2*
X13017385Y13828163D1*
X13007614Y13813563D1*
X13002785Y13789305D1*
Y13774705D1*
X13007614Y13750446D1*
X13017385Y13735846D1*
X13031985Y13731017D1*
X13041643D1*
X13056243Y13735846D1*
X13065902Y13750446D1*
X13070843Y13774705D1*
Y13789305D1*
X13065902Y13813563D1*
X13056243Y13828163D1*
X13041643Y13832992D1*
X13031985D1*
X13065902Y13813563D2*
X13007614Y13750446D1*
X8947042Y13813563D2*
X8956812Y13818505D1*
X8971412Y13832992D1*
Y13731017D1*
X9031985Y13832992D2*
X9017385Y13828163D1*
X9007614Y13813563D1*
X9002785Y13789305D1*
Y13774705D1*
X9007614Y13750446D1*
X9017385Y13735846D1*
X9031985Y13731017D1*
X9041643D1*
X9056243Y13735846D1*
X9065902Y13750446D1*
X9070843Y13774705D1*
Y13789305D1*
X9065902Y13813563D1*
X9056243Y13828163D1*
X9041643Y13832992D1*
X9031985D1*
X9065902Y13813563D2*
X9007614Y13750446D1*
X5897326Y413563D2*
X5907097Y418505D1*
X5921697Y432992D1*
Y331017D1*
X5982269Y432992D2*
X5967669Y428163D1*
X5957899Y413563D1*
X5953069Y389305D1*
Y374705D1*
X5957899Y350446D1*
X5967669Y335846D1*
X5982269Y331017D1*
X5991928D1*
X6006528Y335846D1*
X6016186Y350446D1*
X6021128Y374705D1*
Y389305D1*
X6016186Y413563D1*
X6006528Y428163D1*
X5991928Y432992D1*
X5982269D1*
X6016186Y413563D2*
X5957899Y350446D1*
X6081701Y432992D2*
X6067101Y428163D1*
X6057330Y413563D1*
X6052501Y389305D1*
Y374705D1*
X6057330Y350446D1*
X6067101Y335846D1*
X6081701Y331017D1*
X6091359D1*
X6105959Y335846D1*
X6115617Y350446D1*
X6120559Y374705D1*
Y389305D1*
X6115617Y413563D1*
X6105959Y428163D1*
X6091359Y432992D1*
X6081701D1*
X6115617Y413563D2*
X6057330Y350446D1*
X15897326Y413563D2*
X15907097Y418505D1*
X15921697Y432992D1*
Y331017D1*
X15982269Y432992D2*
X15967669Y428163D1*
X15957899Y413563D1*
X15953069Y389305D1*
Y374705D1*
X15957899Y350446D1*
X15967669Y335846D1*
X15982269Y331017D1*
X15991928D1*
X16006528Y335846D1*
X16016186Y350446D1*
X16021128Y374705D1*
Y389305D1*
X16016186Y413563D1*
X16006528Y428163D1*
X15991928Y432992D1*
X15982269D1*
X16016186Y413563D2*
X15957899Y350446D1*
X16081701Y432992D2*
X16067101Y428163D1*
X16057330Y413563D1*
X16052501Y389305D1*
Y374705D1*
X16057330Y350446D1*
X16067101Y335846D1*
X16081701Y331017D1*
X16091359D1*
X16105959Y335846D1*
X16115617Y350446D1*
X16120559Y374705D1*
Y389305D1*
X16115617Y413563D1*
X16105959Y428163D1*
X16091359Y432992D1*
X16081701D1*
X16115617Y413563D2*
X16057330Y350446D1*
X568109Y3537100D2*
Y3488583D1*
X611796Y3483754D1*
X606967Y3488583D1*
X602026Y3503183D1*
Y3517671D1*
X606967Y3532271D1*
X616626Y3542042D1*
X631226Y3546871D1*
X640884D1*
X655484Y3542042D1*
X665255Y3532271D1*
X670084Y3517671D1*
Y3503183D1*
X665255Y3488583D1*
X660313Y3483754D1*
X650655Y3478813D1*
X592367Y3583185D2*
X587538D1*
X577767Y3588015D1*
X572938Y3592844D1*
X568109Y3602615D1*
Y3622044D1*
X572938Y3631702D1*
X577767Y3636531D1*
X587538Y3641473D1*
X597196D1*
X606967Y3636531D1*
X621455Y3626873D1*
X670084Y3578244D1*
Y3646302D1*
X660313Y3682504D2*
X665255Y3677675D1*
X670084Y3682504D1*
X665255Y3687446D1*
X660313Y3682504D1*
X568109Y3777106D2*
Y3728589D1*
X611796Y3723760D1*
X606967Y3728589D1*
X602026Y3743189D1*
Y3757677D1*
X606967Y3772277D1*
X616626Y3782047D1*
X631226Y3786877D1*
X640884D1*
X655484Y3782047D1*
X665255Y3772277D1*
X670084Y3757677D1*
Y3743189D1*
X665255Y3728589D1*
X660313Y3723760D1*
X650655Y3718818D1*
X670084Y8470315D2*
X568109D1*
X636055Y8421685D1*
Y8494573D1*
X568109Y8584233D2*
Y8535716D1*
X611796Y8530887D1*
X606967Y8535716D1*
X602026Y8550316D1*
Y8564804D1*
X606967Y8579404D1*
X616626Y8589175D1*
X631226Y8594004D1*
X640884D1*
X655484Y8589175D1*
X665255Y8579404D1*
X670084Y8564804D1*
Y8550316D1*
X665255Y8535716D1*
X660313Y8530887D1*
X650655Y8525946D1*
X587538Y11250657D2*
X582596Y11260427D1*
X568109Y11275027D1*
X670084D1*
X592367Y11311341D2*
X587538D1*
X577767Y11316171D1*
X572938Y11321000D1*
X568109Y11330771D1*
Y11350200D1*
X572938Y11359858D1*
X577767Y11364688D1*
X587538Y11369629D1*
X597196D1*
X606967Y11364688D1*
X621455Y11355029D1*
X670084Y11306400D1*
Y11374458D1*
X660313Y11410660D2*
X665255Y11405831D1*
X670084Y11410660D1*
X665255Y11415602D1*
X660313Y11410660D1*
X568109Y11505262D2*
Y11456745D1*
X611796Y11451916D1*
X606967Y11456745D1*
X602026Y11471345D1*
Y11485833D1*
X606967Y11500433D1*
X616626Y11510203D1*
X631226Y11515033D1*
X640884D1*
X655484Y11510203D1*
X665255Y11500433D1*
X670084Y11485833D1*
Y11471345D1*
X665255Y11456745D1*
X660313Y11451916D1*
X650655Y11446974D1*
X282596Y4234858D2*
X272938Y4230029D1*
X268109Y4215429D1*
Y4205771D1*
X272938Y4191171D1*
X287538Y4181400D1*
X311796Y4176571D1*
X336055D1*
X355484Y4181400D1*
X365255Y4191171D1*
X370084Y4205771D1*
Y4210600D1*
X365255Y4225088D1*
X355484Y4234858D1*
X340884Y4239688D1*
X336055D1*
X321455Y4234858D1*
X311796Y4225088D1*
X306967Y4210600D1*
Y4205771D1*
X311796Y4191171D1*
X321455Y4181400D1*
X336055Y4176571D1*
X268109Y4329348D2*
Y4280831D1*
X311796Y4276002D1*
X306967Y4280831D1*
X302026Y4295431D1*
Y4309919D1*
X306967Y4324519D1*
X316626Y4334289D1*
X331226Y4339119D1*
X340884D1*
X355484Y4334289D1*
X365255Y4324519D1*
X370084Y4309919D1*
Y4295431D1*
X365255Y4280831D1*
X360313Y4276002D1*
X350655Y4271060D1*
X370084Y9720315D2*
X268109D1*
X336055Y9671685D1*
Y9744573D1*
X268109Y9834233D2*
Y9785716D1*
X311796Y9780887D1*
X306967Y9785716D1*
X302026Y9800316D1*
Y9814804D1*
X306967Y9829404D1*
X316626Y9839175D1*
X331226Y9844004D1*
X340884D1*
X355484Y9839175D1*
X365255Y9829404D1*
X370084Y9814804D1*
Y9800316D1*
X365255Y9785716D1*
X360313Y9780887D1*
X350655Y9775946D1*
X-31891Y8482388D2*
Y8433871D1*
X11796Y8429041D1*
X6967Y8433871D1*
X2026Y8448471D1*
Y8462958D1*
X6967Y8477558D1*
X16626Y8487329D1*
X31226Y8492158D1*
X40884D1*
X55484Y8487329D1*
X65255Y8477558D1*
X70084Y8462958D1*
Y8448471D1*
X65255Y8433871D1*
X60313Y8429041D1*
X50655Y8424100D1*
X-7633Y8528472D2*
X-12462D1*
X-22233Y8533302D1*
X-27062Y8538131D1*
X-31891Y8547902D1*
Y8567331D1*
X-27062Y8576989D1*
X-22233Y8581819D1*
X-12462Y8586760D1*
X-2804D1*
X6967Y8581819D1*
X21455Y8572160D1*
X70084Y8523531D1*
Y8591589D1*
X10990842Y13499075D2*
X10985900Y13484475D1*
X10976242Y13474705D1*
X10961642Y13469875D1*
X10956812D1*
X10942212Y13474705D1*
X10932554Y13484475D1*
X10927612Y13499075D1*
Y13503905D1*
X10932554Y13518505D1*
X10942212Y13528163D1*
X10956812Y13532992D1*
X10961642D1*
X10976242Y13528163D1*
X10985900Y13518505D1*
X10990842Y13499075D1*
Y13474705D1*
X10985900Y13450446D1*
X10976242Y13435846D1*
X10961642Y13431017D1*
X10951983D1*
X10937383Y13435846D1*
X10932554Y13445617D1*
X11080502Y13532992D2*
X11031985D1*
X11027156Y13489305D1*
X11031985Y13494134D1*
X11046585Y13499075D1*
X11061073D1*
X11075673Y13494134D1*
X11085443Y13484475D1*
X11090273Y13469875D1*
Y13460217D1*
X11085443Y13445617D1*
X11075673Y13435846D1*
X11061073Y13431017D1*
X11046585D1*
X11031985Y13435846D1*
X11027156Y13440788D1*
X11022214Y13450446D1*
X3483487Y14132992D2*
X3434970D1*
X3430141Y14089305D1*
X3434970Y14094134D1*
X3449570Y14099075D1*
X3464058D1*
X3478658Y14094134D1*
X3488429Y14084475D1*
X3493258Y14069875D1*
Y14060217D1*
X3488429Y14045617D1*
X3478658Y14035846D1*
X3464058Y14031017D1*
X3449570D1*
X3434970Y14035846D1*
X3430141Y14040788D1*
X3425200Y14050446D1*
X3553831Y14132992D2*
X3539231Y14128163D1*
X3529460Y14113563D1*
X3524631Y14089305D1*
Y14074705D1*
X3529460Y14050446D1*
X3539231Y14035846D1*
X3553831Y14031017D1*
X3563489D1*
X3578089Y14035846D1*
X3587747Y14050446D1*
X3592689Y14074705D1*
Y14089305D1*
X3587747Y14113563D1*
X3578089Y14128163D1*
X3563489Y14132992D1*
X3553831D1*
X3587747Y14113563D2*
X3529460Y14050446D1*
X8483486Y14132992D2*
X8434969D1*
X8430139Y14089305D1*
X8434969Y14094134D1*
X8449569Y14099075D1*
X8464056D1*
X8478656Y14094134D1*
X8488427Y14084475D1*
X8493256Y14069875D1*
Y14060217D1*
X8488427Y14045617D1*
X8478656Y14035846D1*
X8464056Y14031017D1*
X8449569D1*
X8434969Y14035846D1*
X8430139Y14040788D1*
X8425198Y14050446D1*
X8553829Y14132992D2*
X8539229Y14128163D1*
X8529458Y14113563D1*
X8524629Y14089305D1*
Y14074705D1*
X8529458Y14050446D1*
X8539229Y14035846D1*
X8553829Y14031017D1*
X8563487D1*
X8578087Y14035846D1*
X8587746Y14050446D1*
X8592687Y14074705D1*
Y14089305D1*
X8587746Y14113563D1*
X8578087Y14128163D1*
X8563487Y14132992D1*
X8553829D1*
X8587746Y14113563D2*
X8529458Y14050446D1*
X13483487Y14132992D2*
X13434970D1*
X13430141Y14089305D1*
X13434970Y14094134D1*
X13449570Y14099075D1*
X13464058D1*
X13478658Y14094134D1*
X13488429Y14084475D1*
X13493258Y14069875D1*
Y14060217D1*
X13488429Y14045617D1*
X13478658Y14035846D1*
X13464058Y14031017D1*
X13449570D1*
X13434970Y14035846D1*
X13430141Y14040788D1*
X13425200Y14050446D1*
X13553831Y14132992D2*
X13539231Y14128163D1*
X13529460Y14113563D1*
X13524631Y14089305D1*
Y14074705D1*
X13529460Y14050446D1*
X13539231Y14035846D1*
X13553831Y14031017D1*
X13563489D1*
X13578089Y14035846D1*
X13587747Y14050446D1*
X13592689Y14074705D1*
Y14089305D1*
X13587747Y14113563D1*
X13578089Y14128163D1*
X13563489Y14132992D1*
X13553831D1*
X13587747Y14113563D2*
X13529460Y14050446D1*
X18483486Y14132992D2*
X18434969D1*
X18430139Y14089305D1*
X18434969Y14094134D1*
X18449569Y14099075D1*
X18464056D1*
X18478656Y14094134D1*
X18488427Y14084475D1*
X18493256Y14069875D1*
Y14060217D1*
X18488427Y14045617D1*
X18478656Y14035846D1*
X18464056Y14031017D1*
X18449569D1*
X18434969Y14035846D1*
X18430139Y14040788D1*
X18425198Y14050446D1*
X18553829Y14132992D2*
X18539229Y14128163D1*
X18529458Y14113563D1*
X18524629Y14089305D1*
Y14074705D1*
X18529458Y14050446D1*
X18539229Y14035846D1*
X18553829Y14031017D1*
X18563487D1*
X18578087Y14035846D1*
X18587746Y14050446D1*
X18592687Y14074705D1*
Y14089305D1*
X18587746Y14113563D1*
X18578087Y14128163D1*
X18563487Y14132992D1*
X18553829D1*
X18587746Y14113563D2*
X18529458Y14050446D1*
X10934969Y13832992D2*
X10988315D1*
X10959227Y13794134D1*
X10973827D1*
X10983486Y13789305D1*
X10988315Y13784475D1*
X10993256Y13769875D1*
Y13760217D1*
X10988315Y13745617D1*
X10978656Y13735846D1*
X10964056Y13731017D1*
X10949456D1*
X10934969Y13735846D1*
X10930139Y13740788D1*
X10925198Y13750446D1*
X11053829Y13832992D2*
X11039229Y13828163D1*
X11029458Y13813563D1*
X11024629Y13789305D1*
Y13774705D1*
X11029458Y13750446D1*
X11039229Y13735846D1*
X11053829Y13731017D1*
X11063487D1*
X11078087Y13735846D1*
X11087746Y13750446D1*
X11092687Y13774705D1*
Y13789305D1*
X11087746Y13813563D1*
X11078087Y13828163D1*
X11063487Y13832992D1*
X11053829D1*
X11087746Y13813563D2*
X11029458Y13750446D1*
X10851354Y713563D2*
X10861124Y718505D1*
X10875724Y732992D1*
Y631017D1*
X10970326Y699075D2*
X10965385Y684475D1*
X10955726Y674705D1*
X10941126Y669875D1*
X10936297D1*
X10921697Y674705D1*
X10912038Y684475D1*
X10907097Y699075D1*
Y703905D1*
X10912038Y718505D1*
X10921697Y728163D1*
X10936297Y732992D1*
X10941126D1*
X10955726Y728163D1*
X10965385Y718505D1*
X10970326Y699075D1*
Y674705D1*
X10965385Y650446D1*
X10955726Y635846D1*
X10941126Y631017D1*
X10931468D1*
X10916868Y635846D1*
X10912038Y645617D1*
X11001699Y713563D2*
X11011469Y718505D1*
X11026069Y732992D1*
Y631017D1*
X11062271Y640788D2*
X11057442Y635846D1*
X11062271Y631017D1*
X11067213Y635846D1*
X11062271Y640788D1*
X11122844Y732992D2*
X11108356Y728163D1*
X11103415Y718505D1*
Y708734D1*
X11108356Y699075D1*
X11118015Y694134D1*
X11137444Y689305D1*
X11152044Y684475D1*
X11161702Y674705D1*
X11166532Y665046D1*
Y650446D1*
X11161702Y640788D1*
X11156873Y635846D1*
X11142273Y631017D1*
X11122844D1*
X11108356Y635846D1*
X11103415Y640788D1*
X11098585Y650446D1*
Y665046D1*
X11103415Y674705D1*
X11113185Y684475D1*
X11127673Y689305D1*
X11147102Y694134D1*
X11156873Y699075D1*
X11161702Y708734D1*
Y718505D1*
X11156873Y728163D1*
X11142273Y732992D1*
X11122844D1*
X20767685Y731017D2*
Y832992D1*
X20719055Y765046D1*
X20791943D1*
X20828145Y740788D2*
X20823316Y735846D1*
X20828145Y731017D1*
X20833086Y735846D1*
X20828145Y740788D1*
X20864459Y813563D2*
X20874230Y818505D1*
X20888830Y832992D1*
Y731017D1*
X1177685D2*
Y832992D1*
X1129055Y765046D1*
X1201943D1*
X1238145Y740788D2*
X1233316Y735846D1*
X1238145Y731017D1*
X1243086Y735846D1*
X1238145Y740788D1*
X1274459Y813563D2*
X1284230Y818505D1*
X1298830Y832992D1*
Y731017D1*
X22034090Y5599976D2*
X22029261Y5614463D1*
X22019602Y5619405D1*
X22009832D1*
X22000173Y5614463D1*
X21995232Y5604805D1*
X21990402Y5585376D1*
X21985573Y5570776D1*
X21975802Y5561117D1*
X21966144Y5556288D1*
X21951544D1*
X21941886Y5561117D1*
X21936944Y5565946D1*
X21932115Y5580546D1*
Y5599976D1*
X21936944Y5614463D1*
X21941886Y5619405D1*
X21951544Y5624234D1*
X21966144D1*
X21975802Y5619405D1*
X21985573Y5609634D1*
X21990402Y5595146D1*
X21995232Y5575717D1*
X22000173Y5565946D1*
X22009832Y5561117D1*
X22019602D1*
X22029261Y5565946D1*
X22034090Y5580546D1*
Y5599976D1*
X22014661Y5524915D2*
X22019602Y5515145D1*
X22034090Y5500545D1*
X21932115D1*
X21941886Y5464343D2*
X21936944Y5469172D1*
X21932115Y5464343D1*
X21936944Y5459401D1*
X21941886Y5464343D1*
X22034090Y5403770D2*
X22029261Y5418258D1*
X22019602Y5423200D1*
X22009832D1*
X22000173Y5418258D1*
X21995232Y5408600D1*
X21990402Y5389170D1*
X21985573Y5374570D1*
X21975802Y5364912D1*
X21966144Y5360083D1*
X21951544D1*
X21941886Y5364912D1*
X21936944Y5369741D1*
X21932115Y5384341D1*
Y5403770D1*
X21936944Y5418258D1*
X21941886Y5423200D1*
X21951544Y5428029D1*
X21966144D1*
X21975802Y5423200D1*
X21985573Y5413429D1*
X21990402Y5398941D1*
X21995232Y5379512D1*
X22000173Y5369741D1*
X22009832Y5364912D1*
X22019602D1*
X22029261Y5369741D1*
X22034090Y5384341D1*
Y5403770D1*
X21832115Y1233416D2*
X21934090D1*
X21866144Y1282046D1*
Y1209158D1*
X21841886Y1172956D2*
X21836944Y1177785D1*
X21832115Y1172956D1*
X21836944Y1168015D1*
X21841886Y1172956D1*
X21914661Y1136642D2*
X21919602Y1126871D1*
X21934090Y1112271D1*
X21832115D1*
X22009832Y10916819D2*
X22014661D1*
X22024432Y10911990D1*
X22029261Y10907161D1*
X22034090Y10897390D1*
Y10877961D1*
X22029261Y10868303D1*
X22024432Y10863473D1*
X22014661Y10858532D1*
X22005002D1*
X21995232Y10863473D1*
X21980744Y10873132D1*
X21932115Y10921761D1*
Y10853703D1*
Y10773701D2*
X22034090D1*
X21966144Y10822330D1*
Y10749442D1*
X21941886Y10713241D2*
X21936944Y10718070D1*
X21932115Y10713241D1*
X21936944Y10708299D1*
X21941886Y10713241D1*
X22014661Y10676926D2*
X22019602Y10667156D1*
X22034090Y10652556D1*
X21932115D1*
X1353946Y13332992D2*
X1339458Y13328163D1*
X1334517Y13318505D1*
Y13308734D1*
X1339458Y13299075D1*
X1349117Y13294134D1*
X1368546Y13289305D1*
X1383146Y13284475D1*
X1392804Y13274705D1*
X1397633Y13265046D1*
Y13250446D1*
X1392804Y13240788D1*
X1387975Y13235846D1*
X1373375Y13231017D1*
X1353946D1*
X1339458Y13235846D1*
X1334517Y13240788D1*
X1329687Y13250446D1*
Y13265046D1*
X1334517Y13274705D1*
X1344287Y13284475D1*
X1358775Y13289305D1*
X1378204Y13294134D1*
X1387975Y13299075D1*
X1392804Y13308734D1*
Y13318505D1*
X1387975Y13328163D1*
X1373375Y13332992D1*
X1353946D1*
X1433835Y13240788D2*
X1429006Y13235846D1*
X1433835Y13231017D1*
X1438777Y13235846D1*
X1433835Y13240788D1*
X1528437Y13332992D2*
X1479920D1*
X1475091Y13289305D1*
X1479920Y13294134D1*
X1494520Y13299075D1*
X1509008D1*
X1523608Y13294134D1*
X1533379Y13284475D1*
X1538208Y13269875D1*
Y13260217D1*
X1533379Y13245617D1*
X1523608Y13235846D1*
X1509008Y13231017D1*
X1494520D1*
X1479920Y13235846D1*
X1475091Y13240788D1*
X1470149Y13250446D1*
X5503946Y13332992D2*
X5489458Y13328163D1*
X5484517Y13318505D1*
Y13308734D1*
X5489458Y13299075D1*
X5499117Y13294134D1*
X5518546Y13289305D1*
X5533146Y13284475D1*
X5542804Y13274705D1*
X5547633Y13265046D1*
Y13250446D1*
X5542804Y13240788D1*
X5537975Y13235846D1*
X5523375Y13231017D1*
X5503946D1*
X5489458Y13235846D1*
X5484517Y13240788D1*
X5479687Y13250446D1*
Y13265046D1*
X5484517Y13274705D1*
X5494287Y13284475D1*
X5508775Y13289305D1*
X5528204Y13294134D1*
X5537975Y13299075D1*
X5542804Y13308734D1*
Y13318505D1*
X5537975Y13328163D1*
X5523375Y13332992D1*
X5503946D1*
X5583835Y13240788D2*
X5579006Y13235846D1*
X5583835Y13231017D1*
X5588777Y13235846D1*
X5583835Y13240788D1*
X5678437Y13332992D2*
X5629920D1*
X5625091Y13289305D1*
X5629920Y13294134D1*
X5644520Y13299075D1*
X5659008D1*
X5673608Y13294134D1*
X5683379Y13284475D1*
X5688208Y13269875D1*
Y13260217D1*
X5683379Y13245617D1*
X5673608Y13235846D1*
X5659008Y13231017D1*
X5644520D1*
X5629920Y13235846D1*
X5625091Y13240788D1*
X5620149Y13250446D1*
X2780149Y13308734D2*
Y13313563D1*
X2784979Y13323334D1*
X2789808Y13328163D1*
X2799579Y13332992D1*
X2819008D1*
X2828666Y13328163D1*
X2833496Y13323334D1*
X2838437Y13313563D1*
Y13303905D1*
X2833496Y13294134D1*
X2823837Y13279646D1*
X2775208Y13231017D1*
X2843266D1*
X2903839Y13332992D2*
X2889239Y13328163D1*
X2879468Y13313563D1*
X2874639Y13289305D1*
Y13274705D1*
X2879468Y13250446D1*
X2889239Y13235846D1*
X2903839Y13231017D1*
X2913497D1*
X2928097Y13235846D1*
X2937756Y13250446D1*
X2942697Y13274705D1*
Y13289305D1*
X2937756Y13313563D1*
X2928097Y13328163D1*
X2913497Y13332992D1*
X2903839D1*
X2937756Y13313563D2*
X2879468Y13250446D1*
X4597052Y13313563D2*
X4606822Y13318505D1*
X4621422Y13332992D1*
Y13231017D1*
X4681995Y13332992D2*
X4667395Y13328163D1*
X4657624Y13313563D1*
X4652795Y13289305D1*
Y13274705D1*
X4657624Y13250446D1*
X4667395Y13235846D1*
X4681995Y13231017D1*
X4691653D1*
X4706253Y13235846D1*
X4715912Y13250446D1*
X4720853Y13274705D1*
Y13289305D1*
X4715912Y13313563D1*
X4706253Y13328163D1*
X4691653Y13332992D1*
X4681995D1*
X4715912Y13313563D2*
X4657624Y13250446D1*
X4219646Y12913563D2*
X4229416Y12918505D1*
X4244016Y12932992D1*
Y12831017D1*
X4280218Y12840788D2*
X4275389Y12835846D1*
X4280218Y12831017D1*
X4285160Y12835846D1*
X4280218Y12840788D1*
X4379761Y12899075D2*
X4374820Y12884475D1*
X4365161Y12874705D1*
X4350561Y12869875D1*
X4345732D1*
X4331132Y12874705D1*
X4321474Y12884475D1*
X4316532Y12899075D1*
Y12903905D1*
X4321474Y12918505D1*
X4331132Y12928163D1*
X4345732Y12932992D1*
X4350561D1*
X4365161Y12928163D1*
X4374820Y12918505D1*
X4379761Y12899075D1*
Y12874705D1*
X4374820Y12850446D1*
X4365161Y12835846D1*
X4350561Y12831017D1*
X4340903D1*
X4326303Y12835846D1*
X4321474Y12845617D1*
X3984694Y13232992D2*
X4038040D1*
X4008953Y13194134D1*
X4023553D1*
X4033211Y13189305D1*
X4038040Y13184475D1*
X4042982Y13169875D1*
Y13160217D1*
X4038040Y13145617D1*
X4028382Y13135846D1*
X4013782Y13131017D1*
X3999182D1*
X3984694Y13135846D1*
X3979865Y13140788D1*
X3974923Y13150446D1*
X-31891Y11659605D2*
Y11611088D1*
X11796Y11606259D1*
X6967Y11611088D1*
X2026Y11625688D1*
Y11640176D1*
X6967Y11654776D1*
X16626Y11664547D1*
X31226Y11669376D1*
X40884D1*
X55484Y11664547D1*
X65255Y11654776D1*
X70084Y11640176D1*
Y11625688D1*
X65255Y11611088D1*
X60313Y11606259D1*
X50655Y11601318D1*
X60313Y11705578D2*
X65255Y11700749D1*
X70084Y11705578D1*
X65255Y11710520D1*
X60313Y11705578D1*
X-31891Y11771092D2*
X-27062Y11756492D1*
X-12462Y11746721D1*
X11796Y11741892D1*
X26396D1*
X50655Y11746721D1*
X65255Y11756492D1*
X70084Y11771092D1*
Y11780751D1*
X65255Y11795351D1*
X50655Y11805009D1*
X26396Y11809951D1*
X11796D1*
X-12462Y11805009D1*
X-27062Y11795351D1*
X-31891Y11780751D1*
Y11771092D1*
X-12462Y11805009D2*
X50655Y11746721D1*
X-31891Y11899611D2*
Y11851094D1*
X11796Y11846265D1*
X6967Y11851094D1*
X2026Y11865694D1*
Y11880182D1*
X6967Y11894782D1*
X16626Y11904552D1*
X31226Y11909382D1*
X40884D1*
X55484Y11904552D1*
X65255Y11894782D1*
X70084Y11880182D1*
Y11865694D1*
X65255Y11851094D1*
X60313Y11846265D1*
X50655Y11841323D1*
M02*
