G04 DipTrace 5.2.0.4*
G04 BottomMask.gbr*
%MOMM*%
G04 #@! TF.FileFunction,Soldermask,Bot*
G04 #@! TF.Part,Single*
%AMOUTLINE49*
4,1,4,
-0.93338,-0.00003,
-0.00003,0.93338,
0.93338,0.00003,
0.00003,-0.93338,
-0.93338,-0.00003,
0*%
%AMOUTLINE51*
4,1,4,
0.0,-0.93338,
-0.93338,0.0,
0.0,0.93338,
0.93338,0.0,
0.0,-0.93338,
0*%
%AMOUTLINE123*
4,1,4,
0.00002,-1.21622,
-1.21622,-0.00002,
-0.00002,1.21622,
1.21622,0.00002,
0.00002,-1.21622,
0*%
%ADD32C,2.0*%
%ADD50C,1.35*%
%ADD75R,1.32X1.32*%
%ADD77C,1.32*%
%ADD88C,2.6*%
%ADD89C,2.69*%
%ADD106C,6.12*%
%ADD107C,0.92*%
%ADD108C,1.72*%
%ADD113C,1.44*%
%ADD115R,1.44X1.44*%
%ADD116C,2.67*%
%ADD118R,2.67X2.67*%
%ADD120C,3.12*%
%ADD122C,2.52*%
%ADD123R,1.62X1.62*%
%ADD125C,1.62*%
%ADD126C,1.496*%
%ADD128R,1.496X1.496*%
%ADD129C,2.04*%
%ADD131R,2.04X2.04*%
%ADD132R,0.82X3.72*%
%ADD133C,2.76*%
%ADD135R,2.76X2.76*%
%ADD136C,2.745*%
%ADD138R,2.745X2.745*%
%ADD139C,1.47*%
%ADD141R,1.47X1.47*%
%ADD200OUTLINE49*%
%ADD202OUTLINE51*%
%ADD274OUTLINE123*%
%FSLAX35Y35*%
G04*
G71*
G90*
G75*
G01*
G04 BotMask*
%LPD*%
D200*
X2444328Y3373219D3*
D77*
X2797871Y3726784D3*
D202*
X2797876Y4658225D3*
D77*
X2444323Y5011778D3*
D202*
X2792880Y7158228D3*
D77*
X2439319Y7511775D3*
D75*
X9246099Y3600001D3*
D77*
Y4100001D3*
D75*
X10341099Y3600001D3*
D77*
Y4100001D3*
D50*
X10203619Y2425996D3*
X10348580Y2934007D3*
X9103615Y2425997D3*
X9248584Y2934006D3*
X8518626Y2850994D3*
X8663573Y3359009D3*
X8118626Y2850994D3*
X8263573Y3359009D3*
X7718626Y2850994D3*
X7863573Y3359009D3*
X7318626Y2850994D3*
X7463573Y3359009D3*
X6918626Y2850994D3*
X7063573Y3359009D3*
X2376843Y5782501D3*
X2884843Y5637501D3*
X2372099Y8282501D3*
X2880099Y8137501D3*
X6518626Y2850994D3*
X6663573Y3359009D3*
X2372099Y9007501D3*
X2880099Y8862501D3*
X2376843Y6507501D3*
X2884843Y6362501D3*
D88*
X12501099Y7500001D3*
X9501099D3*
X11001099Y10750001D3*
Y6250001D3*
D141*
X2391099Y1340001D3*
D139*
X2641099D3*
X2891099D3*
D141*
X1341099Y10990001D3*
D139*
Y10740001D3*
Y10490001D3*
Y10240001D3*
D138*
X1496099Y8950001D3*
D136*
Y8554001D3*
Y8158001D3*
Y7762001D3*
Y7366001D3*
Y6970001D3*
D138*
X1500843Y6450001D3*
D136*
Y6054001D3*
Y5658001D3*
Y5262001D3*
Y4866001D3*
Y4470001D3*
D135*
X1501057Y3919000D3*
D133*
X1501096Y3523000D3*
X1501135Y3127000D3*
X1501175Y2731000D3*
D132*
X5151111Y11680038D3*
X5051111Y11680036D3*
X4951111Y11680033D3*
X4851111Y11680031D3*
X4751111Y11680029D3*
X4651111Y11680027D3*
X4551111Y11680025D3*
X4451111Y11680022D3*
X4351111Y11680020D3*
X4251111Y11680018D3*
X4151111Y11680016D3*
X3851111Y11680009D3*
X3751111Y11680007D3*
X3651111Y11680005D3*
X3551111Y11680003D3*
X3451111Y11680000D3*
X3351111Y11679998D3*
X3251111Y11679996D3*
X3151111Y11679994D3*
X3051111Y11679992D3*
X2951111Y11679989D3*
X2851111Y11679987D3*
X2751111Y11679985D3*
X2651111Y11679983D3*
X2551111Y11679981D3*
X2451111Y11679978D3*
X2351111Y11679976D3*
X2251111Y11679974D3*
X2151111Y11679972D3*
X2051111Y11679970D3*
X1951111Y11679967D3*
X1851111Y11679965D3*
D32*
X5631109Y11750048D3*
X1371109Y11749955D3*
D138*
X3773099Y1450001D3*
D136*
X4169099D3*
D135*
X4857099Y1479957D3*
D133*
X5253099Y1479986D3*
X5649099Y1480015D3*
X6045099Y1480044D3*
D138*
X6606097Y1479902D3*
D136*
X7002097Y1479942D3*
X7398097Y1479981D3*
X7794097Y1480021D3*
X8190097Y1480061D3*
X8586097Y1480100D3*
D132*
X10151111Y11680038D3*
X10051111Y11680036D3*
X9951111Y11680033D3*
X9851111Y11680031D3*
X9751111Y11680029D3*
X9651111Y11680027D3*
X9551111Y11680025D3*
X9451111Y11680022D3*
X9351111Y11680020D3*
X9251111Y11680018D3*
X9151111Y11680016D3*
X8851111Y11680009D3*
X8751111Y11680007D3*
X8651111Y11680005D3*
X8551111Y11680003D3*
X8451111Y11680000D3*
X8351111Y11679998D3*
X8251111Y11679996D3*
X8151111Y11679994D3*
X8051111Y11679992D3*
X7951111Y11679989D3*
X7851111Y11679987D3*
X7751111Y11679985D3*
X7651111Y11679983D3*
X7551111Y11679981D3*
X7451111Y11679978D3*
X7351111Y11679976D3*
X7251111Y11679974D3*
X7151111Y11679972D3*
X7051111Y11679970D3*
X6951111Y11679967D3*
X6851111Y11679965D3*
D32*
X10631109Y11750048D3*
X6371109Y11749955D3*
D135*
X9132100Y1479968D3*
D133*
X9528100Y1479992D3*
X9924100Y1480015D3*
X10320100Y1480038D3*
D131*
X12146099Y3995001D3*
D129*
X11892099D3*
X11638099D3*
X11384099D3*
D128*
X12256099Y3095001D3*
D126*
X12046099D3*
X11846099D3*
X11646099D3*
X11446099D3*
X11236099D3*
D125*
X11137099Y3628001D3*
X12096099Y2181001D3*
X11391099Y3628001D3*
X11846099Y2181001D3*
X12101099Y3628001D3*
X11646099Y2181001D3*
X12355099Y3628001D3*
D123*
X11396099Y2181001D3*
D122*
X12552599Y2722001D3*
X10939599D3*
X12552599Y1660001D3*
X10939599D3*
D120*
X11089599Y1911001D3*
X12402599D3*
D132*
X15151099Y11680001D3*
X15051099D3*
X14951099D3*
X14851099D3*
X14751099D3*
X14651099D3*
X14551099D3*
X14451099D3*
X14351099D3*
X14251099D3*
X14151099D3*
X13851099D3*
X13751099D3*
X13651099D3*
X13551099D3*
X13451099D3*
X13351099D3*
X13251099D3*
X13151099D3*
X13051099D3*
X12951099D3*
X12851099D3*
X12751099D3*
X12651099D3*
X12551099D3*
X12451099D3*
X12351099D3*
X12251099D3*
X12151099D3*
X12051099D3*
X11951099D3*
X11851099D3*
D32*
X15631099Y11750001D3*
X11371099D3*
D141*
X13041098Y1340001D3*
D139*
X13291098Y1340007D3*
X13541098Y1340012D3*
X13791098Y1340018D3*
X14041098Y1340023D3*
X14291098Y1340029D3*
D141*
X12561099Y4590001D3*
D139*
X12311099D3*
X12061099D3*
X11811099D3*
D118*
X14866102Y1344995D3*
D116*
X15247102Y1345006D3*
X15628102Y1345017D3*
X16009102Y1345028D3*
D118*
X16491102Y1345005D3*
D116*
X16872102Y1345016D3*
X17253102Y1345027D3*
X17634102Y1345038D3*
D141*
X20601103Y2950031D3*
D139*
X20351103Y2950006D3*
X20101104Y2949981D3*
X19851104Y2949956D3*
X19601104Y2949931D3*
X19351104Y2949906D3*
D141*
X18251099Y1340001D3*
D139*
X18501099D3*
X18751099D3*
X19001099D3*
D141*
X18501100Y2950005D3*
D139*
X18251100Y2949991D3*
D132*
X20151099Y11680001D3*
X20051099D3*
X19951099D3*
X19851099D3*
X19751099D3*
X19651099D3*
X19551099D3*
X19451099D3*
X19351099D3*
X19251099D3*
X19151099D3*
X18851099D3*
X18751099D3*
X18651099D3*
X18551099D3*
X18451099D3*
X18351099D3*
X18251099D3*
X18151099D3*
X18051099D3*
X17951099D3*
X17851099D3*
X17751099D3*
X17651099D3*
X17551099D3*
X17451099D3*
X17351099D3*
X17251099D3*
X17151099D3*
X17051099D3*
X16951099D3*
X16851099D3*
D32*
X20631099Y11750001D3*
X16371099D3*
D141*
X19626103Y1340008D3*
D139*
X19876103D3*
D141*
X15351078Y5450002D3*
D139*
X15101078Y5449983D3*
X14851078Y5449965D3*
X14601078Y5449947D3*
X14351078Y5449928D3*
X14101078Y5449910D3*
X13851078Y5449891D3*
X13601078Y5449873D3*
X13351078Y5449855D3*
D141*
X15351075Y3850015D3*
D139*
X15101075Y3849997D3*
X14851075Y3849978D3*
X14601075Y3849960D3*
X14351075Y3849941D3*
X14101075Y3849923D3*
X13851075Y3849905D3*
X13601075Y3849886D3*
X13351075Y3849868D3*
D141*
X17976078Y5450002D3*
D139*
X17726078Y5449983D3*
X17476078Y5449965D3*
X17226078Y5449947D3*
X16976078Y5449928D3*
X16726078Y5449910D3*
X16476078Y5449891D3*
X16226078Y5449873D3*
X15976078Y5449855D3*
D141*
X17976072Y3850028D3*
D139*
X17726072Y3850010D3*
X17476072Y3849992D3*
X17226072Y3849973D3*
X16976072Y3849955D3*
X16726072Y3849936D3*
X16476072Y3849918D3*
X16226072Y3849900D3*
X15976072Y3849881D3*
D115*
X17051099Y7250001D3*
D113*
Y7504001D3*
X17305099Y7250001D3*
Y7504001D3*
X17559099Y7250001D3*
Y7504001D3*
X17813099Y7250001D3*
Y7504001D3*
X18067099Y7250001D3*
Y7504001D3*
D89*
X16162099Y7352001D3*
X18956099D3*
D115*
X17051099Y6250001D3*
D113*
Y6504001D3*
X17305099Y6250001D3*
Y6504001D3*
X17559099Y6250001D3*
Y6504001D3*
X17813099Y6250001D3*
Y6504001D3*
X18067099Y6250001D3*
Y6504001D3*
D89*
X16162099Y6352001D3*
X18956099D3*
D141*
X16201100Y8400002D3*
D139*
X16451100Y8400011D3*
X16701100Y8400020D3*
X16951100Y8400029D3*
X17201100Y8400039D3*
X17451100Y8400048D3*
D141*
X20626099Y10300001D3*
D139*
Y10550001D3*
Y10800001D3*
D131*
X20058602Y9207502D3*
D129*
X20058594Y9461502D3*
X20058585Y9715502D3*
X20058577Y9969502D3*
D141*
X20626099Y8370001D3*
D139*
Y8620001D3*
Y8870001D3*
D141*
X20601075Y5450015D3*
D139*
X20351075Y5449997D3*
X20101075Y5449978D3*
X19851075Y5449960D3*
X19601075Y5449941D3*
X19351075Y5449923D3*
X19101075Y5449905D3*
X18851075Y5449886D3*
X18601075Y5449868D3*
D141*
X20601075Y3850015D3*
D139*
X20351075Y3849997D3*
X20101075Y3849978D3*
X19851075Y3849960D3*
X19601075Y3849941D3*
X19351075Y3849923D3*
X19101075Y3849905D3*
X18851075Y3849886D3*
X18601075Y3849868D3*
D141*
X19526099Y7450001D3*
D139*
X19776099D3*
X20026099D3*
X20276099D3*
X20526099D3*
D141*
X19526099Y6450001D3*
D139*
X19776099D3*
X20026099D3*
X20276099D3*
X20526099D3*
D141*
X18076103Y8400022D3*
D139*
X18326103Y8400031D3*
X18576103Y8400040D3*
X18826103Y8400049D3*
X19076103Y8400059D3*
X19326103Y8400068D3*
D274*
X9020513Y4930599D3*
D108*
X8481686Y5469404D3*
D107*
X1573733Y1572635D3*
D106*
X1411099Y1410001D3*
D107*
Y1180001D3*
X1181099Y1410001D3*
X1248466Y1572635D3*
X1641099Y1410001D3*
X1573733Y1247368D3*
X1248466D3*
X1411099Y1640001D3*
X1573733Y9752635D3*
D106*
X1411099Y9590001D3*
D107*
Y9360001D3*
X1181099Y9590001D3*
X1248466Y9752635D3*
X1641099Y9590001D3*
X1573733Y9427368D3*
X1248466D3*
X1411099Y9820001D3*
X20753733Y9752635D3*
D106*
X20591099Y9590001D3*
D107*
Y9360001D3*
X20361099Y9590001D3*
X20428466Y9752635D3*
X20821099Y9590001D3*
X20753733Y9427368D3*
X20428466D3*
X20591099Y9820001D3*
X11163733Y5662635D3*
D106*
X11001099Y5500001D3*
D107*
Y5270001D3*
X10771099Y5500001D3*
X10838466Y5662635D3*
X11231099Y5500001D3*
X11163733Y5337368D3*
X10838466D3*
X11001099Y5730001D3*
X20753733Y1572635D3*
D106*
X20591099Y1410001D3*
D107*
Y1180001D3*
X20361099Y1410001D3*
X20428466Y1572635D3*
X20821099Y1410001D3*
X20753733Y1247368D3*
X20428466D3*
X20591099Y1640001D3*
M02*
