G04 DipTrace 5.2.0.4*
G04 BottomSilk.gbr*
%MOMM*%
G04 #@! TF.FileFunction,Legend,Bot*
G04 #@! TF.Part,Single*
%ADD10C,0.1*%
%ADD148C,0.16667*%
%FSLAX35Y35*%
G04*
G71*
G90*
G75*
G01*
G04 BotSilk*
%LPD*%
X1061104Y11999948D2*
D10*
X1061117Y11374948D1*
X5941117Y11370055D1*
X5941104Y12000055D1*
X6061104Y11999948D2*
X6061117Y11374948D1*
X10941117Y11370055D1*
X10941104Y12000055D1*
X11061099Y12000001D2*
Y11375001D1*
X15941099Y11370001D1*
Y12000001D1*
X16061099D2*
Y11375001D1*
X20941099Y11370001D1*
Y12000001D1*
X20861949Y10255493D2*
D148*
X20869192Y10252595D1*
X20876520Y10246733D1*
X20880142Y10240938D1*
Y10229280D1*
X20876520Y10223418D1*
X20869192Y10217623D1*
X20861949Y10214658D1*
X20850999Y10211760D1*
X20832720D1*
X20821855Y10214658D1*
X20814527Y10217623D1*
X20807283Y10223418D1*
X20803577Y10229280D1*
Y10240938D1*
X20807283Y10246733D1*
X20814527Y10252595D1*
X20821855Y10255493D1*
X20832720D1*
Y10240938D1*
X20880142Y10322994D2*
X20803577D1*
X20880142Y10282159D1*
X20803577D1*
X20880142Y10349661D2*
X20803577D1*
Y10370079D1*
X20807283Y10378839D1*
X20814527Y10384701D1*
X20821855Y10387599D1*
X20832720Y10390496D1*
X20850999D1*
X20861949Y10387599D1*
X20869192Y10384701D1*
X20876520Y10378839D1*
X20880142Y10370079D1*
Y10349661D1*
X20861949Y10508424D2*
X20869192Y10505526D1*
X20876520Y10499664D1*
X20880142Y10493869D1*
Y10482211D1*
X20876520Y10476349D1*
X20869192Y10470554D1*
X20861949Y10467589D1*
X20850999Y10464691D1*
X20832720D1*
X20821855Y10467589D1*
X20814527Y10470554D1*
X20807283Y10476349D1*
X20803577Y10482211D1*
Y10493869D1*
X20807283Y10499664D1*
X20814527Y10505526D1*
X20821855Y10508424D1*
X20861864Y10538056D2*
X20865486D1*
X20872814Y10540953D1*
X20876436Y10543851D1*
X20880058Y10549713D1*
Y10561371D1*
X20876436Y10567166D1*
X20872814Y10570063D1*
X20865486Y10573028D1*
X20858242D1*
X20850914Y10570063D1*
X20840049Y10564268D1*
X20803577Y10535091D1*
Y10575926D1*
X20880142Y10602592D2*
X20803577D1*
Y10637565D1*
X20861949Y10752993D2*
X20869192Y10750095D1*
X20876520Y10744233D1*
X20880142Y10738438D1*
Y10726780D1*
X20876520Y10720918D1*
X20869192Y10715123D1*
X20861949Y10712158D1*
X20850999Y10709260D1*
X20832720D1*
X20821855Y10712158D1*
X20814527Y10715123D1*
X20807283Y10720918D1*
X20803577Y10726780D1*
Y10738438D1*
X20807283Y10744233D1*
X20814527Y10750095D1*
X20821855Y10752993D1*
X20861864Y10782624D2*
X20865486D1*
X20872814Y10785522D1*
X20876436Y10788419D1*
X20880058Y10794282D1*
Y10805939D1*
X20876436Y10811734D1*
X20872814Y10814632D1*
X20865486Y10817597D1*
X20858242D1*
X20850914Y10814632D1*
X20840049Y10808837D1*
X20803577Y10779659D1*
Y10820494D1*
X20880142Y10847161D2*
X20803577D1*
X20880142Y10887996D2*
X20803577D1*
X20843670Y10847161D2*
Y10887996D1*
X20861949Y8325493D2*
X20869192Y8322595D1*
X20876520Y8316733D1*
X20880142Y8310938D1*
Y8299280D1*
X20876520Y8293418D1*
X20869192Y8287623D1*
X20861949Y8284658D1*
X20850999Y8281760D1*
X20832720D1*
X20821855Y8284658D1*
X20814527Y8287623D1*
X20807283Y8293418D1*
X20803577Y8299280D1*
Y8310938D1*
X20807283Y8316733D1*
X20814527Y8322595D1*
X20821855Y8325493D1*
X20832720D1*
Y8310938D1*
X20880142Y8392994D2*
X20803577D1*
X20880142Y8352159D1*
X20803577D1*
X20880142Y8419661D2*
X20803577D1*
Y8440079D1*
X20807283Y8448839D1*
X20814527Y8454701D1*
X20821855Y8457599D1*
X20832720Y8460496D1*
X20850999D1*
X20861949Y8457599D1*
X20869192Y8454701D1*
X20876520Y8448839D1*
X20880142Y8440079D1*
Y8419661D1*
X20861949Y8578424D2*
X20869192Y8575526D1*
X20876520Y8569664D1*
X20880142Y8563869D1*
Y8552211D1*
X20876520Y8546349D1*
X20869192Y8540554D1*
X20861949Y8537589D1*
X20850999Y8534691D1*
X20832720D1*
X20821855Y8537589D1*
X20814527Y8540554D1*
X20807283Y8546349D1*
X20803577Y8552211D1*
Y8563869D1*
X20807283Y8569664D1*
X20814527Y8575526D1*
X20821855Y8578424D1*
X20861864Y8608056D2*
X20865486D1*
X20872814Y8610953D1*
X20876436Y8613851D1*
X20880058Y8619713D1*
Y8631371D1*
X20876436Y8637166D1*
X20872814Y8640063D1*
X20865486Y8643028D1*
X20858242D1*
X20850914Y8640063D1*
X20840049Y8634268D1*
X20803577Y8605091D1*
Y8645926D1*
X20880142Y8672592D2*
X20803577D1*
Y8707565D1*
X20861949Y8822993D2*
X20869192Y8820095D1*
X20876520Y8814233D1*
X20880142Y8808438D1*
Y8796780D1*
X20876520Y8790918D1*
X20869192Y8785123D1*
X20861949Y8782158D1*
X20850999Y8779260D1*
X20832720D1*
X20821855Y8782158D1*
X20814527Y8785123D1*
X20807283Y8790918D1*
X20803577Y8796780D1*
Y8808438D1*
X20807283Y8814233D1*
X20814527Y8820095D1*
X20821855Y8822993D1*
X20861864Y8852624D2*
X20865486D1*
X20872814Y8855522D1*
X20876436Y8858419D1*
X20880058Y8864282D1*
Y8875939D1*
X20876436Y8881734D1*
X20872814Y8884632D1*
X20865486Y8887597D1*
X20858242D1*
X20850914Y8884632D1*
X20840049Y8878837D1*
X20803577Y8849659D1*
Y8890494D1*
X20880142Y8917161D2*
X20803577D1*
X20880142Y8957996D2*
X20803577D1*
X20843670Y8917161D2*
Y8957996D1*
X5188687Y11239581D2*
X5112121Y11239579D1*
Y11265859D1*
X5115827Y11274620D1*
X5119449Y11277517D1*
X5126692Y11280415D1*
X5137642D1*
X5144971Y11277518D1*
X5148593Y11274620D1*
X5152215Y11265860D1*
X5155921Y11274620D1*
X5159543Y11277518D1*
X5166786Y11280416D1*
X5174114D1*
X5181358Y11277519D1*
X5185064Y11274621D1*
X5188687Y11265861D1*
Y11239581D1*
X5152215Y11239580D2*
Y11265860D1*
X5174030Y11307083D2*
X5177736Y11312945D1*
X5188601Y11321705D1*
X5112120Y11321704D1*
X4188688Y11198270D2*
X4112122Y11198268D1*
Y11224548D1*
X4115828Y11233308D1*
X4119450Y11236206D1*
X4126693Y11239104D1*
X4137643D1*
X4144971Y11236207D1*
X4148593Y11233309D1*
X4152216Y11224549D1*
X4155922Y11233309D1*
X4159543Y11236207D1*
X4166787Y11239105D1*
X4174115D1*
X4181359Y11236207D1*
X4185065Y11233310D1*
X4188688Y11224550D1*
Y11198270D1*
X4152216Y11198269D2*
Y11224549D1*
X4174030Y11265771D2*
X4177736Y11271634D1*
X4188602Y11280394D1*
X4112121Y11280392D1*
X4174030Y11307061D2*
X4177736Y11312923D1*
X4188601Y11321683D1*
X4112120Y11321682D1*
X3888689Y11172051D2*
X3812123Y11172049D1*
X3812122Y11198329D1*
X3815828Y11207089D1*
X3819450Y11209987D1*
X3826694Y11212884D1*
X3837644Y11212885D1*
X3844972Y11209987D1*
X3848594Y11207090D1*
X3852216Y11198330D1*
X3855922Y11207090D1*
X3859544Y11209988D1*
X3866788Y11212885D1*
X3874116Y11212886D1*
X3881360Y11209988D1*
X3885066Y11207091D1*
X3888688Y11198331D1*
X3888689Y11172051D1*
X3852217Y11172050D2*
X3852216Y11198330D1*
X3874031Y11239552D2*
X3877737Y11245415D1*
X3888603Y11254175D1*
X3812121Y11254173D1*
X3870408Y11283806D2*
X3874030D1*
X3881358Y11286704D1*
X3884980Y11289602D1*
X3888602Y11295464D1*
X3888601Y11307122D1*
X3884979Y11312917D1*
X3881357Y11315814D1*
X3874029Y11318779D1*
X3866785D1*
X3859457Y11315814D1*
X3848592Y11310018D1*
X3812121Y11280840D1*
X3812120Y11321675D1*
X1888689Y11145794D2*
X1812123Y11145792D1*
Y11172072D1*
X1815829Y11180832D1*
X1819451Y11183730D1*
X1826695Y11186628D1*
X1837645D1*
X1844973Y11183731D1*
X1848595Y11180833D1*
X1852217Y11172073D1*
X1855923Y11180833D1*
X1859545Y11183731D1*
X1866788Y11186629D1*
X1874116D1*
X1881360Y11183731D1*
X1885067Y11180834D1*
X1888689Y11172074D1*
Y11145794D1*
X1852217Y11145793D2*
Y11172073D1*
X1888603Y11219158D2*
Y11251166D1*
X1859459Y11233713D1*
Y11242473D1*
X1855837Y11248268D1*
X1852215Y11251165D1*
X1841265Y11254130D1*
X1834021D1*
X1823071Y11251165D1*
X1815743Y11245369D1*
X1812121Y11236609D1*
X1812122Y11227849D1*
X1815744Y11219157D1*
X1819450Y11216259D1*
X1826694Y11213294D1*
X1870408Y11283762D2*
X1874030D1*
X1881358Y11286660D1*
X1884980Y11289557D1*
X1888602Y11295420D1*
X1888601Y11307078D1*
X1884979Y11312873D1*
X1881357Y11315770D1*
X1874029Y11318735D1*
X1866785D1*
X1859457Y11315770D1*
X1848592Y11309974D1*
X1812121Y11280796D1*
X1812120Y11321631D1*
X10188687Y11239581D2*
X10112121Y11239579D1*
Y11265859D1*
X10115827Y11274620D1*
X10119449Y11277517D1*
X10126692Y11280415D1*
X10137642D1*
X10144971Y11277518D1*
X10148593Y11274620D1*
X10152215Y11265860D1*
X10155921Y11274620D1*
X10159543Y11277518D1*
X10166786Y11280416D1*
X10174114D1*
X10181358Y11277519D1*
X10185064Y11274621D1*
X10188687Y11265861D1*
Y11239581D1*
X10152215Y11239580D2*
Y11265860D1*
X10174030Y11307083D2*
X10177736Y11312945D1*
X10188601Y11321705D1*
X10112120Y11321704D1*
X9188688Y11198270D2*
X9112122Y11198268D1*
Y11224548D1*
X9115828Y11233308D1*
X9119450Y11236206D1*
X9126693Y11239104D1*
X9137643D1*
X9144971Y11236207D1*
X9148593Y11233309D1*
X9152216Y11224549D1*
X9155922Y11233309D1*
X9159543Y11236207D1*
X9166787Y11239105D1*
X9174115D1*
X9181359Y11236207D1*
X9185065Y11233310D1*
X9188688Y11224550D1*
Y11198270D1*
X9152216Y11198269D2*
Y11224549D1*
X9174030Y11265771D2*
X9177736Y11271634D1*
X9188602Y11280394D1*
X9112121Y11280392D1*
X9174030Y11307061D2*
X9177736Y11312923D1*
X9188601Y11321683D1*
X9112120Y11321682D1*
X8888689Y11172051D2*
X8812123Y11172049D1*
X8812122Y11198329D1*
X8815828Y11207089D1*
X8819450Y11209987D1*
X8826694Y11212884D1*
X8837644Y11212885D1*
X8844972Y11209987D1*
X8848594Y11207090D1*
X8852216Y11198330D1*
X8855922Y11207090D1*
X8859544Y11209988D1*
X8866788Y11212885D1*
X8874116Y11212886D1*
X8881360Y11209988D1*
X8885066Y11207091D1*
X8888688Y11198331D1*
X8888689Y11172051D1*
X8852217Y11172050D2*
X8852216Y11198330D1*
X8874031Y11239552D2*
X8877737Y11245415D1*
X8888603Y11254175D1*
X8812121Y11254173D1*
X8870408Y11283806D2*
X8874030D1*
X8881358Y11286704D1*
X8884980Y11289602D1*
X8888602Y11295464D1*
X8888601Y11307122D1*
X8884979Y11312917D1*
X8881357Y11315814D1*
X8874029Y11318779D1*
X8866785D1*
X8859457Y11315814D1*
X8848592Y11310018D1*
X8812121Y11280840D1*
X8812120Y11321675D1*
X6888689Y11145794D2*
X6812123Y11145792D1*
Y11172072D1*
X6815829Y11180832D1*
X6819451Y11183730D1*
X6826695Y11186628D1*
X6837645D1*
X6844973Y11183731D1*
X6848595Y11180833D1*
X6852217Y11172073D1*
X6855923Y11180833D1*
X6859545Y11183731D1*
X6866788Y11186629D1*
X6874116D1*
X6881360Y11183731D1*
X6885067Y11180834D1*
X6888689Y11172074D1*
Y11145794D1*
X6852217Y11145793D2*
Y11172073D1*
X6888603Y11219158D2*
Y11251166D1*
X6859459Y11233713D1*
Y11242473D1*
X6855837Y11248268D1*
X6852215Y11251165D1*
X6841265Y11254130D1*
X6834021D1*
X6823071Y11251165D1*
X6815743Y11245369D1*
X6812121Y11236609D1*
X6812122Y11227849D1*
X6815744Y11219157D1*
X6819450Y11216259D1*
X6826694Y11213294D1*
X6870408Y11283762D2*
X6874030D1*
X6881358Y11286660D1*
X6884980Y11289557D1*
X6888602Y11295420D1*
X6888601Y11307078D1*
X6884979Y11312873D1*
X6881357Y11315770D1*
X6874029Y11318735D1*
X6866785D1*
X6859457Y11315770D1*
X6848592Y11309974D1*
X6812121Y11280796D1*
X6812120Y11321631D1*
X15188666Y11239544D2*
X15112101D1*
Y11265824D1*
X15115807Y11274584D1*
X15119429Y11277481D1*
X15126673Y11280379D1*
X15137623D1*
X15144951Y11277481D1*
X15148573Y11274584D1*
X15152194Y11265824D1*
X15155901Y11274584D1*
X15159523Y11277481D1*
X15166766Y11280379D1*
X15174094D1*
X15181338Y11277481D1*
X15185044Y11274584D1*
X15188666Y11265824D1*
Y11239544D1*
X15152194D2*
Y11265824D1*
X15174010Y11307046D2*
X15177716Y11312908D1*
X15188582Y11321668D1*
X15112101D1*
X14188666Y11198255D2*
X14112101D1*
Y11224535D1*
X14115807Y11233295D1*
X14119429Y11236192D1*
X14126673Y11239090D1*
X14137623D1*
X14144951Y11236192D1*
X14148573Y11233295D1*
X14152194Y11224535D1*
X14155901Y11233295D1*
X14159523Y11236192D1*
X14166766Y11239090D1*
X14174094D1*
X14181338Y11236192D1*
X14185044Y11233295D1*
X14188666Y11224535D1*
Y11198255D1*
X14152194D2*
Y11224535D1*
X14174010Y11265757D2*
X14177716Y11271619D1*
X14188582Y11280379D1*
X14112101D1*
X14174010Y11307046D2*
X14177716Y11312908D1*
X14188582Y11321668D1*
X14112101D1*
X13888666Y11172042D2*
X13812101D1*
Y11198322D1*
X13815807Y11207082D1*
X13819429Y11209980D1*
X13826673Y11212877D1*
X13837623D1*
X13844951Y11209980D1*
X13848573Y11207082D1*
X13852194Y11198322D1*
X13855901Y11207082D1*
X13859523Y11209980D1*
X13866766Y11212877D1*
X13874094D1*
X13881338Y11209980D1*
X13885044Y11207082D1*
X13888666Y11198322D1*
Y11172042D1*
X13852194D2*
Y11198322D1*
X13874010Y11239544D2*
X13877716Y11245406D1*
X13888582Y11254166D1*
X13812101D1*
X13870388Y11283798D2*
X13874010D1*
X13881338Y11286696D1*
X13884960Y11289593D1*
X13888582Y11295456D1*
Y11307113D1*
X13884960Y11312908D1*
X13881338Y11315806D1*
X13874010Y11318771D1*
X13866766D1*
X13859438Y11315806D1*
X13848573Y11310011D1*
X13812101Y11280833D1*
Y11321668D1*
X11888666Y11145830D2*
X11812101D1*
Y11172110D1*
X11815807Y11180870D1*
X11819429Y11183767D1*
X11826673Y11186665D1*
X11837623D1*
X11844951Y11183767D1*
X11848573Y11180870D1*
X11852194Y11172110D1*
X11855901Y11180870D1*
X11859523Y11183767D1*
X11866766Y11186665D1*
X11874094D1*
X11881338Y11183767D1*
X11885044Y11180870D1*
X11888666Y11172110D1*
Y11145830D1*
X11852194D2*
Y11172110D1*
X11888582Y11219194D2*
Y11251201D1*
X11859438Y11233749D1*
Y11242509D1*
X11855816Y11248304D1*
X11852194Y11251201D1*
X11841244Y11254166D1*
X11834001D1*
X11823051Y11251201D1*
X11815723Y11245406D1*
X11812101Y11236646D1*
Y11227886D1*
X11815723Y11219194D1*
X11819429Y11216296D1*
X11826673Y11213331D1*
X11870388Y11283798D2*
X11874010D1*
X11881338Y11286696D1*
X11884960Y11289593D1*
X11888582Y11295456D1*
Y11307113D1*
X11884960Y11312908D1*
X11881338Y11315806D1*
X11874010Y11318771D1*
X11866766D1*
X11859438Y11315806D1*
X11848573Y11310011D1*
X11812101Y11280833D1*
Y11321668D1*
X20188666Y11239544D2*
X20112101D1*
Y11265824D1*
X20115807Y11274584D1*
X20119429Y11277481D1*
X20126673Y11280379D1*
X20137623D1*
X20144951Y11277481D1*
X20148573Y11274584D1*
X20152194Y11265824D1*
X20155901Y11274584D1*
X20159523Y11277481D1*
X20166766Y11280379D1*
X20174094D1*
X20181338Y11277481D1*
X20185044Y11274584D1*
X20188666Y11265824D1*
Y11239544D1*
X20152194D2*
Y11265824D1*
X20174010Y11307046D2*
X20177716Y11312908D1*
X20188582Y11321668D1*
X20112101D1*
X19188666Y11198255D2*
X19112101D1*
Y11224535D1*
X19115807Y11233295D1*
X19119429Y11236192D1*
X19126673Y11239090D1*
X19137623D1*
X19144951Y11236192D1*
X19148573Y11233295D1*
X19152194Y11224535D1*
X19155901Y11233295D1*
X19159523Y11236192D1*
X19166766Y11239090D1*
X19174094D1*
X19181338Y11236192D1*
X19185044Y11233295D1*
X19188666Y11224535D1*
Y11198255D1*
X19152194D2*
Y11224535D1*
X19174010Y11265757D2*
X19177716Y11271619D1*
X19188582Y11280379D1*
X19112101D1*
X19174010Y11307046D2*
X19177716Y11312908D1*
X19188582Y11321668D1*
X19112101D1*
X18888666Y11172042D2*
X18812101D1*
Y11198322D1*
X18815807Y11207082D1*
X18819429Y11209980D1*
X18826673Y11212877D1*
X18837623D1*
X18844951Y11209980D1*
X18848573Y11207082D1*
X18852194Y11198322D1*
X18855901Y11207082D1*
X18859523Y11209980D1*
X18866766Y11212877D1*
X18874094D1*
X18881338Y11209980D1*
X18885044Y11207082D1*
X18888666Y11198322D1*
Y11172042D1*
X18852194D2*
Y11198322D1*
X18874010Y11239544D2*
X18877716Y11245406D1*
X18888582Y11254166D1*
X18812101D1*
X18870388Y11283798D2*
X18874010D1*
X18881338Y11286696D1*
X18884960Y11289593D1*
X18888582Y11295456D1*
Y11307113D1*
X18884960Y11312908D1*
X18881338Y11315806D1*
X18874010Y11318771D1*
X18866766D1*
X18859438Y11315806D1*
X18848573Y11310011D1*
X18812101Y11280833D1*
Y11321668D1*
X16888666Y11145830D2*
X16812101D1*
Y11172110D1*
X16815807Y11180870D1*
X16819429Y11183767D1*
X16826673Y11186665D1*
X16837623D1*
X16844951Y11183767D1*
X16848573Y11180870D1*
X16852194Y11172110D1*
X16855901Y11180870D1*
X16859523Y11183767D1*
X16866766Y11186665D1*
X16874094D1*
X16881338Y11183767D1*
X16885044Y11180870D1*
X16888666Y11172110D1*
Y11145830D1*
X16852194D2*
Y11172110D1*
X16888582Y11219194D2*
Y11251201D1*
X16859438Y11233749D1*
Y11242509D1*
X16855816Y11248304D1*
X16852194Y11251201D1*
X16841244Y11254166D1*
X16834001D1*
X16823051Y11251201D1*
X16815723Y11245406D1*
X16812101Y11236646D1*
Y11227886D1*
X16815723Y11219194D1*
X16819429Y11216296D1*
X16826673Y11213331D1*
X16870388Y11283798D2*
X16874010D1*
X16881338Y11286696D1*
X16884960Y11289593D1*
X16888582Y11295456D1*
Y11307113D1*
X16884960Y11312908D1*
X16881338Y11315806D1*
X16874010Y11318771D1*
X16866766D1*
X16859438Y11315806D1*
X16848573Y11310011D1*
X16812101Y11280833D1*
Y11321668D1*
M02*
