G04 DipTrace 5.2.0.4*
G04 BottomAssembly.gbr*
%MOMM*%
G04 #@! TF.FileFunction,Drawing,Bot*
G04 #@! TF.Part,Single*
%ADD13C,0.12*%
%ADD121C,0.15686*%
%FSLAX35Y35*%
G04*
G71*
G90*
G75*
G01*
G04 BotAssy*
%LPD*%
X4946998Y4852996D2*
D13*
X4947002Y4756996D1*
X5123002Y4757004D1*
X5122998Y4853004D1*
X4946998Y4852996D1*
Y4562996D2*
X4947002Y4466996D1*
X5123002Y4467004D1*
X5122998Y4563004D1*
X4946998Y4562996D1*
Y4707996D2*
X4947002Y4611996D1*
X5123002Y4612004D1*
X5122998Y4708004D1*
X4946998Y4707996D1*
X6216253Y5065005D2*
X6216247Y5130005D1*
X6098747Y5129995D1*
X6098753Y5064995D1*
X6216253Y5065005D1*
X5563752Y4870003D2*
X5563748Y4935003D1*
X5446248Y4934997D1*
X5446252Y4869997D1*
X5563752Y4870003D1*
X5425005Y4648747D2*
X5490005Y4648753D1*
X5489995Y4766253D1*
X5424995Y4766247D1*
X5425005Y4648747D1*
X5942503Y4843748D2*
X6007503Y4843752D1*
X6007497Y4961252D1*
X5942497Y4961248D1*
X5942503Y4843748D1*
X6281254Y4405006D2*
X6281246Y4470006D1*
X6163746Y4469994D1*
X6163754Y4404994D1*
X6281254Y4405006D1*
X6281253Y4310006D2*
X6281247Y4375006D1*
X6163747Y4374994D1*
X6163753Y4309994D1*
X6281253Y4310006D1*
X5333747Y5549995D2*
X5333753Y5484995D1*
X5451253Y5485005D1*
X5451247Y5550005D1*
X5333747Y5549995D1*
X4976252Y5250003D2*
X4976248Y5185003D1*
X5093748Y5184997D1*
X5093752Y5249997D1*
X4976252Y5250003D1*
X5866248Y5252497D2*
X5866252Y5187497D1*
X5983752Y5187503D1*
X5983748Y5252503D1*
X5866248Y5252497D1*
X5942502Y5028749D2*
X6007502Y5028751D1*
X6007498Y5146251D1*
X5942498Y5146249D1*
X5942502Y5028749D1*
X5631251Y5160002D2*
X5631249Y5225002D1*
X5513749Y5224998D1*
X5513751Y5159998D1*
X5631251Y5160002D1*
X5333748Y5457497D2*
X5333752Y5392497D1*
X5451252Y5392503D1*
X5451248Y5457503D1*
X5333748Y5457497D1*
X4946997Y4997995D2*
X4947003Y4901995D1*
X5123003Y4902005D1*
X5122997Y4998005D1*
X4946997Y4997995D1*
X4947003Y5145505D2*
X4946997Y5049505D1*
X5122997Y5049495D1*
X5123003Y5145495D1*
X4947003Y5145505D1*
X6303005Y5439508D2*
X6302995Y5535508D1*
X6126995Y5535492D1*
X6127005Y5439492D1*
X6303005Y5439508D1*
X5815488Y3111435D2*
X5861452Y3065475D1*
X5944532Y3148565D1*
X5898568Y3194525D1*
X5815488Y3111435D1*
X5568575Y3055477D2*
X5614534Y3101442D1*
X5531445Y3184523D1*
X5485486Y3138558D1*
X5568575Y3055477D1*
X5612033Y2816065D2*
X5566068Y2862024D1*
X5482987Y2778935D1*
X5528952Y2732976D1*
X5612033Y2816065D1*
X5952507Y2858752D2*
X5887507Y2858748D1*
X5887513Y2741248D1*
X5952513Y2741252D1*
X5952507Y2858752D1*
X5891258Y2472497D2*
X5891262Y2407497D1*
X6008762Y2407503D1*
X6008758Y2472503D1*
X5891258Y2472497D1*
X5558576Y2905478D2*
X5604535Y2951443D1*
X5521444Y3034522D1*
X5475485Y2988557D1*
X5558576Y2905478D1*
X5117507Y2618752D2*
X5052507Y2618748D1*
X5052513Y2501248D1*
X5117513Y2501252D1*
X5117507Y2618752D1*
X5060013Y3301248D2*
X5125013Y3301252D1*
X5125007Y3418752D1*
X5060007Y3418748D1*
X5060013Y3301248D1*
X5258753Y2967505D2*
X5258747Y3032505D1*
X5141247Y3032495D1*
X5141253Y2967495D1*
X5258753Y2967505D1*
X6011258Y3612497D2*
X6011262Y3547497D1*
X6128762Y3547503D1*
X6128758Y3612503D1*
X6011258Y3612497D1*
X5808752Y3527503D2*
X5808748Y3592503D1*
X5691248Y3592497D1*
X5691252Y3527497D1*
X5808752Y3527503D1*
X5718575Y3065477D2*
X5764534Y3111442D1*
X5681445Y3194523D1*
X5635486Y3148558D1*
X5718575Y3065477D1*
X5408762Y3527503D2*
X5408758Y3592503D1*
X5291258Y3592497D1*
X5291262Y3527497D1*
X5408762Y3527503D1*
X6357513Y3301248D2*
X6422513Y3301252D1*
X6422507Y3418752D1*
X6357507Y3418748D1*
X6357513Y3301248D1*
X6396262Y2487504D2*
X6396258Y2552504D1*
X6278758Y2552496D1*
X6278762Y2487496D1*
X6396262Y2487504D1*
X6317513Y2821248D2*
X6382513Y2821252D1*
X6382507Y2938752D1*
X6317507Y2938748D1*
X6317513Y2821248D1*
X5811258Y2972497D2*
X5811262Y2907497D1*
X5928762Y2907503D1*
X5928758Y2972503D1*
X5811258Y2972497D1*
X5862507Y2858752D2*
X5797507Y2858748D1*
X5797513Y2741248D1*
X5862513Y2741252D1*
X5862507Y2858752D1*
X5744532Y2818566D2*
X5698567Y2864525D1*
X5615488Y2781434D1*
X5661453Y2735475D1*
X5744532Y2818566D1*
X6117514Y2231248D2*
X6182514Y2231252D1*
X6182506Y2348752D1*
X6117506Y2348748D1*
X6117514Y2231248D1*
X5397504D2*
X5462504Y2231252D1*
X5462496Y2348752D1*
X5397496Y2348748D1*
X5397504Y2231248D1*
X5027505Y3418753D2*
X4962505Y3418747D1*
X4962515Y3301247D1*
X5027515Y3301253D1*
X5027505Y3418753D1*
X4930005D2*
X4865005Y3418747D1*
X4865015Y3301247D1*
X4930015Y3301253D1*
X4930005Y3418753D1*
X6348753Y3787505D2*
X6348747Y3852505D1*
X6231247Y3852495D1*
X6231253Y3787495D1*
X6348753Y3787505D1*
Y3885005D2*
X6348747Y3950005D1*
X6231247Y3949995D1*
X6231253Y3884995D1*
X6348753Y3885005D1*
X5178755Y2797509D2*
X5178745Y2862509D1*
X5061245Y2862491D1*
X5061255Y2797491D1*
X5178755Y2797509D1*
X5397511Y2821249D2*
X5462511Y2821251D1*
X5462509Y2938751D1*
X5397509Y2938749D1*
X5397511Y2821249D1*
X6487514Y2941248D2*
X6552514Y2941252D1*
X6552506Y3058752D1*
X6487506Y3058748D1*
X6487514Y2941248D1*
X6148576Y2915478D2*
X6194535Y2961443D1*
X6111444Y3044522D1*
X6065485Y2998557D1*
X6148576Y2915478D1*
X5879998Y4816251D2*
X5814998Y4816249D1*
X5815002Y4698749D1*
X5880002Y4698751D1*
X5879998Y4816251D1*
X5619998D2*
X5554998Y4816249D1*
X5555002Y4698749D1*
X5620002Y4698751D1*
X5619998Y4816251D1*
X5938749Y4804997D2*
X5938751Y4739997D1*
X6056251Y4740003D1*
X6056249Y4805003D1*
X5938749Y4804997D1*
X5563751Y5065002D2*
X5563749Y5130002D1*
X5446249Y5129998D1*
X5446251Y5064998D1*
X5563751Y5065002D1*
X5631252Y5260004D2*
X5631248Y5325004D1*
X5513748Y5324996D1*
X5513752Y5259996D1*
X5631252Y5260004D1*
X4364985Y3295508D2*
X4251652Y3295497D1*
X4194991Y3238826D1*
X4195012Y3009492D1*
X4365012Y3009508D1*
X4364985Y3295508D1*
X1657520Y3773998D2*
X1842520Y3774001D1*
X1842480Y5926001D1*
X1657480Y5925998D1*
X1657520Y3773998D1*
G36*
X1974982Y5810004D2*
X1972372Y5810175D1*
X1969806Y5810685D1*
X1967329Y5811526D1*
X1964982Y5812683D1*
X1962807Y5814136D1*
X1960840Y5815861D1*
X1959115Y5817828D1*
X1957662Y5820003D1*
X1956505Y5822350D1*
X1955664Y5824827D1*
X1955153Y5827393D1*
X1954982Y5830003D1*
X1955153Y5832614D1*
X1955663Y5835180D1*
X1956504Y5837657D1*
X1957661Y5840003D1*
X1959115Y5842179D1*
X1960840Y5844146D1*
X1962806Y5845871D1*
X1964982Y5847324D1*
X1967328Y5848481D1*
X1969805Y5849322D1*
X1972371Y5849833D1*
X1974982Y5850004D1*
D1*
X1977592Y5849833D1*
X1980158Y5849322D1*
X1982635Y5848481D1*
X1984982Y5847324D1*
X1987157Y5845871D1*
X1989124Y5844146D1*
X1990849Y5842179D1*
X1992302Y5840004D1*
X1993459Y5837658D1*
X1994300Y5835180D1*
X1994811Y5832615D1*
X1994982Y5830004D1*
X1994811Y5827393D1*
X1994301Y5824828D1*
X1993460Y5822350D1*
X1992303Y5820004D1*
X1990849Y5817829D1*
X1989124Y5815862D1*
X1987158Y5814137D1*
X1984982Y5812683D1*
X1982636Y5811526D1*
X1980159Y5810685D1*
X1977593Y5810175D1*
X1974982Y5810004D1*
D1*
G37*
X9657520Y3773998D2*
D13*
X9842520Y3774001D1*
X9842480Y5926001D1*
X9657480Y5925998D1*
X9657520Y3773998D1*
G36*
X9974982Y5810004D2*
X9972372Y5810175D1*
X9969806Y5810685D1*
X9967329Y5811526D1*
X9964982Y5812683D1*
X9962807Y5814136D1*
X9960840Y5815861D1*
X9959115Y5817828D1*
X9957662Y5820003D1*
X9956505Y5822350D1*
X9955664Y5824827D1*
X9955153Y5827393D1*
X9954982Y5830003D1*
X9955153Y5832614D1*
X9955663Y5835180D1*
X9956504Y5837657D1*
X9957661Y5840003D1*
X9959115Y5842179D1*
X9960840Y5844146D1*
X9962806Y5845871D1*
X9964982Y5847324D1*
X9967328Y5848481D1*
X9969805Y5849322D1*
X9972371Y5849833D1*
X9974982Y5850004D1*
D1*
X9977592Y5849833D1*
X9980158Y5849322D1*
X9982635Y5848481D1*
X9984982Y5847324D1*
X9987157Y5845871D1*
X9989124Y5844146D1*
X9990849Y5842179D1*
X9992302Y5840004D1*
X9993459Y5837658D1*
X9994300Y5835180D1*
X9994811Y5832615D1*
X9994982Y5830004D1*
X9994811Y5827393D1*
X9994301Y5824828D1*
X9993460Y5822350D1*
X9992303Y5820004D1*
X9990849Y5817829D1*
X9989124Y5815862D1*
X9987158Y5814137D1*
X9984982Y5812683D1*
X9982636Y5811526D1*
X9980159Y5810685D1*
X9977593Y5810175D1*
X9974982Y5810004D1*
D1*
G37*
X4326000Y1357500D2*
D13*
Y1542500D1*
X2174000D1*
Y1357500D1*
X4326000D1*
G36*
X2290000Y1675000D2*
X2289829Y1672389D1*
X2289319Y1669824D1*
X2288478Y1667346D1*
X2287321Y1665000D1*
X2285867Y1662825D1*
X2284142Y1660858D1*
X2282175Y1659133D1*
X2280000Y1657679D1*
X2277654Y1656522D1*
X2275176Y1655681D1*
X2272611Y1655171D1*
X2270000Y1655000D1*
X2267389Y1655171D1*
X2264824Y1655681D1*
X2262346Y1656522D1*
X2260000Y1657679D1*
X2257825Y1659133D1*
X2255858Y1660858D1*
X2254133Y1662825D1*
X2252679Y1665000D1*
X2251522Y1667346D1*
X2250681Y1669824D1*
X2250171Y1672389D1*
X2250000Y1675000D1*
D1*
X2250171Y1677611D1*
X2250681Y1680176D1*
X2251522Y1682654D1*
X2252679Y1685000D1*
X2254133Y1687175D1*
X2255858Y1689142D1*
X2257825Y1690867D1*
X2260000Y1692321D1*
X2262346Y1693478D1*
X2264824Y1694319D1*
X2267389Y1694829D1*
X2270000Y1695000D1*
X2272611Y1694829D1*
X2275176Y1694319D1*
X2277654Y1693478D1*
X2280000Y1692321D1*
X2282175Y1690867D1*
X2284142Y1689142D1*
X2285867Y1687175D1*
X2287321Y1685000D1*
X2288478Y1682654D1*
X2289319Y1680176D1*
X2289829Y1677611D1*
X2290000Y1675000D1*
D1*
G37*
X9326000Y1357500D2*
D13*
Y1542500D1*
X7174000D1*
Y1357500D1*
X9326000D1*
G36*
X7290000Y1675000D2*
X7289829Y1672389D1*
X7289319Y1669824D1*
X7288478Y1667346D1*
X7287321Y1665000D1*
X7285867Y1662825D1*
X7284142Y1660858D1*
X7282175Y1659133D1*
X7280000Y1657679D1*
X7277654Y1656522D1*
X7275176Y1655681D1*
X7272611Y1655171D1*
X7270000Y1655000D1*
X7267389Y1655171D1*
X7264824Y1655681D1*
X7262346Y1656522D1*
X7260000Y1657679D1*
X7257825Y1659133D1*
X7255858Y1660858D1*
X7254133Y1662825D1*
X7252679Y1665000D1*
X7251522Y1667346D1*
X7250681Y1669824D1*
X7250171Y1672389D1*
X7250000Y1675000D1*
D1*
X7250171Y1677611D1*
X7250681Y1680176D1*
X7251522Y1682654D1*
X7252679Y1685000D1*
X7254133Y1687175D1*
X7255858Y1689142D1*
X7257825Y1690867D1*
X7260000Y1692321D1*
X7262346Y1693478D1*
X7264824Y1694319D1*
X7267389Y1694829D1*
X7270000Y1695000D1*
X7272611Y1694829D1*
X7275176Y1694319D1*
X7277654Y1693478D1*
X7280000Y1692321D1*
X7282175Y1690867D1*
X7284142Y1689142D1*
X7285867Y1687175D1*
X7287321Y1685000D1*
X7288478Y1682654D1*
X7289319Y1680176D1*
X7289829Y1677611D1*
X7290000Y1675000D1*
D1*
G37*
X5295003Y4778748D2*
D13*
X5360003Y4778752D1*
X5359997Y4896252D1*
X5294997Y4896248D1*
X5295003Y4778748D1*
X4562010Y1181995D2*
X4738010Y1182005D1*
X4737990Y1518005D1*
X4561990Y1517995D1*
X4562010Y1181995D1*
X1461251Y5797501D2*
X1461249Y5862501D1*
X1343749Y5862499D1*
X1343751Y5797499D1*
X1461251Y5797501D1*
X10421000Y4213750D2*
X10356000D1*
Y4096250D1*
X10421000D1*
Y4213750D1*
X10294000D2*
X10229000D1*
Y4096250D1*
X10294000D1*
Y4213750D1*
X5093748Y5284997D2*
X5093752Y5349997D1*
X4976252Y5350003D1*
X4976248Y5285003D1*
X5093748Y5284997D1*
X7157500Y3661250D2*
X7222500D1*
Y3778750D1*
X7157500D1*
Y3661250D1*
X7277500D2*
X7342500D1*
Y3778750D1*
X7277500D1*
Y3661250D1*
X7097500Y3466250D2*
X7162500D1*
Y3583750D1*
X7097500D1*
Y3466250D1*
X7037500Y3661250D2*
X7102500D1*
Y3778750D1*
X7037500D1*
Y3661250D1*
X7217500Y3466250D2*
X7282500D1*
Y3583750D1*
X7217500D1*
Y3466250D1*
X9367501Y2356249D2*
X9432501Y2356251D1*
X9432499Y2473751D1*
X9367499Y2473749D1*
X9367501Y2356249D1*
X4467497Y1648752D2*
X4402497Y1648748D1*
X4402503Y1531248D1*
X4467503Y1531252D1*
X4467497Y1648752D1*
X7124996Y1688752D2*
X7059996Y1688748D1*
X7060004Y1571248D1*
X7125004Y1571252D1*
X7124996Y1688752D1*
X4625006Y2782011D2*
X4624994Y2878011D1*
X4454994Y2877989D1*
X4455006Y2781989D1*
X4625006Y2782011D1*
X6632005Y3044997D2*
X6728005Y3045003D1*
X6727995Y3215003D1*
X6631995Y3214997D1*
X6632005Y3044997D1*
X4625015Y3262009D2*
X4625005Y3358009D1*
X4455005Y3357991D1*
X4455015Y3261991D1*
X4625015Y3262009D1*
X6128752Y3642504D2*
X6128748Y3707504D1*
X6011248Y3707496D1*
X6011252Y3642496D1*
X6128752Y3642504D1*
X4454996Y3047993D2*
X4455004Y2951993D1*
X4625004Y2952007D1*
X4624996Y3048007D1*
X4454996Y3047993D1*
X5820003Y3672006D2*
X5819997Y3768006D1*
X5649997Y3767994D1*
X5650003Y3671994D1*
X5820003Y3672006D1*
X6632005Y2714997D2*
X6728005Y2715003D1*
X6727995Y2885003D1*
X6631995Y2884997D1*
X6632005Y2714997D1*
X6555005Y2232008D2*
X6554995Y2328008D1*
X6384995Y2327992D1*
X6385005Y2231992D1*
X6555005Y2232008D1*
X6422496Y3608752D2*
X6357496Y3608748D1*
X6357504Y3491248D1*
X6422504Y3491252D1*
X6422496Y3608752D1*
X6567689Y6473930D2*
D121*
Y6371842D1*
X6635747Y6473930D1*
Y6371842D1*
X6512058Y6439901D2*
X6521716Y6435071D1*
X6531487Y6425301D1*
X6536316Y6410701D1*
Y6401042D1*
X6531487Y6386442D1*
X6521716Y6376784D1*
X6512058Y6371842D1*
X6497458D1*
X6487687Y6376784D1*
X6478029Y6386442D1*
X6473087Y6401042D1*
Y6410701D1*
X6478029Y6425301D1*
X6487687Y6435071D1*
X6497458Y6439901D1*
X6512058D1*
X6328357Y6473930D2*
Y6391271D1*
X6323528Y6376784D1*
X6313757Y6371842D1*
X6304099D1*
X6342957Y6439901D2*
X6308928D1*
X6214439D2*
Y6371842D1*
Y6425301D2*
X6224097Y6435071D1*
X6233868Y6439901D1*
X6248356D1*
X6258126Y6435071D1*
X6267785Y6425301D1*
X6272726Y6410701D1*
Y6401042D1*
X6267785Y6386442D1*
X6258126Y6376784D1*
X6248356Y6371842D1*
X6233868D1*
X6224097Y6376784D1*
X6214439Y6386442D1*
X6183066Y6473930D2*
Y6371842D1*
X6151694Y6473930D2*
Y6371842D1*
X6021564Y6439901D2*
Y6337813D1*
Y6425301D2*
X6011793Y6434959D1*
X6002135Y6439901D1*
X5987535D1*
X5977764Y6434959D1*
X5968105Y6425301D1*
X5963164Y6410701D1*
Y6400930D1*
X5968105Y6386442D1*
X5977764Y6376671D1*
X5987535Y6371842D1*
X6002135D1*
X6011793Y6376671D1*
X6021564Y6386442D1*
X5873504Y6439901D2*
Y6371842D1*
Y6425301D2*
X5883162Y6435071D1*
X5892933Y6439901D1*
X5907420D1*
X5917191Y6435071D1*
X5926850Y6425301D1*
X5931791Y6410701D1*
Y6401042D1*
X5926850Y6386442D1*
X5917191Y6376784D1*
X5907420Y6371842D1*
X5892933D1*
X5883162Y6376784D1*
X5873504Y6386442D1*
X5842131Y6439901D2*
Y6371842D1*
Y6410701D2*
X5837189Y6425301D1*
X5827531Y6435071D1*
X5817760Y6439901D1*
X5803160D1*
X5757188Y6473930D2*
Y6391271D1*
X5752358Y6376784D1*
X5742588Y6371842D1*
X5732929D1*
X5771788Y6439901D2*
X5737758D1*
X5648098Y6425301D2*
X5652927Y6435071D1*
X5667527Y6439901D1*
X5682127D1*
X5696727Y6435071D1*
X5701557Y6425301D1*
X5696727Y6415642D1*
X5686957Y6410701D1*
X5662698Y6405871D1*
X5652927Y6401042D1*
X5648098Y6391271D1*
Y6386442D1*
X5652927Y6376784D1*
X5667527Y6371842D1*
X5682127D1*
X5696727Y6376784D1*
X5701557Y6386442D1*
X5503369Y6473930D2*
Y6391271D1*
X5498539Y6376784D1*
X5488769Y6371842D1*
X5479110D1*
X5517969Y6439901D2*
X5483939D1*
X5447737Y6473930D2*
Y6371842D1*
Y6420471D2*
X5433137Y6435071D1*
X5423367Y6439901D1*
X5408767D1*
X5399108Y6435071D1*
X5394279Y6420471D1*
Y6371842D1*
X5362906Y6473930D2*
X5358077Y6469101D1*
X5353136Y6473930D1*
X5358077Y6478871D1*
X5362906Y6473930D1*
X5358077Y6439901D2*
Y6371842D1*
X5268305Y6425301D2*
X5273134Y6435071D1*
X5287734Y6439901D1*
X5302334D1*
X5316934Y6435071D1*
X5321763Y6425301D1*
X5316934Y6415642D1*
X5307163Y6410701D1*
X5282905Y6405871D1*
X5273134Y6401042D1*
X5268305Y6391271D1*
Y6386442D1*
X5273134Y6376784D1*
X5287734Y6371842D1*
X5302334D1*
X5316934Y6376784D1*
X5321763Y6386442D1*
X5084717Y6425301D2*
X5089546Y6435071D1*
X5104146Y6439901D1*
X5118746D1*
X5133346Y6435071D1*
X5138175Y6425301D1*
X5133346Y6415642D1*
X5123575Y6410701D1*
X5099317Y6405871D1*
X5089546Y6401042D1*
X5084717Y6391271D1*
Y6386442D1*
X5089546Y6376784D1*
X5104146Y6371842D1*
X5118746D1*
X5133346Y6376784D1*
X5138175Y6386442D1*
X5053344Y6473930D2*
X5048515Y6469101D1*
X5043573Y6473930D1*
X5048515Y6478871D1*
X5053344Y6473930D1*
X5048515Y6439901D2*
Y6371842D1*
X4953913Y6473930D2*
Y6371842D1*
Y6425301D2*
X4963571Y6435071D1*
X4973342Y6439901D1*
X4987942D1*
X4997601Y6435071D1*
X5007371Y6425301D1*
X5012201Y6410701D1*
Y6401042D1*
X5007371Y6386442D1*
X4997601Y6376784D1*
X4987942Y6371842D1*
X4973342D1*
X4963571Y6376784D1*
X4953913Y6386442D1*
X4922540Y6410701D2*
X4864253D1*
Y6420471D1*
X4869082Y6430242D1*
X4873911Y6435071D1*
X4883682Y6439901D1*
X4898282D1*
X4907940Y6435071D1*
X4917711Y6425301D1*
X4922540Y6410701D1*
Y6401042D1*
X4917711Y6386442D1*
X4907940Y6376784D1*
X4898282Y6371842D1*
X4883682D1*
X4873911Y6376784D1*
X4864253Y6386442D1*
X6944485Y6302865D2*
X6954256Y6293207D1*
X6963914Y6278607D1*
X6973685Y6259178D1*
X6978514Y6234807D1*
Y6215378D1*
X6973685Y6191119D1*
X6963914Y6171690D1*
X6954256Y6157090D1*
X6944485Y6147432D1*
X6849995Y6276249D2*
X6913112D1*
Y6174161D1*
X6849995D1*
X6913112Y6227619D2*
X6874254D1*
X6818623Y6242219D2*
X6765164Y6174161D1*
Y6242219D2*
X6818623Y6174161D1*
X6675392Y6227619D2*
X6685163Y6237390D1*
X6694933Y6242219D1*
X6709421D1*
X6719192Y6237390D1*
X6728850Y6227619D1*
X6733792Y6213019D1*
Y6203361D1*
X6728850Y6188761D1*
X6719192Y6179102D1*
X6709421Y6174161D1*
X6694933D1*
X6685163Y6179102D1*
X6675392Y6188761D1*
X6644019Y6213019D2*
X6585732D1*
Y6222790D1*
X6590561Y6232561D1*
X6595390Y6237390D1*
X6605161Y6242219D1*
X6619761D1*
X6629419Y6237390D1*
X6639190Y6227619D1*
X6644019Y6213019D1*
Y6203361D1*
X6639190Y6188761D1*
X6629419Y6179102D1*
X6619761Y6174161D1*
X6605161D1*
X6595390Y6179102D1*
X6585732Y6188761D1*
X6554359Y6242219D2*
Y6140132D1*
Y6227619D2*
X6544588Y6237278D1*
X6534930Y6242219D1*
X6520330D1*
X6510559Y6237278D1*
X6500901Y6227619D1*
X6495959Y6213019D1*
Y6203249D1*
X6500901Y6188761D1*
X6510559Y6178990D1*
X6520330Y6174161D1*
X6534930D1*
X6544588Y6178990D1*
X6554359Y6188761D1*
X6449987Y6276249D2*
Y6193590D1*
X6445157Y6179102D1*
X6435387Y6174161D1*
X6425728D1*
X6464587Y6242219D2*
X6430557D1*
X6295598D2*
Y6174161D1*
Y6222790D2*
X6280998Y6237390D1*
X6271228Y6242219D1*
X6256740D1*
X6246969Y6237390D1*
X6242140Y6222790D1*
Y6174161D1*
Y6222790D2*
X6227540Y6237390D1*
X6217769Y6242219D1*
X6203281D1*
X6193511Y6237390D1*
X6188569Y6222790D1*
Y6174161D1*
X6157197Y6213019D2*
X6098909D1*
Y6222790D1*
X6103738Y6232561D1*
X6108567Y6237390D1*
X6118338Y6242219D1*
X6132938D1*
X6142597Y6237390D1*
X6152367Y6227619D1*
X6157197Y6213019D1*
Y6203361D1*
X6152367Y6188761D1*
X6142597Y6179102D1*
X6132938Y6174161D1*
X6118338D1*
X6108567Y6179102D1*
X6098909Y6188761D1*
X6067536Y6242219D2*
X6014078D1*
X6067536Y6174161D1*
X6014078D1*
X5982705Y6242219D2*
X5929247D1*
X5982705Y6174161D1*
X5929247D1*
X5839587Y6242219D2*
Y6174161D1*
Y6227619D2*
X5849245Y6237390D1*
X5859016Y6242219D1*
X5873504D1*
X5883274Y6237390D1*
X5892933Y6227619D1*
X5897874Y6213019D1*
Y6203361D1*
X5892933Y6188761D1*
X5883274Y6179102D1*
X5873504Y6174161D1*
X5859016D1*
X5849245Y6179102D1*
X5839587Y6188761D1*
X5808214Y6242219D2*
Y6174161D1*
Y6222790D2*
X5793614Y6237390D1*
X5783843Y6242219D1*
X5769356D1*
X5759585Y6237390D1*
X5754756Y6222790D1*
Y6174161D1*
X5723383Y6276249D2*
X5718554Y6271419D1*
X5713612Y6276249D1*
X5718554Y6281190D1*
X5723383Y6276249D1*
X5718554Y6242219D2*
Y6174161D1*
X5682240Y6242219D2*
Y6174161D1*
Y6222790D2*
X5667640Y6237390D1*
X5657869Y6242219D1*
X5643381D1*
X5633611Y6237390D1*
X5628781Y6222790D1*
Y6174161D1*
X5597409Y6213019D2*
X5539121D1*
Y6222790D1*
X5543950Y6232561D1*
X5548780Y6237390D1*
X5558550Y6242219D1*
X5573150D1*
X5582809Y6237390D1*
X5592580Y6227619D1*
X5597409Y6213019D1*
Y6203361D1*
X5592580Y6188761D1*
X5582809Y6179102D1*
X5573150Y6174161D1*
X5558550D1*
X5548780Y6179102D1*
X5539121Y6188761D1*
X5350591Y6227619D2*
X5360362Y6237390D1*
X5370133Y6242219D1*
X5384621D1*
X5394391Y6237390D1*
X5404050Y6227619D1*
X5408991Y6213019D1*
Y6203361D1*
X5404050Y6188761D1*
X5394391Y6179102D1*
X5384621Y6174161D1*
X5370133D1*
X5360362Y6179102D1*
X5350591Y6188761D1*
X5294960Y6242219D2*
X5304619Y6237390D1*
X5314390Y6227619D1*
X5319219Y6213019D1*
Y6203361D1*
X5314390Y6188761D1*
X5304619Y6179102D1*
X5294960Y6174161D1*
X5280360D1*
X5270590Y6179102D1*
X5260931Y6188761D1*
X5255990Y6203361D1*
Y6213019D1*
X5260931Y6227619D1*
X5270590Y6237390D1*
X5280360Y6242219D1*
X5294960D1*
X5224617D2*
Y6174161D1*
Y6222790D2*
X5210017Y6237390D1*
X5200246Y6242219D1*
X5185759D1*
X5175988Y6237390D1*
X5171159Y6222790D1*
Y6174161D1*
X5139786Y6242219D2*
Y6174161D1*
Y6222790D2*
X5125186Y6237390D1*
X5115415Y6242219D1*
X5100928D1*
X5091157Y6237390D1*
X5086328Y6222790D1*
Y6174161D1*
X5054955Y6213019D2*
X4996667D1*
Y6222790D1*
X5001497Y6232561D1*
X5006326Y6237390D1*
X5016097Y6242219D1*
X5030697D1*
X5040355Y6237390D1*
X5050126Y6227619D1*
X5054955Y6213019D1*
Y6203361D1*
X5050126Y6188761D1*
X5040355Y6179102D1*
X5030697Y6174161D1*
X5016097D1*
X5006326Y6179102D1*
X4996667Y6188761D1*
X4906895Y6227619D2*
X4916666Y6237390D1*
X4926436Y6242219D1*
X4940924D1*
X4950695Y6237390D1*
X4960353Y6227619D1*
X4965295Y6213019D1*
Y6203361D1*
X4960353Y6188761D1*
X4950695Y6179102D1*
X4940924Y6174161D1*
X4926436D1*
X4916666Y6179102D1*
X4906895Y6188761D1*
X4860922Y6276249D2*
Y6193590D1*
X4856093Y6179102D1*
X4846322Y6174161D1*
X4836664D1*
X4875522Y6242219D2*
X4841493D1*
X4781033D2*
X4790691Y6237390D1*
X4800462Y6227619D1*
X4805291Y6213019D1*
Y6203361D1*
X4800462Y6188761D1*
X4790691Y6179102D1*
X4781033Y6174161D1*
X4766433D1*
X4756662Y6179102D1*
X4747003Y6188761D1*
X4742062Y6203361D1*
Y6213019D1*
X4747003Y6227619D1*
X4756662Y6237390D1*
X4766433Y6242219D1*
X4781033D1*
X4710689D2*
Y6174161D1*
Y6213019D2*
X4705748Y6227619D1*
X4696089Y6237390D1*
X4686319Y6242219D1*
X4671719D1*
X4586888Y6227619D2*
X4591717Y6237390D1*
X4606317Y6242219D1*
X4620917D1*
X4635517Y6237390D1*
X4640346Y6227619D1*
X4635517Y6217961D1*
X4625746Y6213019D1*
X4601488Y6208190D1*
X4591717Y6203361D1*
X4586888Y6193590D1*
Y6188761D1*
X4591717Y6179102D1*
X4606317Y6174161D1*
X4620917D1*
X4635517Y6179102D1*
X4640346Y6188761D1*
X4555515Y6302865D2*
X4545744Y6293207D1*
X4536086Y6278607D1*
X4526315Y6259178D1*
X4521486Y6234807D1*
Y6215378D1*
X4526315Y6191119D1*
X4536086Y6171690D1*
X4545744Y6157090D1*
X4555515Y6147432D1*
M02*
