G04 DipTrace 5.2.0.4*
G04 BottomMask.gbr*
%MOMM*%
G04 #@! TF.FileFunction,Soldermask,Bot*
G04 #@! TF.Part,Single*
%AMOUTLINE29*
4,1,4,
0.00002,-0.93338,
-0.93338,-0.00002,
-0.00002,0.93338,
0.93338,0.00002,
0.00002,-0.93338,
0*%
%AMOUTLINE35*
4,1,28,
0.81393,-0.895,
-0.81393,-0.895,
-0.89037,-0.88494,
-0.96526,-0.85392,
-1.02957,-0.80457,
-1.07892,-0.74026,
-1.10994,-0.66537,
-1.12,-0.58893,
-1.12,0.58893,
-1.10994,0.66537,
-1.07892,0.74026,
-1.02957,0.80457,
-0.96526,0.85392,
-0.89037,0.88494,
-0.81393,0.895,
0.81393,0.895,
0.89037,0.88494,
0.96526,0.85392,
1.02957,0.80457,
1.07892,0.74026,
1.10994,0.66537,
1.12,0.58893,
1.12,-0.58893,
1.10994,-0.66537,
1.07892,-0.74026,
1.02957,-0.80457,
0.96526,-0.85392,
0.89037,-0.88494,
0.81393,-0.895,
0*%
%AMOUTLINE37*
4,1,28,
-0.81393,0.895,
0.81393,0.895,
0.89037,0.88494,
0.96526,0.85392,
1.02957,0.80457,
1.07892,0.74026,
1.10994,0.66537,
1.12,0.58893,
1.12,-0.58893,
1.10994,-0.66537,
1.07892,-0.74026,
1.02957,-0.80457,
0.96526,-0.85392,
0.89037,-0.88494,
0.81393,-0.895,
-0.81393,-0.895,
-0.89037,-0.88494,
-0.96526,-0.85392,
-1.02957,-0.80457,
-1.07892,-0.74026,
-1.10994,-0.66537,
-1.12,-0.58893,
-1.12,0.58893,
-1.10994,0.66537,
-1.07892,0.74026,
-1.02957,0.80457,
-0.96526,0.85392,
-0.89037,0.88494,
-0.81393,0.895,
0*%
%ADD34C,0.92*%
%ADD58C,4.3*%
%ADD69C,6.12*%
%ADD70R,0.82X4.32*%
%ADD71R,0.82X3.32*%
%ADD72C,2.745*%
%ADD74R,2.745X2.745*%
%ADD75C,1.47*%
%ADD77R,1.47X1.47*%
%ADD80C,2.76*%
%ADD82R,2.76X2.76*%
%ADD84C,1.32*%
%ADD86R,1.32X1.32*%
%ADD124OUTLINE29*%
%ADD130OUTLINE35*%
%ADD132OUTLINE37*%
%FSLAX35Y35*%
G04*
G71*
G90*
G75*
G01*
G04 BotMask*
%LPD*%
D86*
X1950000Y6415009D3*
D84*
X1450000Y6414991D3*
D86*
X1950000Y4765009D3*
D84*
X1450000Y4764991D3*
D124*
X3676780Y15913227D3*
D84*
X3323220Y16266773D3*
D86*
X5050000Y4765000D3*
D84*
X5550000D3*
D86*
X5050000Y6414993D3*
D34*
X5550000Y6415007D3*
D86*
X5050000Y12865000D3*
D34*
X5550000D3*
D86*
X5050000Y14515000D3*
D84*
X5550000D3*
D86*
X1950000Y12865006D3*
D84*
X1450000Y12864994D3*
D86*
X1950000Y14515006D3*
D84*
X1450000Y14514994D3*
D130*
X2741500Y4715000D3*
D132*
X3158500D3*
X4258500D3*
D130*
X3841500D3*
X2741500Y14565000D3*
D132*
X3158500D3*
X4258500D3*
D130*
X3841500D3*
D58*
X3500000Y11890000D3*
Y7390000D3*
D82*
X4094000Y14890000D3*
D80*
X3698000D3*
X3302000D3*
X2906000D3*
D82*
Y4390000D3*
D80*
X3302000D3*
X3698000D3*
X4094000D3*
D77*
X4820000Y16960000D3*
D75*
X4570000D3*
D74*
X2498001Y16852506D3*
D72*
X2102001Y16852492D3*
G36*
X1780000Y1570000D2*
Y1000000D1*
X5220000D1*
Y1570000D1*
X1780000D1*
G37*
D70*
X5150000Y1350000D3*
X5050000D3*
X4950000D3*
X4850000D3*
X4750000D3*
X4650000D3*
X4550000D3*
X4450000D3*
X4350000D3*
X4250000D3*
X4150000D3*
X3850000D3*
X3750000D3*
X3650000D3*
X3550000D3*
X3450000D3*
X3350000D3*
X3250000D3*
X3150000D3*
X3050000D3*
X2950000D3*
X2850000D3*
X2750000D3*
X2650000D3*
X2550000D3*
X2450000D3*
X2350000D3*
X2250000D3*
X2150000D3*
X2050000D3*
X1950000D3*
D71*
X1850000Y1400000D3*
D77*
X1375000Y11414999D3*
D75*
X1375009Y11164999D3*
X1375017Y10914999D3*
X1375025Y10664999D3*
X1375033Y10414999D3*
X1375042Y10164999D3*
X1375050Y9914999D3*
X1375058Y9664999D3*
X1375066Y9414999D3*
D77*
X5625000Y9415000D3*
D75*
X5624990Y9665000D3*
X5624980Y9915000D3*
X5624970Y10165000D3*
X5624960Y10415000D3*
X5624950Y10665000D3*
X5624940Y10915000D3*
X5624930Y11165000D3*
X5624920Y11415000D3*
D34*
X1562633Y17077633D3*
D69*
X1400000Y16915000D3*
D34*
Y16685000D3*
X1170000Y16915000D3*
X1237367Y17077633D3*
X1630000Y16915000D3*
X1562633Y16752367D3*
X1237367D3*
X1400000Y17145000D3*
X5762633Y17077633D3*
D69*
X5600000Y16915000D3*
D34*
Y16685000D3*
X5370000Y16915000D3*
X5437367Y17077633D3*
X5830000Y16915000D3*
X5762633Y16752367D3*
X5437367D3*
X5600000Y17145000D3*
M02*
