G04 DipTrace 5.2.0.4*
G04 BottomMask.gbr*
%MOMM*%
G04 #@! TF.FileFunction,Soldermask,Bot*
G04 #@! TF.Part,Single*
%AMOUTLINE29*
4,1,4,
-0.93338,0.0,
0.0,0.93338,
0.93338,0.0,
0.0,-0.93338,
-0.93338,0.0,
0*%
%ADD32C,0.92*%
%ADD54C,4.3*%
%ADD64C,6.12*%
%ADD65R,0.82X4.32*%
%ADD66R,0.82X3.32*%
%ADD67C,2.745*%
%ADD69R,2.745X2.745*%
%ADD70C,1.47*%
%ADD72R,1.47X1.47*%
%ADD75C,2.76*%
%ADD77R,2.76X2.76*%
%ADD79C,1.32*%
%ADD81R,1.32X1.32*%
%ADD119OUTLINE29*%
%FSLAX35Y35*%
G04*
G71*
G90*
G75*
G01*
G04 BotMask*
%LPD*%
D81*
X1930000Y6415009D3*
D79*
X1430000Y6414991D3*
D81*
X1930000Y4765009D3*
D79*
X1430000Y4764991D3*
D119*
X3303223Y16038223D3*
D32*
X3656777Y16391777D3*
D81*
X5030000Y4765000D3*
D79*
X5530000D3*
D81*
X5030000Y6414993D3*
D32*
X5530000Y6415007D3*
D81*
X5030000Y12865000D3*
D32*
X5530000D3*
D81*
X5030000Y14515000D3*
D79*
X5530000D3*
D81*
X1930000Y12865006D3*
D79*
X1430000Y12864994D3*
D81*
X1930000Y14515006D3*
D79*
X1430000Y14514994D3*
D54*
X3480000Y11890000D3*
Y7390000D3*
D77*
X4074000Y14915000D3*
D75*
X3678000D3*
X3282000D3*
X2886000D3*
D77*
Y4365000D3*
D75*
X3282000D3*
X3678000D3*
X4074000D3*
D72*
X4800000Y16935000D3*
D70*
X4550000D3*
D69*
X2478001Y16815004D3*
D67*
X2082001Y16814995D3*
G36*
X1760000Y1570000D2*
Y1000000D1*
X5200000D1*
Y1570000D1*
X1760000D1*
G37*
D65*
X5130000Y1350000D3*
X5030000D3*
X4930000D3*
X4830000D3*
X4730000D3*
X4630000D3*
X4530000D3*
X4430000D3*
X4330000D3*
X4230000D3*
X4130000D3*
X3830000D3*
X3730000D3*
X3630000D3*
X3530000D3*
X3430000D3*
X3330000D3*
X3230000D3*
X3130000D3*
X3030000D3*
X2930000D3*
X2830000D3*
X2730000D3*
X2630000D3*
X2530000D3*
X2430000D3*
X2330000D3*
X2230000D3*
X2130000D3*
X2030000D3*
X1930000D3*
D66*
X1830000Y1400000D3*
D72*
X1355000Y11414999D3*
D70*
X1355009Y11164999D3*
X1355017Y10914999D3*
X1355025Y10664999D3*
X1355033Y10414999D3*
X1355042Y10164999D3*
X1355050Y9914999D3*
X1355058Y9664999D3*
X1355066Y9414999D3*
D72*
X5605000Y9415000D3*
D70*
X5604990Y9665000D3*
X5604980Y9915000D3*
X5604970Y10165000D3*
X5604960Y10415000D3*
X5604950Y10665000D3*
X5604940Y10915000D3*
X5604930Y11165000D3*
X5604920Y11415000D3*
D32*
X1542633Y17077633D3*
D64*
X1380000Y16915000D3*
D32*
Y16685000D3*
X1150000Y16915000D3*
X1217367Y17077633D3*
X1610000Y16915000D3*
X1542633Y16752367D3*
X1217367D3*
X1380000Y17145000D3*
X5742633Y17077633D3*
D64*
X5580000Y16915000D3*
D32*
Y16685000D3*
X5350000Y16915000D3*
X5417367Y17077633D3*
X5810000Y16915000D3*
X5742633Y16752367D3*
X5417367D3*
X5580000Y17145000D3*
M02*
