G04 DipTrace 5.2.0.4*
G04 BottomSilk.gbr*
%MOMM*%
G04 #@! TF.FileFunction,Legend,Bot*
G04 #@! TF.Part,Single*
%ADD24C,0.5*%
%ADD82C,0.16667*%
%ADD83C,0.22222*%
%ADD84C,0.38889*%
%FSLAX35Y35*%
G04*
G71*
G90*
G75*
G01*
G04 BotSilk*
%LPD*%
G36*
X5975000Y3352500D2*
X5887500D1*
X5737500Y3077500D1*
X5887500D1*
X5981190Y3249267D1*
X5975000Y3352500D1*
G37*
G36*
X5737500D2*
X5587500D1*
X5437500Y3077500D1*
X5587500D1*
X5737500Y3352500D1*
G37*
G36*
X5437500D2*
X5287500D1*
X5137500Y3077500D1*
X5287500D1*
X5437500Y3352500D1*
G37*
G36*
X3337500D2*
X3187500D1*
X3037500Y3077500D1*
X3187500D1*
X3337500Y3352500D1*
G37*
G36*
X5137500D2*
X4987500D1*
X4837500Y3077500D1*
X4987500D1*
X5137500Y3352500D1*
G37*
G36*
X4837500D2*
X4687500D1*
X4537500Y3077500D1*
X4687500D1*
X4837500Y3352500D1*
G37*
G36*
X4537500D2*
X4387500D1*
X4237500Y3077500D1*
X4387500D1*
X4537500Y3352500D1*
G37*
G36*
X3637500D2*
X3487500D1*
X3337500Y3077500D1*
X3487500D1*
X3637500Y3352500D1*
G37*
G36*
X4237500D2*
X4087500D1*
X3937500Y3077500D1*
X4087500D1*
X4237500Y3352500D1*
G37*
G36*
X2437500D2*
X2287500D1*
X2137500Y3077500D1*
X2287500D1*
X2437500Y3352500D1*
G37*
G36*
X3937500D2*
X3787500D1*
X3637500Y3077500D1*
X3787500D1*
X3937500Y3352500D1*
G37*
G36*
X3037500D2*
X2887500D1*
X2737500Y3077500D1*
X2887500D1*
X3037500Y3352500D1*
G37*
G36*
X2737500D2*
X2587500D1*
X2437500Y3077500D1*
X2587500D1*
X2737500Y3352500D1*
G37*
G36*
X2137500D2*
X1987500D1*
X1837500Y3077500D1*
X1987500D1*
X2137500Y3352500D1*
G37*
G36*
X1537500D2*
X1387500D1*
X1237500Y3077500D1*
X1387500D1*
X1537500Y3352500D1*
G37*
G36*
X1837500D2*
X1687500D1*
X1537500Y3077500D1*
X1687500D1*
X1837500Y3352500D1*
G37*
G36*
X1237500D2*
X1087500D1*
X1012500Y3215000D1*
Y3077500D1*
X1087500D1*
X1237500Y3352500D1*
G37*
X3212500Y11890000D2*
D24*
G02X3212500Y11890000I287500J0D01*
G01*
Y7390000D2*
G02X3212500Y7390000I287500J0D01*
G01*
G36*
X3601765Y14056517D2*
X3588432Y14043184D1*
X3555098Y14006517D1*
X3518432Y13966517D1*
X3485098Y13929851D1*
X3448432Y13889851D1*
X3415098Y13853184D1*
X3408432Y13843184D1*
X3404897Y13839564D1*
X3403171Y13840105D1*
X3401765Y13843184D1*
Y14036517D1*
X3408432Y14043184D1*
X3411765Y14049851D1*
X3415098Y14059851D1*
Y14073184D1*
X3411765Y14083184D1*
X3408432Y14089851D1*
X3391765Y14106517D1*
X3381765Y14109851D1*
X3361765D1*
X3351765Y14106517D1*
X3331765Y14086517D1*
X3328432Y14076517D1*
Y14056517D1*
X3331765Y14046517D1*
X3341765Y14036517D1*
Y13693184D1*
X3375098Y13726517D1*
X3448432Y13806517D1*
X3481765Y13843184D1*
X3591765Y13963184D1*
X3592309Y13965762D1*
X3594354Y13968495D1*
X3595997Y13968416D1*
X3598432Y13966517D1*
Y13773184D1*
X3588432Y13763184D1*
X3585098Y13756517D1*
Y13729851D1*
X3588432Y13723184D1*
X3595098Y13713184D1*
X3598432Y13709851D1*
X3608432Y13703184D1*
X3618432Y13699851D1*
X3638432D1*
X3648432Y13703184D1*
X3665098Y13719851D1*
X3668432Y13726517D1*
X3671765Y13736517D1*
Y13749851D1*
X3668432Y13759851D1*
X3665098Y13766517D1*
X3658432Y13773184D1*
Y14116517D1*
X3625098Y14083184D1*
X3601765Y14056517D1*
X3628432D1*
X3630921Y14058658D1*
X3632649Y14058463D1*
X3635098Y14056517D1*
Y13759851D1*
X3645098Y13746517D1*
X3647620Y13742034D1*
X3647287Y13739031D1*
X3645098Y13736517D1*
Y13733184D1*
X3638432Y13726517D1*
X3631765Y13723184D1*
X3625098D1*
X3618432Y13726517D1*
X3608432Y13736517D1*
Y13746517D1*
X3611765Y13749851D1*
X3618432Y13759851D1*
Y14023184D1*
X3608432Y14013184D1*
X3541765Y13939851D1*
X3505098Y13899851D1*
X3438432Y13826517D1*
X3401765Y13786517D1*
X3368432Y13749851D1*
X3364897Y13746230D1*
X3363171Y13746772D1*
X3361765Y13749851D1*
Y14049851D1*
X3355098Y14059851D1*
X3351765Y14063184D1*
Y14073184D1*
X3361765Y14083184D1*
X3368432Y14086517D1*
X3375098D1*
X3381765Y14083184D1*
X3388432Y14076517D1*
Y14073184D1*
X3391765Y14069851D1*
Y14063184D1*
X3388432Y14059851D1*
X3381765Y14049851D1*
Y13786517D1*
X3395098Y13799851D1*
X3431765Y13839851D1*
X3531765Y13949851D1*
X3568432Y13989851D1*
X3601765Y14026517D1*
X3628432Y14056517D1*
X3601765D1*
G37*
G36*
X2968432Y14083184D2*
X2965098Y14079851D1*
X2958432Y14076517D1*
X2941765Y14063184D1*
X2928432Y14046517D1*
X2918432Y14026517D1*
X2915098Y14016517D1*
X2911765Y13999851D1*
Y13969851D1*
X2915098Y13953184D1*
X2918432Y13943184D1*
X2928432Y13923184D1*
X2938432Y13909851D1*
X2945098Y13903184D1*
X2958432Y13893184D1*
X2968432Y13886517D1*
X2975098Y13883184D1*
X2995098Y13876517D1*
X3011765Y13873184D1*
X3158432Y13869851D1*
Y13773184D1*
X3151765Y13766517D1*
X3145098Y13753184D1*
Y13733184D1*
X3148432Y13723184D1*
X3155098Y13713184D1*
X3158432Y13709851D1*
X3168432Y13703184D1*
X3178432Y13699851D1*
X3198432D1*
X3208432Y13703184D1*
X3225098Y13719851D1*
X3228432Y13726517D1*
X3231765Y13736517D1*
Y13749851D1*
X3228432Y13759851D1*
X3225098Y13766517D1*
X3218432Y13773184D1*
Y14036517D1*
X3225098Y14043184D1*
X3228432Y14049851D1*
X3231765Y14059851D1*
Y14073184D1*
X3228432Y14083184D1*
X3225098Y14089851D1*
X3208432Y14106517D1*
X3198432Y14109851D1*
X3178432D1*
X3168432Y14106517D1*
X3161765Y14099851D1*
X3008432Y14096517D1*
X2991765Y14093184D1*
X2981765Y14089851D1*
X2968432Y14083184D1*
X3178432D1*
X3185098Y14086517D1*
X3191765D1*
X3198432Y14083184D1*
X3205098Y14076517D1*
Y14073184D1*
X3208432Y14069851D1*
Y14063184D1*
X3205098Y14059851D1*
X3198432Y14049851D1*
Y13756517D1*
X3205098Y13746517D1*
X3207620Y13742034D1*
X3207287Y13739031D1*
X3205098Y13736517D1*
Y13733184D1*
X3198432Y13726517D1*
X3191765Y13723184D1*
X3185098D1*
X3178432Y13726517D1*
X3168432Y13736517D1*
Y13746517D1*
X3178432Y13756517D1*
Y13893184D1*
X3008432Y13896517D1*
X2995098Y13899851D1*
X2985098Y13903184D1*
X2978432Y13906517D1*
X2975098Y13909851D1*
X2968432Y13913184D1*
X2948432Y13933184D1*
Y13936517D1*
X2938432Y13956517D1*
X2935098Y13976517D1*
X2931765Y13979851D1*
Y13989851D1*
X2935098Y13993184D1*
X2938432Y14009851D1*
X2941765Y14019851D1*
X2945098Y14026517D1*
X2951765Y14036517D1*
Y14039851D1*
X2968432Y14056517D1*
X2975098Y14059851D1*
X2978432Y14063184D1*
X2991765Y14069851D1*
X3005098Y14073184D1*
X3171765Y14076517D1*
X3178432Y14083184D1*
X2968432D1*
G37*
G36*
X3788432D2*
X3785098Y14079851D1*
X3778432Y14076517D1*
X3761765Y14063184D1*
X3748432Y14046517D1*
X3738432Y14026517D1*
X3735098Y14016517D1*
X3731765Y13999851D1*
Y13969851D1*
X3735098Y13953184D1*
X3738432Y13943184D1*
X3748432Y13923184D1*
X3758432Y13909851D1*
X3765098Y13903184D1*
X3778432Y13893184D1*
X3788432Y13886517D1*
X3795098Y13883184D1*
X3815098Y13876517D1*
X3831765Y13873184D1*
X3978432Y13869851D1*
Y13773184D1*
X3971765Y13766517D1*
X3965098Y13753184D1*
Y13733184D1*
X3968432Y13723184D1*
X3975098Y13713184D1*
X3978432Y13709851D1*
X3988432Y13703184D1*
X3998432Y13699851D1*
X4018432D1*
X4028432Y13703184D1*
X4045098Y13719851D1*
X4048432Y13726517D1*
X4051765Y13736517D1*
Y13749851D1*
X4048432Y13759851D1*
X4045098Y13766517D1*
X4038432Y13773184D1*
Y14036517D1*
X4045098Y14043184D1*
X4048432Y14049851D1*
X4051765Y14059851D1*
Y14073184D1*
X4048432Y14083184D1*
X4045098Y14089851D1*
X4028432Y14106517D1*
X4018432Y14109851D1*
X3998432D1*
X3988432Y14106517D1*
X3981765Y14099851D1*
X3828432Y14096517D1*
X3811765Y14093184D1*
X3801765Y14089851D1*
X3788432Y14083184D1*
X3998432D1*
X4005098Y14086517D1*
X4011765D1*
X4018432Y14083184D1*
X4025098Y14076517D1*
Y14073184D1*
X4028432Y14069851D1*
Y14063184D1*
X4025098Y14059851D1*
X4018432Y14049851D1*
Y13756517D1*
X4025098Y13746517D1*
X4027620Y13742034D1*
X4027287Y13739031D1*
X4025098Y13736517D1*
Y13733184D1*
X4018432Y13726517D1*
X4011765Y13723184D1*
X4005098D1*
X3998432Y13726517D1*
X3988432Y13736517D1*
Y13746517D1*
X3998432Y13756517D1*
Y13893184D1*
X3828432Y13896517D1*
X3815098Y13899851D1*
X3805098Y13903184D1*
X3798432Y13906517D1*
X3795098Y13909851D1*
X3788432Y13913184D1*
X3768432Y13933184D1*
Y13936517D1*
X3758432Y13956517D1*
X3755098Y13976517D1*
X3751765Y13979851D1*
Y13989851D1*
X3755098Y13993184D1*
X3758432Y14009851D1*
X3761765Y14019851D1*
X3765098Y14026517D1*
X3771765Y14036517D1*
Y14039851D1*
X3788432Y14056517D1*
X3795098Y14059851D1*
X3798432Y14063184D1*
X3811765Y14069851D1*
X3825098Y14073184D1*
X3991765Y14076517D1*
X3998432Y14083184D1*
X3788432D1*
G37*
G36*
X2971765Y14036517D2*
X2965098Y14029851D1*
X2955098Y14009851D1*
X2951765Y13999851D1*
Y13969851D1*
X2958432Y13949851D1*
X2965098Y13939851D1*
X2981765Y13923184D1*
X3001765Y13913184D1*
X3015098Y13909851D1*
X3178432D1*
Y14049851D1*
X3171765Y14059851D1*
X3011765D1*
X2998432Y14056517D1*
X2991765Y14053184D1*
X2981765Y14046517D1*
X2971765Y14036517D1*
X3011765D1*
X3060654Y14039851D1*
X3109543D1*
X3158432Y14036517D1*
Y13933184D1*
X3110654Y13929851D1*
X3062876D1*
X3015098Y13933184D1*
X3005098Y13936517D1*
X2998432Y13939851D1*
X2995098Y13943184D1*
X2988432Y13946517D1*
X2984479Y13950265D1*
X2985098Y13953184D1*
X2978432Y13963184D1*
X2975098Y13976517D1*
X2971765Y13979851D1*
Y13989851D1*
X2975098Y13993184D1*
X2978432Y14006517D1*
Y14009851D1*
X2998432Y14029851D1*
X3011765Y14036517D1*
X2971765D1*
G37*
G36*
X3791765D2*
X3785098Y14029851D1*
X3775098Y14009851D1*
X3771765Y13999851D1*
Y13969851D1*
X3778432Y13949851D1*
X3785098Y13939851D1*
X3801765Y13923184D1*
X3821765Y13913184D1*
X3835098Y13909851D1*
X3998432D1*
Y14049851D1*
X3991765Y14059851D1*
X3831765D1*
X3818432Y14056517D1*
X3811765Y14053184D1*
X3801765Y14046517D1*
X3791765Y14036517D1*
X3831765D1*
X3880654Y14039851D1*
X3929543D1*
X3978432Y14036517D1*
Y13933184D1*
X3930654Y13929851D1*
X3882876D1*
X3835098Y13933184D1*
X3825098Y13936517D1*
X3818432Y13939851D1*
X3815098Y13943184D1*
X3808432Y13946517D1*
X3804479Y13950265D1*
X3805098Y13953184D1*
X3798432Y13963184D1*
X3795098Y13976517D1*
X3791765Y13979851D1*
Y13989851D1*
X3795098Y13993184D1*
X3798432Y14006517D1*
Y14009851D1*
X3818432Y14029851D1*
X3831765Y14036517D1*
X3791765D1*
G37*
G36*
X4208432Y14703184D2*
Y14289851D1*
X4201765Y14283184D1*
X4195098Y14273184D1*
X4191765Y14266517D1*
Y14233184D1*
X4195098Y14226517D1*
X4201765Y14216517D1*
X4208432Y14209851D1*
X4218432Y14203184D1*
X4228432Y14199851D1*
X4255098D1*
X4265098Y14203184D1*
X4275098Y14209851D1*
X4281765Y14216517D1*
X4288432Y14226517D1*
X4291765Y14233184D1*
X4295098Y14249851D1*
Y14253184D1*
X4291765Y14266517D1*
X4288432Y14273184D1*
X4281765Y14283184D1*
X4275098Y14289851D1*
Y14466517D1*
X4271765Y14469851D1*
Y14483184D1*
X4274254Y14485325D1*
X4275940Y14485045D1*
X4277837Y14482289D1*
X4278432Y14479851D1*
X4288432Y14459851D1*
X4301765Y14439851D1*
X4305098Y14433184D1*
X4331765Y14393184D1*
X4335098Y14386517D1*
X4355098Y14356517D1*
X4358432Y14349851D1*
X4385098Y14309851D1*
X4388432Y14303184D1*
X4415098Y14263184D1*
X4418432Y14256517D1*
X4421765Y14259851D1*
X4441765Y14289851D1*
X4445098Y14296517D1*
X4471765Y14336517D1*
X4475098Y14343184D1*
X4501765Y14383184D1*
X4505098Y14389851D1*
X4531765Y14429851D1*
X4535098Y14436517D1*
X4555098Y14466517D1*
X4558432Y14476517D1*
X4561765Y14483184D1*
X4562309Y14485762D1*
X4564354Y14488495D1*
X4565997Y14488416D1*
X4568432Y14486517D1*
Y14476517D1*
X4565098Y14473184D1*
Y14289851D1*
X4551765Y14276517D1*
X4548432Y14269851D1*
X4545098Y14259851D1*
Y14239851D1*
X4548432Y14229851D1*
X4551765Y14223184D1*
X4568432Y14206517D1*
X4575098Y14203184D1*
X4585098Y14199851D1*
X4611765D1*
X4625098Y14206517D1*
X4641765Y14223184D1*
X4648432Y14236517D1*
Y14263184D1*
X4641765Y14276517D1*
X4630098Y14289851D1*
Y14699851D1*
X4626765D1*
Y14696517D1*
X4621765Y14689851D1*
X4615098Y14679851D1*
X4611765Y14673184D1*
X4591765Y14643184D1*
X4588432Y14636517D1*
X4575098Y14616517D1*
X4571765Y14609851D1*
X4558432Y14589851D1*
X4555098Y14583184D1*
X4535098Y14553184D1*
X4531765Y14546517D1*
X4518432Y14526517D1*
X4515098Y14519851D1*
X4495098Y14489851D1*
X4491765Y14483184D1*
X4478432Y14463184D1*
X4475098Y14456517D1*
X4461765Y14436517D1*
X4458432Y14429851D1*
X4438432Y14399851D1*
X4435098Y14393184D1*
X4428432Y14383184D1*
X4425098Y14376517D1*
X4423885Y14372419D1*
X4420440Y14369593D1*
X4418432Y14369851D1*
X4411765Y14376517D1*
Y14379851D1*
X4408432Y14386517D1*
X4395098Y14406517D1*
X4391765Y14413184D1*
X4378432Y14433184D1*
X4375098Y14439851D1*
X4361765Y14459851D1*
X4358432Y14466517D1*
X4338432Y14496517D1*
X4335098Y14503184D1*
X4321765Y14523184D1*
X4318432Y14529851D1*
X4298432Y14559851D1*
X4295098Y14566517D1*
X4281765Y14586517D1*
X4278432Y14593184D1*
X4265098Y14613184D1*
X4261765Y14619851D1*
X4241765Y14649851D1*
X4238432Y14656517D1*
X4225098Y14676517D1*
X4221765Y14683184D1*
X4215098Y14693184D1*
X4208432Y14699851D1*
Y14703184D1*
G37*
G36*
X3848432Y14536517D2*
Y14529851D1*
X3845098Y14526517D1*
X3838432Y14513184D1*
X3835098Y14503184D1*
X3828432Y14489851D1*
X3825098Y14479851D1*
X3818432Y14466517D1*
X3815098Y14456517D1*
X3808432Y14443184D1*
X3805098Y14433184D1*
X3801765Y14426517D1*
X3798432Y14416517D1*
X3791765Y14403184D1*
X3788432Y14393184D1*
X3781765Y14379851D1*
X3778432Y14369851D1*
X3771765Y14356517D1*
X3768432Y14346517D1*
X3761765Y14333184D1*
X3758432Y14323184D1*
X3755098Y14316517D1*
X3751765Y14306517D1*
X3750669Y14302473D1*
X3748432Y14299851D1*
X3741765Y14296517D1*
X3731765Y14289851D1*
X3725098Y14279851D1*
X3718432Y14266517D1*
X3715098Y14256517D1*
Y14246517D1*
X3718432Y14233184D1*
X3725098Y14219851D1*
X3738432Y14206517D1*
X3751765Y14199851D1*
X3781765D1*
X3791765Y14203184D1*
X3801765Y14209851D1*
X3808432Y14216517D1*
X3815098Y14226517D1*
X3818432Y14236517D1*
X3821765Y14279851D1*
X3828432Y14293184D1*
X3831765Y14303184D1*
X3835098Y14309851D1*
Y14313184D1*
X3891765Y14316517D1*
X3948432D1*
X4005098Y14313184D1*
Y14309851D1*
X4011765Y14296517D1*
X4015098Y14286517D1*
X4018432Y14279851D1*
X4021765Y14236517D1*
X4028432Y14223184D1*
X4035098Y14213184D1*
X4045098Y14206517D1*
X4058432Y14199851D1*
X4088432D1*
X4101765Y14206517D1*
X4115098Y14219851D1*
X4121765Y14233184D1*
X4125098Y14243184D1*
Y14259851D1*
X4121765Y14269851D1*
X4115098Y14283184D1*
X4105098Y14293184D1*
X4098432Y14296517D1*
X4088432Y14306517D1*
Y14309851D1*
X4085098Y14316517D1*
X4081765Y14326517D1*
X4078432Y14333184D1*
X4075098Y14343184D1*
X4068432Y14356517D1*
X4065098Y14366517D1*
X4058432Y14379851D1*
X4055098Y14389851D1*
X4048432Y14403184D1*
X4045098Y14413184D1*
X4038432Y14426517D1*
X4035098Y14436517D1*
X4028432Y14449851D1*
X4025098Y14459851D1*
X4018432Y14473184D1*
X4015098Y14483184D1*
X4008432Y14496517D1*
X4005098Y14506517D1*
X3998432Y14519851D1*
X3995098Y14529851D1*
X3988432Y14543184D1*
X3985098Y14553184D1*
X3981765Y14559851D1*
X3978432Y14569851D1*
X3971765Y14583184D1*
X3968432Y14593184D1*
X3961765Y14606517D1*
X3958432Y14616517D1*
X3951765Y14629851D1*
X3948432Y14639851D1*
X3941765Y14653184D1*
X3938432Y14663184D1*
X3931765Y14676517D1*
X3928432Y14686517D1*
X3921765Y14699851D1*
X3918432D1*
X3915098Y14693184D1*
X3911765Y14683184D1*
X3905098Y14669851D1*
X3901765Y14659851D1*
X3895098Y14646517D1*
X3891765Y14636517D1*
X3885098Y14623184D1*
X3881765Y14613184D1*
X3875098Y14599851D1*
X3871765Y14589851D1*
X3865098Y14576517D1*
X3861765Y14566517D1*
X3858432Y14559851D1*
X3855098Y14549851D1*
X3848432Y14536517D1*
X3915098D1*
X3918666Y14538508D1*
X3921561Y14538294D1*
X3925098Y14536517D1*
Y14526517D1*
X3931765Y14506517D1*
X3935098Y14499851D1*
X3941765Y14479851D1*
X3945098Y14473184D1*
X3951765Y14453184D1*
X3955098Y14446517D1*
X3961765Y14426517D1*
X3965098Y14419851D1*
X3971765Y14399851D1*
X3975098Y14393184D1*
X3978432Y14389851D1*
Y14383184D1*
X3939543Y14379851D1*
X3900654D1*
X3861765Y14383184D1*
X3862413Y14385547D1*
X3865098Y14389851D1*
X3871765Y14409851D1*
X3875098Y14416517D1*
X3881765Y14436517D1*
X3885098Y14443184D1*
X3891765Y14463184D1*
X3895098Y14469851D1*
X3901765Y14489851D1*
X3905098Y14496517D1*
X3915098Y14526517D1*
Y14536517D1*
X3848432D1*
G37*
G36*
X2338432Y14599851D2*
X2337336Y14595807D1*
X2335098Y14593184D1*
X2328432Y14573184D1*
Y14513184D1*
X2331765Y14499851D1*
X2335098Y14493184D1*
X2338432Y14483184D1*
X2351765Y14463184D1*
X2365098Y14449851D1*
X2378432Y14439851D1*
X2388432Y14433184D1*
X2395098Y14429851D1*
X2425098Y14419851D1*
X2448432Y14416517D1*
X2441765Y14409851D1*
X2431765Y14396517D1*
X2425098Y14386517D1*
X2395098Y14346517D1*
X2388432Y14336517D1*
X2368432Y14309851D1*
Y14306517D1*
X2361765Y14303184D1*
X2351765Y14299851D1*
X2345098Y14296517D1*
X2335098Y14289851D1*
X2325098Y14276517D1*
X2321765Y14269851D1*
Y14236517D1*
X2325098Y14226517D1*
X2331765Y14216517D1*
X2338432Y14209851D1*
X2348432Y14203184D1*
X2358432Y14199851D1*
X2381765D1*
X2391765Y14203184D1*
X2398432Y14206517D1*
X2415098Y14223184D1*
X2421765Y14236517D1*
X2425098Y14263184D1*
X2445098Y14289851D1*
X2451765Y14299851D1*
X2481765Y14339851D1*
X2488432Y14349851D1*
X2518432Y14389851D1*
X2525098Y14399851D1*
Y14403184D1*
X2535098Y14413184D1*
X2565098Y14416517D1*
X2595098D1*
X2625098Y14413184D1*
Y14289851D1*
X2618432Y14283184D1*
X2611765Y14273184D1*
X2608432Y14263184D1*
Y14239851D1*
X2611765Y14229851D1*
X2615098Y14223184D1*
X2631765Y14206517D1*
X2638432Y14203184D1*
X2648432Y14199851D1*
X2671765D1*
X2681765Y14203184D1*
X2688432Y14206517D1*
X2705098Y14223184D1*
X2708432Y14229851D1*
X2711765Y14239851D1*
Y14263184D1*
X2708432Y14273184D1*
X2701765Y14283184D1*
X2695098Y14289851D1*
Y14599851D1*
X2705098Y14609851D1*
X2708432Y14616517D1*
X2711765Y14626517D1*
Y14646517D1*
X2708432Y14656517D1*
X2705098Y14663184D1*
X2698432Y14673184D1*
X2695098Y14676517D1*
X2685098Y14683184D1*
X2678432Y14686517D1*
X2668432Y14689851D1*
X2651765D1*
X2641765Y14686517D1*
X2635098Y14683184D1*
X2625098Y14673184D1*
X2435098Y14669851D1*
X2408432Y14663184D1*
X2388432Y14653184D1*
X2378432Y14646517D1*
X2348432Y14616517D1*
X2341765Y14606517D1*
X2338432Y14599851D1*
X2445098D1*
X2505098Y14603184D1*
X2565098D1*
X2625098Y14599851D1*
Y14486517D1*
X2566209Y14483184D1*
X2507321D1*
X2448432Y14486517D1*
X2435098Y14489851D1*
X2428432Y14493184D1*
X2425098Y14496517D1*
X2418432Y14499851D1*
X2411765Y14506517D1*
Y14509851D1*
X2405098Y14519851D1*
X2401765Y14536517D1*
X2398432Y14539851D1*
Y14546517D1*
X2401765Y14549851D1*
X2405098Y14566517D1*
X2411765Y14576517D1*
Y14579851D1*
X2418432Y14586517D1*
X2425098Y14589851D1*
X2428432Y14593184D1*
X2435098Y14596517D1*
X2445098Y14599851D1*
X2338432D1*
G37*
G36*
X2851765Y14689851D2*
X2841765Y14686517D1*
X2835098Y14683184D1*
X2825098Y14676517D1*
X2821765Y14673184D1*
X2815098Y14663184D1*
X2811765Y14656517D1*
X2808432Y14646517D1*
Y14629851D1*
X2811765Y14619851D1*
X2815098Y14613184D1*
X2821765Y14603184D1*
X2825098Y14599851D1*
X2835098Y14593184D1*
X2841765Y14589851D1*
X2855098Y14586517D1*
X2868432D1*
X2878432Y14589851D1*
X2885098Y14593184D1*
X2895098Y14599851D1*
Y14603184D1*
X2965098Y14606517D1*
X3035098D1*
X3105098Y14603184D1*
Y14486517D1*
X3051765Y14483184D1*
X2998432D1*
X2945098Y14486517D1*
X2935098Y14496517D1*
X2928432Y14499851D1*
X2918432Y14503184D1*
X2901765D1*
X2891765Y14499851D1*
X2885098Y14496517D1*
X2865098Y14476517D1*
X2861765Y14469851D1*
X2858432Y14459851D1*
Y14439851D1*
X2861765Y14429851D1*
X2868432Y14416517D1*
X2875098Y14409851D1*
X2885098Y14403184D1*
X2891765Y14399851D1*
X2901765Y14396517D1*
X2918432D1*
X2928432Y14399851D1*
X2935098Y14403184D1*
X2945098Y14413184D1*
X2998432Y14416517D1*
X3051765D1*
X3105098Y14413184D1*
Y14286517D1*
X3035098Y14283184D1*
X2965098D1*
X2895098Y14286517D1*
X2885098Y14296517D1*
X2878432Y14299851D1*
X2868432Y14303184D1*
X2855098D1*
X2841765Y14299851D1*
X2835098Y14296517D1*
X2815098Y14276517D1*
X2811765Y14269851D1*
X2808432Y14256517D1*
Y14243184D1*
X2811765Y14229851D1*
X2815098Y14223184D1*
X2835098Y14203184D1*
X2841765Y14199851D1*
X2855098Y14196517D1*
X2868432D1*
X2878432Y14199851D1*
X2885098Y14203184D1*
X2895098Y14209851D1*
X3175098Y14216517D1*
Y14669851D1*
X2895098Y14673184D1*
X2885098Y14683184D1*
X2871765Y14689851D1*
X2851765D1*
G37*
G36*
X3301765D2*
X3281765Y14679851D1*
X3278432Y14676517D1*
X3271765Y14666517D1*
X3265098Y14653184D1*
Y14626517D1*
X3268432Y14616517D1*
X3271765Y14609851D1*
X3285098Y14596517D1*
X3298432Y14589851D1*
X3311765Y14586517D1*
X3315098D1*
X3319543Y14589851D1*
X3323987D1*
X3328432Y14586517D1*
X3331765Y14583184D1*
X3341765Y14576517D1*
X3395098Y14536517D1*
X3405098Y14529851D1*
X3471765Y14479851D1*
X3481765Y14473184D1*
X3488432Y14469851D1*
X3495098Y14463184D1*
X3488432Y14459851D1*
X3465098Y14439851D1*
X3438432Y14416517D1*
X3321765Y14316517D1*
X3311765Y14306517D1*
X3291765Y14303184D1*
X3281765Y14299851D1*
X3275098Y14296517D1*
X3258432Y14279851D1*
X3255098Y14273184D1*
X3251765Y14263184D1*
Y14239851D1*
X3255098Y14229851D1*
X3258432Y14223184D1*
X3275098Y14206517D1*
X3281765Y14203184D1*
X3291765Y14199851D1*
X3311765D1*
X3325098Y14203184D1*
X3335098Y14209851D1*
X3348432Y14223184D1*
X3351765Y14229851D1*
X3355098Y14239851D1*
Y14246517D1*
X3368432Y14259851D1*
X3375098Y14263184D1*
X3405098Y14289851D1*
X3485098Y14359851D1*
X3515098Y14386517D1*
X3541765Y14409851D1*
X3551765Y14419851D1*
X3554254Y14421991D1*
X3555982Y14421797D1*
X3558432Y14419851D1*
Y14289851D1*
X3548432Y14279851D1*
X3545098Y14273184D1*
X3541765Y14263184D1*
Y14239851D1*
X3545098Y14229851D1*
X3551765Y14219851D1*
X3565098Y14206517D1*
X3571765Y14203184D1*
X3581765Y14199851D1*
X3605098D1*
X3615098Y14203184D1*
X3625098Y14209851D1*
X3635098Y14219851D1*
X3645098Y14239851D1*
Y14263184D1*
X3641765Y14273184D1*
X3635098Y14283184D1*
X3628432Y14289851D1*
Y14599851D1*
X3635098Y14606517D1*
X3641765Y14619851D1*
X3645098Y14629851D1*
Y14649851D1*
X3641765Y14659851D1*
X3638432Y14666517D1*
X3621765Y14683184D1*
X3608432Y14689851D1*
X3578432D1*
X3568432Y14686517D1*
X3548432Y14666517D1*
X3541765Y14653184D1*
Y14626517D1*
X3545098Y14616517D1*
X3551765Y14606517D1*
X3558432Y14599851D1*
Y14509851D1*
X3554897Y14506230D1*
X3553171Y14506772D1*
X3551765Y14509851D1*
X3485098Y14559851D1*
X3468432Y14573184D1*
X3375098Y14643184D1*
X3368432Y14646517D1*
X3365098Y14649851D1*
Y14659851D1*
X3361765Y14666517D1*
X3345098Y14683184D1*
X3331765Y14689851D1*
X3301765D1*
G37*
X4754410Y13157656D2*
D84*
Y12979003D1*
Y13064104D2*
X4733970Y13089654D1*
X4720291Y13098105D1*
X4699851D1*
X4686329Y13089654D1*
X4679568Y13064104D1*
Y12979003D1*
X4596906Y13157656D2*
Y13013004D1*
X4590145Y12987650D1*
X4576466Y12979003D1*
X4562944D1*
X4617346Y13098105D2*
X4569705D1*
X4480282Y13157656D2*
Y13013004D1*
X4473521Y12987650D1*
X4459842Y12979003D1*
X4446320D1*
X4500722Y13098105D2*
X4453081D1*
X4384097D2*
Y12919452D1*
Y13072555D2*
X4370418Y13089457D1*
X4356897Y13098105D1*
X4336457D1*
X4322777Y13089457D1*
X4309256Y13072555D1*
X4302337Y13047005D1*
Y13029906D1*
X4309256Y13004553D1*
X4322777Y12987454D1*
X4336457Y12979003D1*
X4356897D1*
X4370418Y12987454D1*
X4384097Y13004553D1*
X4233197Y13098105D2*
X4240115Y13089457D1*
X4233197Y13081006D1*
X4226436Y13089457D1*
X4233197Y13098105D1*
Y12996102D2*
X4240115Y12987454D1*
X4233197Y12979003D1*
X4226436Y12987454D1*
X4233197Y12996102D1*
X4164214Y12979003D2*
X4068932Y13157460D1*
X4006710Y12979003D2*
X3911428Y13157460D1*
X3849206Y13098105D2*
Y12979003D1*
Y13064104D2*
X3828766Y13089654D1*
X3815087Y13098105D1*
X3794804D1*
X3781125Y13089654D1*
X3774364Y13064104D1*
Y12979003D1*
Y13064104D2*
X3753924Y13089654D1*
X3740245Y13098105D1*
X3719962D1*
X3706283Y13089654D1*
X3699365Y13064104D1*
Y12979003D1*
X3555540Y13098105D2*
Y12979003D1*
Y13072555D2*
X3569062Y13089654D1*
X3582741Y13098105D1*
X3603024D1*
X3616703Y13089654D1*
X3630225Y13072555D1*
X3637143Y13047005D1*
Y13030103D1*
X3630225Y13004553D1*
X3616703Y12987650D1*
X3603024Y12979003D1*
X3582741D1*
X3569062Y12987650D1*
X3555540Y13004553D1*
X3493318Y13157656D2*
Y12979003D1*
X3425237Y13098105D2*
X3493318Y13013004D1*
X3466117Y13047005D2*
X3418476Y12979003D1*
X3356254Y13047005D2*
X3274651D1*
Y13064104D1*
X3281412Y13081203D1*
X3288173Y13089654D1*
X3301852Y13098105D1*
X3322292D1*
X3335814Y13089654D1*
X3349493Y13072555D1*
X3356254Y13047005D1*
Y13030103D1*
X3349493Y13004553D1*
X3335814Y12987650D1*
X3322292Y12979003D1*
X3301852D1*
X3288173Y12987650D1*
X3274651Y13004553D1*
X3212429Y13098105D2*
Y12979003D1*
Y13047005D2*
X3205510Y13072555D1*
X3191989Y13089654D1*
X3178310Y13098105D1*
X3157870D1*
X3095647D2*
Y12919452D1*
Y13072555D2*
X3081968Y13089457D1*
X3068446Y13098105D1*
X3048006D1*
X3034327Y13089457D1*
X3020805Y13072555D1*
X3013887Y13047005D1*
Y13029906D1*
X3020805Y13004553D1*
X3034327Y12987454D1*
X3048006Y12979003D1*
X3068446D1*
X3081968Y12987454D1*
X3095647Y13004553D1*
X2951665Y13098105D2*
Y12979003D1*
Y13064104D2*
X2931225Y13089654D1*
X2917546Y13098105D1*
X2897263D1*
X2883584Y13089654D1*
X2876823Y13064104D1*
Y12979003D1*
X2814601Y13098105D2*
Y12919452D1*
Y13072555D2*
X2800922Y13089457D1*
X2787400Y13098105D1*
X2766960D1*
X2753281Y13089457D1*
X2739759Y13072555D1*
X2732841Y13047005D1*
Y13029906D1*
X2739759Y13004553D1*
X2753281Y12987454D1*
X2766960Y12979003D1*
X2787400D1*
X2800922Y12987454D1*
X2814601Y13004553D1*
X2663858Y12996102D2*
X2670619Y12987454D1*
X2663858Y12979003D1*
X2656940Y12987454D1*
X2663858Y12996102D1*
X2560756Y13098105D2*
X2574278Y13089654D1*
X2587957Y13072555D1*
X2594718Y13047005D1*
Y13030103D1*
X2587957Y13004553D1*
X2574278Y12987650D1*
X2560756Y12979003D1*
X2540316D1*
X2526637Y12987650D1*
X2513115Y13004553D1*
X2506197Y13030103D1*
Y13047005D1*
X2513115Y13072555D1*
X2526637Y13089654D1*
X2540316Y13098105D1*
X2560756D1*
X2443974D2*
Y12979003D1*
Y13047005D2*
X2437056Y13072555D1*
X2423534Y13089654D1*
X2409855Y13098105D1*
X2389415D1*
X2245590Y13089654D2*
Y12953453D1*
X2252351Y12928099D1*
X2259112Y12919452D1*
X2272791Y12911000D1*
X2293231D1*
X2306753Y12919452D1*
X2245590Y13064104D2*
X2259112Y13081006D1*
X2272791Y13089654D1*
X2293231D1*
X2306753Y13081006D1*
X2320432Y13064104D1*
X2327193Y13038554D1*
Y13021455D1*
X2320432Y12996102D1*
X2306753Y12979003D1*
X2293231Y12970552D1*
X2272791D1*
X2259112Y12979003D1*
X2245590Y12996102D1*
X1152140Y10468242D2*
D82*
X1228706D1*
Y10441962D1*
X1224999Y10433202D1*
X1221377Y10430304D1*
X1214134Y10427407D1*
X1203184D1*
X1195856Y10430304D1*
X1192234Y10433202D1*
X1188612Y10441962D1*
X1184906Y10433202D1*
X1181284Y10430304D1*
X1174040Y10427407D1*
X1166712D1*
X1159468Y10430304D1*
X1155762Y10433202D1*
X1152140Y10441962D1*
Y10468242D1*
X1188612D2*
Y10441962D1*
X1192234Y10400740D2*
Y10374460D1*
X1188612Y10365767D1*
X1184906Y10362802D1*
X1177662Y10359905D1*
X1166712D1*
X1159468Y10362802D1*
X1155762Y10365767D1*
X1152140Y10374460D1*
Y10400740D1*
X1228706D1*
Y10674475D2*
X1152140Y10697858D1*
X1228706Y10721173D1*
X1203184Y10712413D2*
Y10683235D1*
X1152140Y10606974D2*
X1228706D1*
X1152140Y10647809D1*
X1228706D1*
Y10921975D2*
X1152140Y10945358D1*
X1228706Y10968673D1*
X1203184Y10959913D2*
Y10930735D1*
X1192234Y10895309D2*
Y10869029D1*
X1188612Y10860336D1*
X1184906Y10857371D1*
X1177662Y10854474D1*
X1166712D1*
X1159468Y10857371D1*
X1155762Y10860336D1*
X1152140Y10869029D1*
Y10895309D1*
X1228706D1*
X1152224Y11436167D2*
Y11465277D1*
X1184990Y11468174D1*
X1181368Y11465277D1*
X1177662Y11456517D1*
Y11447824D1*
X1181368Y11439064D1*
X1188612Y11433202D1*
X1199562Y11430304D1*
X1206806D1*
X1217756Y11433202D1*
X1225084Y11439064D1*
X1228706Y11447824D1*
Y11456517D1*
X1225084Y11465277D1*
X1221377Y11468174D1*
X1214134Y11471139D1*
X1152140Y11403638D2*
X1228706Y11380322D1*
X1152140Y11357007D1*
X1192234Y9469259D2*
Y9442979D1*
X1188612Y9434287D1*
X1184906Y9431322D1*
X1177662Y9428424D1*
X1166712D1*
X1159468Y9431322D1*
X1155762Y9434287D1*
X1152140Y9442979D1*
Y9469259D1*
X1228706D1*
X1152140Y9363887D2*
Y9401758D1*
X1228706D1*
Y9363887D1*
X1188612Y9401758D2*
Y9378442D1*
X1152140Y9718242D2*
Y9677407D1*
X1228706Y9718242D1*
Y9677407D1*
X1152140Y9609905D2*
X1228706D1*
X1152140Y9650740D1*
X1228706D1*
X1152140Y10220742D2*
X1228706D1*
Y10194462D1*
X1224999Y10185702D1*
X1221377Y10182804D1*
X1214134Y10179907D1*
X1203184D1*
X1195856Y10182804D1*
X1192234Y10185702D1*
X1188612Y10194462D1*
X1184906Y10185702D1*
X1181284Y10182804D1*
X1174040Y10179907D1*
X1166712D1*
X1159468Y10182804D1*
X1155762Y10185702D1*
X1152140Y10194462D1*
Y10220742D1*
X1188612D2*
Y10194462D1*
X1152140Y10112405D2*
X1228706D1*
X1152140Y10153240D1*
X1228706D1*
X1170334Y11142207D2*
X1163090Y11145105D1*
X1155762Y11150967D1*
X1152140Y11156762D1*
Y11168420D1*
X1155762Y11174282D1*
X1163090Y11180077D1*
X1170334Y11183042D1*
X1181284Y11185940D1*
X1199562D1*
X1210427Y11183042D1*
X1217756Y11180077D1*
X1224999Y11174282D1*
X1228706Y11168420D1*
Y11156762D1*
X1224999Y11150967D1*
X1217756Y11145105D1*
X1210427Y11142207D1*
X1199562D1*
Y11156762D1*
X1152140Y9970742D2*
Y9929907D1*
X1228706Y9970742D1*
Y9929907D1*
X1192234Y9903240D2*
Y9876960D1*
X1188612Y9868267D1*
X1184906Y9865302D1*
X1177662Y9862405D1*
X1166712D1*
X1159468Y9865302D1*
X1155762Y9868267D1*
X1152140Y9876960D1*
Y9903240D1*
X1228706D1*
X5860347Y10361762D2*
X5783781D1*
Y10388042D1*
X5787487Y10396802D1*
X5791109Y10399699D1*
X5798353Y10402597D1*
X5809303D1*
X5816631Y10399699D1*
X5820253Y10396802D1*
X5823875Y10388042D1*
X5827581Y10396802D1*
X5831203Y10399699D1*
X5838447Y10402597D1*
X5845775D1*
X5853019Y10399699D1*
X5856725Y10396802D1*
X5860347Y10388042D1*
Y10361762D1*
X5823875D2*
Y10388042D1*
X5820253Y10429263D2*
Y10455543D1*
X5823875Y10464236D1*
X5827581Y10467201D1*
X5834825Y10470098D1*
X5845775D1*
X5853019Y10467201D1*
X5856725Y10464236D1*
X5860347Y10455543D1*
Y10429263D1*
X5783781D1*
Y10155528D2*
X5860347Y10132145D1*
X5783781Y10108830D1*
X5809303Y10117590D2*
Y10146768D1*
X5860347Y10223030D2*
X5783781D1*
X5860347Y10182195D1*
X5783781D1*
Y9908028D2*
X5860347Y9884645D1*
X5783781Y9861330D1*
X5809303Y9870090D2*
Y9899268D1*
X5820253Y9934695D2*
Y9960975D1*
X5823875Y9969667D1*
X5827581Y9972632D1*
X5834825Y9975530D1*
X5845775D1*
X5853019Y9972632D1*
X5856725Y9969667D1*
X5860347Y9960975D1*
Y9934695D1*
X5783781D1*
X5842153Y9687796D2*
X5849397Y9684899D1*
X5856725Y9679036D1*
X5860347Y9673241D1*
Y9661584D1*
X5856725Y9655721D1*
X5849397Y9649926D1*
X5842153Y9646961D1*
X5831203Y9644064D1*
X5812925D1*
X5802059Y9646961D1*
X5794731Y9649926D1*
X5787487Y9655721D1*
X5783781Y9661584D1*
Y9673241D1*
X5787487Y9679036D1*
X5794731Y9684899D1*
X5802059Y9687796D1*
X5812925D1*
Y9673241D1*
X5860263Y9393837D2*
Y9364727D1*
X5827497Y9361829D1*
X5831119Y9364727D1*
X5834825Y9373487D1*
Y9382179D1*
X5831119Y9390939D1*
X5823875Y9396802D1*
X5812925Y9399699D1*
X5805681D1*
X5794731Y9396802D1*
X5787403Y9390939D1*
X5783781Y9382179D1*
Y9373487D1*
X5787403Y9364727D1*
X5791109Y9361829D1*
X5798353Y9358864D1*
X5860347Y9426366D2*
X5783781Y9449681D1*
X5860347Y9472996D1*
X5820253Y11360744D2*
Y11387024D1*
X5823875Y11395717D1*
X5827581Y11398682D1*
X5834825Y11401579D1*
X5845775D1*
X5853019Y11398682D1*
X5856725Y11395717D1*
X5860347Y11387024D1*
Y11360744D1*
X5783781D1*
X5860347Y11466116D2*
Y11428246D1*
X5783781D1*
Y11466116D1*
X5823875Y11428246D2*
Y11451561D1*
X5860347Y11111762D2*
Y11152597D1*
X5783781Y11111762D1*
Y11152597D1*
X5860347Y11220098D2*
X5783781D1*
X5860347Y11179263D1*
X5783781D1*
X5860347Y10859262D2*
Y10900097D1*
X5783781Y10859262D1*
Y10900097D1*
X5820253Y10926763D2*
Y10953043D1*
X5823875Y10961736D1*
X5827581Y10964701D1*
X5834825Y10967598D1*
X5845775D1*
X5853019Y10964701D1*
X5856725Y10961736D1*
X5860347Y10953043D1*
Y10926763D1*
X5783781D1*
X5860347Y10609262D2*
X5783781D1*
Y10635542D1*
X5787487Y10644302D1*
X5791109Y10647199D1*
X5798353Y10650097D1*
X5809303D1*
X5816631Y10647199D1*
X5820253Y10644302D1*
X5823875Y10635542D1*
X5827581Y10644302D1*
X5831203Y10647199D1*
X5838447Y10650097D1*
X5845775D1*
X5853019Y10647199D1*
X5856725Y10644302D1*
X5860347Y10635542D1*
Y10609262D1*
X5823875D2*
Y10635542D1*
X5860347Y10717598D2*
X5783781D1*
X5860347Y10676763D1*
X5783781D1*
X4045733Y4084737D2*
Y4161303D1*
X4072013D1*
X4080773Y4157597D1*
X4083671Y4153975D1*
X4086568Y4146731D1*
Y4135781D1*
X4083671Y4128453D1*
X4080773Y4124831D1*
X4072013Y4121209D1*
X4080773Y4117503D1*
X4083671Y4113881D1*
X4086568Y4106637D1*
Y4099309D1*
X4083671Y4092065D1*
X4080773Y4088359D1*
X4072013Y4084737D1*
X4045733D1*
Y4121209D2*
X4072013D1*
X4113235Y4123062D2*
X4146927D1*
X3690333Y4084737D2*
Y4161303D1*
X3716613D1*
X3725373Y4157597D1*
X3728270Y4153975D1*
X3731168Y4146731D1*
Y4135781D1*
X3728270Y4128453D1*
X3725373Y4124831D1*
X3716613Y4121209D1*
X3725373Y4117503D1*
X3728270Y4113881D1*
X3731168Y4106637D1*
Y4099309D1*
X3728270Y4092065D1*
X3725373Y4088359D1*
X3716613Y4084737D1*
X3690333D1*
Y4121209D2*
X3716613D1*
X3784047Y4090254D2*
Y4155870D1*
X3757835Y4123104D2*
X3810327D1*
X3247499Y4161303D2*
X3224117Y4084737D1*
X3200802Y4161303D1*
X3209562Y4135781D2*
X3238739D1*
X3274166Y4123062D2*
X3307858D1*
X2892099Y4161303D2*
X2868717Y4084737D1*
X2845402Y4161303D1*
X2854162Y4135781D2*
X2883339D1*
X2944978Y4090254D2*
Y4155870D1*
X2918766Y4123104D2*
X2971258D1*
X2956597Y15257370D2*
Y15180804D1*
X2930317D1*
X2921557Y15184510D1*
X2918659Y15188132D1*
X2915762Y15195376D1*
Y15206326D1*
X2918659Y15213654D1*
X2921557Y15217276D1*
X2930317Y15220898D1*
X2921557Y15224604D1*
X2918659Y15228226D1*
X2915762Y15235470D1*
Y15242798D1*
X2918659Y15250042D1*
X2921557Y15253748D1*
X2930317Y15257370D1*
X2956597D1*
Y15220898D2*
X2930317D1*
X2889095Y15219045D2*
X2855403D1*
X3311997Y15257370D2*
Y15180804D1*
X3285717D1*
X3276957Y15184510D1*
X3274060Y15188132D1*
X3271162Y15195376D1*
Y15206326D1*
X3274060Y15213654D1*
X3276957Y15217276D1*
X3285717Y15220898D1*
X3276957Y15224604D1*
X3274060Y15228226D1*
X3271162Y15235470D1*
Y15242798D1*
X3274060Y15250042D1*
X3276957Y15253748D1*
X3285717Y15257370D1*
X3311997D1*
Y15220898D2*
X3285717D1*
X3218283Y15251852D2*
Y15186237D1*
X3244495Y15219002D2*
X3192003D1*
X3754831Y15180804D2*
X3778213Y15257370D1*
X3801528Y15180804D1*
X3792768Y15206326D2*
X3763591D1*
X3728164Y15219045D2*
X3694472D1*
X4110231Y15180804D2*
X4133613Y15257370D1*
X4156928Y15180804D1*
X4148168Y15206326D2*
X4118991D1*
X4057352Y15251852D2*
Y15186237D1*
X4083564Y15219002D2*
X4031072D1*
X2523831Y16386384D2*
D83*
X2533489Y16382521D1*
X2543260Y16374704D1*
X2548089Y16366977D1*
Y16351434D1*
X2543260Y16343617D1*
X2533489Y16335891D1*
X2523831Y16331937D1*
X2509231Y16328074D1*
X2484860D1*
X2470372Y16331937D1*
X2460602Y16335891D1*
X2450943Y16343617D1*
X2446002Y16351434D1*
Y16366977D1*
X2450943Y16374704D1*
X2460602Y16382521D1*
X2470372Y16386384D1*
X2484860D1*
Y16366977D1*
X2548089Y16476387D2*
X2446002D1*
X2548089Y16421940D1*
X2446002D1*
X2548089Y16511942D2*
X2446002D1*
Y16539166D1*
X2450943Y16550846D1*
X2460602Y16558662D1*
X2470372Y16562526D1*
X2484860Y16566389D1*
X2509231D1*
X2523831Y16562526D1*
X2533489Y16558662D1*
X2543260Y16550846D1*
X2548089Y16539166D1*
Y16511942D1*
X2152089Y16401170D2*
X2050002Y16432256D1*
X2152089Y16463343D1*
X2144733Y16533849D2*
X2057245D1*
X2100933Y16498899D2*
Y16568889D1*
X4768922Y16709801D2*
D82*
Y16775417D1*
X4742710Y16742651D2*
X4795202D1*
X4821869Y16718940D2*
X4827732Y16715234D1*
X4836492Y16704368D1*
Y16780849D1*
X4866123Y16722562D2*
Y16718940D1*
X4869021Y16711612D1*
X4871918Y16707990D1*
X4877781Y16704368D1*
X4889438D1*
X4895233Y16707990D1*
X4898131Y16711612D1*
X4901096Y16718940D1*
Y16726184D1*
X4898131Y16733512D1*
X4892336Y16744378D1*
X4863158Y16780849D1*
X4903993D1*
X4930660Y16704284D2*
X4953975Y16780849D1*
X4977290Y16704284D1*
X4484365Y16722478D2*
X4481467Y16715234D1*
X4475605Y16707906D1*
X4469809Y16704284D1*
X4458152D1*
X4452289Y16707906D1*
X4446494Y16715234D1*
X4443529Y16722478D1*
X4440632Y16733428D1*
Y16751706D1*
X4443529Y16762571D1*
X4446494Y16769899D1*
X4452289Y16777143D1*
X4458152Y16780849D1*
X4469809D1*
X4475605Y16777143D1*
X4481467Y16769899D1*
X4484365Y16762571D1*
Y16751706D1*
X4469809D1*
X4551866Y16704284D2*
Y16780849D1*
X4511031Y16704284D1*
Y16780849D1*
X4578533Y16704284D2*
Y16780849D1*
X4598951D1*
X4607711Y16777143D1*
X4613573Y16769899D1*
X4616471Y16762571D1*
X4619368Y16751706D1*
Y16733428D1*
X4616471Y16722478D1*
X4613573Y16715234D1*
X4607711Y16707906D1*
X4598951Y16704284D1*
X4578533D1*
X5187567Y1678333D2*
X5111001D1*
Y1704613D1*
X5114707Y1713373D1*
X5118329Y1716271D1*
X5125573Y1719168D1*
X5136523D1*
X5143851Y1716271D1*
X5147473Y1713373D1*
X5151095Y1704613D1*
X5154801Y1713373D1*
X5158423Y1716271D1*
X5165667Y1719168D1*
X5172995D1*
X5180239Y1716271D1*
X5183945Y1713373D1*
X5187567Y1704613D1*
Y1678333D1*
X5151095D2*
Y1704613D1*
X5172911Y1745835D2*
X5176617Y1751698D1*
X5187483Y1760458D1*
X5111001D1*
X4187567Y1678333D2*
X4111001D1*
Y1704613D1*
X4114707Y1713373D1*
X4118329Y1716271D1*
X4125573Y1719168D1*
X4136523D1*
X4143851Y1716271D1*
X4147473Y1713373D1*
X4151095Y1704613D1*
X4154801Y1713373D1*
X4158423Y1716271D1*
X4165667Y1719168D1*
X4172995D1*
X4180239Y1716271D1*
X4183945Y1713373D1*
X4187567Y1704613D1*
Y1678333D1*
X4151095D2*
Y1704613D1*
X4172911Y1745835D2*
X4176617Y1751698D1*
X4187483Y1760458D1*
X4111001D1*
X4172911Y1787124D2*
X4176617Y1792987D1*
X4187483Y1801747D1*
X4111001D1*
X3887567Y1678333D2*
X3811001D1*
Y1704613D1*
X3814707Y1713373D1*
X3818329Y1716271D1*
X3825573Y1719168D1*
X3836523D1*
X3843851Y1716271D1*
X3847473Y1713373D1*
X3851095Y1704613D1*
X3854801Y1713373D1*
X3858423Y1716271D1*
X3865667Y1719168D1*
X3872995D1*
X3880239Y1716271D1*
X3883945Y1713373D1*
X3887567Y1704613D1*
Y1678333D1*
X3851095D2*
Y1704613D1*
X3872911Y1745835D2*
X3876617Y1751698D1*
X3887483Y1760458D1*
X3811001D1*
X3869289Y1790089D2*
X3872911D1*
X3880239Y1792987D1*
X3883861Y1795884D1*
X3887483Y1801747D1*
Y1813404D1*
X3883861Y1819199D1*
X3880239Y1822097D1*
X3872911Y1825062D1*
X3865667D1*
X3858339Y1822097D1*
X3847473Y1816302D1*
X3811001Y1787124D1*
Y1827959D1*
X1887567Y1678333D2*
X1811001D1*
Y1704613D1*
X1814707Y1713373D1*
X1818329Y1716271D1*
X1825573Y1719168D1*
X1836523D1*
X1843851Y1716271D1*
X1847473Y1713373D1*
X1851095Y1704613D1*
X1854801Y1713373D1*
X1858423Y1716271D1*
X1865667Y1719168D1*
X1872995D1*
X1880239Y1716271D1*
X1883945Y1713373D1*
X1887567Y1704613D1*
Y1678333D1*
X1851095D2*
Y1704613D1*
X1887483Y1751698D2*
Y1783705D1*
X1858339Y1766253D1*
Y1775013D1*
X1854717Y1780808D1*
X1851095Y1783705D1*
X1840145Y1786670D1*
X1832901D1*
X1821951Y1783705D1*
X1814623Y1777910D1*
X1811001Y1769150D1*
Y1760390D1*
X1814623Y1751698D1*
X1818329Y1748800D1*
X1825573Y1745835D1*
X1869289Y1816302D2*
X1872911D1*
X1880239Y1819199D1*
X1883861Y1822097D1*
X1887483Y1827959D1*
Y1839617D1*
X1883861Y1845412D1*
X1880239Y1848309D1*
X1872911Y1851274D1*
X1865667D1*
X1858339Y1848309D1*
X1847473Y1842514D1*
X1811001Y1813337D1*
Y1854172D1*
M02*
