G04 DipTrace 5.2.0.4*
G04 BottomSilk.gbr*
%MOMM*%
G04 #@! TF.FileFunction,Legend,Bot*
G04 #@! TF.Part,Single*
%ADD24C,0.5*%
%ADD83C,0.16667*%
%ADD84C,0.22222*%
%ADD85C,0.38889*%
%FSLAX35Y35*%
G04*
G71*
G90*
G75*
G01*
G04 BotSilk*
%LPD*%
G36*
X5975000Y3352500D2*
X5887500D1*
X5737500Y3077500D1*
X5887500D1*
X5981190Y3249267D1*
X5975000Y3352500D1*
G37*
G36*
X5737500D2*
X5587500D1*
X5437500Y3077500D1*
X5587500D1*
X5737500Y3352500D1*
G37*
G36*
X5437500D2*
X5287500D1*
X5137500Y3077500D1*
X5287500D1*
X5437500Y3352500D1*
G37*
G36*
X3337500D2*
X3187500D1*
X3037500Y3077500D1*
X3187500D1*
X3337500Y3352500D1*
G37*
G36*
X5137500D2*
X4987500D1*
X4837500Y3077500D1*
X4987500D1*
X5137500Y3352500D1*
G37*
G36*
X4837500D2*
X4687500D1*
X4537500Y3077500D1*
X4687500D1*
X4837500Y3352500D1*
G37*
G36*
X4537500D2*
X4387500D1*
X4237500Y3077500D1*
X4387500D1*
X4537500Y3352500D1*
G37*
G36*
X3637500D2*
X3487500D1*
X3337500Y3077500D1*
X3487500D1*
X3637500Y3352500D1*
G37*
G36*
X4237500D2*
X4087500D1*
X3937500Y3077500D1*
X4087500D1*
X4237500Y3352500D1*
G37*
G36*
X2437500D2*
X2287500D1*
X2137500Y3077500D1*
X2287500D1*
X2437500Y3352500D1*
G37*
G36*
X3937500D2*
X3787500D1*
X3637500Y3077500D1*
X3787500D1*
X3937500Y3352500D1*
G37*
G36*
X3037500D2*
X2887500D1*
X2737500Y3077500D1*
X2887500D1*
X3037500Y3352500D1*
G37*
G36*
X2737500D2*
X2587500D1*
X2437500Y3077500D1*
X2587500D1*
X2737500Y3352500D1*
G37*
G36*
X2137500D2*
X1987500D1*
X1837500Y3077500D1*
X1987500D1*
X2137500Y3352500D1*
G37*
G36*
X1537500D2*
X1387500D1*
X1237500Y3077500D1*
X1387500D1*
X1537500Y3352500D1*
G37*
G36*
X1837500D2*
X1687500D1*
X1537500Y3077500D1*
X1687500D1*
X1837500Y3352500D1*
G37*
G36*
X1237500D2*
X1087500D1*
X1012500Y3215000D1*
Y3077500D1*
X1087500D1*
X1237500Y3352500D1*
G37*
X3212500Y11890000D2*
D24*
G02X3212500Y11890000I287500J0D01*
G01*
Y7390000D2*
G02X3212500Y7390000I287500J0D01*
G01*
G36*
X3600260Y14056910D2*
X3586927Y14043577D1*
X3553593Y14006910D1*
X3516927Y13966910D1*
X3483593Y13930243D1*
X3446927Y13890243D1*
X3413593Y13853577D1*
X3406927Y13843577D1*
X3403392Y13839956D1*
X3401666Y13840498D1*
X3400260Y13843577D1*
Y14036910D1*
X3406927Y14043577D1*
X3410260Y14050243D1*
X3413593Y14060243D1*
Y14073577D1*
X3410260Y14083577D1*
X3406927Y14090243D1*
X3390260Y14106910D1*
X3380260Y14110243D1*
X3360260D1*
X3350260Y14106910D1*
X3330260Y14086910D1*
X3326927Y14076910D1*
Y14056910D1*
X3330260Y14046910D1*
X3340260Y14036910D1*
Y13693577D1*
X3373593Y13726910D1*
X3446927Y13806910D1*
X3480260Y13843577D1*
X3590260Y13963577D1*
X3590804Y13966155D1*
X3592849Y13968887D1*
X3594492Y13968809D1*
X3596927Y13966910D1*
Y13773577D1*
X3586927Y13763577D1*
X3583593Y13756910D1*
Y13730243D1*
X3586927Y13723577D1*
X3593593Y13713577D1*
X3596927Y13710243D1*
X3606927Y13703577D1*
X3616927Y13700243D1*
X3636927D1*
X3646927Y13703577D1*
X3663593Y13720243D1*
X3666927Y13726910D1*
X3670260Y13736910D1*
Y13750243D1*
X3666927Y13760243D1*
X3663593Y13766910D1*
X3656927Y13773577D1*
Y14116910D1*
X3623593Y14083577D1*
X3600260Y14056910D1*
X3626927D1*
X3629416Y14059051D1*
X3631143Y14058856D1*
X3633593Y14056910D1*
Y13760243D1*
X3643593Y13746910D1*
X3646115Y13742427D1*
X3645782Y13739424D1*
X3643593Y13736910D1*
Y13733577D1*
X3636927Y13726910D1*
X3630260Y13723577D1*
X3623593D1*
X3616927Y13726910D1*
X3606927Y13736910D1*
Y13746910D1*
X3610260Y13750243D1*
X3616927Y13760243D1*
Y14023577D1*
X3606927Y14013577D1*
X3540260Y13940243D1*
X3503593Y13900243D1*
X3436927Y13826910D1*
X3400260Y13786910D1*
X3366927Y13750243D1*
X3363392Y13746623D1*
X3361666Y13747164D1*
X3360260Y13750243D1*
Y14050243D1*
X3353593Y14060243D1*
X3350260Y14063577D1*
Y14073577D1*
X3360260Y14083577D1*
X3366927Y14086910D1*
X3373593D1*
X3380260Y14083577D1*
X3386927Y14076910D1*
Y14073577D1*
X3390260Y14070243D1*
Y14063577D1*
X3386927Y14060243D1*
X3380260Y14050243D1*
Y13786910D1*
X3393593Y13800243D1*
X3430260Y13840243D1*
X3530260Y13950243D1*
X3566927Y13990243D1*
X3600260Y14026910D1*
X3626927Y14056910D1*
X3600260D1*
G37*
G36*
X2966927Y14083577D2*
X2963593Y14080243D1*
X2956927Y14076910D1*
X2940260Y14063577D1*
X2926927Y14046910D1*
X2916927Y14026910D1*
X2913593Y14016910D1*
X2910260Y14000243D1*
Y13970243D1*
X2913593Y13953577D1*
X2916927Y13943577D1*
X2926927Y13923577D1*
X2936927Y13910243D1*
X2943593Y13903577D1*
X2956927Y13893577D1*
X2966927Y13886910D1*
X2973593Y13883577D1*
X2993593Y13876910D1*
X3010260Y13873577D1*
X3156927Y13870243D1*
Y13773577D1*
X3150260Y13766910D1*
X3143593Y13753577D1*
Y13733577D1*
X3146927Y13723577D1*
X3153593Y13713577D1*
X3156927Y13710243D1*
X3166927Y13703577D1*
X3176927Y13700243D1*
X3196927D1*
X3206927Y13703577D1*
X3223593Y13720243D1*
X3226927Y13726910D1*
X3230260Y13736910D1*
Y13750243D1*
X3226927Y13760243D1*
X3223593Y13766910D1*
X3216927Y13773577D1*
Y14036910D1*
X3223593Y14043577D1*
X3226927Y14050243D1*
X3230260Y14060243D1*
Y14073577D1*
X3226927Y14083577D1*
X3223593Y14090243D1*
X3206927Y14106910D1*
X3196927Y14110243D1*
X3176927D1*
X3166927Y14106910D1*
X3160260Y14100243D1*
X3006927Y14096910D1*
X2990260Y14093577D1*
X2980260Y14090243D1*
X2966927Y14083577D1*
X3176927D1*
X3183593Y14086910D1*
X3190260D1*
X3196927Y14083577D1*
X3203593Y14076910D1*
Y14073577D1*
X3206927Y14070243D1*
Y14063577D1*
X3203593Y14060243D1*
X3196927Y14050243D1*
Y13756910D1*
X3203593Y13746910D1*
X3206115Y13742427D1*
X3205782Y13739424D1*
X3203593Y13736910D1*
Y13733577D1*
X3196927Y13726910D1*
X3190260Y13723577D1*
X3183593D1*
X3176927Y13726910D1*
X3166927Y13736910D1*
Y13746910D1*
X3176927Y13756910D1*
Y13893577D1*
X3006927Y13896910D1*
X2993593Y13900243D1*
X2983593Y13903577D1*
X2976927Y13906910D1*
X2973593Y13910243D1*
X2966927Y13913577D1*
X2946927Y13933577D1*
Y13936910D1*
X2936927Y13956910D1*
X2933593Y13976910D1*
X2930260Y13980243D1*
Y13990243D1*
X2933593Y13993577D1*
X2936927Y14010243D1*
X2940260Y14020243D1*
X2943593Y14026910D1*
X2950260Y14036910D1*
Y14040243D1*
X2966927Y14056910D1*
X2973593Y14060243D1*
X2976927Y14063577D1*
X2990260Y14070243D1*
X3003593Y14073577D1*
X3170260Y14076910D1*
X3176927Y14083577D1*
X2966927D1*
G37*
G36*
X3786927D2*
X3783593Y14080243D1*
X3776927Y14076910D1*
X3760260Y14063577D1*
X3746927Y14046910D1*
X3736927Y14026910D1*
X3733593Y14016910D1*
X3730260Y14000243D1*
Y13970243D1*
X3733593Y13953577D1*
X3736927Y13943577D1*
X3746927Y13923577D1*
X3756927Y13910243D1*
X3763593Y13903577D1*
X3776927Y13893577D1*
X3786927Y13886910D1*
X3793593Y13883577D1*
X3813593Y13876910D1*
X3830260Y13873577D1*
X3976927Y13870243D1*
Y13773577D1*
X3970260Y13766910D1*
X3963593Y13753577D1*
Y13733577D1*
X3966927Y13723577D1*
X3973593Y13713577D1*
X3976927Y13710243D1*
X3986927Y13703577D1*
X3996927Y13700243D1*
X4016927D1*
X4026927Y13703577D1*
X4043593Y13720243D1*
X4046927Y13726910D1*
X4050260Y13736910D1*
Y13750243D1*
X4046927Y13760243D1*
X4043593Y13766910D1*
X4036927Y13773577D1*
Y14036910D1*
X4043593Y14043577D1*
X4046927Y14050243D1*
X4050260Y14060243D1*
Y14073577D1*
X4046927Y14083577D1*
X4043593Y14090243D1*
X4026927Y14106910D1*
X4016927Y14110243D1*
X3996927D1*
X3986927Y14106910D1*
X3980260Y14100243D1*
X3826927Y14096910D1*
X3810260Y14093577D1*
X3800260Y14090243D1*
X3786927Y14083577D1*
X3996927D1*
X4003593Y14086910D1*
X4010260D1*
X4016927Y14083577D1*
X4023593Y14076910D1*
Y14073577D1*
X4026927Y14070243D1*
Y14063577D1*
X4023593Y14060243D1*
X4016927Y14050243D1*
Y13756910D1*
X4023593Y13746910D1*
X4026115Y13742427D1*
X4025782Y13739424D1*
X4023593Y13736910D1*
Y13733577D1*
X4016927Y13726910D1*
X4010260Y13723577D1*
X4003593D1*
X3996927Y13726910D1*
X3986927Y13736910D1*
Y13746910D1*
X3996927Y13756910D1*
Y13893577D1*
X3826927Y13896910D1*
X3813593Y13900243D1*
X3803593Y13903577D1*
X3796927Y13906910D1*
X3793593Y13910243D1*
X3786927Y13913577D1*
X3766927Y13933577D1*
Y13936910D1*
X3756927Y13956910D1*
X3753593Y13976910D1*
X3750260Y13980243D1*
Y13990243D1*
X3753593Y13993577D1*
X3756927Y14010243D1*
X3760260Y14020243D1*
X3763593Y14026910D1*
X3770260Y14036910D1*
Y14040243D1*
X3786927Y14056910D1*
X3793593Y14060243D1*
X3796927Y14063577D1*
X3810260Y14070243D1*
X3823593Y14073577D1*
X3990260Y14076910D1*
X3996927Y14083577D1*
X3786927D1*
G37*
G36*
X2970260Y14036910D2*
X2963593Y14030243D1*
X2953593Y14010243D1*
X2950260Y14000243D1*
Y13970243D1*
X2956927Y13950243D1*
X2963593Y13940243D1*
X2980260Y13923577D1*
X3000260Y13913577D1*
X3013593Y13910243D1*
X3176927D1*
Y14050243D1*
X3170260Y14060243D1*
X3010260D1*
X2996927Y14056910D1*
X2990260Y14053577D1*
X2980260Y14046910D1*
X2970260Y14036910D1*
X3010260D1*
X3059149Y14040243D1*
X3108038D1*
X3156927Y14036910D1*
Y13933577D1*
X3109149Y13930243D1*
X3061371D1*
X3013593Y13933577D1*
X3003593Y13936910D1*
X2996927Y13940243D1*
X2993593Y13943577D1*
X2986927Y13946910D1*
X2982974Y13950657D1*
X2983593Y13953577D1*
X2976927Y13963577D1*
X2973593Y13976910D1*
X2970260Y13980243D1*
Y13990243D1*
X2973593Y13993577D1*
X2976927Y14006910D1*
Y14010243D1*
X2996927Y14030243D1*
X3010260Y14036910D1*
X2970260D1*
G37*
G36*
X3790260D2*
X3783593Y14030243D1*
X3773593Y14010243D1*
X3770260Y14000243D1*
Y13970243D1*
X3776927Y13950243D1*
X3783593Y13940243D1*
X3800260Y13923577D1*
X3820260Y13913577D1*
X3833593Y13910243D1*
X3996927D1*
Y14050243D1*
X3990260Y14060243D1*
X3830260D1*
X3816927Y14056910D1*
X3810260Y14053577D1*
X3800260Y14046910D1*
X3790260Y14036910D1*
X3830260D1*
X3879149Y14040243D1*
X3928038D1*
X3976927Y14036910D1*
Y13933577D1*
X3929149Y13930243D1*
X3881371D1*
X3833593Y13933577D1*
X3823593Y13936910D1*
X3816927Y13940243D1*
X3813593Y13943577D1*
X3806927Y13946910D1*
X3802974Y13950657D1*
X3803593Y13953577D1*
X3796927Y13963577D1*
X3793593Y13976910D1*
X3790260Y13980243D1*
Y13990243D1*
X3793593Y13993577D1*
X3796927Y14006910D1*
Y14010243D1*
X3816927Y14030243D1*
X3830260Y14036910D1*
X3790260D1*
G37*
G36*
X4210260Y14703577D2*
Y14290243D1*
X4203593Y14283577D1*
X4196927Y14273577D1*
X4193593Y14266910D1*
Y14233577D1*
X4196927Y14226910D1*
X4203593Y14216910D1*
X4210260Y14210243D1*
X4220260Y14203577D1*
X4230260Y14200243D1*
X4256927D1*
X4266927Y14203577D1*
X4276927Y14210243D1*
X4283593Y14216910D1*
X4290260Y14226910D1*
X4293593Y14233577D1*
X4296927Y14250243D1*
Y14253577D1*
X4293593Y14266910D1*
X4290260Y14273577D1*
X4283593Y14283577D1*
X4276927Y14290243D1*
Y14466910D1*
X4273593Y14470243D1*
Y14483577D1*
X4276083Y14485717D1*
X4277769Y14485438D1*
X4279666Y14482682D1*
X4280260Y14480243D1*
X4290260Y14460243D1*
X4303593Y14440243D1*
X4306927Y14433577D1*
X4333593Y14393577D1*
X4336927Y14386910D1*
X4356927Y14356910D1*
X4360260Y14350243D1*
X4386927Y14310243D1*
X4390260Y14303577D1*
X4416927Y14263577D1*
X4420260Y14256910D1*
X4423593Y14260243D1*
X4443593Y14290243D1*
X4446927Y14296910D1*
X4473593Y14336910D1*
X4476927Y14343577D1*
X4503593Y14383577D1*
X4506927Y14390243D1*
X4533593Y14430243D1*
X4536927Y14436910D1*
X4556927Y14466910D1*
X4560260Y14476910D1*
X4563593Y14483577D1*
X4564138Y14486155D1*
X4566182Y14488887D1*
X4567825Y14488809D1*
X4570260Y14486910D1*
Y14476910D1*
X4566927Y14473577D1*
Y14290243D1*
X4553593Y14276910D1*
X4550260Y14270243D1*
X4546927Y14260243D1*
Y14240243D1*
X4550260Y14230243D1*
X4553593Y14223577D1*
X4570260Y14206910D1*
X4576927Y14203577D1*
X4586927Y14200243D1*
X4613593D1*
X4626927Y14206910D1*
X4643593Y14223577D1*
X4650260Y14236910D1*
Y14263577D1*
X4643593Y14276910D1*
X4631927Y14290243D1*
Y14700243D1*
X4628593D1*
Y14696910D1*
X4623593Y14690243D1*
X4616927Y14680243D1*
X4613593Y14673577D1*
X4593593Y14643577D1*
X4590260Y14636910D1*
X4576927Y14616910D1*
X4573593Y14610243D1*
X4560260Y14590243D1*
X4556927Y14583577D1*
X4536927Y14553577D1*
X4533593Y14546910D1*
X4520260Y14526910D1*
X4516927Y14520243D1*
X4496927Y14490243D1*
X4493593Y14483577D1*
X4480260Y14463577D1*
X4476927Y14456910D1*
X4463593Y14436910D1*
X4460260Y14430243D1*
X4440260Y14400243D1*
X4436927Y14393577D1*
X4430260Y14383577D1*
X4426927Y14376910D1*
X4425714Y14372811D1*
X4422268Y14369985D1*
X4420260Y14370243D1*
X4413593Y14376910D1*
Y14380243D1*
X4410260Y14386910D1*
X4396927Y14406910D1*
X4393593Y14413577D1*
X4380260Y14433577D1*
X4376927Y14440243D1*
X4363593Y14460243D1*
X4360260Y14466910D1*
X4340260Y14496910D1*
X4336927Y14503577D1*
X4323593Y14523577D1*
X4320260Y14530243D1*
X4300260Y14560243D1*
X4296927Y14566910D1*
X4283593Y14586910D1*
X4280260Y14593577D1*
X4266927Y14613577D1*
X4263593Y14620243D1*
X4243593Y14650243D1*
X4240260Y14656910D1*
X4226927Y14676910D1*
X4223593Y14683577D1*
X4216927Y14693577D1*
X4210260Y14700243D1*
Y14703577D1*
G37*
G36*
X3850260Y14536910D2*
Y14530243D1*
X3846927Y14526910D1*
X3840260Y14513577D1*
X3836927Y14503577D1*
X3830260Y14490243D1*
X3826927Y14480243D1*
X3820260Y14466910D1*
X3816927Y14456910D1*
X3810260Y14443577D1*
X3806927Y14433577D1*
X3803593Y14426910D1*
X3800260Y14416910D1*
X3793593Y14403577D1*
X3790260Y14393577D1*
X3783593Y14380243D1*
X3780260Y14370243D1*
X3773593Y14356910D1*
X3770260Y14346910D1*
X3763593Y14333577D1*
X3760260Y14323577D1*
X3756927Y14316910D1*
X3753593Y14306910D1*
X3752498Y14302866D1*
X3750260Y14300243D1*
X3743593Y14296910D1*
X3733593Y14290243D1*
X3726927Y14280243D1*
X3720260Y14266910D1*
X3716927Y14256910D1*
Y14246910D1*
X3720260Y14233577D1*
X3726927Y14220243D1*
X3740260Y14206910D1*
X3753593Y14200243D1*
X3783593D1*
X3793593Y14203577D1*
X3803593Y14210243D1*
X3810260Y14216910D1*
X3816927Y14226910D1*
X3820260Y14236910D1*
X3823593Y14280243D1*
X3830260Y14293577D1*
X3833593Y14303577D1*
X3836927Y14310243D1*
Y14313577D1*
X3893593Y14316910D1*
X3950260D1*
X4006927Y14313577D1*
Y14310243D1*
X4013593Y14296910D1*
X4016927Y14286910D1*
X4020260Y14280243D1*
X4023593Y14236910D1*
X4030260Y14223577D1*
X4036927Y14213577D1*
X4046927Y14206910D1*
X4060260Y14200243D1*
X4090260D1*
X4103593Y14206910D1*
X4116927Y14220243D1*
X4123593Y14233577D1*
X4126927Y14243577D1*
Y14260243D1*
X4123593Y14270243D1*
X4116927Y14283577D1*
X4106927Y14293577D1*
X4100260Y14296910D1*
X4090260Y14306910D1*
Y14310243D1*
X4086927Y14316910D1*
X4083593Y14326910D1*
X4080260Y14333577D1*
X4076927Y14343577D1*
X4070260Y14356910D1*
X4066927Y14366910D1*
X4060260Y14380243D1*
X4056927Y14390243D1*
X4050260Y14403577D1*
X4046927Y14413577D1*
X4040260Y14426910D1*
X4036927Y14436910D1*
X4030260Y14450243D1*
X4026927Y14460243D1*
X4020260Y14473577D1*
X4016927Y14483577D1*
X4010260Y14496910D1*
X4006927Y14506910D1*
X4000260Y14520243D1*
X3996927Y14530243D1*
X3990260Y14543577D1*
X3986927Y14553577D1*
X3983593Y14560243D1*
X3980260Y14570243D1*
X3973593Y14583577D1*
X3970260Y14593577D1*
X3963593Y14606910D1*
X3960260Y14616910D1*
X3953593Y14630243D1*
X3950260Y14640243D1*
X3943593Y14653577D1*
X3940260Y14663577D1*
X3933593Y14676910D1*
X3930260Y14686910D1*
X3923593Y14700243D1*
X3920260D1*
X3916927Y14693577D1*
X3913593Y14683577D1*
X3906927Y14670243D1*
X3903593Y14660243D1*
X3896927Y14646910D1*
X3893593Y14636910D1*
X3886927Y14623577D1*
X3883593Y14613577D1*
X3876927Y14600243D1*
X3873593Y14590243D1*
X3866927Y14576910D1*
X3863593Y14566910D1*
X3860260Y14560243D1*
X3856927Y14550243D1*
X3850260Y14536910D1*
X3916927D1*
X3920495Y14538900D1*
X3923389Y14538686D1*
X3926927Y14536910D1*
Y14526910D1*
X3933593Y14506910D1*
X3936927Y14500243D1*
X3943593Y14480243D1*
X3946927Y14473577D1*
X3953593Y14453577D1*
X3956927Y14446910D1*
X3963593Y14426910D1*
X3966927Y14420243D1*
X3973593Y14400243D1*
X3976927Y14393577D1*
X3980260Y14390243D1*
Y14383577D1*
X3941371Y14380243D1*
X3902482D1*
X3863593Y14383577D1*
X3864241Y14385940D1*
X3866927Y14390243D1*
X3873593Y14410243D1*
X3876927Y14416910D1*
X3883593Y14436910D1*
X3886927Y14443577D1*
X3893593Y14463577D1*
X3896927Y14470243D1*
X3903593Y14490243D1*
X3906927Y14496910D1*
X3916927Y14526910D1*
Y14536910D1*
X3850260D1*
G37*
G36*
X2340260Y14600243D2*
X2339164Y14596199D1*
X2336927Y14593577D1*
X2330260Y14573577D1*
Y14513577D1*
X2333593Y14500243D1*
X2336927Y14493577D1*
X2340260Y14483577D1*
X2353593Y14463577D1*
X2366927Y14450243D1*
X2380260Y14440243D1*
X2390260Y14433577D1*
X2396927Y14430243D1*
X2426927Y14420243D1*
X2450260Y14416910D1*
X2443593Y14410243D1*
X2433593Y14396910D1*
X2426927Y14386910D1*
X2396927Y14346910D1*
X2390260Y14336910D1*
X2370260Y14310243D1*
Y14306910D1*
X2363593Y14303577D1*
X2353593Y14300243D1*
X2346927Y14296910D1*
X2336927Y14290243D1*
X2326927Y14276910D1*
X2323593Y14270243D1*
Y14236910D1*
X2326927Y14226910D1*
X2333593Y14216910D1*
X2340260Y14210243D1*
X2350260Y14203577D1*
X2360260Y14200243D1*
X2383593D1*
X2393593Y14203577D1*
X2400260Y14206910D1*
X2416927Y14223577D1*
X2423593Y14236910D1*
X2426927Y14263577D1*
X2446927Y14290243D1*
X2453593Y14300243D1*
X2483593Y14340243D1*
X2490260Y14350243D1*
X2520260Y14390243D1*
X2526927Y14400243D1*
Y14403577D1*
X2536927Y14413577D1*
X2566927Y14416910D1*
X2596927D1*
X2626927Y14413577D1*
Y14290243D1*
X2620260Y14283577D1*
X2613593Y14273577D1*
X2610260Y14263577D1*
Y14240243D1*
X2613593Y14230243D1*
X2616927Y14223577D1*
X2633593Y14206910D1*
X2640260Y14203577D1*
X2650260Y14200243D1*
X2673593D1*
X2683593Y14203577D1*
X2690260Y14206910D1*
X2706927Y14223577D1*
X2710260Y14230243D1*
X2713593Y14240243D1*
Y14263577D1*
X2710260Y14273577D1*
X2703593Y14283577D1*
X2696927Y14290243D1*
Y14600243D1*
X2706927Y14610243D1*
X2710260Y14616910D1*
X2713593Y14626910D1*
Y14646910D1*
X2710260Y14656910D1*
X2706927Y14663577D1*
X2700260Y14673577D1*
X2696927Y14676910D1*
X2686927Y14683577D1*
X2680260Y14686910D1*
X2670260Y14690243D1*
X2653593D1*
X2643593Y14686910D1*
X2636927Y14683577D1*
X2626927Y14673577D1*
X2436927Y14670243D1*
X2410260Y14663577D1*
X2390260Y14653577D1*
X2380260Y14646910D1*
X2350260Y14616910D1*
X2343593Y14606910D1*
X2340260Y14600243D1*
X2446927D1*
X2506927Y14603577D1*
X2566927D1*
X2626927Y14600243D1*
Y14486910D1*
X2568038Y14483577D1*
X2509149D1*
X2450260Y14486910D1*
X2436927Y14490243D1*
X2430260Y14493577D1*
X2426927Y14496910D1*
X2420260Y14500243D1*
X2413593Y14506910D1*
Y14510243D1*
X2406927Y14520243D1*
X2403593Y14536910D1*
X2400260Y14540243D1*
Y14546910D1*
X2403593Y14550243D1*
X2406927Y14566910D1*
X2413593Y14576910D1*
Y14580243D1*
X2420260Y14586910D1*
X2426927Y14590243D1*
X2430260Y14593577D1*
X2436927Y14596910D1*
X2446927Y14600243D1*
X2340260D1*
G37*
G36*
X2853593Y14690243D2*
X2843593Y14686910D1*
X2836927Y14683577D1*
X2826927Y14676910D1*
X2823593Y14673577D1*
X2816927Y14663577D1*
X2813593Y14656910D1*
X2810260Y14646910D1*
Y14630243D1*
X2813593Y14620243D1*
X2816927Y14613577D1*
X2823593Y14603577D1*
X2826927Y14600243D1*
X2836927Y14593577D1*
X2843593Y14590243D1*
X2856927Y14586910D1*
X2870260D1*
X2880260Y14590243D1*
X2886927Y14593577D1*
X2896927Y14600243D1*
Y14603577D1*
X2966927Y14606910D1*
X3036927D1*
X3106927Y14603577D1*
Y14486910D1*
X3053593Y14483577D1*
X3000260D1*
X2946927Y14486910D1*
X2936927Y14496910D1*
X2930260Y14500243D1*
X2920260Y14503577D1*
X2903593D1*
X2893593Y14500243D1*
X2886927Y14496910D1*
X2866927Y14476910D1*
X2863593Y14470243D1*
X2860260Y14460243D1*
Y14440243D1*
X2863593Y14430243D1*
X2870260Y14416910D1*
X2876927Y14410243D1*
X2886927Y14403577D1*
X2893593Y14400243D1*
X2903593Y14396910D1*
X2920260D1*
X2930260Y14400243D1*
X2936927Y14403577D1*
X2946927Y14413577D1*
X3000260Y14416910D1*
X3053593D1*
X3106927Y14413577D1*
Y14286910D1*
X3036927Y14283577D1*
X2966927D1*
X2896927Y14286910D1*
X2886927Y14296910D1*
X2880260Y14300243D1*
X2870260Y14303577D1*
X2856927D1*
X2843593Y14300243D1*
X2836927Y14296910D1*
X2816927Y14276910D1*
X2813593Y14270243D1*
X2810260Y14256910D1*
Y14243577D1*
X2813593Y14230243D1*
X2816927Y14223577D1*
X2836927Y14203577D1*
X2843593Y14200243D1*
X2856927Y14196910D1*
X2870260D1*
X2880260Y14200243D1*
X2886927Y14203577D1*
X2896927Y14210243D1*
X3176927Y14216910D1*
Y14670243D1*
X2896927Y14673577D1*
X2886927Y14683577D1*
X2873593Y14690243D1*
X2853593D1*
G37*
G36*
X3303593D2*
X3283593Y14680243D1*
X3280260Y14676910D1*
X3273593Y14666910D1*
X3266927Y14653577D1*
Y14626910D1*
X3270260Y14616910D1*
X3273593Y14610243D1*
X3286927Y14596910D1*
X3300260Y14590243D1*
X3313593Y14586910D1*
X3316927D1*
X3321371Y14590243D1*
X3325816D1*
X3330260Y14586910D1*
X3333593Y14583577D1*
X3343593Y14576910D1*
X3396927Y14536910D1*
X3406927Y14530243D1*
X3473593Y14480243D1*
X3483593Y14473577D1*
X3490260Y14470243D1*
X3496927Y14463577D1*
X3490260Y14460243D1*
X3466927Y14440243D1*
X3440260Y14416910D1*
X3323593Y14316910D1*
X3313593Y14306910D1*
X3293593Y14303577D1*
X3283593Y14300243D1*
X3276927Y14296910D1*
X3260260Y14280243D1*
X3256927Y14273577D1*
X3253593Y14263577D1*
Y14240243D1*
X3256927Y14230243D1*
X3260260Y14223577D1*
X3276927Y14206910D1*
X3283593Y14203577D1*
X3293593Y14200243D1*
X3313593D1*
X3326927Y14203577D1*
X3336927Y14210243D1*
X3350260Y14223577D1*
X3353593Y14230243D1*
X3356927Y14240243D1*
Y14246910D1*
X3370260Y14260243D1*
X3376927Y14263577D1*
X3406927Y14290243D1*
X3486927Y14360243D1*
X3516927Y14386910D1*
X3543593Y14410243D1*
X3553593Y14420243D1*
X3556083Y14422384D1*
X3557810Y14422189D1*
X3560260Y14420243D1*
Y14290243D1*
X3550260Y14280243D1*
X3546927Y14273577D1*
X3543593Y14263577D1*
Y14240243D1*
X3546927Y14230243D1*
X3553593Y14220243D1*
X3566927Y14206910D1*
X3573593Y14203577D1*
X3583593Y14200243D1*
X3606927D1*
X3616927Y14203577D1*
X3626927Y14210243D1*
X3636927Y14220243D1*
X3646927Y14240243D1*
Y14263577D1*
X3643593Y14273577D1*
X3636927Y14283577D1*
X3630260Y14290243D1*
Y14600243D1*
X3636927Y14606910D1*
X3643593Y14620243D1*
X3646927Y14630243D1*
Y14650243D1*
X3643593Y14660243D1*
X3640260Y14666910D1*
X3623593Y14683577D1*
X3610260Y14690243D1*
X3580260D1*
X3570260Y14686910D1*
X3550260Y14666910D1*
X3543593Y14653577D1*
Y14626910D1*
X3546927Y14616910D1*
X3553593Y14606910D1*
X3560260Y14600243D1*
Y14510243D1*
X3556726Y14506623D1*
X3555000Y14507164D1*
X3553593Y14510243D1*
X3486927Y14560243D1*
X3470260Y14573577D1*
X3376927Y14643577D1*
X3370260Y14646910D1*
X3366927Y14650243D1*
Y14660243D1*
X3363593Y14666910D1*
X3346927Y14683577D1*
X3333593Y14690243D1*
X3303593D1*
G37*
X4764410Y13157656D2*
D85*
Y12979003D1*
Y13064104D2*
X4743970Y13089654D1*
X4730291Y13098105D1*
X4709851D1*
X4696329Y13089654D1*
X4689568Y13064104D1*
Y12979003D1*
X4606906Y13157656D2*
Y13013004D1*
X4600145Y12987650D1*
X4586466Y12979003D1*
X4572944D1*
X4627346Y13098105D2*
X4579705D1*
X4490282Y13157656D2*
Y13013004D1*
X4483521Y12987650D1*
X4469842Y12979003D1*
X4456320D1*
X4510722Y13098105D2*
X4463081D1*
X4394097D2*
Y12919452D1*
Y13072555D2*
X4380418Y13089457D1*
X4366897Y13098105D1*
X4346457D1*
X4332777Y13089457D1*
X4319256Y13072555D1*
X4312337Y13047005D1*
Y13029906D1*
X4319256Y13004553D1*
X4332777Y12987454D1*
X4346457Y12979003D1*
X4366897D1*
X4380418Y12987454D1*
X4394097Y13004553D1*
X4243197Y13098105D2*
X4250115Y13089457D1*
X4243197Y13081006D1*
X4236436Y13089457D1*
X4243197Y13098105D1*
Y12996102D2*
X4250115Y12987454D1*
X4243197Y12979003D1*
X4236436Y12987454D1*
X4243197Y12996102D1*
X4174214Y12979003D2*
X4078932Y13157460D1*
X4016710Y12979003D2*
X3921428Y13157460D1*
X3859206Y13098105D2*
Y12979003D1*
Y13064104D2*
X3838766Y13089654D1*
X3825087Y13098105D1*
X3804804D1*
X3791125Y13089654D1*
X3784364Y13064104D1*
Y12979003D1*
Y13064104D2*
X3763924Y13089654D1*
X3750245Y13098105D1*
X3729962D1*
X3716283Y13089654D1*
X3709365Y13064104D1*
Y12979003D1*
X3565540Y13098105D2*
Y12979003D1*
Y13072555D2*
X3579062Y13089654D1*
X3592741Y13098105D1*
X3613024D1*
X3626703Y13089654D1*
X3640225Y13072555D1*
X3647143Y13047005D1*
Y13030103D1*
X3640225Y13004553D1*
X3626703Y12987650D1*
X3613024Y12979003D1*
X3592741D1*
X3579062Y12987650D1*
X3565540Y13004553D1*
X3503318Y13157656D2*
Y12979003D1*
X3435237Y13098105D2*
X3503318Y13013004D1*
X3476117Y13047005D2*
X3428476Y12979003D1*
X3366254Y13047005D2*
X3284651D1*
Y13064104D1*
X3291412Y13081203D1*
X3298173Y13089654D1*
X3311852Y13098105D1*
X3332292D1*
X3345814Y13089654D1*
X3359493Y13072555D1*
X3366254Y13047005D1*
Y13030103D1*
X3359493Y13004553D1*
X3345814Y12987650D1*
X3332292Y12979003D1*
X3311852D1*
X3298173Y12987650D1*
X3284651Y13004553D1*
X3222429Y13098105D2*
Y12979003D1*
Y13047005D2*
X3215510Y13072555D1*
X3201989Y13089654D1*
X3188310Y13098105D1*
X3167870D1*
X3105647D2*
Y12919452D1*
Y13072555D2*
X3091968Y13089457D1*
X3078446Y13098105D1*
X3058006D1*
X3044327Y13089457D1*
X3030805Y13072555D1*
X3023887Y13047005D1*
Y13029906D1*
X3030805Y13004553D1*
X3044327Y12987454D1*
X3058006Y12979003D1*
X3078446D1*
X3091968Y12987454D1*
X3105647Y13004553D1*
X2961665Y13098105D2*
Y12979003D1*
Y13064104D2*
X2941225Y13089654D1*
X2927546Y13098105D1*
X2907263D1*
X2893584Y13089654D1*
X2886823Y13064104D1*
Y12979003D1*
X2824601Y13098105D2*
Y12919452D1*
Y13072555D2*
X2810922Y13089457D1*
X2797400Y13098105D1*
X2776960D1*
X2763281Y13089457D1*
X2749759Y13072555D1*
X2742841Y13047005D1*
Y13029906D1*
X2749759Y13004553D1*
X2763281Y12987454D1*
X2776960Y12979003D1*
X2797400D1*
X2810922Y12987454D1*
X2824601Y13004553D1*
X2673858Y12996102D2*
X2680619Y12987454D1*
X2673858Y12979003D1*
X2666940Y12987454D1*
X2673858Y12996102D1*
X2570756Y13098105D2*
X2584278Y13089654D1*
X2597957Y13072555D1*
X2604718Y13047005D1*
Y13030103D1*
X2597957Y13004553D1*
X2584278Y12987650D1*
X2570756Y12979003D1*
X2550316D1*
X2536637Y12987650D1*
X2523115Y13004553D1*
X2516197Y13030103D1*
Y13047005D1*
X2523115Y13072555D1*
X2536637Y13089654D1*
X2550316Y13098105D1*
X2570756D1*
X2453974D2*
Y12979003D1*
Y13047005D2*
X2447056Y13072555D1*
X2433534Y13089654D1*
X2419855Y13098105D1*
X2399415D1*
X2255590Y13089654D2*
Y12953453D1*
X2262351Y12928099D1*
X2269112Y12919452D1*
X2282791Y12911000D1*
X2303231D1*
X2316753Y12919452D1*
X2255590Y13064104D2*
X2269112Y13081006D1*
X2282791Y13089654D1*
X2303231D1*
X2316753Y13081006D1*
X2330432Y13064104D1*
X2337193Y13038554D1*
Y13021455D1*
X2330432Y12996102D1*
X2316753Y12979003D1*
X2303231Y12970552D1*
X2282791D1*
X2269112Y12979003D1*
X2255590Y12996102D1*
X1152140Y10468242D2*
D83*
X1228706D1*
Y10441962D1*
X1224999Y10433202D1*
X1221377Y10430304D1*
X1214134Y10427407D1*
X1203184D1*
X1195856Y10430304D1*
X1192234Y10433202D1*
X1188612Y10441962D1*
X1184906Y10433202D1*
X1181284Y10430304D1*
X1174040Y10427407D1*
X1166712D1*
X1159468Y10430304D1*
X1155762Y10433202D1*
X1152140Y10441962D1*
Y10468242D1*
X1188612D2*
Y10441962D1*
X1192234Y10400740D2*
Y10374460D1*
X1188612Y10365767D1*
X1184906Y10362802D1*
X1177662Y10359905D1*
X1166712D1*
X1159468Y10362802D1*
X1155762Y10365767D1*
X1152140Y10374460D1*
Y10400740D1*
X1228706D1*
Y10674475D2*
X1152140Y10697858D1*
X1228706Y10721173D1*
X1203184Y10712413D2*
Y10683235D1*
X1152140Y10606974D2*
X1228706D1*
X1152140Y10647809D1*
X1228706D1*
Y10921975D2*
X1152140Y10945358D1*
X1228706Y10968673D1*
X1203184Y10959913D2*
Y10930735D1*
X1192234Y10895309D2*
Y10869029D1*
X1188612Y10860336D1*
X1184906Y10857371D1*
X1177662Y10854474D1*
X1166712D1*
X1159468Y10857371D1*
X1155762Y10860336D1*
X1152140Y10869029D1*
Y10895309D1*
X1228706D1*
X1152224Y11436167D2*
Y11465277D1*
X1184990Y11468174D1*
X1181368Y11465277D1*
X1177662Y11456517D1*
Y11447824D1*
X1181368Y11439064D1*
X1188612Y11433202D1*
X1199562Y11430304D1*
X1206806D1*
X1217756Y11433202D1*
X1225084Y11439064D1*
X1228706Y11447824D1*
Y11456517D1*
X1225084Y11465277D1*
X1221377Y11468174D1*
X1214134Y11471139D1*
X1152140Y11403638D2*
X1228706Y11380322D1*
X1152140Y11357007D1*
X1192234Y9469259D2*
Y9442979D1*
X1188612Y9434287D1*
X1184906Y9431322D1*
X1177662Y9428424D1*
X1166712D1*
X1159468Y9431322D1*
X1155762Y9434287D1*
X1152140Y9442979D1*
Y9469259D1*
X1228706D1*
X1152140Y9363887D2*
Y9401758D1*
X1228706D1*
Y9363887D1*
X1188612Y9401758D2*
Y9378442D1*
X1152140Y9718242D2*
Y9677407D1*
X1228706Y9718242D1*
Y9677407D1*
X1152140Y9609905D2*
X1228706D1*
X1152140Y9650740D1*
X1228706D1*
X1152140Y10220742D2*
X1228706D1*
Y10194462D1*
X1224999Y10185702D1*
X1221377Y10182804D1*
X1214134Y10179907D1*
X1203184D1*
X1195856Y10182804D1*
X1192234Y10185702D1*
X1188612Y10194462D1*
X1184906Y10185702D1*
X1181284Y10182804D1*
X1174040Y10179907D1*
X1166712D1*
X1159468Y10182804D1*
X1155762Y10185702D1*
X1152140Y10194462D1*
Y10220742D1*
X1188612D2*
Y10194462D1*
X1152140Y10112405D2*
X1228706D1*
X1152140Y10153240D1*
X1228706D1*
X1170334Y11142207D2*
X1163090Y11145105D1*
X1155762Y11150967D1*
X1152140Y11156762D1*
Y11168420D1*
X1155762Y11174282D1*
X1163090Y11180077D1*
X1170334Y11183042D1*
X1181284Y11185940D1*
X1199562D1*
X1210427Y11183042D1*
X1217756Y11180077D1*
X1224999Y11174282D1*
X1228706Y11168420D1*
Y11156762D1*
X1224999Y11150967D1*
X1217756Y11145105D1*
X1210427Y11142207D1*
X1199562D1*
Y11156762D1*
X1152140Y9970742D2*
Y9929907D1*
X1228706Y9970742D1*
Y9929907D1*
X1192234Y9903240D2*
Y9876960D1*
X1188612Y9868267D1*
X1184906Y9865302D1*
X1177662Y9862405D1*
X1166712D1*
X1159468Y9865302D1*
X1155762Y9868267D1*
X1152140Y9876960D1*
Y9903240D1*
X1228706D1*
X5860347Y10361762D2*
X5783781D1*
Y10388042D1*
X5787487Y10396802D1*
X5791109Y10399699D1*
X5798353Y10402597D1*
X5809303D1*
X5816631Y10399699D1*
X5820253Y10396802D1*
X5823875Y10388042D1*
X5827581Y10396802D1*
X5831203Y10399699D1*
X5838447Y10402597D1*
X5845775D1*
X5853019Y10399699D1*
X5856725Y10396802D1*
X5860347Y10388042D1*
Y10361762D1*
X5823875D2*
Y10388042D1*
X5820253Y10429263D2*
Y10455543D1*
X5823875Y10464236D1*
X5827581Y10467201D1*
X5834825Y10470098D1*
X5845775D1*
X5853019Y10467201D1*
X5856725Y10464236D1*
X5860347Y10455543D1*
Y10429263D1*
X5783781D1*
Y10155528D2*
X5860347Y10132145D1*
X5783781Y10108830D1*
X5809303Y10117590D2*
Y10146768D1*
X5860347Y10223030D2*
X5783781D1*
X5860347Y10182195D1*
X5783781D1*
Y9908028D2*
X5860347Y9884645D1*
X5783781Y9861330D1*
X5809303Y9870090D2*
Y9899268D1*
X5820253Y9934695D2*
Y9960975D1*
X5823875Y9969667D1*
X5827581Y9972632D1*
X5834825Y9975530D1*
X5845775D1*
X5853019Y9972632D1*
X5856725Y9969667D1*
X5860347Y9960975D1*
Y9934695D1*
X5783781D1*
X5842153Y9687796D2*
X5849397Y9684899D1*
X5856725Y9679036D1*
X5860347Y9673241D1*
Y9661584D1*
X5856725Y9655721D1*
X5849397Y9649926D1*
X5842153Y9646961D1*
X5831203Y9644064D1*
X5812925D1*
X5802059Y9646961D1*
X5794731Y9649926D1*
X5787487Y9655721D1*
X5783781Y9661584D1*
Y9673241D1*
X5787487Y9679036D1*
X5794731Y9684899D1*
X5802059Y9687796D1*
X5812925D1*
Y9673241D1*
X5860263Y9393837D2*
Y9364727D1*
X5827497Y9361829D1*
X5831119Y9364727D1*
X5834825Y9373487D1*
Y9382179D1*
X5831119Y9390939D1*
X5823875Y9396802D1*
X5812925Y9399699D1*
X5805681D1*
X5794731Y9396802D1*
X5787403Y9390939D1*
X5783781Y9382179D1*
Y9373487D1*
X5787403Y9364727D1*
X5791109Y9361829D1*
X5798353Y9358864D1*
X5860347Y9426366D2*
X5783781Y9449681D1*
X5860347Y9472996D1*
X5820253Y11360744D2*
Y11387024D1*
X5823875Y11395717D1*
X5827581Y11398682D1*
X5834825Y11401579D1*
X5845775D1*
X5853019Y11398682D1*
X5856725Y11395717D1*
X5860347Y11387024D1*
Y11360744D1*
X5783781D1*
X5860347Y11466116D2*
Y11428246D1*
X5783781D1*
Y11466116D1*
X5823875Y11428246D2*
Y11451561D1*
X5860347Y11111762D2*
Y11152597D1*
X5783781Y11111762D1*
Y11152597D1*
X5860347Y11220098D2*
X5783781D1*
X5860347Y11179263D1*
X5783781D1*
X5860347Y10859262D2*
Y10900097D1*
X5783781Y10859262D1*
Y10900097D1*
X5820253Y10926763D2*
Y10953043D1*
X5823875Y10961736D1*
X5827581Y10964701D1*
X5834825Y10967598D1*
X5845775D1*
X5853019Y10964701D1*
X5856725Y10961736D1*
X5860347Y10953043D1*
Y10926763D1*
X5783781D1*
X5860347Y10609262D2*
X5783781D1*
Y10635542D1*
X5787487Y10644302D1*
X5791109Y10647199D1*
X5798353Y10650097D1*
X5809303D1*
X5816631Y10647199D1*
X5820253Y10644302D1*
X5823875Y10635542D1*
X5827581Y10644302D1*
X5831203Y10647199D1*
X5838447Y10650097D1*
X5845775D1*
X5853019Y10647199D1*
X5856725Y10644302D1*
X5860347Y10635542D1*
Y10609262D1*
X5823875D2*
Y10635542D1*
X5860347Y10717598D2*
X5783781D1*
X5860347Y10676763D1*
X5783781D1*
X4045733Y4084737D2*
Y4161303D1*
X4072013D1*
X4080773Y4157597D1*
X4083671Y4153975D1*
X4086568Y4146731D1*
Y4135781D1*
X4083671Y4128453D1*
X4080773Y4124831D1*
X4072013Y4121209D1*
X4080773Y4117503D1*
X4083671Y4113881D1*
X4086568Y4106637D1*
Y4099309D1*
X4083671Y4092065D1*
X4080773Y4088359D1*
X4072013Y4084737D1*
X4045733D1*
Y4121209D2*
X4072013D1*
X4113235Y4123062D2*
X4146927D1*
X3690333Y4084737D2*
Y4161303D1*
X3716613D1*
X3725373Y4157597D1*
X3728270Y4153975D1*
X3731168Y4146731D1*
Y4135781D1*
X3728270Y4128453D1*
X3725373Y4124831D1*
X3716613Y4121209D1*
X3725373Y4117503D1*
X3728270Y4113881D1*
X3731168Y4106637D1*
Y4099309D1*
X3728270Y4092065D1*
X3725373Y4088359D1*
X3716613Y4084737D1*
X3690333D1*
Y4121209D2*
X3716613D1*
X3784047Y4090254D2*
Y4155870D1*
X3757835Y4123104D2*
X3810327D1*
X3247499Y4161303D2*
X3224117Y4084737D1*
X3200802Y4161303D1*
X3209562Y4135781D2*
X3238739D1*
X3274166Y4123062D2*
X3307858D1*
X2892099Y4161303D2*
X2868717Y4084737D1*
X2845402Y4161303D1*
X2854162Y4135781D2*
X2883339D1*
X2944978Y4090254D2*
Y4155870D1*
X2918766Y4123104D2*
X2971258D1*
X2956597Y15257370D2*
Y15180804D1*
X2930317D1*
X2921557Y15184510D1*
X2918659Y15188132D1*
X2915762Y15195376D1*
Y15206326D1*
X2918659Y15213654D1*
X2921557Y15217276D1*
X2930317Y15220898D1*
X2921557Y15224604D1*
X2918659Y15228226D1*
X2915762Y15235470D1*
Y15242798D1*
X2918659Y15250042D1*
X2921557Y15253748D1*
X2930317Y15257370D1*
X2956597D1*
Y15220898D2*
X2930317D1*
X2889095Y15219045D2*
X2855403D1*
X3311997Y15257370D2*
Y15180804D1*
X3285717D1*
X3276957Y15184510D1*
X3274060Y15188132D1*
X3271162Y15195376D1*
Y15206326D1*
X3274060Y15213654D1*
X3276957Y15217276D1*
X3285717Y15220898D1*
X3276957Y15224604D1*
X3274060Y15228226D1*
X3271162Y15235470D1*
Y15242798D1*
X3274060Y15250042D1*
X3276957Y15253748D1*
X3285717Y15257370D1*
X3311997D1*
Y15220898D2*
X3285717D1*
X3218283Y15251852D2*
Y15186237D1*
X3244495Y15219002D2*
X3192003D1*
X3754831Y15180804D2*
X3778213Y15257370D1*
X3801528Y15180804D1*
X3792768Y15206326D2*
X3763591D1*
X3728164Y15219045D2*
X3694472D1*
X4110231Y15180804D2*
X4133613Y15257370D1*
X4156928Y15180804D1*
X4148168Y15206326D2*
X4118991D1*
X4057352Y15251852D2*
Y15186237D1*
X4083564Y15219002D2*
X4031072D1*
X2523831Y16386384D2*
D84*
X2533489Y16382521D1*
X2543260Y16374704D1*
X2548089Y16366977D1*
Y16351434D1*
X2543260Y16343617D1*
X2533489Y16335891D1*
X2523831Y16331937D1*
X2509231Y16328074D1*
X2484860D1*
X2470372Y16331937D1*
X2460602Y16335891D1*
X2450943Y16343617D1*
X2446002Y16351434D1*
Y16366977D1*
X2450943Y16374704D1*
X2460602Y16382521D1*
X2470372Y16386384D1*
X2484860D1*
Y16366977D1*
X2548089Y16476387D2*
X2446002D1*
X2548089Y16421940D1*
X2446002D1*
X2548089Y16511942D2*
X2446002D1*
Y16539166D1*
X2450943Y16550846D1*
X2460602Y16558662D1*
X2470372Y16562526D1*
X2484860Y16566389D1*
X2509231D1*
X2523831Y16562526D1*
X2533489Y16558662D1*
X2543260Y16550846D1*
X2548089Y16539166D1*
Y16511942D1*
X2152089Y16401170D2*
X2050002Y16432256D1*
X2152089Y16463343D1*
X2144733Y16533849D2*
X2057245D1*
X2100933Y16498899D2*
Y16568889D1*
X4768922Y16709801D2*
D83*
Y16775417D1*
X4742710Y16742651D2*
X4795202D1*
X4821869Y16718940D2*
X4827732Y16715234D1*
X4836492Y16704368D1*
Y16780849D1*
X4866123Y16722562D2*
Y16718940D1*
X4869021Y16711612D1*
X4871918Y16707990D1*
X4877781Y16704368D1*
X4889438D1*
X4895233Y16707990D1*
X4898131Y16711612D1*
X4901096Y16718940D1*
Y16726184D1*
X4898131Y16733512D1*
X4892336Y16744378D1*
X4863158Y16780849D1*
X4903993D1*
X4930660Y16704284D2*
X4953975Y16780849D1*
X4977290Y16704284D1*
X4484365Y16722478D2*
X4481467Y16715234D1*
X4475605Y16707906D1*
X4469809Y16704284D1*
X4458152D1*
X4452289Y16707906D1*
X4446494Y16715234D1*
X4443529Y16722478D1*
X4440632Y16733428D1*
Y16751706D1*
X4443529Y16762571D1*
X4446494Y16769899D1*
X4452289Y16777143D1*
X4458152Y16780849D1*
X4469809D1*
X4475605Y16777143D1*
X4481467Y16769899D1*
X4484365Y16762571D1*
Y16751706D1*
X4469809D1*
X4551866Y16704284D2*
Y16780849D1*
X4511031Y16704284D1*
Y16780849D1*
X4578533Y16704284D2*
Y16780849D1*
X4598951D1*
X4607711Y16777143D1*
X4613573Y16769899D1*
X4616471Y16762571D1*
X4619368Y16751706D1*
Y16733428D1*
X4616471Y16722478D1*
X4613573Y16715234D1*
X4607711Y16707906D1*
X4598951Y16704284D1*
X4578533D1*
X5187567Y1678333D2*
X5111001D1*
Y1704613D1*
X5114707Y1713373D1*
X5118329Y1716271D1*
X5125573Y1719168D1*
X5136523D1*
X5143851Y1716271D1*
X5147473Y1713373D1*
X5151095Y1704613D1*
X5154801Y1713373D1*
X5158423Y1716271D1*
X5165667Y1719168D1*
X5172995D1*
X5180239Y1716271D1*
X5183945Y1713373D1*
X5187567Y1704613D1*
Y1678333D1*
X5151095D2*
Y1704613D1*
X5172911Y1745835D2*
X5176617Y1751698D1*
X5187483Y1760458D1*
X5111001D1*
X4187567Y1678333D2*
X4111001D1*
Y1704613D1*
X4114707Y1713373D1*
X4118329Y1716271D1*
X4125573Y1719168D1*
X4136523D1*
X4143851Y1716271D1*
X4147473Y1713373D1*
X4151095Y1704613D1*
X4154801Y1713373D1*
X4158423Y1716271D1*
X4165667Y1719168D1*
X4172995D1*
X4180239Y1716271D1*
X4183945Y1713373D1*
X4187567Y1704613D1*
Y1678333D1*
X4151095D2*
Y1704613D1*
X4172911Y1745835D2*
X4176617Y1751698D1*
X4187483Y1760458D1*
X4111001D1*
X4172911Y1787124D2*
X4176617Y1792987D1*
X4187483Y1801747D1*
X4111001D1*
X3887567Y1678333D2*
X3811001D1*
Y1704613D1*
X3814707Y1713373D1*
X3818329Y1716271D1*
X3825573Y1719168D1*
X3836523D1*
X3843851Y1716271D1*
X3847473Y1713373D1*
X3851095Y1704613D1*
X3854801Y1713373D1*
X3858423Y1716271D1*
X3865667Y1719168D1*
X3872995D1*
X3880239Y1716271D1*
X3883945Y1713373D1*
X3887567Y1704613D1*
Y1678333D1*
X3851095D2*
Y1704613D1*
X3872911Y1745835D2*
X3876617Y1751698D1*
X3887483Y1760458D1*
X3811001D1*
X3869289Y1790089D2*
X3872911D1*
X3880239Y1792987D1*
X3883861Y1795884D1*
X3887483Y1801747D1*
Y1813404D1*
X3883861Y1819199D1*
X3880239Y1822097D1*
X3872911Y1825062D1*
X3865667D1*
X3858339Y1822097D1*
X3847473Y1816302D1*
X3811001Y1787124D1*
Y1827959D1*
X1887567Y1678333D2*
X1811001D1*
Y1704613D1*
X1814707Y1713373D1*
X1818329Y1716271D1*
X1825573Y1719168D1*
X1836523D1*
X1843851Y1716271D1*
X1847473Y1713373D1*
X1851095Y1704613D1*
X1854801Y1713373D1*
X1858423Y1716271D1*
X1865667Y1719168D1*
X1872995D1*
X1880239Y1716271D1*
X1883945Y1713373D1*
X1887567Y1704613D1*
Y1678333D1*
X1851095D2*
Y1704613D1*
X1887483Y1751698D2*
Y1783705D1*
X1858339Y1766253D1*
Y1775013D1*
X1854717Y1780808D1*
X1851095Y1783705D1*
X1840145Y1786670D1*
X1832901D1*
X1821951Y1783705D1*
X1814623Y1777910D1*
X1811001Y1769150D1*
Y1760390D1*
X1814623Y1751698D1*
X1818329Y1748800D1*
X1825573Y1745835D1*
X1869289Y1816302D2*
X1872911D1*
X1880239Y1819199D1*
X1883861Y1822097D1*
X1887483Y1827959D1*
Y1839617D1*
X1883861Y1845412D1*
X1880239Y1848309D1*
X1872911Y1851274D1*
X1865667D1*
X1858339Y1848309D1*
X1847473Y1842514D1*
X1811001Y1813337D1*
Y1854172D1*
M02*
