G04 DipTrace 5.2.0.4*
G04 BottomSilk.gbr*
%MOMM*%
G04 #@! TF.FileFunction,Legend,Bot*
G04 #@! TF.Part,Single*
%ADD13C,0.12*%
%ADD24C,0.5*%
%ADD88C,0.16667*%
%ADD89C,0.22222*%
%ADD90C,0.38889*%
%FSLAX35Y35*%
G04*
G71*
G90*
G75*
G01*
G04 BotSilk*
%LPD*%
X2725000Y4613000D2*
D13*
Y4575000D1*
X3175000D1*
Y4613000D1*
X2725000Y4817000D2*
Y4855000D1*
X3175000D1*
Y4817000D1*
X2617000Y4637000D2*
Y4793000D1*
X4275000Y4817000D2*
Y4855000D1*
X3825000D1*
Y4817000D1*
X4275000Y4613000D2*
Y4575000D1*
X3825000D1*
Y4613000D1*
X4383000Y4793000D2*
Y4637000D1*
X2725000Y14463000D2*
Y14425000D1*
X3175000D1*
Y14463000D1*
X2725000Y14667000D2*
Y14705000D1*
X3175000D1*
Y14667000D1*
X2617000Y14487000D2*
Y14643000D1*
X4275000Y14667000D2*
Y14705000D1*
X3825000D1*
Y14667000D1*
X4275000Y14463000D2*
Y14425000D1*
X3825000D1*
Y14463000D1*
X4383000Y14643000D2*
Y14487000D1*
G36*
X5975000Y3352500D2*
X5887500D1*
X5737500Y3077500D1*
X5887500D1*
X5981190Y3249267D1*
X5975000Y3352500D1*
G37*
G36*
X5737500D2*
X5587500D1*
X5437500Y3077500D1*
X5587500D1*
X5737500Y3352500D1*
G37*
G36*
X5437500D2*
X5287500D1*
X5137500Y3077500D1*
X5287500D1*
X5437500Y3352500D1*
G37*
G36*
X3337500D2*
X3187500D1*
X3037500Y3077500D1*
X3187500D1*
X3337500Y3352500D1*
G37*
G36*
X5137500D2*
X4987500D1*
X4837500Y3077500D1*
X4987500D1*
X5137500Y3352500D1*
G37*
G36*
X4837500D2*
X4687500D1*
X4537500Y3077500D1*
X4687500D1*
X4837500Y3352500D1*
G37*
G36*
X4537500D2*
X4387500D1*
X4237500Y3077500D1*
X4387500D1*
X4537500Y3352500D1*
G37*
G36*
X3637500D2*
X3487500D1*
X3337500Y3077500D1*
X3487500D1*
X3637500Y3352500D1*
G37*
G36*
X4237500D2*
X4087500D1*
X3937500Y3077500D1*
X4087500D1*
X4237500Y3352500D1*
G37*
G36*
X2437500D2*
X2287500D1*
X2137500Y3077500D1*
X2287500D1*
X2437500Y3352500D1*
G37*
G36*
X3937500D2*
X3787500D1*
X3637500Y3077500D1*
X3787500D1*
X3937500Y3352500D1*
G37*
G36*
X3037500D2*
X2887500D1*
X2737500Y3077500D1*
X2887500D1*
X3037500Y3352500D1*
G37*
G36*
X2737500D2*
X2587500D1*
X2437500Y3077500D1*
X2587500D1*
X2737500Y3352500D1*
G37*
G36*
X2137500D2*
X1987500D1*
X1837500Y3077500D1*
X1987500D1*
X2137500Y3352500D1*
G37*
G36*
X1537500D2*
X1387500D1*
X1237500Y3077500D1*
X1387500D1*
X1537500Y3352500D1*
G37*
G36*
X1837500D2*
X1687500D1*
X1537500Y3077500D1*
X1687500D1*
X1837500Y3352500D1*
G37*
G36*
X1237500D2*
X1087500D1*
X1012500Y3215000D1*
Y3077500D1*
X1087500D1*
X1237500Y3352500D1*
G37*
X3212500Y11890000D2*
D24*
G02X3212500Y11890000I287500J0D01*
G01*
Y7390000D2*
G02X3212500Y7390000I287500J0D01*
G01*
G36*
X3601778Y13656287D2*
X3588444Y13642954D1*
X3555111Y13606287D1*
X3518444Y13566287D1*
X3485111Y13529621D1*
X3448444Y13489621D1*
X3415111Y13452954D1*
X3408444Y13442954D1*
X3404910Y13439334D1*
X3403184Y13439875D1*
X3401778Y13442954D1*
Y13636287D1*
X3408444Y13642954D1*
X3411778Y13649621D1*
X3415111Y13659621D1*
Y13672954D1*
X3411778Y13682954D1*
X3408444Y13689621D1*
X3391778Y13706287D1*
X3381778Y13709621D1*
X3361778D1*
X3351778Y13706287D1*
X3331778Y13686287D1*
X3328444Y13676287D1*
Y13656287D1*
X3331778Y13646287D1*
X3341778Y13636287D1*
Y13292954D1*
X3375111Y13326287D1*
X3448444Y13406287D1*
X3481778Y13442954D1*
X3591778Y13562954D1*
X3592322Y13565532D1*
X3594366Y13568265D1*
X3596009Y13568186D1*
X3598444Y13566287D1*
Y13372954D1*
X3588444Y13362954D1*
X3585111Y13356287D1*
Y13329621D1*
X3588444Y13322954D1*
X3595111Y13312954D1*
X3598444Y13309621D1*
X3608444Y13302954D1*
X3618444Y13299621D1*
X3638444D1*
X3648444Y13302954D1*
X3665111Y13319621D1*
X3668444Y13326287D1*
X3671778Y13336287D1*
Y13349621D1*
X3668444Y13359621D1*
X3665111Y13366287D1*
X3658444Y13372954D1*
Y13716287D1*
X3625111Y13682954D1*
X3601778Y13656287D1*
X3628444D1*
X3630934Y13658428D1*
X3632661Y13658233D1*
X3635111Y13656287D1*
Y13359621D1*
X3645111Y13346287D1*
X3647633Y13341804D1*
X3647299Y13338801D1*
X3645111Y13336287D1*
Y13332954D1*
X3638444Y13326287D1*
X3631778Y13322954D1*
X3625111D1*
X3618444Y13326287D1*
X3608444Y13336287D1*
Y13346287D1*
X3611778Y13349621D1*
X3618444Y13359621D1*
Y13622954D1*
X3608444Y13612954D1*
X3541778Y13539621D1*
X3505111Y13499621D1*
X3438444Y13426287D1*
X3401778Y13386287D1*
X3368444Y13349621D1*
X3364910Y13346000D1*
X3363184Y13346542D1*
X3361778Y13349621D1*
Y13649621D1*
X3355111Y13659621D1*
X3351778Y13662954D1*
Y13672954D1*
X3361778Y13682954D1*
X3368444Y13686287D1*
X3375111D1*
X3381778Y13682954D1*
X3388444Y13676287D1*
Y13672954D1*
X3391778Y13669621D1*
Y13662954D1*
X3388444Y13659621D1*
X3381778Y13649621D1*
Y13386287D1*
X3395111Y13399621D1*
X3431778Y13439621D1*
X3531778Y13549621D1*
X3568444Y13589621D1*
X3601778Y13626287D1*
X3628444Y13656287D1*
X3601778D1*
G37*
G36*
X2968444Y13682954D2*
X2965111Y13679621D1*
X2958444Y13676287D1*
X2941778Y13662954D1*
X2928444Y13646287D1*
X2918444Y13626287D1*
X2915111Y13616287D1*
X2911778Y13599621D1*
Y13569621D1*
X2915111Y13552954D1*
X2918444Y13542954D1*
X2928444Y13522954D1*
X2938444Y13509621D1*
X2945111Y13502954D1*
X2958444Y13492954D1*
X2968444Y13486287D1*
X2975111Y13482954D1*
X2995111Y13476287D1*
X3011778Y13472954D1*
X3158444Y13469621D1*
Y13372954D1*
X3151778Y13366287D1*
X3145111Y13352954D1*
Y13332954D1*
X3148444Y13322954D1*
X3155111Y13312954D1*
X3158444Y13309621D1*
X3168444Y13302954D1*
X3178444Y13299621D1*
X3198444D1*
X3208444Y13302954D1*
X3225111Y13319621D1*
X3228444Y13326287D1*
X3231778Y13336287D1*
Y13349621D1*
X3228444Y13359621D1*
X3225111Y13366287D1*
X3218444Y13372954D1*
Y13636287D1*
X3225111Y13642954D1*
X3228444Y13649621D1*
X3231778Y13659621D1*
Y13672954D1*
X3228444Y13682954D1*
X3225111Y13689621D1*
X3208444Y13706287D1*
X3198444Y13709621D1*
X3178444D1*
X3168444Y13706287D1*
X3161778Y13699621D1*
X3008444Y13696287D1*
X2991778Y13692954D1*
X2981778Y13689621D1*
X2968444Y13682954D1*
X3178444D1*
X3185111Y13686287D1*
X3191778D1*
X3198444Y13682954D1*
X3205111Y13676287D1*
Y13672954D1*
X3208444Y13669621D1*
Y13662954D1*
X3205111Y13659621D1*
X3198444Y13649621D1*
Y13356287D1*
X3205111Y13346287D1*
X3207633Y13341804D1*
X3207299Y13338801D1*
X3205111Y13336287D1*
Y13332954D1*
X3198444Y13326287D1*
X3191778Y13322954D1*
X3185111D1*
X3178444Y13326287D1*
X3168444Y13336287D1*
Y13346287D1*
X3178444Y13356287D1*
Y13492954D1*
X3008444Y13496287D1*
X2995111Y13499621D1*
X2985111Y13502954D1*
X2978444Y13506287D1*
X2975111Y13509621D1*
X2968444Y13512954D1*
X2948444Y13532954D1*
Y13536287D1*
X2938444Y13556287D1*
X2935111Y13576287D1*
X2931778Y13579621D1*
Y13589621D1*
X2935111Y13592954D1*
X2938444Y13609621D1*
X2941778Y13619621D1*
X2945111Y13626287D1*
X2951778Y13636287D1*
Y13639621D1*
X2968444Y13656287D1*
X2975111Y13659621D1*
X2978444Y13662954D1*
X2991778Y13669621D1*
X3005111Y13672954D1*
X3171778Y13676287D1*
X3178444Y13682954D1*
X2968444D1*
G37*
G36*
X3788444D2*
X3785111Y13679621D1*
X3778444Y13676287D1*
X3761778Y13662954D1*
X3748444Y13646287D1*
X3738444Y13626287D1*
X3735111Y13616287D1*
X3731778Y13599621D1*
Y13569621D1*
X3735111Y13552954D1*
X3738444Y13542954D1*
X3748444Y13522954D1*
X3758444Y13509621D1*
X3765111Y13502954D1*
X3778444Y13492954D1*
X3788444Y13486287D1*
X3795111Y13482954D1*
X3815111Y13476287D1*
X3831778Y13472954D1*
X3978444Y13469621D1*
Y13372954D1*
X3971778Y13366287D1*
X3965111Y13352954D1*
Y13332954D1*
X3968444Y13322954D1*
X3975111Y13312954D1*
X3978444Y13309621D1*
X3988444Y13302954D1*
X3998444Y13299621D1*
X4018444D1*
X4028444Y13302954D1*
X4045111Y13319621D1*
X4048444Y13326287D1*
X4051778Y13336287D1*
Y13349621D1*
X4048444Y13359621D1*
X4045111Y13366287D1*
X4038444Y13372954D1*
Y13636287D1*
X4045111Y13642954D1*
X4048444Y13649621D1*
X4051778Y13659621D1*
Y13672954D1*
X4048444Y13682954D1*
X4045111Y13689621D1*
X4028444Y13706287D1*
X4018444Y13709621D1*
X3998444D1*
X3988444Y13706287D1*
X3981778Y13699621D1*
X3828444Y13696287D1*
X3811778Y13692954D1*
X3801778Y13689621D1*
X3788444Y13682954D1*
X3998444D1*
X4005111Y13686287D1*
X4011778D1*
X4018444Y13682954D1*
X4025111Y13676287D1*
Y13672954D1*
X4028444Y13669621D1*
Y13662954D1*
X4025111Y13659621D1*
X4018444Y13649621D1*
Y13356287D1*
X4025111Y13346287D1*
X4027633Y13341804D1*
X4027299Y13338801D1*
X4025111Y13336287D1*
Y13332954D1*
X4018444Y13326287D1*
X4011778Y13322954D1*
X4005111D1*
X3998444Y13326287D1*
X3988444Y13336287D1*
Y13346287D1*
X3998444Y13356287D1*
Y13492954D1*
X3828444Y13496287D1*
X3815111Y13499621D1*
X3805111Y13502954D1*
X3798444Y13506287D1*
X3795111Y13509621D1*
X3788444Y13512954D1*
X3768444Y13532954D1*
Y13536287D1*
X3758444Y13556287D1*
X3755111Y13576287D1*
X3751778Y13579621D1*
Y13589621D1*
X3755111Y13592954D1*
X3758444Y13609621D1*
X3761778Y13619621D1*
X3765111Y13626287D1*
X3771778Y13636287D1*
Y13639621D1*
X3788444Y13656287D1*
X3795111Y13659621D1*
X3798444Y13662954D1*
X3811778Y13669621D1*
X3825111Y13672954D1*
X3991778Y13676287D1*
X3998444Y13682954D1*
X3788444D1*
G37*
G36*
X2971778Y13636287D2*
X2965111Y13629621D1*
X2955111Y13609621D1*
X2951778Y13599621D1*
Y13569621D1*
X2958444Y13549621D1*
X2965111Y13539621D1*
X2981778Y13522954D1*
X3001778Y13512954D1*
X3015111Y13509621D1*
X3178444D1*
Y13649621D1*
X3171778Y13659621D1*
X3011778D1*
X2998444Y13656287D1*
X2991778Y13652954D1*
X2981778Y13646287D1*
X2971778Y13636287D1*
X3011778D1*
X3060666Y13639621D1*
X3109555D1*
X3158444Y13636287D1*
Y13532954D1*
X3110666Y13529621D1*
X3062889D1*
X3015111Y13532954D1*
X3005111Y13536287D1*
X2998444Y13539621D1*
X2995111Y13542954D1*
X2988444Y13546287D1*
X2984491Y13550035D1*
X2985111Y13552954D1*
X2978444Y13562954D1*
X2975111Y13576287D1*
X2971778Y13579621D1*
Y13589621D1*
X2975111Y13592954D1*
X2978444Y13606287D1*
Y13609621D1*
X2998444Y13629621D1*
X3011778Y13636287D1*
X2971778D1*
G37*
G36*
X3791778D2*
X3785111Y13629621D1*
X3775111Y13609621D1*
X3771778Y13599621D1*
Y13569621D1*
X3778444Y13549621D1*
X3785111Y13539621D1*
X3801778Y13522954D1*
X3821778Y13512954D1*
X3835111Y13509621D1*
X3998444D1*
Y13649621D1*
X3991778Y13659621D1*
X3831778D1*
X3818444Y13656287D1*
X3811778Y13652954D1*
X3801778Y13646287D1*
X3791778Y13636287D1*
X3831778D1*
X3880666Y13639621D1*
X3929555D1*
X3978444Y13636287D1*
Y13532954D1*
X3930666Y13529621D1*
X3882889D1*
X3835111Y13532954D1*
X3825111Y13536287D1*
X3818444Y13539621D1*
X3815111Y13542954D1*
X3808444Y13546287D1*
X3804491Y13550035D1*
X3805111Y13552954D1*
X3798444Y13562954D1*
X3795111Y13576287D1*
X3791778Y13579621D1*
Y13589621D1*
X3795111Y13592954D1*
X3798444Y13606287D1*
Y13609621D1*
X3818444Y13629621D1*
X3831778Y13636287D1*
X3791778D1*
G37*
G36*
X4208444Y14302954D2*
Y13889621D1*
X4201778Y13882954D1*
X4195111Y13872954D1*
X4191778Y13866287D1*
Y13832954D1*
X4195111Y13826287D1*
X4201778Y13816287D1*
X4208444Y13809621D1*
X4218444Y13802954D1*
X4228444Y13799621D1*
X4255111D1*
X4265111Y13802954D1*
X4275111Y13809621D1*
X4281778Y13816287D1*
X4288444Y13826287D1*
X4291778Y13832954D1*
X4295111Y13849621D1*
Y13852954D1*
X4291778Y13866287D1*
X4288444Y13872954D1*
X4281778Y13882954D1*
X4275111Y13889621D1*
Y14066287D1*
X4271778Y14069621D1*
Y14082954D1*
X4274267Y14085095D1*
X4275953Y14084815D1*
X4277850Y14082059D1*
X4278444Y14079621D1*
X4288444Y14059621D1*
X4301778Y14039621D1*
X4305111Y14032954D1*
X4331778Y13992954D1*
X4335111Y13986287D1*
X4355111Y13956287D1*
X4358444Y13949621D1*
X4385111Y13909621D1*
X4388444Y13902954D1*
X4415111Y13862954D1*
X4418444Y13856287D1*
X4421778Y13859621D1*
X4441778Y13889621D1*
X4445111Y13896287D1*
X4471778Y13936287D1*
X4475111Y13942954D1*
X4501778Y13982954D1*
X4505111Y13989621D1*
X4531778Y14029621D1*
X4535111Y14036287D1*
X4555111Y14066287D1*
X4558444Y14076287D1*
X4561778Y14082954D1*
X4562322Y14085532D1*
X4564366Y14088265D1*
X4566009Y14088186D1*
X4568444Y14086287D1*
Y14076287D1*
X4565111Y14072954D1*
Y13889621D1*
X4551778Y13876287D1*
X4548444Y13869621D1*
X4545111Y13859621D1*
Y13839621D1*
X4548444Y13829621D1*
X4551778Y13822954D1*
X4568444Y13806287D1*
X4575111Y13802954D1*
X4585111Y13799621D1*
X4611778D1*
X4625111Y13806287D1*
X4641778Y13822954D1*
X4648444Y13836287D1*
Y13862954D1*
X4641778Y13876287D1*
X4630111Y13889621D1*
Y14299621D1*
X4626778D1*
Y14296287D1*
X4621778Y14289621D1*
X4615111Y14279621D1*
X4611778Y14272954D1*
X4591778Y14242954D1*
X4588444Y14236287D1*
X4575111Y14216287D1*
X4571778Y14209621D1*
X4558444Y14189621D1*
X4555111Y14182954D1*
X4535111Y14152954D1*
X4531778Y14146287D1*
X4518444Y14126287D1*
X4515111Y14119621D1*
X4495111Y14089621D1*
X4491778Y14082954D1*
X4478444Y14062954D1*
X4475111Y14056287D1*
X4461778Y14036287D1*
X4458444Y14029621D1*
X4438444Y13999621D1*
X4435111Y13992954D1*
X4428444Y13982954D1*
X4425111Y13976287D1*
X4423898Y13972189D1*
X4420452Y13969363D1*
X4418444Y13969621D1*
X4411778Y13976287D1*
Y13979621D1*
X4408444Y13986287D1*
X4395111Y14006287D1*
X4391778Y14012954D1*
X4378444Y14032954D1*
X4375111Y14039621D1*
X4361778Y14059621D1*
X4358444Y14066287D1*
X4338444Y14096287D1*
X4335111Y14102954D1*
X4321778Y14122954D1*
X4318444Y14129621D1*
X4298444Y14159621D1*
X4295111Y14166287D1*
X4281778Y14186287D1*
X4278444Y14192954D1*
X4265111Y14212954D1*
X4261778Y14219621D1*
X4241778Y14249621D1*
X4238444Y14256287D1*
X4225111Y14276287D1*
X4221778Y14282954D1*
X4215111Y14292954D1*
X4208444Y14299621D1*
Y14302954D1*
G37*
G36*
X3848444Y14136287D2*
Y14129621D1*
X3845111Y14126287D1*
X3838444Y14112954D1*
X3835111Y14102954D1*
X3828444Y14089621D1*
X3825111Y14079621D1*
X3818444Y14066287D1*
X3815111Y14056287D1*
X3808444Y14042954D1*
X3805111Y14032954D1*
X3801778Y14026287D1*
X3798444Y14016287D1*
X3791778Y14002954D1*
X3788444Y13992954D1*
X3781778Y13979621D1*
X3778444Y13969621D1*
X3771778Y13956287D1*
X3768444Y13946287D1*
X3761778Y13932954D1*
X3758444Y13922954D1*
X3755111Y13916287D1*
X3751778Y13906287D1*
X3750682Y13902243D1*
X3748444Y13899621D1*
X3741778Y13896287D1*
X3731778Y13889621D1*
X3725111Y13879621D1*
X3718444Y13866287D1*
X3715111Y13856287D1*
Y13846287D1*
X3718444Y13832954D1*
X3725111Y13819621D1*
X3738444Y13806287D1*
X3751778Y13799621D1*
X3781778D1*
X3791778Y13802954D1*
X3801778Y13809621D1*
X3808444Y13816287D1*
X3815111Y13826287D1*
X3818444Y13836287D1*
X3821778Y13879621D1*
X3828444Y13892954D1*
X3831778Y13902954D1*
X3835111Y13909621D1*
Y13912954D1*
X3891778Y13916287D1*
X3948444D1*
X4005111Y13912954D1*
Y13909621D1*
X4011778Y13896287D1*
X4015111Y13886287D1*
X4018444Y13879621D1*
X4021778Y13836287D1*
X4028444Y13822954D1*
X4035111Y13812954D1*
X4045111Y13806287D1*
X4058444Y13799621D1*
X4088444D1*
X4101778Y13806287D1*
X4115111Y13819621D1*
X4121778Y13832954D1*
X4125111Y13842954D1*
Y13859621D1*
X4121778Y13869621D1*
X4115111Y13882954D1*
X4105111Y13892954D1*
X4098444Y13896287D1*
X4088444Y13906287D1*
Y13909621D1*
X4085111Y13916287D1*
X4081778Y13926287D1*
X4078444Y13932954D1*
X4075111Y13942954D1*
X4068444Y13956287D1*
X4065111Y13966287D1*
X4058444Y13979621D1*
X4055111Y13989621D1*
X4048444Y14002954D1*
X4045111Y14012954D1*
X4038444Y14026287D1*
X4035111Y14036287D1*
X4028444Y14049621D1*
X4025111Y14059621D1*
X4018444Y14072954D1*
X4015111Y14082954D1*
X4008444Y14096287D1*
X4005111Y14106287D1*
X3998444Y14119621D1*
X3995111Y14129621D1*
X3988444Y14142954D1*
X3985111Y14152954D1*
X3981778Y14159621D1*
X3978444Y14169621D1*
X3971778Y14182954D1*
X3968444Y14192954D1*
X3961778Y14206287D1*
X3958444Y14216287D1*
X3951778Y14229621D1*
X3948444Y14239621D1*
X3941778Y14252954D1*
X3938444Y14262954D1*
X3931778Y14276287D1*
X3928444Y14286287D1*
X3921778Y14299621D1*
X3918444D1*
X3915111Y14292954D1*
X3911778Y14282954D1*
X3905111Y14269621D1*
X3901778Y14259621D1*
X3895111Y14246287D1*
X3891778Y14236287D1*
X3885111Y14222954D1*
X3881778Y14212954D1*
X3875111Y14199621D1*
X3871778Y14189621D1*
X3865111Y14176287D1*
X3861778Y14166287D1*
X3858444Y14159621D1*
X3855111Y14149621D1*
X3848444Y14136287D1*
X3915111D1*
X3918679Y14138278D1*
X3921573Y14138064D1*
X3925111Y14136287D1*
Y14126287D1*
X3931778Y14106287D1*
X3935111Y14099621D1*
X3941778Y14079621D1*
X3945111Y14072954D1*
X3951778Y14052954D1*
X3955111Y14046287D1*
X3961778Y14026287D1*
X3965111Y14019621D1*
X3971778Y13999621D1*
X3975111Y13992954D1*
X3978444Y13989621D1*
Y13982954D1*
X3939555Y13979621D1*
X3900666D1*
X3861778Y13982954D1*
X3862426Y13985317D1*
X3865111Y13989621D1*
X3871778Y14009621D1*
X3875111Y14016287D1*
X3881778Y14036287D1*
X3885111Y14042954D1*
X3891778Y14062954D1*
X3895111Y14069621D1*
X3901778Y14089621D1*
X3905111Y14096287D1*
X3915111Y14126287D1*
Y14136287D1*
X3848444D1*
G37*
G36*
X2338444Y14199621D2*
X2337349Y14195577D1*
X2335111Y14192954D1*
X2328444Y14172954D1*
Y14112954D1*
X2331778Y14099621D1*
X2335111Y14092954D1*
X2338444Y14082954D1*
X2351778Y14062954D1*
X2365111Y14049621D1*
X2378444Y14039621D1*
X2388444Y14032954D1*
X2395111Y14029621D1*
X2425111Y14019621D1*
X2448444Y14016287D1*
X2441778Y14009621D1*
X2431778Y13996287D1*
X2425111Y13986287D1*
X2395111Y13946287D1*
X2388444Y13936287D1*
X2368444Y13909621D1*
Y13906287D1*
X2361778Y13902954D1*
X2351778Y13899621D1*
X2345111Y13896287D1*
X2335111Y13889621D1*
X2325111Y13876287D1*
X2321778Y13869621D1*
Y13836287D1*
X2325111Y13826287D1*
X2331778Y13816287D1*
X2338444Y13809621D1*
X2348444Y13802954D1*
X2358444Y13799621D1*
X2381778D1*
X2391778Y13802954D1*
X2398444Y13806287D1*
X2415111Y13822954D1*
X2421778Y13836287D1*
X2425111Y13862954D1*
X2445111Y13889621D1*
X2451778Y13899621D1*
X2481778Y13939621D1*
X2488444Y13949621D1*
X2518444Y13989621D1*
X2525111Y13999621D1*
Y14002954D1*
X2535111Y14012954D1*
X2565111Y14016287D1*
X2595111D1*
X2625111Y14012954D1*
Y13889621D1*
X2618444Y13882954D1*
X2611778Y13872954D1*
X2608444Y13862954D1*
Y13839621D1*
X2611778Y13829621D1*
X2615111Y13822954D1*
X2631778Y13806287D1*
X2638444Y13802954D1*
X2648444Y13799621D1*
X2671778D1*
X2681778Y13802954D1*
X2688444Y13806287D1*
X2705111Y13822954D1*
X2708444Y13829621D1*
X2711778Y13839621D1*
Y13862954D1*
X2708444Y13872954D1*
X2701778Y13882954D1*
X2695111Y13889621D1*
Y14199621D1*
X2705111Y14209621D1*
X2708444Y14216287D1*
X2711778Y14226287D1*
Y14246287D1*
X2708444Y14256287D1*
X2705111Y14262954D1*
X2698444Y14272954D1*
X2695111Y14276287D1*
X2685111Y14282954D1*
X2678444Y14286287D1*
X2668444Y14289621D1*
X2651778D1*
X2641778Y14286287D1*
X2635111Y14282954D1*
X2625111Y14272954D1*
X2435111Y14269621D1*
X2408444Y14262954D1*
X2388444Y14252954D1*
X2378444Y14246287D1*
X2348444Y14216287D1*
X2341778Y14206287D1*
X2338444Y14199621D1*
X2445111D1*
X2505111Y14202954D1*
X2565111D1*
X2625111Y14199621D1*
Y14086287D1*
X2566222Y14082954D1*
X2507333D1*
X2448444Y14086287D1*
X2435111Y14089621D1*
X2428444Y14092954D1*
X2425111Y14096287D1*
X2418444Y14099621D1*
X2411778Y14106287D1*
Y14109621D1*
X2405111Y14119621D1*
X2401778Y14136287D1*
X2398444Y14139621D1*
Y14146287D1*
X2401778Y14149621D1*
X2405111Y14166287D1*
X2411778Y14176287D1*
Y14179621D1*
X2418444Y14186287D1*
X2425111Y14189621D1*
X2428444Y14192954D1*
X2435111Y14196287D1*
X2445111Y14199621D1*
X2338444D1*
G37*
G36*
X2851778Y14289621D2*
X2841778Y14286287D1*
X2835111Y14282954D1*
X2825111Y14276287D1*
X2821778Y14272954D1*
X2815111Y14262954D1*
X2811778Y14256287D1*
X2808444Y14246287D1*
Y14229621D1*
X2811778Y14219621D1*
X2815111Y14212954D1*
X2821778Y14202954D1*
X2825111Y14199621D1*
X2835111Y14192954D1*
X2841778Y14189621D1*
X2855111Y14186287D1*
X2868444D1*
X2878444Y14189621D1*
X2885111Y14192954D1*
X2895111Y14199621D1*
Y14202954D1*
X2965111Y14206287D1*
X3035111D1*
X3105111Y14202954D1*
Y14086287D1*
X3051778Y14082954D1*
X2998444D1*
X2945111Y14086287D1*
X2935111Y14096287D1*
X2928444Y14099621D1*
X2918444Y14102954D1*
X2901778D1*
X2891778Y14099621D1*
X2885111Y14096287D1*
X2865111Y14076287D1*
X2861778Y14069621D1*
X2858444Y14059621D1*
Y14039621D1*
X2861778Y14029621D1*
X2868444Y14016287D1*
X2875111Y14009621D1*
X2885111Y14002954D1*
X2891778Y13999621D1*
X2901778Y13996287D1*
X2918444D1*
X2928444Y13999621D1*
X2935111Y14002954D1*
X2945111Y14012954D1*
X2998444Y14016287D1*
X3051778D1*
X3105111Y14012954D1*
Y13886287D1*
X3035111Y13882954D1*
X2965111D1*
X2895111Y13886287D1*
X2885111Y13896287D1*
X2878444Y13899621D1*
X2868444Y13902954D1*
X2855111D1*
X2841778Y13899621D1*
X2835111Y13896287D1*
X2815111Y13876287D1*
X2811778Y13869621D1*
X2808444Y13856287D1*
Y13842954D1*
X2811778Y13829621D1*
X2815111Y13822954D1*
X2835111Y13802954D1*
X2841778Y13799621D1*
X2855111Y13796287D1*
X2868444D1*
X2878444Y13799621D1*
X2885111Y13802954D1*
X2895111Y13809621D1*
X3175111Y13816287D1*
Y14269621D1*
X2895111Y14272954D1*
X2885111Y14282954D1*
X2871778Y14289621D1*
X2851778D1*
G37*
G36*
X3301778D2*
X3281778Y14279621D1*
X3278444Y14276287D1*
X3271778Y14266287D1*
X3265111Y14252954D1*
Y14226287D1*
X3268444Y14216287D1*
X3271778Y14209621D1*
X3285111Y14196287D1*
X3298444Y14189621D1*
X3311778Y14186287D1*
X3315111D1*
X3319555Y14189621D1*
X3324000D1*
X3328444Y14186287D1*
X3331778Y14182954D1*
X3341778Y14176287D1*
X3395111Y14136287D1*
X3405111Y14129621D1*
X3471778Y14079621D1*
X3481778Y14072954D1*
X3488444Y14069621D1*
X3495111Y14062954D1*
X3488444Y14059621D1*
X3465111Y14039621D1*
X3438444Y14016287D1*
X3321778Y13916287D1*
X3311778Y13906287D1*
X3291778Y13902954D1*
X3281778Y13899621D1*
X3275111Y13896287D1*
X3258444Y13879621D1*
X3255111Y13872954D1*
X3251778Y13862954D1*
Y13839621D1*
X3255111Y13829621D1*
X3258444Y13822954D1*
X3275111Y13806287D1*
X3281778Y13802954D1*
X3291778Y13799621D1*
X3311778D1*
X3325111Y13802954D1*
X3335111Y13809621D1*
X3348444Y13822954D1*
X3351778Y13829621D1*
X3355111Y13839621D1*
Y13846287D1*
X3368444Y13859621D1*
X3375111Y13862954D1*
X3405111Y13889621D1*
X3485111Y13959621D1*
X3515111Y13986287D1*
X3541778Y14009621D1*
X3551778Y14019621D1*
X3554267Y14021761D1*
X3555994Y14021567D1*
X3558444Y14019621D1*
Y13889621D1*
X3548444Y13879621D1*
X3545111Y13872954D1*
X3541778Y13862954D1*
Y13839621D1*
X3545111Y13829621D1*
X3551778Y13819621D1*
X3565111Y13806287D1*
X3571778Y13802954D1*
X3581778Y13799621D1*
X3605111D1*
X3615111Y13802954D1*
X3625111Y13809621D1*
X3635111Y13819621D1*
X3645111Y13839621D1*
Y13862954D1*
X3641778Y13872954D1*
X3635111Y13882954D1*
X3628444Y13889621D1*
Y14199621D1*
X3635111Y14206287D1*
X3641778Y14219621D1*
X3645111Y14229621D1*
Y14249621D1*
X3641778Y14259621D1*
X3638444Y14266287D1*
X3621778Y14282954D1*
X3608444Y14289621D1*
X3578444D1*
X3568444Y14286287D1*
X3548444Y14266287D1*
X3541778Y14252954D1*
Y14226287D1*
X3545111Y14216287D1*
X3551778Y14206287D1*
X3558444Y14199621D1*
Y14109621D1*
X3554910Y14106000D1*
X3553184Y14106542D1*
X3551778Y14109621D1*
X3485111Y14159621D1*
X3468444Y14172954D1*
X3375111Y14242954D1*
X3368444Y14246287D1*
X3365111Y14249621D1*
Y14259621D1*
X3361778Y14266287D1*
X3345111Y14282954D1*
X3331778Y14289621D1*
X3301778D1*
G37*
X4764410Y13157656D2*
D90*
Y12979003D1*
Y13064104D2*
X4743970Y13089654D1*
X4730291Y13098105D1*
X4709851D1*
X4696329Y13089654D1*
X4689568Y13064104D1*
Y12979003D1*
X4606906Y13157656D2*
Y13013004D1*
X4600145Y12987650D1*
X4586466Y12979003D1*
X4572944D1*
X4627346Y13098105D2*
X4579705D1*
X4490282Y13157656D2*
Y13013004D1*
X4483521Y12987650D1*
X4469842Y12979003D1*
X4456320D1*
X4510722Y13098105D2*
X4463081D1*
X4394097D2*
Y12919452D1*
Y13072555D2*
X4380418Y13089457D1*
X4366897Y13098105D1*
X4346457D1*
X4332777Y13089457D1*
X4319256Y13072555D1*
X4312337Y13047005D1*
Y13029906D1*
X4319256Y13004553D1*
X4332777Y12987454D1*
X4346457Y12979003D1*
X4366897D1*
X4380418Y12987454D1*
X4394097Y13004553D1*
X4243197Y13098105D2*
X4250115Y13089457D1*
X4243197Y13081006D1*
X4236436Y13089457D1*
X4243197Y13098105D1*
Y12996102D2*
X4250115Y12987454D1*
X4243197Y12979003D1*
X4236436Y12987454D1*
X4243197Y12996102D1*
X4174214Y12979003D2*
X4078932Y13157460D1*
X4016710Y12979003D2*
X3921428Y13157460D1*
X3859206Y13098105D2*
Y12979003D1*
Y13064104D2*
X3838766Y13089654D1*
X3825087Y13098105D1*
X3804804D1*
X3791125Y13089654D1*
X3784364Y13064104D1*
Y12979003D1*
Y13064104D2*
X3763924Y13089654D1*
X3750245Y13098105D1*
X3729962D1*
X3716283Y13089654D1*
X3709365Y13064104D1*
Y12979003D1*
X3565540Y13098105D2*
Y12979003D1*
Y13072555D2*
X3579062Y13089654D1*
X3592741Y13098105D1*
X3613024D1*
X3626703Y13089654D1*
X3640225Y13072555D1*
X3647143Y13047005D1*
Y13030103D1*
X3640225Y13004553D1*
X3626703Y12987650D1*
X3613024Y12979003D1*
X3592741D1*
X3579062Y12987650D1*
X3565540Y13004553D1*
X3503318Y13157656D2*
Y12979003D1*
X3435237Y13098105D2*
X3503318Y13013004D1*
X3476117Y13047005D2*
X3428476Y12979003D1*
X3366254Y13047005D2*
X3284651D1*
Y13064104D1*
X3291412Y13081203D1*
X3298173Y13089654D1*
X3311852Y13098105D1*
X3332292D1*
X3345814Y13089654D1*
X3359493Y13072555D1*
X3366254Y13047005D1*
Y13030103D1*
X3359493Y13004553D1*
X3345814Y12987650D1*
X3332292Y12979003D1*
X3311852D1*
X3298173Y12987650D1*
X3284651Y13004553D1*
X3222429Y13098105D2*
Y12979003D1*
Y13047005D2*
X3215510Y13072555D1*
X3201989Y13089654D1*
X3188310Y13098105D1*
X3167870D1*
X3105647D2*
Y12919452D1*
Y13072555D2*
X3091968Y13089457D1*
X3078446Y13098105D1*
X3058006D1*
X3044327Y13089457D1*
X3030805Y13072555D1*
X3023887Y13047005D1*
Y13029906D1*
X3030805Y13004553D1*
X3044327Y12987454D1*
X3058006Y12979003D1*
X3078446D1*
X3091968Y12987454D1*
X3105647Y13004553D1*
X2961665Y13098105D2*
Y12979003D1*
Y13064104D2*
X2941225Y13089654D1*
X2927546Y13098105D1*
X2907263D1*
X2893584Y13089654D1*
X2886823Y13064104D1*
Y12979003D1*
X2824601Y13098105D2*
Y12919452D1*
Y13072555D2*
X2810922Y13089457D1*
X2797400Y13098105D1*
X2776960D1*
X2763281Y13089457D1*
X2749759Y13072555D1*
X2742841Y13047005D1*
Y13029906D1*
X2749759Y13004553D1*
X2763281Y12987454D1*
X2776960Y12979003D1*
X2797400D1*
X2810922Y12987454D1*
X2824601Y13004553D1*
X2673858Y12996102D2*
X2680619Y12987454D1*
X2673858Y12979003D1*
X2666940Y12987454D1*
X2673858Y12996102D1*
X2570756Y13098105D2*
X2584278Y13089654D1*
X2597957Y13072555D1*
X2604718Y13047005D1*
Y13030103D1*
X2597957Y13004553D1*
X2584278Y12987650D1*
X2570756Y12979003D1*
X2550316D1*
X2536637Y12987650D1*
X2523115Y13004553D1*
X2516197Y13030103D1*
Y13047005D1*
X2523115Y13072555D1*
X2536637Y13089654D1*
X2550316Y13098105D1*
X2570756D1*
X2453974D2*
Y12979003D1*
Y13047005D2*
X2447056Y13072555D1*
X2433534Y13089654D1*
X2419855Y13098105D1*
X2399415D1*
X2255590Y13089654D2*
Y12953453D1*
X2262351Y12928099D1*
X2269112Y12919452D1*
X2282791Y12911000D1*
X2303231D1*
X2316753Y12919452D1*
X2255590Y13064104D2*
X2269112Y13081006D1*
X2282791Y13089654D1*
X2303231D1*
X2316753Y13081006D1*
X2330432Y13064104D1*
X2337193Y13038554D1*
Y13021455D1*
X2330432Y12996102D1*
X2316753Y12979003D1*
X2303231Y12970552D1*
X2282791D1*
X2269112Y12979003D1*
X2255590Y12996102D1*
X1152140Y10468242D2*
D88*
X1228706D1*
Y10441962D1*
X1224999Y10433202D1*
X1221377Y10430304D1*
X1214134Y10427407D1*
X1203184D1*
X1195856Y10430304D1*
X1192234Y10433202D1*
X1188612Y10441962D1*
X1184906Y10433202D1*
X1181284Y10430304D1*
X1174040Y10427407D1*
X1166712D1*
X1159468Y10430304D1*
X1155762Y10433202D1*
X1152140Y10441962D1*
Y10468242D1*
X1188612D2*
Y10441962D1*
X1192234Y10400740D2*
Y10374460D1*
X1188612Y10365767D1*
X1184906Y10362802D1*
X1177662Y10359905D1*
X1166712D1*
X1159468Y10362802D1*
X1155762Y10365767D1*
X1152140Y10374460D1*
Y10400740D1*
X1228706D1*
Y10674475D2*
X1152140Y10697858D1*
X1228706Y10721173D1*
X1203184Y10712413D2*
Y10683235D1*
X1152140Y10606974D2*
X1228706D1*
X1152140Y10647809D1*
X1228706D1*
Y10921975D2*
X1152140Y10945358D1*
X1228706Y10968673D1*
X1203184Y10959913D2*
Y10930735D1*
X1192234Y10895309D2*
Y10869029D1*
X1188612Y10860336D1*
X1184906Y10857371D1*
X1177662Y10854474D1*
X1166712D1*
X1159468Y10857371D1*
X1155762Y10860336D1*
X1152140Y10869029D1*
Y10895309D1*
X1228706D1*
X1152224Y11436167D2*
Y11465277D1*
X1184990Y11468174D1*
X1181368Y11465277D1*
X1177662Y11456517D1*
Y11447824D1*
X1181368Y11439064D1*
X1188612Y11433202D1*
X1199562Y11430304D1*
X1206806D1*
X1217756Y11433202D1*
X1225084Y11439064D1*
X1228706Y11447824D1*
Y11456517D1*
X1225084Y11465277D1*
X1221377Y11468174D1*
X1214134Y11471139D1*
X1152140Y11403638D2*
X1228706Y11380322D1*
X1152140Y11357007D1*
X1192234Y9469259D2*
Y9442979D1*
X1188612Y9434287D1*
X1184906Y9431322D1*
X1177662Y9428424D1*
X1166712D1*
X1159468Y9431322D1*
X1155762Y9434287D1*
X1152140Y9442979D1*
Y9469259D1*
X1228706D1*
X1152140Y9363887D2*
Y9401758D1*
X1228706D1*
Y9363887D1*
X1188612Y9401758D2*
Y9378442D1*
X1152140Y9718242D2*
Y9677407D1*
X1228706Y9718242D1*
Y9677407D1*
X1152140Y9609905D2*
X1228706D1*
X1152140Y9650740D1*
X1228706D1*
X1152140Y10220742D2*
X1228706D1*
Y10194462D1*
X1224999Y10185702D1*
X1221377Y10182804D1*
X1214134Y10179907D1*
X1203184D1*
X1195856Y10182804D1*
X1192234Y10185702D1*
X1188612Y10194462D1*
X1184906Y10185702D1*
X1181284Y10182804D1*
X1174040Y10179907D1*
X1166712D1*
X1159468Y10182804D1*
X1155762Y10185702D1*
X1152140Y10194462D1*
Y10220742D1*
X1188612D2*
Y10194462D1*
X1152140Y10112405D2*
X1228706D1*
X1152140Y10153240D1*
X1228706D1*
X1170334Y11142207D2*
X1163090Y11145105D1*
X1155762Y11150967D1*
X1152140Y11156762D1*
Y11168420D1*
X1155762Y11174282D1*
X1163090Y11180077D1*
X1170334Y11183042D1*
X1181284Y11185940D1*
X1199562D1*
X1210427Y11183042D1*
X1217756Y11180077D1*
X1224999Y11174282D1*
X1228706Y11168420D1*
Y11156762D1*
X1224999Y11150967D1*
X1217756Y11145105D1*
X1210427Y11142207D1*
X1199562D1*
Y11156762D1*
X1152140Y9970742D2*
Y9929907D1*
X1228706Y9970742D1*
Y9929907D1*
X1192234Y9903240D2*
Y9876960D1*
X1188612Y9868267D1*
X1184906Y9865302D1*
X1177662Y9862405D1*
X1166712D1*
X1159468Y9865302D1*
X1155762Y9868267D1*
X1152140Y9876960D1*
Y9903240D1*
X1228706D1*
X5860347Y10361762D2*
X5783781D1*
Y10388042D1*
X5787487Y10396802D1*
X5791109Y10399699D1*
X5798353Y10402597D1*
X5809303D1*
X5816631Y10399699D1*
X5820253Y10396802D1*
X5823875Y10388042D1*
X5827581Y10396802D1*
X5831203Y10399699D1*
X5838447Y10402597D1*
X5845775D1*
X5853019Y10399699D1*
X5856725Y10396802D1*
X5860347Y10388042D1*
Y10361762D1*
X5823875D2*
Y10388042D1*
X5820253Y10429263D2*
Y10455543D1*
X5823875Y10464236D1*
X5827581Y10467201D1*
X5834825Y10470098D1*
X5845775D1*
X5853019Y10467201D1*
X5856725Y10464236D1*
X5860347Y10455543D1*
Y10429263D1*
X5783781D1*
Y10155528D2*
X5860347Y10132145D1*
X5783781Y10108830D1*
X5809303Y10117590D2*
Y10146768D1*
X5860347Y10223030D2*
X5783781D1*
X5860347Y10182195D1*
X5783781D1*
Y9908028D2*
X5860347Y9884645D1*
X5783781Y9861330D1*
X5809303Y9870090D2*
Y9899268D1*
X5820253Y9934695D2*
Y9960975D1*
X5823875Y9969667D1*
X5827581Y9972632D1*
X5834825Y9975530D1*
X5845775D1*
X5853019Y9972632D1*
X5856725Y9969667D1*
X5860347Y9960975D1*
Y9934695D1*
X5783781D1*
X5842153Y9687796D2*
X5849397Y9684899D1*
X5856725Y9679036D1*
X5860347Y9673241D1*
Y9661584D1*
X5856725Y9655721D1*
X5849397Y9649926D1*
X5842153Y9646961D1*
X5831203Y9644064D1*
X5812925D1*
X5802059Y9646961D1*
X5794731Y9649926D1*
X5787487Y9655721D1*
X5783781Y9661584D1*
Y9673241D1*
X5787487Y9679036D1*
X5794731Y9684899D1*
X5802059Y9687796D1*
X5812925D1*
Y9673241D1*
X5860263Y9393837D2*
Y9364727D1*
X5827497Y9361829D1*
X5831119Y9364727D1*
X5834825Y9373487D1*
Y9382179D1*
X5831119Y9390939D1*
X5823875Y9396802D1*
X5812925Y9399699D1*
X5805681D1*
X5794731Y9396802D1*
X5787403Y9390939D1*
X5783781Y9382179D1*
Y9373487D1*
X5787403Y9364727D1*
X5791109Y9361829D1*
X5798353Y9358864D1*
X5860347Y9426366D2*
X5783781Y9449681D1*
X5860347Y9472996D1*
X5820253Y11360744D2*
Y11387024D1*
X5823875Y11395717D1*
X5827581Y11398682D1*
X5834825Y11401579D1*
X5845775D1*
X5853019Y11398682D1*
X5856725Y11395717D1*
X5860347Y11387024D1*
Y11360744D1*
X5783781D1*
X5860347Y11466116D2*
Y11428246D1*
X5783781D1*
Y11466116D1*
X5823875Y11428246D2*
Y11451561D1*
X5860347Y11111762D2*
Y11152597D1*
X5783781Y11111762D1*
Y11152597D1*
X5860347Y11220098D2*
X5783781D1*
X5860347Y11179263D1*
X5783781D1*
X5860347Y10859262D2*
Y10900097D1*
X5783781Y10859262D1*
Y10900097D1*
X5820253Y10926763D2*
Y10953043D1*
X5823875Y10961736D1*
X5827581Y10964701D1*
X5834825Y10967598D1*
X5845775D1*
X5853019Y10964701D1*
X5856725Y10961736D1*
X5860347Y10953043D1*
Y10926763D1*
X5783781D1*
X5860347Y10609262D2*
X5783781D1*
Y10635542D1*
X5787487Y10644302D1*
X5791109Y10647199D1*
X5798353Y10650097D1*
X5809303D1*
X5816631Y10647199D1*
X5820253Y10644302D1*
X5823875Y10635542D1*
X5827581Y10644302D1*
X5831203Y10647199D1*
X5838447Y10650097D1*
X5845775D1*
X5853019Y10647199D1*
X5856725Y10644302D1*
X5860347Y10635542D1*
Y10609262D1*
X5823875D2*
Y10635542D1*
X5860347Y10717598D2*
X5783781D1*
X5860347Y10676763D1*
X5783781D1*
X4045733Y4084737D2*
Y4161303D1*
X4072013D1*
X4080773Y4157597D1*
X4083671Y4153975D1*
X4086568Y4146731D1*
Y4135781D1*
X4083671Y4128453D1*
X4080773Y4124831D1*
X4072013Y4121209D1*
X4080773Y4117503D1*
X4083671Y4113881D1*
X4086568Y4106637D1*
Y4099309D1*
X4083671Y4092065D1*
X4080773Y4088359D1*
X4072013Y4084737D1*
X4045733D1*
Y4121209D2*
X4072013D1*
X4113235Y4123062D2*
X4146927D1*
X3690333Y4084737D2*
Y4161303D1*
X3716613D1*
X3725373Y4157597D1*
X3728270Y4153975D1*
X3731168Y4146731D1*
Y4135781D1*
X3728270Y4128453D1*
X3725373Y4124831D1*
X3716613Y4121209D1*
X3725373Y4117503D1*
X3728270Y4113881D1*
X3731168Y4106637D1*
Y4099309D1*
X3728270Y4092065D1*
X3725373Y4088359D1*
X3716613Y4084737D1*
X3690333D1*
Y4121209D2*
X3716613D1*
X3784047Y4090254D2*
Y4155870D1*
X3757835Y4123104D2*
X3810327D1*
X3247499Y4161303D2*
X3224117Y4084737D1*
X3200802Y4161303D1*
X3209562Y4135781D2*
X3238739D1*
X3274166Y4123062D2*
X3307858D1*
X2892099Y4161303D2*
X2868717Y4084737D1*
X2845402Y4161303D1*
X2854162Y4135781D2*
X2883339D1*
X2944978Y4090254D2*
Y4155870D1*
X2918766Y4123104D2*
X2971258D1*
X2956597Y15257370D2*
Y15180804D1*
X2930317D1*
X2921557Y15184510D1*
X2918659Y15188132D1*
X2915762Y15195376D1*
Y15206326D1*
X2918659Y15213654D1*
X2921557Y15217276D1*
X2930317Y15220898D1*
X2921557Y15224604D1*
X2918659Y15228226D1*
X2915762Y15235470D1*
Y15242798D1*
X2918659Y15250042D1*
X2921557Y15253748D1*
X2930317Y15257370D1*
X2956597D1*
Y15220898D2*
X2930317D1*
X2889095Y15219045D2*
X2855403D1*
X3311997Y15257370D2*
Y15180804D1*
X3285717D1*
X3276957Y15184510D1*
X3274060Y15188132D1*
X3271162Y15195376D1*
Y15206326D1*
X3274060Y15213654D1*
X3276957Y15217276D1*
X3285717Y15220898D1*
X3276957Y15224604D1*
X3274060Y15228226D1*
X3271162Y15235470D1*
Y15242798D1*
X3274060Y15250042D1*
X3276957Y15253748D1*
X3285717Y15257370D1*
X3311997D1*
Y15220898D2*
X3285717D1*
X3218283Y15251852D2*
Y15186237D1*
X3244495Y15219002D2*
X3192003D1*
X3754831Y15180804D2*
X3778213Y15257370D1*
X3801528Y15180804D1*
X3792768Y15206326D2*
X3763591D1*
X3728164Y15219045D2*
X3694472D1*
X4110231Y15180804D2*
X4133613Y15257370D1*
X4156928Y15180804D1*
X4148168Y15206326D2*
X4118991D1*
X4057352Y15251852D2*
Y15186237D1*
X4083564Y15219002D2*
X4031072D1*
X2523831Y16386384D2*
D89*
X2533489Y16382521D1*
X2543260Y16374704D1*
X2548089Y16366977D1*
Y16351434D1*
X2543260Y16343617D1*
X2533489Y16335891D1*
X2523831Y16331937D1*
X2509231Y16328074D1*
X2484860D1*
X2470372Y16331937D1*
X2460602Y16335891D1*
X2450943Y16343617D1*
X2446002Y16351434D1*
Y16366977D1*
X2450943Y16374704D1*
X2460602Y16382521D1*
X2470372Y16386384D1*
X2484860D1*
Y16366977D1*
X2548089Y16476387D2*
X2446002D1*
X2548089Y16421940D1*
X2446002D1*
X2548089Y16511942D2*
X2446002D1*
Y16539166D1*
X2450943Y16550846D1*
X2460602Y16558662D1*
X2470372Y16562526D1*
X2484860Y16566389D1*
X2509231D1*
X2523831Y16562526D1*
X2533489Y16558662D1*
X2543260Y16550846D1*
X2548089Y16539166D1*
Y16511942D1*
X2152089Y16401170D2*
X2050002Y16432256D1*
X2152089Y16463343D1*
X2144733Y16533849D2*
X2057245D1*
X2100933Y16498899D2*
Y16568889D1*
X4768922Y16709801D2*
D88*
Y16775417D1*
X4742710Y16742651D2*
X4795202D1*
X4821869Y16718940D2*
X4827732Y16715234D1*
X4836492Y16704368D1*
Y16780849D1*
X4866123Y16722562D2*
Y16718940D1*
X4869021Y16711612D1*
X4871918Y16707990D1*
X4877781Y16704368D1*
X4889438D1*
X4895233Y16707990D1*
X4898131Y16711612D1*
X4901096Y16718940D1*
Y16726184D1*
X4898131Y16733512D1*
X4892336Y16744378D1*
X4863158Y16780849D1*
X4903993D1*
X4930660Y16704284D2*
X4953975Y16780849D1*
X4977290Y16704284D1*
X4484365Y16722478D2*
X4481467Y16715234D1*
X4475605Y16707906D1*
X4469809Y16704284D1*
X4458152D1*
X4452289Y16707906D1*
X4446494Y16715234D1*
X4443529Y16722478D1*
X4440632Y16733428D1*
Y16751706D1*
X4443529Y16762571D1*
X4446494Y16769899D1*
X4452289Y16777143D1*
X4458152Y16780849D1*
X4469809D1*
X4475605Y16777143D1*
X4481467Y16769899D1*
X4484365Y16762571D1*
Y16751706D1*
X4469809D1*
X4551866Y16704284D2*
Y16780849D1*
X4511031Y16704284D1*
Y16780849D1*
X4578533Y16704284D2*
Y16780849D1*
X4598951D1*
X4607711Y16777143D1*
X4613573Y16769899D1*
X4616471Y16762571D1*
X4619368Y16751706D1*
Y16733428D1*
X4616471Y16722478D1*
X4613573Y16715234D1*
X4607711Y16707906D1*
X4598951Y16704284D1*
X4578533D1*
X5187567Y1678333D2*
X5111001D1*
Y1704613D1*
X5114707Y1713373D1*
X5118329Y1716271D1*
X5125573Y1719168D1*
X5136523D1*
X5143851Y1716271D1*
X5147473Y1713373D1*
X5151095Y1704613D1*
X5154801Y1713373D1*
X5158423Y1716271D1*
X5165667Y1719168D1*
X5172995D1*
X5180239Y1716271D1*
X5183945Y1713373D1*
X5187567Y1704613D1*
Y1678333D1*
X5151095D2*
Y1704613D1*
X5172911Y1745835D2*
X5176617Y1751698D1*
X5187483Y1760458D1*
X5111001D1*
X4187567Y1678333D2*
X4111001D1*
Y1704613D1*
X4114707Y1713373D1*
X4118329Y1716271D1*
X4125573Y1719168D1*
X4136523D1*
X4143851Y1716271D1*
X4147473Y1713373D1*
X4151095Y1704613D1*
X4154801Y1713373D1*
X4158423Y1716271D1*
X4165667Y1719168D1*
X4172995D1*
X4180239Y1716271D1*
X4183945Y1713373D1*
X4187567Y1704613D1*
Y1678333D1*
X4151095D2*
Y1704613D1*
X4172911Y1745835D2*
X4176617Y1751698D1*
X4187483Y1760458D1*
X4111001D1*
X4172911Y1787124D2*
X4176617Y1792987D1*
X4187483Y1801747D1*
X4111001D1*
X3887567Y1678333D2*
X3811001D1*
Y1704613D1*
X3814707Y1713373D1*
X3818329Y1716271D1*
X3825573Y1719168D1*
X3836523D1*
X3843851Y1716271D1*
X3847473Y1713373D1*
X3851095Y1704613D1*
X3854801Y1713373D1*
X3858423Y1716271D1*
X3865667Y1719168D1*
X3872995D1*
X3880239Y1716271D1*
X3883945Y1713373D1*
X3887567Y1704613D1*
Y1678333D1*
X3851095D2*
Y1704613D1*
X3872911Y1745835D2*
X3876617Y1751698D1*
X3887483Y1760458D1*
X3811001D1*
X3869289Y1790089D2*
X3872911D1*
X3880239Y1792987D1*
X3883861Y1795884D1*
X3887483Y1801747D1*
Y1813404D1*
X3883861Y1819199D1*
X3880239Y1822097D1*
X3872911Y1825062D1*
X3865667D1*
X3858339Y1822097D1*
X3847473Y1816302D1*
X3811001Y1787124D1*
Y1827959D1*
X1887567Y1678333D2*
X1811001D1*
Y1704613D1*
X1814707Y1713373D1*
X1818329Y1716271D1*
X1825573Y1719168D1*
X1836523D1*
X1843851Y1716271D1*
X1847473Y1713373D1*
X1851095Y1704613D1*
X1854801Y1713373D1*
X1858423Y1716271D1*
X1865667Y1719168D1*
X1872995D1*
X1880239Y1716271D1*
X1883945Y1713373D1*
X1887567Y1704613D1*
Y1678333D1*
X1851095D2*
Y1704613D1*
X1887483Y1751698D2*
Y1783705D1*
X1858339Y1766253D1*
Y1775013D1*
X1854717Y1780808D1*
X1851095Y1783705D1*
X1840145Y1786670D1*
X1832901D1*
X1821951Y1783705D1*
X1814623Y1777910D1*
X1811001Y1769150D1*
Y1760390D1*
X1814623Y1751698D1*
X1818329Y1748800D1*
X1825573Y1745835D1*
X1869289Y1816302D2*
X1872911D1*
X1880239Y1819199D1*
X1883861Y1822097D1*
X1887483Y1827959D1*
Y1839617D1*
X1883861Y1845412D1*
X1880239Y1848309D1*
X1872911Y1851274D1*
X1865667D1*
X1858339Y1848309D1*
X1847473Y1842514D1*
X1811001Y1813337D1*
Y1854172D1*
M02*
