M48
METRIC,0000.00
T01C0.25
T02C0.3
T03C0.5
T04C0.8
T05C0.9
T06C1.75
T07C1.76
T08C3.2
T09C4.3
%
T01
X+002517Y+013490
X+002555Y+013452
X+002517Y+013415
X+002555Y+013377
X+002517Y+013340
X+002555Y+013302
X+002517Y+013265
X+002555Y+013227
X+002592Y+013265
X+002630Y+013302
X+002592Y+013340
X+002630Y+013377
X+002592Y+013415
X+002630Y+013452
X+002592Y+013490
X+002667Y+013490
X+002705Y+013452
X+002742Y+013490
X+002742Y+013415
X+002705Y+013377
X+002742Y+013340
X+002705Y+013302
X+002742Y+013265
X+002705Y+013227
X+002742Y+013190
X+002667Y+013190
X+002630Y+013227
X+002592Y+013190
X+002517Y+013190
X+002480Y+013227
X+002442Y+013265
X+002480Y+013302
X+002442Y+013340
X+002480Y+013377
X+002442Y+013415
X+002480Y+013452
X+002442Y+013490
X+002667Y+013415
X+002667Y+013340
X+002667Y+013265
X+002855Y+013327
X+002992Y+013340
X+003030Y+013377
X+003067Y+013415
X+003105Y+013452
X+003067Y+013490
X+003030Y+013452
X+002992Y+013490
X+002992Y+013415
X+003067Y+013340
X+003105Y+013377
X+003142Y+013415
X+003180Y+013452
X+003142Y+013490
X+003217Y+013490
X+003255Y+013452
X+003292Y+013490
X+003292Y+013415
X+003255Y+013377
X+003292Y+013340
X+003255Y+013302
X+003292Y+013265
X+003255Y+013227
X+003292Y+013190
X+003217Y+013190
X+003180Y+013227
X+003142Y+013265
X+003180Y+013302
X+003142Y+013340
X+003180Y+013377
X+003217Y+013415
X+003217Y+013340
X+003217Y+013265
X+003142Y+013190
X+003105Y+013227
X+003067Y+013265
X+003105Y+013302
X+003030Y+013302
X+002992Y+013265
X+003030Y+013227
X+003067Y+013190
X+002992Y+013190
X+002980Y+012902
X+002980Y+012827
X+002980Y+012752
X+002980Y+012677
X+002880Y+012677
X+002880Y+012752
X+002880Y+012827
X+002880Y+012902
X+002767Y+012640
X+002692Y+012640
X+002617Y+012640
X+002542Y+012640
X+002430Y+012677
X+002430Y+012752
X+002430Y+012827
X+002430Y+012902
X+002442Y+013190
X+002192Y+013615
X+002117Y+013615
X+002042Y+013615
X+001967Y+013615
X+001892Y+013615
X+001892Y+013765
X+001967Y+013765
X+002042Y+013765
X+002117Y+013765
X+002192Y+013765
X+002405Y+013865
X+002455Y+013827
X+002455Y+013902
X+002405Y+013940
X+002455Y+013977
X+002405Y+014015
X+002455Y+014052
X+002405Y+014090
X+002455Y+014127
X+002405Y+014165
X+002662Y+014415
X+002880Y+014127
X+002930Y+014090
X+002880Y+014052
X+002930Y+014015
X+002880Y+013977
X+002930Y+013940
X+002880Y+013902
X+002930Y+013865
X+002880Y+013827
X+002980Y+013827
X+002980Y+013902
X+002980Y+013977
X+002980Y+014052
X+002980Y+014127
X+002930Y+014165
X+003061Y+014415
X+003430Y+014127
X+003480Y+014090
X+003430Y+014052
X+003480Y+014015
X+003430Y+013977
X+003480Y+013940
X+003430Y+013902
X+003480Y+013865
X+003430Y+013827
X+003530Y+013827
X+003530Y+013902
X+003530Y+013977
X+003530Y+014052
X+003530Y+014127
X+003480Y+014165
X+003905Y+014415
X+004030Y+014165
X+003980Y+014127
X+004030Y+014090
X+003980Y+014052
X+004030Y+014015
X+003980Y+013977
X+004030Y+013940
X+003980Y+013902
X+004030Y+013865
X+003980Y+013827
X+004080Y+013827
X+004080Y+013902
X+004080Y+013977
X+004080Y+014052
X+004080Y+014127
X+004299Y+014415
X+004505Y+014127
X+004555Y+014090
X+004505Y+014052
X+004555Y+014015
X+004505Y+013977
X+004555Y+013940
X+004505Y+013902
X+004555Y+013865
X+004505Y+013827
X+004767Y+013765
X+004842Y+013765
X+004917Y+013765
X+004992Y+013765
X+005067Y+013765
X+005067Y+013615
X+004992Y+013615
X+004917Y+013615
X+004842Y+013615
X+004767Y+013615
X+004505Y+013327
X+004392Y+013340
X+004355Y+013377
X+004392Y+013415
X+004355Y+013452
X+004392Y+013490
X+004317Y+013490
X+004280Y+013452
X+004242Y+013490
X+004205Y+013452
X+004167Y+013490
X+004130Y+013452
X+004167Y+013415
X+004205Y+013377
X+004167Y+013340
X+004205Y+013302
X+004167Y+013265
X+004205Y+013227
X+004242Y+013265
X+004280Y+013302
X+004242Y+013340
X+004280Y+013377
X+004242Y+013415
X+004317Y+013415
X+004317Y+013340
X+004355Y+013302
X+004392Y+013265
X+004355Y+013227
X+004392Y+013190
X+004317Y+013190
X+004280Y+013227
X+004242Y+013190
X+004167Y+013190
X+004130Y+013227
X+004092Y+013265
X+004130Y+013302
X+004092Y+013340
X+004130Y+013377
X+004092Y+013415
X+004092Y+013490
X+003955Y+013327
X+003842Y+013340
X+003805Y+013377
X+003842Y+013415
X+003805Y+013452
X+003842Y+013490
X+003767Y+013490
X+003730Y+013452
X+003692Y+013490
X+003655Y+013452
X+003617Y+013490
X+003580Y+013452
X+003617Y+013415
X+003655Y+013377
X+003617Y+013340
X+003655Y+013302
X+003617Y+013265
X+003655Y+013227
X+003692Y+013265
X+003730Y+013302
X+003692Y+013340
X+003730Y+013377
X+003692Y+013415
X+003767Y+013415
X+003767Y+013340
X+003805Y+013302
X+003842Y+013265
X+003805Y+013227
X+003842Y+013190
X+003767Y+013190
X+003730Y+013227
X+003692Y+013190
X+003617Y+013190
X+003580Y+013227
X+003542Y+013265
X+003580Y+013302
X+003542Y+013340
X+003580Y+013377
X+003542Y+013415
X+003542Y+013490
X+003405Y+013327
X+003542Y+013190
X+003767Y+013265
X+004092Y+013190
X+004317Y+013265
X+004530Y+012902
X+004530Y+012827
X+004530Y+012752
X+004530Y+012677
X+004417Y+012640
X+004342Y+012640
X+004267Y+012640
X+004192Y+012640
X+004080Y+012677
X+004080Y+012752
X+004080Y+012827
X+004080Y+012902
X+003980Y+012902
X+003980Y+012840
X+003980Y+012752
X+003980Y+012677
X+003867Y+012640
X+003792Y+012640
X+003717Y+012640
X+003642Y+012640
X+003530Y+012677
X+003530Y+012752
X+003530Y+012827
X+003530Y+012902
X+003430Y+012902
X+003430Y+012827
X+003430Y+012752
X+003430Y+012677
X+003317Y+012640
X+003242Y+012640
X+003167Y+012640
X+003092Y+012640
X+003117Y+012327
X+003155Y+012265
X+003117Y+012202
X+003080Y+012265
X+003042Y+012327
X+003005Y+012265
X+003042Y+012202
X+002805Y+012140
X+002655Y+012140
X+002517Y+012140
X+002380Y+012140
X+002230Y+012140
X+002167Y+012265
X+002167Y+012340
X+002167Y+012415
X+002167Y+012490
X+002080Y+012490
X+002080Y+012415
X+002080Y+012340
X+002080Y+012265
X+002080Y+012190
X+002080Y+012115
X+002080Y+012040
X+002080Y+011965
X+001992Y+011965
X+001992Y+012040
X+001992Y+012115
X+001992Y+012190
X+001992Y+012265
X+001992Y+012340
X+001992Y+012415
X+001992Y+012490
X+002230Y+011915
X+002230Y+011802
X+002230Y+011727
X+002155Y+011727
X+002155Y+011802
X+002305Y+011802
X+002305Y+011727
X+002380Y+011727
X+002380Y+011802
X+002380Y+011915
X+002517Y+011915
X+002655Y+011915
X+002655Y+011802
X+002805Y+011802
X+002805Y+011915
X+003067Y+011909
X+003067Y+011577
X+003230Y+011615
X+003342Y+011552
X+003342Y+011465
X+003330Y+011240
X+003205Y+011152
X+003067Y+011078
X+002842Y+011240
X+002767Y+011240
X+002692Y+011240
X+002617Y+011240
X+002417Y+011240
X+002342Y+011240
X+002267Y+011240
X+002192Y+011240
X+002655Y+010890
X+002705Y+010890
X+002705Y+010840
X+002655Y+010840
X+002530Y+010515
X+002605Y+010340
X+002742Y+010477
X+003230Y+010465
X+003292Y+010527
X+003355Y+010590
X+003417Y+010652
X+003355Y+010715
X+003417Y+010777
X+003355Y+010840
X+003292Y+010777
X+003230Y+010840
X+003230Y+010715
X+003292Y+010652
X+003230Y+010590
X+003355Y+010465
X+003417Y+010527
X+003480Y+010590
X+003542Y+010652
X+003480Y+010715
X+003542Y+010777
X+003480Y+010840
X+003605Y+010840
X+003667Y+010777
X+003730Y+010840
X+003730Y+010715
X+003667Y+010652
X+003730Y+010590
X+003667Y+010527
X+003730Y+010465
X+003805Y+010465
X+003730Y+010340
X+003667Y+010402
X+003605Y+010465
X+003542Y+010527
X+003480Y+010465
X+003542Y+010402
X+003480Y+010340
X+003417Y+010402
X+003355Y+010340
X+003292Y+010402
X+003230Y+010340
X+003455Y+010065
X+003405Y+010015
X+003392Y+009852
X+003442Y+009790
X+003255Y+009890
X+003205Y+009940
X+003655Y+010065
X+003605Y+010340
X+003605Y+010590
X+003605Y+010715
X+003755Y+011152
X+003630Y+011240
X+003617Y+011465
X+003617Y+011552
X+003730Y+011615
X+003892Y+011577
X+003892Y+011909
X+003892Y+012140
X+003867Y+012290
X+003705Y+012265
X+003667Y+012327
X+003630Y+012265
X+003592Y+012327
X+003555Y+012265
X+003592Y+012202
X+003667Y+012202
X+003317Y+012190
X+003317Y+012290
X+002767Y+012290
X+004155Y+012140
X+004305Y+012140
X+004455Y+012140
X+004580Y+012140
X+004730Y+012140
X+004792Y+012265
X+004792Y+012340
X+004792Y+012415
X+004792Y+012490
X+004880Y+012490
X+004880Y+012415
X+004880Y+012340
X+004880Y+012265
X+004880Y+012190
X+004880Y+012115
X+004880Y+012040
X+004880Y+011965
X+004967Y+011965
X+004967Y+012040
X+004967Y+012115
X+004967Y+012190
X+004967Y+012265
X+004967Y+012340
X+004967Y+012415
X+004967Y+012490
X+004730Y+011915
X+004730Y+011802
X+004730Y+011727
X+004655Y+011727
X+004580Y+011727
X+004580Y+011802
X+004655Y+011802
X+004580Y+011915
X+004455Y+011915
X+004305Y+011915
X+004305Y+011802
X+004155Y+011802
X+004155Y+011915
X+004280Y+012290
X+004805Y+011802
X+004805Y+011727
X+004774Y+011240
X+004699Y+011240
X+004624Y+011240
X+004549Y+011240
X+004342Y+011240
X+004267Y+011240
X+004192Y+011240
X+004117Y+011240
X+003892Y+011077
X+004130Y+010415
X+004180Y+010277
X+004177Y+010140
X+004355Y+010415
X+004830Y+010515
X+004830Y+010565
X+004880Y+010565
X+004880Y+010515
X+004817Y+009765
X+004876Y+009675
X+004839Y+009600
X+005022Y+009529
X+005342Y+008902
X+004905Y+008540
X+005205Y+008340
X+005205Y+008140
X+005205Y+007940
X+004774Y+008040
X+004699Y+008040
X+004624Y+008040
X+004549Y+008040
X+004342Y+008040
X+004267Y+008040
X+004192Y+008040
X+004117Y+008040
X+003892Y+008190
X+003730Y+008152
X+003630Y+008040
X+003617Y+007815
X+003617Y+007727
X+003717Y+007677
X+003892Y+007702
X+003892Y+007371
X+004155Y+007365
X+004155Y+007477
X+004305Y+007477
X+004305Y+007365
X+004455Y+007365
X+004580Y+007365
X+004580Y+007477
X+004655Y+007477
X+004730Y+007477
X+004805Y+007477
X+004805Y+007552
X+004730Y+007552
X+004655Y+007552
X+004580Y+007552
X+004730Y+007365
X+004867Y+007315
X+004867Y+007240
X+004867Y+007165
X+004867Y+007090
X+004867Y+007015
X+004867Y+006940
X+004867Y+006865
X+004867Y+006790
X+004955Y+006790
X+004955Y+006865
X+004955Y+006940
X+004955Y+007015
X+004955Y+007090
X+004955Y+007165
X+004955Y+007240
X+004955Y+007315
X+004730Y+007140
X+004780Y+007015
X+004780Y+006940
X+004780Y+006865
X+004780Y+006790
X+004542Y+006615
X+004542Y+006540
X+004542Y+006465
X+004542Y+006390
X+004430Y+006652
X+004355Y+006652
X+004280Y+006652
X+004205Y+006652
X+004092Y+006615
X+004092Y+006540
X+004092Y+006465
X+004092Y+006390
X+003980Y+006390
X+003980Y+006465
X+003980Y+006540
X+003980Y+006615
X+003867Y+006652
X+003792Y+006652
X+003717Y+006652
X+003642Y+006652
X+003530Y+006615
X+003530Y+006540
X+003530Y+006465
X+003530Y+006390
X+003430Y+006390
X+003430Y+006465
X+003430Y+006540
X+003430Y+006615
X+003317Y+006652
X+003242Y+006652
X+003167Y+006652
X+003092Y+006652
X+002980Y+006615
X+002980Y+006540
X+002980Y+006465
X+002980Y+006390
X+002880Y+006390
X+002880Y+006465
X+002880Y+006540
X+002880Y+006615
X+002767Y+006652
X+002692Y+006652
X+002617Y+006652
X+002542Y+006652
X+002430Y+006615
X+002430Y+006540
X+002430Y+006465
X+002430Y+006390
X+002567Y+006090
X+002605Y+006052
X+002642Y+006090
X+002680Y+006052
X+002642Y+006015
X+002680Y+005977
X+002642Y+005940
X+002680Y+005902
X+002642Y+005865
X+002680Y+005827
X+002717Y+005865
X+002755Y+005902
X+002717Y+005940
X+002755Y+005977
X+002717Y+006015
X+002755Y+006052
X+002717Y+006090
X+002792Y+006090
X+002830Y+006052
X+002867Y+006090
X+002867Y+006015
X+002830Y+005977
X+002867Y+005940
X+002830Y+005902
X+002867Y+005865
X+002830Y+005827
X+002867Y+005790
X+002792Y+005790
X+002755Y+005827
X+002717Y+005790
X+002642Y+005790
X+002605Y+005827
X+002567Y+005865
X+002605Y+005902
X+002567Y+005940
X+002605Y+005977
X+002567Y+006015
X+002455Y+005952
X+002567Y+005790
X+002792Y+005865
X+002792Y+005940
X+002792Y+006015
X+003005Y+005952
X+003117Y+005940
X+003155Y+005977
X+003192Y+006015
X+003230Y+006052
X+003192Y+006090
X+003155Y+006052
X+003117Y+006090
X+003117Y+006015
X+003192Y+005940
X+003230Y+005977
X+003267Y+006015
X+003305Y+006052
X+003267Y+006090
X+003342Y+006090
X+003380Y+006052
X+003417Y+006090
X+003417Y+006015
X+003380Y+005977
X+003417Y+005940
X+003380Y+005902
X+003417Y+005865
X+003380Y+005827
X+003417Y+005790
X+003342Y+005790
X+003305Y+005827
X+003267Y+005865
X+003305Y+005902
X+003267Y+005940
X+003305Y+005977
X+003342Y+006015
X+003342Y+005940
X+003342Y+005865
X+003267Y+005790
X+003230Y+005827
X+003192Y+005865
X+003230Y+005902
X+003155Y+005902
X+003117Y+005865
X+003155Y+005827
X+003192Y+005790
X+003117Y+005790
X+002980Y+005465
X+002930Y+005427
X+002880Y+005465
X+002880Y+005390
X+002930Y+005352
X+002880Y+005315
X+002930Y+005277
X+002980Y+005240
X+002930Y+005202
X+002880Y+005240
X+002880Y+005165
X+002930Y+005127
X+002980Y+005165
X+002980Y+005315
X+002980Y+005390
X+003430Y+005390
X+003480Y+005427
X+003430Y+005465
X+003530Y+005465
X+003530Y+005390
X+003480Y+005352
X+003430Y+005315
X+003480Y+005277
X+003530Y+005315
X+003530Y+005240
X+003480Y+005202
X+003430Y+005165
X+003480Y+005127
X+003530Y+005165
X+003430Y+005240
X+003061Y+004865
X+002661Y+004865
X+002455Y+005165
X+002405Y+005127
X+002405Y+005202
X+002455Y+005240
X+002405Y+005277
X+002455Y+005315
X+002405Y+005352
X+002455Y+005390
X+002405Y+005427
X+002455Y+005465
X+002192Y+005502
X+002117Y+005502
X+002042Y+005502
X+001967Y+005502
X+001892Y+005502
X+001892Y+005652
X+001967Y+005652
X+002042Y+005652
X+002117Y+005652
X+002192Y+005652
X+001442Y+005665
X+001442Y+005740
X+001367Y+005740
X+001367Y+005665
X+001367Y+005590
X+001442Y+005590
X+001442Y+005515
X+001442Y+005440
X+001367Y+005440
X+001367Y+005515
X+002017Y+006790
X+002017Y+006865
X+002017Y+006940
X+002017Y+007015
X+002017Y+007090
X+002017Y+007165
X+002017Y+007240
X+002017Y+007315
X+002105Y+007315
X+002105Y+007240
X+002105Y+007165
X+002105Y+007090
X+002105Y+007015
X+002105Y+006940
X+002105Y+006865
X+002105Y+006790
X+002192Y+006790
X+002192Y+006865
X+002192Y+006940
X+002192Y+007015
X+002230Y+007140
X+002380Y+007140
X+002517Y+007140
X+002655Y+007140
X+002805Y+007140
X+002680Y+006990
X+002655Y+007365
X+002655Y+007484
X+002805Y+007484
X+002805Y+007365
X+003067Y+007371
X+003067Y+007140
X+003092Y+006990
X+003255Y+007015
X+003292Y+006952
X+003330Y+007015
X+003367Y+006952
X+003405Y+007015
X+003367Y+007077
X+003292Y+007077
X+003642Y+007090
X+003642Y+006990
X+003805Y+007015
X+003842Y+007077
X+003880Y+007015
X+003917Y+007077
X+003955Y+007015
X+003917Y+006952
X+003842Y+006952
X+004192Y+006990
X+004155Y+007140
X+004305Y+007140
X+004455Y+007140
X+004567Y+007140
X+004517Y+006090
X+004480Y+006052
X+004517Y+006015
X+004480Y+005977
X+004517Y+005940
X+004480Y+005902
X+004517Y+005865
X+004480Y+005827
X+004517Y+005790
X+004442Y+005790
X+004405Y+005827
X+004367Y+005865
X+004405Y+005902
X+004367Y+005940
X+004405Y+005977
X+004367Y+006015
X+004330Y+006052
X+004292Y+006090
X+004255Y+006052
X+004292Y+006015
X+004330Y+005977
X+004292Y+005940
X+004330Y+005902
X+004292Y+005865
X+004330Y+005827
X+004367Y+005790
X+004292Y+005790
X+004255Y+005827
X+004217Y+005865
X+004255Y+005902
X+004217Y+005940
X+004255Y+005977
X+004217Y+006015
X+004217Y+006090
X+004367Y+006090
X+004405Y+006052
X+004442Y+006090
X+004442Y+006015
X+004442Y+005940
X+004442Y+005865
X+004217Y+005790
X+004105Y+005952
X+003967Y+005940
X+003930Y+005977
X+003967Y+006015
X+003930Y+006052
X+003967Y+006090
X+003892Y+006090
X+003855Y+006052
X+003817Y+006090
X+003780Y+006052
X+003742Y+006090
X+003705Y+006052
X+003742Y+006015
X+003780Y+005977
X+003742Y+005940
X+003780Y+005902
X+003742Y+005865
X+003780Y+005827
X+003817Y+005865
X+003855Y+005902
X+003817Y+005940
X+003855Y+005977
X+003817Y+006015
X+003892Y+006015
X+003892Y+005940
X+003930Y+005902
X+003967Y+005865
X+003930Y+005827
X+003967Y+005790
X+003892Y+005790
X+003855Y+005827
X+003817Y+005790
X+003742Y+005790
X+003705Y+005827
X+003667Y+005865
X+003705Y+005902
X+003667Y+005940
X+003705Y+005977
X+003667Y+006015
X+003667Y+006090
X+003555Y+005952
X+003667Y+005790
X+003892Y+005865
X+003980Y+005465
X+004030Y+005427
X+004080Y+005390
X+004030Y+005352
X+003980Y+005315
X+004030Y+005277
X+004080Y+005240
X+004030Y+005202
X+003980Y+005165
X+004030Y+005127
X+004080Y+005165
X+003980Y+005240
X+004080Y+005315
X+003980Y+005390
X+004080Y+005465
X+004505Y+005465
X+004555Y+005427
X+004505Y+005390
X+004555Y+005352
X+004505Y+005315
X+004555Y+005277
X+004505Y+005240
X+004555Y+005202
X+004505Y+005165
X+004555Y+005127
X+004298Y+004865
X+003905Y+004865
X+004767Y+005502
X+004842Y+005502
X+004917Y+005502
X+004992Y+005502
X+005067Y+005502
X+005067Y+005652
X+004992Y+005652
X+004917Y+005652
X+004842Y+005652
X+004767Y+005652
X+005542Y+005665
X+005617Y+005665
X+005617Y+005740
X+005542Y+005740
X+005542Y+005590
X+005617Y+005590
X+005617Y+005515
X+005617Y+005440
X+005542Y+005440
X+005542Y+005515
X+005370Y+002940
X+005497Y+002890
X+005367Y+002427
X+004735Y+002602
X+004330Y+001815
X+004280Y+001765
X+004230Y+001815
X+004230Y+001715
X+004280Y+001665
X+004330Y+001715
X+004330Y+001615
X+004230Y+001615
X+003605Y+001827
X+003505Y+001965
X+003580Y+002490
X+003430Y+002490
X+003280Y+002490
X+003130Y+002490
X+003035Y+002602
X+003162Y+003815
X+003289Y+003815
X+003416Y+003814
X+003543Y+003814
X+001970Y+003815
X+001843Y+003815
X+001716Y+003815
X+001589Y+003815
X+001462Y+003815
X+001217Y+002940
X+001335Y+002615
X+001467Y+002502
X+001617Y+002490
X+001716Y+002615
X+001355Y+007040
X+001355Y+007115
X+001355Y+007190
X+001355Y+007265
X+001417Y+007327
X+002155Y+007490
X+002230Y+007490
X+002305Y+007490
X+002380Y+007490
X+002380Y+007577
X+002305Y+007577
X+002230Y+007577
X+002155Y+007577
X+002230Y+007365
X+002380Y+007365
X+002517Y+007365
X+003067Y+007702
X+003242Y+007690
X+003342Y+007727
X+003342Y+007815
X+003330Y+008040
X+003217Y+008140
X+003067Y+008190
X+002842Y+008040
X+002767Y+008040
X+002692Y+008040
X+002617Y+008040
X+002492Y+008140
X+002542Y+008190
X+002417Y+008040
X+002342Y+008040
X+002267Y+008040
X+002192Y+008040
X+001655Y+008340
X+001655Y+008540
X+001655Y+008740
X+002230Y+008702
X+002280Y+008752
X+002330Y+008802
X+002380Y+008852
X+002430Y+008965
X+002955Y+008940
X+002955Y+008865
X+002955Y+008765
X+003167Y+008815
X+003230Y+008815
X+003292Y+008752
X+003355Y+008815
X+003417Y+008752
X+003480Y+008690
X+003542Y+008752
X+003605Y+008690
X+003667Y+008752
X+003730Y+008690
X+003667Y+008627
X+003605Y+008565
X+003667Y+008502
X+003730Y+008565
X+003730Y+008440
X+003605Y+008440
X+003542Y+008502
X+003480Y+008565
X+003417Y+008502
X+003355Y+008440
X+003292Y+008502
X+003230Y+008440
X+003230Y+008565
X+003292Y+008627
X+003355Y+008565
X+003417Y+008627
X+003355Y+008690
X+003230Y+008690
X+003292Y+008877
X+003230Y+008940
X+003355Y+008940
X+003417Y+008877
X+003480Y+008815
X+003542Y+008877
X+003605Y+008940
X+003667Y+008877
X+003730Y+008815
X+003730Y+008940
X+003605Y+008815
X+003480Y+008940
X+003555Y+009202
X+003605Y+009252
X+003655Y+009315
X+003705Y+009252
X+003755Y+009315
X+003830Y+009315
X+003992Y+009452
X+004177Y+009508
X+004230Y+009577
X+004242Y+009290
X+003980Y+009127
X+004217Y+008802
X+004348Y+008940
X+004442Y+008702
X+004317Y+008440
X+004317Y+008390
X+004267Y+008390
X+004267Y+008440
X+003542Y+008627
X+003480Y+008440
X+003305Y+009215
X+003505Y+009252
X+003530Y+009477
X+003605Y+009477
X+002892Y+009377
X+002105Y+009615
X+002043Y+009516
X+001873Y+009515
X+002005Y+009715
X+001180Y+008140
X+001367Y+013540
X+001367Y+013615
X+001442Y+013615
X+001442Y+013690
X+001442Y+013765
X+001442Y+013840
X+001367Y+013840
X+001367Y+013765
X+001367Y+013690
X+001442Y+013540
X+004555Y+014165
X+005542Y+013840
X+005542Y+013765
X+005617Y+013765
X+005617Y+013840
X+005617Y+013690
X+005542Y+013690
X+005542Y+013615
X+005617Y+013615
X+005617Y+013540
X+005542Y+013540
T02
X+002317Y+004865
X+001855Y+004290
X+001505Y+004290
X+001335Y+003815
X+001067Y+003415
X+001171Y+003002
X+001421Y+003002
X+001671Y+003002
X+001921Y+003002
X+002171Y+003002
X+002421Y+003002
X+002671Y+003002
X+002921Y+003002
X+003171Y+003002
X+003421Y+003002
X+003671Y+003002
X+003921Y+003002
X+004171Y+003002
X+004421Y+003002
X+004671Y+003002
X+004921Y+003002
X+005171Y+003002
X+005421Y+003002
X+005671Y+003002
X+005892Y+003002
X+005891Y+002753
X+005891Y+002503
X+005625Y+002577
X+004967Y+002540
X+004967Y+002415
X+005130Y+002097
X+005130Y+001847
X+005017Y+001665
X+004580Y+001665
X+003580Y+001665
X+003080Y+001665
X+001905Y+001665
X+001905Y+001866
X+001905Y+002116
X+002225Y+002577
X+002717Y+003727
X+003925Y+002577
X+004735Y+003815
X+005105Y+004290
X+005455Y+004290
X+005892Y+003415
X+004642Y+004865
X+005105Y+006890
X+005455Y+006890
X+004367Y+008265
X+004217Y+008265
X+004830Y+009102
X+004830Y+009152
X+004892Y+009152
X+004892Y+009102
X+004892Y+009540
X+004697Y+009923
X+004365Y+009923
X+004284Y+010202
X+004355Y+010790
X+004355Y+010927
X+004167Y+010790
X+004092Y+010790
X+003555Y+010002
X+003555Y+009727
X+003405Y+009552
X+003255Y+009565
X+002585Y+009357
X+002260Y+009357
X+002055Y+009765
X+002030Y+010702
X+002030Y+010752
X+002092Y+010752
X+002092Y+010702
X+002605Y+011015
X+002755Y+011015
X+001855Y+012415
X+001505Y+012415
X+002317Y+014415
X+001855Y+015015
X+001505Y+015015
X+001505Y+015627
X+001505Y+015702
X+001430Y+015702
X+001430Y+015627
X+001430Y+015827
X+001505Y+015827
X+001505Y+015902
X+001430Y+015902
X+001640Y+015765
X+001999Y+015765
X+002055Y+015765
X+002111Y+015765
X+002167Y+015765
X+002224Y+015765
X+002405Y+015765
X+002655Y+016127
X+002655Y+016246
X+003411Y+017065
X+003480Y+017065
X+003549Y+017065
X+004555Y+016065
X+004736Y+016065
X+004792Y+016065
X+004849Y+016065
X+004905Y+016065
X+004961Y+016065
X+005320Y+016065
X+005455Y+015015
X+005105Y+015015
X+004642Y+014415
X+005105Y+012415
X+005455Y+012415
X+002611Y+009009
X+002605Y+008490
X+002605Y+008352
X+002780Y+008490
X+002867Y+008490
X+001205Y+007965
X+001205Y+007915
X+001505Y+006890
X+001855Y+006890
T03
X+001543Y+017078
X+001610Y+016915
X+001543Y+016752
X+001380Y+016685
X+001217Y+016752
X+001150Y+016915
X+001217Y+017078
X+001380Y+017145
X+005350Y+016915
X+005417Y+017078
X+005580Y+017145
X+005743Y+017078
X+005810Y+016915
X+005743Y+016752
X+005580Y+016685
X+005417Y+016752
T04
X+001930Y+006415
X+001430Y+006415
X+001430Y+004765
X+001930Y+004765
X+005030Y+004765
X+005530Y+004765
X+005530Y+006415
X+005030Y+006415
X+005030Y+012865
X+005530Y+012865
X+005530Y+014515
X+005030Y+014515
X+003303Y+016038
X+003657Y+016392
X+001930Y+014515
X+001430Y+014515
X+001430Y+012865
X+001930Y+012865
T05
X+004800Y+016935
X+004550Y+016935
X+005605Y+011415
X+005605Y+011165
X+005605Y+010915
X+005605Y+010665
X+005605Y+010415
X+005605Y+010165
X+005605Y+009915
X+005605Y+009665
X+005605Y+009415
X+001355Y+009415
X+001355Y+009665
X+001355Y+009915
X+001355Y+010165
X+001355Y+010415
X+001355Y+010665
X+001355Y+010915
X+001355Y+011165
X+001355Y+011415
T06
X+002478Y+016815
X+002082Y+016815
T07
X+004074Y+014915
X+003678Y+014915
X+003282Y+014915
X+002886Y+014915
X+002886Y+004365
X+003282Y+004365
X+003678Y+004365
X+004074Y+004365
T08
X+001380Y+016915
X+005580Y+016915
T09
X+003480Y+011890
X+003480Y+007390
T00
M30
