M48
METRIC,0000.00
T01C0.3
T02C0.5
T03C0.8
T04C0.9
T05C1.75
T06C1.76
T07C3.2
T08C4.3
%
T01
X+002538Y+013490
X+002575Y+013452
X+002538Y+013415
X+002575Y+013377
X+002538Y+013340
X+002575Y+013302
X+002538Y+013265
X+002575Y+013227
X+002612Y+013265
X+002650Y+013302
X+002612Y+013340
X+002650Y+013377
X+002612Y+013415
X+002650Y+013452
X+002612Y+013490
X+002688Y+013490
X+002725Y+013452
X+002762Y+013490
X+002762Y+013415
X+002725Y+013377
X+002762Y+013340
X+002725Y+013302
X+002762Y+013265
X+002725Y+013227
X+002762Y+013190
X+002688Y+013190
X+002650Y+013227
X+002612Y+013190
X+002538Y+013190
X+002500Y+013227
X+002462Y+013265
X+002500Y+013302
X+002462Y+013340
X+002500Y+013377
X+002462Y+013415
X+002500Y+013452
X+002462Y+013490
X+002688Y+013415
X+002688Y+013340
X+002688Y+013265
X+002875Y+013327
X+003012Y+013340
X+003050Y+013377
X+003088Y+013415
X+003125Y+013452
X+003088Y+013490
X+003050Y+013452
X+003012Y+013490
X+003012Y+013415
X+003088Y+013340
X+003125Y+013377
X+003162Y+013415
X+003200Y+013452
X+003162Y+013490
X+003238Y+013490
X+003275Y+013452
X+003312Y+013490
X+003312Y+013415
X+003275Y+013377
X+003312Y+013340
X+003275Y+013302
X+003312Y+013265
X+003275Y+013227
X+003312Y+013190
X+003238Y+013190
X+003200Y+013227
X+003162Y+013265
X+003200Y+013302
X+003162Y+013340
X+003200Y+013377
X+003238Y+013415
X+003238Y+013340
X+003238Y+013265
X+003162Y+013190
X+003125Y+013227
X+003088Y+013265
X+003125Y+013302
X+003050Y+013302
X+003012Y+013265
X+003050Y+013227
X+003088Y+013190
X+003012Y+013190
X+003000Y+012902
X+003000Y+012827
X+003000Y+012752
X+003000Y+012677
X+002900Y+012677
X+002900Y+012752
X+002900Y+012827
X+002900Y+012902
X+002788Y+012640
X+002712Y+012640
X+002638Y+012640
X+002562Y+012640
X+002450Y+012677
X+002450Y+012752
X+002450Y+012827
X+002450Y+012902
X+002462Y+013190
X+002212Y+013615
X+002138Y+013615
X+002062Y+013615
X+001988Y+013615
X+001912Y+013615
X+001912Y+013765
X+001988Y+013765
X+002062Y+013765
X+002138Y+013765
X+002212Y+013765
X+002425Y+013865
X+002475Y+013827
X+002475Y+013902
X+002425Y+013940
X+002475Y+013977
X+002425Y+014015
X+002475Y+014052
X+002425Y+014090
X+002475Y+014127
X+002425Y+014165
X+002338Y+014415
X+002682Y+014415
X+002900Y+014127
X+002950Y+014090
X+002900Y+014052
X+002950Y+014015
X+002900Y+013977
X+002950Y+013940
X+002900Y+013902
X+002950Y+013865
X+002900Y+013827
X+003000Y+013827
X+003000Y+013902
X+003000Y+013977
X+003000Y+014052
X+003000Y+014127
X+002950Y+014165
X+003081Y+014415
X+003450Y+014127
X+003500Y+014090
X+003450Y+014052
X+003500Y+014015
X+003450Y+013977
X+003500Y+013940
X+003450Y+013902
X+003500Y+013865
X+003450Y+013827
X+003550Y+013827
X+003550Y+013902
X+003550Y+013977
X+003550Y+014052
X+003550Y+014127
X+003500Y+014165
X+003925Y+014415
X+004050Y+014165
X+004000Y+014127
X+004050Y+014090
X+004000Y+014052
X+004050Y+014015
X+004000Y+013977
X+004050Y+013940
X+004000Y+013902
X+004050Y+013865
X+004000Y+013827
X+004100Y+013827
X+004100Y+013902
X+004100Y+013977
X+004100Y+014052
X+004100Y+014127
X+004319Y+014415
X+004662Y+014415
X+004575Y+014165
X+004525Y+014127
X+004575Y+014090
X+004525Y+014052
X+004575Y+014015
X+004525Y+013977
X+004575Y+013940
X+004525Y+013902
X+004575Y+013865
X+004525Y+013827
X+004788Y+013765
X+004862Y+013765
X+004938Y+013765
X+005012Y+013765
X+005088Y+013765
X+005088Y+013615
X+005012Y+013615
X+004938Y+013615
X+004862Y+013615
X+004788Y+013615
X+004525Y+013327
X+004412Y+013340
X+004375Y+013377
X+004412Y+013415
X+004375Y+013452
X+004412Y+013490
X+004338Y+013490
X+004300Y+013452
X+004262Y+013490
X+004225Y+013452
X+004188Y+013490
X+004150Y+013452
X+004188Y+013415
X+004225Y+013377
X+004188Y+013340
X+004225Y+013302
X+004188Y+013265
X+004225Y+013227
X+004262Y+013265
X+004300Y+013302
X+004262Y+013340
X+004300Y+013377
X+004262Y+013415
X+004338Y+013415
X+004338Y+013340
X+004375Y+013302
X+004412Y+013265
X+004375Y+013227
X+004412Y+013190
X+004338Y+013190
X+004300Y+013227
X+004262Y+013190
X+004188Y+013190
X+004150Y+013227
X+004112Y+013265
X+004150Y+013302
X+004112Y+013340
X+004150Y+013377
X+004112Y+013415
X+004112Y+013490
X+003975Y+013327
X+003862Y+013340
X+003825Y+013377
X+003862Y+013415
X+003825Y+013452
X+003862Y+013490
X+003788Y+013490
X+003750Y+013452
X+003712Y+013490
X+003675Y+013452
X+003638Y+013490
X+003600Y+013452
X+003638Y+013415
X+003675Y+013377
X+003638Y+013340
X+003675Y+013302
X+003638Y+013265
X+003675Y+013227
X+003712Y+013265
X+003750Y+013302
X+003712Y+013340
X+003750Y+013377
X+003712Y+013415
X+003788Y+013415
X+003788Y+013340
X+003825Y+013302
X+003862Y+013265
X+003825Y+013227
X+003862Y+013190
X+003788Y+013190
X+003750Y+013227
X+003712Y+013190
X+003638Y+013190
X+003600Y+013227
X+003562Y+013265
X+003600Y+013302
X+003562Y+013340
X+003600Y+013377
X+003562Y+013415
X+003562Y+013490
X+003425Y+013327
X+003562Y+013190
X+003788Y+013265
X+004112Y+013190
X+004338Y+013265
X+004550Y+012902
X+004550Y+012827
X+004550Y+012752
X+004550Y+012677
X+004438Y+012640
X+004362Y+012640
X+004288Y+012640
X+004212Y+012640
X+004100Y+012677
X+004100Y+012752
X+004100Y+012827
X+004100Y+012902
X+004000Y+012902
X+004000Y+012840
X+004000Y+012752
X+004000Y+012677
X+003888Y+012640
X+003812Y+012640
X+003738Y+012640
X+003662Y+012640
X+003550Y+012677
X+003550Y+012752
X+003550Y+012827
X+003550Y+012902
X+003450Y+012902
X+003450Y+012827
X+003450Y+012752
X+003450Y+012677
X+003338Y+012640
X+003262Y+012640
X+003188Y+012640
X+003112Y+012640
X+003138Y+012327
X+003175Y+012265
X+003138Y+012202
X+003100Y+012265
X+003062Y+012327
X+003025Y+012265
X+003062Y+012202
X+002825Y+012140
X+002675Y+012140
X+002538Y+012140
X+002400Y+012140
X+002250Y+012140
X+002188Y+012265
X+002188Y+012340
X+002188Y+012415
X+002188Y+012490
X+002100Y+012490
X+002100Y+012415
X+002100Y+012340
X+002100Y+012265
X+002100Y+012190
X+002100Y+012115
X+002100Y+012040
X+002100Y+011965
X+002012Y+011965
X+002012Y+012040
X+002012Y+012115
X+002012Y+012190
X+002012Y+012265
X+002012Y+012340
X+002012Y+012415
X+002012Y+012490
X+001875Y+012415
X+001525Y+012415
X+002250Y+011915
X+002250Y+011802
X+002250Y+011727
X+002175Y+011727
X+002175Y+011802
X+002325Y+011802
X+002325Y+011727
X+002400Y+011727
X+002400Y+011802
X+002400Y+011915
X+002538Y+011915
X+002675Y+011915
X+002675Y+011802
X+002825Y+011802
X+002825Y+011915
X+003087Y+011909
X+003088Y+011577
X+003250Y+011615
X+003362Y+011552
X+003362Y+011465
X+003350Y+011240
X+003225Y+011152
X+003087Y+011078
X+002862Y+011240
X+002788Y+011240
X+002712Y+011240
X+002638Y+011240
X+002438Y+011240
X+002362Y+011240
X+002288Y+011240
X+002212Y+011240
X+002625Y+011015
X+002675Y+010890
X+002725Y+010890
X+002725Y+010840
X+002675Y+010840
X+002775Y+011015
X+003250Y+010840
X+003312Y+010777
X+003375Y+010840
X+003438Y+010777
X+003375Y+010715
X+003438Y+010652
X+003375Y+010590
X+003438Y+010527
X+003375Y+010465
X+003438Y+010402
X+003500Y+010465
X+003562Y+010527
X+003500Y+010590
X+003562Y+010652
X+003500Y+010715
X+003562Y+010777
X+003500Y+010840
X+003625Y+010840
X+003688Y+010777
X+003750Y+010840
X+003750Y+010715
X+003688Y+010652
X+003750Y+010590
X+003688Y+010527
X+003750Y+010465
X+003825Y+010465
X+003750Y+010340
X+003688Y+010402
X+003625Y+010465
X+003562Y+010402
X+003500Y+010340
X+003375Y+010340
X+003312Y+010402
X+003250Y+010465
X+003312Y+010527
X+003250Y+010590
X+003312Y+010652
X+003250Y+010715
X+003625Y+010715
X+003625Y+010590
X+003625Y+010340
X+003475Y+010065
X+003425Y+010015
X+003575Y+010002
X+003412Y+009852
X+003462Y+009790
X+003575Y+009715
X+003425Y+009565
X+003275Y+009565
X+003562Y+009477
X+003638Y+009477
X+003675Y+009315
X+003725Y+009252
X+003775Y+009315
X+003850Y+009315
X+004012Y+009452
X+004198Y+009508
X+004250Y+009577
X+004262Y+009290
X+004000Y+009127
X+003750Y+008940
X+003688Y+008877
X+003625Y+008940
X+003562Y+008877
X+003500Y+008940
X+003438Y+008877
X+003375Y+008940
X+003312Y+008877
X+003250Y+008815
X+003175Y+008815
X+003250Y+008940
X+003375Y+008815
X+003438Y+008752
X+003500Y+008690
X+003562Y+008627
X+003500Y+008565
X+003438Y+008502
X+003500Y+008440
X+003562Y+008502
X+003625Y+008440
X+003688Y+008502
X+003750Y+008440
X+003750Y+008565
X+003688Y+008627
X+003625Y+008690
X+003688Y+008752
X+003625Y+008815
X+003562Y+008752
X+003500Y+008815
X+003375Y+008690
X+003438Y+008627
X+003375Y+008565
X+003312Y+008502
X+003250Y+008565
X+003312Y+008627
X+003250Y+008690
X+003312Y+008752
X+003375Y+008440
X+003250Y+008440
X+003088Y+008190
X+003238Y+008140
X+003350Y+008040
X+003362Y+007815
X+003362Y+007727
X+003262Y+007690
X+003088Y+007702
X+003088Y+007371
X+003088Y+007140
X+003112Y+006990
X+003275Y+007015
X+003312Y+006952
X+003350Y+007015
X+003388Y+006952
X+003425Y+007015
X+003388Y+007077
X+003312Y+007077
X+003662Y+007090
X+003662Y+006990
X+003825Y+007015
X+003862Y+006952
X+003900Y+007015
X+003938Y+006952
X+003975Y+007015
X+003938Y+007077
X+003862Y+007077
X+003912Y+007371
X+004175Y+007365
X+004175Y+007477
X+004325Y+007477
X+004325Y+007365
X+004475Y+007365
X+004600Y+007365
X+004600Y+007477
X+004675Y+007477
X+004750Y+007477
X+004825Y+007477
X+004825Y+007552
X+004750Y+007552
X+004675Y+007552
X+004600Y+007552
X+004750Y+007365
X+004888Y+007315
X+004888Y+007240
X+004888Y+007165
X+004888Y+007090
X+004888Y+007015
X+004888Y+006940
X+004888Y+006865
X+004888Y+006790
X+004975Y+006790
X+004975Y+006865
X+004975Y+006940
X+004975Y+007015
X+004975Y+007090
X+004975Y+007165
X+004975Y+007240
X+004975Y+007315
X+004750Y+007140
X+004800Y+007015
X+004800Y+006940
X+004800Y+006865
X+004800Y+006790
X+004562Y+006615
X+004562Y+006540
X+004562Y+006465
X+004562Y+006390
X+004450Y+006652
X+004375Y+006652
X+004300Y+006652
X+004225Y+006652
X+004112Y+006615
X+004112Y+006540
X+004112Y+006465
X+004112Y+006390
X+004000Y+006390
X+004000Y+006465
X+004000Y+006540
X+004000Y+006615
X+003888Y+006652
X+003812Y+006652
X+003738Y+006652
X+003662Y+006652
X+003550Y+006615
X+003550Y+006540
X+003550Y+006465
X+003550Y+006390
X+003450Y+006390
X+003450Y+006465
X+003450Y+006540
X+003450Y+006615
X+003338Y+006652
X+003262Y+006652
X+003188Y+006652
X+003112Y+006652
X+003000Y+006615
X+003000Y+006540
X+003000Y+006465
X+003000Y+006390
X+002900Y+006390
X+002900Y+006465
X+002900Y+006540
X+002900Y+006615
X+002788Y+006652
X+002712Y+006652
X+002638Y+006652
X+002562Y+006652
X+002450Y+006615
X+002450Y+006540
X+002450Y+006465
X+002450Y+006390
X+002588Y+006090
X+002625Y+006052
X+002662Y+006090
X+002700Y+006052
X+002662Y+006015
X+002700Y+005977
X+002662Y+005940
X+002700Y+005902
X+002662Y+005865
X+002700Y+005827
X+002738Y+005865
X+002775Y+005902
X+002738Y+005940
X+002775Y+005977
X+002738Y+006015
X+002775Y+006052
X+002738Y+006090
X+002812Y+006090
X+002850Y+006052
X+002888Y+006090
X+002888Y+006015
X+002850Y+005977
X+002888Y+005940
X+002850Y+005902
X+002888Y+005865
X+002850Y+005827
X+002888Y+005790
X+002812Y+005790
X+002775Y+005827
X+002738Y+005790
X+002662Y+005790
X+002625Y+005827
X+002588Y+005865
X+002625Y+005902
X+002588Y+005940
X+002625Y+005977
X+002588Y+006015
X+002475Y+005952
X+002588Y+005790
X+002812Y+005865
X+002812Y+005940
X+002812Y+006015
X+003025Y+005952
X+003138Y+005940
X+003175Y+005977
X+003212Y+006015
X+003250Y+006052
X+003212Y+006090
X+003175Y+006052
X+003138Y+006090
X+003138Y+006015
X+003212Y+005940
X+003250Y+005977
X+003288Y+006015
X+003325Y+006052
X+003288Y+006090
X+003362Y+006090
X+003400Y+006052
X+003438Y+006090
X+003438Y+006015
X+003400Y+005977
X+003438Y+005940
X+003400Y+005902
X+003438Y+005865
X+003400Y+005827
X+003438Y+005790
X+003362Y+005790
X+003325Y+005827
X+003288Y+005865
X+003325Y+005902
X+003288Y+005940
X+003325Y+005977
X+003362Y+006015
X+003362Y+005940
X+003362Y+005865
X+003288Y+005790
X+003250Y+005827
X+003212Y+005865
X+003250Y+005902
X+003175Y+005902
X+003138Y+005865
X+003175Y+005827
X+003212Y+005790
X+003138Y+005790
X+003000Y+005465
X+002950Y+005427
X+002900Y+005465
X+002900Y+005390
X+002950Y+005352
X+002900Y+005315
X+002950Y+005277
X+002900Y+005240
X+002950Y+005202
X+002900Y+005165
X+002950Y+005127
X+003000Y+005165
X+003000Y+005240
X+003000Y+005315
X+003000Y+005390
X+003450Y+005390
X+003500Y+005352
X+003550Y+005390
X+003500Y+005427
X+003450Y+005465
X+003550Y+005465
X+003550Y+005315
X+003500Y+005277
X+003550Y+005240
X+003500Y+005202
X+003550Y+005165
X+003500Y+005127
X+003450Y+005165
X+003450Y+005240
X+003450Y+005315
X+003688Y+005790
X+003725Y+005827
X+003762Y+005865
X+003800Y+005902
X+003762Y+005940
X+003800Y+005977
X+003762Y+006015
X+003800Y+006052
X+003762Y+006090
X+003725Y+006052
X+003688Y+006090
X+003688Y+006015
X+003725Y+005977
X+003688Y+005940
X+003725Y+005902
X+003688Y+005865
X+003762Y+005790
X+003800Y+005827
X+003838Y+005865
X+003875Y+005902
X+003838Y+005940
X+003875Y+005977
X+003838Y+006015
X+003875Y+006052
X+003838Y+006090
X+003912Y+006090
X+003950Y+006052
X+003988Y+006090
X+003988Y+006015
X+003950Y+005977
X+003988Y+005940
X+003950Y+005902
X+003988Y+005865
X+003950Y+005827
X+003988Y+005790
X+003912Y+005790
X+003875Y+005827
X+003838Y+005790
X+003912Y+005865
X+003912Y+005940
X+003912Y+006015
X+004125Y+005952
X+004238Y+005940
X+004275Y+005977
X+004312Y+006015
X+004350Y+006052
X+004312Y+006090
X+004275Y+006052
X+004238Y+006090
X+004238Y+006015
X+004312Y+005940
X+004350Y+005977
X+004388Y+006015
X+004425Y+006052
X+004388Y+006090
X+004462Y+006090
X+004500Y+006052
X+004538Y+006090
X+004538Y+006015
X+004500Y+005977
X+004538Y+005940
X+004500Y+005902
X+004538Y+005865
X+004500Y+005827
X+004538Y+005790
X+004462Y+005790
X+004425Y+005827
X+004388Y+005865
X+004425Y+005902
X+004388Y+005940
X+004425Y+005977
X+004462Y+006015
X+004462Y+005940
X+004462Y+005865
X+004388Y+005790
X+004350Y+005827
X+004312Y+005865
X+004350Y+005902
X+004275Y+005902
X+004238Y+005865
X+004275Y+005827
X+004312Y+005790
X+004238Y+005790
X+004100Y+005465
X+004050Y+005427
X+004100Y+005390
X+004050Y+005352
X+004000Y+005390
X+004000Y+005465
X+004000Y+005315
X+004050Y+005277
X+004000Y+005240
X+004050Y+005202
X+004000Y+005165
X+004050Y+005127
X+004100Y+005165
X+004100Y+005240
X+004100Y+005315
X+004525Y+005315
X+004575Y+005277
X+004525Y+005240
X+004575Y+005202
X+004525Y+005165
X+004575Y+005127
X+004575Y+005352
X+004525Y+005390
X+004575Y+005427
X+004525Y+005465
X+004788Y+005502
X+004862Y+005502
X+004938Y+005502
X+005012Y+005502
X+005088Y+005502
X+005088Y+005652
X+005012Y+005652
X+004938Y+005652
X+004862Y+005652
X+004788Y+005652
X+005562Y+005665
X+005638Y+005665
X+005638Y+005740
X+005562Y+005740
X+005562Y+005590
X+005638Y+005590
X+005638Y+005515
X+005638Y+005440
X+005562Y+005440
X+005562Y+005515
X+004662Y+004865
X+004318Y+004865
X+003925Y+004865
X+003081Y+004865
X+002681Y+004865
X+002338Y+004865
X+002425Y+005127
X+002475Y+005165
X+002425Y+005202
X+002475Y+005240
X+002425Y+005277
X+002475Y+005315
X+002425Y+005352
X+002475Y+005390
X+002425Y+005427
X+002475Y+005465
X+002212Y+005502
X+002138Y+005502
X+002062Y+005502
X+001988Y+005502
X+001912Y+005502
X+001912Y+005652
X+001988Y+005652
X+002062Y+005652
X+002138Y+005652
X+002212Y+005652
X+001462Y+005665
X+001462Y+005740
X+001388Y+005740
X+001388Y+005665
X+001388Y+005590
X+001462Y+005590
X+001462Y+005515
X+001462Y+005440
X+001388Y+005440
X+001388Y+005515
X+001525Y+004290
X+001875Y+004290
X+001863Y+003815
X+001737Y+003815
X+001610Y+003815
X+001483Y+003815
X+001355Y+003815
X+001088Y+003415
X+001191Y+003002
X+001238Y+002940
X+001441Y+003002
X+001691Y+003002
X+001941Y+003002
X+002191Y+003002
X+002441Y+003002
X+002691Y+003002
X+002941Y+003002
X+003191Y+003002
X+003441Y+003002
X+003691Y+003002
X+003941Y+003002
X+004191Y+003002
X+004441Y+003002
X+004691Y+003002
X+004941Y+003002
X+005191Y+003002
X+005390Y+002940
X+005441Y+003002
X+005517Y+002890
X+005691Y+003002
X+005912Y+003002
X+005911Y+002753
X+005911Y+002503
X+005645Y+002577
X+005388Y+002427
X+005150Y+002097
X+005150Y+001847
X+005038Y+001665
X+004600Y+001665
X+004350Y+001715
X+004300Y+001765
X+004350Y+001815
X+004250Y+001815
X+004250Y+001715
X+004300Y+001665
X+004250Y+001615
X+004350Y+001615
X+003600Y+001665
X+003625Y+001827
X+003525Y+001965
X+003100Y+001665
X+003150Y+002490
X+003055Y+002602
X+003300Y+002490
X+003450Y+002490
X+003600Y+002490
X+003945Y+002577
X+004755Y+002602
X+004975Y+002540
X+004975Y+002415
X+005912Y+003415
X+005475Y+004290
X+005125Y+004290
X+004755Y+003815
X+003563Y+003814
X+003437Y+003814
X+003310Y+003815
X+003183Y+003815
X+002738Y+003727
X+001990Y+003815
X+001737Y+002615
X+001638Y+002490
X+001488Y+002490
X+001355Y+002615
X+001925Y+002116
X+001925Y+001866
X+001925Y+001665
X+002245Y+002577
X+003575Y+005952
X+004212Y+006990
X+004175Y+007140
X+004325Y+007140
X+004475Y+007140
X+004588Y+007140
X+005125Y+006890
X+005475Y+006890
X+005225Y+007940
X+005225Y+008140
X+005225Y+008340
X+004925Y+008540
X+004462Y+008715
X+004238Y+008802
X+004368Y+008940
X+004338Y+008440
X+004338Y+008390
X+004288Y+008390
X+004288Y+008440
X+004238Y+008265
X+004388Y+008265
X+004362Y+008040
X+004288Y+008040
X+004212Y+008040
X+004138Y+008040
X+003912Y+008190
X+003750Y+008152
X+003650Y+008040
X+003638Y+007815
X+003638Y+007727
X+003738Y+007677
X+003912Y+007702
X+004569Y+008040
X+004644Y+008040
X+004719Y+008040
X+004794Y+008040
X+005362Y+008902
X+004912Y+009102
X+004912Y+009152
X+004850Y+009152
X+004850Y+009102
X+004912Y+009540
X+004859Y+009600
X+004896Y+009675
X+004838Y+009765
X+004717Y+009923
X+004385Y+009923
X+004198Y+010140
X+004304Y+010202
X+004200Y+010277
X+004150Y+010415
X+004375Y+010415
X+004375Y+010790
X+004375Y+010927
X+004188Y+010790
X+004112Y+010790
X+003912Y+011077
X+003775Y+011152
X+003650Y+011240
X+003638Y+011465
X+003638Y+011552
X+003750Y+011615
X+003912Y+011577
X+003912Y+011909
X+003912Y+012140
X+003887Y+012290
X+003725Y+012265
X+003688Y+012202
X+003650Y+012265
X+003612Y+012327
X+003575Y+012265
X+003612Y+012202
X+003688Y+012327
X+003338Y+012290
X+003338Y+012190
X+002787Y+012290
X+004175Y+012140
X+004325Y+012140
X+004475Y+012140
X+004600Y+012140
X+004750Y+012140
X+004812Y+012265
X+004812Y+012340
X+004812Y+012415
X+004812Y+012490
X+004900Y+012490
X+004900Y+012415
X+004900Y+012340
X+004900Y+012265
X+004900Y+012190
X+004900Y+012115
X+004900Y+012040
X+004900Y+011965
X+004988Y+011965
X+004988Y+012040
X+004988Y+012115
X+004988Y+012190
X+004988Y+012265
X+004988Y+012340
X+004988Y+012415
X+004988Y+012490
X+005125Y+012415
X+005475Y+012415
X+004750Y+011915
X+004750Y+011802
X+004750Y+011727
X+004675Y+011727
X+004600Y+011727
X+004600Y+011802
X+004675Y+011802
X+004600Y+011915
X+004475Y+011915
X+004325Y+011915
X+004325Y+011802
X+004175Y+011802
X+004175Y+011915
X+004300Y+012290
X+004825Y+011802
X+004825Y+011727
X+004794Y+011240
X+004719Y+011240
X+004644Y+011240
X+004569Y+011240
X+004362Y+011240
X+004288Y+011240
X+004212Y+011240
X+004138Y+011240
X+004850Y+010565
X+004850Y+010515
X+004900Y+010515
X+004900Y+010565
X+005042Y+009529
X+003800Y+010015
X+003275Y+009890
X+003225Y+009940
X+003250Y+010340
X+002762Y+010477
X+002625Y+010340
X+002550Y+010515
X+002112Y+010702
X+002112Y+010752
X+002050Y+010752
X+002050Y+010702
X+002075Y+009765
X+002025Y+009715
X+002125Y+009615
X+002063Y+009516
X+001893Y+009515
X+002280Y+009357
X+002605Y+009357
X+002912Y+009377
X+003200Y+009265
X+003525Y+009252
X+003575Y+009202
X+003625Y+009252
X+003750Y+008815
X+003750Y+008690
X+003625Y+008565
X+002975Y+008765
X+002975Y+008865
X+002975Y+008940
X+002631Y+009009
X+002450Y+008965
X+002400Y+008852
X+002350Y+008802
X+002300Y+008752
X+002250Y+008702
X+002625Y+008490
X+002625Y+008352
X+002562Y+008190
X+002512Y+008140
X+002438Y+008040
X+002362Y+008040
X+002288Y+008040
X+002212Y+008040
X+002638Y+008040
X+002712Y+008040
X+002788Y+008040
X+002862Y+008040
X+002888Y+008490
X+002800Y+008490
X+002400Y+007577
X+002325Y+007577
X+002250Y+007577
X+002175Y+007577
X+002175Y+007490
X+002250Y+007490
X+002325Y+007490
X+002400Y+007490
X+002400Y+007365
X+002538Y+007365
X+002675Y+007365
X+002675Y+007484
X+002825Y+007484
X+002825Y+007365
X+002825Y+007140
X+002675Y+007140
X+002538Y+007140
X+002400Y+007140
X+002250Y+007140
X+002125Y+007165
X+002125Y+007090
X+002125Y+007015
X+002125Y+006940
X+002125Y+006865
X+002125Y+006790
X+002212Y+006790
X+002212Y+006865
X+002212Y+006940
X+002212Y+007015
X+002038Y+007015
X+002038Y+007090
X+002038Y+007165
X+002038Y+007240
X+002038Y+007315
X+002125Y+007315
X+002125Y+007240
X+002250Y+007365
X+002038Y+006940
X+002038Y+006865
X+002038Y+006790
X+001875Y+006890
X+001525Y+006890
X+001375Y+007040
X+001375Y+007115
X+001375Y+007190
X+001375Y+007265
X+001438Y+007327
X+001225Y+007915
X+001225Y+007965
X+001200Y+008140
X+001675Y+008340
X+001675Y+008540
X+001675Y+008740
X+002700Y+006990
X+001462Y+013540
X+001462Y+013615
X+001388Y+013615
X+001388Y+013540
X+001388Y+013690
X+001388Y+013765
X+001462Y+013765
X+001462Y+013690
X+001462Y+013840
X+001388Y+013840
X+001525Y+015015
X+001875Y+015015
X+001525Y+015627
X+001525Y+015702
X+001450Y+015702
X+001450Y+015627
X+001450Y+015827
X+001525Y+015827
X+001525Y+015902
X+001450Y+015902
X+001660Y+015765
X+002019Y+015765
X+002075Y+015765
X+002131Y+015765
X+002188Y+015765
X+002244Y+015765
X+002425Y+015765
X+002675Y+016127
X+002675Y+016246
X+003431Y+017065
X+003500Y+017065
X+003569Y+017065
X+004575Y+016065
X+004756Y+016065
X+004812Y+016065
X+004869Y+016065
X+004925Y+016065
X+004981Y+016065
X+005340Y+016065
X+005475Y+015015
X+005125Y+015015
X+005562Y+013840
X+005562Y+013765
X+005638Y+013765
X+005638Y+013840
X+005638Y+013690
X+005638Y+013615
X+005638Y+013540
X+005562Y+013540
X+005562Y+013615
X+005562Y+013690
T02
X+001563Y+017078
X+001630Y+016915
X+001563Y+016752
X+001400Y+016685
X+001237Y+016752
X+001170Y+016915
X+001237Y+017078
X+001400Y+017145
X+005370Y+016915
X+005437Y+017078
X+005600Y+017145
X+005763Y+017078
X+005830Y+016915
X+005763Y+016752
X+005600Y+016685
X+005437Y+016752
T03
X+001950Y+006415
X+001450Y+006415
X+001450Y+004765
X+001950Y+004765
X+005050Y+004765
X+005550Y+004765
X+005550Y+006415
X+005050Y+006415
X+005050Y+012865
X+005550Y+012865
X+005550Y+014515
X+005050Y+014515
X+003323Y+016038
X+003677Y+016392
X+001950Y+014515
X+001450Y+014515
X+001450Y+012865
X+001950Y+012865
T04
X+004820Y+016935
X+004570Y+016935
X+005625Y+011415
X+005625Y+011165
X+005625Y+010915
X+005625Y+010665
X+005625Y+010415
X+005625Y+010165
X+005625Y+009915
X+005625Y+009665
X+005625Y+009415
X+001375Y+009415
X+001375Y+009665
X+001375Y+009915
X+001375Y+010165
X+001375Y+010415
X+001375Y+010665
X+001375Y+010915
X+001375Y+011165
X+001375Y+011415
T05
X+002498Y+016815
X+002102Y+016815
T06
X+004094Y+014915
X+003698Y+014915
X+003302Y+014915
X+002906Y+014915
X+002906Y+004365
X+003302Y+004365
X+003698Y+004365
X+004094Y+004365
T07
X+001400Y+016915
X+005600Y+016915
T08
X+003500Y+011890
X+003500Y+007390
T00
M30
