M48
METRIC,0000.00
T01C0.3
T02C0.5
T03C0.8
T04C0.9
T05C1.75
T06C1.76
T07C3.2
T08C4.3
%
T01
X+002508Y+013490
X+002545Y+013452
X+002508Y+013415
X+002545Y+013377
X+002508Y+013340
X+002545Y+013302
X+002508Y+013265
X+002545Y+013227
X+002583Y+013265
X+002620Y+013302
X+002583Y+013340
X+002620Y+013377
X+002583Y+013415
X+002620Y+013452
X+002583Y+013490
X+002658Y+013490
X+002695Y+013452
X+002733Y+013490
X+002733Y+013415
X+002695Y+013377
X+002733Y+013340
X+002695Y+013302
X+002733Y+013265
X+002695Y+013227
X+002733Y+013190
X+002658Y+013190
X+002620Y+013227
X+002583Y+013190
X+002508Y+013190
X+002470Y+013227
X+002433Y+013265
X+002470Y+013302
X+002433Y+013340
X+002470Y+013377
X+002433Y+013415
X+002470Y+013452
X+002433Y+013490
X+002658Y+013415
X+002658Y+013340
X+002658Y+013265
X+002845Y+013327
X+003002Y+013340
X+003040Y+013377
X+003077Y+013415
X+003115Y+013452
X+003077Y+013490
X+003040Y+013452
X+003002Y+013490
X+003002Y+013415
X+003077Y+013340
X+003115Y+013377
X+003152Y+013415
X+003190Y+013452
X+003152Y+013490
X+003227Y+013490
X+003265Y+013452
X+003302Y+013490
X+003302Y+013415
X+003265Y+013377
X+003302Y+013340
X+003265Y+013302
X+003302Y+013265
X+003265Y+013227
X+003302Y+013190
X+003227Y+013190
X+003190Y+013227
X+003152Y+013265
X+003190Y+013302
X+003152Y+013340
X+003190Y+013377
X+003227Y+013415
X+003227Y+013340
X+003227Y+013265
X+003152Y+013190
X+003115Y+013227
X+003077Y+013265
X+003115Y+013302
X+003040Y+013302
X+003002Y+013265
X+003040Y+013227
X+003077Y+013190
X+003002Y+013190
X+002990Y+012902
X+002990Y+012827
X+002990Y+012752
X+002990Y+012677
X+003102Y+012640
X+003177Y+012640
X+003252Y+012640
X+003327Y+012640
X+003440Y+012677
X+003440Y+012752
X+003440Y+012827
X+003440Y+012902
X+003560Y+012902
X+003560Y+012827
X+003560Y+012752
X+003560Y+012677
X+003673Y+012640
X+003748Y+012640
X+003823Y+012640
X+003898Y+012640
X+004010Y+012677
X+004010Y+012752
X+004010Y+012840
X+004010Y+012902
X+004130Y+012902
X+004130Y+012827
X+004130Y+012752
X+004130Y+012677
X+004242Y+012640
X+004317Y+012640
X+004392Y+012640
X+004467Y+012640
X+004580Y+012677
X+004580Y+012752
X+004580Y+012827
X+004580Y+012902
X+004442Y+013190
X+004405Y+013227
X+004442Y+013265
X+004405Y+013302
X+004442Y+013340
X+004405Y+013377
X+004442Y+013415
X+004405Y+013452
X+004442Y+013490
X+004367Y+013490
X+004330Y+013452
X+004292Y+013490
X+004255Y+013452
X+004217Y+013490
X+004180Y+013452
X+004217Y+013415
X+004255Y+013377
X+004217Y+013340
X+004255Y+013302
X+004217Y+013265
X+004255Y+013227
X+004292Y+013265
X+004330Y+013302
X+004292Y+013340
X+004330Y+013377
X+004292Y+013415
X+004367Y+013415
X+004367Y+013340
X+004367Y+013265
X+004330Y+013227
X+004292Y+013190
X+004217Y+013190
X+004180Y+013227
X+004142Y+013265
X+004180Y+013302
X+004142Y+013340
X+004180Y+013377
X+004142Y+013415
X+004142Y+013490
X+003985Y+013327
X+003873Y+013340
X+003835Y+013377
X+003873Y+013415
X+003835Y+013452
X+003873Y+013490
X+003798Y+013490
X+003760Y+013452
X+003723Y+013490
X+003685Y+013452
X+003648Y+013490
X+003610Y+013452
X+003648Y+013415
X+003685Y+013377
X+003648Y+013340
X+003685Y+013302
X+003648Y+013265
X+003685Y+013227
X+003723Y+013265
X+003760Y+013302
X+003723Y+013340
X+003760Y+013377
X+003723Y+013415
X+003798Y+013415
X+003798Y+013340
X+003835Y+013302
X+003873Y+013265
X+003835Y+013227
X+003873Y+013190
X+003798Y+013190
X+003760Y+013227
X+003723Y+013190
X+003648Y+013190
X+003610Y+013227
X+003573Y+013265
X+003610Y+013302
X+003573Y+013340
X+003610Y+013377
X+003573Y+013415
X+003573Y+013490
X+003415Y+013327
X+003573Y+013190
X+003798Y+013265
X+004142Y+013190
X+004367Y+013190
X+004555Y+013327
X+004788Y+013615
X+004862Y+013615
X+004938Y+013615
X+005012Y+013615
X+005088Y+013615
X+005088Y+013765
X+005012Y+013765
X+004938Y+013765
X+004862Y+013765
X+004788Y+013765
X+004605Y+013865
X+004555Y+013827
X+004555Y+013902
X+004605Y+013940
X+004555Y+013977
X+004605Y+014015
X+004555Y+014052
X+004605Y+014090
X+004555Y+014127
X+004605Y+014165
X+004662Y+014415
X+004356Y+014415
X+004130Y+014127
X+004070Y+014090
X+004130Y+014052
X+004070Y+014015
X+004130Y+013977
X+004070Y+013940
X+004130Y+013902
X+004070Y+013865
X+004130Y+013827
X+004010Y+013827
X+004010Y+013902
X+004010Y+013977
X+004010Y+014052
X+004010Y+014127
X+004070Y+014165
X+003925Y+014415
X+003560Y+014127
X+003500Y+014090
X+003440Y+014052
X+003500Y+014015
X+003440Y+013977
X+003500Y+013940
X+003440Y+013902
X+003500Y+013865
X+003440Y+013827
X+003560Y+013827
X+003560Y+013902
X+003560Y+013977
X+003560Y+014052
X+003500Y+014165
X+003440Y+014127
X+002990Y+014127
X+002930Y+014090
X+002870Y+014052
X+002930Y+014015
X+002870Y+013977
X+002930Y+013940
X+002870Y+013902
X+002930Y+013865
X+002870Y+013827
X+002990Y+013827
X+002990Y+013902
X+002990Y+013977
X+002990Y+014052
X+002930Y+014165
X+002870Y+014127
X+003081Y+014415
X+002644Y+014415
X+002338Y+014415
X+002395Y+014165
X+002445Y+014127
X+002395Y+014090
X+002445Y+014052
X+002395Y+014015
X+002445Y+013977
X+002395Y+013940
X+002445Y+013902
X+002395Y+013865
X+002445Y+013827
X+002212Y+013765
X+002138Y+013765
X+002062Y+013765
X+001988Y+013765
X+001912Y+013765
X+001912Y+013615
X+001988Y+013615
X+002062Y+013615
X+002138Y+013615
X+002212Y+013615
X+002433Y+013190
X+002420Y+012902
X+002420Y+012827
X+002420Y+012752
X+002420Y+012677
X+002533Y+012640
X+002608Y+012640
X+002683Y+012640
X+002758Y+012640
X+002870Y+012677
X+002870Y+012752
X+002870Y+012827
X+002870Y+012902
X+003062Y+012327
X+003100Y+012265
X+003138Y+012327
X+003175Y+012265
X+003138Y+012202
X+003062Y+012202
X+003025Y+012265
X+002825Y+012140
X+002675Y+012140
X+002538Y+012140
X+002400Y+012140
X+002250Y+012140
X+002188Y+012265
X+002188Y+012340
X+002188Y+012415
X+002188Y+012490
X+002100Y+012490
X+002100Y+012415
X+002100Y+012340
X+002100Y+012265
X+002100Y+012190
X+002100Y+012115
X+002100Y+012040
X+002100Y+011965
X+002012Y+011965
X+002012Y+012040
X+002012Y+012115
X+002012Y+012190
X+002012Y+012265
X+002012Y+012340
X+002012Y+012415
X+002012Y+012490
X+001875Y+012415
X+001525Y+012415
X+002250Y+011915
X+002250Y+011802
X+002250Y+011727
X+002175Y+011727
X+002175Y+011802
X+002325Y+011802
X+002325Y+011727
X+002400Y+011727
X+002400Y+011802
X+002400Y+011915
X+002538Y+011915
X+002675Y+011915
X+002675Y+011802
X+002825Y+011802
X+002825Y+011915
X+003087Y+011909
X+003088Y+011577
X+003250Y+011615
X+003362Y+011552
X+003362Y+011465
X+003350Y+011240
X+003225Y+011152
X+003087Y+011078
X+002862Y+011240
X+002788Y+011240
X+002712Y+011240
X+002638Y+011240
X+002438Y+011240
X+002362Y+011240
X+002288Y+011240
X+002212Y+011240
X+002625Y+011015
X+002675Y+010890
X+002725Y+010890
X+002725Y+010840
X+002675Y+010840
X+002775Y+011015
X+003250Y+010840
X+003312Y+010777
X+003375Y+010840
X+003438Y+010777
X+003375Y+010715
X+003438Y+010652
X+003375Y+010590
X+003438Y+010527
X+003375Y+010465
X+003438Y+010402
X+003500Y+010465
X+003562Y+010527
X+003500Y+010590
X+003562Y+010652
X+003500Y+010715
X+003562Y+010777
X+003500Y+010840
X+003625Y+010840
X+003688Y+010777
X+003750Y+010840
X+003750Y+010715
X+003688Y+010652
X+003750Y+010590
X+003688Y+010527
X+003750Y+010465
X+003825Y+010465
X+003750Y+010340
X+003688Y+010402
X+003625Y+010465
X+003562Y+010402
X+003500Y+010340
X+003375Y+010340
X+003312Y+010402
X+003250Y+010465
X+003312Y+010527
X+003250Y+010590
X+003312Y+010652
X+003250Y+010715
X+003625Y+010715
X+003625Y+010590
X+003625Y+010340
X+003475Y+010065
X+003425Y+010015
X+003575Y+010002
X+003412Y+009852
X+003462Y+009790
X+003575Y+009715
X+003425Y+009565
X+003275Y+009565
X+003562Y+009477
X+003638Y+009477
X+003675Y+009315
X+003725Y+009252
X+003775Y+009315
X+003850Y+009315
X+004012Y+009452
X+004198Y+009508
X+004250Y+009577
X+004262Y+009290
X+004000Y+009127
X+003750Y+008940
X+003688Y+008877
X+003625Y+008815
X+003562Y+008877
X+003625Y+008940
X+003500Y+008940
X+003438Y+008877
X+003375Y+008815
X+003312Y+008752
X+003250Y+008690
X+003312Y+008627
X+003250Y+008565
X+003312Y+008502
X+003250Y+008440
X+003375Y+008440
X+003438Y+008502
X+003500Y+008565
X+003562Y+008502
X+003500Y+008440
X+003625Y+008440
X+003688Y+008502
X+003750Y+008565
X+003688Y+008627
X+003625Y+008690
X+003688Y+008752
X+003750Y+008690
X+003750Y+008815
X+003562Y+008752
X+003500Y+008815
X+003438Y+008752
X+003375Y+008690
X+003438Y+008627
X+003375Y+008565
X+003500Y+008690
X+003562Y+008627
X+003625Y+008565
X+003750Y+008440
X+003750Y+008152
X+003650Y+008040
X+003638Y+007815
X+003638Y+007727
X+003738Y+007677
X+003912Y+007702
X+003912Y+007371
X+004175Y+007365
X+004175Y+007477
X+004325Y+007477
X+004325Y+007365
X+004475Y+007365
X+004600Y+007365
X+004600Y+007477
X+004675Y+007477
X+004750Y+007477
X+004825Y+007477
X+004825Y+007552
X+004750Y+007552
X+004675Y+007552
X+004600Y+007552
X+004750Y+007365
X+004888Y+007315
X+004888Y+007240
X+004888Y+007165
X+004888Y+007090
X+004888Y+007015
X+004888Y+006940
X+004888Y+006865
X+004888Y+006790
X+004975Y+006790
X+004975Y+006865
X+004975Y+006940
X+004975Y+007015
X+004975Y+007090
X+004975Y+007165
X+004975Y+007240
X+004975Y+007315
X+004750Y+007140
X+004800Y+007015
X+004800Y+006940
X+004800Y+006865
X+004800Y+006790
X+004592Y+006615
X+004592Y+006540
X+004592Y+006465
X+004592Y+006390
X+004480Y+006652
X+004405Y+006652
X+004330Y+006652
X+004255Y+006652
X+004142Y+006615
X+004142Y+006540
X+004142Y+006465
X+004142Y+006390
X+004010Y+006390
X+004010Y+006465
X+004010Y+006540
X+004010Y+006615
X+003898Y+006652
X+003823Y+006652
X+003748Y+006652
X+003673Y+006652
X+003560Y+006615
X+003560Y+006540
X+003560Y+006465
X+003560Y+006390
X+003440Y+006390
X+003440Y+006465
X+003440Y+006540
X+003440Y+006615
X+003327Y+006652
X+003252Y+006652
X+003177Y+006652
X+003102Y+006652
X+002990Y+006615
X+002990Y+006540
X+002990Y+006465
X+002990Y+006390
X+002870Y+006390
X+002870Y+006465
X+002870Y+006540
X+002870Y+006615
X+002758Y+006652
X+002683Y+006652
X+002608Y+006652
X+002533Y+006652
X+002420Y+006615
X+002420Y+006540
X+002420Y+006465
X+002420Y+006390
X+002558Y+006090
X+002595Y+006052
X+002633Y+006090
X+002670Y+006052
X+002633Y+006015
X+002670Y+005977
X+002633Y+005940
X+002670Y+005902
X+002633Y+005865
X+002670Y+005827
X+002708Y+005865
X+002745Y+005902
X+002708Y+005940
X+002745Y+005977
X+002708Y+006015
X+002745Y+006052
X+002708Y+006090
X+002783Y+006090
X+002820Y+006052
X+002858Y+006090
X+002858Y+006015
X+002820Y+005977
X+002858Y+005940
X+002820Y+005902
X+002858Y+005865
X+002820Y+005827
X+002858Y+005790
X+002783Y+005790
X+002745Y+005827
X+002708Y+005790
X+002633Y+005790
X+002595Y+005827
X+002558Y+005865
X+002595Y+005902
X+002558Y+005940
X+002595Y+005977
X+002558Y+006015
X+002445Y+005952
X+002558Y+005790
X+002783Y+005865
X+002783Y+005940
X+002783Y+006015
X+003015Y+005952
X+003127Y+005940
X+003165Y+005977
X+003202Y+006015
X+003240Y+006052
X+003202Y+006090
X+003165Y+006052
X+003127Y+006090
X+003127Y+006015
X+003202Y+005940
X+003240Y+005977
X+003277Y+006015
X+003315Y+006052
X+003277Y+006090
X+003352Y+006090
X+003390Y+006052
X+003427Y+006090
X+003427Y+006015
X+003390Y+005977
X+003427Y+005940
X+003390Y+005902
X+003427Y+005865
X+003390Y+005827
X+003427Y+005790
X+003352Y+005790
X+003315Y+005827
X+003277Y+005865
X+003315Y+005902
X+003277Y+005940
X+003315Y+005977
X+003352Y+006015
X+003352Y+005940
X+003352Y+005865
X+003277Y+005790
X+003240Y+005827
X+003202Y+005865
X+003240Y+005902
X+003165Y+005902
X+003127Y+005865
X+003165Y+005827
X+003202Y+005790
X+003127Y+005790
X+002990Y+005465
X+002930Y+005427
X+002870Y+005465
X+002870Y+005390
X+002930Y+005352
X+002870Y+005315
X+002930Y+005277
X+002870Y+005240
X+002930Y+005202
X+002870Y+005165
X+002930Y+005127
X+002990Y+005165
X+002990Y+005240
X+002990Y+005315
X+002990Y+005390
X+003440Y+005390
X+003500Y+005352
X+003440Y+005315
X+003500Y+005277
X+003560Y+005240
X+003500Y+005202
X+003560Y+005165
X+003500Y+005127
X+003440Y+005165
X+003440Y+005240
X+003560Y+005315
X+003560Y+005390
X+003500Y+005427
X+003440Y+005465
X+003560Y+005465
X+003698Y+005790
X+003735Y+005827
X+003773Y+005865
X+003810Y+005902
X+003773Y+005940
X+003810Y+005977
X+003773Y+006015
X+003810Y+006052
X+003773Y+006090
X+003735Y+006052
X+003698Y+006090
X+003698Y+006015
X+003735Y+005977
X+003698Y+005940
X+003735Y+005902
X+003698Y+005865
X+003773Y+005790
X+003810Y+005827
X+003848Y+005865
X+003885Y+005902
X+003848Y+005940
X+003885Y+005977
X+003848Y+006015
X+003885Y+006052
X+003848Y+006090
X+003923Y+006090
X+003960Y+006052
X+003998Y+006090
X+003998Y+006015
X+003960Y+005977
X+003998Y+005940
X+003960Y+005902
X+003998Y+005865
X+003960Y+005827
X+003998Y+005790
X+003923Y+005790
X+003885Y+005827
X+003848Y+005790
X+003923Y+005865
X+003923Y+005940
X+003923Y+006015
X+004155Y+005952
X+004267Y+005940
X+004305Y+005977
X+004342Y+006015
X+004380Y+006052
X+004342Y+006090
X+004305Y+006052
X+004267Y+006090
X+004267Y+006015
X+004342Y+005940
X+004380Y+005977
X+004417Y+006015
X+004455Y+006052
X+004417Y+006090
X+004492Y+006090
X+004530Y+006052
X+004567Y+006090
X+004567Y+006015
X+004530Y+005977
X+004567Y+005940
X+004530Y+005902
X+004567Y+005865
X+004530Y+005827
X+004567Y+005790
X+004492Y+005790
X+004455Y+005827
X+004417Y+005865
X+004455Y+005902
X+004417Y+005940
X+004455Y+005977
X+004492Y+006015
X+004492Y+005940
X+004492Y+005865
X+004417Y+005790
X+004380Y+005827
X+004342Y+005865
X+004380Y+005902
X+004305Y+005902
X+004267Y+005865
X+004305Y+005827
X+004342Y+005790
X+004267Y+005790
X+004130Y+005465
X+004070Y+005427
X+004130Y+005390
X+004070Y+005352
X+004130Y+005315
X+004070Y+005277
X+004130Y+005240
X+004070Y+005202
X+004130Y+005165
X+004070Y+005127
X+004010Y+005165
X+004010Y+005240
X+004010Y+005315
X+004010Y+005390
X+004010Y+005465
X+004555Y+005465
X+004605Y+005427
X+004555Y+005390
X+004605Y+005352
X+004555Y+005315
X+004605Y+005277
X+004555Y+005240
X+004605Y+005202
X+004555Y+005165
X+004605Y+005127
X+004662Y+004865
X+004318Y+004865
X+003925Y+004865
X+003650Y+004115
X+003575Y+004115
X+003500Y+004115
X+003425Y+004115
X+003350Y+004115
X+003310Y+003815
X+003183Y+003815
X+003437Y+003814
X+003563Y+003814
X+003441Y+003002
X+003691Y+003002
X+003941Y+003002
X+004191Y+003002
X+004441Y+003002
X+004691Y+003002
X+004941Y+003002
X+005191Y+003002
X+005390Y+002940
X+005441Y+003002
X+005517Y+002890
X+005691Y+003002
X+005912Y+003002
X+005911Y+002753
X+005911Y+002503
X+005645Y+002577
X+005388Y+002427
X+005150Y+002097
X+005150Y+001847
X+005038Y+001665
X+004600Y+001665
X+004350Y+001715
X+004300Y+001765
X+004250Y+001715
X+004300Y+001665
X+004250Y+001615
X+004350Y+001615
X+004350Y+001815
X+004250Y+001815
X+003625Y+001827
X+003600Y+001665
X+003525Y+001965
X+003100Y+001665
X+003150Y+002490
X+003055Y+002602
X+003300Y+002490
X+003450Y+002490
X+003600Y+002490
X+003945Y+002577
X+004755Y+002602
X+004975Y+002540
X+004975Y+002415
X+005912Y+003415
X+005475Y+004290
X+005125Y+004290
X+004755Y+003815
X+004788Y+005502
X+004862Y+005502
X+004938Y+005502
X+005012Y+005502
X+005088Y+005502
X+005088Y+005652
X+005012Y+005652
X+004938Y+005652
X+004862Y+005652
X+004788Y+005652
X+005562Y+005665
X+005638Y+005665
X+005638Y+005740
X+005562Y+005740
X+005562Y+005590
X+005638Y+005590
X+005638Y+005515
X+005638Y+005440
X+005562Y+005440
X+005562Y+005515
X+005475Y+006890
X+005125Y+006890
X+004588Y+007140
X+004475Y+007140
X+004325Y+007140
X+004175Y+007140
X+004242Y+006990
X+003975Y+007015
X+003938Y+006952
X+003900Y+007015
X+003862Y+006952
X+003825Y+007015
X+003862Y+007077
X+003938Y+007077
X+003675Y+007090
X+003675Y+006990
X+003425Y+007015
X+003388Y+006952
X+003350Y+007015
X+003312Y+007077
X+003275Y+007015
X+003312Y+006952
X+003388Y+007077
X+003100Y+006990
X+003088Y+007140
X+003088Y+007371
X+002825Y+007365
X+002825Y+007484
X+002675Y+007484
X+002675Y+007365
X+002538Y+007365
X+002400Y+007365
X+002400Y+007490
X+002325Y+007490
X+002250Y+007490
X+002175Y+007490
X+002175Y+007577
X+002250Y+007577
X+002325Y+007577
X+002400Y+007577
X+002250Y+007365
X+002125Y+007315
X+002125Y+007240
X+002125Y+007165
X+002125Y+007090
X+002125Y+007015
X+002125Y+006940
X+002125Y+006865
X+002125Y+006790
X+002038Y+006790
X+002038Y+006865
X+002038Y+006940
X+002038Y+007015
X+002038Y+007090
X+002038Y+007165
X+002038Y+007240
X+002038Y+007315
X+002250Y+007140
X+002212Y+007015
X+002212Y+006940
X+002212Y+006865
X+002212Y+006790
X+001875Y+006890
X+001525Y+006890
X+001375Y+007040
X+001375Y+007115
X+001375Y+007190
X+001375Y+007265
X+001438Y+007327
X+001225Y+007915
X+001225Y+007965
X+001200Y+008140
X+001675Y+008340
X+001675Y+008540
X+001675Y+008740
X+002250Y+008702
X+002300Y+008752
X+002350Y+008802
X+002400Y+008852
X+002450Y+008965
X+002631Y+009009
X+002605Y+009357
X+002912Y+009377
X+003200Y+009265
X+003525Y+009252
X+003575Y+009202
X+003625Y+009252
X+003375Y+008940
X+003312Y+008877
X+003250Y+008815
X+003175Y+008815
X+003250Y+008940
X+002975Y+008940
X+002975Y+008865
X+002975Y+008765
X+002888Y+008490
X+002800Y+008490
X+002625Y+008490
X+002625Y+008352
X+002562Y+008190
X+002512Y+008140
X+002438Y+008040
X+002362Y+008040
X+002288Y+008040
X+002212Y+008040
X+002638Y+008040
X+002712Y+008040
X+002788Y+008040
X+002862Y+008040
X+003088Y+008190
X+003238Y+008140
X+003350Y+008040
X+003362Y+007815
X+003362Y+007727
X+003262Y+007690
X+003088Y+007702
X+002825Y+007140
X+002675Y+007140
X+002538Y+007140
X+002400Y+007140
X+002675Y+006990
X+003585Y+005952
X+003081Y+004865
X+002681Y+004865
X+002338Y+004865
X+002395Y+005127
X+002445Y+005165
X+002395Y+005202
X+002445Y+005240
X+002395Y+005277
X+002445Y+005315
X+002395Y+005352
X+002445Y+005390
X+002395Y+005427
X+002445Y+005465
X+002212Y+005502
X+002138Y+005502
X+002062Y+005502
X+001988Y+005502
X+001912Y+005502
X+001912Y+005652
X+001988Y+005652
X+002062Y+005652
X+002138Y+005652
X+002212Y+005652
X+001462Y+005665
X+001462Y+005740
X+001388Y+005740
X+001388Y+005665
X+001388Y+005590
X+001462Y+005590
X+001462Y+005515
X+001462Y+005440
X+001388Y+005440
X+001388Y+005515
X+001525Y+004290
X+001875Y+004290
X+001863Y+003815
X+001990Y+003815
X+001737Y+003815
X+001610Y+003815
X+001483Y+003815
X+001355Y+003815
X+001088Y+003415
X+001191Y+003002
X+001238Y+002940
X+001441Y+003002
X+001691Y+003002
X+001941Y+003002
X+002191Y+003002
X+002441Y+003002
X+002691Y+003002
X+002941Y+003002
X+003191Y+003002
X+002738Y+003727
X+002245Y+002577
X+001737Y+002615
X+001638Y+002490
X+001488Y+002490
X+001355Y+002615
X+001925Y+002116
X+001925Y+001866
X+001925Y+001665
X+004138Y+008040
X+004212Y+008040
X+004288Y+008040
X+004362Y+008040
X+004569Y+008040
X+004644Y+008040
X+004719Y+008040
X+004794Y+008040
X+005225Y+007940
X+005225Y+008140
X+005225Y+008340
X+004925Y+008540
X+004462Y+008715
X+004238Y+008802
X+004368Y+008940
X+004338Y+008440
X+004338Y+008390
X+004288Y+008390
X+004288Y+008440
X+004238Y+008265
X+004388Y+008265
X+003912Y+008190
X+004850Y+009102
X+004850Y+009152
X+004912Y+009152
X+004912Y+009102
X+004912Y+009540
X+004859Y+009600
X+004896Y+009675
X+004838Y+009765
X+004717Y+009923
X+004385Y+009923
X+004198Y+010140
X+004304Y+010202
X+004200Y+010277
X+004150Y+010415
X+004375Y+010415
X+004375Y+010790
X+004375Y+010927
X+004188Y+010790
X+004112Y+010790
X+003912Y+011077
X+003775Y+011152
X+003650Y+011240
X+003638Y+011465
X+003638Y+011552
X+003750Y+011615
X+003912Y+011577
X+003912Y+011909
X+003912Y+012140
X+003900Y+012290
X+003725Y+012265
X+003688Y+012202
X+003650Y+012265
X+003612Y+012202
X+003575Y+012265
X+003612Y+012327
X+003688Y+012327
X+003340Y+012290
X+003327Y+012190
X+002762Y+012290
X+004175Y+012140
X+004325Y+012140
X+004475Y+012140
X+004600Y+012140
X+004750Y+012140
X+004812Y+012265
X+004812Y+012340
X+004812Y+012415
X+004812Y+012490
X+004900Y+012490
X+004900Y+012415
X+004900Y+012340
X+004900Y+012265
X+004900Y+012190
X+004900Y+012115
X+004900Y+012040
X+004900Y+011965
X+004988Y+011965
X+004988Y+012040
X+004988Y+012115
X+004988Y+012190
X+004988Y+012265
X+004988Y+012340
X+004988Y+012415
X+004988Y+012490
X+005125Y+012415
X+005475Y+012415
X+004750Y+011915
X+004750Y+011802
X+004750Y+011727
X+004675Y+011727
X+004600Y+011727
X+004600Y+011802
X+004675Y+011802
X+004600Y+011915
X+004475Y+011915
X+004325Y+011915
X+004325Y+011802
X+004175Y+011802
X+004175Y+011915
X+004325Y+012290
X+004825Y+011802
X+004825Y+011727
X+004794Y+011240
X+004719Y+011240
X+004644Y+011240
X+004569Y+011240
X+004362Y+011240
X+004288Y+011240
X+004212Y+011240
X+004138Y+011240
X+004850Y+010565
X+004850Y+010515
X+004900Y+010515
X+004900Y+010565
X+005042Y+009529
X+005362Y+008902
X+003800Y+010015
X+003275Y+009890
X+003225Y+009940
X+003250Y+010340
X+002762Y+010477
X+002625Y+010340
X+002550Y+010515
X+002112Y+010702
X+002112Y+010752
X+002050Y+010752
X+002050Y+010702
X+002075Y+009765
X+002025Y+009715
X+002125Y+009615
X+002063Y+009516
X+001893Y+009515
X+002280Y+009357
X+001462Y+013540
X+001462Y+013615
X+001462Y+013690
X+001462Y+013765
X+001462Y+013840
X+001388Y+013840
X+001388Y+013765
X+001388Y+013690
X+001388Y+013615
X+001388Y+013540
X+001525Y+015015
X+001875Y+015015
X+001525Y+015627
X+001525Y+015702
X+001450Y+015702
X+001450Y+015627
X+001450Y+015827
X+001450Y+015902
X+001525Y+015902
X+001525Y+015827
X+001660Y+015765
X+002019Y+015765
X+002075Y+015765
X+002131Y+015765
X+002188Y+015765
X+002244Y+015765
X+002325Y+015877
X+002388Y+015877
X+002388Y+015952
X+002325Y+015952
X+002462Y+015952
X+002525Y+015952
X+002525Y+015877
X+002462Y+015877
X+002425Y+015765
X+002562Y+016240
X+002675Y+016240
X+002875Y+016490
X+002950Y+016490
X+003025Y+016490
X+003100Y+016490
X+003175Y+016490
X+003500Y+016940
X+003500Y+017002
X+003500Y+017065
X+003750Y+016565
X+003750Y+016490
X+003750Y+016415
X+003750Y+016340
X+003750Y+016265
X+003850Y+016265
X+003850Y+016340
X+003850Y+016415
X+003850Y+016490
X+003850Y+016565
X+003950Y+016565
X+003950Y+016490
X+003950Y+016415
X+003950Y+016340
X+003950Y+016265
X+004050Y+016265
X+004050Y+016340
X+004050Y+016415
X+004050Y+016490
X+004050Y+016565
X+004575Y+016065
X+004756Y+016065
X+004812Y+016065
X+004869Y+016065
X+004925Y+016065
X+004981Y+016065
X+005340Y+016065
X+005188Y+017052
X+005125Y+015015
X+005475Y+015015
X+005562Y+013840
X+005562Y+013765
X+005562Y+013690
X+005638Y+013690
X+005638Y+013765
X+005638Y+013840
X+005638Y+013615
X+005638Y+013540
X+005562Y+013540
X+005562Y+013615
X+003650Y+015252
X+003575Y+015252
X+003500Y+015252
X+003425Y+015252
X+003350Y+015252
X+003350Y+015340
X+003425Y+015340
X+003500Y+015340
X+003575Y+015340
X+003650Y+015340
X+002450Y+016490
X+002375Y+016490
X+002300Y+016490
X+002225Y+016490
X+002150Y+016490
X+001812Y+017052
T02
X+001563Y+017078
X+001630Y+016915
X+001563Y+016752
X+001400Y+016685
X+001237Y+016752
X+001170Y+016915
X+001237Y+017078
X+001400Y+017145
X+005370Y+016915
X+005437Y+017078
X+005600Y+017145
X+005763Y+017078
X+005830Y+016915
X+005763Y+016752
X+005600Y+016685
X+005437Y+016752
T03
X+001950Y+006415
X+001450Y+006415
X+001450Y+004765
X+001950Y+004765
X+005050Y+004765
X+005550Y+004765
X+005550Y+006415
X+005050Y+006415
X+005050Y+012865
X+005550Y+012865
X+005550Y+014515
X+005050Y+014515
X+003677Y+015913
X+003323Y+016267
X+001950Y+014515
X+001450Y+014515
X+001450Y+012865
X+001950Y+012865
T04
X+004820Y+016960
X+004570Y+016960
X+005625Y+011415
X+005625Y+011165
X+005625Y+010915
X+005625Y+010665
X+005625Y+010415
X+005625Y+010165
X+005625Y+009915
X+005625Y+009665
X+005625Y+009415
X+001375Y+009415
X+001375Y+009665
X+001375Y+009915
X+001375Y+010165
X+001375Y+010415
X+001375Y+010665
X+001375Y+010915
X+001375Y+011165
X+001375Y+011415
T05
X+002498Y+016853
X+002102Y+016852
T06
X+004094Y+014890
X+003698Y+014890
X+003302Y+014890
X+002906Y+014890
X+002906Y+004390
X+003302Y+004390
X+003698Y+004390
X+004094Y+004390
T07
X+001400Y+016915
X+005600Y+016915
T08
X+003500Y+011890
X+003500Y+007390
T00
M30
