G04 DipTrace 5.2.0.4*
G04 TopAssembly.gbr*
%MOMM*%
G04 #@! TF.FileFunction,Drawing,Top*
G04 #@! TF.Part,Single*
%ADD10C,0.1*%
%ADD13C,0.12*%
%ADD20C,0.2*%
%ADD29C,0.5*%
%ADD30C,0.2*%
%ADD36C,0.127*%
%ADD48C,0.075*%
%ADD87C,0.07843*%
%ADD91C,0.27451*%
%ADD92C,0.19608*%
%ADD93C,0.11765*%
%FSLAX35Y35*%
G04*
G71*
G90*
G75*
G01*
G04 TopAssy*
%LPD*%
X2559996Y15935003D2*
D13*
X2289996Y15934997D1*
X2290004Y15594997D1*
X2560004Y15595003D1*
X2559996Y15935003D1*
X3135500Y7978000D2*
X3039500D1*
Y7802000D1*
X3135500D1*
Y7978000D1*
X3473000D2*
X3377000D1*
Y7802000D1*
X3473000D1*
Y7978000D1*
X2464500Y4655000D2*
X2610500D1*
Y4875000D1*
X2464500D1*
Y4655000D1*
X3313001Y4817002D2*
X3312999Y4913002D1*
X3136999Y4912998D1*
X3137001Y4816998D1*
X3313001Y4817002D1*
X1777004Y15676998D2*
X1873004Y15677002D1*
X1872996Y15853002D1*
X1776996Y15852998D1*
X1777004Y15676998D1*
X2913002Y4817005D2*
X2912998Y4913005D1*
X2736998Y4912995D1*
X2737002Y4816995D1*
X2913002Y4817005D1*
X3039502Y7308249D2*
X3135502Y7308251D1*
X3135498Y7484251D1*
X3039498Y7484249D1*
X3039502Y7308249D1*
X1039978Y7074978D2*
X2359978Y7075022D1*
X2360013Y6020022D1*
X2096022Y5755013D1*
X1304022Y5754987D1*
X1040013Y6019978D1*
X1039978Y7074978D1*
X1025000Y6415000D2*
G02X1025000Y6415000I675000J0D01*
G01*
G36*
X2279643Y5885398D2*
X2279215Y5878872D1*
X2277940Y5872457D1*
X2275837Y5866264D1*
X2272945Y5860398D1*
X2269312Y5854960D1*
X2264999Y5850042D1*
X2260082Y5845730D1*
X2254644Y5842096D1*
X2248779Y5839203D1*
X2242586Y5837100D1*
X2236171Y5835824D1*
X2229645Y5835396D1*
X2223118Y5835824D1*
X2216704Y5837099D1*
X2210510Y5839201D1*
X2204644Y5842094D1*
X2199206Y5845727D1*
X2194289Y5850039D1*
X2189976Y5854957D1*
X2186342Y5860395D1*
X2183450Y5866260D1*
X2181347Y5872453D1*
X2180071Y5878868D1*
X2179643Y5885394D1*
D1*
X2180070Y5891921D1*
X2181346Y5898335D1*
X2183448Y5904529D1*
X2186341Y5910395D1*
X2189974Y5915833D1*
X2194286Y5920750D1*
X2199203Y5925063D1*
X2204641Y5928696D1*
X2210507Y5931589D1*
X2216700Y5933692D1*
X2223115Y5934968D1*
X2229641Y5935396D1*
X2236167Y5934969D1*
X2242582Y5933693D1*
X2248775Y5931591D1*
X2254641Y5928698D1*
X2260079Y5925065D1*
X2264997Y5920753D1*
X2269309Y5915836D1*
X2272943Y5910398D1*
X2275836Y5904532D1*
X2277939Y5898339D1*
X2279215Y5891924D1*
X2279643Y5885398D1*
D1*
G37*
X2360017Y4105017D2*
D13*
X1040017Y4104983D1*
X1039990Y5159983D1*
X1303983Y5424990D1*
X2095983Y5425010D1*
X2359990Y5160017D1*
X2360017Y4105017D1*
X1464998Y15737997D2*
X1465002Y15591997D1*
X1685002Y15592003D1*
X1684998Y15738003D1*
X1464998Y15737997D1*
Y15937997D2*
X1465002Y15791997D1*
X1685002Y15792003D1*
X1684998Y15938003D1*
X1464998Y15937997D1*
X1025000Y4765000D2*
G02X1025000Y4765000I675000J0D01*
G01*
G36*
X2279643Y4235398D2*
X2279215Y4228872D1*
X2277940Y4222457D1*
X2275837Y4216264D1*
X2272945Y4210398D1*
X2269312Y4204960D1*
X2264999Y4200042D1*
X2260082Y4195730D1*
X2254644Y4192096D1*
X2248779Y4189203D1*
X2242586Y4187100D1*
X2236171Y4185824D1*
X2229645Y4185396D1*
X2223118Y4185824D1*
X2216704Y4187099D1*
X2210510Y4189201D1*
X2204644Y4192094D1*
X2199206Y4195727D1*
X2194289Y4200039D1*
X2189976Y4204957D1*
X2186342Y4210395D1*
X2183450Y4216260D1*
X2181347Y4222453D1*
X2180071Y4228868D1*
X2179643Y4235394D1*
D1*
X2180070Y4241921D1*
X2181346Y4248335D1*
X2183448Y4254529D1*
X2186341Y4260395D1*
X2189974Y4265833D1*
X2194286Y4270750D1*
X2199203Y4275063D1*
X2204641Y4278696D1*
X2210507Y4281589D1*
X2216700Y4283692D1*
X2223115Y4284968D1*
X2229641Y4285396D1*
X2236167Y4284969D1*
X2242582Y4283693D1*
X2248775Y4281591D1*
X2254641Y4278698D1*
X2260079Y4275065D1*
X2264997Y4270753D1*
X2269309Y4265836D1*
X2272943Y4260398D1*
X2275836Y4254532D1*
X2277939Y4248339D1*
X2279215Y4241924D1*
X2279643Y4235398D1*
D1*
G37*
X2840053Y15429947D2*
D13*
X2839947Y16749947D1*
X3894947Y16750032D1*
X4159968Y16486053D1*
X4160032Y15694053D1*
X3895053Y15430032D1*
X2840053Y15429947D1*
X2825000Y16090000D2*
G02X2825000Y16090000I675000J0D01*
G01*
G36*
X3535371Y15305645D2*
X3530454Y15301332D1*
X3525016Y15297699D1*
X3519150Y15294806D1*
X3512957Y15292703D1*
X3506542Y15291427D1*
X3500016Y15290999D1*
X3493490Y15291427D1*
X3487075Y15292703D1*
X3480882Y15294805D1*
X3475016Y15297698D1*
X3469578Y15301331D1*
X3464661Y15305643D1*
X3460348Y15310561D1*
X3456714Y15315999D1*
X3453822Y15321864D1*
X3451719Y15328058D1*
X3450443Y15334472D1*
X3450015Y15340998D1*
X3450443Y15347525D1*
X3451719Y15353939D1*
X3453821Y15360133D1*
X3456713Y15365999D1*
X3460347Y15371437D1*
X3464659Y15376354D1*
D1*
X3469576Y15380667D1*
X3475014Y15384300D1*
X3480880Y15387193D1*
X3487073Y15389296D1*
X3493488Y15390572D1*
X3500014Y15390999D1*
X3506540Y15390572D1*
X3512955Y15389296D1*
X3519148Y15387194D1*
X3525014Y15384301D1*
X3530452Y15380668D1*
X3535370Y15376356D1*
X3539682Y15371438D1*
X3543316Y15366000D1*
X3546209Y15360135D1*
X3548311Y15353941D1*
X3549587Y15347527D1*
X3550015Y15341001D1*
X3549588Y15334474D1*
X3548312Y15328060D1*
X3546209Y15321866D1*
X3543317Y15316000D1*
X3539683Y15310562D1*
X3535371Y15305645D1*
D1*
G37*
X3623000Y7978000D2*
D13*
X3527000D1*
Y7802000D1*
X3623000D1*
Y7978000D1*
X3960500D2*
X3864500D1*
Y7802000D1*
X3960500D1*
Y7978000D1*
X4389502Y4654999D2*
X4535502Y4655001D1*
X4535498Y4875001D1*
X4389498Y4874999D1*
X4389502Y4654999D1*
X3687000Y4913000D2*
Y4817000D1*
X3863000D1*
Y4913000D1*
X3687000D1*
X4086999Y4912997D2*
X4087001Y4816997D1*
X4263001Y4817003D1*
X4262999Y4913003D1*
X4086999Y4912997D1*
X4360500Y8428000D2*
X4264500D1*
Y8252000D1*
X4360500D1*
Y8428000D1*
X3864502Y7308249D2*
X3960502Y7308251D1*
X3960498Y7484251D1*
X3864498Y7484249D1*
X3864502Y7308249D1*
X5960017Y4105017D2*
X4640017Y4104983D1*
X4639990Y5159983D1*
X4903983Y5424990D1*
X5695983Y5425010D1*
X5959990Y5160017D1*
X5960017Y4105017D1*
X4625000Y4765000D2*
G02X4625000Y4765000I675000J0D01*
G01*
G36*
X4720377Y5294623D2*
X4720804Y5301150D1*
X4722080Y5307564D1*
X4724183Y5313758D1*
X4727075Y5319623D1*
X4730709Y5325061D1*
X4735021Y5329979D1*
X4739939Y5334291D1*
X4745377Y5337925D1*
X4751242Y5340817D1*
X4757436Y5342920D1*
X4763850Y5344196D1*
X4770377Y5344623D1*
X4776903Y5344196D1*
X4783318Y5342920D1*
X4789511Y5340817D1*
X4795377Y5337925D1*
X4800815Y5334291D1*
X4805732Y5329979D1*
X4810044Y5325061D1*
X4813678Y5319623D1*
X4816571Y5313758D1*
X4818673Y5307564D1*
X4819949Y5301150D1*
X4820377Y5294623D1*
D1*
X4819949Y5288097D1*
X4818673Y5281682D1*
X4816571Y5275489D1*
X4813678Y5269623D1*
X4810044Y5264185D1*
X4805732Y5259268D1*
X4800815Y5254956D1*
X4795377Y5251322D1*
X4789511Y5248429D1*
X4783318Y5246327D1*
X4776903Y5245051D1*
X4770377Y5244623D1*
X4763850Y5245051D1*
X4757436Y5246327D1*
X4751242Y5248429D1*
X4745377Y5251322D1*
X4739939Y5254956D1*
X4735021Y5259268D1*
X4730709Y5264185D1*
X4727075Y5269623D1*
X4724183Y5275489D1*
X4722080Y5281682D1*
X4720804Y5288097D1*
X4720377Y5294623D1*
D1*
G37*
X4639978Y7074978D2*
D13*
X5959978Y7075022D1*
X5960013Y6020022D1*
X5696022Y5755013D1*
X4904022Y5754987D1*
X4640013Y6019978D1*
X4639978Y7074978D1*
X4625000Y6415000D2*
G02X4625000Y6415000I675000J0D01*
G01*
G36*
X4720361Y6944606D2*
X4720789Y6951133D1*
X4722064Y6957547D1*
X4724167Y6963741D1*
X4727059Y6969606D1*
X4730693Y6975045D1*
X4735005Y6979962D1*
X4739922Y6984275D1*
X4745360Y6987908D1*
X4751226Y6990801D1*
X4757419Y6992904D1*
X4763833Y6994180D1*
X4770360Y6994608D1*
X4776886Y6994180D1*
X4783301Y6992904D1*
X4789494Y6990802D1*
X4795360Y6987910D1*
X4800798Y6984276D1*
X4805715Y6979964D1*
X4810028Y6975047D1*
X4813662Y6969609D1*
X4816555Y6963743D1*
X4818657Y6957550D1*
X4819933Y6951136D1*
X4820361Y6944609D1*
D1*
X4819934Y6938083D1*
X4818658Y6931668D1*
X4816556Y6925475D1*
X4813663Y6919609D1*
X4810030Y6914171D1*
X4805717Y6909253D1*
X4800800Y6904941D1*
X4795362Y6901307D1*
X4789497Y6898414D1*
X4783303Y6896312D1*
X4776889Y6895036D1*
X4770363Y6894608D1*
X4763836Y6895035D1*
X4757422Y6896311D1*
X4751228Y6898413D1*
X4745362Y6901306D1*
X4739924Y6904939D1*
X4735007Y6909251D1*
X4730694Y6914169D1*
X4727061Y6919606D1*
X4724168Y6925472D1*
X4722065Y6931665D1*
X4720789Y6938080D1*
X4720361Y6944606D1*
D1*
G37*
X4210500Y8428000D2*
D13*
X4114500D1*
Y8252000D1*
X4210500D1*
Y8428000D1*
X4510500D2*
X4414500D1*
Y8252000D1*
X4510500D1*
Y8428000D1*
X2863001Y8754502D2*
X2862999Y8850502D1*
X2686999Y8850498D1*
X2687001Y8754498D1*
X2863001Y8754502D1*
Y8442002D2*
X2862999Y8538002D1*
X2686999Y8537998D1*
X2687001Y8441998D1*
X2863001Y8442002D1*
X4440003Y15894998D2*
X4710003Y15895002D1*
X4709997Y16235002D1*
X4439997Y16234998D1*
X4440003Y15894998D1*
X5223000Y16153000D2*
X5127000D1*
Y15977000D1*
X5223000D1*
Y16153000D1*
X5535002Y15892002D2*
X5534998Y16038002D1*
X5314998Y16037998D1*
X5315002Y15891998D1*
X5535002Y15892002D1*
Y16092002D2*
X5534998Y16238002D1*
X5314998Y16237998D1*
X5315002Y16091998D1*
X5535002Y16092002D1*
X3864502Y11301999D2*
X3960502Y11302001D1*
X3960498Y11478001D1*
X3864498Y11477999D1*
X3864502Y11301999D1*
X3527003Y11301998D2*
X3623003Y11302002D1*
X3622997Y11478002D1*
X3526997Y11477998D1*
X3527003Y11301998D1*
X4535496Y14625003D2*
X4389496Y14624997D1*
X4389504Y14404997D1*
X4535504Y14405003D1*
X4535496Y14625003D1*
X3699499Y14462997D2*
X3699501Y14366997D1*
X3875501Y14367003D1*
X3875499Y14463003D1*
X3699499Y14462997D1*
X4124499D2*
X4124501Y14366997D1*
X4300501Y14367003D1*
X4300499Y14463003D1*
X4124499Y14462997D1*
X3960496Y11971752D2*
X3864496Y11971748D1*
X3864504Y11795748D1*
X3960504Y11795752D1*
X3960496Y11971752D1*
X5960017Y12205017D2*
X4640017Y12204983D1*
X4639990Y13259983D1*
X4903983Y13524990D1*
X5695983Y13525010D1*
X5959990Y13260017D1*
X5960017Y12205017D1*
X4625000Y12865000D2*
G02X4625000Y12865000I675000J0D01*
G01*
G36*
X4720377Y13394623D2*
X4720804Y13401150D1*
X4722080Y13407564D1*
X4724183Y13413758D1*
X4727075Y13419623D1*
X4730709Y13425061D1*
X4735021Y13429979D1*
X4739939Y13434291D1*
X4745377Y13437925D1*
X4751242Y13440817D1*
X4757436Y13442920D1*
X4763850Y13444196D1*
X4770377Y13444623D1*
X4776903Y13444196D1*
X4783318Y13442920D1*
X4789511Y13440817D1*
X4795377Y13437925D1*
X4800815Y13434291D1*
X4805732Y13429979D1*
X4810044Y13425061D1*
X4813678Y13419623D1*
X4816571Y13413758D1*
X4818673Y13407564D1*
X4819949Y13401150D1*
X4820377Y13394623D1*
D1*
X4819949Y13388097D1*
X4818673Y13381682D1*
X4816571Y13375489D1*
X4813678Y13369623D1*
X4810044Y13364185D1*
X4805732Y13359268D1*
X4800815Y13354956D1*
X4795377Y13351322D1*
X4789511Y13348429D1*
X4783318Y13346327D1*
X4776903Y13345051D1*
X4770377Y13344623D1*
X4763850Y13345051D1*
X4757436Y13346327D1*
X4751242Y13348429D1*
X4745377Y13351322D1*
X4739939Y13354956D1*
X4735021Y13359268D1*
X4730709Y13364185D1*
X4727075Y13369623D1*
X4724183Y13375489D1*
X4722080Y13381682D1*
X4720804Y13388097D1*
X4720377Y13394623D1*
D1*
G37*
X4639988Y15174988D2*
D13*
X5959988Y15175012D1*
X5960007Y14120012D1*
X5696012Y13855007D1*
X4904012Y13854993D1*
X4640007Y14119988D1*
X4639988Y15174988D1*
X4625000Y14515000D2*
G02X4625000Y14515000I675000J0D01*
G01*
G36*
X4720377Y15044623D2*
X4720804Y15051150D1*
X4722080Y15057564D1*
X4724183Y15063758D1*
X4727075Y15069623D1*
X4730709Y15075061D1*
X4735021Y15079979D1*
X4739939Y15084291D1*
X4745377Y15087925D1*
X4751242Y15090817D1*
X4757436Y15092920D1*
X4763850Y15094196D1*
X4770377Y15094623D1*
X4776903Y15094196D1*
X4783318Y15092920D1*
X4789511Y15090817D1*
X4795377Y15087925D1*
X4800815Y15084291D1*
X4805732Y15079979D1*
X4810044Y15075061D1*
X4813678Y15069623D1*
X4816571Y15063758D1*
X4818673Y15057564D1*
X4819949Y15051150D1*
X4820377Y15044623D1*
D1*
X4819949Y15038097D1*
X4818673Y15031682D1*
X4816571Y15025489D1*
X4813678Y15019623D1*
X4810044Y15014185D1*
X4805732Y15009268D1*
X4800815Y15004956D1*
X4795377Y15001322D1*
X4789511Y14998429D1*
X4783318Y14996327D1*
X4776903Y14995051D1*
X4770377Y14994623D1*
X4763850Y14995051D1*
X4757436Y14996327D1*
X4751242Y14998429D1*
X4745377Y15001322D1*
X4739939Y15004956D1*
X4735021Y15009268D1*
X4730709Y15014185D1*
X4727075Y15019623D1*
X4724183Y15025489D1*
X4722080Y15031682D1*
X4720804Y15038097D1*
X4720377Y15044623D1*
D1*
G37*
X3377003Y11301998D2*
D13*
X3473003Y11302002D1*
X3472997Y11478002D1*
X3376997Y11477998D1*
X3377003Y11301998D1*
X3039502Y11301999D2*
X3135502Y11302001D1*
X3135498Y11478001D1*
X3039498Y11477999D1*
X3039502Y11301999D1*
X2610496Y14625003D2*
X2464496Y14624997D1*
X2464504Y14404997D1*
X2610504Y14405003D1*
X2610496Y14625003D1*
X2875501Y14367002D2*
X2875499Y14463002D1*
X2699499Y14462998D1*
X2699501Y14366998D1*
X2875501Y14367002D1*
X3300502Y14367003D2*
X3300498Y14463003D1*
X3124498Y14462997D1*
X3124502Y14366997D1*
X3300502Y14367003D1*
X2652002Y10851999D2*
X2748002Y10852001D1*
X2747998Y11028001D1*
X2651998Y11027999D1*
X2652002Y10851999D1*
X3135498Y11971751D2*
X3039498Y11971749D1*
X3039502Y11795749D1*
X3135502Y11795751D1*
X3135498Y11971751D1*
X2360017Y12205017D2*
X1040017Y12204983D1*
X1039990Y13259983D1*
X1303983Y13524990D1*
X2095983Y13525010D1*
X2359990Y13260017D1*
X2360017Y12205017D1*
X1025000Y12865000D2*
G02X1025000Y12865000I675000J0D01*
G01*
G36*
X2279635Y12335389D2*
X2279207Y12328863D1*
X2277932Y12322448D1*
X2275829Y12316255D1*
X2272937Y12310389D1*
X2269303Y12304951D1*
X2264991Y12300034D1*
X2260074Y12295721D1*
X2254636Y12292088D1*
X2248770Y12289195D1*
X2242577Y12287092D1*
X2236162Y12285816D1*
X2229636Y12285388D1*
X2223110Y12285816D1*
X2216695Y12287092D1*
X2210502Y12289194D1*
X2204636Y12292087D1*
X2199198Y12295720D1*
X2194280Y12300032D1*
X2189968Y12304949D1*
X2186334Y12310387D1*
X2183441Y12316253D1*
X2181339Y12322446D1*
X2180063Y12328861D1*
X2179635Y12335387D1*
D1*
X2180063Y12341914D1*
X2181338Y12348328D1*
X2183441Y12354521D1*
X2186333Y12360387D1*
X2189967Y12365826D1*
X2194279Y12370743D1*
X2199196Y12375055D1*
X2204634Y12378689D1*
X2210500Y12381582D1*
X2216693Y12383684D1*
X2223108Y12384960D1*
X2229634Y12385388D1*
X2236160Y12384961D1*
X2242575Y12383685D1*
X2248768Y12381583D1*
X2254634Y12378690D1*
X2260072Y12375057D1*
X2264990Y12370744D1*
X2269302Y12365827D1*
X2272936Y12360389D1*
X2275829Y12354524D1*
X2277931Y12348330D1*
X2279207Y12341916D1*
X2279635Y12335389D1*
D1*
G37*
X1039988Y15174988D2*
D13*
X2359988Y15175012D1*
X2360007Y14120012D1*
X2096012Y13855007D1*
X1304012Y13854993D1*
X1040007Y14119988D1*
X1039988Y15174988D1*
X1025000Y14515000D2*
G02X1025000Y14515000I675000J0D01*
G01*
G36*
X2279635Y13985389D2*
X2279207Y13978863D1*
X2277932Y13972448D1*
X2275829Y13966255D1*
X2272937Y13960389D1*
X2269303Y13954951D1*
X2264991Y13950034D1*
X2260074Y13945721D1*
X2254636Y13942088D1*
X2248770Y13939195D1*
X2242577Y13937092D1*
X2236162Y13935816D1*
X2229636Y13935388D1*
X2223110Y13935816D1*
X2216695Y13937092D1*
X2210502Y13939194D1*
X2204636Y13942087D1*
X2199198Y13945720D1*
X2194280Y13950032D1*
X2189968Y13954949D1*
X2186334Y13960387D1*
X2183441Y13966253D1*
X2181339Y13972446D1*
X2180063Y13978861D1*
X2179635Y13985387D1*
D1*
X2180063Y13991914D1*
X2181338Y13998328D1*
X2183441Y14004521D1*
X2186333Y14010387D1*
X2189967Y14015826D1*
X2194279Y14020743D1*
X2199196Y14025055D1*
X2204634Y14028689D1*
X2210500Y14031582D1*
X2216693Y14033684D1*
X2223108Y14034960D1*
X2229634Y14035388D1*
X2236160Y14034961D1*
X2242575Y14033685D1*
X2248768Y14031583D1*
X2254634Y14028690D1*
X2260072Y14025057D1*
X2264990Y14020744D1*
X2269302Y14015827D1*
X2272936Y14010389D1*
X2275829Y14004524D1*
X2277931Y13998330D1*
X2279207Y13991916D1*
X2279635Y13985389D1*
D1*
G37*
X2802004Y10851998D2*
D13*
X2898004Y10852002D1*
X2897996Y11028002D1*
X2801996Y11027998D1*
X2802004Y10851998D1*
X2502003D2*
X2598003Y10852002D1*
X2597997Y11028002D1*
X2501997Y11027998D1*
X2502003Y10851998D1*
X4137000Y10463000D2*
Y10367000D1*
X4313000D1*
Y10463000D1*
X4137000D1*
Y10838000D2*
Y10742000D1*
X4313000D1*
Y10838000D1*
X4137000D1*
X2687000Y8713000D2*
Y8617000D1*
X2863000D1*
Y8713000D1*
X2687000D1*
Y8400500D2*
Y8304500D1*
X2863000D1*
Y8400500D1*
X2687000D1*
X4313002Y10567003D2*
X4312998Y10663003D1*
X4136998Y10662997D1*
X4137002Y10566997D1*
X4313002Y10567003D1*
X4313000Y10879500D2*
Y10975500D1*
X4137000D1*
Y10879500D1*
X4313000D1*
X3377000Y9339500D2*
X3473000D1*
Y9515500D1*
X3377000D1*
Y9339500D1*
X3623000Y9940500D2*
X3527000D1*
Y9764500D1*
X3623000D1*
Y9940500D1*
X3060500Y2553000D2*
X2964500D1*
Y2377000D1*
X3060500D1*
Y2553000D1*
X2910500Y3740500D2*
X2814500D1*
Y3564500D1*
X2910500D1*
Y3740500D1*
X1385500Y2553000D2*
X1289500D1*
Y2377000D1*
X1385500D1*
Y2553000D1*
X1299500Y3963000D2*
Y3867000D1*
X1475500D1*
Y3963000D1*
X1299500D1*
X4803500Y2540500D2*
X4707500D1*
Y2364500D1*
X4803500D1*
Y2540500D1*
X4741999Y3962997D2*
X4742001Y3866997D1*
X4918001Y3867003D1*
X4917999Y3963003D1*
X4741999Y3962997D1*
X2352000Y9405500D2*
Y9309500D1*
X2528000D1*
Y9405500D1*
X2352000D1*
X4643001Y9874502D2*
X4642999Y9970502D1*
X4466999Y9970498D1*
X4467001Y9874498D1*
X4643001Y9874502D1*
X1285000Y15395000D2*
X1325000D1*
X1365000Y15435000D1*
Y15635000D1*
X1285000D1*
Y15395000D1*
X2660004Y2344999D2*
X2700004Y2345000D1*
X2740003Y2385001D1*
X2739996Y2585001D1*
X2659996Y2584999D1*
X2660004Y2344999D1*
X5635004Y15394999D2*
X5675004Y15395000D1*
X5715003Y15435001D1*
X5714996Y15635001D1*
X5634996Y15634999D1*
X5635004Y15394999D1*
X1370007Y15850005D2*
X1183007Y15849998D1*
X1090004Y15942995D1*
X1089993Y16299995D1*
X1369993Y16300005D1*
X1370007Y15850005D1*
X5915004Y15850003D2*
X5728004Y15849999D1*
X5635002Y15942997D1*
X5634996Y16299997D1*
X5914996Y16300003D1*
X5915004Y15850003D1*
X4325006Y16312490D2*
X4324998Y16499490D1*
X4417994Y16592494D1*
X4774994Y16592510D1*
X4775006Y16312510D1*
X4325006Y16312490D1*
X4289000Y14690000D2*
D36*
X4151000D1*
G36*
X4355000Y14910000D2*
X4357611Y14909829D1*
X4360176Y14909319D1*
X4362654Y14908478D1*
X4365000Y14907321D1*
X4367175Y14905867D1*
X4369142Y14904142D1*
X4370867Y14902175D1*
X4372321Y14900000D1*
X4373478Y14897654D1*
X4374319Y14895176D1*
X4374829Y14892611D1*
X4375000Y14890000D1*
X4374829Y14887389D1*
X4374319Y14884824D1*
X4373478Y14882346D1*
X4372320Y14880000D1*
X4370867Y14877825D1*
X4369142Y14875858D1*
X4367175Y14874133D1*
X4365000Y14872679D1*
X4362654Y14871522D1*
X4360176Y14870681D1*
X4357610Y14870171D1*
X4355000Y14870000D1*
D1*
X4352389Y14870171D1*
X4349824Y14870681D1*
X4347346Y14871522D1*
X4345000Y14872679D1*
X4342825Y14874133D1*
X4340858Y14875858D1*
X4339133Y14877825D1*
X4337679Y14880000D1*
X4336522Y14882346D1*
X4335681Y14884824D1*
X4335171Y14887389D1*
X4335000Y14890000D1*
X4335171Y14892611D1*
X4335681Y14895176D1*
X4336522Y14897654D1*
X4337679Y14900000D1*
X4339133Y14902175D1*
X4340858Y14904142D1*
X4342825Y14905867D1*
X4345000Y14907320D1*
X4347346Y14908478D1*
X4349824Y14909319D1*
X4352389Y14909829D1*
X4355000Y14910000D1*
D1*
G37*
X4289000Y14690000D2*
D36*
Y15370000D1*
X2711000D1*
Y14690000D1*
X2849000Y14520000D2*
X4151000D1*
Y14690000D2*
Y14520000D1*
X2849000D2*
Y14690000D1*
X2711000D1*
X1050006Y7642490D2*
D13*
X1049981Y9037490D1*
X1549981Y9037499D1*
X1550004Y7742499D1*
X1450006Y7642497D1*
X1050006Y7642490D1*
X5950000Y9037500D2*
Y7642500D1*
X5450000D1*
Y8937500D1*
X5550000Y9037500D1*
X5950000D1*
X2711000Y4590000D2*
D36*
X2849000D1*
G36*
X2645000Y4370000D2*
X2642389Y4370171D1*
X2639824Y4370681D1*
X2637346Y4371522D1*
X2635000Y4372679D1*
X2632825Y4374133D1*
X2630858Y4375858D1*
X2629133Y4377825D1*
X2627679Y4380000D1*
X2626522Y4382346D1*
X2625681Y4384824D1*
X2625171Y4387389D1*
X2625000Y4390000D1*
X2625171Y4392611D1*
X2625681Y4395176D1*
X2626522Y4397654D1*
X2627680Y4400000D1*
X2629133Y4402175D1*
X2630858Y4404142D1*
X2632825Y4405867D1*
X2635000Y4407321D1*
X2637346Y4408478D1*
X2639824Y4409319D1*
X2642390Y4409829D1*
X2645000Y4410000D1*
D1*
X2647611Y4409829D1*
X2650176Y4409319D1*
X2652654Y4408478D1*
X2655000Y4407321D1*
X2657175Y4405867D1*
X2659142Y4404142D1*
X2660867Y4402175D1*
X2662321Y4400000D1*
X2663478Y4397654D1*
X2664319Y4395176D1*
X2664829Y4392611D1*
X2665000Y4390000D1*
X2664829Y4387389D1*
X2664319Y4384824D1*
X2663478Y4382346D1*
X2662321Y4380000D1*
X2660867Y4377825D1*
X2659142Y4375858D1*
X2657175Y4374133D1*
X2655000Y4372680D1*
X2652654Y4371522D1*
X2650176Y4370681D1*
X2647611Y4370171D1*
X2645000Y4370000D1*
D1*
G37*
X2711000Y4590000D2*
D36*
Y3910000D1*
X4289000D1*
Y4590000D1*
X4151000Y4760000D2*
X2849000D1*
Y4590000D2*
Y4760000D1*
X4151000D2*
Y4590000D1*
X4289000D1*
X4965000Y17300500D2*
D13*
X5065000Y17200500D1*
Y16724500D1*
X4325000D1*
Y17300500D1*
X4965000D1*
G36*
X2770001Y16852516D2*
X2769830Y16849906D1*
X2769320Y16847340D1*
X2768479Y16844863D1*
X2767322Y16842516D1*
X2765868Y16840341D1*
X2764144Y16838374D1*
X2762177Y16836649D1*
X2760002Y16835195D1*
X2757655Y16834038D1*
X2755178Y16833197D1*
X2752612Y16832687D1*
X2750002Y16832516D1*
X2747391Y16832687D1*
X2744825Y16833197D1*
X2742348Y16834038D1*
X2740002Y16835195D1*
X2737826Y16836648D1*
X2735859Y16838373D1*
X2734134Y16840340D1*
X2732681Y16842515D1*
X2731524Y16844861D1*
X2730683Y16847338D1*
X2730172Y16849904D1*
X2730001Y16852515D1*
D1*
X2730172Y16855125D1*
X2730682Y16857691D1*
X2731523Y16860169D1*
X2732680Y16862515D1*
X2734133Y16864690D1*
X2735858Y16866657D1*
X2737825Y16868382D1*
X2740000Y16869836D1*
X2742347Y16870993D1*
X2744824Y16871834D1*
X2747390Y16872344D1*
X2750000Y16872516D1*
X2752611Y16872345D1*
X2755177Y16871834D1*
X2757654Y16870993D1*
X2760000Y16869836D1*
X2762176Y16868383D1*
X2764143Y16866658D1*
X2765868Y16864691D1*
X2767321Y16862516D1*
X2768478Y16860170D1*
X2769319Y16857693D1*
X2769830Y16855127D1*
X2770001Y16852516D1*
D1*
G37*
X2573016Y16452509D2*
D36*
X2573008Y16652509D1*
X2027008Y16652489D2*
X2027016Y16452489D1*
X2573016Y16452509D1*
X2693008Y16652513D2*
X2692984Y17302513D1*
X1906984Y17302485D1*
X1907008Y16652485D1*
X2027008Y16652489D1*
X2573008Y16652509D2*
X2693008Y16652513D1*
X4120000Y1000000D2*
D13*
X5165000D1*
X3880000D2*
X1835000D1*
X1785000Y620000D2*
D48*
Y1070000D1*
X5215000Y1050000D2*
D13*
Y2092500D1*
X5165000Y1000000D2*
X5215000Y1050000D1*
X1835000Y1000000D2*
X1785000Y1050000D1*
Y2315000D1*
X1000000D2*
X6000000D1*
X1785000D2*
D10*
X1420000D1*
Y800000D1*
X5580000D1*
Y2092500D1*
X3905000Y1745000D2*
D13*
G02X4095000Y1745000I95000J0D01*
G01*
Y1027500D1*
X3905000Y1745000D2*
Y1020000D1*
X4120000Y1000000D2*
G02X4095000Y1025000I3J25003D01*
G01*
X3905000D2*
G02X3880000Y1000000I-25003J3D01*
G01*
X5580000Y2092500D2*
G03X5215000Y2092500I-182500J0D01*
G01*
X3050000Y670000D2*
D48*
X1785000D1*
X1835000Y720000D1*
X1785000Y670000D2*
X1835000Y620000D1*
X4240000Y670000D2*
X5215000D1*
X5165000Y620000D1*
Y720000D2*
X5215000Y670000D1*
Y625000D2*
Y1075000D1*
X1034495Y11559988D2*
D13*
X1134492Y11659991D1*
X1610492Y11660007D1*
X1610574Y9170007D1*
X1034574Y9169988D1*
X1034495Y11559988D1*
X5965506Y9270014D2*
X5865510Y9170010D1*
X5389510Y9169991D1*
X5389410Y11659991D1*
X5965410Y11660014D1*
X5965506Y9270014D1*
X1860008Y16005008D2*
X1859992Y16425008D1*
X1439992Y16424992D1*
X1440008Y16004992D1*
X1860008Y16005008D1*
X5140000Y15825000D2*
Y15405000D1*
X5560000D1*
Y15825000D1*
X5140000D1*
X1000000Y16915000D2*
G02X1000000Y16915000I400000J0D01*
G01*
G36*
X1400000Y16905000D2*
X1398695Y16905086D1*
X1397412Y16905341D1*
X1396173Y16905761D1*
X1395000Y16906340D1*
X1393912Y16907066D1*
X1392929Y16907929D1*
X1392066Y16908912D1*
X1391340Y16910000D1*
X1390761Y16911173D1*
X1390341Y16912412D1*
X1390086Y16913695D1*
X1390000Y16915000D1*
X1390086Y16916305D1*
X1390341Y16917588D1*
X1390761Y16918827D1*
X1391340Y16920000D1*
X1392066Y16921088D1*
X1392929Y16922071D1*
X1393912Y16922934D1*
X1395000Y16923660D1*
X1396173Y16924239D1*
X1397412Y16924659D1*
X1398695Y16924914D1*
X1400000Y16925000D1*
D1*
X1401305Y16924914D1*
X1402588Y16924659D1*
X1403827Y16924239D1*
X1405000Y16923660D1*
X1406088Y16922934D1*
X1407071Y16922071D1*
X1407934Y16921088D1*
X1408660Y16920000D1*
X1409239Y16918827D1*
X1409659Y16917588D1*
X1409914Y16916305D1*
X1410000Y16915000D1*
X1409914Y16913695D1*
X1409659Y16912412D1*
X1409239Y16911173D1*
X1408660Y16910000D1*
X1407934Y16908912D1*
X1407071Y16907929D1*
X1406088Y16907066D1*
X1405000Y16906340D1*
X1403827Y16905761D1*
X1402588Y16905341D1*
X1401305Y16905086D1*
X1400000Y16905000D1*
D1*
G37*
X5200000Y16915000D2*
D13*
G02X5200000Y16915000I400000J0D01*
G01*
G36*
X5600000Y16905000D2*
X5598695Y16905086D1*
X5597412Y16905341D1*
X5596173Y16905761D1*
X5595000Y16906340D1*
X5593912Y16907066D1*
X5592929Y16907929D1*
X5592066Y16908912D1*
X5591340Y16910000D1*
X5590761Y16911173D1*
X5590341Y16912412D1*
X5590086Y16913695D1*
X5590000Y16915000D1*
X5590086Y16916305D1*
X5590341Y16917588D1*
X5590761Y16918827D1*
X5591340Y16920000D1*
X5592066Y16921088D1*
X5592929Y16922071D1*
X5593912Y16922934D1*
X5595000Y16923660D1*
X5596173Y16924239D1*
X5597412Y16924659D1*
X5598695Y16924914D1*
X5600000Y16925000D1*
D1*
X5601305Y16924914D1*
X5602588Y16924659D1*
X5603827Y16924239D1*
X5605000Y16923660D1*
X5606088Y16922934D1*
X5607071Y16922071D1*
X5607934Y16921088D1*
X5608660Y16920000D1*
X5609239Y16918827D1*
X5609659Y16917588D1*
X5609914Y16916305D1*
X5610000Y16915000D1*
X5609914Y16913695D1*
X5609659Y16912412D1*
X5609239Y16911173D1*
X5608660Y16910000D1*
X5607934Y16908912D1*
X5607071Y16907929D1*
X5606088Y16907066D1*
X5605000Y16906340D1*
X5603827Y16905761D1*
X5602588Y16905341D1*
X5601305Y16905086D1*
X5600000Y16905000D1*
D1*
G37*
X2400000Y5652500D2*
D36*
X2890000D1*
Y5077500D1*
X2400000D1*
Y5652500D1*
G36*
X2835500Y5834000D2*
X2838111Y5833829D1*
X2840676Y5833319D1*
X2843154Y5832478D1*
X2845500Y5831321D1*
X2847675Y5829867D1*
X2849642Y5828142D1*
X2851367Y5826175D1*
X2852821Y5824000D1*
X2853978Y5821654D1*
X2854819Y5819176D1*
X2855329Y5816611D1*
X2855500Y5814000D1*
X2855329Y5811389D1*
X2854819Y5808824D1*
X2853978Y5806346D1*
X2852821Y5804000D1*
X2851367Y5801825D1*
X2849642Y5799858D1*
X2847675Y5798133D1*
X2845500Y5796679D1*
X2843154Y5795522D1*
X2840676Y5794681D1*
X2838111Y5794171D1*
X2835500Y5794000D1*
D1*
X2832889Y5794171D1*
X2830324Y5794681D1*
X2827846Y5795522D1*
X2825500Y5796679D1*
X2823325Y5798133D1*
X2821358Y5799858D1*
X2819633Y5801825D1*
X2818179Y5804000D1*
X2817022Y5806346D1*
X2816181Y5808824D1*
X2815671Y5811389D1*
X2815500Y5814000D1*
X2815671Y5816611D1*
X2816181Y5819176D1*
X2817022Y5821654D1*
X2818179Y5824000D1*
X2819633Y5826175D1*
X2821358Y5828142D1*
X2823325Y5829867D1*
X2825500Y5831321D1*
X2827846Y5832478D1*
X2830324Y5833319D1*
X2832889Y5833829D1*
X2835500Y5834000D1*
D1*
G37*
X2400000Y6802500D2*
D36*
X2890000D1*
Y6227500D1*
X2400000D1*
Y6802500D1*
G36*
X2835500Y6984000D2*
X2838111Y6983829D1*
X2840676Y6983319D1*
X2843154Y6982478D1*
X2845500Y6981321D1*
X2847675Y6979867D1*
X2849642Y6978142D1*
X2851367Y6976175D1*
X2852821Y6974000D1*
X2853978Y6971654D1*
X2854819Y6969176D1*
X2855329Y6966611D1*
X2855500Y6964000D1*
X2855329Y6961389D1*
X2854819Y6958824D1*
X2853978Y6956346D1*
X2852821Y6954000D1*
X2851367Y6951825D1*
X2849642Y6949858D1*
X2847675Y6948133D1*
X2845500Y6946679D1*
X2843154Y6945522D1*
X2840676Y6944681D1*
X2838111Y6944171D1*
X2835500Y6944000D1*
D1*
X2832889Y6944171D1*
X2830324Y6944681D1*
X2827846Y6945522D1*
X2825500Y6946679D1*
X2823325Y6948133D1*
X2821358Y6949858D1*
X2819633Y6951825D1*
X2818179Y6954000D1*
X2817022Y6956346D1*
X2816181Y6958824D1*
X2815671Y6961389D1*
X2815500Y6964000D1*
X2815671Y6966611D1*
X2816181Y6969176D1*
X2817022Y6971654D1*
X2818179Y6974000D1*
X2819633Y6976175D1*
X2821358Y6978142D1*
X2823325Y6979867D1*
X2825500Y6981321D1*
X2827846Y6982478D1*
X2830324Y6983319D1*
X2832889Y6983829D1*
X2835500Y6984000D1*
D1*
G37*
X2970000Y5652500D2*
D36*
X3460000D1*
Y5077500D1*
X2970000D1*
Y5652500D1*
G36*
X3405500Y5834000D2*
X3408111Y5833829D1*
X3410676Y5833319D1*
X3413154Y5832478D1*
X3415500Y5831321D1*
X3417675Y5829867D1*
X3419642Y5828142D1*
X3421367Y5826175D1*
X3422821Y5824000D1*
X3423978Y5821654D1*
X3424819Y5819176D1*
X3425329Y5816611D1*
X3425500Y5814000D1*
X3425329Y5811389D1*
X3424819Y5808824D1*
X3423978Y5806346D1*
X3422821Y5804000D1*
X3421367Y5801825D1*
X3419642Y5799858D1*
X3417675Y5798133D1*
X3415500Y5796679D1*
X3413154Y5795522D1*
X3410676Y5794681D1*
X3408111Y5794171D1*
X3405500Y5794000D1*
D1*
X3402889Y5794171D1*
X3400324Y5794681D1*
X3397846Y5795522D1*
X3395500Y5796679D1*
X3393325Y5798133D1*
X3391358Y5799858D1*
X3389633Y5801825D1*
X3388179Y5804000D1*
X3387022Y5806346D1*
X3386181Y5808824D1*
X3385671Y5811389D1*
X3385500Y5814000D1*
X3385671Y5816611D1*
X3386181Y5819176D1*
X3387022Y5821654D1*
X3388179Y5824000D1*
X3389633Y5826175D1*
X3391358Y5828142D1*
X3393325Y5829867D1*
X3395500Y5831321D1*
X3397846Y5832478D1*
X3400324Y5833319D1*
X3402889Y5833829D1*
X3405500Y5834000D1*
D1*
G37*
X2970000Y6802500D2*
D36*
X3460000D1*
Y6227500D1*
X2970000D1*
Y6802500D1*
G36*
X3405500Y6984000D2*
X3408111Y6983829D1*
X3410676Y6983319D1*
X3413154Y6982478D1*
X3415500Y6981321D1*
X3417675Y6979867D1*
X3419642Y6978142D1*
X3421367Y6976175D1*
X3422821Y6974000D1*
X3423978Y6971654D1*
X3424819Y6969176D1*
X3425329Y6966611D1*
X3425500Y6964000D1*
X3425329Y6961389D1*
X3424819Y6958824D1*
X3423978Y6956346D1*
X3422821Y6954000D1*
X3421367Y6951825D1*
X3419642Y6949858D1*
X3417675Y6948133D1*
X3415500Y6946679D1*
X3413154Y6945522D1*
X3410676Y6944681D1*
X3408111Y6944171D1*
X3405500Y6944000D1*
D1*
X3402889Y6944171D1*
X3400324Y6944681D1*
X3397846Y6945522D1*
X3395500Y6946679D1*
X3393325Y6948133D1*
X3391358Y6949858D1*
X3389633Y6951825D1*
X3388179Y6954000D1*
X3387022Y6956346D1*
X3386181Y6958824D1*
X3385671Y6961389D1*
X3385500Y6964000D1*
X3385671Y6966611D1*
X3386181Y6969176D1*
X3387022Y6971654D1*
X3388179Y6974000D1*
X3389633Y6976175D1*
X3391358Y6978142D1*
X3393325Y6979867D1*
X3395500Y6981321D1*
X3397846Y6982478D1*
X3400324Y6983319D1*
X3402889Y6983829D1*
X3405500Y6984000D1*
D1*
G37*
X3540000Y5652500D2*
D36*
X4030000D1*
Y5077500D1*
X3540000D1*
Y5652500D1*
G36*
X3975500Y5834000D2*
X3978111Y5833829D1*
X3980676Y5833319D1*
X3983154Y5832478D1*
X3985500Y5831321D1*
X3987675Y5829867D1*
X3989642Y5828142D1*
X3991367Y5826175D1*
X3992821Y5824000D1*
X3993978Y5821654D1*
X3994819Y5819176D1*
X3995329Y5816611D1*
X3995500Y5814000D1*
X3995329Y5811389D1*
X3994819Y5808824D1*
X3993978Y5806346D1*
X3992821Y5804000D1*
X3991367Y5801825D1*
X3989642Y5799858D1*
X3987675Y5798133D1*
X3985500Y5796679D1*
X3983154Y5795522D1*
X3980676Y5794681D1*
X3978111Y5794171D1*
X3975500Y5794000D1*
D1*
X3972889Y5794171D1*
X3970324Y5794681D1*
X3967846Y5795522D1*
X3965500Y5796679D1*
X3963325Y5798133D1*
X3961358Y5799858D1*
X3959633Y5801825D1*
X3958179Y5804000D1*
X3957022Y5806346D1*
X3956181Y5808824D1*
X3955671Y5811389D1*
X3955500Y5814000D1*
X3955671Y5816611D1*
X3956181Y5819176D1*
X3957022Y5821654D1*
X3958179Y5824000D1*
X3959633Y5826175D1*
X3961358Y5828142D1*
X3963325Y5829867D1*
X3965500Y5831321D1*
X3967846Y5832478D1*
X3970324Y5833319D1*
X3972889Y5833829D1*
X3975500Y5834000D1*
D1*
G37*
X4610000Y13627500D2*
D36*
X4120000D1*
Y14202500D1*
X4610000D1*
Y13627500D1*
G36*
X4174500Y13446000D2*
X4171889Y13446171D1*
X4169324Y13446681D1*
X4166846Y13447522D1*
X4164500Y13448679D1*
X4162325Y13450133D1*
X4160358Y13451858D1*
X4158633Y13453825D1*
X4157179Y13456000D1*
X4156022Y13458346D1*
X4155181Y13460824D1*
X4154671Y13463389D1*
X4154500Y13466000D1*
X4154671Y13468611D1*
X4155181Y13471176D1*
X4156022Y13473654D1*
X4157179Y13476000D1*
X4158633Y13478175D1*
X4160358Y13480142D1*
X4162325Y13481867D1*
X4164500Y13483321D1*
X4166846Y13484478D1*
X4169324Y13485319D1*
X4171889Y13485829D1*
X4174500Y13486000D1*
D1*
X4177111Y13485829D1*
X4179676Y13485319D1*
X4182154Y13484478D1*
X4184500Y13483321D1*
X4186675Y13481867D1*
X4188642Y13480142D1*
X4190367Y13478175D1*
X4191821Y13476000D1*
X4192978Y13473654D1*
X4193819Y13471176D1*
X4194329Y13468611D1*
X4194500Y13466000D1*
X4194329Y13463389D1*
X4193819Y13460824D1*
X4192978Y13458346D1*
X4191821Y13456000D1*
X4190367Y13453825D1*
X4188642Y13451858D1*
X4186675Y13450133D1*
X4184500Y13448679D1*
X4182154Y13447522D1*
X4179676Y13446681D1*
X4177111Y13446171D1*
X4174500Y13446000D1*
D1*
G37*
X4600000Y12477500D2*
D36*
X4110000D1*
Y13052500D1*
X4600000D1*
Y12477500D1*
G36*
X4164500Y12296000D2*
X4161889Y12296171D1*
X4159324Y12296681D1*
X4156846Y12297522D1*
X4154500Y12298679D1*
X4152325Y12300133D1*
X4150358Y12301858D1*
X4148633Y12303825D1*
X4147179Y12306000D1*
X4146022Y12308346D1*
X4145181Y12310824D1*
X4144671Y12313389D1*
X4144500Y12316000D1*
X4144671Y12318611D1*
X4145181Y12321176D1*
X4146022Y12323654D1*
X4147179Y12326000D1*
X4148633Y12328175D1*
X4150358Y12330142D1*
X4152325Y12331867D1*
X4154500Y12333321D1*
X4156846Y12334478D1*
X4159324Y12335319D1*
X4161889Y12335829D1*
X4164500Y12336000D1*
D1*
X4167111Y12335829D1*
X4169676Y12335319D1*
X4172154Y12334478D1*
X4174500Y12333321D1*
X4176675Y12331867D1*
X4178642Y12330142D1*
X4180367Y12328175D1*
X4181821Y12326000D1*
X4182978Y12323654D1*
X4183819Y12321176D1*
X4184329Y12318611D1*
X4184500Y12316000D1*
X4184329Y12313389D1*
X4183819Y12310824D1*
X4182978Y12308346D1*
X4181821Y12306000D1*
X4180367Y12303825D1*
X4178642Y12301858D1*
X4176675Y12300133D1*
X4174500Y12298679D1*
X4172154Y12297522D1*
X4169676Y12296681D1*
X4167111Y12296171D1*
X4164500Y12296000D1*
D1*
G37*
X4030000Y13627500D2*
D36*
X3540000D1*
Y14202500D1*
X4030000D1*
Y13627500D1*
G36*
X3594500Y13446000D2*
X3591889Y13446171D1*
X3589324Y13446681D1*
X3586846Y13447522D1*
X3584500Y13448679D1*
X3582325Y13450133D1*
X3580358Y13451858D1*
X3578633Y13453825D1*
X3577179Y13456000D1*
X3576022Y13458346D1*
X3575181Y13460824D1*
X3574671Y13463389D1*
X3574500Y13466000D1*
X3574671Y13468611D1*
X3575181Y13471176D1*
X3576022Y13473654D1*
X3577179Y13476000D1*
X3578633Y13478175D1*
X3580358Y13480142D1*
X3582325Y13481867D1*
X3584500Y13483321D1*
X3586846Y13484478D1*
X3589324Y13485319D1*
X3591889Y13485829D1*
X3594500Y13486000D1*
D1*
X3597111Y13485829D1*
X3599676Y13485319D1*
X3602154Y13484478D1*
X3604500Y13483321D1*
X3606675Y13481867D1*
X3608642Y13480142D1*
X3610367Y13478175D1*
X3611821Y13476000D1*
X3612978Y13473654D1*
X3613819Y13471176D1*
X3614329Y13468611D1*
X3614500Y13466000D1*
X3614329Y13463389D1*
X3613819Y13460824D1*
X3612978Y13458346D1*
X3611821Y13456000D1*
X3610367Y13453825D1*
X3608642Y13451858D1*
X3606675Y13450133D1*
X3604500Y13448679D1*
X3602154Y13447522D1*
X3599676Y13446681D1*
X3597111Y13446171D1*
X3594500Y13446000D1*
D1*
G37*
X4032500Y12477500D2*
D36*
X3542500D1*
Y13052500D1*
X4032500D1*
Y12477500D1*
G36*
X3597000Y12296000D2*
X3594389Y12296171D1*
X3591824Y12296681D1*
X3589346Y12297522D1*
X3587000Y12298679D1*
X3584825Y12300133D1*
X3582858Y12301858D1*
X3581133Y12303825D1*
X3579679Y12306000D1*
X3578522Y12308346D1*
X3577681Y12310824D1*
X3577171Y12313389D1*
X3577000Y12316000D1*
X3577171Y12318611D1*
X3577681Y12321176D1*
X3578522Y12323654D1*
X3579679Y12326000D1*
X3581133Y12328175D1*
X3582858Y12330142D1*
X3584825Y12331867D1*
X3587000Y12333321D1*
X3589346Y12334478D1*
X3591824Y12335319D1*
X3594389Y12335829D1*
X3597000Y12336000D1*
D1*
X3599611Y12335829D1*
X3602176Y12335319D1*
X3604654Y12334478D1*
X3607000Y12333321D1*
X3609175Y12331867D1*
X3611142Y12330142D1*
X3612867Y12328175D1*
X3614321Y12326000D1*
X3615478Y12323654D1*
X3616319Y12321176D1*
X3616829Y12318611D1*
X3617000Y12316000D1*
X3616829Y12313389D1*
X3616319Y12310824D1*
X3615478Y12308346D1*
X3614321Y12306000D1*
X3612867Y12303825D1*
X3611142Y12301858D1*
X3609175Y12300133D1*
X3607000Y12298679D1*
X3604654Y12297522D1*
X3602176Y12296681D1*
X3599611Y12296171D1*
X3597000Y12296000D1*
D1*
G37*
X3460000Y13627500D2*
D36*
X2970000D1*
Y14202500D1*
X3460000D1*
Y13627500D1*
G36*
X3024500Y13446000D2*
X3021889Y13446171D1*
X3019324Y13446681D1*
X3016846Y13447522D1*
X3014500Y13448679D1*
X3012325Y13450133D1*
X3010358Y13451858D1*
X3008633Y13453825D1*
X3007179Y13456000D1*
X3006022Y13458346D1*
X3005181Y13460824D1*
X3004671Y13463389D1*
X3004500Y13466000D1*
X3004671Y13468611D1*
X3005181Y13471176D1*
X3006022Y13473654D1*
X3007179Y13476000D1*
X3008633Y13478175D1*
X3010358Y13480142D1*
X3012325Y13481867D1*
X3014500Y13483321D1*
X3016846Y13484478D1*
X3019324Y13485319D1*
X3021889Y13485829D1*
X3024500Y13486000D1*
D1*
X3027111Y13485829D1*
X3029676Y13485319D1*
X3032154Y13484478D1*
X3034500Y13483321D1*
X3036675Y13481867D1*
X3038642Y13480142D1*
X3040367Y13478175D1*
X3041821Y13476000D1*
X3042978Y13473654D1*
X3043819Y13471176D1*
X3044329Y13468611D1*
X3044500Y13466000D1*
X3044329Y13463389D1*
X3043819Y13460824D1*
X3042978Y13458346D1*
X3041821Y13456000D1*
X3040367Y13453825D1*
X3038642Y13451858D1*
X3036675Y13450133D1*
X3034500Y13448679D1*
X3032154Y13447522D1*
X3029676Y13446681D1*
X3027111Y13446171D1*
X3024500Y13446000D1*
D1*
G37*
X3460000Y12477500D2*
D36*
X2970000D1*
Y13052500D1*
X3460000D1*
Y12477500D1*
G36*
X3024500Y12296000D2*
X3021889Y12296171D1*
X3019324Y12296681D1*
X3016846Y12297522D1*
X3014500Y12298679D1*
X3012325Y12300133D1*
X3010358Y12301858D1*
X3008633Y12303825D1*
X3007179Y12306000D1*
X3006022Y12308346D1*
X3005181Y12310824D1*
X3004671Y12313389D1*
X3004500Y12316000D1*
X3004671Y12318611D1*
X3005181Y12321176D1*
X3006022Y12323654D1*
X3007179Y12326000D1*
X3008633Y12328175D1*
X3010358Y12330142D1*
X3012325Y12331867D1*
X3014500Y12333321D1*
X3016846Y12334478D1*
X3019324Y12335319D1*
X3021889Y12335829D1*
X3024500Y12336000D1*
D1*
X3027111Y12335829D1*
X3029676Y12335319D1*
X3032154Y12334478D1*
X3034500Y12333321D1*
X3036675Y12331867D1*
X3038642Y12330142D1*
X3040367Y12328175D1*
X3041821Y12326000D1*
X3042978Y12323654D1*
X3043819Y12321176D1*
X3044329Y12318611D1*
X3044500Y12316000D1*
X3044329Y12313389D1*
X3043819Y12310824D1*
X3042978Y12308346D1*
X3041821Y12306000D1*
X3040367Y12303825D1*
X3038642Y12301858D1*
X3036675Y12300133D1*
X3034500Y12298679D1*
X3032154Y12297522D1*
X3029676Y12296681D1*
X3027111Y12296171D1*
X3024500Y12296000D1*
D1*
G37*
X2890000Y13627500D2*
D36*
X2400000D1*
Y14202500D1*
X2890000D1*
Y13627500D1*
G36*
X2454500Y13446000D2*
X2451889Y13446171D1*
X2449324Y13446681D1*
X2446846Y13447522D1*
X2444500Y13448679D1*
X2442325Y13450133D1*
X2440358Y13451858D1*
X2438633Y13453825D1*
X2437179Y13456000D1*
X2436022Y13458346D1*
X2435181Y13460824D1*
X2434671Y13463389D1*
X2434500Y13466000D1*
X2434671Y13468611D1*
X2435181Y13471176D1*
X2436022Y13473654D1*
X2437179Y13476000D1*
X2438633Y13478175D1*
X2440358Y13480142D1*
X2442325Y13481867D1*
X2444500Y13483321D1*
X2446846Y13484478D1*
X2449324Y13485319D1*
X2451889Y13485829D1*
X2454500Y13486000D1*
D1*
X2457111Y13485829D1*
X2459676Y13485319D1*
X2462154Y13484478D1*
X2464500Y13483321D1*
X2466675Y13481867D1*
X2468642Y13480142D1*
X2470367Y13478175D1*
X2471821Y13476000D1*
X2472978Y13473654D1*
X2473819Y13471176D1*
X2474329Y13468611D1*
X2474500Y13466000D1*
X2474329Y13463389D1*
X2473819Y13460824D1*
X2472978Y13458346D1*
X2471821Y13456000D1*
X2470367Y13453825D1*
X2468642Y13451858D1*
X2466675Y13450133D1*
X2464500Y13448679D1*
X2462154Y13447522D1*
X2459676Y13446681D1*
X2457111Y13446171D1*
X2454500Y13446000D1*
D1*
G37*
X2890000Y12477500D2*
D36*
X2400000D1*
Y13052500D1*
X2890000D1*
Y12477500D1*
G36*
X2454500Y12296000D2*
X2451889Y12296171D1*
X2449324Y12296681D1*
X2446846Y12297522D1*
X2444500Y12298679D1*
X2442325Y12300133D1*
X2440358Y12301858D1*
X2438633Y12303825D1*
X2437179Y12306000D1*
X2436022Y12308346D1*
X2435181Y12310824D1*
X2434671Y12313389D1*
X2434500Y12316000D1*
X2434671Y12318611D1*
X2435181Y12321176D1*
X2436022Y12323654D1*
X2437179Y12326000D1*
X2438633Y12328175D1*
X2440358Y12330142D1*
X2442325Y12331867D1*
X2444500Y12333321D1*
X2446846Y12334478D1*
X2449324Y12335319D1*
X2451889Y12335829D1*
X2454500Y12336000D1*
D1*
X2457111Y12335829D1*
X2459676Y12335319D1*
X2462154Y12334478D1*
X2464500Y12333321D1*
X2466675Y12331867D1*
X2468642Y12330142D1*
X2470367Y12328175D1*
X2471821Y12326000D1*
X2472978Y12323654D1*
X2473819Y12321176D1*
X2474329Y12318611D1*
X2474500Y12316000D1*
X2474329Y12313389D1*
X2473819Y12310824D1*
X2472978Y12308346D1*
X2471821Y12306000D1*
X2470367Y12303825D1*
X2468642Y12301858D1*
X2466675Y12300133D1*
X2464500Y12298679D1*
X2462154Y12297522D1*
X2459676Y12296681D1*
X2457111Y12296171D1*
X2454500Y12296000D1*
D1*
G37*
X3540000Y6802500D2*
D36*
X4030000D1*
Y6227500D1*
X3540000D1*
Y6802500D1*
G36*
X3975500Y6984000D2*
X3978111Y6983829D1*
X3980676Y6983319D1*
X3983154Y6982478D1*
X3985500Y6981321D1*
X3987675Y6979867D1*
X3989642Y6978142D1*
X3991367Y6976175D1*
X3992821Y6974000D1*
X3993978Y6971654D1*
X3994819Y6969176D1*
X3995329Y6966611D1*
X3995500Y6964000D1*
X3995329Y6961389D1*
X3994819Y6958824D1*
X3993978Y6956346D1*
X3992821Y6954000D1*
X3991367Y6951825D1*
X3989642Y6949858D1*
X3987675Y6948133D1*
X3985500Y6946679D1*
X3983154Y6945522D1*
X3980676Y6944681D1*
X3978111Y6944171D1*
X3975500Y6944000D1*
D1*
X3972889Y6944171D1*
X3970324Y6944681D1*
X3967846Y6945522D1*
X3965500Y6946679D1*
X3963325Y6948133D1*
X3961358Y6949858D1*
X3959633Y6951825D1*
X3958179Y6954000D1*
X3957022Y6956346D1*
X3956181Y6958824D1*
X3955671Y6961389D1*
X3955500Y6964000D1*
X3955671Y6966611D1*
X3956181Y6969176D1*
X3957022Y6971654D1*
X3958179Y6974000D1*
X3959633Y6976175D1*
X3961358Y6978142D1*
X3963325Y6979867D1*
X3965500Y6981321D1*
X3967846Y6982478D1*
X3970324Y6983319D1*
X3972889Y6983829D1*
X3975500Y6984000D1*
D1*
G37*
X4110000Y5652500D2*
D36*
X4600000D1*
Y5077500D1*
X4110000D1*
Y5652500D1*
G36*
X4545500Y5834000D2*
X4548111Y5833829D1*
X4550676Y5833319D1*
X4553154Y5832478D1*
X4555500Y5831321D1*
X4557675Y5829867D1*
X4559642Y5828142D1*
X4561367Y5826175D1*
X4562821Y5824000D1*
X4563978Y5821654D1*
X4564819Y5819176D1*
X4565329Y5816611D1*
X4565500Y5814000D1*
X4565329Y5811389D1*
X4564819Y5808824D1*
X4563978Y5806346D1*
X4562821Y5804000D1*
X4561367Y5801825D1*
X4559642Y5799858D1*
X4557675Y5798133D1*
X4555500Y5796679D1*
X4553154Y5795522D1*
X4550676Y5794681D1*
X4548111Y5794171D1*
X4545500Y5794000D1*
D1*
X4542889Y5794171D1*
X4540324Y5794681D1*
X4537846Y5795522D1*
X4535500Y5796679D1*
X4533325Y5798133D1*
X4531358Y5799858D1*
X4529633Y5801825D1*
X4528179Y5804000D1*
X4527022Y5806346D1*
X4526181Y5808824D1*
X4525671Y5811389D1*
X4525500Y5814000D1*
X4525671Y5816611D1*
X4526181Y5819176D1*
X4527022Y5821654D1*
X4528179Y5824000D1*
X4529633Y5826175D1*
X4531358Y5828142D1*
X4533325Y5829867D1*
X4535500Y5831321D1*
X4537846Y5832478D1*
X4540324Y5833319D1*
X4542889Y5833829D1*
X4545500Y5834000D1*
D1*
G37*
X4110000Y6802500D2*
D36*
X4600000D1*
Y6227500D1*
X4110000D1*
Y6802500D1*
G36*
X4545500Y6984000D2*
X4548111Y6983829D1*
X4550676Y6983319D1*
X4553154Y6982478D1*
X4555500Y6981321D1*
X4557675Y6979867D1*
X4559642Y6978142D1*
X4561367Y6976175D1*
X4562821Y6974000D1*
X4563978Y6971654D1*
X4564819Y6969176D1*
X4565329Y6966611D1*
X4565500Y6964000D1*
X4565329Y6961389D1*
X4564819Y6958824D1*
X4563978Y6956346D1*
X4562821Y6954000D1*
X4561367Y6951825D1*
X4559642Y6949858D1*
X4557675Y6948133D1*
X4555500Y6946679D1*
X4553154Y6945522D1*
X4550676Y6944681D1*
X4548111Y6944171D1*
X4545500Y6944000D1*
D1*
X4542889Y6944171D1*
X4540324Y6944681D1*
X4537846Y6945522D1*
X4535500Y6946679D1*
X4533325Y6948133D1*
X4531358Y6949858D1*
X4529633Y6951825D1*
X4528179Y6954000D1*
X4527022Y6956346D1*
X4526181Y6958824D1*
X4525671Y6961389D1*
X4525500Y6964000D1*
X4525671Y6966611D1*
X4526181Y6969176D1*
X4527022Y6971654D1*
X4528179Y6974000D1*
X4529633Y6976175D1*
X4531358Y6978142D1*
X4533325Y6979867D1*
X4535500Y6981321D1*
X4537846Y6982478D1*
X4540324Y6983319D1*
X4542889Y6983829D1*
X4545500Y6984000D1*
D1*
G37*
X2967000Y5855000D2*
D13*
X3063000D1*
Y6025000D1*
X2967000D1*
Y5855000D1*
X3005000Y7038000D2*
Y6942000D1*
X3175000D1*
Y7038000D1*
X3005000D1*
X2493000Y6025000D2*
X2397000D1*
Y5855000D1*
X2493000D1*
Y6025000D1*
X2605000Y6942000D2*
Y7038000D1*
X2435000D1*
Y6942000D1*
X2605000D1*
X4140000Y8850500D2*
Y8754500D1*
X4310000D1*
Y8850500D1*
X4140000D1*
Y8713000D2*
Y8617000D1*
X4310000D1*
Y8713000D1*
X4140000D1*
X2183750Y15376250D2*
Y15441250D1*
X2066250D1*
Y15376250D1*
X2183750D1*
X2183751Y15476251D2*
X2183749Y15541251D1*
X2066249Y15541249D1*
X2066251Y15476249D1*
X2183751Y15476251D1*
X2582006Y7241997D2*
X2918006Y7242003D1*
X2917994Y7888003D1*
X2581994Y7887997D1*
X2582006Y7241997D1*
X4107000Y5855000D2*
X4203000D1*
Y6025000D1*
X4107000D1*
Y5855000D1*
X4145000Y7038000D2*
Y6942000D1*
X4315000D1*
Y7038000D1*
X4145000D1*
X3633000Y6025000D2*
X3537000D1*
Y5855000D1*
X3633000D1*
Y6025000D1*
X3745000Y6942000D2*
Y7038000D1*
X3575000D1*
Y6942000D1*
X3745000D1*
X4140000Y8988000D2*
Y8892000D1*
X4310000D1*
Y8988000D1*
X4140000D1*
Y9125500D2*
Y9029500D1*
X4310000D1*
Y9125500D1*
X4140000D1*
X4081956Y7241997D2*
X4417956Y7242003D1*
X4417944Y7888003D1*
X4081944Y7887997D1*
X4081956Y7241997D1*
X4510500Y8725000D2*
X4414500D1*
Y8555000D1*
X4510500D1*
Y8725000D1*
X1108300Y15430000D2*
X1204300D1*
Y15600000D1*
X1108300D1*
Y15430000D1*
X2610500Y2550000D2*
X2514500D1*
Y2380000D1*
X2610500D1*
Y2550000D1*
X5173000D2*
X5077000D1*
Y2380000D1*
X5173000D1*
Y2550000D1*
X2690000Y9125500D2*
Y9029500D1*
X2860000D1*
Y9125500D1*
X2690000D1*
X1589500Y2380000D2*
X1685500D1*
Y2550000D1*
X1589500D1*
Y2380000D1*
X1439500D2*
X1535500D1*
Y2550000D1*
X1439500D1*
Y2380000D1*
X2690000Y8988000D2*
Y8892000D1*
X2860000D1*
Y8988000D1*
X2690000D1*
X3077002Y9342499D2*
X3173002Y9342501D1*
X3172998Y9512501D1*
X3076998Y9512499D1*
X3077002Y9342499D1*
X3322997Y9512502D2*
X3226997Y9512498D1*
X3227003Y9342498D1*
X3323003Y9342502D1*
X3322997Y9512502D1*
X3498000Y2550000D2*
X3402000D1*
Y2380000D1*
X3498000D1*
Y2550000D1*
X3648000D2*
X3552000D1*
Y2380000D1*
X3648000D1*
Y2550000D1*
X3197998Y2550001D2*
X3101998Y2549999D1*
X3102002Y2379999D1*
X3198002Y2380001D1*
X3197998Y2550001D1*
X3348000Y2550000D2*
X3252000D1*
Y2380000D1*
X3348000D1*
Y2550000D1*
X5227000Y2380000D2*
X5323000D1*
Y2550000D1*
X5227000D1*
Y2380000D1*
X4314502Y2379999D2*
X4410502Y2380001D1*
X4410498Y2550001D1*
X4314498Y2549999D1*
X4314502Y2379999D1*
X5091250Y16410000D2*
Y16345000D1*
X5208750D1*
Y16410000D1*
X5091250D1*
X4967501Y16368749D2*
X5032501Y16368751D1*
X5032499Y16486251D1*
X4967499Y16486249D1*
X4967501Y16368749D1*
X4032998Y13425001D2*
X3936998Y13424999D1*
X3937002Y13254999D1*
X4033002Y13255001D1*
X4032998Y13425001D1*
X3997501Y12242002D2*
X3997499Y12338002D1*
X3827499Y12337998D1*
X3827501Y12241998D1*
X3997501Y12242002D1*
X4507000Y13255000D2*
X4603000D1*
Y13425000D1*
X4507000D1*
Y13255000D1*
X4390000Y12338000D2*
Y12242000D1*
X4560000D1*
Y12338000D1*
X4390000D1*
X2860000Y10429500D2*
Y10525500D1*
X2690000D1*
Y10429500D1*
X2860000D1*
Y10567000D2*
Y10663000D1*
X2690000D1*
Y10567000D1*
X2860000D1*
X4417992Y12038004D2*
X4081992Y12037996D1*
X4082008Y11391996D1*
X4418008Y11392004D1*
X4417992Y12038004D1*
X2893000Y13425000D2*
X2797000D1*
Y13255000D1*
X2893000D1*
Y13425000D1*
X2860001Y12242002D2*
X2859999Y12338002D1*
X2689999Y12337998D1*
X2690001Y12241998D1*
X2860001Y12242002D1*
X3367000Y13255000D2*
X3463000D1*
Y13425000D1*
X3367000D1*
Y13255000D1*
X3265000Y12338000D2*
Y12242000D1*
X3435000D1*
Y12338000D1*
X3265000D1*
X2860000Y10292000D2*
Y10388000D1*
X2690000D1*
Y10292000D1*
X2860000D1*
Y10154500D2*
Y10250500D1*
X2690000D1*
Y10154500D1*
X2860000D1*
X2917982Y12038009D2*
X2581982Y12037991D1*
X2582018Y11391991D1*
X2918018Y11392009D1*
X2917982Y12038009D1*
X2502003Y10567498D2*
X2598003Y10567502D1*
X2597997Y10737502D1*
X2501997Y10737498D1*
X2502003Y10567498D1*
X3922997Y9937502D2*
X3826997Y9937498D1*
X3827003Y9767498D1*
X3923003Y9767502D1*
X3922997Y9937502D1*
X3677002Y9767499D2*
X3773002Y9767501D1*
X3772998Y9937501D1*
X3676998Y9937499D1*
X3677002Y9767499D1*
X4310000Y10092000D2*
Y10188000D1*
X4140000D1*
Y10092000D1*
X4310000D1*
Y10229500D2*
Y10325500D1*
X4140000D1*
Y10229500D1*
X4310000D1*
X5802002Y15429999D2*
X5898002Y15430001D1*
X5897998Y15600001D1*
X5801998Y15599999D1*
X5802002Y15429999D1*
X2860000Y9167000D2*
Y9263000D1*
X2690000D1*
Y9167000D1*
X2860000D1*
X4140000Y10050500D2*
Y9954500D1*
X4310000D1*
Y10050500D1*
X4140000D1*
X4842992Y12038004D2*
X4506992Y12037996D1*
X4507008Y11391996D1*
X4843008Y11392004D1*
X4842992Y12038004D1*
X2493000Y12038000D2*
X2157000D1*
Y11392000D1*
X2493000D1*
Y12038000D1*
X2157006Y7241997D2*
X2493006Y7242003D1*
X2492994Y7888003D1*
X2156994Y7887997D1*
X2157006Y7241997D1*
X4507006D2*
X4843006Y7242003D1*
X4842994Y7888003D1*
X4506994Y7887997D1*
X4507006Y7241997D1*
X4289500Y15795500D2*
Y15459500D1*
X4935500D1*
Y15795500D1*
X4289500D1*
X2357008Y9471995D2*
X2356992Y9807995D1*
X2532992Y9808003D1*
X2533005Y9531003D1*
X2474008Y9472000D1*
X2357008Y9471995D1*
X4642996Y9808003D2*
X4643004Y9472003D1*
X4467004Y9471998D1*
X4466997Y9748998D1*
X4525996Y9808000D1*
X4642996Y9808003D1*
X2399250Y4134500D2*
X2663250D1*
Y4470500D1*
X2399250D1*
Y4134500D1*
X4600750Y4470500D2*
X4336750D1*
Y4134500D1*
X4600750D1*
Y4470500D1*
Y15145500D2*
X4336750D1*
Y14809500D1*
X4600750D1*
Y15145500D1*
X2399250Y14809500D2*
X2663250D1*
Y15145500D1*
X2399250D1*
Y14809500D1*
X1980333Y15677000D2*
X1922000Y15735333D1*
Y15853000D1*
X2228000D1*
Y15677000D1*
X1980333D1*
X3145000Y8335000D2*
Y9045000D1*
X3855000D1*
Y8435000D1*
X3755000Y8335000D1*
X3145000D1*
X5019667Y16153000D2*
X5078000Y16094667D1*
Y15977000D1*
X4772000D1*
Y16153000D1*
X5019667D1*
X1275000Y3595000D2*
X2325000D1*
Y2835000D1*
X1375000D1*
X1275000Y2935000D1*
Y3595000D1*
X2975000D2*
X4025000D1*
Y2835000D1*
X3075000D1*
X2975000Y2935000D1*
Y3595000D1*
X3854990Y10945010D2*
X3855010Y10235010D1*
X3145010Y10234990D1*
X3144993Y10844990D1*
X3244990Y10944993D1*
X3854990Y10945010D1*
X4675000Y3595000D2*
X5725000D1*
Y2835000D1*
X4775000D1*
X4675000Y2935000D1*
Y3595000D1*
X2245027Y9415029D2*
X1735027Y9414967D1*
X1734973Y9864967D1*
X2144973Y9865017D1*
X2244985Y9765029D1*
X2245027Y9415029D1*
X4755000Y9865000D2*
X5265000D1*
Y9415000D1*
X4855000D1*
X4755000Y9515000D1*
Y9865000D1*
X3013600Y17303967D2*
D36*
X3986400D1*
Y16801033D1*
X3013600D1*
Y17303967D1*
G36*
X2889767Y17055033D2*
X2889938Y17057644D1*
X2890448Y17060210D1*
X2891289Y17062687D1*
X2892446Y17065033D1*
X2893900Y17067209D1*
X2895625Y17069175D1*
X2897591Y17070900D1*
X2899767Y17072354D1*
X2902113Y17073511D1*
X2904590Y17074352D1*
X2907156Y17074862D1*
X2909767Y17075033D1*
X2912377Y17074862D1*
X2914943Y17074352D1*
X2917420Y17073511D1*
X2919767Y17072354D1*
X2921942Y17070900D1*
X2923909Y17069175D1*
X2925634Y17067209D1*
X2927087Y17065033D1*
X2928244Y17062687D1*
X2929085Y17060210D1*
X2929596Y17057644D1*
X2929767Y17055033D1*
D1*
X2929596Y17052423D1*
X2929085Y17049857D1*
X2928244Y17047380D1*
X2927087Y17045033D1*
X2925634Y17042858D1*
X2923909Y17040891D1*
X2921942Y17039166D1*
X2919767Y17037713D1*
X2917420Y17036556D1*
X2914943Y17035715D1*
X2912377Y17035204D1*
X2909767Y17035033D1*
X2907156Y17035204D1*
X2904590Y17035715D1*
X2902113Y17036556D1*
X2899767Y17037713D1*
X2897591Y17039166D1*
X2895625Y17040891D1*
X2893900Y17042858D1*
X2892446Y17045033D1*
X2891289Y17047380D1*
X2890448Y17049857D1*
X2889938Y17052423D1*
X2889767Y17055033D1*
D1*
G37*
X2400000Y14390000D2*
D20*
X4600000D1*
Y4890000D1*
X2400000D1*
Y14390000D1*
D29*
X3500000Y9640000D3*
D30*
X1000000Y2315000D3*
G36*
X1012778Y2352121D2*
Y2328454D1*
X1022111D1*
X1024111Y2328787D1*
X1026111Y2329454D1*
X1028111Y2330454D1*
X1029444Y2331454D1*
X1030111Y2332121D1*
X1031111Y2333454D1*
X1031778Y2334454D1*
X1032444Y2335787D1*
X1033111Y2337787D1*
X1033444Y2339454D1*
Y2344454D1*
X1033111Y2346121D1*
X1032778Y2347121D1*
X1031444Y2349787D1*
X1030778Y2350787D1*
X1029111Y2352454D1*
X1028111Y2353121D1*
X1026111Y2354121D1*
X1024111Y2354787D1*
X1022111Y2355121D1*
X1012778D1*
Y2352121D1*
X1015778D1*
X1017778Y2352454D1*
X1019778D1*
X1021778Y2352121D1*
X1023444Y2351787D1*
X1024444Y2351454D1*
X1026444Y2350454D1*
X1028444Y2348454D1*
Y2348121D1*
X1029111Y2347121D1*
X1029444Y2346121D1*
X1029778Y2344454D1*
X1030111Y2344121D1*
Y2339454D1*
X1029778Y2339121D1*
X1029444Y2337454D1*
X1029111Y2336454D1*
X1028778Y2335787D1*
X1027778Y2334454D1*
X1027668Y2334050D1*
X1027444Y2333787D1*
X1026778Y2333454D1*
X1026111Y2332787D1*
X1024778Y2332121D1*
X1023778Y2331787D1*
X1022111Y2331454D1*
X1020000Y2331121D1*
X1017889D1*
X1015778Y2331454D1*
Y2352121D1*
X1012778D1*
G37*
G36*
X1073111Y2355121D2*
Y2351787D1*
X1076778D1*
Y2355121D1*
X1073111D1*
G37*
G36*
X1167444D2*
Y2351787D1*
X1171111D1*
Y2355121D1*
X1167444D1*
G37*
G36*
X1196111D2*
Y2351787D1*
X1199778D1*
Y2355121D1*
X1196111D1*
G37*
G36*
X1038778Y2346454D2*
X1037778Y2345454D1*
X1036778Y2343454D1*
X1036444Y2342454D1*
X1036111Y2341121D1*
Y2335787D1*
X1036444Y2334454D1*
X1036778Y2333454D1*
X1037444Y2332121D1*
X1038444Y2330787D1*
X1038778Y2330454D1*
X1040111Y2329454D1*
X1041444Y2328787D1*
X1042444Y2328454D1*
X1044111Y2328121D1*
X1047778D1*
X1049444Y2328454D1*
X1051444Y2329121D1*
X1052778Y2329787D1*
Y2333121D1*
X1049444Y2331454D1*
X1046778Y2330787D1*
X1045444D1*
X1042778Y2331454D1*
X1042111Y2331787D1*
X1041778Y2332121D1*
X1041111Y2332454D1*
X1040716Y2332829D1*
X1040778Y2333121D1*
X1040111Y2334121D1*
X1039778Y2334787D1*
X1039444Y2336121D1*
X1039111Y2336454D1*
Y2338121D1*
X1053111Y2338454D1*
Y2341454D1*
X1052778Y2343454D1*
X1052444Y2344454D1*
X1051444Y2346454D1*
X1050111Y2347787D1*
X1048111Y2348787D1*
X1046778Y2349121D1*
X1043444D1*
X1042111Y2348787D1*
X1040111Y2347787D1*
X1038778Y2346454D1*
X1043111D1*
X1044333Y2346787D1*
X1045555D1*
X1046778Y2346454D1*
X1047778Y2346121D1*
X1049444Y2344454D1*
Y2344121D1*
X1049778Y2342787D1*
X1050111Y2342454D1*
Y2341121D1*
X1046444Y2340787D1*
X1042778D1*
X1039111Y2341121D1*
Y2341787D1*
X1039444Y2342121D1*
X1039778Y2343454D1*
X1040444Y2344454D1*
Y2344787D1*
X1041111Y2345454D1*
X1043111Y2346454D1*
X1038778D1*
G37*
G36*
X1061444Y2349121D2*
X1060111Y2348787D1*
X1059111Y2348454D1*
X1058444Y2348121D1*
X1056444Y2346121D1*
X1055778Y2344787D1*
Y2341454D1*
X1056778Y2339454D1*
X1057111Y2339121D1*
X1058111Y2338454D1*
X1059444Y2337787D1*
X1062111Y2337121D1*
X1063778Y2336787D1*
X1064778Y2336454D1*
X1066111Y2335787D1*
X1066379Y2335357D1*
X1066444Y2335121D1*
X1066778Y2334787D1*
Y2332787D1*
X1065444Y2331454D1*
X1064111Y2331121D1*
X1062889Y2330787D1*
X1061666D1*
X1060444Y2331121D1*
X1058444Y2331787D1*
X1056444Y2332787D1*
X1055778Y2333454D1*
Y2329787D1*
X1056111Y2329454D1*
X1056778Y2329121D1*
X1058778Y2328454D1*
X1060111Y2328121D1*
X1064111D1*
X1065444Y2328454D1*
X1066444Y2328787D1*
X1067444Y2329454D1*
X1069111Y2331121D1*
X1069778Y2332454D1*
Y2336121D1*
X1069444Y2337121D1*
X1067778Y2338787D1*
X1066444Y2339454D1*
X1063778Y2340121D1*
X1062111Y2340454D1*
X1060111Y2341121D1*
X1059111Y2342121D1*
Y2342454D1*
X1058778Y2342787D1*
Y2344121D1*
X1059111Y2344454D1*
Y2344787D1*
X1059778Y2345454D1*
X1061111Y2346121D1*
X1062444Y2346454D1*
X1063778D1*
X1066444Y2345787D1*
X1067111Y2345454D1*
X1068111Y2345121D1*
X1068778Y2344787D1*
X1069111Y2344454D1*
Y2347787D1*
X1068778Y2348121D1*
X1066778Y2348787D1*
X1065111Y2349121D1*
X1061444D1*
G37*
G36*
X1082778Y2346121D2*
X1082111Y2345454D1*
X1081111Y2343454D1*
X1080778Y2342454D1*
X1080444Y2341121D1*
Y2335787D1*
X1080778Y2334454D1*
X1081111Y2333454D1*
X1082111Y2331454D1*
X1083778Y2329787D1*
X1085111Y2329121D1*
X1086444Y2328787D1*
X1089444D1*
X1090778Y2329121D1*
X1091444Y2329454D1*
X1092444Y2330121D1*
X1093111Y2330787D1*
X1093421Y2330677D1*
X1093778Y2330454D1*
Y2327121D1*
X1093444Y2326787D1*
X1093111Y2325787D1*
Y2325454D1*
X1092111Y2324454D1*
X1091444Y2324121D1*
X1090444Y2323787D1*
X1089000Y2323454D1*
X1087555D1*
X1086111Y2323787D1*
X1083444Y2324454D1*
X1082444Y2324787D1*
Y2321454D1*
X1083778Y2321121D1*
X1085778Y2320787D1*
X1090111D1*
X1091444Y2321121D1*
X1092444Y2321454D1*
X1093111Y2321787D1*
X1094111Y2322454D1*
X1095111Y2323454D1*
X1095778Y2324454D1*
X1096111Y2325121D1*
X1096444Y2326121D1*
X1096778Y2327454D1*
Y2348454D1*
X1094111D1*
X1093424Y2347759D1*
X1093252Y2347813D1*
X1093111Y2348121D1*
X1092444Y2348454D1*
X1090444Y2349121D1*
X1087444D1*
X1086111Y2348787D1*
X1084778Y2348121D1*
X1083778Y2347454D1*
X1082778Y2346454D1*
Y2346121D1*
X1087444D1*
X1088666Y2346454D1*
X1089889D1*
X1091111Y2346121D1*
X1092444Y2345787D1*
X1093778Y2345121D1*
Y2333787D1*
X1093111Y2333121D1*
X1092444Y2332787D1*
X1092111Y2332454D1*
X1090111Y2331787D1*
X1089000Y2331454D1*
X1087889D1*
X1086778Y2331787D1*
X1085444Y2332454D1*
X1084444Y2333454D1*
Y2333787D1*
X1084111Y2334787D1*
X1083778Y2336454D1*
X1083444Y2336787D1*
Y2340454D1*
X1083778Y2340787D1*
X1084111Y2342454D1*
X1084778Y2343787D1*
Y2344121D1*
X1086111Y2345454D1*
X1087444Y2346121D1*
X1082778D1*
G37*
G36*
X1110111Y2349121D2*
X1109111Y2348787D1*
X1107111Y2347787D1*
X1105778Y2346787D1*
X1105424Y2346425D1*
X1105252Y2346480D1*
X1105111Y2346787D1*
Y2348454D1*
X1102111D1*
Y2328454D1*
X1105111D1*
Y2343454D1*
X1105444Y2343787D1*
X1106111Y2344121D1*
X1106778Y2344787D1*
X1108111Y2345454D1*
X1109111Y2345787D1*
X1110222Y2346121D1*
X1111333D1*
X1112444Y2345787D1*
X1113111Y2345454D1*
X1114111Y2344454D1*
Y2343787D1*
X1114444Y2341454D1*
X1114778Y2328454D1*
X1117778D1*
Y2342454D1*
X1117444Y2344454D1*
X1117111Y2345454D1*
X1116444Y2346787D1*
X1114778Y2348454D1*
X1114111Y2348787D1*
X1112778Y2349121D1*
X1110111D1*
G37*
G36*
X1135111Y2346121D2*
Y2345787D1*
X1134444Y2345121D1*
X1134111Y2344454D1*
X1133778Y2343454D1*
X1133444Y2342787D1*
X1133111Y2341121D1*
Y2335787D1*
X1133444Y2334454D1*
X1134111Y2332454D1*
X1134444Y2331787D1*
X1135111Y2330787D1*
X1136444Y2329454D1*
X1137444Y2328787D1*
X1138778Y2328121D1*
X1140111Y2327787D1*
X1143444D1*
X1144778Y2328121D1*
X1146778Y2329121D1*
X1148778Y2331121D1*
X1149444Y2332121D1*
X1149778Y2333121D1*
X1150111Y2333787D1*
X1150444Y2335121D1*
Y2341787D1*
X1150111Y2343121D1*
X1149778Y2343787D1*
X1149444Y2344787D1*
X1148778Y2345787D1*
X1146778Y2347787D1*
X1144778Y2348787D1*
X1143444Y2349121D1*
X1140111D1*
X1138111Y2348454D1*
X1137444Y2348121D1*
X1136444Y2347454D1*
X1135111Y2346121D1*
X1140111D1*
X1141222Y2346454D1*
X1142333D1*
X1143444Y2346121D1*
X1144444Y2345787D1*
X1145111Y2345454D1*
X1146111Y2344454D1*
Y2344121D1*
X1146778Y2342787D1*
X1147111Y2341454D1*
X1147444Y2341121D1*
Y2335787D1*
X1147111Y2335454D1*
X1146778Y2334121D1*
X1146111Y2332787D1*
Y2332454D1*
X1145444Y2331787D1*
X1144778Y2331454D1*
X1144444Y2331121D1*
X1143444Y2330787D1*
X1142333Y2330454D1*
X1141222D1*
X1140111Y2330787D1*
X1138778Y2331454D1*
X1137111Y2333121D1*
Y2333454D1*
X1136778Y2334454D1*
X1136444Y2336454D1*
X1136111Y2336787D1*
Y2340454D1*
X1136444Y2340787D1*
X1136778Y2342454D1*
X1137111Y2343454D1*
Y2343787D1*
X1138778Y2345454D1*
X1140111Y2346121D1*
X1135111D1*
G37*
G36*
X1177111D2*
X1176444Y2345454D1*
X1175444Y2343454D1*
X1175111Y2342454D1*
X1174778Y2341121D1*
Y2335787D1*
X1175111Y2334454D1*
X1175444Y2333454D1*
X1176444Y2331454D1*
X1178111Y2329787D1*
X1179444Y2329121D1*
X1180778Y2328787D1*
X1183778D1*
X1185111Y2329121D1*
X1185778Y2329454D1*
X1186778Y2330121D1*
X1187444Y2330787D1*
X1187755Y2330677D1*
X1188111Y2330454D1*
Y2327121D1*
X1187778Y2326787D1*
X1187444Y2325787D1*
Y2325454D1*
X1186444Y2324454D1*
X1185778Y2324121D1*
X1184778Y2323787D1*
X1183333Y2323454D1*
X1181889D1*
X1180444Y2323787D1*
X1177778Y2324454D1*
X1176778Y2324787D1*
Y2321454D1*
X1178111Y2321121D1*
X1180111Y2320787D1*
X1184444D1*
X1185778Y2321121D1*
X1186778Y2321454D1*
X1187444Y2321787D1*
X1188444Y2322454D1*
X1189444Y2323454D1*
X1190111Y2324454D1*
X1190444Y2325121D1*
X1190778Y2326121D1*
X1191111Y2327454D1*
Y2348454D1*
X1188444D1*
X1187757Y2347759D1*
X1187585Y2347813D1*
X1187444Y2348121D1*
X1186778Y2348454D1*
X1184778Y2349121D1*
X1181778D1*
X1180444Y2348787D1*
X1179111Y2348121D1*
X1178111Y2347454D1*
X1177111Y2346454D1*
Y2346121D1*
X1181778D1*
X1183000Y2346454D1*
X1184222D1*
X1185444Y2346121D1*
X1186778Y2345787D1*
X1188111Y2345121D1*
Y2333787D1*
X1187444Y2333121D1*
X1186778Y2332787D1*
X1186444Y2332454D1*
X1184444Y2331787D1*
X1183333Y2331454D1*
X1182222D1*
X1181111Y2331787D1*
X1179778Y2332454D1*
X1178778Y2333454D1*
Y2333787D1*
X1178444Y2334787D1*
X1178111Y2336454D1*
X1177778Y2336787D1*
Y2340454D1*
X1178111Y2340787D1*
X1178444Y2342454D1*
X1179111Y2343787D1*
Y2344121D1*
X1180444Y2345454D1*
X1181778Y2346121D1*
X1177111D1*
G37*
G36*
X1212778Y2349121D2*
X1211778Y2348787D1*
X1209778Y2347787D1*
X1208444Y2346787D1*
X1208091Y2346425D1*
X1207918Y2346480D1*
X1207778Y2346787D1*
Y2348454D1*
X1204778D1*
Y2328454D1*
X1207778D1*
Y2343454D1*
X1208111Y2343787D1*
X1208778Y2344121D1*
X1209444Y2344787D1*
X1210778Y2345454D1*
X1211778Y2345787D1*
X1212889Y2346121D1*
X1214000D1*
X1215111Y2345787D1*
X1215778Y2345454D1*
X1216778Y2344454D1*
Y2343787D1*
X1217111Y2341454D1*
X1217444Y2328454D1*
X1220444D1*
Y2342454D1*
X1220111Y2344454D1*
X1219778Y2345454D1*
X1219111Y2346787D1*
X1217444Y2348454D1*
X1216778Y2348787D1*
X1215444Y2349121D1*
X1212778D1*
G37*
G36*
X1073444Y2348454D2*
Y2328454D1*
X1076444D1*
Y2348454D1*
X1073444D1*
G37*
G36*
X1154444D2*
Y2328454D1*
X1157444D1*
Y2342454D1*
X1158444Y2343454D1*
X1159111Y2343787D1*
X1159444Y2344121D1*
X1161444Y2344787D1*
X1164778Y2345121D1*
Y2348454D1*
X1162444D1*
X1161444Y2348121D1*
X1160111Y2347454D1*
X1158778Y2346454D1*
X1158111Y2345787D1*
X1157757Y2345425D1*
X1157585Y2345480D1*
X1157444Y2345787D1*
Y2348454D1*
X1154444D1*
G37*
G36*
X1167778D2*
Y2328454D1*
X1170778D1*
Y2348454D1*
X1167778D1*
G37*
G36*
X1196444D2*
Y2328454D1*
X1199444D1*
Y2348454D1*
X1196444D1*
G37*
X7214931Y11486079D2*
D91*
Y11596730D1*
X7036278D1*
X7129830D2*
Y11528727D1*
X7155380Y11329173D2*
X7036278D1*
X7129830D2*
X7146929Y11346075D1*
X7155380Y11363174D1*
Y11388528D1*
X7146929Y11405627D1*
X7129830Y11422529D1*
X7104280Y11431177D1*
X7087378D1*
X7061828Y11422529D1*
X7044925Y11405627D1*
X7036278Y11388528D1*
Y11363174D1*
X7044925Y11346075D1*
X7061828Y11329173D1*
X7155380Y11274271D2*
X7036278D1*
X7121379D2*
X7146929Y11248721D1*
X7155380Y11231622D1*
Y11206269D1*
X7146929Y11189170D1*
X7121379Y11180719D1*
X7036278D1*
X7214931Y10952992D2*
X7036278D1*
X7121379D2*
X7146929Y10927442D1*
X7155380Y10910343D1*
Y10884793D1*
X7146929Y10867891D1*
X7121379Y10859440D1*
X7036278D1*
X7104280Y10804538D2*
Y10702534D1*
X7121379D1*
X7138478Y10710985D1*
X7146929Y10719436D1*
X7155380Y10736535D1*
Y10762085D1*
X7146929Y10778988D1*
X7129830Y10796086D1*
X7104280Y10804538D1*
X7087378D1*
X7061828Y10796086D1*
X7044925Y10778988D1*
X7036278Y10762085D1*
Y10736535D1*
X7044925Y10719436D1*
X7061828Y10702534D1*
X7155380Y10545629D2*
X7036278D1*
X7129830D2*
X7146929Y10562531D1*
X7155380Y10579630D1*
Y10604983D1*
X7146929Y10622082D1*
X7129830Y10638984D1*
X7104280Y10647632D1*
X7087378D1*
X7061828Y10638984D1*
X7044925Y10622082D1*
X7036278Y10604983D1*
Y10579630D1*
X7044925Y10562531D1*
X7061828Y10545629D1*
X7214931Y10465177D2*
X7070279D1*
X7044925Y10456726D1*
X7036278Y10439627D1*
Y10422724D1*
X7155380Y10490727D2*
Y10431176D1*
X7129830Y10274270D2*
X7146929Y10282721D1*
X7155380Y10308271D1*
Y10333821D1*
X7146929Y10359371D1*
X7129830Y10367822D1*
X7112928Y10359371D1*
X7104280Y10342272D1*
X7095829Y10299820D1*
X7087378Y10282721D1*
X7070279Y10274270D1*
X7061828D1*
X7044925Y10282721D1*
X7036278Y10308271D1*
Y10333821D1*
X7044925Y10359371D1*
X7061828Y10367822D1*
X7214931Y10219368D2*
X7206480Y10210917D1*
X7214931Y10202269D1*
X7223579Y10210917D1*
X7214931Y10219368D1*
X7155380Y10210917D2*
X7036278D1*
X7155380Y10147367D2*
X7036278D1*
X7121379D2*
X7146929Y10121817D1*
X7155380Y10104719D1*
Y10079365D1*
X7146929Y10062266D1*
X7121379Y10053815D1*
X7036278D1*
X7214931Y9998913D2*
X7036278D1*
X7155380Y9913812D2*
X7070279Y9998913D1*
X7104280Y9964912D2*
X7036278Y9905361D1*
X7155380Y9566983D2*
X7129830Y9575630D1*
X7112731Y9592533D1*
X7104280Y9618083D1*
Y9626534D1*
X7112731Y9652084D1*
X7129830Y9668986D1*
X7155380Y9677634D1*
X7163831D1*
X7189381Y9668986D1*
X7206283Y9652084D1*
X7214735Y9626534D1*
Y9618083D1*
X7206283Y9592533D1*
X7189381Y9575630D1*
X7155380Y9566983D1*
X7112731D1*
X7070279Y9575630D1*
X7044729Y9592533D1*
X7036278Y9618083D1*
Y9634985D1*
X7044729Y9660535D1*
X7061828Y9668986D1*
X7214735Y9410077D2*
Y9494982D1*
X7138281Y9503433D1*
X7146732Y9494982D1*
X7155380Y9469432D1*
Y9444078D1*
X7146732Y9418528D1*
X7129830Y9401430D1*
X7104280Y9392978D1*
X7087378D1*
X7061828Y9401430D1*
X7044729Y9418528D1*
X7036278Y9444078D1*
Y9469432D1*
X7044729Y9494982D1*
X7053376Y9503433D1*
X7070279Y9512081D1*
X7155380Y9338076D2*
X7036278Y9244524D1*
X7155380D2*
X7036278Y9338076D1*
X7172282Y9180974D2*
X7180733D1*
X7197832Y9172523D1*
X7206283Y9164072D1*
X7214735Y9146973D1*
Y9112972D1*
X7206283Y9096070D1*
X7197832Y9087619D1*
X7180733Y9078971D1*
X7163831D1*
X7146732Y9087619D1*
X7121379Y9104521D1*
X7036278Y9189622D1*
Y9070520D1*
X7172282Y9006970D2*
X7180733D1*
X7197832Y8998519D1*
X7206283Y8990068D1*
X7214735Y8972969D1*
Y8938968D1*
X7206283Y8922066D1*
X7197832Y8913614D1*
X7180733Y8904967D1*
X7163831D1*
X7146732Y8913614D1*
X7121379Y8930517D1*
X7036278Y9015618D1*
Y8896516D1*
X7155380Y8841614D2*
X7036278D1*
X7121379D2*
X7146929Y8816064D1*
X7155380Y8798965D1*
Y8773611D1*
X7146929Y8756512D1*
X7121379Y8748061D1*
X7036278D1*
X7121379D2*
X7146929Y8722511D1*
X7155380Y8705412D1*
Y8680059D1*
X7146929Y8662960D1*
X7121379Y8654312D1*
X7036278D1*
X7155380Y8599410D2*
X7036278D1*
X7121379D2*
X7146929Y8573860D1*
X7155380Y8556762D1*
Y8531408D1*
X7146929Y8514309D1*
X7121379Y8505858D1*
X7036278D1*
X7121379D2*
X7146929Y8480308D1*
X7155380Y8463209D1*
Y8437856D1*
X7146929Y8420757D1*
X7121379Y8412109D1*
X7036278D1*
Y8048378D2*
X7214931D1*
X7036278Y8116380D1*
X7214931Y8184382D1*
X7036278D1*
Y7857275D2*
X7214931Y7925473D1*
X7036278Y7993476D1*
X7095829Y7967926D2*
Y7882825D1*
X7214931Y7802373D2*
X7036278Y7683270D1*
X7214931D2*
X7036278Y7802373D1*
X2107482Y-745764D2*
D92*
Y-836873D1*
X2113518Y-855123D1*
X2125732Y-867196D1*
X2143982Y-873373D1*
X2156055D1*
X2174305Y-867196D1*
X2186518Y-855123D1*
X2192555Y-836873D1*
Y-745764D1*
X2298594Y-806550D2*
X2292557Y-794337D1*
X2274307Y-788300D1*
X2256057D1*
X2237807Y-794337D1*
X2231771Y-806550D1*
X2237807Y-818623D1*
X2250021Y-824800D1*
X2280344Y-830837D1*
X2292557Y-836873D1*
X2298594Y-849087D1*
Y-855123D1*
X2292557Y-867196D1*
X2274307Y-873373D1*
X2256057D1*
X2237807Y-867196D1*
X2231771Y-855123D1*
X2337809Y-745764D2*
X2343846Y-751800D1*
X2350023Y-745764D1*
X2343846Y-739587D1*
X2337809Y-745764D1*
X2343846Y-788300D2*
Y-873373D1*
X2389238Y-788300D2*
Y-873373D1*
Y-812587D2*
X2407488Y-794337D1*
X2419702Y-788300D1*
X2437812D1*
X2450025Y-794337D1*
X2456062Y-812587D1*
Y-873373D1*
X2568137Y-794337D2*
Y-891623D1*
X2562100Y-909733D1*
X2556064Y-915910D1*
X2543850Y-921946D1*
X2525600D1*
X2513527Y-915910D1*
X2568137Y-812587D2*
X2556064Y-800514D1*
X2543850Y-794337D1*
X2525600D1*
X2513527Y-800514D1*
X2501314Y-812587D1*
X2495277Y-830837D1*
Y-843050D1*
X2501314Y-861160D1*
X2513527Y-873373D1*
X2525600Y-879410D1*
X2543850D1*
X2556064Y-873373D1*
X2568137Y-861160D1*
X2803659Y-788300D2*
Y-873373D1*
Y-806550D2*
X2791586Y-794337D1*
X2779372Y-788300D1*
X2761262D1*
X2749049Y-794337D1*
X2736976Y-806550D1*
X2730799Y-824800D1*
Y-836873D1*
X2736976Y-855123D1*
X2749049Y-867196D1*
X2761262Y-873373D1*
X2779372D1*
X2791586Y-867196D1*
X2803659Y-855123D1*
X2966321Y-812587D2*
X3021071D1*
X3039180Y-806550D1*
X3045357Y-800373D1*
X3051394Y-788300D1*
Y-770050D1*
X3045357Y-757977D1*
X3039180Y-751800D1*
X3021071Y-745764D1*
X2966321D1*
Y-873373D1*
X3181719Y-776087D2*
X3175683Y-764014D1*
X3163469Y-751800D1*
X3151396Y-745764D1*
X3127110D1*
X3114896Y-751800D1*
X3102823Y-764014D1*
X3096646Y-776087D1*
X3090610Y-794337D1*
Y-824800D1*
X3096646Y-842910D1*
X3102823Y-855123D1*
X3114896Y-867196D1*
X3127110Y-873373D1*
X3151396D1*
X3163469Y-867196D1*
X3175683Y-855123D1*
X3181719Y-842910D1*
X3220935Y-745764D2*
Y-873373D1*
X3260151Y-809639D2*
X3330343D1*
X3448455Y-745764D2*
X3369559D1*
Y-873373D1*
X3448455D1*
X3369559Y-806550D2*
X3418132D1*
X3611117Y-788300D2*
X3677940Y-873373D1*
Y-788300D2*
X3611117Y-873373D1*
X3777942D2*
Y-745904D1*
X3717156Y-830837D1*
X3808265D1*
X4043927Y-806550D2*
X4031714Y-794337D1*
X4019500Y-788300D1*
X4001391D1*
X3989177Y-794337D1*
X3977104Y-806550D1*
X3970927Y-824800D1*
Y-836873D1*
X3977104Y-855123D1*
X3989177Y-867196D1*
X4001391Y-873373D1*
X4019500D1*
X4031714Y-867196D1*
X4043927Y-855123D1*
X4113466Y-788300D2*
X4101393Y-794337D1*
X4089180Y-806550D1*
X4083143Y-824800D1*
Y-836873D1*
X4089180Y-855123D1*
X4101393Y-867196D1*
X4113466Y-873373D1*
X4131716D1*
X4143930Y-867196D1*
X4156003Y-855123D1*
X4162180Y-836873D1*
Y-824800D1*
X4156003Y-806550D1*
X4143930Y-794337D1*
X4131716Y-788300D1*
X4113466D1*
X4201395D2*
Y-873373D1*
Y-812587D2*
X4219645Y-794337D1*
X4231859Y-788300D1*
X4249968D1*
X4262182Y-794337D1*
X4268218Y-812587D1*
Y-873373D1*
X4307434Y-788300D2*
Y-873373D1*
Y-812587D2*
X4325684Y-794337D1*
X4337897Y-788300D1*
X4356007D1*
X4368221Y-794337D1*
X4374257Y-812587D1*
Y-873373D1*
X4413473Y-824800D2*
X4486332D1*
Y-812587D1*
X4480296Y-800373D1*
X4474259Y-794337D1*
X4462046Y-788300D1*
X4443796D1*
X4431723Y-794337D1*
X4419509Y-806550D1*
X4413473Y-824800D1*
Y-836873D1*
X4419509Y-855123D1*
X4431723Y-867196D1*
X4443796Y-873373D1*
X4462046D1*
X4474259Y-867196D1*
X4486332Y-855123D1*
X4598548Y-806550D2*
X4586335Y-794337D1*
X4574121Y-788300D1*
X4556012D1*
X4543798Y-794337D1*
X4531725Y-806550D1*
X4525548Y-824800D1*
Y-836873D1*
X4531725Y-855123D1*
X4543798Y-867196D1*
X4556012Y-873373D1*
X4574121D1*
X4586335Y-867196D1*
X4598548Y-855123D1*
X4656014Y-745764D2*
Y-849087D1*
X4662050Y-867196D1*
X4674264Y-873373D1*
X4686337D1*
X4637764Y-788300D2*
X4680300D1*
X4755876D2*
X4743803Y-794337D1*
X4731589Y-806550D1*
X4725553Y-824800D1*
Y-836873D1*
X4731589Y-855123D1*
X4743803Y-867196D1*
X4755876Y-873373D1*
X4774126D1*
X4786339Y-867196D1*
X4798412Y-855123D1*
X4804589Y-836873D1*
Y-824800D1*
X4798412Y-806550D1*
X4786339Y-794337D1*
X4774126Y-788300D1*
X4755876D1*
X4843805D2*
Y-873373D1*
Y-824800D2*
X4849982Y-806550D1*
X4862055Y-794337D1*
X4874268Y-788300D1*
X4892518D1*
X2302573Y-992865D2*
Y-1120475D1*
Y-1053652D2*
X2314786Y-1041438D1*
X2326859Y-1035402D1*
X2345109D1*
X2357182Y-1041438D1*
X2369396Y-1053652D1*
X2375432Y-1071902D1*
Y-1083975D1*
X2369396Y-1102225D1*
X2357182Y-1114298D1*
X2345109Y-1120475D1*
X2326859D1*
X2314786Y-1114298D1*
X2302573Y-1102225D1*
X2414648Y-1035402D2*
Y-1096188D1*
X2420685Y-1114298D1*
X2432898Y-1120475D1*
X2451148D1*
X2463221Y-1114298D1*
X2481471Y-1096188D1*
Y-1035402D2*
Y-1120475D1*
X2538937Y-992865D2*
Y-1096188D1*
X2544973Y-1114298D1*
X2557187Y-1120475D1*
X2569260D1*
X2520687Y-1035402D2*
X2563223D1*
X2731922D2*
X2756209Y-1120475D1*
X2780495Y-1035402D1*
X2804782Y-1120475D1*
X2829068Y-1035402D1*
X2868284Y-992865D2*
X2874320Y-998902D1*
X2880497Y-992865D1*
X2874320Y-986688D1*
X2868284Y-992865D1*
X2874320Y-1035402D2*
Y-1120475D1*
X2937963Y-992865D2*
Y-1096188D1*
X2944000Y-1114298D1*
X2956213Y-1120475D1*
X2968286D1*
X2919713Y-1035402D2*
X2962250D1*
X3007502Y-992865D2*
Y-1120475D1*
Y-1059688D2*
X3025752Y-1041438D1*
X3037965Y-1035402D1*
X3056215D1*
X3068288Y-1041438D1*
X3074325Y-1059688D1*
Y-1120475D1*
X3309987Y-1053652D2*
X3297774Y-1041438D1*
X3285560Y-1035402D1*
X3267451D1*
X3255237Y-1041438D1*
X3243164Y-1053652D1*
X3236987Y-1071902D1*
Y-1083975D1*
X3243164Y-1102225D1*
X3255237Y-1114298D1*
X3267451Y-1120475D1*
X3285560D1*
X3297774Y-1114298D1*
X3309987Y-1102225D1*
X3379526Y-1035402D2*
X3367453Y-1041438D1*
X3355239Y-1053652D1*
X3349203Y-1071902D1*
Y-1083975D1*
X3355239Y-1102225D1*
X3367453Y-1114298D1*
X3379526Y-1120475D1*
X3397776D1*
X3409989Y-1114298D1*
X3422062Y-1102225D1*
X3428239Y-1083975D1*
Y-1071902D1*
X3422062Y-1053652D1*
X3409989Y-1041438D1*
X3397776Y-1035402D1*
X3379526D1*
X3467455D2*
Y-1120475D1*
Y-1059688D2*
X3485705Y-1041438D1*
X3497918Y-1035402D1*
X3516028D1*
X3528241Y-1041438D1*
X3534278Y-1059688D1*
Y-1120475D1*
Y-1059688D2*
X3552528Y-1041438D1*
X3564741Y-1035402D1*
X3582851D1*
X3595065Y-1041438D1*
X3601241Y-1059688D1*
Y-1120475D1*
X3640457Y-1035402D2*
Y-1163011D1*
Y-1053652D2*
X3652671Y-1041579D1*
X3664744Y-1035402D1*
X3682994D1*
X3695207Y-1041579D1*
X3707280Y-1053652D1*
X3713457Y-1071902D1*
Y-1084115D1*
X3707280Y-1102225D1*
X3695207Y-1114438D1*
X3682994Y-1120475D1*
X3664744D1*
X3652671Y-1114438D1*
X3640457Y-1102225D1*
X3782996Y-1035402D2*
X3770923Y-1041438D1*
X3758709Y-1053652D1*
X3752673Y-1071902D1*
Y-1083975D1*
X3758709Y-1102225D1*
X3770923Y-1114298D1*
X3782996Y-1120475D1*
X3801246D1*
X3813459Y-1114298D1*
X3825532Y-1102225D1*
X3831709Y-1083975D1*
Y-1071902D1*
X3825532Y-1053652D1*
X3813459Y-1041438D1*
X3801246Y-1035402D1*
X3782996D1*
X3870925D2*
Y-1120475D1*
Y-1059688D2*
X3889175Y-1041438D1*
X3901389Y-1035402D1*
X3919498D1*
X3931712Y-1041438D1*
X3937748Y-1059688D1*
Y-1120475D1*
X3976964Y-1071902D2*
X4049823D1*
Y-1059688D1*
X4043787Y-1047475D1*
X4037750Y-1041438D1*
X4025537Y-1035402D1*
X4007287D1*
X3995214Y-1041438D1*
X3983000Y-1053652D1*
X3976964Y-1071902D1*
Y-1083975D1*
X3983000Y-1102225D1*
X3995214Y-1114298D1*
X4007287Y-1120475D1*
X4025537D1*
X4037750Y-1114298D1*
X4049823Y-1102225D1*
X4089039Y-1035402D2*
Y-1120475D1*
Y-1059688D2*
X4107289Y-1041438D1*
X4119503Y-1035402D1*
X4137612D1*
X4149826Y-1041438D1*
X4155862Y-1059688D1*
Y-1120475D1*
X4213328Y-992865D2*
Y-1096188D1*
X4219364Y-1114298D1*
X4231578Y-1120475D1*
X4243651D1*
X4195078Y-1035402D2*
X4237614D1*
X4349690Y-1053652D2*
X4343653Y-1041438D1*
X4325403Y-1035402D1*
X4307153D1*
X4288903Y-1041438D1*
X4282867Y-1053652D1*
X4288903Y-1065725D1*
X4301117Y-1071902D1*
X4331440Y-1077938D1*
X4343653Y-1083975D1*
X4349690Y-1096188D1*
Y-1102225D1*
X4343653Y-1114298D1*
X4325403Y-1120475D1*
X4307153D1*
X4288903Y-1114298D1*
X4282867Y-1102225D1*
X4542675Y-1035402D2*
X4530602Y-1041438D1*
X4518388Y-1053652D1*
X4512352Y-1071902D1*
Y-1083975D1*
X4518388Y-1102225D1*
X4530602Y-1114298D1*
X4542675Y-1120475D1*
X4560925D1*
X4573138Y-1114298D1*
X4585212Y-1102225D1*
X4591388Y-1083975D1*
Y-1071902D1*
X4585212Y-1053652D1*
X4573138Y-1041438D1*
X4560925Y-1035402D1*
X4542675D1*
X4630604D2*
Y-1120475D1*
Y-1059688D2*
X4648854Y-1041438D1*
X4661068Y-1035402D1*
X4679177D1*
X4691391Y-1041438D1*
X4697427Y-1059688D1*
Y-1120475D1*
X2317826Y-1282504D2*
X2305753Y-1288540D1*
X2293540Y-1300754D1*
X2287503Y-1319004D1*
Y-1331077D1*
X2293540Y-1349327D1*
X2305753Y-1361400D1*
X2317826Y-1367577D1*
X2336076D1*
X2348290Y-1361400D1*
X2360363Y-1349327D1*
X2366540Y-1331077D1*
Y-1319004D1*
X2360363Y-1300754D1*
X2348290Y-1288540D1*
X2336076Y-1282504D1*
X2317826D1*
X2405755D2*
Y-1410113D1*
Y-1300754D2*
X2417969Y-1288681D1*
X2430042Y-1282504D1*
X2448292D1*
X2460505Y-1288681D1*
X2472579Y-1300754D1*
X2478755Y-1319004D1*
Y-1331217D1*
X2472579Y-1349327D1*
X2460505Y-1361540D1*
X2448292Y-1367577D1*
X2430042D1*
X2417969Y-1361540D1*
X2405755Y-1349327D1*
X2517971Y-1282504D2*
Y-1410113D1*
Y-1300754D2*
X2530185Y-1288681D1*
X2542258Y-1282504D1*
X2560508D1*
X2572721Y-1288681D1*
X2584794Y-1300754D1*
X2590971Y-1319004D1*
Y-1331217D1*
X2584794Y-1349327D1*
X2572721Y-1361540D1*
X2560508Y-1367577D1*
X2542258D1*
X2530185Y-1361540D1*
X2517971Y-1349327D1*
X2660510Y-1282504D2*
X2648437Y-1288540D1*
X2636223Y-1300754D1*
X2630187Y-1319004D1*
Y-1331077D1*
X2636223Y-1349327D1*
X2648437Y-1361400D1*
X2660510Y-1367577D1*
X2678760D1*
X2690973Y-1361400D1*
X2703046Y-1349327D1*
X2709223Y-1331077D1*
Y-1319004D1*
X2703046Y-1300754D1*
X2690973Y-1288540D1*
X2678760Y-1282504D1*
X2660510D1*
X2815262Y-1300754D2*
X2809226Y-1288540D1*
X2790976Y-1282504D1*
X2772726D1*
X2754476Y-1288540D1*
X2748439Y-1300754D1*
X2754476Y-1312827D1*
X2766689Y-1319004D1*
X2797012Y-1325040D1*
X2809226Y-1331077D1*
X2815262Y-1343290D1*
Y-1349327D1*
X2809226Y-1361400D1*
X2790976Y-1367577D1*
X2772726D1*
X2754476Y-1361400D1*
X2748439Y-1349327D1*
X2854478Y-1239967D2*
X2860514Y-1246004D1*
X2866691Y-1239967D1*
X2860514Y-1233790D1*
X2854478Y-1239967D1*
X2860514Y-1282504D2*
Y-1367577D1*
X2924157Y-1239967D2*
Y-1343290D1*
X2930194Y-1361400D1*
X2942407Y-1367577D1*
X2954480D1*
X2905907Y-1282504D2*
X2948444D1*
X2993696Y-1319004D2*
X3066555D1*
Y-1306790D1*
X3060519Y-1294577D1*
X3054482Y-1288540D1*
X3042269Y-1282504D1*
X3024019D1*
X3011946Y-1288540D1*
X2999732Y-1300754D1*
X2993696Y-1319004D1*
Y-1331077D1*
X2999732Y-1349327D1*
X3011946Y-1361400D1*
X3024019Y-1367577D1*
X3042269D1*
X3054482Y-1361400D1*
X3066555Y-1349327D1*
X3296041Y-1300754D2*
X3290004Y-1288540D1*
X3271754Y-1282504D1*
X3253504D1*
X3235254Y-1288540D1*
X3229218Y-1300754D1*
X3235254Y-1312827D1*
X3247468Y-1319004D1*
X3277791Y-1325040D1*
X3290004Y-1331077D1*
X3296041Y-1343290D1*
Y-1349327D1*
X3290004Y-1361400D1*
X3271754Y-1367577D1*
X3253504D1*
X3235254Y-1361400D1*
X3229218Y-1349327D1*
X3335256Y-1239967D2*
X3341293Y-1246004D1*
X3347470Y-1239967D1*
X3341293Y-1233790D1*
X3335256Y-1239967D1*
X3341293Y-1282504D2*
Y-1367577D1*
X3459545Y-1239967D2*
Y-1367577D1*
Y-1300754D2*
X3447472Y-1288540D1*
X3435259Y-1282504D1*
X3417009D1*
X3404935Y-1288540D1*
X3392722Y-1300754D1*
X3386685Y-1319004D1*
Y-1331077D1*
X3392722Y-1349327D1*
X3404935Y-1361400D1*
X3417009Y-1367577D1*
X3435259D1*
X3447472Y-1361400D1*
X3459545Y-1349327D1*
X3498761Y-1319004D2*
X3571620D1*
Y-1306790D1*
X3565584Y-1294577D1*
X3559547Y-1288540D1*
X3547334Y-1282504D1*
X3529084D1*
X3517011Y-1288540D1*
X3504797Y-1300754D1*
X3498761Y-1319004D1*
Y-1331077D1*
X3504797Y-1349327D1*
X3517011Y-1361400D1*
X3529084Y-1367577D1*
X3547334D1*
X3559547Y-1361400D1*
X3571620Y-1349327D1*
X3752532Y-1239967D2*
Y-1343290D1*
X3758569Y-1361400D1*
X3770782Y-1367577D1*
X3782856D1*
X3734282Y-1282504D2*
X3776819D1*
X3852394D2*
X3840321Y-1288540D1*
X3828108Y-1300754D1*
X3822071Y-1319004D1*
Y-1331077D1*
X3828108Y-1349327D1*
X3840321Y-1361400D1*
X3852394Y-1367577D1*
X3870644D1*
X3882858Y-1361400D1*
X3894931Y-1349327D1*
X3901108Y-1331077D1*
Y-1319004D1*
X3894931Y-1300754D1*
X3882858Y-1288540D1*
X3870644Y-1282504D1*
X3852394D1*
X4063770D2*
Y-1367577D1*
Y-1306790D2*
X4082020Y-1288540D1*
X4094233Y-1282504D1*
X4112343D1*
X4124556Y-1288540D1*
X4130593Y-1306790D1*
Y-1367577D1*
X4200132Y-1282504D2*
X4188059Y-1288540D1*
X4175845Y-1300754D1*
X4169809Y-1319004D1*
Y-1331077D1*
X4175845Y-1349327D1*
X4188059Y-1361400D1*
X4200132Y-1367577D1*
X4218382D1*
X4230595Y-1361400D1*
X4242668Y-1349327D1*
X4248845Y-1331077D1*
Y-1319004D1*
X4242668Y-1300754D1*
X4230595Y-1288540D1*
X4218382Y-1282504D1*
X4200132D1*
X4288061D2*
Y-1367577D1*
Y-1319004D2*
X4294238Y-1300754D1*
X4306311Y-1288540D1*
X4318524Y-1282504D1*
X4336774D1*
X4375990D2*
Y-1367577D1*
Y-1306790D2*
X4394240Y-1288540D1*
X4406454Y-1282504D1*
X4424563D1*
X4436777Y-1288540D1*
X4442813Y-1306790D1*
Y-1367577D1*
Y-1306790D2*
X4461063Y-1288540D1*
X4473277Y-1282504D1*
X4491386D1*
X4503600Y-1288540D1*
X4509777Y-1306790D1*
Y-1367577D1*
X4621852Y-1282504D2*
Y-1367577D1*
Y-1300754D2*
X4609779Y-1288540D1*
X4597565Y-1282504D1*
X4579456D1*
X4567242Y-1288540D1*
X4555169Y-1300754D1*
X4548992Y-1319004D1*
Y-1331077D1*
X4555169Y-1349327D1*
X4567242Y-1361400D1*
X4579456Y-1367577D1*
X4597565D1*
X4609779Y-1361400D1*
X4621852Y-1349327D1*
X4661068Y-1239967D2*
Y-1367577D1*
X4706320Y-1355363D2*
X4700283Y-1361540D1*
X4706320Y-1367577D1*
X4712497Y-1361540D1*
X4706320Y-1355363D1*
X1395981Y-1734171D2*
Y-1861780D1*
X1438518D1*
X1456768Y-1855603D1*
X1468981Y-1843530D1*
X1475018Y-1831317D1*
X1481054Y-1813207D1*
Y-1782744D1*
X1475018Y-1764494D1*
X1468981Y-1752421D1*
X1456768Y-1740207D1*
X1438518Y-1734171D1*
X1395981D1*
X1556770D2*
X1544557Y-1740207D1*
X1532483Y-1752421D1*
X1526307Y-1764494D1*
X1520270Y-1782744D1*
Y-1813207D1*
X1526307Y-1831317D1*
X1532483Y-1843530D1*
X1544557Y-1855603D1*
X1556770Y-1861780D1*
X1581057D1*
X1593130Y-1855603D1*
X1605343Y-1843530D1*
X1611380Y-1831317D1*
X1617416Y-1813207D1*
Y-1782744D1*
X1611380Y-1764494D1*
X1605343Y-1752421D1*
X1593130Y-1740207D1*
X1581057Y-1734171D1*
X1556770D1*
X1865151D2*
Y-1861780D1*
X1780078Y-1734171D1*
Y-1861780D1*
X1940867Y-1734171D2*
X1928654Y-1740207D1*
X1916581Y-1752421D1*
X1910404Y-1764494D1*
X1904367Y-1782744D1*
Y-1813207D1*
X1910404Y-1831317D1*
X1916581Y-1843530D1*
X1928654Y-1855603D1*
X1940867Y-1861780D1*
X1965154D1*
X1977227Y-1855603D1*
X1989440Y-1843530D1*
X1995477Y-1831317D1*
X2001513Y-1813207D1*
Y-1782744D1*
X1995477Y-1764494D1*
X1989440Y-1752421D1*
X1977227Y-1740207D1*
X1965154Y-1734171D1*
X1940867D1*
X2083265D2*
Y-1861780D1*
X2040729Y-1734171D2*
X2125802D1*
X2288464Y-1800994D2*
X2343214D1*
X2361324Y-1794957D1*
X2367501Y-1788780D1*
X2373537Y-1776707D1*
Y-1758457D1*
X2367501Y-1746384D1*
X2361324Y-1740207D1*
X2343214Y-1734171D1*
X2288464D1*
Y-1861780D1*
X2412753Y-1734171D2*
Y-1861780D1*
X2485613D1*
X2524828Y-1734171D2*
Y-1825280D1*
X2530865Y-1843530D1*
X2543078Y-1855603D1*
X2561328Y-1861780D1*
X2573401D1*
X2591651Y-1855603D1*
X2603865Y-1843530D1*
X2609901Y-1825280D1*
Y-1734171D1*
X2740227Y-1764494D2*
X2734190Y-1752421D1*
X2721977Y-1740207D1*
X2709904Y-1734171D1*
X2685617D1*
X2673404Y-1740207D1*
X2661330Y-1752421D1*
X2655154Y-1764494D1*
X2649117Y-1782744D1*
Y-1813207D1*
X2655154Y-1831317D1*
X2661330Y-1843530D1*
X2673404Y-1855603D1*
X2685617Y-1861780D1*
X2709904D1*
X2721977Y-1855603D1*
X2734190Y-1843530D1*
X2740227Y-1831317D1*
Y-1813207D1*
X2709904D1*
X2902889Y-1734171D2*
Y-1861780D1*
X3027177Y-1734171D2*
Y-1861780D1*
X2942104Y-1734171D1*
Y-1861780D1*
X3108930Y-1734171D2*
Y-1861780D1*
X3066393Y-1734171D2*
X3151466D1*
X3227182D2*
X3214968Y-1740207D1*
X3202895Y-1752421D1*
X3196718Y-1764494D1*
X3190682Y-1782744D1*
Y-1813207D1*
X3196718Y-1831317D1*
X3202895Y-1843530D1*
X3214968Y-1855603D1*
X3227182Y-1861780D1*
X3251468D1*
X3263542Y-1855603D1*
X3275755Y-1843530D1*
X3281792Y-1831317D1*
X3287828Y-1813207D1*
Y-1782744D1*
X3281792Y-1764494D1*
X3275755Y-1752421D1*
X3263542Y-1740207D1*
X3251468Y-1734171D1*
X3227182D1*
X3547777Y-1861780D2*
X3499063Y-1734171D1*
X3450490Y-1861780D1*
X3468740Y-1819244D2*
X3529527D1*
X3710439Y-1800994D2*
X3765189D1*
X3783299Y-1794957D1*
X3789475Y-1788780D1*
X3795512Y-1776707D1*
Y-1758457D1*
X3789475Y-1746384D1*
X3783299Y-1740207D1*
X3765189Y-1734171D1*
X3710439D1*
Y-1861780D1*
X3925837Y-1764494D2*
X3919801Y-1752421D1*
X3907587Y-1740207D1*
X3895514Y-1734171D1*
X3871228D1*
X3859014Y-1740207D1*
X3846941Y-1752421D1*
X3840764Y-1764494D1*
X3834728Y-1782744D1*
Y-1813207D1*
X3840764Y-1831317D1*
X3846941Y-1843530D1*
X3859014Y-1855603D1*
X3871228Y-1861780D1*
X3895514D1*
X3907587Y-1855603D1*
X3919801Y-1843530D1*
X3925837Y-1831317D1*
X3965053Y-1734171D2*
Y-1861780D1*
X4004269Y-1798046D2*
X4074461D1*
X4192573Y-1734171D2*
X4113677D1*
Y-1861780D1*
X4192573D1*
X4113677Y-1794957D2*
X4162250D1*
X4231788Y-1734171D2*
X4316862Y-1861780D1*
Y-1734171D2*
X4231788Y-1861780D1*
X4356077Y-1800994D2*
X4410827D1*
X4428937Y-1794957D1*
X4435114Y-1788780D1*
X4441150Y-1776707D1*
Y-1758457D1*
X4435114Y-1746384D1*
X4428937Y-1740207D1*
X4410827Y-1734171D1*
X4356077D1*
Y-1861780D1*
X4480366Y-1794957D2*
X4534976D1*
X4553226Y-1788780D1*
X4559403Y-1782744D1*
X4565439Y-1770671D1*
Y-1758457D1*
X4559403Y-1746384D1*
X4553226Y-1740207D1*
X4534976Y-1734171D1*
X4480366D1*
Y-1861780D1*
X4522903Y-1794957D2*
X4565439Y-1861780D1*
X4683551Y-1734171D2*
X4604655D1*
Y-1861780D1*
X4683551D1*
X4604655Y-1794957D2*
X4653228D1*
X4807840Y-1752421D2*
X4795767Y-1740207D1*
X4777517Y-1734171D1*
X4753230D1*
X4734980Y-1740207D1*
X4722767Y-1752421D1*
Y-1764494D1*
X4728944Y-1776707D1*
X4734980Y-1782744D1*
X4747053Y-1788780D1*
X4783553Y-1800994D1*
X4795767Y-1807030D1*
X4801803Y-1813207D1*
X4807840Y-1825280D1*
Y-1843530D1*
X4795767Y-1855603D1*
X4777517Y-1861780D1*
X4753230D1*
X4734980Y-1855603D1*
X4722767Y-1843530D1*
X4932128Y-1752421D2*
X4920055Y-1740207D1*
X4901805Y-1734171D1*
X4877519D1*
X4859269Y-1740207D1*
X4847055Y-1752421D1*
Y-1764494D1*
X4853232Y-1776707D1*
X4859269Y-1782744D1*
X4871342Y-1788780D1*
X4907842Y-1800994D1*
X4920055Y-1807030D1*
X4926092Y-1813207D1*
X4932128Y-1825280D1*
Y-1843530D1*
X4920055Y-1855603D1*
X4901805Y-1861780D1*
X4877519D1*
X4859269Y-1855603D1*
X4847055Y-1843530D1*
X5179864Y-1752421D2*
X5167791Y-1740207D1*
X5149541Y-1734171D1*
X5125254D1*
X5107004Y-1740207D1*
X5094791Y-1752421D1*
Y-1764494D1*
X5100968Y-1776707D1*
X5107004Y-1782744D1*
X5119077Y-1788780D1*
X5155577Y-1800994D1*
X5167791Y-1807030D1*
X5173827Y-1813207D1*
X5179864Y-1825280D1*
Y-1843530D1*
X5167791Y-1855603D1*
X5149541Y-1861780D1*
X5125254D1*
X5107004Y-1855603D1*
X5094791Y-1843530D1*
X5219079Y-1734171D2*
Y-1861780D1*
X5291939D1*
X5367655Y-1734171D2*
X5355441Y-1740207D1*
X5343368Y-1752421D1*
X5337191Y-1764494D1*
X5331155Y-1782744D1*
Y-1813207D1*
X5337191Y-1831317D1*
X5343368Y-1843530D1*
X5355441Y-1855603D1*
X5367655Y-1861780D1*
X5391941D1*
X5404014Y-1855603D1*
X5416228Y-1843530D1*
X5422264Y-1831317D1*
X5428301Y-1813207D1*
Y-1782744D1*
X5422264Y-1764494D1*
X5416228Y-1752421D1*
X5404014Y-1740207D1*
X5391941Y-1734171D1*
X5367655D1*
X5510053D2*
Y-1861780D1*
X5467517Y-1734171D2*
X5552590D1*
X5597982Y-1734311D2*
Y-1819244D1*
Y-1849567D2*
X5591805Y-1855744D1*
X5597982Y-1861780D1*
X5604019Y-1855744D1*
X5597982Y-1849567D1*
X4023395Y1503652D2*
D87*
X4028280Y1508481D1*
X4030695Y1515781D1*
Y1525496D1*
X4028280Y1532796D1*
X4023395Y1537681D1*
X4018565D1*
X4013680Y1535210D1*
X4011265Y1532796D1*
X4008851Y1527967D1*
X4003965Y1513367D1*
X4001551Y1508481D1*
X3999080Y1506067D1*
X3994251Y1503652D1*
X3986951D1*
X3982122Y1508481D1*
X3979651Y1515781D1*
Y1525496D1*
X3982122Y1532796D1*
X3986951Y1537681D1*
X4030695Y1487966D2*
X3979651D1*
X4013680Y1460150D2*
X4011265Y1464979D1*
X4006380Y1469865D1*
X3999080Y1472279D1*
X3994251D1*
X3986951Y1469865D1*
X3982122Y1464979D1*
X3979651Y1460150D1*
Y1452850D1*
X3982122Y1447965D1*
X3986951Y1443136D1*
X3994251Y1440665D1*
X3999080D1*
X4006380Y1443136D1*
X4011265Y1447965D1*
X4013680Y1452850D1*
Y1460150D1*
X4030695Y1417679D2*
X3989365D1*
X3982122Y1415264D1*
X3979651Y1410379D1*
Y1405549D1*
X4013680Y1424979D2*
Y1407964D1*
X4006380Y1311284D2*
X4011265Y1316170D1*
X4013680Y1321055D1*
Y1328299D1*
X4011265Y1333184D1*
X4006380Y1338014D1*
X3999080Y1340484D1*
X3994251D1*
X3986951Y1338014D1*
X3982122Y1333184D1*
X3979651Y1328299D1*
Y1321055D1*
X3982122Y1316170D1*
X3986951Y1311284D1*
X4013680Y1295598D2*
X3989365D1*
X3982122Y1293184D1*
X3979651Y1288298D1*
Y1280998D1*
X3982122Y1276169D1*
X3989365Y1268869D1*
X4013680D2*
X3979651D1*
X4030695Y1245883D2*
X3989365D1*
X3982122Y1243468D1*
X3979651Y1238583D1*
Y1233753D1*
X4013680Y1253183D2*
Y1236168D1*
Y1205938D2*
X4011265Y1210767D1*
X4006380Y1215653D1*
X3999080Y1218067D1*
X3994251D1*
X3986951Y1215653D1*
X3982122Y1210767D1*
X3979651Y1205938D1*
Y1198638D1*
X3982122Y1193753D1*
X3986951Y1188923D1*
X3994251Y1186453D1*
X3999080D1*
X4006380Y1188923D1*
X4011265Y1193753D1*
X4013680Y1198638D1*
Y1205938D1*
Y1170766D2*
X3989365D1*
X3982122Y1168352D1*
X3979651Y1163466D1*
Y1156166D1*
X3982122Y1151337D1*
X3989365Y1144037D1*
X4013680D2*
X3979651D1*
X4030695Y1121051D2*
X3989365D1*
X3982122Y1118636D1*
X3979651Y1113751D1*
Y1108922D1*
X4013680Y1128351D2*
Y1111336D1*
X3164814Y682848D2*
D93*
X3161192Y690092D1*
X3153864Y697420D1*
X3146620Y701042D1*
X3132048D1*
X3124720Y697420D1*
X3117476Y690092D1*
X3113770Y682848D1*
X3110148Y671898D1*
Y653620D1*
X3113770Y642754D1*
X3117476Y635426D1*
X3124720Y628182D1*
X3132048Y624476D1*
X3146620D1*
X3153864Y628182D1*
X3161192Y635426D1*
X3164814Y642754D1*
X3188343Y701042D2*
Y624476D1*
Y660948D2*
X3199293Y671898D1*
X3206621Y675520D1*
X3217571D1*
X3224815Y671898D1*
X3228437Y660948D1*
Y624476D1*
X3295682Y675520D2*
Y624476D1*
Y664570D2*
X3288438Y671898D1*
X3281110Y675520D1*
X3270245D1*
X3262916Y671898D1*
X3255673Y664570D1*
X3251966Y653620D1*
Y646376D1*
X3255673Y635426D1*
X3262916Y628182D1*
X3270245Y624476D1*
X3281110D1*
X3288438Y628182D1*
X3295682Y635426D1*
X3319212Y675520D2*
Y624476D1*
Y660948D2*
X3330162Y671898D1*
X3337490Y675520D1*
X3348355D1*
X3355684Y671898D1*
X3359305Y660948D1*
Y624476D1*
Y660948D2*
X3370255Y671898D1*
X3377584Y675520D1*
X3388449D1*
X3395777Y671898D1*
X3399484Y660948D1*
Y624476D1*
X3452157Y701042D2*
X3444913D1*
X3437585Y697420D1*
X3433963Y686470D1*
Y624476D1*
X3423013Y675520D2*
X3448535D1*
X3475686Y653620D2*
X3519402D1*
Y660948D1*
X3515780Y668276D1*
X3512158Y671898D1*
X3504830Y675520D1*
X3493880D1*
X3486636Y671898D1*
X3479308Y664570D1*
X3475686Y653620D1*
Y646376D1*
X3479308Y635426D1*
X3486636Y628182D1*
X3493880Y624476D1*
X3504830D1*
X3512158Y628182D1*
X3519402Y635426D1*
X3542931Y675520D2*
Y624476D1*
Y653620D2*
X3546638Y664570D1*
X3553881Y671898D1*
X3561209Y675520D1*
X3572159D1*
X3669757Y660948D2*
X3702607D1*
X3713473Y664570D1*
X3717179Y668276D1*
X3720801Y675520D1*
Y686470D1*
X3717179Y693714D1*
X3713473Y697420D1*
X3702607Y701042D1*
X3669757D1*
Y624476D1*
X3798996Y682848D2*
X3795374Y690092D1*
X3788046Y697420D1*
X3780802Y701042D1*
X3766230D1*
X3758902Y697420D1*
X3751658Y690092D1*
X3747952Y682848D1*
X3744330Y671898D1*
Y653620D1*
X3747952Y642754D1*
X3751658Y635426D1*
X3758902Y628182D1*
X3766230Y624476D1*
X3780802D1*
X3788046Y628182D1*
X3795374Y635426D1*
X3798996Y642754D1*
X3822525Y701042D2*
Y624476D1*
X3855375D1*
X3866325Y628182D1*
X3869947Y631804D1*
X3873569Y639048D1*
Y649998D1*
X3869947Y657326D1*
X3866325Y660948D1*
X3855375Y664570D1*
X3866325Y668276D1*
X3869947Y671898D1*
X3873569Y679142D1*
Y686470D1*
X3869947Y693714D1*
X3866325Y697420D1*
X3855375Y701042D1*
X3822525D1*
Y664570D2*
X3855375D1*
X3971166Y653620D2*
X4014882D1*
Y660948D1*
X4011260Y668276D1*
X4007638Y671898D1*
X4000310Y675520D1*
X3989360D1*
X3982116Y671898D1*
X3974788Y664570D1*
X3971166Y653620D1*
Y646376D1*
X3974788Y635426D1*
X3982116Y628182D1*
X3989360Y624476D1*
X4000310D1*
X4007638Y628182D1*
X4014882Y635426D1*
X4082127Y701042D2*
Y624476D1*
Y664570D2*
X4074883Y671898D1*
X4067555Y675520D1*
X4056605D1*
X4049362Y671898D1*
X4042033Y664570D1*
X4038412Y653620D1*
Y646376D1*
X4042033Y635426D1*
X4049362Y628182D1*
X4056605Y624476D1*
X4067555D1*
X4074883Y628182D1*
X4082127Y635426D1*
X4149372Y671898D2*
Y613526D1*
X4145751Y602660D1*
X4142129Y598954D1*
X4134801Y595332D1*
X4123851D1*
X4116607Y598954D1*
X4149372Y660948D2*
X4142129Y668192D1*
X4134801Y671898D1*
X4123851D1*
X4116607Y668192D1*
X4109279Y660948D1*
X4105657Y649998D1*
Y642670D1*
X4109279Y631804D1*
X4116607Y624476D1*
X4123851Y620854D1*
X4134801D1*
X4142129Y624476D1*
X4149372Y631804D1*
X4172902Y653620D2*
X4216618D1*
Y660948D1*
X4212996Y668276D1*
X4209374Y671898D1*
X4202046Y675520D1*
X4191096D1*
X4183852Y671898D1*
X4176524Y664570D1*
X4172902Y653620D1*
Y646376D1*
X4176524Y635426D1*
X4183852Y628182D1*
X4191096Y624476D1*
X4202046D1*
X4209374Y628182D1*
X4216618Y635426D1*
M02*
