G04 DipTrace 5.2.0.4*
G04 TopAssembly.gbr*
%MOMM*%
G04 #@! TF.FileFunction,Drawing,Top*
G04 #@! TF.Part,Single*
%ADD10C,0.1*%
%ADD13C,0.12*%
%ADD20C,0.2*%
%ADD27C,0.5*%
%ADD28C,0.2*%
%ADD34C,0.127*%
%ADD46C,0.075*%
%ADD82C,0.07843*%
%ADD86C,0.27451*%
%ADD87C,0.19608*%
%ADD88C,0.11765*%
%FSLAX35Y35*%
G04*
G71*
G90*
G75*
G01*
G04 TopAssy*
%LPD*%
X2539996Y15935003D2*
D13*
X2269996Y15934997D1*
X2270004Y15594997D1*
X2540004Y15595003D1*
X2539996Y15935003D1*
X3115500Y7978000D2*
X3019500D1*
Y7802000D1*
X3115500D1*
Y7978000D1*
X3453000D2*
X3357000D1*
Y7802000D1*
X3453000D1*
Y7978000D1*
X2444500Y4655000D2*
X2590500D1*
Y4875000D1*
X2444500D1*
Y4655000D1*
X3293001Y4817002D2*
X3292999Y4913002D1*
X3116999Y4912998D1*
X3117001Y4816998D1*
X3293001Y4817002D1*
X1757004Y15676998D2*
X1853004Y15677002D1*
X1852996Y15853002D1*
X1756996Y15852998D1*
X1757004Y15676998D1*
X2893002Y4817005D2*
X2892998Y4913005D1*
X2716998Y4912995D1*
X2717002Y4816995D1*
X2893002Y4817005D1*
X3019502Y7308249D2*
X3115502Y7308251D1*
X3115498Y7484251D1*
X3019498Y7484249D1*
X3019502Y7308249D1*
X1019978Y7074978D2*
X2339978Y7075022D1*
X2340013Y6020022D1*
X2076022Y5755013D1*
X1284022Y5754987D1*
X1020013Y6019978D1*
X1019978Y7074978D1*
X1005000Y6415000D2*
G02X1005000Y6415000I675000J0D01*
G01*
G36*
X2259643Y5885398D2*
X2259215Y5878872D1*
X2257940Y5872457D1*
X2255837Y5866264D1*
X2252945Y5860398D1*
X2249312Y5854960D1*
X2244999Y5850042D1*
X2240082Y5845730D1*
X2234644Y5842096D1*
X2228779Y5839203D1*
X2222586Y5837100D1*
X2216171Y5835824D1*
X2209645Y5835396D1*
X2203118Y5835824D1*
X2196704Y5837099D1*
X2190510Y5839201D1*
X2184644Y5842094D1*
X2179206Y5845727D1*
X2174289Y5850039D1*
X2169976Y5854957D1*
X2166342Y5860395D1*
X2163450Y5866260D1*
X2161347Y5872453D1*
X2160071Y5878868D1*
X2159643Y5885394D1*
D1*
X2160070Y5891921D1*
X2161346Y5898335D1*
X2163448Y5904529D1*
X2166341Y5910395D1*
X2169974Y5915833D1*
X2174286Y5920750D1*
X2179203Y5925063D1*
X2184641Y5928696D1*
X2190507Y5931589D1*
X2196700Y5933692D1*
X2203115Y5934968D1*
X2209641Y5935396D1*
X2216167Y5934969D1*
X2222582Y5933693D1*
X2228775Y5931591D1*
X2234641Y5928698D1*
X2240079Y5925065D1*
X2244997Y5920753D1*
X2249309Y5915836D1*
X2252943Y5910398D1*
X2255836Y5904532D1*
X2257939Y5898339D1*
X2259215Y5891924D1*
X2259643Y5885398D1*
D1*
G37*
X2340017Y4105017D2*
D13*
X1020017Y4104983D1*
X1019990Y5159983D1*
X1283983Y5424990D1*
X2075983Y5425010D1*
X2339990Y5160017D1*
X2340017Y4105017D1*
X1444998Y15737997D2*
X1445002Y15591997D1*
X1665002Y15592003D1*
X1664998Y15738003D1*
X1444998Y15737997D1*
Y15937997D2*
X1445002Y15791997D1*
X1665002Y15792003D1*
X1664998Y15938003D1*
X1444998Y15937997D1*
X1005000Y4765000D2*
G02X1005000Y4765000I675000J0D01*
G01*
G36*
X2259643Y4235398D2*
X2259215Y4228872D1*
X2257940Y4222457D1*
X2255837Y4216264D1*
X2252945Y4210398D1*
X2249312Y4204960D1*
X2244999Y4200042D1*
X2240082Y4195730D1*
X2234644Y4192096D1*
X2228779Y4189203D1*
X2222586Y4187100D1*
X2216171Y4185824D1*
X2209645Y4185396D1*
X2203118Y4185824D1*
X2196704Y4187099D1*
X2190510Y4189201D1*
X2184644Y4192094D1*
X2179206Y4195727D1*
X2174289Y4200039D1*
X2169976Y4204957D1*
X2166342Y4210395D1*
X2163450Y4216260D1*
X2161347Y4222453D1*
X2160071Y4228868D1*
X2159643Y4235394D1*
D1*
X2160070Y4241921D1*
X2161346Y4248335D1*
X2163448Y4254529D1*
X2166341Y4260395D1*
X2169974Y4265833D1*
X2174286Y4270750D1*
X2179203Y4275063D1*
X2184641Y4278696D1*
X2190507Y4281589D1*
X2196700Y4283692D1*
X2203115Y4284968D1*
X2209641Y4285396D1*
X2216167Y4284969D1*
X2222582Y4283693D1*
X2228775Y4281591D1*
X2234641Y4278698D1*
X2240079Y4275065D1*
X2244997Y4270753D1*
X2249309Y4265836D1*
X2252943Y4260398D1*
X2255836Y4254532D1*
X2257939Y4248339D1*
X2259215Y4241924D1*
X2259643Y4235398D1*
D1*
G37*
X2819959Y16874959D2*
D13*
X4139959Y16875041D1*
X4140025Y15820041D1*
X3876041Y15555025D1*
X3084041Y15554975D1*
X2820025Y15819959D1*
X2819959Y16874959D1*
X2805000Y16215000D2*
G02X2805000Y16215000I675000J0D01*
G01*
G36*
X2695644Y16179645D2*
X2691332Y16184562D1*
X2687698Y16190000D1*
X2684806Y16195866D1*
X2682703Y16202059D1*
X2681427Y16208474D1*
X2680999Y16215000D1*
X2681427Y16221526D1*
X2682703Y16227941D1*
X2684806Y16234134D1*
X2687698Y16240000D1*
X2691332Y16245438D1*
X2695644Y16250355D1*
X2700561Y16254668D1*
X2705999Y16258301D1*
X2711865Y16261194D1*
X2718059Y16263296D1*
X2724473Y16264572D1*
X2730999Y16265000D1*
X2737526Y16264572D1*
X2743940Y16263296D1*
X2750134Y16261194D1*
X2755999Y16258301D1*
X2761438Y16254668D1*
X2766355Y16250355D1*
D1*
X2770667Y16245438D1*
X2774301Y16240000D1*
X2777193Y16234134D1*
X2779296Y16227941D1*
X2780572Y16221526D1*
X2780999Y16215000D1*
X2780572Y16208474D1*
X2779296Y16202059D1*
X2777193Y16195866D1*
X2774301Y16190000D1*
X2770667Y16184562D1*
X2766355Y16179645D1*
X2761438Y16175332D1*
X2755999Y16171699D1*
X2750134Y16168806D1*
X2743940Y16166704D1*
X2737526Y16165428D1*
X2730999Y16165000D1*
X2724473Y16165428D1*
X2718059Y16166704D1*
X2711865Y16168806D1*
X2705999Y16171699D1*
X2700561Y16175332D1*
X2695644Y16179645D1*
D1*
G37*
X3603000Y7978000D2*
D13*
X3507000D1*
Y7802000D1*
X3603000D1*
Y7978000D1*
X3940500D2*
X3844500D1*
Y7802000D1*
X3940500D1*
Y7978000D1*
X4369502Y4654999D2*
X4515502Y4655001D1*
X4515498Y4875001D1*
X4369498Y4874999D1*
X4369502Y4654999D1*
X3667000Y4913000D2*
Y4817000D1*
X3843000D1*
Y4913000D1*
X3667000D1*
X4066999Y4912997D2*
X4067001Y4816997D1*
X4243001Y4817003D1*
X4242999Y4913003D1*
X4066999Y4912997D1*
X4340500Y8428000D2*
X4244500D1*
Y8252000D1*
X4340500D1*
Y8428000D1*
X3844502Y7308249D2*
X3940502Y7308251D1*
X3940498Y7484251D1*
X3844498Y7484249D1*
X3844502Y7308249D1*
X5940017Y4105017D2*
X4620017Y4104983D1*
X4619990Y5159983D1*
X4883983Y5424990D1*
X5675983Y5425010D1*
X5939990Y5160017D1*
X5940017Y4105017D1*
X4605000Y4765000D2*
G02X4605000Y4765000I675000J0D01*
G01*
G36*
X4700377Y5294623D2*
X4700804Y5301150D1*
X4702080Y5307564D1*
X4704183Y5313758D1*
X4707075Y5319623D1*
X4710709Y5325061D1*
X4715021Y5329979D1*
X4719939Y5334291D1*
X4725377Y5337925D1*
X4731242Y5340817D1*
X4737436Y5342920D1*
X4743850Y5344196D1*
X4750377Y5344623D1*
X4756903Y5344196D1*
X4763318Y5342920D1*
X4769511Y5340817D1*
X4775377Y5337925D1*
X4780815Y5334291D1*
X4785732Y5329979D1*
X4790044Y5325061D1*
X4793678Y5319623D1*
X4796571Y5313758D1*
X4798673Y5307564D1*
X4799949Y5301150D1*
X4800377Y5294623D1*
D1*
X4799949Y5288097D1*
X4798673Y5281682D1*
X4796571Y5275489D1*
X4793678Y5269623D1*
X4790044Y5264185D1*
X4785732Y5259268D1*
X4780815Y5254956D1*
X4775377Y5251322D1*
X4769511Y5248429D1*
X4763318Y5246327D1*
X4756903Y5245051D1*
X4750377Y5244623D1*
X4743850Y5245051D1*
X4737436Y5246327D1*
X4731242Y5248429D1*
X4725377Y5251322D1*
X4719939Y5254956D1*
X4715021Y5259268D1*
X4710709Y5264185D1*
X4707075Y5269623D1*
X4704183Y5275489D1*
X4702080Y5281682D1*
X4700804Y5288097D1*
X4700377Y5294623D1*
D1*
G37*
X4619978Y7074978D2*
D13*
X5939978Y7075022D1*
X5940013Y6020022D1*
X5676022Y5755013D1*
X4884022Y5754987D1*
X4620013Y6019978D1*
X4619978Y7074978D1*
X4605000Y6415000D2*
G02X4605000Y6415000I675000J0D01*
G01*
G36*
X4700361Y6944606D2*
X4700789Y6951133D1*
X4702064Y6957547D1*
X4704167Y6963741D1*
X4707059Y6969606D1*
X4710693Y6975045D1*
X4715005Y6979962D1*
X4719922Y6984275D1*
X4725360Y6987908D1*
X4731226Y6990801D1*
X4737419Y6992904D1*
X4743833Y6994180D1*
X4750360Y6994608D1*
X4756886Y6994180D1*
X4763301Y6992904D1*
X4769494Y6990802D1*
X4775360Y6987910D1*
X4780798Y6984276D1*
X4785715Y6979964D1*
X4790028Y6975047D1*
X4793662Y6969609D1*
X4796555Y6963743D1*
X4798657Y6957550D1*
X4799933Y6951136D1*
X4800361Y6944609D1*
D1*
X4799934Y6938083D1*
X4798658Y6931668D1*
X4796556Y6925475D1*
X4793663Y6919609D1*
X4790030Y6914171D1*
X4785717Y6909253D1*
X4780800Y6904941D1*
X4775362Y6901307D1*
X4769497Y6898414D1*
X4763303Y6896312D1*
X4756889Y6895036D1*
X4750363Y6894608D1*
X4743836Y6895035D1*
X4737422Y6896311D1*
X4731228Y6898413D1*
X4725362Y6901306D1*
X4719924Y6904939D1*
X4715007Y6909251D1*
X4710694Y6914169D1*
X4707061Y6919606D1*
X4704168Y6925472D1*
X4702065Y6931665D1*
X4700789Y6938080D1*
X4700361Y6944606D1*
D1*
G37*
X4190500Y8428000D2*
D13*
X4094500D1*
Y8252000D1*
X4190500D1*
Y8428000D1*
X4490500D2*
X4394500D1*
Y8252000D1*
X4490500D1*
Y8428000D1*
X2843001Y8754502D2*
X2842999Y8850502D1*
X2666999Y8850498D1*
X2667001Y8754498D1*
X2843001Y8754502D1*
Y8442002D2*
X2842999Y8538002D1*
X2666999Y8537998D1*
X2667001Y8441998D1*
X2843001Y8442002D1*
X4420003Y15894998D2*
X4690003Y15895002D1*
X4689997Y16235002D1*
X4419997Y16234998D1*
X4420003Y15894998D1*
X5203000Y16153000D2*
X5107000D1*
Y15977000D1*
X5203000D1*
Y16153000D1*
X5515002Y15892002D2*
X5514998Y16038002D1*
X5294998Y16037998D1*
X5295002Y15891998D1*
X5515002Y15892002D1*
Y16092002D2*
X5514998Y16238002D1*
X5294998Y16237998D1*
X5295002Y16091998D1*
X5515002Y16092002D1*
X3844502Y11301999D2*
X3940502Y11302001D1*
X3940498Y11478001D1*
X3844498Y11477999D1*
X3844502Y11301999D1*
X3507003Y11301998D2*
X3603003Y11302002D1*
X3602997Y11478002D1*
X3506997Y11477998D1*
X3507003Y11301998D1*
X4515496Y14625003D2*
X4369496Y14624997D1*
X4369504Y14404997D1*
X4515504Y14405003D1*
X4515496Y14625003D1*
X3666999Y14462997D2*
X3667001Y14366997D1*
X3843001Y14367003D1*
X3842999Y14463003D1*
X3666999Y14462997D1*
X4066999D2*
X4067001Y14366997D1*
X4243001Y14367003D1*
X4242999Y14463003D1*
X4066999Y14462997D1*
X3940496Y11971752D2*
X3844496Y11971748D1*
X3844504Y11795748D1*
X3940504Y11795752D1*
X3940496Y11971752D1*
X5940017Y12205017D2*
X4620017Y12204983D1*
X4619990Y13259983D1*
X4883983Y13524990D1*
X5675983Y13525010D1*
X5939990Y13260017D1*
X5940017Y12205017D1*
X4605000Y12865000D2*
G02X4605000Y12865000I675000J0D01*
G01*
G36*
X4700377Y13394623D2*
X4700804Y13401150D1*
X4702080Y13407564D1*
X4704183Y13413758D1*
X4707075Y13419623D1*
X4710709Y13425061D1*
X4715021Y13429979D1*
X4719939Y13434291D1*
X4725377Y13437925D1*
X4731242Y13440817D1*
X4737436Y13442920D1*
X4743850Y13444196D1*
X4750377Y13444623D1*
X4756903Y13444196D1*
X4763318Y13442920D1*
X4769511Y13440817D1*
X4775377Y13437925D1*
X4780815Y13434291D1*
X4785732Y13429979D1*
X4790044Y13425061D1*
X4793678Y13419623D1*
X4796571Y13413758D1*
X4798673Y13407564D1*
X4799949Y13401150D1*
X4800377Y13394623D1*
D1*
X4799949Y13388097D1*
X4798673Y13381682D1*
X4796571Y13375489D1*
X4793678Y13369623D1*
X4790044Y13364185D1*
X4785732Y13359268D1*
X4780815Y13354956D1*
X4775377Y13351322D1*
X4769511Y13348429D1*
X4763318Y13346327D1*
X4756903Y13345051D1*
X4750377Y13344623D1*
X4743850Y13345051D1*
X4737436Y13346327D1*
X4731242Y13348429D1*
X4725377Y13351322D1*
X4719939Y13354956D1*
X4715021Y13359268D1*
X4710709Y13364185D1*
X4707075Y13369623D1*
X4704183Y13375489D1*
X4702080Y13381682D1*
X4700804Y13388097D1*
X4700377Y13394623D1*
D1*
G37*
X4619988Y15174988D2*
D13*
X5939988Y15175012D1*
X5940007Y14120012D1*
X5676012Y13855007D1*
X4884012Y13854993D1*
X4620007Y14119988D1*
X4619988Y15174988D1*
X4605000Y14515000D2*
G02X4605000Y14515000I675000J0D01*
G01*
G36*
X4700377Y15044623D2*
X4700804Y15051150D1*
X4702080Y15057564D1*
X4704183Y15063758D1*
X4707075Y15069623D1*
X4710709Y15075061D1*
X4715021Y15079979D1*
X4719939Y15084291D1*
X4725377Y15087925D1*
X4731242Y15090817D1*
X4737436Y15092920D1*
X4743850Y15094196D1*
X4750377Y15094623D1*
X4756903Y15094196D1*
X4763318Y15092920D1*
X4769511Y15090817D1*
X4775377Y15087925D1*
X4780815Y15084291D1*
X4785732Y15079979D1*
X4790044Y15075061D1*
X4793678Y15069623D1*
X4796571Y15063758D1*
X4798673Y15057564D1*
X4799949Y15051150D1*
X4800377Y15044623D1*
D1*
X4799949Y15038097D1*
X4798673Y15031682D1*
X4796571Y15025489D1*
X4793678Y15019623D1*
X4790044Y15014185D1*
X4785732Y15009268D1*
X4780815Y15004956D1*
X4775377Y15001322D1*
X4769511Y14998429D1*
X4763318Y14996327D1*
X4756903Y14995051D1*
X4750377Y14994623D1*
X4743850Y14995051D1*
X4737436Y14996327D1*
X4731242Y14998429D1*
X4725377Y15001322D1*
X4719939Y15004956D1*
X4715021Y15009268D1*
X4710709Y15014185D1*
X4707075Y15019623D1*
X4704183Y15025489D1*
X4702080Y15031682D1*
X4700804Y15038097D1*
X4700377Y15044623D1*
D1*
G37*
X3357003Y11301998D2*
D13*
X3453003Y11302002D1*
X3452997Y11478002D1*
X3356997Y11477998D1*
X3357003Y11301998D1*
X3019502Y11301999D2*
X3115502Y11302001D1*
X3115498Y11478001D1*
X3019498Y11477999D1*
X3019502Y11301999D1*
X2590496Y14625003D2*
X2444496Y14624997D1*
X2444504Y14404997D1*
X2590504Y14405003D1*
X2590496Y14625003D1*
X2893001Y14367002D2*
X2892999Y14463002D1*
X2716999Y14462998D1*
X2717001Y14366998D1*
X2893001Y14367002D1*
X3293002Y14367003D2*
X3292998Y14463003D1*
X3116998Y14462997D1*
X3117002Y14366997D1*
X3293002Y14367003D1*
X2632002Y10851999D2*
X2728002Y10852001D1*
X2727998Y11028001D1*
X2631998Y11027999D1*
X2632002Y10851999D1*
X3115498Y11971751D2*
X3019498Y11971749D1*
X3019502Y11795749D1*
X3115502Y11795751D1*
X3115498Y11971751D1*
X2340017Y12205017D2*
X1020017Y12204983D1*
X1019990Y13259983D1*
X1283983Y13524990D1*
X2075983Y13525010D1*
X2339990Y13260017D1*
X2340017Y12205017D1*
X1005000Y12865000D2*
G02X1005000Y12865000I675000J0D01*
G01*
G36*
X2259635Y12335389D2*
X2259207Y12328863D1*
X2257932Y12322448D1*
X2255829Y12316255D1*
X2252937Y12310389D1*
X2249303Y12304951D1*
X2244991Y12300034D1*
X2240074Y12295721D1*
X2234636Y12292088D1*
X2228770Y12289195D1*
X2222577Y12287092D1*
X2216162Y12285816D1*
X2209636Y12285388D1*
X2203110Y12285816D1*
X2196695Y12287092D1*
X2190502Y12289194D1*
X2184636Y12292087D1*
X2179198Y12295720D1*
X2174280Y12300032D1*
X2169968Y12304949D1*
X2166334Y12310387D1*
X2163441Y12316253D1*
X2161339Y12322446D1*
X2160063Y12328861D1*
X2159635Y12335387D1*
D1*
X2160063Y12341914D1*
X2161338Y12348328D1*
X2163441Y12354521D1*
X2166333Y12360387D1*
X2169967Y12365826D1*
X2174279Y12370743D1*
X2179196Y12375055D1*
X2184634Y12378689D1*
X2190500Y12381582D1*
X2196693Y12383684D1*
X2203108Y12384960D1*
X2209634Y12385388D1*
X2216160Y12384961D1*
X2222575Y12383685D1*
X2228768Y12381583D1*
X2234634Y12378690D1*
X2240072Y12375057D1*
X2244990Y12370744D1*
X2249302Y12365827D1*
X2252936Y12360389D1*
X2255829Y12354524D1*
X2257931Y12348330D1*
X2259207Y12341916D1*
X2259635Y12335389D1*
D1*
G37*
X1019988Y15174988D2*
D13*
X2339988Y15175012D1*
X2340007Y14120012D1*
X2076012Y13855007D1*
X1284012Y13854993D1*
X1020007Y14119988D1*
X1019988Y15174988D1*
X1005000Y14515000D2*
G02X1005000Y14515000I675000J0D01*
G01*
G36*
X2259635Y13985389D2*
X2259207Y13978863D1*
X2257932Y13972448D1*
X2255829Y13966255D1*
X2252937Y13960389D1*
X2249303Y13954951D1*
X2244991Y13950034D1*
X2240074Y13945721D1*
X2234636Y13942088D1*
X2228770Y13939195D1*
X2222577Y13937092D1*
X2216162Y13935816D1*
X2209636Y13935388D1*
X2203110Y13935816D1*
X2196695Y13937092D1*
X2190502Y13939194D1*
X2184636Y13942087D1*
X2179198Y13945720D1*
X2174280Y13950032D1*
X2169968Y13954949D1*
X2166334Y13960387D1*
X2163441Y13966253D1*
X2161339Y13972446D1*
X2160063Y13978861D1*
X2159635Y13985387D1*
D1*
X2160063Y13991914D1*
X2161338Y13998328D1*
X2163441Y14004521D1*
X2166333Y14010387D1*
X2169967Y14015826D1*
X2174279Y14020743D1*
X2179196Y14025055D1*
X2184634Y14028689D1*
X2190500Y14031582D1*
X2196693Y14033684D1*
X2203108Y14034960D1*
X2209634Y14035388D1*
X2216160Y14034961D1*
X2222575Y14033685D1*
X2228768Y14031583D1*
X2234634Y14028690D1*
X2240072Y14025057D1*
X2244990Y14020744D1*
X2249302Y14015827D1*
X2252936Y14010389D1*
X2255829Y14004524D1*
X2257931Y13998330D1*
X2259207Y13991916D1*
X2259635Y13985389D1*
D1*
G37*
X2782004Y10851998D2*
D13*
X2878004Y10852002D1*
X2877996Y11028002D1*
X2781996Y11027998D1*
X2782004Y10851998D1*
X2482003D2*
X2578003Y10852002D1*
X2577997Y11028002D1*
X2481997Y11027998D1*
X2482003Y10851998D1*
X4117000Y10463000D2*
Y10367000D1*
X4293000D1*
Y10463000D1*
X4117000D1*
Y10838000D2*
Y10742000D1*
X4293000D1*
Y10838000D1*
X4117000D1*
X2667000Y8713000D2*
Y8617000D1*
X2843000D1*
Y8713000D1*
X2667000D1*
Y8400500D2*
Y8304500D1*
X2843000D1*
Y8400500D1*
X2667000D1*
X4293002Y10567003D2*
X4292998Y10663003D1*
X4116998Y10662997D1*
X4117002Y10566997D1*
X4293002Y10567003D1*
X4293000Y10879500D2*
Y10975500D1*
X4117000D1*
Y10879500D1*
X4293000D1*
X3357000Y9327000D2*
X3453000D1*
Y9503000D1*
X3357000D1*
Y9327000D1*
X3603000Y9953000D2*
X3507000D1*
Y9777000D1*
X3603000D1*
Y9953000D1*
X3040500Y2553000D2*
X2944500D1*
Y2377000D1*
X3040500D1*
Y2553000D1*
X2890500Y3740500D2*
X2794500D1*
Y3564500D1*
X2890500D1*
Y3740500D1*
X1365500Y2553000D2*
X1269500D1*
Y2377000D1*
X1365500D1*
Y2553000D1*
X1279500Y3963000D2*
Y3867000D1*
X1455500D1*
Y3963000D1*
X1279500D1*
X4783500Y2540500D2*
X4687500D1*
Y2364500D1*
X4783500D1*
Y2540500D1*
X4721999Y3962997D2*
X4722001Y3866997D1*
X4898001Y3867003D1*
X4897999Y3963003D1*
X4721999Y3962997D1*
X2332000Y9405500D2*
Y9309500D1*
X2508000D1*
Y9405500D1*
X2332000D1*
X4623001Y9874502D2*
X4622999Y9970502D1*
X4446999Y9970498D1*
X4447001Y9874498D1*
X4623001Y9874502D1*
X1265000Y15395000D2*
X1305000D1*
X1345000Y15435000D1*
Y15635000D1*
X1265000D1*
Y15395000D1*
X2640004Y2344999D2*
X2680004Y2345000D1*
X2720003Y2385001D1*
X2719996Y2585001D1*
X2639996Y2584999D1*
X2640004Y2344999D1*
X5615004Y15394999D2*
X5655004Y15395000D1*
X5695003Y15435001D1*
X5694996Y15635001D1*
X5614996Y15634999D1*
X5615004Y15394999D1*
X1350007Y15850005D2*
X1163007Y15849998D1*
X1070004Y15942995D1*
X1069993Y16299995D1*
X1349993Y16300005D1*
X1350007Y15850005D1*
X5895004Y15850003D2*
X5708004Y15849999D1*
X5615002Y15942997D1*
X5614996Y16299997D1*
X5894996Y16300003D1*
X5895004Y15850003D1*
X2055000Y16050000D2*
Y16237000D1*
X2148000Y16330000D1*
X2505000D1*
Y16050000D1*
X2055000D1*
G36*
X4335000Y14935000D2*
X4337611Y14934829D1*
X4340176Y14934319D1*
X4342654Y14933478D1*
X4345000Y14932321D1*
X4347175Y14930867D1*
X4349142Y14929142D1*
X4350867Y14927175D1*
X4352321Y14925000D1*
X4353478Y14922654D1*
X4354319Y14920176D1*
X4354829Y14917611D1*
X4355000Y14915000D1*
X4354829Y14912389D1*
X4354319Y14909824D1*
X4353478Y14907346D1*
X4352320Y14905000D1*
X4350867Y14902825D1*
X4349142Y14900858D1*
X4347175Y14899133D1*
X4345000Y14897679D1*
X4342654Y14896522D1*
X4340176Y14895681D1*
X4337610Y14895171D1*
X4335000Y14895000D1*
D1*
X4332389Y14895171D1*
X4329824Y14895681D1*
X4327346Y14896522D1*
X4325000Y14897679D1*
X4322825Y14899133D1*
X4320858Y14900858D1*
X4319133Y14902825D1*
X4317679Y14905000D1*
X4316522Y14907346D1*
X4315681Y14909824D1*
X4315171Y14912389D1*
X4315000Y14915000D1*
X4315171Y14917611D1*
X4315681Y14920176D1*
X4316522Y14922654D1*
X4317679Y14925000D1*
X4319133Y14927175D1*
X4320858Y14929142D1*
X4322825Y14930867D1*
X4325000Y14932320D1*
X4327346Y14933478D1*
X4329824Y14934319D1*
X4332389Y14934829D1*
X4335000Y14935000D1*
D1*
G37*
X4269000Y14545000D2*
D34*
Y15395000D1*
X2691000D1*
Y14545000D1*
X4269000D1*
X1030006Y7642490D2*
D13*
X1029981Y9037490D1*
X1529981Y9037499D1*
X1530004Y7742499D1*
X1430006Y7642497D1*
X1030006Y7642490D1*
X5930000Y9037500D2*
Y7642500D1*
X5430000D1*
Y8937500D1*
X5530000Y9037500D1*
X5930000D1*
G36*
X2625000Y4345000D2*
X2622389Y4345171D1*
X2619824Y4345681D1*
X2617346Y4346522D1*
X2615000Y4347679D1*
X2612825Y4349133D1*
X2610858Y4350858D1*
X2609133Y4352825D1*
X2607679Y4355000D1*
X2606522Y4357346D1*
X2605681Y4359824D1*
X2605171Y4362389D1*
X2605000Y4365000D1*
X2605171Y4367611D1*
X2605681Y4370176D1*
X2606522Y4372654D1*
X2607680Y4375000D1*
X2609133Y4377175D1*
X2610858Y4379142D1*
X2612825Y4380867D1*
X2615000Y4382321D1*
X2617346Y4383478D1*
X2619824Y4384319D1*
X2622390Y4384829D1*
X2625000Y4385000D1*
D1*
X2627611Y4384829D1*
X2630176Y4384319D1*
X2632654Y4383478D1*
X2635000Y4382321D1*
X2637175Y4380867D1*
X2639142Y4379142D1*
X2640867Y4377175D1*
X2642321Y4375000D1*
X2643478Y4372654D1*
X2644319Y4370176D1*
X2644829Y4367611D1*
X2645000Y4365000D1*
X2644829Y4362389D1*
X2644319Y4359824D1*
X2643478Y4357346D1*
X2642321Y4355000D1*
X2640867Y4352825D1*
X2639142Y4350858D1*
X2637175Y4349133D1*
X2635000Y4347680D1*
X2632654Y4346522D1*
X2630176Y4345681D1*
X2627611Y4345171D1*
X2625000Y4345000D1*
D1*
G37*
X2691000Y4735000D2*
D34*
Y3885000D1*
X4269000D1*
Y4735000D1*
X2691000D1*
X4945000Y17275500D2*
D13*
X5045000Y17175500D1*
Y16699500D1*
X4305000D1*
Y17275500D1*
X4945000D1*
G36*
X2750001Y16815010D2*
X2749830Y16812399D1*
X2749319Y16809833D1*
X2748478Y16807356D1*
X2747321Y16805010D1*
X2745868Y16802834D1*
X2744143Y16800868D1*
X2742176Y16799143D1*
X2740001Y16797689D1*
X2737655Y16796532D1*
X2735177Y16795691D1*
X2732612Y16795181D1*
X2730001Y16795009D1*
X2727390Y16795180D1*
X2724825Y16795691D1*
X2722347Y16796532D1*
X2720001Y16797689D1*
X2717826Y16799142D1*
X2715859Y16800867D1*
X2714134Y16802834D1*
X2712680Y16805009D1*
X2711523Y16807355D1*
X2710682Y16809833D1*
X2710172Y16812398D1*
X2710001Y16815009D1*
D1*
X2710172Y16817619D1*
X2710682Y16820185D1*
X2711523Y16822663D1*
X2712680Y16825009D1*
X2714133Y16827184D1*
X2715858Y16829151D1*
X2717825Y16830876D1*
X2720000Y16832330D1*
X2722346Y16833487D1*
X2724824Y16834328D1*
X2727390Y16834838D1*
X2730000Y16835009D1*
X2732611Y16834838D1*
X2735177Y16834328D1*
X2737654Y16833487D1*
X2740000Y16832330D1*
X2742175Y16830877D1*
X2744142Y16829152D1*
X2745867Y16827185D1*
X2747321Y16825010D1*
X2748478Y16822663D1*
X2749319Y16820186D1*
X2749829Y16817620D1*
X2750001Y16815010D1*
D1*
G37*
X2553009Y16415005D2*
D34*
X2553005Y16615005D1*
X2007005Y16614993D2*
X2007009Y16414993D1*
X2553009Y16415005D1*
X2673005Y16615008D2*
X2672991Y17265008D1*
X1886991Y17264991D1*
X1887005Y16614991D1*
X2007005Y16614993D1*
X2553005Y16615005D2*
X2673005Y16615008D1*
X4100000Y1000000D2*
D13*
X5145000D1*
X3860000D2*
X1815000D1*
X1765000Y620000D2*
D46*
Y1070000D1*
X5195000Y1050000D2*
D13*
Y2092500D1*
X5145000Y1000000D2*
X5195000Y1050000D1*
X1815000Y1000000D2*
X1765000Y1050000D1*
Y2315000D1*
X980000D2*
X5980000D1*
X1765000D2*
D10*
X1400000D1*
Y800000D1*
X5560000D1*
Y2092500D1*
X3885000Y1745000D2*
D13*
G02X4075000Y1745000I95000J0D01*
G01*
Y1027500D1*
X3885000Y1745000D2*
Y1020000D1*
X4100000Y1000000D2*
G02X4075000Y1025000I3J25003D01*
G01*
X3885000D2*
G02X3860000Y1000000I-25003J3D01*
G01*
X5560000Y2092500D2*
G03X5195000Y2092500I-182500J0D01*
G01*
X3030000Y670000D2*
D46*
X1765000D1*
X1815000Y720000D1*
X1765000Y670000D2*
X1815000Y620000D1*
X4220000Y670000D2*
X5195000D1*
X5145000Y620000D1*
Y720000D2*
X5195000Y670000D1*
Y625000D2*
Y1075000D1*
X1014495Y11559988D2*
D13*
X1114492Y11659991D1*
X1590492Y11660007D1*
X1590574Y9170007D1*
X1014574Y9169988D1*
X1014495Y11559988D1*
X5945506Y9270014D2*
X5845510Y9170010D1*
X5369510Y9169991D1*
X5369410Y11659991D1*
X5945410Y11660014D1*
X5945506Y9270014D1*
X1840008Y16005008D2*
X1839992Y16425008D1*
X1419992Y16424992D1*
X1420008Y16004992D1*
X1840008Y16005008D1*
X5120000Y15825000D2*
Y15405000D1*
X5540000D1*
Y15825000D1*
X5120000D1*
X980000Y16915000D2*
G02X980000Y16915000I400000J0D01*
G01*
G36*
X1380000Y16905000D2*
X1378695Y16905086D1*
X1377412Y16905341D1*
X1376173Y16905761D1*
X1375000Y16906340D1*
X1373912Y16907066D1*
X1372929Y16907929D1*
X1372066Y16908912D1*
X1371340Y16910000D1*
X1370761Y16911173D1*
X1370341Y16912412D1*
X1370086Y16913695D1*
X1370000Y16915000D1*
X1370086Y16916305D1*
X1370341Y16917588D1*
X1370761Y16918827D1*
X1371340Y16920000D1*
X1372066Y16921088D1*
X1372929Y16922071D1*
X1373912Y16922934D1*
X1375000Y16923660D1*
X1376173Y16924239D1*
X1377412Y16924659D1*
X1378695Y16924914D1*
X1380000Y16925000D1*
D1*
X1381305Y16924914D1*
X1382588Y16924659D1*
X1383827Y16924239D1*
X1385000Y16923660D1*
X1386088Y16922934D1*
X1387071Y16922071D1*
X1387934Y16921088D1*
X1388660Y16920000D1*
X1389239Y16918827D1*
X1389659Y16917588D1*
X1389914Y16916305D1*
X1390000Y16915000D1*
X1389914Y16913695D1*
X1389659Y16912412D1*
X1389239Y16911173D1*
X1388660Y16910000D1*
X1387934Y16908912D1*
X1387071Y16907929D1*
X1386088Y16907066D1*
X1385000Y16906340D1*
X1383827Y16905761D1*
X1382588Y16905341D1*
X1381305Y16905086D1*
X1380000Y16905000D1*
D1*
G37*
X5180000Y16915000D2*
D13*
G02X5180000Y16915000I400000J0D01*
G01*
G36*
X5580000Y16905000D2*
X5578695Y16905086D1*
X5577412Y16905341D1*
X5576173Y16905761D1*
X5575000Y16906340D1*
X5573912Y16907066D1*
X5572929Y16907929D1*
X5572066Y16908912D1*
X5571340Y16910000D1*
X5570761Y16911173D1*
X5570341Y16912412D1*
X5570086Y16913695D1*
X5570000Y16915000D1*
X5570086Y16916305D1*
X5570341Y16917588D1*
X5570761Y16918827D1*
X5571340Y16920000D1*
X5572066Y16921088D1*
X5572929Y16922071D1*
X5573912Y16922934D1*
X5575000Y16923660D1*
X5576173Y16924239D1*
X5577412Y16924659D1*
X5578695Y16924914D1*
X5580000Y16925000D1*
D1*
X5581305Y16924914D1*
X5582588Y16924659D1*
X5583827Y16924239D1*
X5585000Y16923660D1*
X5586088Y16922934D1*
X5587071Y16922071D1*
X5587934Y16921088D1*
X5588660Y16920000D1*
X5589239Y16918827D1*
X5589659Y16917588D1*
X5589914Y16916305D1*
X5590000Y16915000D1*
X5589914Y16913695D1*
X5589659Y16912412D1*
X5589239Y16911173D1*
X5588660Y16910000D1*
X5587934Y16908912D1*
X5587071Y16907929D1*
X5586088Y16907066D1*
X5585000Y16906340D1*
X5583827Y16905761D1*
X5582588Y16905341D1*
X5581305Y16905086D1*
X5580000Y16905000D1*
D1*
G37*
X2410000Y5652500D2*
D34*
X2900000D1*
Y5077500D1*
X2410000D1*
Y5652500D1*
G36*
X2845500Y5834000D2*
X2848111Y5833829D1*
X2850676Y5833319D1*
X2853154Y5832478D1*
X2855500Y5831321D1*
X2857675Y5829867D1*
X2859642Y5828142D1*
X2861367Y5826175D1*
X2862821Y5824000D1*
X2863978Y5821654D1*
X2864819Y5819176D1*
X2865329Y5816611D1*
X2865500Y5814000D1*
X2865329Y5811389D1*
X2864819Y5808824D1*
X2863978Y5806346D1*
X2862821Y5804000D1*
X2861367Y5801825D1*
X2859642Y5799858D1*
X2857675Y5798133D1*
X2855500Y5796679D1*
X2853154Y5795522D1*
X2850676Y5794681D1*
X2848111Y5794171D1*
X2845500Y5794000D1*
D1*
X2842889Y5794171D1*
X2840324Y5794681D1*
X2837846Y5795522D1*
X2835500Y5796679D1*
X2833325Y5798133D1*
X2831358Y5799858D1*
X2829633Y5801825D1*
X2828179Y5804000D1*
X2827022Y5806346D1*
X2826181Y5808824D1*
X2825671Y5811389D1*
X2825500Y5814000D1*
X2825671Y5816611D1*
X2826181Y5819176D1*
X2827022Y5821654D1*
X2828179Y5824000D1*
X2829633Y5826175D1*
X2831358Y5828142D1*
X2833325Y5829867D1*
X2835500Y5831321D1*
X2837846Y5832478D1*
X2840324Y5833319D1*
X2842889Y5833829D1*
X2845500Y5834000D1*
D1*
G37*
X2410000Y6802500D2*
D34*
X2900000D1*
Y6227500D1*
X2410000D1*
Y6802500D1*
G36*
X2845500Y6984000D2*
X2848111Y6983829D1*
X2850676Y6983319D1*
X2853154Y6982478D1*
X2855500Y6981321D1*
X2857675Y6979867D1*
X2859642Y6978142D1*
X2861367Y6976175D1*
X2862821Y6974000D1*
X2863978Y6971654D1*
X2864819Y6969176D1*
X2865329Y6966611D1*
X2865500Y6964000D1*
X2865329Y6961389D1*
X2864819Y6958824D1*
X2863978Y6956346D1*
X2862821Y6954000D1*
X2861367Y6951825D1*
X2859642Y6949858D1*
X2857675Y6948133D1*
X2855500Y6946679D1*
X2853154Y6945522D1*
X2850676Y6944681D1*
X2848111Y6944171D1*
X2845500Y6944000D1*
D1*
X2842889Y6944171D1*
X2840324Y6944681D1*
X2837846Y6945522D1*
X2835500Y6946679D1*
X2833325Y6948133D1*
X2831358Y6949858D1*
X2829633Y6951825D1*
X2828179Y6954000D1*
X2827022Y6956346D1*
X2826181Y6958824D1*
X2825671Y6961389D1*
X2825500Y6964000D1*
X2825671Y6966611D1*
X2826181Y6969176D1*
X2827022Y6971654D1*
X2828179Y6974000D1*
X2829633Y6976175D1*
X2831358Y6978142D1*
X2833325Y6979867D1*
X2835500Y6981321D1*
X2837846Y6982478D1*
X2840324Y6983319D1*
X2842889Y6983829D1*
X2845500Y6984000D1*
D1*
G37*
X2960000Y5652500D2*
D34*
X3450000D1*
Y5077500D1*
X2960000D1*
Y5652500D1*
G36*
X3395500Y5834000D2*
X3398111Y5833829D1*
X3400676Y5833319D1*
X3403154Y5832478D1*
X3405500Y5831321D1*
X3407675Y5829867D1*
X3409642Y5828142D1*
X3411367Y5826175D1*
X3412821Y5824000D1*
X3413978Y5821654D1*
X3414819Y5819176D1*
X3415329Y5816611D1*
X3415500Y5814000D1*
X3415329Y5811389D1*
X3414819Y5808824D1*
X3413978Y5806346D1*
X3412821Y5804000D1*
X3411367Y5801825D1*
X3409642Y5799858D1*
X3407675Y5798133D1*
X3405500Y5796679D1*
X3403154Y5795522D1*
X3400676Y5794681D1*
X3398111Y5794171D1*
X3395500Y5794000D1*
D1*
X3392889Y5794171D1*
X3390324Y5794681D1*
X3387846Y5795522D1*
X3385500Y5796679D1*
X3383325Y5798133D1*
X3381358Y5799858D1*
X3379633Y5801825D1*
X3378179Y5804000D1*
X3377022Y5806346D1*
X3376181Y5808824D1*
X3375671Y5811389D1*
X3375500Y5814000D1*
X3375671Y5816611D1*
X3376181Y5819176D1*
X3377022Y5821654D1*
X3378179Y5824000D1*
X3379633Y5826175D1*
X3381358Y5828142D1*
X3383325Y5829867D1*
X3385500Y5831321D1*
X3387846Y5832478D1*
X3390324Y5833319D1*
X3392889Y5833829D1*
X3395500Y5834000D1*
D1*
G37*
X2960000Y6802500D2*
D34*
X3450000D1*
Y6227500D1*
X2960000D1*
Y6802500D1*
G36*
X3395500Y6984000D2*
X3398111Y6983829D1*
X3400676Y6983319D1*
X3403154Y6982478D1*
X3405500Y6981321D1*
X3407675Y6979867D1*
X3409642Y6978142D1*
X3411367Y6976175D1*
X3412821Y6974000D1*
X3413978Y6971654D1*
X3414819Y6969176D1*
X3415329Y6966611D1*
X3415500Y6964000D1*
X3415329Y6961389D1*
X3414819Y6958824D1*
X3413978Y6956346D1*
X3412821Y6954000D1*
X3411367Y6951825D1*
X3409642Y6949858D1*
X3407675Y6948133D1*
X3405500Y6946679D1*
X3403154Y6945522D1*
X3400676Y6944681D1*
X3398111Y6944171D1*
X3395500Y6944000D1*
D1*
X3392889Y6944171D1*
X3390324Y6944681D1*
X3387846Y6945522D1*
X3385500Y6946679D1*
X3383325Y6948133D1*
X3381358Y6949858D1*
X3379633Y6951825D1*
X3378179Y6954000D1*
X3377022Y6956346D1*
X3376181Y6958824D1*
X3375671Y6961389D1*
X3375500Y6964000D1*
X3375671Y6966611D1*
X3376181Y6969176D1*
X3377022Y6971654D1*
X3378179Y6974000D1*
X3379633Y6976175D1*
X3381358Y6978142D1*
X3383325Y6979867D1*
X3385500Y6981321D1*
X3387846Y6982478D1*
X3390324Y6983319D1*
X3392889Y6983829D1*
X3395500Y6984000D1*
D1*
G37*
X3510000Y5652500D2*
D34*
X4000000D1*
Y5077500D1*
X3510000D1*
Y5652500D1*
G36*
X3945500Y5834000D2*
X3948111Y5833829D1*
X3950676Y5833319D1*
X3953154Y5832478D1*
X3955500Y5831321D1*
X3957675Y5829867D1*
X3959642Y5828142D1*
X3961367Y5826175D1*
X3962821Y5824000D1*
X3963978Y5821654D1*
X3964819Y5819176D1*
X3965329Y5816611D1*
X3965500Y5814000D1*
X3965329Y5811389D1*
X3964819Y5808824D1*
X3963978Y5806346D1*
X3962821Y5804000D1*
X3961367Y5801825D1*
X3959642Y5799858D1*
X3957675Y5798133D1*
X3955500Y5796679D1*
X3953154Y5795522D1*
X3950676Y5794681D1*
X3948111Y5794171D1*
X3945500Y5794000D1*
D1*
X3942889Y5794171D1*
X3940324Y5794681D1*
X3937846Y5795522D1*
X3935500Y5796679D1*
X3933325Y5798133D1*
X3931358Y5799858D1*
X3929633Y5801825D1*
X3928179Y5804000D1*
X3927022Y5806346D1*
X3926181Y5808824D1*
X3925671Y5811389D1*
X3925500Y5814000D1*
X3925671Y5816611D1*
X3926181Y5819176D1*
X3927022Y5821654D1*
X3928179Y5824000D1*
X3929633Y5826175D1*
X3931358Y5828142D1*
X3933325Y5829867D1*
X3935500Y5831321D1*
X3937846Y5832478D1*
X3940324Y5833319D1*
X3942889Y5833829D1*
X3945500Y5834000D1*
D1*
G37*
X4550000Y13627500D2*
D34*
X4060000D1*
Y14202500D1*
X4550000D1*
Y13627500D1*
G36*
X4114500Y13446000D2*
X4111889Y13446171D1*
X4109324Y13446681D1*
X4106846Y13447522D1*
X4104500Y13448679D1*
X4102325Y13450133D1*
X4100358Y13451858D1*
X4098633Y13453825D1*
X4097179Y13456000D1*
X4096022Y13458346D1*
X4095181Y13460824D1*
X4094671Y13463389D1*
X4094500Y13466000D1*
X4094671Y13468611D1*
X4095181Y13471176D1*
X4096022Y13473654D1*
X4097179Y13476000D1*
X4098633Y13478175D1*
X4100358Y13480142D1*
X4102325Y13481867D1*
X4104500Y13483321D1*
X4106846Y13484478D1*
X4109324Y13485319D1*
X4111889Y13485829D1*
X4114500Y13486000D1*
D1*
X4117111Y13485829D1*
X4119676Y13485319D1*
X4122154Y13484478D1*
X4124500Y13483321D1*
X4126675Y13481867D1*
X4128642Y13480142D1*
X4130367Y13478175D1*
X4131821Y13476000D1*
X4132978Y13473654D1*
X4133819Y13471176D1*
X4134329Y13468611D1*
X4134500Y13466000D1*
X4134329Y13463389D1*
X4133819Y13460824D1*
X4132978Y13458346D1*
X4131821Y13456000D1*
X4130367Y13453825D1*
X4128642Y13451858D1*
X4126675Y13450133D1*
X4124500Y13448679D1*
X4122154Y13447522D1*
X4119676Y13446681D1*
X4117111Y13446171D1*
X4114500Y13446000D1*
D1*
G37*
X4550000Y12477500D2*
D34*
X4060000D1*
Y13052500D1*
X4550000D1*
Y12477500D1*
G36*
X4114500Y12296000D2*
X4111889Y12296171D1*
X4109324Y12296681D1*
X4106846Y12297522D1*
X4104500Y12298679D1*
X4102325Y12300133D1*
X4100358Y12301858D1*
X4098633Y12303825D1*
X4097179Y12306000D1*
X4096022Y12308346D1*
X4095181Y12310824D1*
X4094671Y12313389D1*
X4094500Y12316000D1*
X4094671Y12318611D1*
X4095181Y12321176D1*
X4096022Y12323654D1*
X4097179Y12326000D1*
X4098633Y12328175D1*
X4100358Y12330142D1*
X4102325Y12331867D1*
X4104500Y12333321D1*
X4106846Y12334478D1*
X4109324Y12335319D1*
X4111889Y12335829D1*
X4114500Y12336000D1*
D1*
X4117111Y12335829D1*
X4119676Y12335319D1*
X4122154Y12334478D1*
X4124500Y12333321D1*
X4126675Y12331867D1*
X4128642Y12330142D1*
X4130367Y12328175D1*
X4131821Y12326000D1*
X4132978Y12323654D1*
X4133819Y12321176D1*
X4134329Y12318611D1*
X4134500Y12316000D1*
X4134329Y12313389D1*
X4133819Y12310824D1*
X4132978Y12308346D1*
X4131821Y12306000D1*
X4130367Y12303825D1*
X4128642Y12301858D1*
X4126675Y12300133D1*
X4124500Y12298679D1*
X4122154Y12297522D1*
X4119676Y12296681D1*
X4117111Y12296171D1*
X4114500Y12296000D1*
D1*
G37*
X4000000Y13627500D2*
D34*
X3510000D1*
Y14202500D1*
X4000000D1*
Y13627500D1*
G36*
X3564500Y13446000D2*
X3561889Y13446171D1*
X3559324Y13446681D1*
X3556846Y13447522D1*
X3554500Y13448679D1*
X3552325Y13450133D1*
X3550358Y13451858D1*
X3548633Y13453825D1*
X3547179Y13456000D1*
X3546022Y13458346D1*
X3545181Y13460824D1*
X3544671Y13463389D1*
X3544500Y13466000D1*
X3544671Y13468611D1*
X3545181Y13471176D1*
X3546022Y13473654D1*
X3547179Y13476000D1*
X3548633Y13478175D1*
X3550358Y13480142D1*
X3552325Y13481867D1*
X3554500Y13483321D1*
X3556846Y13484478D1*
X3559324Y13485319D1*
X3561889Y13485829D1*
X3564500Y13486000D1*
D1*
X3567111Y13485829D1*
X3569676Y13485319D1*
X3572154Y13484478D1*
X3574500Y13483321D1*
X3576675Y13481867D1*
X3578642Y13480142D1*
X3580367Y13478175D1*
X3581821Y13476000D1*
X3582978Y13473654D1*
X3583819Y13471176D1*
X3584329Y13468611D1*
X3584500Y13466000D1*
X3584329Y13463389D1*
X3583819Y13460824D1*
X3582978Y13458346D1*
X3581821Y13456000D1*
X3580367Y13453825D1*
X3578642Y13451858D1*
X3576675Y13450133D1*
X3574500Y13448679D1*
X3572154Y13447522D1*
X3569676Y13446681D1*
X3567111Y13446171D1*
X3564500Y13446000D1*
D1*
G37*
X4002500Y12477500D2*
D34*
X3512500D1*
Y13052500D1*
X4002500D1*
Y12477500D1*
G36*
X3567000Y12296000D2*
X3564389Y12296171D1*
X3561824Y12296681D1*
X3559346Y12297522D1*
X3557000Y12298679D1*
X3554825Y12300133D1*
X3552858Y12301858D1*
X3551133Y12303825D1*
X3549679Y12306000D1*
X3548522Y12308346D1*
X3547681Y12310824D1*
X3547171Y12313389D1*
X3547000Y12316000D1*
X3547171Y12318611D1*
X3547681Y12321176D1*
X3548522Y12323654D1*
X3549679Y12326000D1*
X3551133Y12328175D1*
X3552858Y12330142D1*
X3554825Y12331867D1*
X3557000Y12333321D1*
X3559346Y12334478D1*
X3561824Y12335319D1*
X3564389Y12335829D1*
X3567000Y12336000D1*
D1*
X3569611Y12335829D1*
X3572176Y12335319D1*
X3574654Y12334478D1*
X3577000Y12333321D1*
X3579175Y12331867D1*
X3581142Y12330142D1*
X3582867Y12328175D1*
X3584321Y12326000D1*
X3585478Y12323654D1*
X3586319Y12321176D1*
X3586829Y12318611D1*
X3587000Y12316000D1*
X3586829Y12313389D1*
X3586319Y12310824D1*
X3585478Y12308346D1*
X3584321Y12306000D1*
X3582867Y12303825D1*
X3581142Y12301858D1*
X3579175Y12300133D1*
X3577000Y12298679D1*
X3574654Y12297522D1*
X3572176Y12296681D1*
X3569611Y12296171D1*
X3567000Y12296000D1*
D1*
G37*
X3450000Y13627500D2*
D34*
X2960000D1*
Y14202500D1*
X3450000D1*
Y13627500D1*
G36*
X3014500Y13446000D2*
X3011889Y13446171D1*
X3009324Y13446681D1*
X3006846Y13447522D1*
X3004500Y13448679D1*
X3002325Y13450133D1*
X3000358Y13451858D1*
X2998633Y13453825D1*
X2997179Y13456000D1*
X2996022Y13458346D1*
X2995181Y13460824D1*
X2994671Y13463389D1*
X2994500Y13466000D1*
X2994671Y13468611D1*
X2995181Y13471176D1*
X2996022Y13473654D1*
X2997179Y13476000D1*
X2998633Y13478175D1*
X3000358Y13480142D1*
X3002325Y13481867D1*
X3004500Y13483321D1*
X3006846Y13484478D1*
X3009324Y13485319D1*
X3011889Y13485829D1*
X3014500Y13486000D1*
D1*
X3017111Y13485829D1*
X3019676Y13485319D1*
X3022154Y13484478D1*
X3024500Y13483321D1*
X3026675Y13481867D1*
X3028642Y13480142D1*
X3030367Y13478175D1*
X3031821Y13476000D1*
X3032978Y13473654D1*
X3033819Y13471176D1*
X3034329Y13468611D1*
X3034500Y13466000D1*
X3034329Y13463389D1*
X3033819Y13460824D1*
X3032978Y13458346D1*
X3031821Y13456000D1*
X3030367Y13453825D1*
X3028642Y13451858D1*
X3026675Y13450133D1*
X3024500Y13448679D1*
X3022154Y13447522D1*
X3019676Y13446681D1*
X3017111Y13446171D1*
X3014500Y13446000D1*
D1*
G37*
X3450000Y12477500D2*
D34*
X2960000D1*
Y13052500D1*
X3450000D1*
Y12477500D1*
G36*
X3014500Y12296000D2*
X3011889Y12296171D1*
X3009324Y12296681D1*
X3006846Y12297522D1*
X3004500Y12298679D1*
X3002325Y12300133D1*
X3000358Y12301858D1*
X2998633Y12303825D1*
X2997179Y12306000D1*
X2996022Y12308346D1*
X2995181Y12310824D1*
X2994671Y12313389D1*
X2994500Y12316000D1*
X2994671Y12318611D1*
X2995181Y12321176D1*
X2996022Y12323654D1*
X2997179Y12326000D1*
X2998633Y12328175D1*
X3000358Y12330142D1*
X3002325Y12331867D1*
X3004500Y12333321D1*
X3006846Y12334478D1*
X3009324Y12335319D1*
X3011889Y12335829D1*
X3014500Y12336000D1*
D1*
X3017111Y12335829D1*
X3019676Y12335319D1*
X3022154Y12334478D1*
X3024500Y12333321D1*
X3026675Y12331867D1*
X3028642Y12330142D1*
X3030367Y12328175D1*
X3031821Y12326000D1*
X3032978Y12323654D1*
X3033819Y12321176D1*
X3034329Y12318611D1*
X3034500Y12316000D1*
X3034329Y12313389D1*
X3033819Y12310824D1*
X3032978Y12308346D1*
X3031821Y12306000D1*
X3030367Y12303825D1*
X3028642Y12301858D1*
X3026675Y12300133D1*
X3024500Y12298679D1*
X3022154Y12297522D1*
X3019676Y12296681D1*
X3017111Y12296171D1*
X3014500Y12296000D1*
D1*
G37*
X2900000Y13627500D2*
D34*
X2410000D1*
Y14202500D1*
X2900000D1*
Y13627500D1*
G36*
X2464500Y13446000D2*
X2461889Y13446171D1*
X2459324Y13446681D1*
X2456846Y13447522D1*
X2454500Y13448679D1*
X2452325Y13450133D1*
X2450358Y13451858D1*
X2448633Y13453825D1*
X2447179Y13456000D1*
X2446022Y13458346D1*
X2445181Y13460824D1*
X2444671Y13463389D1*
X2444500Y13466000D1*
X2444671Y13468611D1*
X2445181Y13471176D1*
X2446022Y13473654D1*
X2447179Y13476000D1*
X2448633Y13478175D1*
X2450358Y13480142D1*
X2452325Y13481867D1*
X2454500Y13483321D1*
X2456846Y13484478D1*
X2459324Y13485319D1*
X2461889Y13485829D1*
X2464500Y13486000D1*
D1*
X2467111Y13485829D1*
X2469676Y13485319D1*
X2472154Y13484478D1*
X2474500Y13483321D1*
X2476675Y13481867D1*
X2478642Y13480142D1*
X2480367Y13478175D1*
X2481821Y13476000D1*
X2482978Y13473654D1*
X2483819Y13471176D1*
X2484329Y13468611D1*
X2484500Y13466000D1*
X2484329Y13463389D1*
X2483819Y13460824D1*
X2482978Y13458346D1*
X2481821Y13456000D1*
X2480367Y13453825D1*
X2478642Y13451858D1*
X2476675Y13450133D1*
X2474500Y13448679D1*
X2472154Y13447522D1*
X2469676Y13446681D1*
X2467111Y13446171D1*
X2464500Y13446000D1*
D1*
G37*
X2900000Y12477500D2*
D34*
X2410000D1*
Y13052500D1*
X2900000D1*
Y12477500D1*
G36*
X2464500Y12296000D2*
X2461889Y12296171D1*
X2459324Y12296681D1*
X2456846Y12297522D1*
X2454500Y12298679D1*
X2452325Y12300133D1*
X2450358Y12301858D1*
X2448633Y12303825D1*
X2447179Y12306000D1*
X2446022Y12308346D1*
X2445181Y12310824D1*
X2444671Y12313389D1*
X2444500Y12316000D1*
X2444671Y12318611D1*
X2445181Y12321176D1*
X2446022Y12323654D1*
X2447179Y12326000D1*
X2448633Y12328175D1*
X2450358Y12330142D1*
X2452325Y12331867D1*
X2454500Y12333321D1*
X2456846Y12334478D1*
X2459324Y12335319D1*
X2461889Y12335829D1*
X2464500Y12336000D1*
D1*
X2467111Y12335829D1*
X2469676Y12335319D1*
X2472154Y12334478D1*
X2474500Y12333321D1*
X2476675Y12331867D1*
X2478642Y12330142D1*
X2480367Y12328175D1*
X2481821Y12326000D1*
X2482978Y12323654D1*
X2483819Y12321176D1*
X2484329Y12318611D1*
X2484500Y12316000D1*
X2484329Y12313389D1*
X2483819Y12310824D1*
X2482978Y12308346D1*
X2481821Y12306000D1*
X2480367Y12303825D1*
X2478642Y12301858D1*
X2476675Y12300133D1*
X2474500Y12298679D1*
X2472154Y12297522D1*
X2469676Y12296681D1*
X2467111Y12296171D1*
X2464500Y12296000D1*
D1*
G37*
X3510000Y6802500D2*
D34*
X4000000D1*
Y6227500D1*
X3510000D1*
Y6802500D1*
G36*
X3945500Y6984000D2*
X3948111Y6983829D1*
X3950676Y6983319D1*
X3953154Y6982478D1*
X3955500Y6981321D1*
X3957675Y6979867D1*
X3959642Y6978142D1*
X3961367Y6976175D1*
X3962821Y6974000D1*
X3963978Y6971654D1*
X3964819Y6969176D1*
X3965329Y6966611D1*
X3965500Y6964000D1*
X3965329Y6961389D1*
X3964819Y6958824D1*
X3963978Y6956346D1*
X3962821Y6954000D1*
X3961367Y6951825D1*
X3959642Y6949858D1*
X3957675Y6948133D1*
X3955500Y6946679D1*
X3953154Y6945522D1*
X3950676Y6944681D1*
X3948111Y6944171D1*
X3945500Y6944000D1*
D1*
X3942889Y6944171D1*
X3940324Y6944681D1*
X3937846Y6945522D1*
X3935500Y6946679D1*
X3933325Y6948133D1*
X3931358Y6949858D1*
X3929633Y6951825D1*
X3928179Y6954000D1*
X3927022Y6956346D1*
X3926181Y6958824D1*
X3925671Y6961389D1*
X3925500Y6964000D1*
X3925671Y6966611D1*
X3926181Y6969176D1*
X3927022Y6971654D1*
X3928179Y6974000D1*
X3929633Y6976175D1*
X3931358Y6978142D1*
X3933325Y6979867D1*
X3935500Y6981321D1*
X3937846Y6982478D1*
X3940324Y6983319D1*
X3942889Y6983829D1*
X3945500Y6984000D1*
D1*
G37*
X4060000Y5652500D2*
D34*
X4550000D1*
Y5077500D1*
X4060000D1*
Y5652500D1*
G36*
X4495500Y5834000D2*
X4498111Y5833829D1*
X4500676Y5833319D1*
X4503154Y5832478D1*
X4505500Y5831321D1*
X4507675Y5829867D1*
X4509642Y5828142D1*
X4511367Y5826175D1*
X4512821Y5824000D1*
X4513978Y5821654D1*
X4514819Y5819176D1*
X4515329Y5816611D1*
X4515500Y5814000D1*
X4515329Y5811389D1*
X4514819Y5808824D1*
X4513978Y5806346D1*
X4512821Y5804000D1*
X4511367Y5801825D1*
X4509642Y5799858D1*
X4507675Y5798133D1*
X4505500Y5796679D1*
X4503154Y5795522D1*
X4500676Y5794681D1*
X4498111Y5794171D1*
X4495500Y5794000D1*
D1*
X4492889Y5794171D1*
X4490324Y5794681D1*
X4487846Y5795522D1*
X4485500Y5796679D1*
X4483325Y5798133D1*
X4481358Y5799858D1*
X4479633Y5801825D1*
X4478179Y5804000D1*
X4477022Y5806346D1*
X4476181Y5808824D1*
X4475671Y5811389D1*
X4475500Y5814000D1*
X4475671Y5816611D1*
X4476181Y5819176D1*
X4477022Y5821654D1*
X4478179Y5824000D1*
X4479633Y5826175D1*
X4481358Y5828142D1*
X4483325Y5829867D1*
X4485500Y5831321D1*
X4487846Y5832478D1*
X4490324Y5833319D1*
X4492889Y5833829D1*
X4495500Y5834000D1*
D1*
G37*
X4060000Y6802500D2*
D34*
X4550000D1*
Y6227500D1*
X4060000D1*
Y6802500D1*
G36*
X4495500Y6984000D2*
X4498111Y6983829D1*
X4500676Y6983319D1*
X4503154Y6982478D1*
X4505500Y6981321D1*
X4507675Y6979867D1*
X4509642Y6978142D1*
X4511367Y6976175D1*
X4512821Y6974000D1*
X4513978Y6971654D1*
X4514819Y6969176D1*
X4515329Y6966611D1*
X4515500Y6964000D1*
X4515329Y6961389D1*
X4514819Y6958824D1*
X4513978Y6956346D1*
X4512821Y6954000D1*
X4511367Y6951825D1*
X4509642Y6949858D1*
X4507675Y6948133D1*
X4505500Y6946679D1*
X4503154Y6945522D1*
X4500676Y6944681D1*
X4498111Y6944171D1*
X4495500Y6944000D1*
D1*
X4492889Y6944171D1*
X4490324Y6944681D1*
X4487846Y6945522D1*
X4485500Y6946679D1*
X4483325Y6948133D1*
X4481358Y6949858D1*
X4479633Y6951825D1*
X4478179Y6954000D1*
X4477022Y6956346D1*
X4476181Y6958824D1*
X4475671Y6961389D1*
X4475500Y6964000D1*
X4475671Y6966611D1*
X4476181Y6969176D1*
X4477022Y6971654D1*
X4478179Y6974000D1*
X4479633Y6976175D1*
X4481358Y6978142D1*
X4483325Y6979867D1*
X4485500Y6981321D1*
X4487846Y6982478D1*
X4490324Y6983319D1*
X4492889Y6983829D1*
X4495500Y6984000D1*
D1*
G37*
X2957000Y5855000D2*
D13*
X3053000D1*
Y6025000D1*
X2957000D1*
Y5855000D1*
X2995000Y7038000D2*
Y6942000D1*
X3165000D1*
Y7038000D1*
X2995000D1*
X2503000Y6025000D2*
X2407000D1*
Y5855000D1*
X2503000D1*
Y6025000D1*
X2615000Y6942000D2*
Y7038000D1*
X2445000D1*
Y6942000D1*
X2615000D1*
X4120000Y8850500D2*
Y8754500D1*
X4290000D1*
Y8850500D1*
X4120000D1*
Y8713000D2*
Y8617000D1*
X4290000D1*
Y8713000D1*
X4120000D1*
X2163750Y15376250D2*
Y15441250D1*
X2046250D1*
Y15376250D1*
X2163750D1*
X2163751Y15476251D2*
X2163749Y15541251D1*
X2046249Y15541249D1*
X2046251Y15476249D1*
X2163751Y15476251D1*
X2562006Y7241997D2*
X2898006Y7242003D1*
X2897994Y7888003D1*
X2561994Y7887997D1*
X2562006Y7241997D1*
X4057000Y5855000D2*
X4153000D1*
Y6025000D1*
X4057000D1*
Y5855000D1*
X4095000Y7038000D2*
Y6942000D1*
X4265000D1*
Y7038000D1*
X4095000D1*
X3603000Y6025000D2*
X3507000D1*
Y5855000D1*
X3603000D1*
Y6025000D1*
X3715000Y6942000D2*
Y7038000D1*
X3545000D1*
Y6942000D1*
X3715000D1*
X4120000Y8988000D2*
Y8892000D1*
X4290000D1*
Y8988000D1*
X4120000D1*
Y9125500D2*
Y9029500D1*
X4290000D1*
Y9125500D1*
X4120000D1*
X4061956Y7241997D2*
X4397956Y7242003D1*
X4397944Y7888003D1*
X4061944Y7887997D1*
X4061956Y7241997D1*
X4490495Y8712503D2*
X4394495Y8712497D1*
X4394505Y8542497D1*
X4490505Y8542503D1*
X4490495Y8712503D1*
X1088300Y15430000D2*
X1184300D1*
Y15600000D1*
X1088300D1*
Y15430000D1*
X2590500Y2550000D2*
X2494500D1*
Y2380000D1*
X2590500D1*
Y2550000D1*
X5153000D2*
X5057000D1*
Y2380000D1*
X5153000D1*
Y2550000D1*
X2670000Y9125500D2*
Y9029500D1*
X2840000D1*
Y9125500D1*
X2670000D1*
X1569500Y2380000D2*
X1665500D1*
Y2550000D1*
X1569500D1*
Y2380000D1*
X1419500D2*
X1515500D1*
Y2550000D1*
X1419500D1*
Y2380000D1*
X2670000Y8988000D2*
Y8892000D1*
X2840000D1*
Y8988000D1*
X2670000D1*
X3057002Y9329999D2*
X3153002Y9330001D1*
X3152998Y9500001D1*
X3056998Y9499999D1*
X3057002Y9329999D1*
X3302997Y9500002D2*
X3206997Y9499998D1*
X3207003Y9329998D1*
X3303003Y9330002D1*
X3302997Y9500002D1*
X3478000Y2550000D2*
X3382000D1*
Y2380000D1*
X3478000D1*
Y2550000D1*
X3628000D2*
X3532000D1*
Y2380000D1*
X3628000D1*
Y2550000D1*
X3177998Y2550001D2*
X3081998Y2549999D1*
X3082002Y2379999D1*
X3178002Y2380001D1*
X3177998Y2550001D1*
X3328000Y2550000D2*
X3232000D1*
Y2380000D1*
X3328000D1*
Y2550000D1*
X5207000Y2380000D2*
X5303000D1*
Y2550000D1*
X5207000D1*
Y2380000D1*
X4294502Y2379999D2*
X4390502Y2380001D1*
X4390498Y2550001D1*
X4294498Y2549999D1*
X4294502Y2379999D1*
X4796250Y16453750D2*
Y16388750D1*
X4913750D1*
Y16453750D1*
X4796250D1*
Y16353750D2*
Y16288750D1*
X4913750D1*
Y16353750D1*
X4796250D1*
X4002998Y13425001D2*
X3906998Y13424999D1*
X3907002Y13254999D1*
X4003002Y13255001D1*
X4002998Y13425001D1*
X3967501Y12242002D2*
X3967499Y12338002D1*
X3797499Y12337998D1*
X3797501Y12241998D1*
X3967501Y12242002D1*
X4457000Y13255000D2*
X4553000D1*
Y13425000D1*
X4457000D1*
Y13255000D1*
X4345000Y12338000D2*
Y12242000D1*
X4515000D1*
Y12338000D1*
X4345000D1*
X2840000Y10429500D2*
Y10525500D1*
X2670000D1*
Y10429500D1*
X2840000D1*
Y10567000D2*
Y10663000D1*
X2670000D1*
Y10567000D1*
X2840000D1*
X4397992Y12038004D2*
X4061992Y12037996D1*
X4062008Y11391996D1*
X4398008Y11392004D1*
X4397992Y12038004D1*
X2903000Y13425000D2*
X2807000D1*
Y13255000D1*
X2903000D1*
Y13425000D1*
X2865001Y12242002D2*
X2864999Y12338002D1*
X2694999Y12337998D1*
X2695001Y12241998D1*
X2865001Y12242002D1*
X3357000Y13255000D2*
X3453000D1*
Y13425000D1*
X3357000D1*
Y13255000D1*
X3245000Y12338000D2*
Y12242000D1*
X3415000D1*
Y12338000D1*
X3245000D1*
X2840000Y10292000D2*
Y10388000D1*
X2670000D1*
Y10292000D1*
X2840000D1*
Y10154500D2*
Y10250500D1*
X2670000D1*
Y10154500D1*
X2840000D1*
X2897982Y12038009D2*
X2561982Y12037991D1*
X2562018Y11391991D1*
X2898018Y11392009D1*
X2897982Y12038009D1*
X2482003Y10567498D2*
X2578003Y10567502D1*
X2577997Y10737502D1*
X2481997Y10737498D1*
X2482003Y10567498D1*
X3902997Y9950002D2*
X3806997Y9949998D1*
X3807003Y9779998D1*
X3903003Y9780002D1*
X3902997Y9950002D1*
X3657002Y9779999D2*
X3753002Y9780001D1*
X3752998Y9950001D1*
X3656998Y9949999D1*
X3657002Y9779999D1*
X4290000Y10092000D2*
Y10188000D1*
X4120000D1*
Y10092000D1*
X4290000D1*
Y10229500D2*
Y10325500D1*
X4120000D1*
Y10229500D1*
X4290000D1*
X5782002Y15429999D2*
X5878002Y15430001D1*
X5877998Y15600001D1*
X5781998Y15599999D1*
X5782002Y15429999D1*
X2840000Y9167000D2*
Y9263000D1*
X2670000D1*
Y9167000D1*
X2840000D1*
X4120000Y10050500D2*
Y9954500D1*
X4290000D1*
Y10050500D1*
X4120000D1*
X4841742Y12038004D2*
X4505742Y12037996D1*
X4505758Y11391996D1*
X4841758Y11392004D1*
X4841742Y12038004D1*
X2473000Y12038000D2*
X2137000D1*
Y11392000D1*
X2473000D1*
Y12038000D1*
X2137006Y7241997D2*
X2473006Y7242003D1*
X2472994Y7888003D1*
X2136994Y7887997D1*
X2137006Y7241997D1*
X4487006D2*
X4823006Y7242003D1*
X4822994Y7888003D1*
X4486994Y7887997D1*
X4487006Y7241997D1*
X2337008Y9471995D2*
X2336992Y9807995D1*
X2512992Y9808003D1*
X2513005Y9531003D1*
X2454008Y9472000D1*
X2337008Y9471995D1*
X4622996Y9808003D2*
X4623004Y9472003D1*
X4447004Y9471998D1*
X4446997Y9748998D1*
X4505996Y9808000D1*
X4622996Y9808003D1*
X1960333Y15677000D2*
X1902000Y15735333D1*
Y15853000D1*
X2208000D1*
Y15677000D1*
X1960333D1*
X3125000Y8335000D2*
Y9045000D1*
X3835000D1*
Y8435000D1*
X3735000Y8335000D1*
X3125000D1*
X4999667Y16153000D2*
X5058000Y16094667D1*
Y15977000D1*
X4752000D1*
Y16153000D1*
X4999667D1*
X1255000Y3595000D2*
X2305000D1*
Y2835000D1*
X1355000D1*
X1255000Y2935000D1*
Y3595000D1*
X2955000D2*
X4005000D1*
Y2835000D1*
X3055000D1*
X2955000Y2935000D1*
Y3595000D1*
X3834990Y10945010D2*
X3835010Y10235010D1*
X3125010Y10234990D1*
X3124993Y10844990D1*
X3224990Y10944993D1*
X3834990Y10945010D1*
X4655000Y3595000D2*
X5705000D1*
Y2835000D1*
X4755000D1*
X4655000Y2935000D1*
Y3595000D1*
X2225027Y9415029D2*
X1715027Y9414967D1*
X1714973Y9864967D1*
X2124973Y9865017D1*
X2224985Y9765029D1*
X2225027Y9415029D1*
X4735000Y9865000D2*
X5245000D1*
Y9415000D1*
X4835000D1*
X4735000Y9515000D1*
Y9865000D1*
X2380000Y14390000D2*
D20*
X4580000D1*
Y4890000D1*
X2380000D1*
Y14390000D1*
D27*
X3480000Y9640000D3*
D28*
X980000Y2315000D3*
G36*
X992770Y2351884D2*
Y2328218D1*
X1002103D1*
X1004103Y2328551D1*
X1006103Y2329218D1*
X1008103Y2330218D1*
X1009437Y2331218D1*
X1010103Y2331884D1*
X1011103Y2333218D1*
X1011770Y2334218D1*
X1012437Y2335551D1*
X1013103Y2337551D1*
X1013437Y2339218D1*
Y2344218D1*
X1013103Y2345884D1*
X1012770Y2346884D1*
X1011437Y2349551D1*
X1010770Y2350551D1*
X1009103Y2352218D1*
X1008103Y2352884D1*
X1006103Y2353884D1*
X1004103Y2354551D1*
X1002103Y2354884D1*
X992770D1*
Y2351884D1*
X995770D1*
X997770Y2352218D1*
X999770D1*
X1001770Y2351884D1*
X1003437Y2351551D1*
X1004437Y2351218D1*
X1006437Y2350218D1*
X1008437Y2348218D1*
Y2347884D1*
X1009103Y2346884D1*
X1009437Y2345884D1*
X1009770Y2344218D1*
X1010103Y2343884D1*
Y2339218D1*
X1009770Y2338884D1*
X1009437Y2337218D1*
X1009103Y2336218D1*
X1008770Y2335551D1*
X1007770Y2334218D1*
X1007661Y2333813D1*
X1007437Y2333551D1*
X1006770Y2333218D1*
X1006103Y2332551D1*
X1004770Y2331884D1*
X1003770Y2331551D1*
X1002103Y2331218D1*
X999992Y2330884D1*
X997881D1*
X995770Y2331218D1*
Y2351884D1*
X992770D1*
G37*
G36*
X1053103Y2354884D2*
Y2351551D1*
X1056770D1*
Y2354884D1*
X1053103D1*
G37*
G36*
X1147437D2*
Y2351551D1*
X1151103D1*
Y2354884D1*
X1147437D1*
G37*
G36*
X1176103D2*
Y2351551D1*
X1179770D1*
Y2354884D1*
X1176103D1*
G37*
G36*
X1018770Y2346218D2*
X1017770Y2345218D1*
X1016770Y2343218D1*
X1016437Y2342218D1*
X1016103Y2340884D1*
Y2335551D1*
X1016437Y2334218D1*
X1016770Y2333218D1*
X1017437Y2331884D1*
X1018437Y2330551D1*
X1018770Y2330218D1*
X1020103Y2329218D1*
X1021437Y2328551D1*
X1022437Y2328218D1*
X1024103Y2327884D1*
X1027770D1*
X1029437Y2328218D1*
X1031437Y2328884D1*
X1032770Y2329551D1*
Y2332884D1*
X1029437Y2331218D1*
X1026770Y2330551D1*
X1025437D1*
X1022770Y2331218D1*
X1022103Y2331551D1*
X1021770Y2331884D1*
X1021103Y2332218D1*
X1020708Y2332592D1*
X1020770Y2332884D1*
X1020103Y2333884D1*
X1019770Y2334551D1*
X1019437Y2335884D1*
X1019103Y2336218D1*
Y2337884D1*
X1033103Y2338218D1*
Y2341218D1*
X1032770Y2343218D1*
X1032437Y2344218D1*
X1031437Y2346218D1*
X1030103Y2347551D1*
X1028103Y2348551D1*
X1026770Y2348884D1*
X1023437D1*
X1022103Y2348551D1*
X1020103Y2347551D1*
X1018770Y2346218D1*
X1023103D1*
X1024326Y2346551D1*
X1025548D1*
X1026770Y2346218D1*
X1027770Y2345884D1*
X1029437Y2344218D1*
Y2343884D1*
X1029770Y2342551D1*
X1030103Y2342218D1*
Y2340884D1*
X1026437Y2340551D1*
X1022770D1*
X1019103Y2340884D1*
Y2341551D1*
X1019437Y2341884D1*
X1019770Y2343218D1*
X1020437Y2344218D1*
Y2344551D1*
X1021103Y2345218D1*
X1023103Y2346218D1*
X1018770D1*
G37*
G36*
X1041437Y2348884D2*
X1040103Y2348551D1*
X1039103Y2348218D1*
X1038437Y2347884D1*
X1036437Y2345884D1*
X1035770Y2344551D1*
Y2341218D1*
X1036770Y2339218D1*
X1037103Y2338884D1*
X1038103Y2338218D1*
X1039437Y2337551D1*
X1042103Y2336884D1*
X1043770Y2336551D1*
X1044770Y2336218D1*
X1046103Y2335551D1*
X1046372Y2335121D1*
X1046437Y2334884D1*
X1046770Y2334551D1*
Y2332551D1*
X1045437Y2331218D1*
X1044103Y2330884D1*
X1042881Y2330551D1*
X1041659D1*
X1040437Y2330884D1*
X1038437Y2331551D1*
X1036437Y2332551D1*
X1035770Y2333218D1*
Y2329551D1*
X1036103Y2329218D1*
X1036770Y2328884D1*
X1038770Y2328218D1*
X1040103Y2327884D1*
X1044103D1*
X1045437Y2328218D1*
X1046437Y2328551D1*
X1047437Y2329218D1*
X1049103Y2330884D1*
X1049770Y2332218D1*
Y2335884D1*
X1049437Y2336884D1*
X1047770Y2338551D1*
X1046437Y2339218D1*
X1043770Y2339884D1*
X1042103Y2340218D1*
X1040103Y2340884D1*
X1039103Y2341884D1*
Y2342218D1*
X1038770Y2342551D1*
Y2343884D1*
X1039103Y2344218D1*
Y2344551D1*
X1039770Y2345218D1*
X1041103Y2345884D1*
X1042437Y2346218D1*
X1043770D1*
X1046437Y2345551D1*
X1047103Y2345218D1*
X1048103Y2344884D1*
X1048770Y2344551D1*
X1049103Y2344218D1*
Y2347551D1*
X1048770Y2347884D1*
X1046770Y2348551D1*
X1045103Y2348884D1*
X1041437D1*
G37*
G36*
X1062770Y2345884D2*
X1062103Y2345218D1*
X1061103Y2343218D1*
X1060770Y2342218D1*
X1060437Y2340884D1*
Y2335551D1*
X1060770Y2334218D1*
X1061103Y2333218D1*
X1062103Y2331218D1*
X1063770Y2329551D1*
X1065103Y2328884D1*
X1066437Y2328551D1*
X1069437D1*
X1070770Y2328884D1*
X1071437Y2329218D1*
X1072437Y2329884D1*
X1073103Y2330551D1*
X1073414Y2330440D1*
X1073770Y2330218D1*
Y2326884D1*
X1073437Y2326551D1*
X1073103Y2325551D1*
Y2325218D1*
X1072103Y2324218D1*
X1071437Y2323884D1*
X1070437Y2323551D1*
X1068992Y2323218D1*
X1067548D1*
X1066103Y2323551D1*
X1063437Y2324218D1*
X1062437Y2324551D1*
Y2321218D1*
X1063770Y2320884D1*
X1065770Y2320551D1*
X1070103D1*
X1071437Y2320884D1*
X1072437Y2321218D1*
X1073103Y2321551D1*
X1074103Y2322218D1*
X1075103Y2323218D1*
X1075770Y2324218D1*
X1076103Y2324884D1*
X1076437Y2325884D1*
X1076770Y2327218D1*
Y2348218D1*
X1074103D1*
X1073417Y2347522D1*
X1073244Y2347576D1*
X1073103Y2347884D1*
X1072437Y2348218D1*
X1070437Y2348884D1*
X1067437D1*
X1066103Y2348551D1*
X1064770Y2347884D1*
X1063770Y2347218D1*
X1062770Y2346218D1*
Y2345884D1*
X1067437D1*
X1068659Y2346218D1*
X1069881D1*
X1071103Y2345884D1*
X1072437Y2345551D1*
X1073770Y2344884D1*
Y2333551D1*
X1073103Y2332884D1*
X1072437Y2332551D1*
X1072103Y2332218D1*
X1070103Y2331551D1*
X1068992Y2331218D1*
X1067881D1*
X1066770Y2331551D1*
X1065437Y2332218D1*
X1064437Y2333218D1*
Y2333551D1*
X1064103Y2334551D1*
X1063770Y2336218D1*
X1063437Y2336551D1*
Y2340218D1*
X1063770Y2340551D1*
X1064103Y2342218D1*
X1064770Y2343551D1*
Y2343884D1*
X1066103Y2345218D1*
X1067437Y2345884D1*
X1062770D1*
G37*
G36*
X1090103Y2348884D2*
X1089103Y2348551D1*
X1087103Y2347551D1*
X1085770Y2346551D1*
X1085417Y2346189D1*
X1085244Y2346243D1*
X1085103Y2346551D1*
Y2348218D1*
X1082103D1*
Y2328218D1*
X1085103D1*
Y2343218D1*
X1085437Y2343551D1*
X1086103Y2343884D1*
X1086770Y2344551D1*
X1088103Y2345218D1*
X1089103Y2345551D1*
X1090215Y2345884D1*
X1091326D1*
X1092437Y2345551D1*
X1093103Y2345218D1*
X1094103Y2344218D1*
Y2343551D1*
X1094437Y2341218D1*
X1094770Y2328218D1*
X1097770D1*
Y2342218D1*
X1097437Y2344218D1*
X1097103Y2345218D1*
X1096437Y2346551D1*
X1094770Y2348218D1*
X1094103Y2348551D1*
X1092770Y2348884D1*
X1090103D1*
G37*
G36*
X1115103Y2345884D2*
Y2345551D1*
X1114437Y2344884D1*
X1114103Y2344218D1*
X1113770Y2343218D1*
X1113437Y2342551D1*
X1113103Y2340884D1*
Y2335551D1*
X1113437Y2334218D1*
X1114103Y2332218D1*
X1114437Y2331551D1*
X1115103Y2330551D1*
X1116437Y2329218D1*
X1117437Y2328551D1*
X1118770Y2327884D1*
X1120103Y2327551D1*
X1123437D1*
X1124770Y2327884D1*
X1126770Y2328884D1*
X1128770Y2330884D1*
X1129437Y2331884D1*
X1129770Y2332884D1*
X1130103Y2333551D1*
X1130437Y2334884D1*
Y2341551D1*
X1130103Y2342884D1*
X1129770Y2343551D1*
X1129437Y2344551D1*
X1128770Y2345551D1*
X1126770Y2347551D1*
X1124770Y2348551D1*
X1123437Y2348884D1*
X1120103D1*
X1118103Y2348218D1*
X1117437Y2347884D1*
X1116437Y2347218D1*
X1115103Y2345884D1*
X1120103D1*
X1121215Y2346218D1*
X1122326D1*
X1123437Y2345884D1*
X1124437Y2345551D1*
X1125103Y2345218D1*
X1126103Y2344218D1*
Y2343884D1*
X1126770Y2342551D1*
X1127103Y2341218D1*
X1127437Y2340884D1*
Y2335551D1*
X1127103Y2335218D1*
X1126770Y2333884D1*
X1126103Y2332551D1*
Y2332218D1*
X1125437Y2331551D1*
X1124770Y2331218D1*
X1124437Y2330884D1*
X1123437Y2330551D1*
X1122326Y2330218D1*
X1121215D1*
X1120103Y2330551D1*
X1118770Y2331218D1*
X1117103Y2332884D1*
Y2333218D1*
X1116770Y2334218D1*
X1116437Y2336218D1*
X1116103Y2336551D1*
Y2340218D1*
X1116437Y2340551D1*
X1116770Y2342218D1*
X1117103Y2343218D1*
Y2343551D1*
X1118770Y2345218D1*
X1120103Y2345884D1*
X1115103D1*
G37*
G36*
X1157103D2*
X1156437Y2345218D1*
X1155437Y2343218D1*
X1155103Y2342218D1*
X1154770Y2340884D1*
Y2335551D1*
X1155103Y2334218D1*
X1155437Y2333218D1*
X1156437Y2331218D1*
X1158103Y2329551D1*
X1159437Y2328884D1*
X1160770Y2328551D1*
X1163770D1*
X1165103Y2328884D1*
X1165770Y2329218D1*
X1166770Y2329884D1*
X1167437Y2330551D1*
X1167747Y2330440D1*
X1168103Y2330218D1*
Y2326884D1*
X1167770Y2326551D1*
X1167437Y2325551D1*
Y2325218D1*
X1166437Y2324218D1*
X1165770Y2323884D1*
X1164770Y2323551D1*
X1163326Y2323218D1*
X1161881D1*
X1160437Y2323551D1*
X1157770Y2324218D1*
X1156770Y2324551D1*
Y2321218D1*
X1158103Y2320884D1*
X1160103Y2320551D1*
X1164437D1*
X1165770Y2320884D1*
X1166770Y2321218D1*
X1167437Y2321551D1*
X1168437Y2322218D1*
X1169437Y2323218D1*
X1170103Y2324218D1*
X1170437Y2324884D1*
X1170770Y2325884D1*
X1171103Y2327218D1*
Y2348218D1*
X1168437D1*
X1167750Y2347522D1*
X1167577Y2347576D1*
X1167437Y2347884D1*
X1166770Y2348218D1*
X1164770Y2348884D1*
X1161770D1*
X1160437Y2348551D1*
X1159103Y2347884D1*
X1158103Y2347218D1*
X1157103Y2346218D1*
Y2345884D1*
X1161770D1*
X1162992Y2346218D1*
X1164215D1*
X1165437Y2345884D1*
X1166770Y2345551D1*
X1168103Y2344884D1*
Y2333551D1*
X1167437Y2332884D1*
X1166770Y2332551D1*
X1166437Y2332218D1*
X1164437Y2331551D1*
X1163326Y2331218D1*
X1162215D1*
X1161103Y2331551D1*
X1159770Y2332218D1*
X1158770Y2333218D1*
Y2333551D1*
X1158437Y2334551D1*
X1158103Y2336218D1*
X1157770Y2336551D1*
Y2340218D1*
X1158103Y2340551D1*
X1158437Y2342218D1*
X1159103Y2343551D1*
Y2343884D1*
X1160437Y2345218D1*
X1161770Y2345884D1*
X1157103D1*
G37*
G36*
X1192770Y2348884D2*
X1191770Y2348551D1*
X1189770Y2347551D1*
X1188437Y2346551D1*
X1188083Y2346189D1*
X1187911Y2346243D1*
X1187770Y2346551D1*
Y2348218D1*
X1184770D1*
Y2328218D1*
X1187770D1*
Y2343218D1*
X1188103Y2343551D1*
X1188770Y2343884D1*
X1189437Y2344551D1*
X1190770Y2345218D1*
X1191770Y2345551D1*
X1192881Y2345884D1*
X1193992D1*
X1195103Y2345551D1*
X1195770Y2345218D1*
X1196770Y2344218D1*
Y2343551D1*
X1197103Y2341218D1*
X1197437Y2328218D1*
X1200437D1*
Y2342218D1*
X1200103Y2344218D1*
X1199770Y2345218D1*
X1199103Y2346551D1*
X1197437Y2348218D1*
X1196770Y2348551D1*
X1195437Y2348884D1*
X1192770D1*
G37*
G36*
X1053437Y2348218D2*
Y2328218D1*
X1056437D1*
Y2348218D1*
X1053437D1*
G37*
G36*
X1134437D2*
Y2328218D1*
X1137437D1*
Y2342218D1*
X1138437Y2343218D1*
X1139103Y2343551D1*
X1139437Y2343884D1*
X1141437Y2344551D1*
X1144770Y2344884D1*
Y2348218D1*
X1142437D1*
X1141437Y2347884D1*
X1140103Y2347218D1*
X1138770Y2346218D1*
X1138103Y2345551D1*
X1137750Y2345189D1*
X1137577Y2345243D1*
X1137437Y2345551D1*
Y2348218D1*
X1134437D1*
G37*
G36*
X1147770D2*
Y2328218D1*
X1150770D1*
Y2348218D1*
X1147770D1*
G37*
G36*
X1176437D2*
Y2328218D1*
X1179437D1*
Y2348218D1*
X1176437D1*
G37*
X7194931Y11486079D2*
D86*
Y11596730D1*
X7016278D1*
X7109830D2*
Y11528727D1*
X7135380Y11329173D2*
X7016278D1*
X7109830D2*
X7126929Y11346075D1*
X7135380Y11363174D1*
Y11388528D1*
X7126929Y11405627D1*
X7109830Y11422529D1*
X7084280Y11431177D1*
X7067378D1*
X7041828Y11422529D1*
X7024925Y11405627D1*
X7016278Y11388528D1*
Y11363174D1*
X7024925Y11346075D1*
X7041828Y11329173D1*
X7135380Y11274271D2*
X7016278D1*
X7101379D2*
X7126929Y11248721D1*
X7135380Y11231622D1*
Y11206269D1*
X7126929Y11189170D1*
X7101379Y11180719D1*
X7016278D1*
X7194931Y10952992D2*
X7016278D1*
X7101379D2*
X7126929Y10927442D1*
X7135380Y10910343D1*
Y10884793D1*
X7126929Y10867891D1*
X7101379Y10859440D1*
X7016278D1*
X7084280Y10804538D2*
Y10702534D1*
X7101379D1*
X7118478Y10710985D1*
X7126929Y10719436D1*
X7135380Y10736535D1*
Y10762085D1*
X7126929Y10778988D1*
X7109830Y10796086D1*
X7084280Y10804538D1*
X7067378D1*
X7041828Y10796086D1*
X7024925Y10778988D1*
X7016278Y10762085D1*
Y10736535D1*
X7024925Y10719436D1*
X7041828Y10702534D1*
X7135380Y10545629D2*
X7016278D1*
X7109830D2*
X7126929Y10562531D1*
X7135380Y10579630D1*
Y10604983D1*
X7126929Y10622082D1*
X7109830Y10638984D1*
X7084280Y10647632D1*
X7067378D1*
X7041828Y10638984D1*
X7024925Y10622082D1*
X7016278Y10604983D1*
Y10579630D1*
X7024925Y10562531D1*
X7041828Y10545629D1*
X7194931Y10465177D2*
X7050279D1*
X7024925Y10456726D1*
X7016278Y10439627D1*
Y10422724D1*
X7135380Y10490727D2*
Y10431176D1*
X7109830Y10274270D2*
X7126929Y10282721D1*
X7135380Y10308271D1*
Y10333821D1*
X7126929Y10359371D1*
X7109830Y10367822D1*
X7092928Y10359371D1*
X7084280Y10342272D1*
X7075829Y10299820D1*
X7067378Y10282721D1*
X7050279Y10274270D1*
X7041828D1*
X7024925Y10282721D1*
X7016278Y10308271D1*
Y10333821D1*
X7024925Y10359371D1*
X7041828Y10367822D1*
X7194931Y10219368D2*
X7186480Y10210917D1*
X7194931Y10202269D1*
X7203579Y10210917D1*
X7194931Y10219368D1*
X7135380Y10210917D2*
X7016278D1*
X7135380Y10147367D2*
X7016278D1*
X7101379D2*
X7126929Y10121817D1*
X7135380Y10104719D1*
Y10079365D1*
X7126929Y10062266D1*
X7101379Y10053815D1*
X7016278D1*
X7194931Y9998913D2*
X7016278D1*
X7135380Y9913812D2*
X7050279Y9998913D1*
X7084280Y9964912D2*
X7016278Y9905361D1*
X7135380Y9566983D2*
X7109830Y9575630D1*
X7092731Y9592533D1*
X7084280Y9618083D1*
Y9626534D1*
X7092731Y9652084D1*
X7109830Y9668986D1*
X7135380Y9677634D1*
X7143831D1*
X7169381Y9668986D1*
X7186283Y9652084D1*
X7194735Y9626534D1*
Y9618083D1*
X7186283Y9592533D1*
X7169381Y9575630D1*
X7135380Y9566983D1*
X7092731D1*
X7050279Y9575630D1*
X7024729Y9592533D1*
X7016278Y9618083D1*
Y9634985D1*
X7024729Y9660535D1*
X7041828Y9668986D1*
X7194735Y9410077D2*
Y9494982D1*
X7118281Y9503433D1*
X7126732Y9494982D1*
X7135380Y9469432D1*
Y9444078D1*
X7126732Y9418528D1*
X7109830Y9401430D1*
X7084280Y9392978D1*
X7067378D1*
X7041828Y9401430D1*
X7024729Y9418528D1*
X7016278Y9444078D1*
Y9469432D1*
X7024729Y9494982D1*
X7033376Y9503433D1*
X7050279Y9512081D1*
X7135380Y9338076D2*
X7016278Y9244524D1*
X7135380D2*
X7016278Y9338076D1*
X7152282Y9180974D2*
X7160733D1*
X7177832Y9172523D1*
X7186283Y9164072D1*
X7194735Y9146973D1*
Y9112972D1*
X7186283Y9096070D1*
X7177832Y9087619D1*
X7160733Y9078971D1*
X7143831D1*
X7126732Y9087619D1*
X7101379Y9104521D1*
X7016278Y9189622D1*
Y9070520D1*
X7152282Y9006970D2*
X7160733D1*
X7177832Y8998519D1*
X7186283Y8990068D1*
X7194735Y8972969D1*
Y8938968D1*
X7186283Y8922066D1*
X7177832Y8913614D1*
X7160733Y8904967D1*
X7143831D1*
X7126732Y8913614D1*
X7101379Y8930517D1*
X7016278Y9015618D1*
Y8896516D1*
X7135380Y8841614D2*
X7016278D1*
X7101379D2*
X7126929Y8816064D1*
X7135380Y8798965D1*
Y8773611D1*
X7126929Y8756512D1*
X7101379Y8748061D1*
X7016278D1*
X7101379D2*
X7126929Y8722511D1*
X7135380Y8705412D1*
Y8680059D1*
X7126929Y8662960D1*
X7101379Y8654312D1*
X7016278D1*
X7135380Y8599410D2*
X7016278D1*
X7101379D2*
X7126929Y8573860D1*
X7135380Y8556762D1*
Y8531408D1*
X7126929Y8514309D1*
X7101379Y8505858D1*
X7016278D1*
X7101379D2*
X7126929Y8480308D1*
X7135380Y8463209D1*
Y8437856D1*
X7126929Y8420757D1*
X7101379Y8412109D1*
X7016278D1*
Y8048378D2*
X7194931D1*
X7016278Y8116380D1*
X7194931Y8184382D1*
X7016278D1*
Y7857275D2*
X7194931Y7925473D1*
X7016278Y7993476D1*
X7075829Y7967926D2*
Y7882825D1*
X7194931Y7802373D2*
X7016278Y7683270D1*
X7194931D2*
X7016278Y7802373D1*
X2087482Y-745764D2*
D87*
Y-836873D1*
X2093518Y-855123D1*
X2105732Y-867196D1*
X2123982Y-873373D1*
X2136055D1*
X2154305Y-867196D1*
X2166518Y-855123D1*
X2172555Y-836873D1*
Y-745764D1*
X2278594Y-806550D2*
X2272557Y-794337D1*
X2254307Y-788300D1*
X2236057D1*
X2217807Y-794337D1*
X2211771Y-806550D1*
X2217807Y-818623D1*
X2230021Y-824800D1*
X2260344Y-830837D1*
X2272557Y-836873D1*
X2278594Y-849087D1*
Y-855123D1*
X2272557Y-867196D1*
X2254307Y-873373D1*
X2236057D1*
X2217807Y-867196D1*
X2211771Y-855123D1*
X2317809Y-745764D2*
X2323846Y-751800D1*
X2330023Y-745764D1*
X2323846Y-739587D1*
X2317809Y-745764D1*
X2323846Y-788300D2*
Y-873373D1*
X2369238Y-788300D2*
Y-873373D1*
Y-812587D2*
X2387488Y-794337D1*
X2399702Y-788300D1*
X2417812D1*
X2430025Y-794337D1*
X2436062Y-812587D1*
Y-873373D1*
X2548137Y-794337D2*
Y-891623D1*
X2542100Y-909733D1*
X2536064Y-915910D1*
X2523850Y-921946D1*
X2505600D1*
X2493527Y-915910D1*
X2548137Y-812587D2*
X2536064Y-800514D1*
X2523850Y-794337D1*
X2505600D1*
X2493527Y-800514D1*
X2481314Y-812587D1*
X2475277Y-830837D1*
Y-843050D1*
X2481314Y-861160D1*
X2493527Y-873373D1*
X2505600Y-879410D1*
X2523850D1*
X2536064Y-873373D1*
X2548137Y-861160D1*
X2783659Y-788300D2*
Y-873373D1*
Y-806550D2*
X2771586Y-794337D1*
X2759372Y-788300D1*
X2741262D1*
X2729049Y-794337D1*
X2716976Y-806550D1*
X2710799Y-824800D1*
Y-836873D1*
X2716976Y-855123D1*
X2729049Y-867196D1*
X2741262Y-873373D1*
X2759372D1*
X2771586Y-867196D1*
X2783659Y-855123D1*
X2946321Y-812587D2*
X3001071D1*
X3019180Y-806550D1*
X3025357Y-800373D1*
X3031394Y-788300D1*
Y-770050D1*
X3025357Y-757977D1*
X3019180Y-751800D1*
X3001071Y-745764D1*
X2946321D1*
Y-873373D1*
X3161719Y-776087D2*
X3155683Y-764014D1*
X3143469Y-751800D1*
X3131396Y-745764D1*
X3107110D1*
X3094896Y-751800D1*
X3082823Y-764014D1*
X3076646Y-776087D1*
X3070610Y-794337D1*
Y-824800D1*
X3076646Y-842910D1*
X3082823Y-855123D1*
X3094896Y-867196D1*
X3107110Y-873373D1*
X3131396D1*
X3143469Y-867196D1*
X3155683Y-855123D1*
X3161719Y-842910D1*
X3200935Y-745764D2*
Y-873373D1*
X3240151Y-809639D2*
X3310343D1*
X3428455Y-745764D2*
X3349559D1*
Y-873373D1*
X3428455D1*
X3349559Y-806550D2*
X3398132D1*
X3591117Y-788300D2*
X3657940Y-873373D1*
Y-788300D2*
X3591117Y-873373D1*
X3757942D2*
Y-745904D1*
X3697156Y-830837D1*
X3788265D1*
X4023927Y-806550D2*
X4011714Y-794337D1*
X3999500Y-788300D1*
X3981391D1*
X3969177Y-794337D1*
X3957104Y-806550D1*
X3950927Y-824800D1*
Y-836873D1*
X3957104Y-855123D1*
X3969177Y-867196D1*
X3981391Y-873373D1*
X3999500D1*
X4011714Y-867196D1*
X4023927Y-855123D1*
X4093466Y-788300D2*
X4081393Y-794337D1*
X4069180Y-806550D1*
X4063143Y-824800D1*
Y-836873D1*
X4069180Y-855123D1*
X4081393Y-867196D1*
X4093466Y-873373D1*
X4111716D1*
X4123930Y-867196D1*
X4136003Y-855123D1*
X4142180Y-836873D1*
Y-824800D1*
X4136003Y-806550D1*
X4123930Y-794337D1*
X4111716Y-788300D1*
X4093466D1*
X4181395D2*
Y-873373D1*
Y-812587D2*
X4199645Y-794337D1*
X4211859Y-788300D1*
X4229968D1*
X4242182Y-794337D1*
X4248218Y-812587D1*
Y-873373D1*
X4287434Y-788300D2*
Y-873373D1*
Y-812587D2*
X4305684Y-794337D1*
X4317897Y-788300D1*
X4336007D1*
X4348221Y-794337D1*
X4354257Y-812587D1*
Y-873373D1*
X4393473Y-824800D2*
X4466332D1*
Y-812587D1*
X4460296Y-800373D1*
X4454259Y-794337D1*
X4442046Y-788300D1*
X4423796D1*
X4411723Y-794337D1*
X4399509Y-806550D1*
X4393473Y-824800D1*
Y-836873D1*
X4399509Y-855123D1*
X4411723Y-867196D1*
X4423796Y-873373D1*
X4442046D1*
X4454259Y-867196D1*
X4466332Y-855123D1*
X4578548Y-806550D2*
X4566335Y-794337D1*
X4554121Y-788300D1*
X4536012D1*
X4523798Y-794337D1*
X4511725Y-806550D1*
X4505548Y-824800D1*
Y-836873D1*
X4511725Y-855123D1*
X4523798Y-867196D1*
X4536012Y-873373D1*
X4554121D1*
X4566335Y-867196D1*
X4578548Y-855123D1*
X4636014Y-745764D2*
Y-849087D1*
X4642050Y-867196D1*
X4654264Y-873373D1*
X4666337D1*
X4617764Y-788300D2*
X4660300D1*
X4735876D2*
X4723803Y-794337D1*
X4711589Y-806550D1*
X4705553Y-824800D1*
Y-836873D1*
X4711589Y-855123D1*
X4723803Y-867196D1*
X4735876Y-873373D1*
X4754126D1*
X4766339Y-867196D1*
X4778412Y-855123D1*
X4784589Y-836873D1*
Y-824800D1*
X4778412Y-806550D1*
X4766339Y-794337D1*
X4754126Y-788300D1*
X4735876D1*
X4823805D2*
Y-873373D1*
Y-824800D2*
X4829982Y-806550D1*
X4842055Y-794337D1*
X4854268Y-788300D1*
X4872518D1*
X2282573Y-992865D2*
Y-1120475D1*
Y-1053652D2*
X2294786Y-1041438D1*
X2306859Y-1035402D1*
X2325109D1*
X2337182Y-1041438D1*
X2349396Y-1053652D1*
X2355432Y-1071902D1*
Y-1083975D1*
X2349396Y-1102225D1*
X2337182Y-1114298D1*
X2325109Y-1120475D1*
X2306859D1*
X2294786Y-1114298D1*
X2282573Y-1102225D1*
X2394648Y-1035402D2*
Y-1096188D1*
X2400685Y-1114298D1*
X2412898Y-1120475D1*
X2431148D1*
X2443221Y-1114298D1*
X2461471Y-1096188D1*
Y-1035402D2*
Y-1120475D1*
X2518937Y-992865D2*
Y-1096188D1*
X2524973Y-1114298D1*
X2537187Y-1120475D1*
X2549260D1*
X2500687Y-1035402D2*
X2543223D1*
X2711922D2*
X2736209Y-1120475D1*
X2760495Y-1035402D1*
X2784782Y-1120475D1*
X2809068Y-1035402D1*
X2848284Y-992865D2*
X2854320Y-998902D1*
X2860497Y-992865D1*
X2854320Y-986688D1*
X2848284Y-992865D1*
X2854320Y-1035402D2*
Y-1120475D1*
X2917963Y-992865D2*
Y-1096188D1*
X2924000Y-1114298D1*
X2936213Y-1120475D1*
X2948286D1*
X2899713Y-1035402D2*
X2942250D1*
X2987502Y-992865D2*
Y-1120475D1*
Y-1059688D2*
X3005752Y-1041438D1*
X3017965Y-1035402D1*
X3036215D1*
X3048288Y-1041438D1*
X3054325Y-1059688D1*
Y-1120475D1*
X3289987Y-1053652D2*
X3277774Y-1041438D1*
X3265560Y-1035402D1*
X3247451D1*
X3235237Y-1041438D1*
X3223164Y-1053652D1*
X3216987Y-1071902D1*
Y-1083975D1*
X3223164Y-1102225D1*
X3235237Y-1114298D1*
X3247451Y-1120475D1*
X3265560D1*
X3277774Y-1114298D1*
X3289987Y-1102225D1*
X3359526Y-1035402D2*
X3347453Y-1041438D1*
X3335239Y-1053652D1*
X3329203Y-1071902D1*
Y-1083975D1*
X3335239Y-1102225D1*
X3347453Y-1114298D1*
X3359526Y-1120475D1*
X3377776D1*
X3389989Y-1114298D1*
X3402062Y-1102225D1*
X3408239Y-1083975D1*
Y-1071902D1*
X3402062Y-1053652D1*
X3389989Y-1041438D1*
X3377776Y-1035402D1*
X3359526D1*
X3447455D2*
Y-1120475D1*
Y-1059688D2*
X3465705Y-1041438D1*
X3477918Y-1035402D1*
X3496028D1*
X3508241Y-1041438D1*
X3514278Y-1059688D1*
Y-1120475D1*
Y-1059688D2*
X3532528Y-1041438D1*
X3544741Y-1035402D1*
X3562851D1*
X3575065Y-1041438D1*
X3581241Y-1059688D1*
Y-1120475D1*
X3620457Y-1035402D2*
Y-1163011D1*
Y-1053652D2*
X3632671Y-1041579D1*
X3644744Y-1035402D1*
X3662994D1*
X3675207Y-1041579D1*
X3687280Y-1053652D1*
X3693457Y-1071902D1*
Y-1084115D1*
X3687280Y-1102225D1*
X3675207Y-1114438D1*
X3662994Y-1120475D1*
X3644744D1*
X3632671Y-1114438D1*
X3620457Y-1102225D1*
X3762996Y-1035402D2*
X3750923Y-1041438D1*
X3738709Y-1053652D1*
X3732673Y-1071902D1*
Y-1083975D1*
X3738709Y-1102225D1*
X3750923Y-1114298D1*
X3762996Y-1120475D1*
X3781246D1*
X3793459Y-1114298D1*
X3805532Y-1102225D1*
X3811709Y-1083975D1*
Y-1071902D1*
X3805532Y-1053652D1*
X3793459Y-1041438D1*
X3781246Y-1035402D1*
X3762996D1*
X3850925D2*
Y-1120475D1*
Y-1059688D2*
X3869175Y-1041438D1*
X3881389Y-1035402D1*
X3899498D1*
X3911712Y-1041438D1*
X3917748Y-1059688D1*
Y-1120475D1*
X3956964Y-1071902D2*
X4029823D1*
Y-1059688D1*
X4023787Y-1047475D1*
X4017750Y-1041438D1*
X4005537Y-1035402D1*
X3987287D1*
X3975214Y-1041438D1*
X3963000Y-1053652D1*
X3956964Y-1071902D1*
Y-1083975D1*
X3963000Y-1102225D1*
X3975214Y-1114298D1*
X3987287Y-1120475D1*
X4005537D1*
X4017750Y-1114298D1*
X4029823Y-1102225D1*
X4069039Y-1035402D2*
Y-1120475D1*
Y-1059688D2*
X4087289Y-1041438D1*
X4099503Y-1035402D1*
X4117612D1*
X4129826Y-1041438D1*
X4135862Y-1059688D1*
Y-1120475D1*
X4193328Y-992865D2*
Y-1096188D1*
X4199364Y-1114298D1*
X4211578Y-1120475D1*
X4223651D1*
X4175078Y-1035402D2*
X4217614D1*
X4329690Y-1053652D2*
X4323653Y-1041438D1*
X4305403Y-1035402D1*
X4287153D1*
X4268903Y-1041438D1*
X4262867Y-1053652D1*
X4268903Y-1065725D1*
X4281117Y-1071902D1*
X4311440Y-1077938D1*
X4323653Y-1083975D1*
X4329690Y-1096188D1*
Y-1102225D1*
X4323653Y-1114298D1*
X4305403Y-1120475D1*
X4287153D1*
X4268903Y-1114298D1*
X4262867Y-1102225D1*
X4522675Y-1035402D2*
X4510602Y-1041438D1*
X4498388Y-1053652D1*
X4492352Y-1071902D1*
Y-1083975D1*
X4498388Y-1102225D1*
X4510602Y-1114298D1*
X4522675Y-1120475D1*
X4540925D1*
X4553138Y-1114298D1*
X4565212Y-1102225D1*
X4571388Y-1083975D1*
Y-1071902D1*
X4565212Y-1053652D1*
X4553138Y-1041438D1*
X4540925Y-1035402D1*
X4522675D1*
X4610604D2*
Y-1120475D1*
Y-1059688D2*
X4628854Y-1041438D1*
X4641068Y-1035402D1*
X4659177D1*
X4671391Y-1041438D1*
X4677427Y-1059688D1*
Y-1120475D1*
X2297826Y-1282504D2*
X2285753Y-1288540D1*
X2273540Y-1300754D1*
X2267503Y-1319004D1*
Y-1331077D1*
X2273540Y-1349327D1*
X2285753Y-1361400D1*
X2297826Y-1367577D1*
X2316076D1*
X2328290Y-1361400D1*
X2340363Y-1349327D1*
X2346540Y-1331077D1*
Y-1319004D1*
X2340363Y-1300754D1*
X2328290Y-1288540D1*
X2316076Y-1282504D1*
X2297826D1*
X2385755D2*
Y-1410113D1*
Y-1300754D2*
X2397969Y-1288681D1*
X2410042Y-1282504D1*
X2428292D1*
X2440505Y-1288681D1*
X2452579Y-1300754D1*
X2458755Y-1319004D1*
Y-1331217D1*
X2452579Y-1349327D1*
X2440505Y-1361540D1*
X2428292Y-1367577D1*
X2410042D1*
X2397969Y-1361540D1*
X2385755Y-1349327D1*
X2497971Y-1282504D2*
Y-1410113D1*
Y-1300754D2*
X2510185Y-1288681D1*
X2522258Y-1282504D1*
X2540508D1*
X2552721Y-1288681D1*
X2564794Y-1300754D1*
X2570971Y-1319004D1*
Y-1331217D1*
X2564794Y-1349327D1*
X2552721Y-1361540D1*
X2540508Y-1367577D1*
X2522258D1*
X2510185Y-1361540D1*
X2497971Y-1349327D1*
X2640510Y-1282504D2*
X2628437Y-1288540D1*
X2616223Y-1300754D1*
X2610187Y-1319004D1*
Y-1331077D1*
X2616223Y-1349327D1*
X2628437Y-1361400D1*
X2640510Y-1367577D1*
X2658760D1*
X2670973Y-1361400D1*
X2683046Y-1349327D1*
X2689223Y-1331077D1*
Y-1319004D1*
X2683046Y-1300754D1*
X2670973Y-1288540D1*
X2658760Y-1282504D1*
X2640510D1*
X2795262Y-1300754D2*
X2789226Y-1288540D1*
X2770976Y-1282504D1*
X2752726D1*
X2734476Y-1288540D1*
X2728439Y-1300754D1*
X2734476Y-1312827D1*
X2746689Y-1319004D1*
X2777012Y-1325040D1*
X2789226Y-1331077D1*
X2795262Y-1343290D1*
Y-1349327D1*
X2789226Y-1361400D1*
X2770976Y-1367577D1*
X2752726D1*
X2734476Y-1361400D1*
X2728439Y-1349327D1*
X2834478Y-1239967D2*
X2840514Y-1246004D1*
X2846691Y-1239967D1*
X2840514Y-1233790D1*
X2834478Y-1239967D1*
X2840514Y-1282504D2*
Y-1367577D1*
X2904157Y-1239967D2*
Y-1343290D1*
X2910194Y-1361400D1*
X2922407Y-1367577D1*
X2934480D1*
X2885907Y-1282504D2*
X2928444D1*
X2973696Y-1319004D2*
X3046555D1*
Y-1306790D1*
X3040519Y-1294577D1*
X3034482Y-1288540D1*
X3022269Y-1282504D1*
X3004019D1*
X2991946Y-1288540D1*
X2979732Y-1300754D1*
X2973696Y-1319004D1*
Y-1331077D1*
X2979732Y-1349327D1*
X2991946Y-1361400D1*
X3004019Y-1367577D1*
X3022269D1*
X3034482Y-1361400D1*
X3046555Y-1349327D1*
X3276041Y-1300754D2*
X3270004Y-1288540D1*
X3251754Y-1282504D1*
X3233504D1*
X3215254Y-1288540D1*
X3209218Y-1300754D1*
X3215254Y-1312827D1*
X3227468Y-1319004D1*
X3257791Y-1325040D1*
X3270004Y-1331077D1*
X3276041Y-1343290D1*
Y-1349327D1*
X3270004Y-1361400D1*
X3251754Y-1367577D1*
X3233504D1*
X3215254Y-1361400D1*
X3209218Y-1349327D1*
X3315256Y-1239967D2*
X3321293Y-1246004D1*
X3327470Y-1239967D1*
X3321293Y-1233790D1*
X3315256Y-1239967D1*
X3321293Y-1282504D2*
Y-1367577D1*
X3439545Y-1239967D2*
Y-1367577D1*
Y-1300754D2*
X3427472Y-1288540D1*
X3415259Y-1282504D1*
X3397009D1*
X3384935Y-1288540D1*
X3372722Y-1300754D1*
X3366685Y-1319004D1*
Y-1331077D1*
X3372722Y-1349327D1*
X3384935Y-1361400D1*
X3397009Y-1367577D1*
X3415259D1*
X3427472Y-1361400D1*
X3439545Y-1349327D1*
X3478761Y-1319004D2*
X3551620D1*
Y-1306790D1*
X3545584Y-1294577D1*
X3539547Y-1288540D1*
X3527334Y-1282504D1*
X3509084D1*
X3497011Y-1288540D1*
X3484797Y-1300754D1*
X3478761Y-1319004D1*
Y-1331077D1*
X3484797Y-1349327D1*
X3497011Y-1361400D1*
X3509084Y-1367577D1*
X3527334D1*
X3539547Y-1361400D1*
X3551620Y-1349327D1*
X3732532Y-1239967D2*
Y-1343290D1*
X3738569Y-1361400D1*
X3750782Y-1367577D1*
X3762856D1*
X3714282Y-1282504D2*
X3756819D1*
X3832394D2*
X3820321Y-1288540D1*
X3808108Y-1300754D1*
X3802071Y-1319004D1*
Y-1331077D1*
X3808108Y-1349327D1*
X3820321Y-1361400D1*
X3832394Y-1367577D1*
X3850644D1*
X3862858Y-1361400D1*
X3874931Y-1349327D1*
X3881108Y-1331077D1*
Y-1319004D1*
X3874931Y-1300754D1*
X3862858Y-1288540D1*
X3850644Y-1282504D1*
X3832394D1*
X4043770D2*
Y-1367577D1*
Y-1306790D2*
X4062020Y-1288540D1*
X4074233Y-1282504D1*
X4092343D1*
X4104556Y-1288540D1*
X4110593Y-1306790D1*
Y-1367577D1*
X4180132Y-1282504D2*
X4168059Y-1288540D1*
X4155845Y-1300754D1*
X4149809Y-1319004D1*
Y-1331077D1*
X4155845Y-1349327D1*
X4168059Y-1361400D1*
X4180132Y-1367577D1*
X4198382D1*
X4210595Y-1361400D1*
X4222668Y-1349327D1*
X4228845Y-1331077D1*
Y-1319004D1*
X4222668Y-1300754D1*
X4210595Y-1288540D1*
X4198382Y-1282504D1*
X4180132D1*
X4268061D2*
Y-1367577D1*
Y-1319004D2*
X4274238Y-1300754D1*
X4286311Y-1288540D1*
X4298524Y-1282504D1*
X4316774D1*
X4355990D2*
Y-1367577D1*
Y-1306790D2*
X4374240Y-1288540D1*
X4386454Y-1282504D1*
X4404563D1*
X4416777Y-1288540D1*
X4422813Y-1306790D1*
Y-1367577D1*
Y-1306790D2*
X4441063Y-1288540D1*
X4453277Y-1282504D1*
X4471386D1*
X4483600Y-1288540D1*
X4489777Y-1306790D1*
Y-1367577D1*
X4601852Y-1282504D2*
Y-1367577D1*
Y-1300754D2*
X4589779Y-1288540D1*
X4577565Y-1282504D1*
X4559456D1*
X4547242Y-1288540D1*
X4535169Y-1300754D1*
X4528992Y-1319004D1*
Y-1331077D1*
X4535169Y-1349327D1*
X4547242Y-1361400D1*
X4559456Y-1367577D1*
X4577565D1*
X4589779Y-1361400D1*
X4601852Y-1349327D1*
X4641068Y-1239967D2*
Y-1367577D1*
X4686320Y-1355363D2*
X4680283Y-1361540D1*
X4686320Y-1367577D1*
X4692497Y-1361540D1*
X4686320Y-1355363D1*
X1375981Y-1734171D2*
Y-1861780D1*
X1418518D1*
X1436768Y-1855603D1*
X1448981Y-1843530D1*
X1455018Y-1831317D1*
X1461054Y-1813207D1*
Y-1782744D1*
X1455018Y-1764494D1*
X1448981Y-1752421D1*
X1436768Y-1740207D1*
X1418518Y-1734171D1*
X1375981D1*
X1536770D2*
X1524557Y-1740207D1*
X1512483Y-1752421D1*
X1506307Y-1764494D1*
X1500270Y-1782744D1*
Y-1813207D1*
X1506307Y-1831317D1*
X1512483Y-1843530D1*
X1524557Y-1855603D1*
X1536770Y-1861780D1*
X1561057D1*
X1573130Y-1855603D1*
X1585343Y-1843530D1*
X1591380Y-1831317D1*
X1597416Y-1813207D1*
Y-1782744D1*
X1591380Y-1764494D1*
X1585343Y-1752421D1*
X1573130Y-1740207D1*
X1561057Y-1734171D1*
X1536770D1*
X1845151D2*
Y-1861780D1*
X1760078Y-1734171D1*
Y-1861780D1*
X1920867Y-1734171D2*
X1908654Y-1740207D1*
X1896581Y-1752421D1*
X1890404Y-1764494D1*
X1884367Y-1782744D1*
Y-1813207D1*
X1890404Y-1831317D1*
X1896581Y-1843530D1*
X1908654Y-1855603D1*
X1920867Y-1861780D1*
X1945154D1*
X1957227Y-1855603D1*
X1969440Y-1843530D1*
X1975477Y-1831317D1*
X1981513Y-1813207D1*
Y-1782744D1*
X1975477Y-1764494D1*
X1969440Y-1752421D1*
X1957227Y-1740207D1*
X1945154Y-1734171D1*
X1920867D1*
X2063265D2*
Y-1861780D1*
X2020729Y-1734171D2*
X2105802D1*
X2268464Y-1800994D2*
X2323214D1*
X2341324Y-1794957D1*
X2347501Y-1788780D1*
X2353537Y-1776707D1*
Y-1758457D1*
X2347501Y-1746384D1*
X2341324Y-1740207D1*
X2323214Y-1734171D1*
X2268464D1*
Y-1861780D1*
X2392753Y-1734171D2*
Y-1861780D1*
X2465613D1*
X2504828Y-1734171D2*
Y-1825280D1*
X2510865Y-1843530D1*
X2523078Y-1855603D1*
X2541328Y-1861780D1*
X2553401D1*
X2571651Y-1855603D1*
X2583865Y-1843530D1*
X2589901Y-1825280D1*
Y-1734171D1*
X2720227Y-1764494D2*
X2714190Y-1752421D1*
X2701977Y-1740207D1*
X2689904Y-1734171D1*
X2665617D1*
X2653404Y-1740207D1*
X2641330Y-1752421D1*
X2635154Y-1764494D1*
X2629117Y-1782744D1*
Y-1813207D1*
X2635154Y-1831317D1*
X2641330Y-1843530D1*
X2653404Y-1855603D1*
X2665617Y-1861780D1*
X2689904D1*
X2701977Y-1855603D1*
X2714190Y-1843530D1*
X2720227Y-1831317D1*
Y-1813207D1*
X2689904D1*
X2882889Y-1734171D2*
Y-1861780D1*
X3007177Y-1734171D2*
Y-1861780D1*
X2922104Y-1734171D1*
Y-1861780D1*
X3088930Y-1734171D2*
Y-1861780D1*
X3046393Y-1734171D2*
X3131466D1*
X3207182D2*
X3194968Y-1740207D1*
X3182895Y-1752421D1*
X3176718Y-1764494D1*
X3170682Y-1782744D1*
Y-1813207D1*
X3176718Y-1831317D1*
X3182895Y-1843530D1*
X3194968Y-1855603D1*
X3207182Y-1861780D1*
X3231468D1*
X3243542Y-1855603D1*
X3255755Y-1843530D1*
X3261792Y-1831317D1*
X3267828Y-1813207D1*
Y-1782744D1*
X3261792Y-1764494D1*
X3255755Y-1752421D1*
X3243542Y-1740207D1*
X3231468Y-1734171D1*
X3207182D1*
X3527777Y-1861780D2*
X3479063Y-1734171D1*
X3430490Y-1861780D1*
X3448740Y-1819244D2*
X3509527D1*
X3690439Y-1800994D2*
X3745189D1*
X3763299Y-1794957D1*
X3769475Y-1788780D1*
X3775512Y-1776707D1*
Y-1758457D1*
X3769475Y-1746384D1*
X3763299Y-1740207D1*
X3745189Y-1734171D1*
X3690439D1*
Y-1861780D1*
X3905837Y-1764494D2*
X3899801Y-1752421D1*
X3887587Y-1740207D1*
X3875514Y-1734171D1*
X3851228D1*
X3839014Y-1740207D1*
X3826941Y-1752421D1*
X3820764Y-1764494D1*
X3814728Y-1782744D1*
Y-1813207D1*
X3820764Y-1831317D1*
X3826941Y-1843530D1*
X3839014Y-1855603D1*
X3851228Y-1861780D1*
X3875514D1*
X3887587Y-1855603D1*
X3899801Y-1843530D1*
X3905837Y-1831317D1*
X3945053Y-1734171D2*
Y-1861780D1*
X3984269Y-1798046D2*
X4054461D1*
X4172573Y-1734171D2*
X4093677D1*
Y-1861780D1*
X4172573D1*
X4093677Y-1794957D2*
X4142250D1*
X4211788Y-1734171D2*
X4296862Y-1861780D1*
Y-1734171D2*
X4211788Y-1861780D1*
X4336077Y-1800994D2*
X4390827D1*
X4408937Y-1794957D1*
X4415114Y-1788780D1*
X4421150Y-1776707D1*
Y-1758457D1*
X4415114Y-1746384D1*
X4408937Y-1740207D1*
X4390827Y-1734171D1*
X4336077D1*
Y-1861780D1*
X4460366Y-1794957D2*
X4514976D1*
X4533226Y-1788780D1*
X4539403Y-1782744D1*
X4545439Y-1770671D1*
Y-1758457D1*
X4539403Y-1746384D1*
X4533226Y-1740207D1*
X4514976Y-1734171D1*
X4460366D1*
Y-1861780D1*
X4502903Y-1794957D2*
X4545439Y-1861780D1*
X4663551Y-1734171D2*
X4584655D1*
Y-1861780D1*
X4663551D1*
X4584655Y-1794957D2*
X4633228D1*
X4787840Y-1752421D2*
X4775767Y-1740207D1*
X4757517Y-1734171D1*
X4733230D1*
X4714980Y-1740207D1*
X4702767Y-1752421D1*
Y-1764494D1*
X4708944Y-1776707D1*
X4714980Y-1782744D1*
X4727053Y-1788780D1*
X4763553Y-1800994D1*
X4775767Y-1807030D1*
X4781803Y-1813207D1*
X4787840Y-1825280D1*
Y-1843530D1*
X4775767Y-1855603D1*
X4757517Y-1861780D1*
X4733230D1*
X4714980Y-1855603D1*
X4702767Y-1843530D1*
X4912128Y-1752421D2*
X4900055Y-1740207D1*
X4881805Y-1734171D1*
X4857519D1*
X4839269Y-1740207D1*
X4827055Y-1752421D1*
Y-1764494D1*
X4833232Y-1776707D1*
X4839269Y-1782744D1*
X4851342Y-1788780D1*
X4887842Y-1800994D1*
X4900055Y-1807030D1*
X4906092Y-1813207D1*
X4912128Y-1825280D1*
Y-1843530D1*
X4900055Y-1855603D1*
X4881805Y-1861780D1*
X4857519D1*
X4839269Y-1855603D1*
X4827055Y-1843530D1*
X5159864Y-1752421D2*
X5147791Y-1740207D1*
X5129541Y-1734171D1*
X5105254D1*
X5087004Y-1740207D1*
X5074791Y-1752421D1*
Y-1764494D1*
X5080968Y-1776707D1*
X5087004Y-1782744D1*
X5099077Y-1788780D1*
X5135577Y-1800994D1*
X5147791Y-1807030D1*
X5153827Y-1813207D1*
X5159864Y-1825280D1*
Y-1843530D1*
X5147791Y-1855603D1*
X5129541Y-1861780D1*
X5105254D1*
X5087004Y-1855603D1*
X5074791Y-1843530D1*
X5199079Y-1734171D2*
Y-1861780D1*
X5271939D1*
X5347655Y-1734171D2*
X5335441Y-1740207D1*
X5323368Y-1752421D1*
X5317191Y-1764494D1*
X5311155Y-1782744D1*
Y-1813207D1*
X5317191Y-1831317D1*
X5323368Y-1843530D1*
X5335441Y-1855603D1*
X5347655Y-1861780D1*
X5371941D1*
X5384014Y-1855603D1*
X5396228Y-1843530D1*
X5402264Y-1831317D1*
X5408301Y-1813207D1*
Y-1782744D1*
X5402264Y-1764494D1*
X5396228Y-1752421D1*
X5384014Y-1740207D1*
X5371941Y-1734171D1*
X5347655D1*
X5490053D2*
Y-1861780D1*
X5447517Y-1734171D2*
X5532590D1*
X5577982Y-1734311D2*
Y-1819244D1*
Y-1849567D2*
X5571805Y-1855744D1*
X5577982Y-1861780D1*
X5584019Y-1855744D1*
X5577982Y-1849567D1*
X4003395Y1503652D2*
D82*
X4008280Y1508481D1*
X4010695Y1515781D1*
Y1525496D1*
X4008280Y1532796D1*
X4003395Y1537681D1*
X3998565D1*
X3993680Y1535210D1*
X3991265Y1532796D1*
X3988851Y1527967D1*
X3983965Y1513367D1*
X3981551Y1508481D1*
X3979080Y1506067D1*
X3974251Y1503652D1*
X3966951D1*
X3962122Y1508481D1*
X3959651Y1515781D1*
Y1525496D1*
X3962122Y1532796D1*
X3966951Y1537681D1*
X4010695Y1487966D2*
X3959651D1*
X3993680Y1460150D2*
X3991265Y1464979D1*
X3986380Y1469865D1*
X3979080Y1472279D1*
X3974251D1*
X3966951Y1469865D1*
X3962122Y1464979D1*
X3959651Y1460150D1*
Y1452850D1*
X3962122Y1447965D1*
X3966951Y1443136D1*
X3974251Y1440665D1*
X3979080D1*
X3986380Y1443136D1*
X3991265Y1447965D1*
X3993680Y1452850D1*
Y1460150D1*
X4010695Y1417679D2*
X3969365D1*
X3962122Y1415264D1*
X3959651Y1410379D1*
Y1405549D1*
X3993680Y1424979D2*
Y1407964D1*
X3986380Y1311284D2*
X3991265Y1316170D1*
X3993680Y1321055D1*
Y1328299D1*
X3991265Y1333184D1*
X3986380Y1338014D1*
X3979080Y1340484D1*
X3974251D1*
X3966951Y1338014D1*
X3962122Y1333184D1*
X3959651Y1328299D1*
Y1321055D1*
X3962122Y1316170D1*
X3966951Y1311284D1*
X3993680Y1295598D2*
X3969365D1*
X3962122Y1293184D1*
X3959651Y1288298D1*
Y1280998D1*
X3962122Y1276169D1*
X3969365Y1268869D1*
X3993680D2*
X3959651D1*
X4010695Y1245883D2*
X3969365D1*
X3962122Y1243468D1*
X3959651Y1238583D1*
Y1233753D1*
X3993680Y1253183D2*
Y1236168D1*
Y1205938D2*
X3991265Y1210767D1*
X3986380Y1215653D1*
X3979080Y1218067D1*
X3974251D1*
X3966951Y1215653D1*
X3962122Y1210767D1*
X3959651Y1205938D1*
Y1198638D1*
X3962122Y1193753D1*
X3966951Y1188923D1*
X3974251Y1186453D1*
X3979080D1*
X3986380Y1188923D1*
X3991265Y1193753D1*
X3993680Y1198638D1*
Y1205938D1*
Y1170766D2*
X3969365D1*
X3962122Y1168352D1*
X3959651Y1163466D1*
Y1156166D1*
X3962122Y1151337D1*
X3969365Y1144037D1*
X3993680D2*
X3959651D1*
X4010695Y1121051D2*
X3969365D1*
X3962122Y1118636D1*
X3959651Y1113751D1*
Y1108922D1*
X3993680Y1128351D2*
Y1111336D1*
X3144814Y682848D2*
D88*
X3141192Y690092D1*
X3133864Y697420D1*
X3126620Y701042D1*
X3112048D1*
X3104720Y697420D1*
X3097476Y690092D1*
X3093770Y682848D1*
X3090148Y671898D1*
Y653620D1*
X3093770Y642754D1*
X3097476Y635426D1*
X3104720Y628182D1*
X3112048Y624476D1*
X3126620D1*
X3133864Y628182D1*
X3141192Y635426D1*
X3144814Y642754D1*
X3168343Y701042D2*
Y624476D1*
Y660948D2*
X3179293Y671898D1*
X3186621Y675520D1*
X3197571D1*
X3204815Y671898D1*
X3208437Y660948D1*
Y624476D1*
X3275682Y675520D2*
Y624476D1*
Y664570D2*
X3268438Y671898D1*
X3261110Y675520D1*
X3250245D1*
X3242916Y671898D1*
X3235673Y664570D1*
X3231966Y653620D1*
Y646376D1*
X3235673Y635426D1*
X3242916Y628182D1*
X3250245Y624476D1*
X3261110D1*
X3268438Y628182D1*
X3275682Y635426D1*
X3299212Y675520D2*
Y624476D1*
Y660948D2*
X3310162Y671898D1*
X3317490Y675520D1*
X3328355D1*
X3335684Y671898D1*
X3339305Y660948D1*
Y624476D1*
Y660948D2*
X3350255Y671898D1*
X3357584Y675520D1*
X3368449D1*
X3375777Y671898D1*
X3379484Y660948D1*
Y624476D1*
X3432157Y701042D2*
X3424913D1*
X3417585Y697420D1*
X3413963Y686470D1*
Y624476D1*
X3403013Y675520D2*
X3428535D1*
X3455686Y653620D2*
X3499402D1*
Y660948D1*
X3495780Y668276D1*
X3492158Y671898D1*
X3484830Y675520D1*
X3473880D1*
X3466636Y671898D1*
X3459308Y664570D1*
X3455686Y653620D1*
Y646376D1*
X3459308Y635426D1*
X3466636Y628182D1*
X3473880Y624476D1*
X3484830D1*
X3492158Y628182D1*
X3499402Y635426D1*
X3522931Y675520D2*
Y624476D1*
Y653620D2*
X3526638Y664570D1*
X3533881Y671898D1*
X3541209Y675520D1*
X3552159D1*
X3649757Y660948D2*
X3682607D1*
X3693473Y664570D1*
X3697179Y668276D1*
X3700801Y675520D1*
Y686470D1*
X3697179Y693714D1*
X3693473Y697420D1*
X3682607Y701042D1*
X3649757D1*
Y624476D1*
X3778996Y682848D2*
X3775374Y690092D1*
X3768046Y697420D1*
X3760802Y701042D1*
X3746230D1*
X3738902Y697420D1*
X3731658Y690092D1*
X3727952Y682848D1*
X3724330Y671898D1*
Y653620D1*
X3727952Y642754D1*
X3731658Y635426D1*
X3738902Y628182D1*
X3746230Y624476D1*
X3760802D1*
X3768046Y628182D1*
X3775374Y635426D1*
X3778996Y642754D1*
X3802525Y701042D2*
Y624476D1*
X3835375D1*
X3846325Y628182D1*
X3849947Y631804D1*
X3853569Y639048D1*
Y649998D1*
X3849947Y657326D1*
X3846325Y660948D1*
X3835375Y664570D1*
X3846325Y668276D1*
X3849947Y671898D1*
X3853569Y679142D1*
Y686470D1*
X3849947Y693714D1*
X3846325Y697420D1*
X3835375Y701042D1*
X3802525D1*
Y664570D2*
X3835375D1*
X3951166Y653620D2*
X3994882D1*
Y660948D1*
X3991260Y668276D1*
X3987638Y671898D1*
X3980310Y675520D1*
X3969360D1*
X3962116Y671898D1*
X3954788Y664570D1*
X3951166Y653620D1*
Y646376D1*
X3954788Y635426D1*
X3962116Y628182D1*
X3969360Y624476D1*
X3980310D1*
X3987638Y628182D1*
X3994882Y635426D1*
X4062127Y701042D2*
Y624476D1*
Y664570D2*
X4054883Y671898D1*
X4047555Y675520D1*
X4036605D1*
X4029362Y671898D1*
X4022033Y664570D1*
X4018412Y653620D1*
Y646376D1*
X4022033Y635426D1*
X4029362Y628182D1*
X4036605Y624476D1*
X4047555D1*
X4054883Y628182D1*
X4062127Y635426D1*
X4129372Y671898D2*
Y613526D1*
X4125751Y602660D1*
X4122129Y598954D1*
X4114801Y595332D1*
X4103851D1*
X4096607Y598954D1*
X4129372Y660948D2*
X4122129Y668192D1*
X4114801Y671898D1*
X4103851D1*
X4096607Y668192D1*
X4089279Y660948D1*
X4085657Y649998D1*
Y642670D1*
X4089279Y631804D1*
X4096607Y624476D1*
X4103851Y620854D1*
X4114801D1*
X4122129Y624476D1*
X4129372Y631804D1*
X4152902Y653620D2*
X4196618D1*
Y660948D1*
X4192996Y668276D1*
X4189374Y671898D1*
X4182046Y675520D1*
X4171096D1*
X4163852Y671898D1*
X4156524Y664570D1*
X4152902Y653620D1*
Y646376D1*
X4156524Y635426D1*
X4163852Y628182D1*
X4171096Y624476D1*
X4182046D1*
X4189374Y628182D1*
X4196618Y635426D1*
M02*
