G04 DipTrace 5.2.0.4*
G04 TopDimension.gbr*
%MOMM*%
G04 #@! TF.FileFunction,Drawing,Top*
G04 #@! TF.Part,Single*
%ADD15C,0.035*%
%ADD94C,0.15686*%
%FSLAX35Y35*%
G04*
G71*
G90*
G75*
G01*
G04 TopDimension*
%LPD*%
X1000000Y2315000D2*
D15*
X750000D1*
X1000000Y17315000D2*
X750000D1*
X800000Y9815000D2*
Y2415000D1*
G36*
Y2315000D2*
X780000Y2415000D1*
X820000D1*
X800000Y2315000D1*
G37*
Y9815000D2*
D15*
Y17215000D1*
G36*
Y17315000D2*
X820000Y17215000D1*
X780000D1*
X800000Y17315000D1*
G37*
X1020000Y2315000D2*
D15*
Y-485000D1*
X5980000Y2315000D2*
Y-485000D1*
X3500000Y-435000D2*
X1120000D1*
G36*
X1020000D2*
X1120000Y-415000D1*
Y-455000D1*
X1020000Y-435000D1*
G37*
X3500000D2*
D15*
X5880000D1*
G36*
X5980000D2*
X5880000Y-455000D1*
Y-415000D1*
X5980000Y-435000D1*
G37*
X1020000Y2315000D2*
D15*
X750000D1*
X1835000Y1000000D2*
X750000D1*
X800000Y1657500D2*
Y2215000D1*
G36*
Y2315000D2*
X820000Y2215000D1*
X780000D1*
X800000Y2315000D1*
G37*
Y1657500D2*
D15*
Y1100000D1*
G36*
Y1000000D2*
X780000Y1100000D1*
X820000D1*
X800000Y1000000D1*
G37*
X1835000D2*
D15*
X450000D1*
X1000000Y17315000D2*
X450000D1*
X500000Y9157500D2*
Y1100000D1*
G36*
Y1000000D2*
X480000Y1100000D1*
X520000D1*
X500000Y1000000D1*
G37*
Y9157500D2*
D15*
Y17215000D1*
G36*
Y17315000D2*
X520000Y17215000D1*
X480000D1*
X500000Y17315000D1*
G37*
X1020000Y2315000D2*
D15*
Y-235000D1*
X1785000Y2315000D2*
Y-235000D1*
X1402500Y-185000D2*
X1120000D1*
G36*
X1020000D2*
X1120000Y-165000D1*
Y-205000D1*
X1020000Y-185000D1*
G37*
X1402500D2*
D15*
X1685000D1*
G36*
X1785000D2*
X1685000Y-205000D1*
Y-165000D1*
X1785000Y-185000D1*
G37*
Y1050000D2*
D15*
Y-235000D1*
X5215000Y1050000D2*
Y-235000D1*
X3500000Y-185000D2*
X1885000D1*
G36*
X1785000D2*
X1885000Y-165000D1*
Y-205000D1*
X1785000Y-185000D1*
G37*
X3500000D2*
D15*
X5115000D1*
G36*
X5215000D2*
X5115000Y-205000D1*
Y-165000D1*
X5215000Y-185000D1*
G37*
Y1050000D2*
D15*
Y-235000D1*
X5980000Y2315000D2*
Y-235000D1*
X5597500Y-185000D2*
X5315000D1*
G36*
X5215000D2*
X5315000Y-165000D1*
Y-205000D1*
X5215000Y-185000D1*
G37*
X5597500D2*
D15*
X5880000D1*
G36*
X5980000D2*
X5880000Y-205000D1*
Y-165000D1*
X5980000Y-185000D1*
G37*
X3500000Y9640000D2*
D15*
X6300000D1*
X3500000Y7390000D2*
X6300000D1*
X6250000Y8515000D2*
Y9540000D1*
G36*
Y9640000D2*
X6270000Y9540000D1*
X6230000D1*
X6250000Y9640000D1*
G37*
Y8515000D2*
D15*
Y7490000D1*
G36*
Y7390000D2*
X6230000Y7490000D1*
X6270000D1*
X6250000Y7390000D1*
G37*
X3500000Y9640000D2*
D15*
X6300000D1*
X3500000Y11890000D2*
X6300000D1*
X6250000Y10765000D2*
Y9740000D1*
G36*
Y9640000D2*
X6230000Y9740000D1*
X6270000D1*
X6250000Y9640000D1*
G37*
Y10765000D2*
D15*
Y11790000D1*
G36*
Y11890000D2*
X6270000Y11790000D1*
X6230000D1*
X6250000Y11890000D1*
G37*
X3500000Y9640000D2*
D15*
X6550000D1*
X4600000Y14390000D2*
X6550000D1*
X6500000Y12015000D2*
Y9740000D1*
G36*
Y9640000D2*
X6480000Y9740000D1*
X6520000D1*
X6500000Y9640000D1*
G37*
Y12015000D2*
D15*
Y14290000D1*
G36*
Y14390000D2*
X6520000Y14290000D1*
X6480000D1*
X6500000Y14390000D1*
G37*
X3500000Y9640000D2*
D15*
X6550000D1*
X4600000Y4890000D2*
X6550000D1*
X6500000Y7265000D2*
Y9540000D1*
G36*
Y9640000D2*
X6520000Y9540000D1*
X6480000D1*
X6500000Y9640000D1*
G37*
Y7265000D2*
D15*
Y4990000D1*
G36*
Y4890000D2*
X6480000Y4990000D1*
X6520000D1*
X6500000Y4890000D1*
G37*
X4600000Y14390000D2*
D15*
X6800000D1*
X4600000Y4890000D2*
X6800000D1*
X6750000Y9640000D2*
Y14290000D1*
G36*
Y14390000D2*
X6770000Y14290000D1*
X6730000D1*
X6750000Y14390000D1*
G37*
Y9640000D2*
D15*
Y4990000D1*
G36*
Y4890000D2*
X6730000Y4990000D1*
X6770000D1*
X6750000Y4890000D1*
G37*
X4600000Y14390000D2*
D15*
Y17865000D1*
X2400000Y14390000D2*
Y17865000D1*
X3500000Y17815000D2*
X4500000D1*
G36*
X4600000D2*
X4500000Y17795000D1*
Y17835000D1*
X4600000Y17815000D1*
G37*
X3500000D2*
D15*
X2500000D1*
G36*
X2400000D2*
X2500000Y17835000D1*
Y17795000D1*
X2400000Y17815000D1*
G37*
X3500000Y11890000D2*
D15*
Y17615000D1*
X2400000Y14390000D2*
Y17615000D1*
X2950000Y17565000D2*
X3400000D1*
G36*
X3500000D2*
X3400000Y17545000D1*
Y17585000D1*
X3500000Y17565000D1*
G37*
X2950000D2*
D15*
X2500000D1*
G36*
X2400000D2*
X2500000Y17585000D1*
Y17545000D1*
X2400000Y17565000D1*
G37*
X4600000Y14390000D2*
D15*
Y17615000D1*
X3500000Y11890000D2*
Y17615000D1*
X4050000Y17565000D2*
X4500000D1*
G36*
X4600000D2*
X4500000Y17545000D1*
Y17585000D1*
X4600000Y17565000D1*
G37*
X4050000D2*
D15*
X3600000D1*
G36*
X3500000D2*
X3600000Y17585000D1*
Y17545000D1*
X3500000Y17565000D1*
G37*
Y7390000D2*
D15*
Y265000D1*
X5980000Y2315000D2*
Y265000D1*
X4740000Y315000D2*
X3600000D1*
G36*
X3500000D2*
X3600000Y335000D1*
Y295000D1*
X3500000Y315000D1*
G37*
X4740000D2*
D15*
X5880000D1*
G36*
X5980000D2*
X5880000Y295000D1*
Y335000D1*
X5980000Y315000D1*
G37*
X1020000Y2315000D2*
D15*
Y265000D1*
X3500000Y7390000D2*
Y265000D1*
X2260000Y315000D2*
X1120000D1*
G36*
X1020000D2*
X1120000Y335000D1*
Y295000D1*
X1020000Y315000D1*
G37*
X2260000D2*
D15*
X3400000D1*
G36*
X3500000D2*
X3400000Y295000D1*
Y335000D1*
X3500000Y315000D1*
G37*
X1785000Y2315000D2*
D15*
Y15000D1*
X4000000Y1840000D2*
Y15000D1*
X2892500Y65000D2*
X1885000D1*
G36*
X1785000D2*
X1885000Y85000D1*
Y45000D1*
X1785000Y65000D1*
G37*
X2892500D2*
D15*
X3900000D1*
G36*
X4000000D2*
X3900000Y45000D1*
Y85000D1*
X4000000Y65000D1*
G37*
Y1840000D2*
D15*
Y15000D1*
X5215000Y2315000D2*
Y15000D1*
X4607500Y65000D2*
X4100000D1*
G36*
X4000000D2*
X4100000Y85000D1*
Y45000D1*
X4000000Y65000D1*
G37*
X4607500D2*
D15*
X5115000D1*
G36*
X5215000D2*
X5115000Y45000D1*
Y85000D1*
X5215000Y65000D1*
G37*
X1000000Y2565000D2*
D15*
Y-735000D1*
X6000000Y2552500D2*
Y-735000D1*
X3500000Y-685000D2*
X1100000D1*
G36*
X1000000D2*
X1100000Y-665000D1*
Y-705000D1*
X1000000Y-685000D1*
G37*
X3500000D2*
D15*
X5900000D1*
G36*
X6000000D2*
X5900000Y-705000D1*
Y-665000D1*
X6000000Y-685000D1*
G37*
X5600000Y16915000D2*
D15*
Y18115000D1*
X1400000Y16915000D2*
Y18115000D1*
X3500000Y18065000D2*
X5500000D1*
G36*
X5600000D2*
X5500000Y18045000D1*
Y18085000D1*
X5600000Y18065000D1*
G37*
X3500000D2*
D15*
X1500000D1*
G36*
X1400000D2*
X1500000Y18085000D1*
Y18045000D1*
X1400000Y18065000D1*
G37*
Y16915000D2*
D15*
Y18115000D1*
X1000000Y17315000D2*
Y18115000D1*
X1200000Y18065000D2*
X1300000D1*
G36*
X1400000D2*
X1300000Y18045000D1*
Y18085000D1*
X1400000Y18065000D1*
G37*
X1200000D2*
D15*
X1100000D1*
G36*
X1000000D2*
X1100000Y18085000D1*
Y18045000D1*
X1000000Y18065000D1*
G37*
X5600000Y16915000D2*
D15*
Y18115000D1*
X6000000Y17315000D2*
Y18115000D1*
X5800000Y18065000D2*
X5700000D1*
G36*
X5600000D2*
X5700000Y18085000D1*
Y18045000D1*
X5600000Y18065000D1*
G37*
X5800000D2*
D15*
X5900000D1*
G36*
X6000000D2*
X5900000Y18045000D1*
Y18085000D1*
X6000000Y18065000D1*
G37*
X5600000Y16755000D2*
D15*
X6175000D1*
X5600000Y17075000D2*
X6175000D1*
X6125000D2*
Y16755000D1*
Y17225000D2*
Y17175000D1*
G36*
Y17075000D2*
X6105000Y17175000D1*
X6145000D1*
X6125000Y17075000D1*
G37*
Y16605000D2*
D15*
Y16655000D1*
G36*
Y16755000D2*
X6145000Y16655000D1*
X6105000D1*
X6125000Y16755000D1*
G37*
X5600000Y16915000D2*
D15*
X6425000D1*
X6000000Y17315000D2*
X6425000D1*
X6375000Y17115000D2*
Y17015000D1*
G36*
Y16915000D2*
X6355000Y17015000D1*
X6395000D1*
X6375000Y16915000D1*
G37*
Y17115000D2*
D15*
Y17215000D1*
G36*
Y17315000D2*
X6395000Y17215000D1*
X6355000D1*
X6375000Y17315000D1*
G37*
X686439Y9711227D2*
D94*
X681497Y9720998D1*
X667009Y9735598D1*
X768985D1*
X667009Y9825258D2*
Y9776741D1*
X710697Y9771912D1*
X705868Y9776741D1*
X700926Y9791341D1*
Y9805829D1*
X705868Y9820429D1*
X715526Y9830199D1*
X730126Y9835029D1*
X739785D1*
X754385Y9830199D1*
X764155Y9820429D1*
X768985Y9805829D1*
Y9791341D1*
X764155Y9776741D1*
X759214Y9771912D1*
X749555Y9766970D1*
X667009Y9895601D2*
X671839Y9881001D1*
X686439Y9871230D1*
X710697Y9866401D1*
X725297D1*
X749555Y9871230D1*
X764155Y9881001D1*
X768985Y9895601D1*
Y9905260D1*
X764155Y9919860D1*
X749555Y9929518D1*
X725297Y9934460D1*
X710697D1*
X686439Y9929518D1*
X671839Y9919860D1*
X667009Y9905260D1*
Y9895601D1*
X686439Y9929518D2*
X749555Y9871230D1*
X3404911Y-403985D2*
Y-302009D1*
X3356282Y-369955D1*
X3429170D1*
X3523771Y-335926D2*
X3518830Y-350526D1*
X3509171Y-360297D1*
X3494571Y-365126D1*
X3489742D1*
X3475142Y-360297D1*
X3465484Y-350526D1*
X3460542Y-335926D1*
Y-331097D1*
X3465484Y-316497D1*
X3475142Y-306839D1*
X3489742Y-302009D1*
X3494571D1*
X3509171Y-306839D1*
X3518830Y-316497D1*
X3523771Y-335926D1*
Y-360297D1*
X3518830Y-384555D1*
X3509171Y-399155D1*
X3494571Y-403985D1*
X3484913D1*
X3470313Y-399155D1*
X3465484Y-389385D1*
X3559973Y-394214D2*
X3555144Y-399155D1*
X3559973Y-403985D1*
X3564915Y-399155D1*
X3559973Y-394214D1*
X3654575Y-316497D2*
X3649746Y-306839D1*
X3635146Y-302009D1*
X3625487D1*
X3610887Y-306839D1*
X3601117Y-321439D1*
X3596287Y-345697D1*
Y-369955D1*
X3601117Y-389385D1*
X3610887Y-399155D1*
X3625487Y-403985D1*
X3630317D1*
X3644804Y-399155D1*
X3654575Y-389385D1*
X3659404Y-374785D1*
Y-369955D1*
X3654575Y-355355D1*
X3644804Y-345697D1*
X3630317Y-340868D1*
X3625487D1*
X3610887Y-345697D1*
X3601117Y-355355D1*
X3596287Y-369955D1*
X686439Y1505283D2*
X681497Y1515054D1*
X667009Y1529654D1*
X768985D1*
X667009Y1570798D2*
Y1624144D1*
X705868Y1595056D1*
Y1609656D1*
X710697Y1619314D1*
X715526Y1624144D1*
X730126Y1629085D1*
X739785D1*
X754385Y1624144D1*
X764155Y1614485D1*
X768985Y1599885D1*
Y1585285D1*
X764155Y1570798D1*
X759214Y1565968D1*
X749555Y1561027D1*
X759214Y1665287D2*
X764155Y1660458D1*
X768985Y1665287D1*
X764155Y1670229D1*
X759214Y1665287D1*
X686439Y1701601D2*
X681497Y1711372D1*
X667009Y1725972D1*
X768985D1*
X667009Y1815632D2*
Y1767115D1*
X710697Y1762286D1*
X705868Y1767115D1*
X700926Y1781715D1*
Y1796203D1*
X705868Y1810803D1*
X715526Y1820574D1*
X730126Y1825403D1*
X739785D1*
X754385Y1820574D1*
X764155Y1810803D1*
X768985Y1796203D1*
Y1781715D1*
X764155Y1767115D1*
X759214Y1762286D1*
X749555Y1757344D1*
X386439Y8958039D2*
X381497Y8967809D1*
X367009Y8982409D1*
X468985D1*
X381497Y9072070D2*
X371839Y9067240D1*
X367009Y9052640D1*
Y9042982D1*
X371839Y9028382D1*
X386439Y9018611D1*
X410697Y9013782D1*
X434955D1*
X454385Y9018611D1*
X464155Y9028382D1*
X468985Y9042982D1*
Y9047811D1*
X464155Y9062299D1*
X454385Y9072070D1*
X439785Y9076899D1*
X434955D1*
X420355Y9072070D1*
X410697Y9062299D1*
X405868Y9047811D1*
Y9042982D1*
X410697Y9028382D1*
X420355Y9018611D1*
X434955Y9013782D1*
X367009Y9118042D2*
Y9171388D1*
X405868Y9142301D1*
Y9156901D1*
X410697Y9166559D1*
X415526Y9171388D1*
X430126Y9176330D1*
X439785D1*
X454385Y9171388D1*
X464155Y9161730D1*
X468985Y9147130D1*
Y9132530D1*
X464155Y9118042D1*
X459214Y9113213D1*
X449555Y9108271D1*
X459214Y9212532D2*
X464155Y9207702D1*
X468985Y9212532D1*
X464155Y9217473D1*
X459214Y9212532D1*
X386439Y9248846D2*
X381497Y9258617D1*
X367009Y9273217D1*
X468985D1*
X367009Y9362877D2*
Y9314360D1*
X410697Y9309531D1*
X405868Y9314360D1*
X400926Y9328960D1*
Y9343448D1*
X405868Y9358048D1*
X415526Y9367818D1*
X430126Y9372648D1*
X439785D1*
X454385Y9367818D1*
X464155Y9358048D1*
X468985Y9343448D1*
Y9328960D1*
X464155Y9314360D1*
X459214Y9309531D1*
X449555Y9304589D1*
X1278211Y-153985D2*
X1326840Y-52009D1*
X1258782D1*
X1363042Y-144214D2*
X1358213Y-149155D1*
X1363042Y-153985D1*
X1367984Y-149155D1*
X1363042Y-144214D1*
X1457644Y-66497D2*
X1452815Y-56839D1*
X1438215Y-52009D1*
X1428556D1*
X1413956Y-56839D1*
X1404186Y-71439D1*
X1399356Y-95697D1*
Y-119955D1*
X1404186Y-139385D1*
X1413956Y-149155D1*
X1428556Y-153985D1*
X1433386D1*
X1447873Y-149155D1*
X1457644Y-139385D1*
X1462473Y-124785D1*
Y-119955D1*
X1457644Y-105355D1*
X1447873Y-95697D1*
X1433386Y-90868D1*
X1428556D1*
X1413956Y-95697D1*
X1404186Y-105355D1*
X1399356Y-119955D1*
X1552133Y-52009D2*
X1503617D1*
X1498787Y-95697D1*
X1503617Y-90868D1*
X1518217Y-85926D1*
X1532704D1*
X1547304Y-90868D1*
X1557075Y-100526D1*
X1561904Y-115126D1*
Y-124785D1*
X1557075Y-139385D1*
X1547304Y-149155D1*
X1532704Y-153985D1*
X1518217D1*
X1503617Y-149155D1*
X1498787Y-144214D1*
X1493846Y-134555D1*
X3361167Y-52009D2*
X3414514D1*
X3385426Y-90868D1*
X3400026D1*
X3409684Y-95697D1*
X3414514Y-100526D1*
X3419455Y-115126D1*
Y-124785D1*
X3414514Y-139385D1*
X3404855Y-149155D1*
X3390255Y-153985D1*
X3375655D1*
X3361167Y-149155D1*
X3356338Y-144214D1*
X3351397Y-134555D1*
X3499457Y-153985D2*
Y-52009D1*
X3450828Y-119955D1*
X3523715D1*
X3559917Y-144214D2*
X3555088Y-149155D1*
X3559917Y-153985D1*
X3564859Y-149155D1*
X3559917Y-144214D1*
X3606002Y-52009D2*
X3659348D1*
X3630260Y-90868D1*
X3644860D1*
X3654519Y-95697D1*
X3659348Y-100526D1*
X3664290Y-115126D1*
Y-124785D1*
X3659348Y-139385D1*
X3649690Y-149155D1*
X3635090Y-153985D1*
X3620490D1*
X3606002Y-149155D1*
X3601173Y-144214D1*
X3596231Y-134555D1*
X5473211Y-153985D2*
X5521840Y-52009D1*
X5453782D1*
X5558042Y-144214D2*
X5553213Y-149155D1*
X5558042Y-153985D1*
X5562984Y-149155D1*
X5558042Y-144214D1*
X5652644Y-66497D2*
X5647815Y-56839D1*
X5633215Y-52009D1*
X5623556D1*
X5608956Y-56839D1*
X5599186Y-71439D1*
X5594356Y-95697D1*
Y-119955D1*
X5599186Y-139385D1*
X5608956Y-149155D1*
X5623556Y-153985D1*
X5628386D1*
X5642873Y-149155D1*
X5652644Y-139385D1*
X5657473Y-124785D1*
Y-119955D1*
X5652644Y-105355D1*
X5642873Y-95697D1*
X5628386Y-90868D1*
X5623556D1*
X5608956Y-95697D1*
X5599186Y-105355D1*
X5594356Y-119955D1*
X5747133Y-52009D2*
X5698617D1*
X5693787Y-95697D1*
X5698617Y-90868D1*
X5713217Y-85926D1*
X5727704D1*
X5742304Y-90868D1*
X5752075Y-100526D1*
X5756904Y-115126D1*
Y-124785D1*
X5752075Y-139385D1*
X5742304Y-149155D1*
X5727704Y-153985D1*
X5713217D1*
X5698617Y-149155D1*
X5693787Y-144214D1*
X5688846Y-134555D1*
X6358732Y8656247D2*
X6363561D1*
X6373332Y8651418D1*
X6378161Y8646589D1*
X6382991Y8636818D1*
Y8617389D1*
X6378161Y8607730D1*
X6373332Y8602901D1*
X6363561Y8597960D1*
X6353903D1*
X6344132Y8602901D1*
X6329645Y8612560D1*
X6281015Y8661189D1*
Y8593130D1*
X6358732Y8556816D2*
X6363561D1*
X6373332Y8551987D1*
X6378161Y8547158D1*
X6382991Y8537387D1*
Y8517958D1*
X6378161Y8508299D1*
X6373332Y8503470D1*
X6363561Y8498529D1*
X6353903D1*
X6344132Y8503470D1*
X6329645Y8513129D1*
X6281015Y8561758D1*
Y8493699D1*
X6290786Y8457498D2*
X6285845Y8462327D1*
X6281015Y8457498D1*
X6285845Y8452556D1*
X6290786Y8457498D1*
X6382991Y8362896D2*
Y8411413D1*
X6339303Y8416242D1*
X6344132Y8411413D1*
X6349074Y8396813D1*
Y8382325D1*
X6344132Y8367725D1*
X6334474Y8357954D1*
X6319874Y8353125D1*
X6310215D1*
X6295615Y8357954D1*
X6285845Y8367725D1*
X6281015Y8382325D1*
Y8396813D1*
X6285845Y8411413D1*
X6290786Y8416242D1*
X6300445Y8421183D1*
X6358732Y10906247D2*
X6363561D1*
X6373332Y10901418D1*
X6378161Y10896589D1*
X6382991Y10886818D1*
Y10867389D1*
X6378161Y10857730D1*
X6373332Y10852901D1*
X6363561Y10847960D1*
X6353903D1*
X6344132Y10852901D1*
X6329645Y10862560D1*
X6281015Y10911189D1*
Y10843130D1*
X6358732Y10806816D2*
X6363561D1*
X6373332Y10801987D1*
X6378161Y10797158D1*
X6382991Y10787387D1*
Y10767958D1*
X6378161Y10758299D1*
X6373332Y10753470D1*
X6363561Y10748529D1*
X6353903D1*
X6344132Y10753470D1*
X6329645Y10763129D1*
X6281015Y10811758D1*
Y10743699D1*
X6290786Y10707498D2*
X6285845Y10712327D1*
X6281015Y10707498D1*
X6285845Y10702556D1*
X6290786Y10707498D1*
X6382991Y10612896D2*
Y10661413D1*
X6339303Y10666242D1*
X6344132Y10661413D1*
X6349074Y10646813D1*
Y10632325D1*
X6344132Y10617725D1*
X6334474Y10607954D1*
X6319874Y10603125D1*
X6310215D1*
X6295615Y10607954D1*
X6285845Y10617725D1*
X6281015Y10632325D1*
Y10646813D1*
X6285845Y10661413D1*
X6290786Y10666242D1*
X6300445Y10671183D1*
X6531015Y12114974D2*
X6632991D1*
X6565045Y12163603D1*
Y12090716D1*
X6531015Y12039914D2*
X6632991Y11991285D1*
Y12059343D1*
X6540786Y11955083D2*
X6535845Y11959912D1*
X6531015Y11955083D1*
X6535845Y11950141D1*
X6540786Y11955083D1*
X6632991Y11860481D2*
Y11908998D1*
X6589303Y11913827D1*
X6594132Y11908998D1*
X6599074Y11894398D1*
Y11879910D1*
X6594132Y11865310D1*
X6584474Y11855540D1*
X6569874Y11850710D1*
X6560215D1*
X6545615Y11855540D1*
X6535845Y11865310D1*
X6531015Y11879910D1*
Y11894398D1*
X6535845Y11908998D1*
X6540786Y11913827D1*
X6550445Y11918769D1*
X6531015Y7364974D2*
X6632991D1*
X6565045Y7413603D1*
Y7340716D1*
X6531015Y7289914D2*
X6632991Y7241285D1*
Y7309343D1*
X6540786Y7205083D2*
X6535845Y7209912D1*
X6531015Y7205083D1*
X6535845Y7200141D1*
X6540786Y7205083D1*
X6632991Y7110481D2*
Y7158998D1*
X6589303Y7163827D1*
X6594132Y7158998D1*
X6599074Y7144398D1*
Y7129910D1*
X6594132Y7115310D1*
X6584474Y7105540D1*
X6569874Y7100710D1*
X6560215D1*
X6545615Y7105540D1*
X6535845Y7115310D1*
X6531015Y7129910D1*
Y7144398D1*
X6535845Y7158998D1*
X6540786Y7163827D1*
X6550445Y7168769D1*
X6849074Y9650258D2*
X6834474Y9655199D1*
X6824703Y9664858D1*
X6819874Y9679458D1*
Y9684287D1*
X6824703Y9698887D1*
X6834474Y9708545D1*
X6849074Y9713487D1*
X6853903D1*
X6868503Y9708545D1*
X6878161Y9698887D1*
X6882991Y9684287D1*
Y9679458D1*
X6878161Y9664858D1*
X6868503Y9655199D1*
X6849074Y9650258D1*
X6824703D1*
X6800445Y9655199D1*
X6785845Y9664858D1*
X6781015Y9679458D1*
Y9689116D1*
X6785845Y9703716D1*
X6795615Y9708545D1*
X6882991Y9560598D2*
Y9609114D1*
X6839303Y9613944D1*
X6844132Y9609114D1*
X6849074Y9594514D1*
Y9580027D1*
X6844132Y9565427D1*
X6834474Y9555656D1*
X6819874Y9550827D1*
X6810215D1*
X6795615Y9555656D1*
X6785845Y9565427D1*
X6781015Y9580027D1*
Y9594514D1*
X6785845Y9609114D1*
X6790786Y9613944D1*
X6800445Y9618885D1*
X3429040Y17923732D2*
Y17928561D1*
X3433869Y17938332D1*
X3438698Y17943161D1*
X3448469Y17947991D1*
X3467898D1*
X3477557Y17943161D1*
X3482386Y17938332D1*
X3487328Y17928561D1*
Y17918903D1*
X3482386Y17909132D1*
X3472728Y17894645D1*
X3424098Y17846015D1*
X3492157D1*
X3528471Y17923732D2*
Y17928561D1*
X3533300Y17938332D1*
X3538129Y17943161D1*
X3547900Y17947991D1*
X3567329D1*
X3576988Y17943161D1*
X3581817Y17938332D1*
X3586759Y17928561D1*
Y17918903D1*
X3581817Y17909132D1*
X3572159Y17894645D1*
X3523529Y17846015D1*
X3591588D1*
X2917786Y17678561D2*
X2927557Y17683503D1*
X2942157Y17697991D1*
Y17596015D1*
X2973529Y17678561D2*
X2983300Y17683503D1*
X2997900Y17697991D1*
Y17596015D1*
X4017786Y17678561D2*
X4027557Y17683503D1*
X4042157Y17697991D1*
Y17596015D1*
X4073529Y17678561D2*
X4083300Y17683503D1*
X4097900Y17697991D1*
Y17596015D1*
X4596394Y423732D2*
Y428561D1*
X4601224Y438332D1*
X4606053Y443161D1*
X4615824Y447991D1*
X4635253D1*
X4644911Y443161D1*
X4649740Y438332D1*
X4654682Y428561D1*
Y418903D1*
X4649740Y409132D1*
X4640082Y394645D1*
X4591453Y346015D1*
X4659511D1*
X4739513D2*
Y447991D1*
X4690884Y380045D1*
X4763771D1*
X4799973Y355786D2*
X4795144Y350845D1*
X4799973Y346015D1*
X4804915Y350845D1*
X4799973Y355786D1*
X4860546Y447991D2*
X4846058Y443161D1*
X4841117Y433503D1*
Y423732D1*
X4846058Y414074D1*
X4855717Y409132D1*
X4875146Y404303D1*
X4889746Y399474D1*
X4899404Y389703D1*
X4904233Y380045D1*
Y365445D1*
X4899404Y355786D1*
X4894575Y350845D1*
X4879975Y346015D1*
X4860546D1*
X4846058Y350845D1*
X4841117Y355786D1*
X4836287Y365445D1*
Y380045D1*
X4841117Y389703D1*
X4850887Y399474D1*
X4865375Y404303D1*
X4884804Y409132D1*
X4894575Y414074D1*
X4899404Y423732D1*
Y433503D1*
X4894575Y443161D1*
X4879975Y447991D1*
X4860546D1*
X2116394Y423732D2*
Y428561D1*
X2121224Y438332D1*
X2126053Y443161D1*
X2135824Y447991D1*
X2155253D1*
X2164911Y443161D1*
X2169740Y438332D1*
X2174682Y428561D1*
Y418903D1*
X2169740Y409132D1*
X2160082Y394645D1*
X2111453Y346015D1*
X2179511D1*
X2259513D2*
Y447991D1*
X2210884Y380045D1*
X2283771D1*
X2319973Y355786D2*
X2315144Y350845D1*
X2319973Y346015D1*
X2324915Y350845D1*
X2319973Y355786D1*
X2380546Y447991D2*
X2366058Y443161D1*
X2361117Y433503D1*
Y423732D1*
X2366058Y414074D1*
X2375717Y409132D1*
X2395146Y404303D1*
X2409746Y399474D1*
X2419404Y389703D1*
X2424233Y380045D1*
Y365445D1*
X2419404Y355786D1*
X2414575Y350845D1*
X2399975Y346015D1*
X2380546D1*
X2366058Y350845D1*
X2361117Y355786D1*
X2356287Y365445D1*
Y380045D1*
X2361117Y389703D1*
X2370887Y399474D1*
X2385375Y404303D1*
X2404804Y409132D1*
X2414575Y414074D1*
X2419404Y423732D1*
Y433503D1*
X2414575Y443161D1*
X2399975Y447991D1*
X2380546D1*
X2723381Y173732D2*
Y178561D1*
X2728210Y188332D1*
X2733040Y193161D1*
X2742810Y197991D1*
X2762240D1*
X2771898Y193161D1*
X2776727Y188332D1*
X2781669Y178561D1*
Y168903D1*
X2776727Y159132D1*
X2767069Y144645D1*
X2718440Y96015D1*
X2786498D1*
X2822812Y173732D2*
Y178561D1*
X2827641Y188332D1*
X2832471Y193161D1*
X2842241Y197991D1*
X2861671D1*
X2871329Y193161D1*
X2876158Y188332D1*
X2881100Y178561D1*
Y168903D1*
X2876158Y159132D1*
X2866500Y144645D1*
X2817871Y96015D1*
X2885929D1*
X2922131Y105786D2*
X2917302Y100845D1*
X2922131Y96015D1*
X2927072Y100845D1*
X2922131Y105786D1*
X2958445Y178561D2*
X2968216Y183503D1*
X2982816Y197991D1*
Y96015D1*
X3072476Y197991D2*
X3023959D1*
X3019130Y154303D1*
X3023959Y159132D1*
X3038559Y164074D1*
X3053047D1*
X3067647Y159132D1*
X3077417Y149474D1*
X3082247Y134874D1*
Y125215D1*
X3077417Y110615D1*
X3067647Y100845D1*
X3053047Y96015D1*
X3038559D1*
X3023959Y100845D1*
X3019130Y105786D1*
X3014188Y115445D1*
X4455283Y178561D2*
X4465054Y183503D1*
X4479654Y197991D1*
Y96015D1*
X4515968Y173732D2*
Y178561D1*
X4520798Y188332D1*
X4525627Y193161D1*
X4535398Y197991D1*
X4554827D1*
X4564485Y193161D1*
X4569314Y188332D1*
X4574256Y178561D1*
Y168903D1*
X4569314Y159132D1*
X4559656Y144645D1*
X4511027Y96015D1*
X4579085D1*
X4615287Y105786D2*
X4610458Y100845D1*
X4615287Y96015D1*
X4620229Y100845D1*
X4615287Y105786D1*
X4651601Y178561D2*
X4661372Y183503D1*
X4675972Y197991D1*
Y96015D1*
X4765632Y197991D2*
X4717115D1*
X4712286Y154303D1*
X4717115Y159132D1*
X4731715Y164074D1*
X4746203D1*
X4760803Y159132D1*
X4770574Y149474D1*
X4775403Y134874D1*
Y125215D1*
X4770574Y110615D1*
X4760803Y100845D1*
X4746203Y96015D1*
X4731715D1*
X4717115Y100845D1*
X4712286Y105786D1*
X4707344Y115445D1*
X3482386Y-552009D2*
X3433869D1*
X3429040Y-595697D1*
X3433869Y-590868D1*
X3448469Y-585926D1*
X3462957D1*
X3477557Y-590868D1*
X3487328Y-600526D1*
X3492157Y-615126D1*
Y-624785D1*
X3487328Y-639385D1*
X3477557Y-649155D1*
X3462957Y-653985D1*
X3448469D1*
X3433869Y-649155D1*
X3429040Y-644214D1*
X3424098Y-634555D1*
X3552729Y-552009D2*
X3538129Y-556839D1*
X3528359Y-571439D1*
X3523529Y-595697D1*
Y-610297D1*
X3528359Y-634555D1*
X3538129Y-649155D1*
X3552729Y-653985D1*
X3562388D1*
X3576988Y-649155D1*
X3586646Y-634555D1*
X3591588Y-610297D1*
Y-595697D1*
X3586646Y-571439D1*
X3576988Y-556839D1*
X3562388Y-552009D1*
X3552729D1*
X3586646Y-571439D2*
X3528359Y-634555D1*
X3470313Y18096015D2*
Y18197991D1*
X3421684Y18130045D1*
X3494571D1*
X3530886Y18173732D2*
Y18178561D1*
X3535715Y18188332D1*
X3540544Y18193161D1*
X3550315Y18197991D1*
X3569744D1*
X3579402Y18193161D1*
X3584232Y18188332D1*
X3589173Y18178561D1*
Y18168903D1*
X3584232Y18159132D1*
X3574573Y18144645D1*
X3525944Y18096015D1*
X3594002D1*
X1220029D2*
Y18197991D1*
X1171399Y18130045D1*
X1244287D1*
X5820029Y18096015D2*
Y18197991D1*
X5771399Y18130045D1*
X5844287D1*
X6257991Y17001702D2*
Y16948356D1*
X6219132Y16977444D1*
Y16962844D1*
X6214303Y16953186D1*
X6209474Y16948356D1*
X6194874Y16943415D1*
X6185215D1*
X6170615Y16948356D1*
X6160845Y16958015D1*
X6156015Y16972615D1*
Y16987215D1*
X6160845Y17001702D1*
X6165786Y17006532D1*
X6175445Y17011473D1*
X6165786Y16907213D2*
X6160845Y16912042D1*
X6156015Y16907213D1*
X6160845Y16902271D1*
X6165786Y16907213D1*
X6233732Y16865957D2*
X6238561D1*
X6248332Y16861128D1*
X6253161Y16856299D1*
X6257991Y16846528D1*
Y16827099D1*
X6253161Y16817440D1*
X6248332Y16812611D1*
X6238561Y16807670D1*
X6228903D1*
X6219132Y16812611D1*
X6204645Y16822270D1*
X6156015Y16870899D1*
Y16802840D1*
X6406015Y17094971D2*
X6507991D1*
X6440045Y17143601D1*
Y17070713D1*
M02*
