G04 DipTrace 5.2.0.4*
G04 TopDimension.gbr*
%MOMM*%
G04 #@! TF.FileFunction,Drawing,Top*
G04 #@! TF.Part,Single*
%ADD15C,0.035*%
%ADD89C,0.15686*%
%FSLAX35Y35*%
G04*
G71*
G90*
G75*
G01*
G04 TopDimension*
%LPD*%
X980000Y2315000D2*
D15*
X730000D1*
X1000000Y17315000D2*
X730000D1*
X780000Y9815000D2*
Y2415000D1*
G36*
Y2315000D2*
X760000Y2415000D1*
X800000D1*
X780000Y2315000D1*
G37*
Y9815000D2*
D15*
Y17215000D1*
G36*
Y17315000D2*
X800000Y17215000D1*
X760000D1*
X780000Y17315000D1*
G37*
X1000000Y2315000D2*
D15*
Y-485000D1*
X5960000Y2315000D2*
Y-485000D1*
X3480000Y-435000D2*
X1100000D1*
G36*
X1000000D2*
X1100000Y-415000D1*
Y-455000D1*
X1000000Y-435000D1*
G37*
X3480000D2*
D15*
X5860000D1*
G36*
X5960000D2*
X5860000Y-455000D1*
Y-415000D1*
X5960000Y-435000D1*
G37*
X1000000Y2315000D2*
D15*
X730000D1*
X1815000Y1000000D2*
X730000D1*
X780000Y1657500D2*
Y2215000D1*
G36*
Y2315000D2*
X800000Y2215000D1*
X760000D1*
X780000Y2315000D1*
G37*
Y1657500D2*
D15*
Y1100000D1*
G36*
Y1000000D2*
X760000Y1100000D1*
X800000D1*
X780000Y1000000D1*
G37*
X1815000D2*
D15*
X430000D1*
X1000000Y17315000D2*
X430000D1*
X480000Y9157500D2*
Y1100000D1*
G36*
Y1000000D2*
X460000Y1100000D1*
X500000D1*
X480000Y1000000D1*
G37*
Y9157500D2*
D15*
Y17215000D1*
G36*
Y17315000D2*
X500000Y17215000D1*
X460000D1*
X480000Y17315000D1*
G37*
X1000000Y2315000D2*
D15*
Y-235000D1*
X1765000Y2315000D2*
Y-235000D1*
X1382500Y-185000D2*
X1100000D1*
G36*
X1000000D2*
X1100000Y-165000D1*
Y-205000D1*
X1000000Y-185000D1*
G37*
X1382500D2*
D15*
X1665000D1*
G36*
X1765000D2*
X1665000Y-205000D1*
Y-165000D1*
X1765000Y-185000D1*
G37*
Y1050000D2*
D15*
Y-235000D1*
X5195000Y1050000D2*
Y-235000D1*
X3480000Y-185000D2*
X1865000D1*
G36*
X1765000D2*
X1865000Y-165000D1*
Y-205000D1*
X1765000Y-185000D1*
G37*
X3480000D2*
D15*
X5095000D1*
G36*
X5195000D2*
X5095000Y-205000D1*
Y-165000D1*
X5195000Y-185000D1*
G37*
Y1050000D2*
D15*
Y-235000D1*
X5960000Y2315000D2*
Y-235000D1*
X5577500Y-185000D2*
X5295000D1*
G36*
X5195000D2*
X5295000Y-165000D1*
Y-205000D1*
X5195000Y-185000D1*
G37*
X5577500D2*
D15*
X5860000D1*
G36*
X5960000D2*
X5860000Y-205000D1*
Y-165000D1*
X5960000Y-185000D1*
G37*
X3480000Y9640000D2*
D15*
X6280000D1*
X3480000Y7390000D2*
X6280000D1*
X6230000Y8515000D2*
Y9540000D1*
G36*
Y9640000D2*
X6250000Y9540000D1*
X6210000D1*
X6230000Y9640000D1*
G37*
Y8515000D2*
D15*
Y7490000D1*
G36*
Y7390000D2*
X6210000Y7490000D1*
X6250000D1*
X6230000Y7390000D1*
G37*
X3480000Y9640000D2*
D15*
X6280000D1*
X3480000Y11890000D2*
X6280000D1*
X6230000Y10765000D2*
Y9740000D1*
G36*
Y9640000D2*
X6210000Y9740000D1*
X6250000D1*
X6230000Y9640000D1*
G37*
Y10765000D2*
D15*
Y11790000D1*
G36*
Y11890000D2*
X6250000Y11790000D1*
X6210000D1*
X6230000Y11890000D1*
G37*
X3480000Y9640000D2*
D15*
X6530000D1*
X4580000Y14390000D2*
X6530000D1*
X6480000Y12015000D2*
Y9740000D1*
G36*
Y9640000D2*
X6460000Y9740000D1*
X6500000D1*
X6480000Y9640000D1*
G37*
Y12015000D2*
D15*
Y14290000D1*
G36*
Y14390000D2*
X6500000Y14290000D1*
X6460000D1*
X6480000Y14390000D1*
G37*
X3480000Y9640000D2*
D15*
X6530000D1*
X4580000Y4890000D2*
X6530000D1*
X6480000Y7265000D2*
Y9540000D1*
G36*
Y9640000D2*
X6500000Y9540000D1*
X6460000D1*
X6480000Y9640000D1*
G37*
Y7265000D2*
D15*
Y4990000D1*
G36*
Y4890000D2*
X6460000Y4990000D1*
X6500000D1*
X6480000Y4890000D1*
G37*
X4580000Y14390000D2*
D15*
X6780000D1*
X4580000Y4890000D2*
X6780000D1*
X6730000Y9640000D2*
Y14290000D1*
G36*
Y14390000D2*
X6750000Y14290000D1*
X6710000D1*
X6730000Y14390000D1*
G37*
Y9640000D2*
D15*
Y4990000D1*
G36*
Y4890000D2*
X6710000Y4990000D1*
X6750000D1*
X6730000Y4890000D1*
G37*
X4580000Y14390000D2*
D15*
Y17865000D1*
X2380000Y14390000D2*
Y17865000D1*
X3480000Y17815000D2*
X4480000D1*
G36*
X4580000D2*
X4480000Y17795000D1*
Y17835000D1*
X4580000Y17815000D1*
G37*
X3480000D2*
D15*
X2480000D1*
G36*
X2380000D2*
X2480000Y17835000D1*
Y17795000D1*
X2380000Y17815000D1*
G37*
X3480000Y11890000D2*
D15*
Y17615000D1*
X2380000Y14390000D2*
Y17615000D1*
X2930000Y17565000D2*
X3380000D1*
G36*
X3480000D2*
X3380000Y17545000D1*
Y17585000D1*
X3480000Y17565000D1*
G37*
X2930000D2*
D15*
X2480000D1*
G36*
X2380000D2*
X2480000Y17585000D1*
Y17545000D1*
X2380000Y17565000D1*
G37*
X4580000Y14390000D2*
D15*
Y17615000D1*
X3480000Y11890000D2*
Y17615000D1*
X4030000Y17565000D2*
X4480000D1*
G36*
X4580000D2*
X4480000Y17545000D1*
Y17585000D1*
X4580000Y17565000D1*
G37*
X4030000D2*
D15*
X3580000D1*
G36*
X3480000D2*
X3580000Y17585000D1*
Y17545000D1*
X3480000Y17565000D1*
G37*
Y7390000D2*
D15*
Y265000D1*
X5960000Y2315000D2*
Y265000D1*
X4720000Y315000D2*
X3580000D1*
G36*
X3480000D2*
X3580000Y335000D1*
Y295000D1*
X3480000Y315000D1*
G37*
X4720000D2*
D15*
X5860000D1*
G36*
X5960000D2*
X5860000Y295000D1*
Y335000D1*
X5960000Y315000D1*
G37*
X1000000Y2315000D2*
D15*
Y265000D1*
X3480000Y7390000D2*
Y265000D1*
X2240000Y315000D2*
X1100000D1*
G36*
X1000000D2*
X1100000Y335000D1*
Y295000D1*
X1000000Y315000D1*
G37*
X2240000D2*
D15*
X3380000D1*
G36*
X3480000D2*
X3380000Y295000D1*
Y335000D1*
X3480000Y315000D1*
G37*
X1765000Y2315000D2*
D15*
Y15000D1*
X3980000Y1840000D2*
Y15000D1*
X2872500Y65000D2*
X1865000D1*
G36*
X1765000D2*
X1865000Y85000D1*
Y45000D1*
X1765000Y65000D1*
G37*
X2872500D2*
D15*
X3880000D1*
G36*
X3980000D2*
X3880000Y45000D1*
Y85000D1*
X3980000Y65000D1*
G37*
Y1840000D2*
D15*
Y15000D1*
X5195000Y2315000D2*
Y15000D1*
X4587500Y65000D2*
X4080000D1*
G36*
X3980000D2*
X4080000Y85000D1*
Y45000D1*
X3980000Y65000D1*
G37*
X4587500D2*
D15*
X5095000D1*
G36*
X5195000D2*
X5095000Y45000D1*
Y85000D1*
X5195000Y65000D1*
G37*
X666439Y9711227D2*
D89*
X661497Y9720998D1*
X647009Y9735598D1*
X748985D1*
X647009Y9825258D2*
Y9776741D1*
X690697Y9771912D1*
X685868Y9776741D1*
X680926Y9791341D1*
Y9805829D1*
X685868Y9820429D1*
X695526Y9830199D1*
X710126Y9835029D1*
X719785D1*
X734385Y9830199D1*
X744155Y9820429D1*
X748985Y9805829D1*
Y9791341D1*
X744155Y9776741D1*
X739214Y9771912D1*
X729555Y9766970D1*
X647009Y9895601D2*
X651839Y9881001D1*
X666439Y9871230D1*
X690697Y9866401D1*
X705297D1*
X729555Y9871230D1*
X744155Y9881001D1*
X748985Y9895601D1*
Y9905260D1*
X744155Y9919860D1*
X729555Y9929518D1*
X705297Y9934460D1*
X690697D1*
X666439Y9929518D1*
X651839Y9919860D1*
X647009Y9905260D1*
Y9895601D1*
X666439Y9929518D2*
X729555Y9871230D1*
X3384911Y-403985D2*
Y-302009D1*
X3336282Y-369955D1*
X3409170D1*
X3503771Y-335926D2*
X3498830Y-350526D1*
X3489171Y-360297D1*
X3474571Y-365126D1*
X3469742D1*
X3455142Y-360297D1*
X3445484Y-350526D1*
X3440542Y-335926D1*
Y-331097D1*
X3445484Y-316497D1*
X3455142Y-306839D1*
X3469742Y-302009D1*
X3474571D1*
X3489171Y-306839D1*
X3498830Y-316497D1*
X3503771Y-335926D1*
Y-360297D1*
X3498830Y-384555D1*
X3489171Y-399155D1*
X3474571Y-403985D1*
X3464913D1*
X3450313Y-399155D1*
X3445484Y-389385D1*
X3539973Y-394214D2*
X3535144Y-399155D1*
X3539973Y-403985D1*
X3544915Y-399155D1*
X3539973Y-394214D1*
X3634575Y-316497D2*
X3629746Y-306839D1*
X3615146Y-302009D1*
X3605487D1*
X3590887Y-306839D1*
X3581117Y-321439D1*
X3576287Y-345697D1*
Y-369955D1*
X3581117Y-389385D1*
X3590887Y-399155D1*
X3605487Y-403985D1*
X3610317D1*
X3624804Y-399155D1*
X3634575Y-389385D1*
X3639404Y-374785D1*
Y-369955D1*
X3634575Y-355355D1*
X3624804Y-345697D1*
X3610317Y-340868D1*
X3605487D1*
X3590887Y-345697D1*
X3581117Y-355355D1*
X3576287Y-369955D1*
X666439Y1505283D2*
X661497Y1515054D1*
X647009Y1529654D1*
X748985D1*
X647009Y1570798D2*
Y1624144D1*
X685868Y1595056D1*
Y1609656D1*
X690697Y1619314D1*
X695526Y1624144D1*
X710126Y1629085D1*
X719785D1*
X734385Y1624144D1*
X744155Y1614485D1*
X748985Y1599885D1*
Y1585285D1*
X744155Y1570798D1*
X739214Y1565968D1*
X729555Y1561027D1*
X739214Y1665287D2*
X744155Y1660458D1*
X748985Y1665287D1*
X744155Y1670229D1*
X739214Y1665287D1*
X666439Y1701601D2*
X661497Y1711372D1*
X647009Y1725972D1*
X748985D1*
X647009Y1815632D2*
Y1767115D1*
X690697Y1762286D1*
X685868Y1767115D1*
X680926Y1781715D1*
Y1796203D1*
X685868Y1810803D1*
X695526Y1820574D1*
X710126Y1825403D1*
X719785D1*
X734385Y1820574D1*
X744155Y1810803D1*
X748985Y1796203D1*
Y1781715D1*
X744155Y1767115D1*
X739214Y1762286D1*
X729555Y1757344D1*
X366439Y8958039D2*
X361497Y8967809D1*
X347009Y8982409D1*
X448985D1*
X361497Y9072070D2*
X351839Y9067240D1*
X347009Y9052640D1*
Y9042982D1*
X351839Y9028382D1*
X366439Y9018611D1*
X390697Y9013782D1*
X414955D1*
X434385Y9018611D1*
X444155Y9028382D1*
X448985Y9042982D1*
Y9047811D1*
X444155Y9062299D1*
X434385Y9072070D1*
X419785Y9076899D1*
X414955D1*
X400355Y9072070D1*
X390697Y9062299D1*
X385868Y9047811D1*
Y9042982D1*
X390697Y9028382D1*
X400355Y9018611D1*
X414955Y9013782D1*
X347009Y9118042D2*
Y9171388D1*
X385868Y9142301D1*
Y9156901D1*
X390697Y9166559D1*
X395526Y9171388D1*
X410126Y9176330D1*
X419785D1*
X434385Y9171388D1*
X444155Y9161730D1*
X448985Y9147130D1*
Y9132530D1*
X444155Y9118042D1*
X439214Y9113213D1*
X429555Y9108271D1*
X439214Y9212532D2*
X444155Y9207702D1*
X448985Y9212532D1*
X444155Y9217473D1*
X439214Y9212532D1*
X366439Y9248846D2*
X361497Y9258617D1*
X347009Y9273217D1*
X448985D1*
X347009Y9362877D2*
Y9314360D1*
X390697Y9309531D1*
X385868Y9314360D1*
X380926Y9328960D1*
Y9343448D1*
X385868Y9358048D1*
X395526Y9367818D1*
X410126Y9372648D1*
X419785D1*
X434385Y9367818D1*
X444155Y9358048D1*
X448985Y9343448D1*
Y9328960D1*
X444155Y9314360D1*
X439214Y9309531D1*
X429555Y9304589D1*
X1258211Y-153985D2*
X1306840Y-52009D1*
X1238782D1*
X1343042Y-144214D2*
X1338213Y-149155D1*
X1343042Y-153985D1*
X1347984Y-149155D1*
X1343042Y-144214D1*
X1437644Y-66497D2*
X1432815Y-56839D1*
X1418215Y-52009D1*
X1408556D1*
X1393956Y-56839D1*
X1384186Y-71439D1*
X1379356Y-95697D1*
Y-119955D1*
X1384186Y-139385D1*
X1393956Y-149155D1*
X1408556Y-153985D1*
X1413386D1*
X1427873Y-149155D1*
X1437644Y-139385D1*
X1442473Y-124785D1*
Y-119955D1*
X1437644Y-105355D1*
X1427873Y-95697D1*
X1413386Y-90868D1*
X1408556D1*
X1393956Y-95697D1*
X1384186Y-105355D1*
X1379356Y-119955D1*
X1532133Y-52009D2*
X1483617D1*
X1478787Y-95697D1*
X1483617Y-90868D1*
X1498217Y-85926D1*
X1512704D1*
X1527304Y-90868D1*
X1537075Y-100526D1*
X1541904Y-115126D1*
Y-124785D1*
X1537075Y-139385D1*
X1527304Y-149155D1*
X1512704Y-153985D1*
X1498217D1*
X1483617Y-149155D1*
X1478787Y-144214D1*
X1473846Y-134555D1*
X3341167Y-52009D2*
X3394514D1*
X3365426Y-90868D1*
X3380026D1*
X3389684Y-95697D1*
X3394514Y-100526D1*
X3399455Y-115126D1*
Y-124785D1*
X3394514Y-139385D1*
X3384855Y-149155D1*
X3370255Y-153985D1*
X3355655D1*
X3341167Y-149155D1*
X3336338Y-144214D1*
X3331397Y-134555D1*
X3479457Y-153985D2*
Y-52009D1*
X3430828Y-119955D1*
X3503715D1*
X3539917Y-144214D2*
X3535088Y-149155D1*
X3539917Y-153985D1*
X3544859Y-149155D1*
X3539917Y-144214D1*
X3586002Y-52009D2*
X3639348D1*
X3610260Y-90868D1*
X3624860D1*
X3634519Y-95697D1*
X3639348Y-100526D1*
X3644290Y-115126D1*
Y-124785D1*
X3639348Y-139385D1*
X3629690Y-149155D1*
X3615090Y-153985D1*
X3600490D1*
X3586002Y-149155D1*
X3581173Y-144214D1*
X3576231Y-134555D1*
X5453211Y-153985D2*
X5501840Y-52009D1*
X5433782D1*
X5538042Y-144214D2*
X5533213Y-149155D1*
X5538042Y-153985D1*
X5542984Y-149155D1*
X5538042Y-144214D1*
X5632644Y-66497D2*
X5627815Y-56839D1*
X5613215Y-52009D1*
X5603556D1*
X5588956Y-56839D1*
X5579186Y-71439D1*
X5574356Y-95697D1*
Y-119955D1*
X5579186Y-139385D1*
X5588956Y-149155D1*
X5603556Y-153985D1*
X5608386D1*
X5622873Y-149155D1*
X5632644Y-139385D1*
X5637473Y-124785D1*
Y-119955D1*
X5632644Y-105355D1*
X5622873Y-95697D1*
X5608386Y-90868D1*
X5603556D1*
X5588956Y-95697D1*
X5579186Y-105355D1*
X5574356Y-119955D1*
X5727133Y-52009D2*
X5678617D1*
X5673787Y-95697D1*
X5678617Y-90868D1*
X5693217Y-85926D1*
X5707704D1*
X5722304Y-90868D1*
X5732075Y-100526D1*
X5736904Y-115126D1*
Y-124785D1*
X5732075Y-139385D1*
X5722304Y-149155D1*
X5707704Y-153985D1*
X5693217D1*
X5678617Y-149155D1*
X5673787Y-144214D1*
X5668846Y-134555D1*
X6338732Y8656247D2*
X6343561D1*
X6353332Y8651418D1*
X6358161Y8646589D1*
X6362991Y8636818D1*
Y8617389D1*
X6358161Y8607730D1*
X6353332Y8602901D1*
X6343561Y8597960D1*
X6333903D1*
X6324132Y8602901D1*
X6309645Y8612560D1*
X6261015Y8661189D1*
Y8593130D1*
X6338732Y8556816D2*
X6343561D1*
X6353332Y8551987D1*
X6358161Y8547158D1*
X6362991Y8537387D1*
Y8517958D1*
X6358161Y8508299D1*
X6353332Y8503470D1*
X6343561Y8498529D1*
X6333903D1*
X6324132Y8503470D1*
X6309645Y8513129D1*
X6261015Y8561758D1*
Y8493699D1*
X6270786Y8457498D2*
X6265845Y8462327D1*
X6261015Y8457498D1*
X6265845Y8452556D1*
X6270786Y8457498D1*
X6362991Y8362896D2*
Y8411413D1*
X6319303Y8416242D1*
X6324132Y8411413D1*
X6329074Y8396813D1*
Y8382325D1*
X6324132Y8367725D1*
X6314474Y8357954D1*
X6299874Y8353125D1*
X6290215D1*
X6275615Y8357954D1*
X6265845Y8367725D1*
X6261015Y8382325D1*
Y8396813D1*
X6265845Y8411413D1*
X6270786Y8416242D1*
X6280445Y8421183D1*
X6338732Y10906247D2*
X6343561D1*
X6353332Y10901418D1*
X6358161Y10896589D1*
X6362991Y10886818D1*
Y10867389D1*
X6358161Y10857730D1*
X6353332Y10852901D1*
X6343561Y10847960D1*
X6333903D1*
X6324132Y10852901D1*
X6309645Y10862560D1*
X6261015Y10911189D1*
Y10843130D1*
X6338732Y10806816D2*
X6343561D1*
X6353332Y10801987D1*
X6358161Y10797158D1*
X6362991Y10787387D1*
Y10767958D1*
X6358161Y10758299D1*
X6353332Y10753470D1*
X6343561Y10748529D1*
X6333903D1*
X6324132Y10753470D1*
X6309645Y10763129D1*
X6261015Y10811758D1*
Y10743699D1*
X6270786Y10707498D2*
X6265845Y10712327D1*
X6261015Y10707498D1*
X6265845Y10702556D1*
X6270786Y10707498D1*
X6362991Y10612896D2*
Y10661413D1*
X6319303Y10666242D1*
X6324132Y10661413D1*
X6329074Y10646813D1*
Y10632325D1*
X6324132Y10617725D1*
X6314474Y10607954D1*
X6299874Y10603125D1*
X6290215D1*
X6275615Y10607954D1*
X6265845Y10617725D1*
X6261015Y10632325D1*
Y10646813D1*
X6265845Y10661413D1*
X6270786Y10666242D1*
X6280445Y10671183D1*
X6511015Y12114974D2*
X6612991D1*
X6545045Y12163603D1*
Y12090716D1*
X6511015Y12039914D2*
X6612991Y11991285D1*
Y12059343D1*
X6520786Y11955083D2*
X6515845Y11959912D1*
X6511015Y11955083D1*
X6515845Y11950141D1*
X6520786Y11955083D1*
X6612991Y11860481D2*
Y11908998D1*
X6569303Y11913827D1*
X6574132Y11908998D1*
X6579074Y11894398D1*
Y11879910D1*
X6574132Y11865310D1*
X6564474Y11855540D1*
X6549874Y11850710D1*
X6540215D1*
X6525615Y11855540D1*
X6515845Y11865310D1*
X6511015Y11879910D1*
Y11894398D1*
X6515845Y11908998D1*
X6520786Y11913827D1*
X6530445Y11918769D1*
X6511015Y7364974D2*
X6612991D1*
X6545045Y7413603D1*
Y7340716D1*
X6511015Y7289914D2*
X6612991Y7241285D1*
Y7309343D1*
X6520786Y7205083D2*
X6515845Y7209912D1*
X6511015Y7205083D1*
X6515845Y7200141D1*
X6520786Y7205083D1*
X6612991Y7110481D2*
Y7158998D1*
X6569303Y7163827D1*
X6574132Y7158998D1*
X6579074Y7144398D1*
Y7129910D1*
X6574132Y7115310D1*
X6564474Y7105540D1*
X6549874Y7100710D1*
X6540215D1*
X6525615Y7105540D1*
X6515845Y7115310D1*
X6511015Y7129910D1*
Y7144398D1*
X6515845Y7158998D1*
X6520786Y7163827D1*
X6530445Y7168769D1*
X6829074Y9650258D2*
X6814474Y9655199D1*
X6804703Y9664858D1*
X6799874Y9679458D1*
Y9684287D1*
X6804703Y9698887D1*
X6814474Y9708545D1*
X6829074Y9713487D1*
X6833903D1*
X6848503Y9708545D1*
X6858161Y9698887D1*
X6862991Y9684287D1*
Y9679458D1*
X6858161Y9664858D1*
X6848503Y9655199D1*
X6829074Y9650258D1*
X6804703D1*
X6780445Y9655199D1*
X6765845Y9664858D1*
X6761015Y9679458D1*
Y9689116D1*
X6765845Y9703716D1*
X6775615Y9708545D1*
X6862991Y9560598D2*
Y9609114D1*
X6819303Y9613944D1*
X6824132Y9609114D1*
X6829074Y9594514D1*
Y9580027D1*
X6824132Y9565427D1*
X6814474Y9555656D1*
X6799874Y9550827D1*
X6790215D1*
X6775615Y9555656D1*
X6765845Y9565427D1*
X6761015Y9580027D1*
Y9594514D1*
X6765845Y9609114D1*
X6770786Y9613944D1*
X6780445Y9618885D1*
X3409040Y17923732D2*
Y17928561D1*
X3413869Y17938332D1*
X3418698Y17943161D1*
X3428469Y17947991D1*
X3447898D1*
X3457557Y17943161D1*
X3462386Y17938332D1*
X3467328Y17928561D1*
Y17918903D1*
X3462386Y17909132D1*
X3452728Y17894645D1*
X3404098Y17846015D1*
X3472157D1*
X3508471Y17923732D2*
Y17928561D1*
X3513300Y17938332D1*
X3518129Y17943161D1*
X3527900Y17947991D1*
X3547329D1*
X3556988Y17943161D1*
X3561817Y17938332D1*
X3566759Y17928561D1*
Y17918903D1*
X3561817Y17909132D1*
X3552159Y17894645D1*
X3503529Y17846015D1*
X3571588D1*
X2897786Y17678561D2*
X2907557Y17683503D1*
X2922157Y17697991D1*
Y17596015D1*
X2953529Y17678561D2*
X2963300Y17683503D1*
X2977900Y17697991D1*
Y17596015D1*
X3997786Y17678561D2*
X4007557Y17683503D1*
X4022157Y17697991D1*
Y17596015D1*
X4053529Y17678561D2*
X4063300Y17683503D1*
X4077900Y17697991D1*
Y17596015D1*
X4576394Y423732D2*
Y428561D1*
X4581224Y438332D1*
X4586053Y443161D1*
X4595824Y447991D1*
X4615253D1*
X4624911Y443161D1*
X4629740Y438332D1*
X4634682Y428561D1*
Y418903D1*
X4629740Y409132D1*
X4620082Y394645D1*
X4571453Y346015D1*
X4639511D1*
X4719513D2*
Y447991D1*
X4670884Y380045D1*
X4743771D1*
X4779973Y355786D2*
X4775144Y350845D1*
X4779973Y346015D1*
X4784915Y350845D1*
X4779973Y355786D1*
X4840546Y447991D2*
X4826058Y443161D1*
X4821117Y433503D1*
Y423732D1*
X4826058Y414074D1*
X4835717Y409132D1*
X4855146Y404303D1*
X4869746Y399474D1*
X4879404Y389703D1*
X4884233Y380045D1*
Y365445D1*
X4879404Y355786D1*
X4874575Y350845D1*
X4859975Y346015D1*
X4840546D1*
X4826058Y350845D1*
X4821117Y355786D1*
X4816287Y365445D1*
Y380045D1*
X4821117Y389703D1*
X4830887Y399474D1*
X4845375Y404303D1*
X4864804Y409132D1*
X4874575Y414074D1*
X4879404Y423732D1*
Y433503D1*
X4874575Y443161D1*
X4859975Y447991D1*
X4840546D1*
X2096394Y423732D2*
Y428561D1*
X2101224Y438332D1*
X2106053Y443161D1*
X2115824Y447991D1*
X2135253D1*
X2144911Y443161D1*
X2149740Y438332D1*
X2154682Y428561D1*
Y418903D1*
X2149740Y409132D1*
X2140082Y394645D1*
X2091453Y346015D1*
X2159511D1*
X2239513D2*
Y447991D1*
X2190884Y380045D1*
X2263771D1*
X2299973Y355786D2*
X2295144Y350845D1*
X2299973Y346015D1*
X2304915Y350845D1*
X2299973Y355786D1*
X2360546Y447991D2*
X2346058Y443161D1*
X2341117Y433503D1*
Y423732D1*
X2346058Y414074D1*
X2355717Y409132D1*
X2375146Y404303D1*
X2389746Y399474D1*
X2399404Y389703D1*
X2404233Y380045D1*
Y365445D1*
X2399404Y355786D1*
X2394575Y350845D1*
X2379975Y346015D1*
X2360546D1*
X2346058Y350845D1*
X2341117Y355786D1*
X2336287Y365445D1*
Y380045D1*
X2341117Y389703D1*
X2350887Y399474D1*
X2365375Y404303D1*
X2384804Y409132D1*
X2394575Y414074D1*
X2399404Y423732D1*
Y433503D1*
X2394575Y443161D1*
X2379975Y447991D1*
X2360546D1*
X2703381Y173732D2*
Y178561D1*
X2708210Y188332D1*
X2713040Y193161D1*
X2722810Y197991D1*
X2742240D1*
X2751898Y193161D1*
X2756727Y188332D1*
X2761669Y178561D1*
Y168903D1*
X2756727Y159132D1*
X2747069Y144645D1*
X2698440Y96015D1*
X2766498D1*
X2802812Y173732D2*
Y178561D1*
X2807641Y188332D1*
X2812471Y193161D1*
X2822241Y197991D1*
X2841671D1*
X2851329Y193161D1*
X2856158Y188332D1*
X2861100Y178561D1*
Y168903D1*
X2856158Y159132D1*
X2846500Y144645D1*
X2797871Y96015D1*
X2865929D1*
X2902131Y105786D2*
X2897302Y100845D1*
X2902131Y96015D1*
X2907072Y100845D1*
X2902131Y105786D1*
X2938445Y178561D2*
X2948216Y183503D1*
X2962816Y197991D1*
Y96015D1*
X3052476Y197991D2*
X3003959D1*
X2999130Y154303D1*
X3003959Y159132D1*
X3018559Y164074D1*
X3033047D1*
X3047647Y159132D1*
X3057417Y149474D1*
X3062247Y134874D1*
Y125215D1*
X3057417Y110615D1*
X3047647Y100845D1*
X3033047Y96015D1*
X3018559D1*
X3003959Y100845D1*
X2999130Y105786D1*
X2994188Y115445D1*
X4435283Y178561D2*
X4445054Y183503D1*
X4459654Y197991D1*
Y96015D1*
X4495968Y173732D2*
Y178561D1*
X4500798Y188332D1*
X4505627Y193161D1*
X4515398Y197991D1*
X4534827D1*
X4544485Y193161D1*
X4549314Y188332D1*
X4554256Y178561D1*
Y168903D1*
X4549314Y159132D1*
X4539656Y144645D1*
X4491027Y96015D1*
X4559085D1*
X4595287Y105786D2*
X4590458Y100845D1*
X4595287Y96015D1*
X4600229Y100845D1*
X4595287Y105786D1*
X4631601Y178561D2*
X4641372Y183503D1*
X4655972Y197991D1*
Y96015D1*
X4745632Y197991D2*
X4697115D1*
X4692286Y154303D1*
X4697115Y159132D1*
X4711715Y164074D1*
X4726203D1*
X4740803Y159132D1*
X4750574Y149474D1*
X4755403Y134874D1*
Y125215D1*
X4750574Y110615D1*
X4740803Y100845D1*
X4726203Y96015D1*
X4711715D1*
X4697115Y100845D1*
X4692286Y105786D1*
X4687344Y115445D1*
M02*
