G04 DipTrace 5.2.0.4*
G04 TopSilk.gbr*
%MOMM*%
G04 #@! TF.FileFunction,Legend,Top*
G04 #@! TF.Part,Single*
%ADD10C,0.1*%
%ADD13C,0.12*%
%ADD17C,0.25*%
%ADD24C,0.5*%
%ADD28C,0.15*%
%ADD36C,0.127*%
%ADD51C,0.125*%
%ADD88C,0.16667*%
%ADD89C,0.22222*%
%FSLAX35Y35*%
G04*
G71*
G90*
G75*
G01*
G04 TopSilk*
%LPD*%
X2559998Y15837003D2*
D13*
X2560002Y15693003D1*
X2289998Y15836997D2*
X2290002Y15692997D1*
X3135500Y7904000D2*
Y7876000D1*
X3039500Y7904000D2*
Y7876000D1*
X3473000Y7904000D2*
Y7876000D1*
X3377000Y7904000D2*
Y7876000D1*
X2464500Y4753000D2*
Y4777000D1*
X2610500Y4753000D2*
Y4777000D1*
X3239001Y4817000D2*
X3211001D1*
X3238999Y4913000D2*
X3210999D1*
X1777001Y15750998D2*
X1776999Y15778998D1*
X1873001Y15751002D2*
X1872999Y15779002D1*
X2839002Y4817001D2*
X2811002Y4816999D1*
X2838998Y4913001D2*
X2810998Y4912999D1*
X3039500Y7382249D2*
Y7410249D1*
X3135500Y7382251D2*
Y7410251D1*
X1565978Y7074996D2*
X1039978Y7074978D1*
X1040013Y6019978D1*
X1304022Y5754987D1*
X1566022Y5754996D1*
X1833978Y7075004D2*
X2359978Y7075022D1*
X2360013Y6020022D1*
X2096022Y5755013D1*
X1834022Y5755004D1*
X1025000Y6415000D2*
G02X1025000Y6415000I675000J0D01*
G01*
G36*
X2232722Y5907316D2*
X2232508Y5904053D1*
X2231870Y5900846D1*
X2230819Y5897749D1*
X2229373Y5894816D1*
X2227556Y5892097D1*
X2225400Y5889638D1*
X2222942Y5887482D1*
X2220223Y5885665D1*
X2217290Y5884219D1*
X2214193Y5883167D1*
X2210986Y5882529D1*
X2207723Y5882315D1*
X2204460Y5882529D1*
X2201252Y5883167D1*
X2198156Y5884218D1*
X2195223Y5885664D1*
X2192504Y5887481D1*
X2190045Y5889637D1*
X2187889Y5892096D1*
X2186072Y5894815D1*
X2184625Y5897747D1*
X2183574Y5900844D1*
X2182936Y5904051D1*
X2182722Y5907314D1*
D1*
X2182936Y5910578D1*
X2183574Y5913785D1*
X2184625Y5916882D1*
X2186071Y5919815D1*
X2187888Y5922534D1*
X2190044Y5924992D1*
X2192502Y5927149D1*
X2195221Y5928965D1*
X2198154Y5930412D1*
X2201251Y5931463D1*
X2204458Y5932101D1*
X2207721Y5932315D1*
X2210984Y5932102D1*
X2214192Y5931464D1*
X2217288Y5930413D1*
X2220221Y5928966D1*
X2222940Y5927150D1*
X2225399Y5924994D1*
X2227555Y5922535D1*
X2229372Y5919816D1*
X2230819Y5916883D1*
X2231870Y5913787D1*
X2232508Y5910579D1*
X2232722Y5907316D1*
D1*
G37*
X1834017Y4105003D2*
D13*
X2360017Y4105017D1*
X2359990Y5160017D1*
X2095983Y5425010D1*
X1833983Y5425003D1*
X1566017Y4104997D2*
X1040017Y4104983D1*
X1039990Y5159983D1*
X1303983Y5424990D1*
X1565983Y5424997D1*
X1562998Y15738000D2*
X1586998D1*
X1563002Y15592000D2*
X1587002D1*
X1562998Y15938000D2*
X1586998D1*
X1563002Y15792000D2*
X1587002D1*
X1025000Y4765000D2*
G02X1025000Y4765000I675000J0D01*
G01*
G36*
X2232722Y4257316D2*
X2232508Y4254053D1*
X2231870Y4250846D1*
X2230819Y4247749D1*
X2229373Y4244816D1*
X2227556Y4242097D1*
X2225400Y4239638D1*
X2222942Y4237482D1*
X2220223Y4235665D1*
X2217290Y4234219D1*
X2214193Y4233167D1*
X2210986Y4232529D1*
X2207723Y4232315D1*
X2204460Y4232529D1*
X2201252Y4233167D1*
X2198156Y4234218D1*
X2195223Y4235664D1*
X2192504Y4237481D1*
X2190045Y4239637D1*
X2187889Y4242096D1*
X2186072Y4244815D1*
X2184625Y4247747D1*
X2183574Y4250844D1*
X2182936Y4254051D1*
X2182722Y4257314D1*
D1*
X2182936Y4260578D1*
X2183574Y4263785D1*
X2184625Y4266882D1*
X2186071Y4269815D1*
X2187888Y4272534D1*
X2190044Y4274992D1*
X2192502Y4277149D1*
X2195221Y4278965D1*
X2198154Y4280412D1*
X2201251Y4281463D1*
X2204458Y4282101D1*
X2207721Y4282315D1*
X2210984Y4282102D1*
X2214192Y4281464D1*
X2217288Y4280413D1*
X2220221Y4278966D1*
X2222940Y4277150D1*
X2225399Y4274994D1*
X2227555Y4272535D1*
X2229372Y4269816D1*
X2230819Y4266883D1*
X2231870Y4263787D1*
X2232508Y4260579D1*
X2232722Y4257316D1*
D1*
G37*
X2840011Y15955947D2*
D13*
X2840053Y15429947D1*
X3895053Y15430032D1*
X4160032Y15694053D1*
X4160011Y15956053D1*
X2839989Y16223947D2*
X2839947Y16749947D1*
X3894947Y16750032D1*
X4159968Y16486053D1*
X4159989Y16224053D1*
X2825000Y16090000D2*
G02X2825000Y16090000I675000J0D01*
G01*
G36*
X3517693Y15354322D2*
X3515234Y15352166D1*
X3512515Y15350349D1*
X3509582Y15348902D1*
X3506485Y15347851D1*
X3503278Y15347213D1*
X3500015Y15346999D1*
X3496752Y15347213D1*
X3493545Y15347851D1*
X3490448Y15348902D1*
X3487515Y15350348D1*
X3484796Y15352165D1*
X3482337Y15354321D1*
X3480181Y15356780D1*
X3478364Y15359499D1*
X3476918Y15362432D1*
X3475866Y15365528D1*
X3475228Y15368735D1*
X3475015Y15371999D1*
X3475228Y15375262D1*
X3475866Y15378469D1*
X3476917Y15381566D1*
X3478364Y15384499D1*
X3480180Y15387218D1*
X3482336Y15389676D1*
D1*
X3484795Y15391833D1*
X3487514Y15393649D1*
X3490447Y15395096D1*
X3493544Y15396147D1*
X3496751Y15396785D1*
X3500014Y15396999D1*
X3503277Y15396785D1*
X3506484Y15396147D1*
X3509581Y15395096D1*
X3512514Y15393650D1*
X3515233Y15391833D1*
X3517692Y15389677D1*
X3519848Y15387218D1*
X3521665Y15384499D1*
X3523111Y15381567D1*
X3524163Y15378470D1*
X3524801Y15375263D1*
X3525015Y15372000D1*
X3524801Y15368736D1*
X3524163Y15365529D1*
X3523112Y15362432D1*
X3521665Y15359499D1*
X3519849Y15356780D1*
X3517693Y15354322D1*
D1*
G37*
X3623000Y7904000D2*
D13*
Y7876000D1*
X3527000Y7904000D2*
Y7876000D1*
X3960500Y7904000D2*
Y7876000D1*
X3864500Y7904000D2*
Y7876000D1*
X4389500Y4752999D2*
Y4776999D1*
X4535500Y4753001D2*
Y4777001D1*
X3761000Y4913000D2*
X3789000D1*
X3761000Y4817000D2*
X3789000D1*
X4160999Y4913000D2*
X4188999D1*
X4161001Y4817000D2*
X4189001D1*
X4360500Y8354000D2*
Y8326000D1*
X4264500Y8354000D2*
Y8326000D1*
X3864500Y7382249D2*
Y7410249D1*
X3960500Y7382251D2*
Y7410251D1*
X5434017Y4105003D2*
X5960017Y4105017D1*
X5959990Y5160017D1*
X5695983Y5425010D1*
X5433983Y5425003D1*
X5166017Y4104997D2*
X4640017Y4104983D1*
X4639990Y5159983D1*
X4903983Y5424990D1*
X5165983Y5424997D1*
X4625000Y4765000D2*
G02X4625000Y4765000I675000J0D01*
G01*
G36*
X4767297Y5272703D2*
X4767511Y5275966D1*
X4768149Y5279174D1*
X4769200Y5282270D1*
X4770646Y5285203D1*
X4772463Y5287922D1*
X4774619Y5290381D1*
X4777078Y5292537D1*
X4779797Y5294354D1*
X4782730Y5295800D1*
X4785826Y5296851D1*
X4789034Y5297489D1*
X4792297Y5297703D1*
X4795560Y5297489D1*
X4798767Y5296851D1*
X4801864Y5295800D1*
X4804797Y5294354D1*
X4807516Y5292537D1*
X4809974Y5290381D1*
X4812131Y5287922D1*
X4813947Y5285203D1*
X4815394Y5282270D1*
X4816445Y5279174D1*
X4817083Y5275966D1*
X4817297Y5272703D1*
D1*
X4817083Y5269440D1*
X4816445Y5266233D1*
X4815394Y5263136D1*
X4813947Y5260203D1*
X4812131Y5257484D1*
X4809974Y5255026D1*
X4807516Y5252869D1*
X4804797Y5251053D1*
X4801864Y5249606D1*
X4798767Y5248555D1*
X4795560Y5247917D1*
X4792297Y5247703D1*
X4789034Y5247917D1*
X4785826Y5248555D1*
X4782730Y5249606D1*
X4779797Y5251053D1*
X4777078Y5252869D1*
X4774619Y5255026D1*
X4772463Y5257484D1*
X4770646Y5260203D1*
X4769200Y5263136D1*
X4768149Y5266233D1*
X4767511Y5269440D1*
X4767297Y5272703D1*
D1*
G37*
X5165978Y7074996D2*
D13*
X4639978Y7074978D1*
X4640013Y6019978D1*
X4904022Y5754987D1*
X5166022Y5754996D1*
X5433978Y7075004D2*
X5959978Y7075022D1*
X5960013Y6020022D1*
X5696022Y5755013D1*
X5434022Y5755004D1*
X4625000Y6415000D2*
G02X4625000Y6415000I675000J0D01*
G01*
G36*
X4767282Y6922688D2*
X4767496Y6925951D1*
X4768133Y6929158D1*
X4769184Y6932255D1*
X4770631Y6935188D1*
X4772447Y6937907D1*
X4774604Y6940366D1*
X4777062Y6942522D1*
X4779781Y6944339D1*
X4782714Y6945785D1*
X4785811Y6946836D1*
X4789018Y6947474D1*
X4792281Y6947688D1*
X4795544Y6947475D1*
X4798752Y6946837D1*
X4801848Y6945786D1*
X4804781Y6944339D1*
X4807500Y6942523D1*
X4809959Y6940367D1*
X4812115Y6937908D1*
X4813932Y6935189D1*
X4815378Y6932256D1*
X4816430Y6929160D1*
X4817068Y6925952D1*
X4817282Y6922689D1*
D1*
X4817068Y6919426D1*
X4816430Y6916219D1*
X4815379Y6913122D1*
X4813933Y6910189D1*
X4812116Y6907470D1*
X4809960Y6905011D1*
X4807501Y6902855D1*
X4804782Y6901038D1*
X4801850Y6899592D1*
X4798753Y6898540D1*
X4795546Y6897902D1*
X4792282Y6897688D1*
X4789019Y6897902D1*
X4785812Y6898540D1*
X4782715Y6899591D1*
X4779782Y6901037D1*
X4777063Y6902854D1*
X4774605Y6905010D1*
X4772448Y6907469D1*
X4770631Y6910188D1*
X4769185Y6913121D1*
X4768134Y6916217D1*
X4767496Y6919425D1*
X4767282Y6922688D1*
D1*
G37*
X4210500Y8354000D2*
D13*
Y8326000D1*
X4114500Y8354000D2*
Y8326000D1*
X4510500Y8354000D2*
Y8326000D1*
X4414500Y8354000D2*
Y8326000D1*
X2789001Y8754500D2*
X2761001D1*
X2788999Y8850500D2*
X2760999D1*
X2789001Y8442000D2*
X2761001D1*
X2788999Y8538000D2*
X2760999D1*
X4440001Y15992998D2*
X4439999Y16136998D1*
X4710001Y15993002D2*
X4709999Y16137002D1*
X5223000Y16079000D2*
Y16051000D1*
X5127000Y16079000D2*
Y16051000D1*
X5437002Y15892000D2*
X5413002D1*
X5436998Y16038000D2*
X5412998D1*
X5437002Y16092000D2*
X5413002D1*
X5436998Y16238000D2*
X5412998D1*
X3864500Y11375999D2*
Y11403999D1*
X3960500Y11376001D2*
Y11404001D1*
X3527000Y11375998D2*
Y11403998D1*
X3623000Y11376002D2*
Y11404002D1*
X4535500Y14527003D2*
Y14503003D1*
X4389500Y14526997D2*
Y14502997D1*
X3773499Y14463000D2*
X3801499D1*
X3773501Y14367000D2*
X3801501D1*
X4198499Y14463000D2*
X4226499D1*
X4198501Y14367000D2*
X4226501D1*
X3960499Y11897752D2*
X3960501Y11869752D1*
X3864499Y11897748D2*
X3864501Y11869748D1*
X5434017Y12205003D2*
X5960017Y12205017D1*
X5959990Y13260017D1*
X5695983Y13525010D1*
X5433983Y13525003D1*
X5166017Y12204997D2*
X4640017Y12204983D1*
X4639990Y13259983D1*
X4903983Y13524990D1*
X5165983Y13524997D1*
X4625000Y12865000D2*
G02X4625000Y12865000I675000J0D01*
G01*
G36*
X4767297Y13372703D2*
X4767511Y13375966D1*
X4768149Y13379174D1*
X4769200Y13382270D1*
X4770646Y13385203D1*
X4772463Y13387922D1*
X4774619Y13390381D1*
X4777078Y13392537D1*
X4779797Y13394354D1*
X4782730Y13395800D1*
X4785826Y13396851D1*
X4789034Y13397489D1*
X4792297Y13397703D1*
X4795560Y13397489D1*
X4798767Y13396851D1*
X4801864Y13395800D1*
X4804797Y13394354D1*
X4807516Y13392537D1*
X4809974Y13390381D1*
X4812131Y13387922D1*
X4813947Y13385203D1*
X4815394Y13382270D1*
X4816445Y13379174D1*
X4817083Y13375966D1*
X4817297Y13372703D1*
D1*
X4817083Y13369440D1*
X4816445Y13366233D1*
X4815394Y13363136D1*
X4813947Y13360203D1*
X4812131Y13357484D1*
X4809974Y13355026D1*
X4807516Y13352869D1*
X4804797Y13351053D1*
X4801864Y13349606D1*
X4798767Y13348555D1*
X4795560Y13347917D1*
X4792297Y13347703D1*
X4789034Y13347917D1*
X4785826Y13348555D1*
X4782730Y13349606D1*
X4779797Y13351053D1*
X4777078Y13352869D1*
X4774619Y13355026D1*
X4772463Y13357484D1*
X4770646Y13360203D1*
X4769200Y13363136D1*
X4768149Y13366233D1*
X4767511Y13369440D1*
X4767297Y13372703D1*
D1*
G37*
X5165988Y15174998D2*
D13*
X4639988Y15174988D1*
X4640007Y14119988D1*
X4904012Y13854993D1*
X5166012Y13854998D1*
X5433988Y15175002D2*
X5959988Y15175012D1*
X5960007Y14120012D1*
X5696012Y13855007D1*
X5434012Y13855002D1*
X4625000Y14515000D2*
G02X4625000Y14515000I675000J0D01*
G01*
G36*
X4767297Y15022703D2*
X4767511Y15025966D1*
X4768149Y15029174D1*
X4769200Y15032270D1*
X4770646Y15035203D1*
X4772463Y15037922D1*
X4774619Y15040381D1*
X4777078Y15042537D1*
X4779797Y15044354D1*
X4782730Y15045800D1*
X4785826Y15046851D1*
X4789034Y15047489D1*
X4792297Y15047703D1*
X4795560Y15047489D1*
X4798767Y15046851D1*
X4801864Y15045800D1*
X4804797Y15044354D1*
X4807516Y15042537D1*
X4809974Y15040381D1*
X4812131Y15037922D1*
X4813947Y15035203D1*
X4815394Y15032270D1*
X4816445Y15029174D1*
X4817083Y15025966D1*
X4817297Y15022703D1*
D1*
X4817083Y15019440D1*
X4816445Y15016233D1*
X4815394Y15013136D1*
X4813947Y15010203D1*
X4812131Y15007484D1*
X4809974Y15005026D1*
X4807516Y15002869D1*
X4804797Y15001053D1*
X4801864Y14999606D1*
X4798767Y14998555D1*
X4795560Y14997917D1*
X4792297Y14997703D1*
X4789034Y14997917D1*
X4785826Y14998555D1*
X4782730Y14999606D1*
X4779797Y15001053D1*
X4777078Y15002869D1*
X4774619Y15005026D1*
X4772463Y15007484D1*
X4770646Y15010203D1*
X4769200Y15013136D1*
X4768149Y15016233D1*
X4767511Y15019440D1*
X4767297Y15022703D1*
D1*
G37*
X3377000Y11375998D2*
D13*
Y11403998D1*
X3473000Y11376002D2*
Y11404002D1*
X3039500Y11375999D2*
Y11403999D1*
X3135500Y11376001D2*
Y11404001D1*
X2610500Y14527003D2*
Y14503003D1*
X2464500Y14526997D2*
Y14502997D1*
X2801501Y14367000D2*
X2773501D1*
X2801499Y14463000D2*
X2773499D1*
X3226502Y14367001D2*
X3198502Y14366999D1*
X3226498Y14463001D2*
X3198498Y14462999D1*
X2652000Y10925999D2*
Y10953999D1*
X2748000Y10926001D2*
Y10954001D1*
X3135500Y11897751D2*
Y11869751D1*
X3039500Y11897749D2*
Y11869749D1*
X1834017Y12205003D2*
X2360017Y12205017D1*
X2359990Y13260017D1*
X2095983Y13525010D1*
X1833983Y13525003D1*
X1566017Y12204997D2*
X1040017Y12204983D1*
X1039990Y13259983D1*
X1303983Y13524990D1*
X1565983Y13524997D1*
X1025000Y12865000D2*
G02X1025000Y12865000I675000J0D01*
G01*
G36*
X2232715Y12357308D2*
X2232501Y12354045D1*
X2231863Y12350838D1*
X2230812Y12347741D1*
X2229365Y12344808D1*
X2227549Y12342089D1*
X2225393Y12339631D1*
X2222934Y12337474D1*
X2220215Y12335657D1*
X2217282Y12334211D1*
X2214186Y12333160D1*
X2210978Y12332522D1*
X2207715Y12332308D1*
X2204452Y12332522D1*
X2201245Y12333160D1*
X2198148Y12334211D1*
X2195215Y12335657D1*
X2192496Y12337474D1*
X2190037Y12339630D1*
X2187881Y12342088D1*
X2186064Y12344807D1*
X2184618Y12347740D1*
X2183567Y12350837D1*
X2182928Y12354044D1*
X2182715Y12357307D1*
D1*
X2182928Y12360570D1*
X2183566Y12363778D1*
X2184617Y12366874D1*
X2186064Y12369807D1*
X2187880Y12372526D1*
X2190036Y12374985D1*
X2192495Y12377141D1*
X2195214Y12378958D1*
X2198147Y12380405D1*
X2201244Y12381456D1*
X2204451Y12382094D1*
X2207714Y12382308D1*
X2210977Y12382094D1*
X2214184Y12381456D1*
X2217281Y12380405D1*
X2220214Y12378959D1*
X2222933Y12377142D1*
X2225392Y12374986D1*
X2227548Y12372527D1*
X2229365Y12369808D1*
X2230811Y12366875D1*
X2231863Y12363779D1*
X2232501Y12360572D1*
X2232715Y12357308D1*
D1*
G37*
X1565988Y15174998D2*
D13*
X1039988Y15174988D1*
X1040007Y14119988D1*
X1304012Y13854993D1*
X1566012Y13854998D1*
X1833988Y15175002D2*
X2359988Y15175012D1*
X2360007Y14120012D1*
X2096012Y13855007D1*
X1834012Y13855002D1*
X1025000Y14515000D2*
G02X1025000Y14515000I675000J0D01*
G01*
G36*
X2232715Y14007308D2*
X2232501Y14004045D1*
X2231863Y14000838D1*
X2230812Y13997741D1*
X2229365Y13994808D1*
X2227549Y13992089D1*
X2225393Y13989631D1*
X2222934Y13987474D1*
X2220215Y13985657D1*
X2217282Y13984211D1*
X2214186Y13983160D1*
X2210978Y13982522D1*
X2207715Y13982308D1*
X2204452Y13982522D1*
X2201245Y13983160D1*
X2198148Y13984211D1*
X2195215Y13985657D1*
X2192496Y13987474D1*
X2190037Y13989630D1*
X2187881Y13992088D1*
X2186064Y13994807D1*
X2184618Y13997740D1*
X2183567Y14000837D1*
X2182928Y14004044D1*
X2182715Y14007307D1*
D1*
X2182928Y14010570D1*
X2183566Y14013778D1*
X2184617Y14016874D1*
X2186064Y14019807D1*
X2187880Y14022526D1*
X2190036Y14024985D1*
X2192495Y14027141D1*
X2195214Y14028958D1*
X2198147Y14030405D1*
X2201244Y14031456D1*
X2204451Y14032094D1*
X2207714Y14032308D1*
X2210977Y14032094D1*
X2214184Y14031456D1*
X2217281Y14030405D1*
X2220214Y14028959D1*
X2222933Y14027142D1*
X2225392Y14024986D1*
X2227548Y14022527D1*
X2229365Y14019808D1*
X2230811Y14016875D1*
X2231863Y14013779D1*
X2232501Y14010572D1*
X2232715Y14007308D1*
D1*
G37*
X2802001Y10925998D2*
D13*
X2801999Y10953998D1*
X2898001Y10926002D2*
X2897999Y10954002D1*
X2502000Y10925998D2*
Y10953998D1*
X2598000Y10926002D2*
Y10954002D1*
X4211000Y10463000D2*
X4239000D1*
X4211000Y10367000D2*
X4239000D1*
X4211000Y10838000D2*
X4239000D1*
X4211000Y10742000D2*
X4239000D1*
X2761000Y8713000D2*
X2789000D1*
X2761000Y8617000D2*
X2789000D1*
X2761000Y8400500D2*
X2789000D1*
X2761000Y8304500D2*
X2789000D1*
X4239002Y10567001D2*
X4211002Y10566999D1*
X4238998Y10663001D2*
X4210998Y10662999D1*
X4239000Y10879500D2*
X4211000D1*
X4239000Y10975500D2*
X4211000D1*
X3377000Y9413500D2*
Y9441500D1*
X3473000Y9413500D2*
Y9441500D1*
X3623000Y9866500D2*
Y9838500D1*
X3527000Y9866500D2*
Y9838500D1*
X3060500Y2479000D2*
Y2451000D1*
X2964500Y2479000D2*
Y2451000D1*
X2910500Y3666500D2*
Y3638500D1*
X2814500Y3666500D2*
Y3638500D1*
X1385500Y2479000D2*
Y2451000D1*
X1289500Y2479000D2*
Y2451000D1*
X1373500Y3963000D2*
X1401500D1*
X1373500Y3867000D2*
X1401500D1*
X4803500Y2466500D2*
Y2438500D1*
X4707500Y2466500D2*
Y2438500D1*
X4815999Y3963000D2*
X4843999D1*
X4816001Y3867000D2*
X4844001D1*
X2426000Y9405500D2*
X2454000D1*
X2426000Y9309500D2*
X2454000D1*
X4569001Y9874500D2*
X4541001D1*
X4568999Y9970500D2*
X4540999D1*
X1290000Y15370000D2*
D10*
X1360000D1*
X2665005Y2319999D2*
X2735005Y2320001D1*
X5640005Y15369999D2*
X5710005Y15370001D1*
X1128007Y15849997D2*
D13*
X1090007Y15849995D1*
X1089993Y16299995D1*
X1127993Y16299997D1*
X1332007Y15850003D2*
X1370007Y15850005D1*
X1369993Y16300005D1*
X1331993Y16300003D1*
X1152011Y15741997D2*
X1308011Y15742003D1*
X5673004Y15849998D2*
X5635004Y15849997D1*
X5634996Y16299997D1*
X5672996Y16299998D1*
X5877004Y15850002D2*
X5915004Y15850003D1*
X5914996Y16300003D1*
X5876996Y16300002D1*
X5697006Y15741999D2*
X5853006Y15742001D1*
X4324996Y16554490D2*
X4324994Y16592490D1*
X4774994Y16592510D1*
X4774996Y16554510D1*
X4325004Y16350490D2*
X4325006Y16312490D1*
X4775006Y16312510D1*
X4775004Y16350510D1*
X4216997Y16530485D2*
X4217003Y16374485D1*
X4151000Y14520000D2*
D36*
X2849000D1*
X2711000Y14690000D2*
Y15370000D1*
X4289000D1*
Y14690000D1*
G36*
X4355000Y14910000D2*
X4357611Y14909829D1*
X4360176Y14909319D1*
X4362654Y14908478D1*
X4365000Y14907321D1*
X4367175Y14905867D1*
X4369142Y14904142D1*
X4370867Y14902175D1*
X4372321Y14900000D1*
X4373478Y14897654D1*
X4374319Y14895176D1*
X4374829Y14892611D1*
X4375000Y14890000D1*
X4374829Y14887389D1*
X4374319Y14884824D1*
X4373478Y14882346D1*
X4372320Y14880000D1*
X4370867Y14877825D1*
X4369142Y14875858D1*
X4367175Y14874133D1*
X4365000Y14872679D1*
X4362654Y14871522D1*
X4360176Y14870681D1*
X4357610Y14870171D1*
X4355000Y14870000D1*
D1*
X4352389Y14870171D1*
X4349824Y14870681D1*
X4347346Y14871522D1*
X4345000Y14872679D1*
X4342825Y14874133D1*
X4340858Y14875858D1*
X4339133Y14877825D1*
X4337679Y14880000D1*
X4336522Y14882346D1*
X4335681Y14884824D1*
X4335171Y14887389D1*
X4335000Y14890000D1*
X4335171Y14892611D1*
X4335681Y14895176D1*
X4336522Y14897654D1*
X4337679Y14900000D1*
X4339133Y14902175D1*
X4340858Y14904142D1*
X4342825Y14905867D1*
X4345000Y14907320D1*
X4347346Y14908478D1*
X4349824Y14909319D1*
X4352389Y14909829D1*
X4355000Y14910000D1*
D1*
G37*
X2849000Y14520000D2*
D36*
Y14690000D1*
X2711000D1*
X4289000D2*
X4151000D1*
Y14520000D1*
X1050006Y7642490D2*
D13*
X1049981Y9037490D1*
X1131984Y9037491D1*
G36*
X1677003Y7828001D2*
X1673740Y7828215D1*
X1670532Y7828853D1*
X1667436Y7829904D1*
X1664503Y7831350D1*
X1661784Y7833167D1*
X1659325Y7835323D1*
X1657169Y7837782D1*
X1655352Y7840501D1*
X1653905Y7843434D1*
X1652854Y7846530D1*
X1652216Y7849738D1*
X1652002Y7853001D1*
X1652216Y7856264D1*
X1652854Y7859471D1*
X1653905Y7862568D1*
X1655351Y7865501D1*
X1657168Y7868220D1*
X1659324Y7870679D1*
X1661783Y7872835D1*
X1664502Y7874652D1*
X1667435Y7876098D1*
X1670531Y7877149D1*
X1673739Y7877787D1*
X1677002Y7878001D1*
D1*
X1680265Y7877787D1*
X1683472Y7877150D1*
X1686569Y7876098D1*
X1689502Y7874652D1*
X1692221Y7872835D1*
X1694680Y7870679D1*
X1696836Y7868221D1*
X1698653Y7865502D1*
X1700099Y7862569D1*
X1701150Y7859472D1*
X1701788Y7856265D1*
X1702002Y7853002D1*
X1701788Y7849739D1*
X1701151Y7846531D1*
X1700099Y7843435D1*
X1698653Y7840502D1*
X1696836Y7837783D1*
X1694680Y7835324D1*
X1692222Y7833168D1*
X1689503Y7831351D1*
X1686570Y7829904D1*
X1683473Y7828853D1*
X1680266Y7828215D1*
X1677003Y7828001D1*
D1*
G37*
X1467977Y9037497D2*
D13*
X1549981Y9037499D1*
X1549985Y8807996D1*
X1550002Y7872002D2*
X1550006Y7642499D1*
X1468003Y7642497D1*
X1132009Y7642491D2*
X1050006Y7642490D1*
X5950000Y9037500D2*
Y7642500D1*
X5867997D1*
G36*
X5323000Y8852000D2*
X5326263Y8851786D1*
X5329470Y8851148D1*
X5332567Y8850097D1*
X5335500Y8848651D1*
X5338219Y8846834D1*
X5340678Y8844678D1*
X5342834Y8842219D1*
X5344651Y8839500D1*
X5346097Y8836567D1*
X5347148Y8833470D1*
X5347786Y8830263D1*
X5348000Y8827000D1*
X5347786Y8823737D1*
X5347148Y8820530D1*
X5346097Y8817433D1*
X5344651Y8814500D1*
X5342834Y8811781D1*
X5340678Y8809322D1*
X5338219Y8807166D1*
X5335500Y8805349D1*
X5332567Y8803903D1*
X5329470Y8802852D1*
X5326263Y8802214D1*
X5323000Y8802000D1*
D1*
X5319737Y8802214D1*
X5316530Y8802852D1*
X5313433Y8803903D1*
X5310500Y8805349D1*
X5307781Y8807166D1*
X5305322Y8809322D1*
X5303166Y8811781D1*
X5301349Y8814500D1*
X5299903Y8817433D1*
X5298852Y8820530D1*
X5298214Y8823737D1*
X5298000Y8827000D1*
X5298214Y8830263D1*
X5298852Y8833470D1*
X5299903Y8836567D1*
X5301349Y8839500D1*
X5303166Y8842219D1*
X5305322Y8844678D1*
X5307781Y8846834D1*
X5310500Y8848651D1*
X5313433Y8850097D1*
X5316530Y8851148D1*
X5319737Y8851786D1*
X5323000Y8852000D1*
D1*
G37*
X5532003Y7642500D2*
D13*
X5450000D1*
Y7872003D1*
Y8807997D2*
Y9037500D1*
X5532003D1*
X5867997D2*
X5950000D1*
X2849000Y4760000D2*
D36*
X4151000D1*
X4289000Y4590000D2*
Y3910000D1*
X2711000D1*
Y4590000D1*
G36*
X2645000Y4370000D2*
X2642389Y4370171D1*
X2639824Y4370681D1*
X2637346Y4371522D1*
X2635000Y4372679D1*
X2632825Y4374133D1*
X2630858Y4375858D1*
X2629133Y4377825D1*
X2627679Y4380000D1*
X2626522Y4382346D1*
X2625681Y4384824D1*
X2625171Y4387389D1*
X2625000Y4390000D1*
X2625171Y4392611D1*
X2625681Y4395176D1*
X2626522Y4397654D1*
X2627680Y4400000D1*
X2629133Y4402175D1*
X2630858Y4404142D1*
X2632825Y4405867D1*
X2635000Y4407321D1*
X2637346Y4408478D1*
X2639824Y4409319D1*
X2642390Y4409829D1*
X2645000Y4410000D1*
D1*
X2647611Y4409829D1*
X2650176Y4409319D1*
X2652654Y4408478D1*
X2655000Y4407321D1*
X2657175Y4405867D1*
X2659142Y4404142D1*
X2660867Y4402175D1*
X2662321Y4400000D1*
X2663478Y4397654D1*
X2664319Y4395176D1*
X2664829Y4392611D1*
X2665000Y4390000D1*
X2664829Y4387389D1*
X2664319Y4384824D1*
X2663478Y4382346D1*
X2662321Y4380000D1*
X2660867Y4377825D1*
X2659142Y4375858D1*
X2657175Y4374133D1*
X2655000Y4372680D1*
X2652654Y4371522D1*
X2650176Y4370681D1*
X2647611Y4370171D1*
X2645000Y4370000D1*
D1*
G37*
X4151000Y4760000D2*
D36*
Y4590000D1*
X4289000D1*
X2711000D2*
X2849000D1*
Y4760000D1*
X4325000Y17300500D2*
D13*
Y16724500D1*
X5065000D1*
Y17300500D1*
X4325000D1*
G36*
X4795000Y17343500D2*
X4795214Y17346763D1*
X4795852Y17349970D1*
X4796903Y17353067D1*
X4798349Y17356000D1*
X4800166Y17358719D1*
X4802322Y17361178D1*
X4804781Y17363334D1*
X4807500Y17365151D1*
X4810433Y17366597D1*
X4813530Y17367648D1*
X4816737Y17368286D1*
X4820000Y17368500D1*
X4823263Y17368286D1*
X4826470Y17367648D1*
X4829567Y17366597D1*
X4832500Y17365151D1*
X4835219Y17363334D1*
X4837678Y17361178D1*
X4839834Y17358719D1*
X4841651Y17356000D1*
X4843097Y17353067D1*
X4844148Y17349970D1*
X4844786Y17346763D1*
X4845000Y17343500D1*
D1*
X4844786Y17340237D1*
X4844148Y17337030D1*
X4843097Y17333933D1*
X4841651Y17331000D1*
X4839834Y17328281D1*
X4837678Y17325822D1*
X4835219Y17323666D1*
X4832500Y17321849D1*
X4829567Y17320403D1*
X4826470Y17319352D1*
X4823263Y17318714D1*
X4820000Y17318500D1*
X4816737Y17318714D1*
X4813530Y17319352D1*
X4810433Y17320403D1*
X4807500Y17321849D1*
X4804781Y17323666D1*
X4802322Y17325822D1*
X4800166Y17328281D1*
X4798349Y17331000D1*
X4796903Y17333933D1*
X4795852Y17337030D1*
X4795214Y17340237D1*
X4795000Y17343500D1*
D1*
G37*
G36*
X2770001Y16852516D2*
X2769830Y16849906D1*
X2769320Y16847340D1*
X2768479Y16844863D1*
X2767322Y16842516D1*
X2765868Y16840341D1*
X2764144Y16838374D1*
X2762177Y16836649D1*
X2760002Y16835195D1*
X2757655Y16834038D1*
X2755178Y16833197D1*
X2752612Y16832687D1*
X2750002Y16832516D1*
X2747391Y16832687D1*
X2744825Y16833197D1*
X2742348Y16834038D1*
X2740002Y16835195D1*
X2737826Y16836648D1*
X2735859Y16838373D1*
X2734134Y16840340D1*
X2732681Y16842515D1*
X2731524Y16844861D1*
X2730683Y16847338D1*
X2730172Y16849904D1*
X2730001Y16852515D1*
D1*
X2730172Y16855125D1*
X2730682Y16857691D1*
X2731523Y16860169D1*
X2732680Y16862515D1*
X2734133Y16864690D1*
X2735858Y16866657D1*
X2737825Y16868382D1*
X2740000Y16869836D1*
X2742347Y16870993D1*
X2744824Y16871834D1*
X2747390Y16872344D1*
X2750000Y16872516D1*
X2752611Y16872345D1*
X2755177Y16871834D1*
X2757654Y16870993D1*
X2760000Y16869836D1*
X2762176Y16868383D1*
X2764143Y16866658D1*
X2765868Y16864691D1*
X2767321Y16862516D1*
X2768478Y16860170D1*
X2769319Y16857693D1*
X2769830Y16855127D1*
X2770001Y16852516D1*
D1*
G37*
X2573016Y16452509D2*
D36*
X2573008Y16652509D1*
X2027008Y16652489D2*
X2027016Y16452489D1*
X2573016Y16452509D1*
X2693008Y16652513D2*
X2692984Y17302513D1*
X1906984Y17302485D1*
X1907008Y16652485D1*
X2027008Y16652489D1*
X2573008Y16652509D2*
X2693008Y16652513D1*
G36*
X5100000Y1840000D2*
X5100428Y1846526D1*
X5101704Y1852941D1*
X5103806Y1859134D1*
X5106699Y1865000D1*
X5110332Y1870438D1*
X5114645Y1875355D1*
X5119562Y1879668D1*
X5125000Y1883301D1*
X5130866Y1886194D1*
X5137059Y1888296D1*
X5143474Y1889572D1*
X5150000Y1890000D1*
X5156526Y1889572D1*
X5162941Y1888296D1*
X5169134Y1886194D1*
X5175000Y1883301D1*
X5180438Y1879668D1*
X5185355Y1875355D1*
X5189668Y1870438D1*
X5193301Y1865000D1*
X5196194Y1859134D1*
X5198296Y1852941D1*
X5199572Y1846526D1*
X5200000Y1840000D1*
D1*
X5199572Y1833474D1*
X5198296Y1827059D1*
X5196194Y1820866D1*
X5193301Y1815000D1*
X5189668Y1809562D1*
X5185355Y1804645D1*
X5180438Y1800332D1*
X5175000Y1796699D1*
X5169134Y1793806D1*
X5162941Y1791704D1*
X5156526Y1790428D1*
X5150000Y1790000D1*
X5143474Y1790428D1*
X5137059Y1791704D1*
X5130866Y1793806D1*
X5125000Y1796699D1*
X5119562Y1800332D1*
X5114645Y1804645D1*
X5110332Y1809562D1*
X5106699Y1815000D1*
X5103806Y1820866D1*
X5101704Y1827059D1*
X5100428Y1833474D1*
X5100000Y1840000D1*
D1*
G37*
X1610064Y9490007D2*
D51*
X1610003Y11340007D1*
G36*
X991501Y11389986D2*
X988238Y11390200D1*
X985031Y11390838D1*
X981934Y11391889D1*
X979001Y11393335D1*
X976282Y11395152D1*
X973823Y11397308D1*
X971667Y11399767D1*
X969850Y11402486D1*
X968404Y11405419D1*
X967352Y11408515D1*
X966714Y11411722D1*
X966500Y11414986D1*
X966714Y11418249D1*
X967352Y11421456D1*
X968403Y11424553D1*
X969849Y11427486D1*
X971666Y11430205D1*
X973822Y11432664D1*
X976281Y11434820D1*
X979000Y11436637D1*
X981932Y11438083D1*
X985029Y11439134D1*
X988236Y11439772D1*
X991499Y11439986D1*
D1*
X994763Y11439773D1*
X997970Y11439135D1*
X1001067Y11438084D1*
X1004000Y11436637D1*
X1006719Y11434821D1*
X1009177Y11432665D1*
X1011334Y11430206D1*
X1013150Y11427487D1*
X1014597Y11424554D1*
X1015648Y11421458D1*
X1016286Y11418250D1*
X1016500Y11414987D1*
X1016287Y11411724D1*
X1015649Y11408517D1*
X1014598Y11405420D1*
X1013151Y11402487D1*
X1011335Y11399768D1*
X1009179Y11397309D1*
X1006720Y11395153D1*
X1004001Y11393336D1*
X1001068Y11391890D1*
X997972Y11390839D1*
X994764Y11390200D1*
X991501Y11389986D1*
D1*
G37*
X1034992Y11659988D2*
D51*
X1374992Y11659999D1*
X1484992Y11660003D2*
X1609992Y11660007D1*
X1609998Y11490007D2*
X1609992Y11660007D1*
X1609998Y11490007D2*
X1609992Y11660007D1*
X1035074Y9169988D2*
X1375074Y9169999D1*
X1485074Y9170003D2*
X1610074Y9170007D1*
X1035074Y9169988D2*
X1034992Y11659988D1*
X1610074Y9170007D2*
X1610069Y9340007D1*
X5389923Y11339991D2*
X5389997Y9489991D1*
G36*
X6008499Y9440016D2*
X6011763Y9439802D1*
X6014970Y9439164D1*
X6018067Y9438113D1*
X6021000Y9436667D1*
X6023719Y9434850D1*
X6026177Y9432694D1*
X6028334Y9430236D1*
X6030151Y9427517D1*
X6031597Y9424584D1*
X6032648Y9421487D1*
X6033286Y9418280D1*
X6033500Y9415017D1*
X6033287Y9411754D1*
X6032649Y9408546D1*
X6031598Y9405450D1*
X6030152Y9402517D1*
X6028335Y9399798D1*
X6026179Y9397339D1*
X6023720Y9395183D1*
X6021001Y9393366D1*
X6018068Y9391919D1*
X6014972Y9390868D1*
X6011765Y9390230D1*
X6008501Y9390016D1*
D1*
X6005238Y9390230D1*
X6002031Y9390867D1*
X5998934Y9391918D1*
X5996001Y9393365D1*
X5993282Y9395181D1*
X5990823Y9397337D1*
X5988667Y9399796D1*
X5986850Y9402515D1*
X5985404Y9405448D1*
X5984353Y9408544D1*
X5983714Y9411752D1*
X5983500Y9415015D1*
X5983714Y9418278D1*
X5984352Y9421485D1*
X5985403Y9424582D1*
X5986849Y9427515D1*
X5988666Y9430234D1*
X5990822Y9432693D1*
X5993281Y9434849D1*
X5996000Y9436666D1*
X5998932Y9438112D1*
X6002029Y9439164D1*
X6005236Y9439802D1*
X6008499Y9440016D1*
D1*
G37*
X5965010Y9170014D2*
D51*
X5625010Y9170000D1*
X5515010Y9169996D2*
X5390010Y9169991D1*
X5390003Y9339991D2*
X5390010Y9169991D1*
X5390003Y9339991D2*
X5390010Y9169991D1*
X5964910Y11660014D2*
X5624910Y11660000D1*
X5514910Y11659996D2*
X5389910Y11659991D1*
X5964910Y11660014D2*
X5965010Y9170014D1*
X5389910Y11659991D2*
X5389917Y11489991D1*
X1860007Y16012008D2*
D13*
X1860008Y16005008D1*
X1440008Y16004992D1*
X1440007Y16011992D1*
X1859993Y16418008D2*
X1859992Y16425008D1*
X1439992Y16424992D1*
X1439993Y16417992D1*
X5140000Y15818000D2*
Y15825000D1*
X5560000D1*
Y15818000D1*
X5140000Y15412000D2*
Y15405000D1*
X5560000D1*
Y15412000D1*
X2922500Y5560000D2*
D36*
Y5077500D1*
X2367500D2*
Y5560000D1*
G36*
X2835500Y5834000D2*
X2838111Y5833829D1*
X2840676Y5833319D1*
X2843154Y5832478D1*
X2845500Y5831321D1*
X2847675Y5829867D1*
X2849642Y5828142D1*
X2851367Y5826175D1*
X2852821Y5824000D1*
X2853978Y5821654D1*
X2854819Y5819176D1*
X2855329Y5816611D1*
X2855500Y5814000D1*
X2855329Y5811389D1*
X2854819Y5808824D1*
X2853978Y5806346D1*
X2852821Y5804000D1*
X2851367Y5801825D1*
X2849642Y5799858D1*
X2847675Y5798133D1*
X2845500Y5796679D1*
X2843154Y5795522D1*
X2840676Y5794681D1*
X2838111Y5794171D1*
X2835500Y5794000D1*
D1*
X2832889Y5794171D1*
X2830324Y5794681D1*
X2827846Y5795522D1*
X2825500Y5796679D1*
X2823325Y5798133D1*
X2821358Y5799858D1*
X2819633Y5801825D1*
X2818179Y5804000D1*
X2817022Y5806346D1*
X2816181Y5808824D1*
X2815671Y5811389D1*
X2815500Y5814000D1*
X2815671Y5816611D1*
X2816181Y5819176D1*
X2817022Y5821654D1*
X2818179Y5824000D1*
X2819633Y5826175D1*
X2821358Y5828142D1*
X2823325Y5829867D1*
X2825500Y5831321D1*
X2827846Y5832478D1*
X2830324Y5833319D1*
X2832889Y5833829D1*
X2835500Y5834000D1*
D1*
G37*
X2922500Y6710000D2*
D36*
Y6227500D1*
X2367500D2*
Y6710000D1*
G36*
X2835500Y6984000D2*
X2838111Y6983829D1*
X2840676Y6983319D1*
X2843154Y6982478D1*
X2845500Y6981321D1*
X2847675Y6979867D1*
X2849642Y6978142D1*
X2851367Y6976175D1*
X2852821Y6974000D1*
X2853978Y6971654D1*
X2854819Y6969176D1*
X2855329Y6966611D1*
X2855500Y6964000D1*
X2855329Y6961389D1*
X2854819Y6958824D1*
X2853978Y6956346D1*
X2852821Y6954000D1*
X2851367Y6951825D1*
X2849642Y6949858D1*
X2847675Y6948133D1*
X2845500Y6946679D1*
X2843154Y6945522D1*
X2840676Y6944681D1*
X2838111Y6944171D1*
X2835500Y6944000D1*
D1*
X2832889Y6944171D1*
X2830324Y6944681D1*
X2827846Y6945522D1*
X2825500Y6946679D1*
X2823325Y6948133D1*
X2821358Y6949858D1*
X2819633Y6951825D1*
X2818179Y6954000D1*
X2817022Y6956346D1*
X2816181Y6958824D1*
X2815671Y6961389D1*
X2815500Y6964000D1*
X2815671Y6966611D1*
X2816181Y6969176D1*
X2817022Y6971654D1*
X2818179Y6974000D1*
X2819633Y6976175D1*
X2821358Y6978142D1*
X2823325Y6979867D1*
X2825500Y6981321D1*
X2827846Y6982478D1*
X2830324Y6983319D1*
X2832889Y6983829D1*
X2835500Y6984000D1*
D1*
G37*
X3492500Y5560000D2*
D36*
Y5077500D1*
X2937500D2*
Y5560000D1*
G36*
X3405500Y5834000D2*
X3408111Y5833829D1*
X3410676Y5833319D1*
X3413154Y5832478D1*
X3415500Y5831321D1*
X3417675Y5829867D1*
X3419642Y5828142D1*
X3421367Y5826175D1*
X3422821Y5824000D1*
X3423978Y5821654D1*
X3424819Y5819176D1*
X3425329Y5816611D1*
X3425500Y5814000D1*
X3425329Y5811389D1*
X3424819Y5808824D1*
X3423978Y5806346D1*
X3422821Y5804000D1*
X3421367Y5801825D1*
X3419642Y5799858D1*
X3417675Y5798133D1*
X3415500Y5796679D1*
X3413154Y5795522D1*
X3410676Y5794681D1*
X3408111Y5794171D1*
X3405500Y5794000D1*
D1*
X3402889Y5794171D1*
X3400324Y5794681D1*
X3397846Y5795522D1*
X3395500Y5796679D1*
X3393325Y5798133D1*
X3391358Y5799858D1*
X3389633Y5801825D1*
X3388179Y5804000D1*
X3387022Y5806346D1*
X3386181Y5808824D1*
X3385671Y5811389D1*
X3385500Y5814000D1*
X3385671Y5816611D1*
X3386181Y5819176D1*
X3387022Y5821654D1*
X3388179Y5824000D1*
X3389633Y5826175D1*
X3391358Y5828142D1*
X3393325Y5829867D1*
X3395500Y5831321D1*
X3397846Y5832478D1*
X3400324Y5833319D1*
X3402889Y5833829D1*
X3405500Y5834000D1*
D1*
G37*
X3492500Y6710000D2*
D36*
Y6227500D1*
X2937500D2*
Y6710000D1*
G36*
X3405500Y6984000D2*
X3408111Y6983829D1*
X3410676Y6983319D1*
X3413154Y6982478D1*
X3415500Y6981321D1*
X3417675Y6979867D1*
X3419642Y6978142D1*
X3421367Y6976175D1*
X3422821Y6974000D1*
X3423978Y6971654D1*
X3424819Y6969176D1*
X3425329Y6966611D1*
X3425500Y6964000D1*
X3425329Y6961389D1*
X3424819Y6958824D1*
X3423978Y6956346D1*
X3422821Y6954000D1*
X3421367Y6951825D1*
X3419642Y6949858D1*
X3417675Y6948133D1*
X3415500Y6946679D1*
X3413154Y6945522D1*
X3410676Y6944681D1*
X3408111Y6944171D1*
X3405500Y6944000D1*
D1*
X3402889Y6944171D1*
X3400324Y6944681D1*
X3397846Y6945522D1*
X3395500Y6946679D1*
X3393325Y6948133D1*
X3391358Y6949858D1*
X3389633Y6951825D1*
X3388179Y6954000D1*
X3387022Y6956346D1*
X3386181Y6958824D1*
X3385671Y6961389D1*
X3385500Y6964000D1*
X3385671Y6966611D1*
X3386181Y6969176D1*
X3387022Y6971654D1*
X3388179Y6974000D1*
X3389633Y6976175D1*
X3391358Y6978142D1*
X3393325Y6979867D1*
X3395500Y6981321D1*
X3397846Y6982478D1*
X3400324Y6983319D1*
X3402889Y6983829D1*
X3405500Y6984000D1*
D1*
G37*
X4062500Y5560000D2*
D36*
Y5077500D1*
X3507500D2*
Y5560000D1*
G36*
X3975500Y5834000D2*
X3978111Y5833829D1*
X3980676Y5833319D1*
X3983154Y5832478D1*
X3985500Y5831321D1*
X3987675Y5829867D1*
X3989642Y5828142D1*
X3991367Y5826175D1*
X3992821Y5824000D1*
X3993978Y5821654D1*
X3994819Y5819176D1*
X3995329Y5816611D1*
X3995500Y5814000D1*
X3995329Y5811389D1*
X3994819Y5808824D1*
X3993978Y5806346D1*
X3992821Y5804000D1*
X3991367Y5801825D1*
X3989642Y5799858D1*
X3987675Y5798133D1*
X3985500Y5796679D1*
X3983154Y5795522D1*
X3980676Y5794681D1*
X3978111Y5794171D1*
X3975500Y5794000D1*
D1*
X3972889Y5794171D1*
X3970324Y5794681D1*
X3967846Y5795522D1*
X3965500Y5796679D1*
X3963325Y5798133D1*
X3961358Y5799858D1*
X3959633Y5801825D1*
X3958179Y5804000D1*
X3957022Y5806346D1*
X3956181Y5808824D1*
X3955671Y5811389D1*
X3955500Y5814000D1*
X3955671Y5816611D1*
X3956181Y5819176D1*
X3957022Y5821654D1*
X3958179Y5824000D1*
X3959633Y5826175D1*
X3961358Y5828142D1*
X3963325Y5829867D1*
X3965500Y5831321D1*
X3967846Y5832478D1*
X3970324Y5833319D1*
X3972889Y5833829D1*
X3975500Y5834000D1*
D1*
G37*
X4087500Y13720000D2*
D36*
Y14202500D1*
X4642500D2*
Y13720000D1*
G36*
X4174500Y13446000D2*
X4171889Y13446171D1*
X4169324Y13446681D1*
X4166846Y13447522D1*
X4164500Y13448679D1*
X4162325Y13450133D1*
X4160358Y13451858D1*
X4158633Y13453825D1*
X4157179Y13456000D1*
X4156022Y13458346D1*
X4155181Y13460824D1*
X4154671Y13463389D1*
X4154500Y13466000D1*
X4154671Y13468611D1*
X4155181Y13471176D1*
X4156022Y13473654D1*
X4157179Y13476000D1*
X4158633Y13478175D1*
X4160358Y13480142D1*
X4162325Y13481867D1*
X4164500Y13483321D1*
X4166846Y13484478D1*
X4169324Y13485319D1*
X4171889Y13485829D1*
X4174500Y13486000D1*
D1*
X4177111Y13485829D1*
X4179676Y13485319D1*
X4182154Y13484478D1*
X4184500Y13483321D1*
X4186675Y13481867D1*
X4188642Y13480142D1*
X4190367Y13478175D1*
X4191821Y13476000D1*
X4192978Y13473654D1*
X4193819Y13471176D1*
X4194329Y13468611D1*
X4194500Y13466000D1*
X4194329Y13463389D1*
X4193819Y13460824D1*
X4192978Y13458346D1*
X4191821Y13456000D1*
X4190367Y13453825D1*
X4188642Y13451858D1*
X4186675Y13450133D1*
X4184500Y13448679D1*
X4182154Y13447522D1*
X4179676Y13446681D1*
X4177111Y13446171D1*
X4174500Y13446000D1*
D1*
G37*
X4077500Y12570000D2*
D36*
Y13052500D1*
X4632500D2*
Y12570000D1*
G36*
X4164500Y12296000D2*
X4161889Y12296171D1*
X4159324Y12296681D1*
X4156846Y12297522D1*
X4154500Y12298679D1*
X4152325Y12300133D1*
X4150358Y12301858D1*
X4148633Y12303825D1*
X4147179Y12306000D1*
X4146022Y12308346D1*
X4145181Y12310824D1*
X4144671Y12313389D1*
X4144500Y12316000D1*
X4144671Y12318611D1*
X4145181Y12321176D1*
X4146022Y12323654D1*
X4147179Y12326000D1*
X4148633Y12328175D1*
X4150358Y12330142D1*
X4152325Y12331867D1*
X4154500Y12333321D1*
X4156846Y12334478D1*
X4159324Y12335319D1*
X4161889Y12335829D1*
X4164500Y12336000D1*
D1*
X4167111Y12335829D1*
X4169676Y12335319D1*
X4172154Y12334478D1*
X4174500Y12333321D1*
X4176675Y12331867D1*
X4178642Y12330142D1*
X4180367Y12328175D1*
X4181821Y12326000D1*
X4182978Y12323654D1*
X4183819Y12321176D1*
X4184329Y12318611D1*
X4184500Y12316000D1*
X4184329Y12313389D1*
X4183819Y12310824D1*
X4182978Y12308346D1*
X4181821Y12306000D1*
X4180367Y12303825D1*
X4178642Y12301858D1*
X4176675Y12300133D1*
X4174500Y12298679D1*
X4172154Y12297522D1*
X4169676Y12296681D1*
X4167111Y12296171D1*
X4164500Y12296000D1*
D1*
G37*
X3507500Y13720000D2*
D36*
Y14202500D1*
X4062500D2*
Y13720000D1*
G36*
X3594500Y13446000D2*
X3591889Y13446171D1*
X3589324Y13446681D1*
X3586846Y13447522D1*
X3584500Y13448679D1*
X3582325Y13450133D1*
X3580358Y13451858D1*
X3578633Y13453825D1*
X3577179Y13456000D1*
X3576022Y13458346D1*
X3575181Y13460824D1*
X3574671Y13463389D1*
X3574500Y13466000D1*
X3574671Y13468611D1*
X3575181Y13471176D1*
X3576022Y13473654D1*
X3577179Y13476000D1*
X3578633Y13478175D1*
X3580358Y13480142D1*
X3582325Y13481867D1*
X3584500Y13483321D1*
X3586846Y13484478D1*
X3589324Y13485319D1*
X3591889Y13485829D1*
X3594500Y13486000D1*
D1*
X3597111Y13485829D1*
X3599676Y13485319D1*
X3602154Y13484478D1*
X3604500Y13483321D1*
X3606675Y13481867D1*
X3608642Y13480142D1*
X3610367Y13478175D1*
X3611821Y13476000D1*
X3612978Y13473654D1*
X3613819Y13471176D1*
X3614329Y13468611D1*
X3614500Y13466000D1*
X3614329Y13463389D1*
X3613819Y13460824D1*
X3612978Y13458346D1*
X3611821Y13456000D1*
X3610367Y13453825D1*
X3608642Y13451858D1*
X3606675Y13450133D1*
X3604500Y13448679D1*
X3602154Y13447522D1*
X3599676Y13446681D1*
X3597111Y13446171D1*
X3594500Y13446000D1*
D1*
G37*
X3510000Y12570000D2*
D36*
Y13052500D1*
X4065000D2*
Y12570000D1*
G36*
X3597000Y12296000D2*
X3594389Y12296171D1*
X3591824Y12296681D1*
X3589346Y12297522D1*
X3587000Y12298679D1*
X3584825Y12300133D1*
X3582858Y12301858D1*
X3581133Y12303825D1*
X3579679Y12306000D1*
X3578522Y12308346D1*
X3577681Y12310824D1*
X3577171Y12313389D1*
X3577000Y12316000D1*
X3577171Y12318611D1*
X3577681Y12321176D1*
X3578522Y12323654D1*
X3579679Y12326000D1*
X3581133Y12328175D1*
X3582858Y12330142D1*
X3584825Y12331867D1*
X3587000Y12333321D1*
X3589346Y12334478D1*
X3591824Y12335319D1*
X3594389Y12335829D1*
X3597000Y12336000D1*
D1*
X3599611Y12335829D1*
X3602176Y12335319D1*
X3604654Y12334478D1*
X3607000Y12333321D1*
X3609175Y12331867D1*
X3611142Y12330142D1*
X3612867Y12328175D1*
X3614321Y12326000D1*
X3615478Y12323654D1*
X3616319Y12321176D1*
X3616829Y12318611D1*
X3617000Y12316000D1*
X3616829Y12313389D1*
X3616319Y12310824D1*
X3615478Y12308346D1*
X3614321Y12306000D1*
X3612867Y12303825D1*
X3611142Y12301858D1*
X3609175Y12300133D1*
X3607000Y12298679D1*
X3604654Y12297522D1*
X3602176Y12296681D1*
X3599611Y12296171D1*
X3597000Y12296000D1*
D1*
G37*
X2937500Y13720000D2*
D36*
Y14202500D1*
X3492500D2*
Y13720000D1*
G36*
X3024500Y13446000D2*
X3021889Y13446171D1*
X3019324Y13446681D1*
X3016846Y13447522D1*
X3014500Y13448679D1*
X3012325Y13450133D1*
X3010358Y13451858D1*
X3008633Y13453825D1*
X3007179Y13456000D1*
X3006022Y13458346D1*
X3005181Y13460824D1*
X3004671Y13463389D1*
X3004500Y13466000D1*
X3004671Y13468611D1*
X3005181Y13471176D1*
X3006022Y13473654D1*
X3007179Y13476000D1*
X3008633Y13478175D1*
X3010358Y13480142D1*
X3012325Y13481867D1*
X3014500Y13483321D1*
X3016846Y13484478D1*
X3019324Y13485319D1*
X3021889Y13485829D1*
X3024500Y13486000D1*
D1*
X3027111Y13485829D1*
X3029676Y13485319D1*
X3032154Y13484478D1*
X3034500Y13483321D1*
X3036675Y13481867D1*
X3038642Y13480142D1*
X3040367Y13478175D1*
X3041821Y13476000D1*
X3042978Y13473654D1*
X3043819Y13471176D1*
X3044329Y13468611D1*
X3044500Y13466000D1*
X3044329Y13463389D1*
X3043819Y13460824D1*
X3042978Y13458346D1*
X3041821Y13456000D1*
X3040367Y13453825D1*
X3038642Y13451858D1*
X3036675Y13450133D1*
X3034500Y13448679D1*
X3032154Y13447522D1*
X3029676Y13446681D1*
X3027111Y13446171D1*
X3024500Y13446000D1*
D1*
G37*
X2937500Y12570000D2*
D36*
Y13052500D1*
X3492500D2*
Y12570000D1*
G36*
X3024500Y12296000D2*
X3021889Y12296171D1*
X3019324Y12296681D1*
X3016846Y12297522D1*
X3014500Y12298679D1*
X3012325Y12300133D1*
X3010358Y12301858D1*
X3008633Y12303825D1*
X3007179Y12306000D1*
X3006022Y12308346D1*
X3005181Y12310824D1*
X3004671Y12313389D1*
X3004500Y12316000D1*
X3004671Y12318611D1*
X3005181Y12321176D1*
X3006022Y12323654D1*
X3007179Y12326000D1*
X3008633Y12328175D1*
X3010358Y12330142D1*
X3012325Y12331867D1*
X3014500Y12333321D1*
X3016846Y12334478D1*
X3019324Y12335319D1*
X3021889Y12335829D1*
X3024500Y12336000D1*
D1*
X3027111Y12335829D1*
X3029676Y12335319D1*
X3032154Y12334478D1*
X3034500Y12333321D1*
X3036675Y12331867D1*
X3038642Y12330142D1*
X3040367Y12328175D1*
X3041821Y12326000D1*
X3042978Y12323654D1*
X3043819Y12321176D1*
X3044329Y12318611D1*
X3044500Y12316000D1*
X3044329Y12313389D1*
X3043819Y12310824D1*
X3042978Y12308346D1*
X3041821Y12306000D1*
X3040367Y12303825D1*
X3038642Y12301858D1*
X3036675Y12300133D1*
X3034500Y12298679D1*
X3032154Y12297522D1*
X3029676Y12296681D1*
X3027111Y12296171D1*
X3024500Y12296000D1*
D1*
G37*
X2367500Y13720000D2*
D36*
Y14202500D1*
X2922500D2*
Y13720000D1*
G36*
X2454500Y13446000D2*
X2451889Y13446171D1*
X2449324Y13446681D1*
X2446846Y13447522D1*
X2444500Y13448679D1*
X2442325Y13450133D1*
X2440358Y13451858D1*
X2438633Y13453825D1*
X2437179Y13456000D1*
X2436022Y13458346D1*
X2435181Y13460824D1*
X2434671Y13463389D1*
X2434500Y13466000D1*
X2434671Y13468611D1*
X2435181Y13471176D1*
X2436022Y13473654D1*
X2437179Y13476000D1*
X2438633Y13478175D1*
X2440358Y13480142D1*
X2442325Y13481867D1*
X2444500Y13483321D1*
X2446846Y13484478D1*
X2449324Y13485319D1*
X2451889Y13485829D1*
X2454500Y13486000D1*
D1*
X2457111Y13485829D1*
X2459676Y13485319D1*
X2462154Y13484478D1*
X2464500Y13483321D1*
X2466675Y13481867D1*
X2468642Y13480142D1*
X2470367Y13478175D1*
X2471821Y13476000D1*
X2472978Y13473654D1*
X2473819Y13471176D1*
X2474329Y13468611D1*
X2474500Y13466000D1*
X2474329Y13463389D1*
X2473819Y13460824D1*
X2472978Y13458346D1*
X2471821Y13456000D1*
X2470367Y13453825D1*
X2468642Y13451858D1*
X2466675Y13450133D1*
X2464500Y13448679D1*
X2462154Y13447522D1*
X2459676Y13446681D1*
X2457111Y13446171D1*
X2454500Y13446000D1*
D1*
G37*
X2367500Y12570000D2*
D36*
Y13052500D1*
X2922500D2*
Y12570000D1*
G36*
X2454500Y12296000D2*
X2451889Y12296171D1*
X2449324Y12296681D1*
X2446846Y12297522D1*
X2444500Y12298679D1*
X2442325Y12300133D1*
X2440358Y12301858D1*
X2438633Y12303825D1*
X2437179Y12306000D1*
X2436022Y12308346D1*
X2435181Y12310824D1*
X2434671Y12313389D1*
X2434500Y12316000D1*
X2434671Y12318611D1*
X2435181Y12321176D1*
X2436022Y12323654D1*
X2437179Y12326000D1*
X2438633Y12328175D1*
X2440358Y12330142D1*
X2442325Y12331867D1*
X2444500Y12333321D1*
X2446846Y12334478D1*
X2449324Y12335319D1*
X2451889Y12335829D1*
X2454500Y12336000D1*
D1*
X2457111Y12335829D1*
X2459676Y12335319D1*
X2462154Y12334478D1*
X2464500Y12333321D1*
X2466675Y12331867D1*
X2468642Y12330142D1*
X2470367Y12328175D1*
X2471821Y12326000D1*
X2472978Y12323654D1*
X2473819Y12321176D1*
X2474329Y12318611D1*
X2474500Y12316000D1*
X2474329Y12313389D1*
X2473819Y12310824D1*
X2472978Y12308346D1*
X2471821Y12306000D1*
X2470367Y12303825D1*
X2468642Y12301858D1*
X2466675Y12300133D1*
X2464500Y12298679D1*
X2462154Y12297522D1*
X2459676Y12296681D1*
X2457111Y12296171D1*
X2454500Y12296000D1*
D1*
G37*
X4062500Y6710000D2*
D36*
Y6227500D1*
X3507500D2*
Y6710000D1*
G36*
X3975500Y6984000D2*
X3978111Y6983829D1*
X3980676Y6983319D1*
X3983154Y6982478D1*
X3985500Y6981321D1*
X3987675Y6979867D1*
X3989642Y6978142D1*
X3991367Y6976175D1*
X3992821Y6974000D1*
X3993978Y6971654D1*
X3994819Y6969176D1*
X3995329Y6966611D1*
X3995500Y6964000D1*
X3995329Y6961389D1*
X3994819Y6958824D1*
X3993978Y6956346D1*
X3992821Y6954000D1*
X3991367Y6951825D1*
X3989642Y6949858D1*
X3987675Y6948133D1*
X3985500Y6946679D1*
X3983154Y6945522D1*
X3980676Y6944681D1*
X3978111Y6944171D1*
X3975500Y6944000D1*
D1*
X3972889Y6944171D1*
X3970324Y6944681D1*
X3967846Y6945522D1*
X3965500Y6946679D1*
X3963325Y6948133D1*
X3961358Y6949858D1*
X3959633Y6951825D1*
X3958179Y6954000D1*
X3957022Y6956346D1*
X3956181Y6958824D1*
X3955671Y6961389D1*
X3955500Y6964000D1*
X3955671Y6966611D1*
X3956181Y6969176D1*
X3957022Y6971654D1*
X3958179Y6974000D1*
X3959633Y6976175D1*
X3961358Y6978142D1*
X3963325Y6979867D1*
X3965500Y6981321D1*
X3967846Y6982478D1*
X3970324Y6983319D1*
X3972889Y6983829D1*
X3975500Y6984000D1*
D1*
G37*
X4632500Y5560000D2*
D36*
Y5077500D1*
X4077500D2*
Y5560000D1*
G36*
X4545500Y5834000D2*
X4548111Y5833829D1*
X4550676Y5833319D1*
X4553154Y5832478D1*
X4555500Y5831321D1*
X4557675Y5829867D1*
X4559642Y5828142D1*
X4561367Y5826175D1*
X4562821Y5824000D1*
X4563978Y5821654D1*
X4564819Y5819176D1*
X4565329Y5816611D1*
X4565500Y5814000D1*
X4565329Y5811389D1*
X4564819Y5808824D1*
X4563978Y5806346D1*
X4562821Y5804000D1*
X4561367Y5801825D1*
X4559642Y5799858D1*
X4557675Y5798133D1*
X4555500Y5796679D1*
X4553154Y5795522D1*
X4550676Y5794681D1*
X4548111Y5794171D1*
X4545500Y5794000D1*
D1*
X4542889Y5794171D1*
X4540324Y5794681D1*
X4537846Y5795522D1*
X4535500Y5796679D1*
X4533325Y5798133D1*
X4531358Y5799858D1*
X4529633Y5801825D1*
X4528179Y5804000D1*
X4527022Y5806346D1*
X4526181Y5808824D1*
X4525671Y5811389D1*
X4525500Y5814000D1*
X4525671Y5816611D1*
X4526181Y5819176D1*
X4527022Y5821654D1*
X4528179Y5824000D1*
X4529633Y5826175D1*
X4531358Y5828142D1*
X4533325Y5829867D1*
X4535500Y5831321D1*
X4537846Y5832478D1*
X4540324Y5833319D1*
X4542889Y5833829D1*
X4545500Y5834000D1*
D1*
G37*
X4632500Y6710000D2*
D36*
Y6227500D1*
X4077500D2*
Y6710000D1*
G36*
X4545500Y6984000D2*
X4548111Y6983829D1*
X4550676Y6983319D1*
X4553154Y6982478D1*
X4555500Y6981321D1*
X4557675Y6979867D1*
X4559642Y6978142D1*
X4561367Y6976175D1*
X4562821Y6974000D1*
X4563978Y6971654D1*
X4564819Y6969176D1*
X4565329Y6966611D1*
X4565500Y6964000D1*
X4565329Y6961389D1*
X4564819Y6958824D1*
X4563978Y6956346D1*
X4562821Y6954000D1*
X4561367Y6951825D1*
X4559642Y6949858D1*
X4557675Y6948133D1*
X4555500Y6946679D1*
X4553154Y6945522D1*
X4550676Y6944681D1*
X4548111Y6944171D1*
X4545500Y6944000D1*
D1*
X4542889Y6944171D1*
X4540324Y6944681D1*
X4537846Y6945522D1*
X4535500Y6946679D1*
X4533325Y6948133D1*
X4531358Y6949858D1*
X4529633Y6951825D1*
X4528179Y6954000D1*
X4527022Y6956346D1*
X4526181Y6958824D1*
X4525671Y6961389D1*
X4525500Y6964000D1*
X4525671Y6966611D1*
X4526181Y6969176D1*
X4527022Y6971654D1*
X4528179Y6974000D1*
X4529633Y6976175D1*
X4531358Y6978142D1*
X4533325Y6979867D1*
X4535500Y6981321D1*
X4537846Y6982478D1*
X4540324Y6983319D1*
X4542889Y6983829D1*
X4545500Y6984000D1*
D1*
G37*
X2967000Y5916000D2*
D13*
Y5964000D1*
X3063000Y5916000D2*
Y5964000D1*
X3066000Y7038000D2*
X3114000D1*
X3066000Y6942000D2*
X3114000D1*
X2493000Y5964000D2*
Y5916000D1*
X2397000Y5964000D2*
Y5916000D1*
X2544000Y6942000D2*
X2496000D1*
X2544000Y7038000D2*
X2496000D1*
X4201000Y8850500D2*
X4249000D1*
X4201000Y8754500D2*
X4249000D1*
X4201000Y8713000D2*
X4249000D1*
X4201000Y8617000D2*
X4249000D1*
X2164997Y15366250D2*
D10*
X2085003D1*
X2164997Y15451250D2*
X2085003D1*
X2164998Y15466251D2*
X2085004Y15466249D1*
X2164996Y15551251D2*
X2085002Y15551249D1*
X2582004Y7346997D2*
D13*
X2581996Y7782997D1*
X2918004Y7347003D2*
X2917996Y7783003D1*
X4107000Y5916000D2*
Y5964000D1*
X4203000Y5916000D2*
Y5964000D1*
X4206000Y7038000D2*
X4254000D1*
X4206000Y6942000D2*
X4254000D1*
X3633000Y5964000D2*
Y5916000D1*
X3537000Y5964000D2*
Y5916000D1*
X3684000Y6942000D2*
X3636000D1*
X3684000Y7038000D2*
X3636000D1*
X4201000Y8988000D2*
X4249000D1*
X4201000Y8892000D2*
X4249000D1*
X4201000Y9125500D2*
X4249000D1*
X4201000Y9029500D2*
X4249000D1*
X4081954Y7346997D2*
X4081946Y7782997D1*
X4417954Y7347003D2*
X4417946Y7783003D1*
X4510500Y8664000D2*
Y8616000D1*
X4414500Y8664000D2*
Y8616000D1*
X1108300Y15491000D2*
Y15539000D1*
X1204300Y15491000D2*
Y15539000D1*
X2610500Y2489000D2*
Y2441000D1*
X2514500Y2489000D2*
Y2441000D1*
X5173000Y2489000D2*
Y2441000D1*
X5077000Y2489000D2*
Y2441000D1*
X2751000Y9125500D2*
X2799000D1*
X2751000Y9029500D2*
X2799000D1*
X1589500Y2441000D2*
Y2489000D1*
X1685500Y2441000D2*
Y2489000D1*
X1439500Y2441000D2*
Y2489000D1*
X1535500Y2441000D2*
Y2489000D1*
X2751000Y8988000D2*
X2799000D1*
X2751000Y8892000D2*
X2799000D1*
X3077000Y9403499D2*
Y9451499D1*
X3173000Y9403501D2*
Y9451501D1*
X3322999Y9451502D2*
X3323001Y9403502D1*
X3226999Y9451498D2*
X3227001Y9403498D1*
X3498000Y2489000D2*
Y2441000D1*
X3402000Y2489000D2*
Y2441000D1*
X3648000Y2489000D2*
Y2441000D1*
X3552000Y2489000D2*
Y2441000D1*
X3197999Y2489001D2*
X3198001Y2441001D1*
X3101999Y2488999D2*
X3102001Y2440999D1*
X3348000Y2489000D2*
Y2441000D1*
X3252000Y2489000D2*
Y2441000D1*
X5227000D2*
Y2489000D1*
X5323000Y2441000D2*
Y2489000D1*
X4314500Y2440999D2*
Y2488999D1*
X4410500Y2441001D2*
Y2489001D1*
X5110003Y16420000D2*
D10*
X5189997D1*
X5110003Y16335000D2*
X5189997D1*
X4957501Y16387503D2*
X4957499Y16467496D1*
X5042501Y16387504D2*
X5042499Y16467497D1*
X4032999Y13364001D2*
D13*
X4033001Y13316001D1*
X3936999Y13363999D2*
X3937001Y13315999D1*
X3936501Y12242001D2*
X3888501Y12241999D1*
X3936499Y12338001D2*
X3888499Y12337999D1*
X4507000Y13316000D2*
Y13364000D1*
X4603000Y13316000D2*
Y13364000D1*
X4451000Y12338000D2*
X4499000D1*
X4451000Y12242000D2*
X4499000D1*
X2799000Y10429500D2*
X2751000D1*
X2799000Y10525500D2*
X2751000D1*
X2799000Y10567000D2*
X2751000D1*
X2799000Y10663000D2*
X2751000D1*
X4417994Y11933004D2*
X4418006Y11497004D1*
X4081994Y11932996D2*
X4082006Y11496996D1*
X2893000Y13364000D2*
Y13316000D1*
X2797000Y13364000D2*
Y13316000D1*
X2799001Y12242001D2*
X2751001Y12241999D1*
X2798999Y12338001D2*
X2750999Y12337999D1*
X3367000Y13316000D2*
Y13364000D1*
X3463000Y13316000D2*
Y13364000D1*
X3326000Y12338000D2*
X3374000D1*
X3326000Y12242000D2*
X3374000D1*
X2799000Y10292000D2*
X2751000D1*
X2799000Y10388000D2*
X2751000D1*
X2799000Y10154500D2*
X2751000D1*
X2799000Y10250500D2*
X2751000D1*
X2917988Y11933009D2*
X2918012Y11497009D1*
X2581988Y11932991D2*
X2582012Y11496991D1*
X2502001Y10628498D2*
X2501999Y10676498D1*
X2598001Y10628502D2*
X2597999Y10676502D1*
X3922999Y9876502D2*
X3923001Y9828502D1*
X3826999Y9876498D2*
X3827001Y9828498D1*
X3677000Y9828499D2*
Y9876499D1*
X3773000Y9828501D2*
Y9876501D1*
X4249000Y10092000D2*
X4201000D1*
X4249000Y10188000D2*
X4201000D1*
X4249000Y10229500D2*
X4201000D1*
X4249000Y10325500D2*
X4201000D1*
X5802000Y15490999D2*
Y15538999D1*
X5898000Y15491001D2*
Y15539001D1*
X2799000Y9167000D2*
X2751000D1*
X2799000Y9263000D2*
X2751000D1*
X4201000Y10050500D2*
X4249000D1*
X4201000Y9954500D2*
X4249000D1*
X4842994Y11933004D2*
X4843006Y11497004D1*
X4506994Y11932996D2*
X4507006Y11496996D1*
X2493000Y11933000D2*
Y11497000D1*
X2157000Y11933000D2*
Y11497000D1*
X2157004Y7346997D2*
X2156996Y7782997D1*
X2493004Y7347003D2*
X2492996Y7783003D1*
X4507004Y7346997D2*
X4506996Y7782997D1*
X4843004Y7347003D2*
X4842996Y7783003D1*
X4394500Y15795500D2*
X4830500D1*
X4394500Y15459500D2*
X4830500D1*
X2357008Y9463995D2*
X2533008Y9464003D1*
X2356992Y9815995D2*
X2532992Y9816003D1*
G36*
X2606007Y9491007D2*
X2602744Y9491220D1*
X2599537Y9491858D1*
X2596440Y9492909D1*
X2593507Y9494355D1*
X2590788Y9496172D1*
X2588329Y9498328D1*
X2586173Y9500787D1*
X2584356Y9503506D1*
X2582909Y9506438D1*
X2581858Y9509535D1*
X2581220Y9512742D1*
X2581006Y9516005D1*
X2581220Y9519269D1*
X2581857Y9522476D1*
X2582908Y9525573D1*
X2584355Y9528506D1*
X2586171Y9531225D1*
X2588327Y9533684D1*
X2590786Y9535840D1*
X2593505Y9537657D1*
X2596438Y9539103D1*
X2599534Y9540155D1*
X2602742Y9540793D1*
X2606005Y9541007D1*
D1*
X2609268Y9540793D1*
X2612475Y9540155D1*
X2615572Y9539104D1*
X2618505Y9537658D1*
X2621224Y9535841D1*
X2623683Y9533685D1*
X2625839Y9531227D1*
X2627656Y9528508D1*
X2629102Y9525575D1*
X2630154Y9522478D1*
X2630792Y9519271D1*
X2631006Y9516008D1*
X2630792Y9512745D1*
X2630154Y9509537D1*
X2629103Y9506441D1*
X2627657Y9503508D1*
X2625840Y9500789D1*
X2623684Y9498330D1*
X2621226Y9496174D1*
X2618507Y9494357D1*
X2615574Y9492910D1*
X2612478Y9491859D1*
X2609270Y9491221D1*
X2606007Y9491007D1*
D1*
G37*
X4642995Y9816003D2*
D13*
X4466995Y9815998D1*
X4643005Y9464003D2*
X4467005Y9463998D1*
G36*
X4393996Y9788996D2*
X4397259Y9788783D1*
X4400467Y9788145D1*
X4403563Y9787094D1*
X4406496Y9785647D1*
X4409215Y9783831D1*
X4411674Y9781675D1*
X4413830Y9779216D1*
X4415647Y9776497D1*
X4417094Y9773564D1*
X4418145Y9770467D1*
X4418783Y9767260D1*
X4418997Y9763997D1*
X4418783Y9760734D1*
X4418145Y9757527D1*
X4417094Y9754430D1*
X4415648Y9751497D1*
X4413831Y9748778D1*
X4411675Y9746319D1*
X4409216Y9744163D1*
X4406497Y9742346D1*
X4403564Y9740900D1*
X4400468Y9739848D1*
X4397261Y9739210D1*
X4393997Y9738996D1*
D1*
X4390734Y9739210D1*
X4387527Y9739848D1*
X4384430Y9740899D1*
X4381497Y9742345D1*
X4378778Y9744162D1*
X4376320Y9746318D1*
X4374163Y9748777D1*
X4372346Y9751496D1*
X4370900Y9754429D1*
X4369849Y9757525D1*
X4369211Y9760733D1*
X4368997Y9763996D1*
X4369211Y9767259D1*
X4369848Y9770466D1*
X4370900Y9773563D1*
X4372346Y9776496D1*
X4374163Y9779215D1*
X4376319Y9781674D1*
X4378777Y9783830D1*
X4381496Y9785647D1*
X4384429Y9787093D1*
X4387526Y9788144D1*
X4390733Y9788782D1*
X4393996Y9788996D1*
D1*
G37*
X2399250Y4229500D2*
D13*
Y4375500D1*
X2663250Y4229500D2*
Y4375500D1*
X4600750D2*
Y4229500D1*
X4336750Y4375500D2*
Y4229500D1*
X4600750Y15050500D2*
Y14904500D1*
X4336750Y15050500D2*
Y14904500D1*
X2399250D2*
Y15050500D1*
X2663250Y14904500D2*
Y15050500D1*
X1922000Y15853000D2*
Y15677000D1*
X2228000Y15853000D2*
Y15677000D1*
G36*
X1888000Y15609000D2*
X1888214Y15612263D1*
X1888852Y15615470D1*
X1889903Y15618567D1*
X1891349Y15621500D1*
X1893166Y15624219D1*
X1895322Y15626678D1*
X1897781Y15628834D1*
X1900500Y15630651D1*
X1903433Y15632097D1*
X1906530Y15633148D1*
X1909737Y15633786D1*
X1913000Y15634000D1*
X1916263Y15633786D1*
X1919470Y15633148D1*
X1922567Y15632097D1*
X1925500Y15630651D1*
X1928219Y15628834D1*
X1930678Y15626678D1*
X1932834Y15624219D1*
X1934651Y15621500D1*
X1936097Y15618567D1*
X1937148Y15615470D1*
X1937786Y15612263D1*
X1938000Y15609000D1*
D1*
X1937786Y15605737D1*
X1937148Y15602530D1*
X1936097Y15599433D1*
X1934651Y15596500D1*
X1932834Y15593781D1*
X1930678Y15591322D1*
X1928219Y15589166D1*
X1925500Y15587349D1*
X1922567Y15585903D1*
X1919470Y15584852D1*
X1916263Y15584214D1*
X1913000Y15584000D1*
X1909737Y15584214D1*
X1906530Y15584852D1*
X1903433Y15585903D1*
X1900500Y15587349D1*
X1897781Y15589166D1*
X1895322Y15591322D1*
X1893166Y15593781D1*
X1891349Y15596500D1*
X1889903Y15599433D1*
X1888852Y15602530D1*
X1888214Y15605737D1*
X1888000Y15609000D1*
D1*
G37*
X3808000Y8335000D2*
D13*
X3855000D1*
Y8382000D1*
X3145000D2*
Y8335000D1*
X3192000D1*
Y9045000D2*
X3145000D1*
Y8998000D1*
X3855000D2*
Y9045000D1*
X3808000D1*
G36*
X3972000Y8363000D2*
X3971786Y8359737D1*
X3971148Y8356530D1*
X3970097Y8353433D1*
X3968651Y8350500D1*
X3966834Y8347781D1*
X3964678Y8345322D1*
X3962219Y8343166D1*
X3959500Y8341349D1*
X3956567Y8339903D1*
X3953470Y8338852D1*
X3950263Y8338214D1*
X3947000Y8338000D1*
X3943737Y8338214D1*
X3940530Y8338852D1*
X3937433Y8339903D1*
X3934500Y8341349D1*
X3931781Y8343166D1*
X3929322Y8345322D1*
X3927166Y8347781D1*
X3925349Y8350500D1*
X3923903Y8353433D1*
X3922852Y8356530D1*
X3922214Y8359737D1*
X3922000Y8363000D1*
D1*
X3922214Y8366263D1*
X3922852Y8369470D1*
X3923903Y8372567D1*
X3925349Y8375500D1*
X3927166Y8378219D1*
X3929322Y8380678D1*
X3931781Y8382834D1*
X3934500Y8384651D1*
X3937433Y8386097D1*
X3940530Y8387148D1*
X3943737Y8387786D1*
X3947000Y8388000D1*
X3950263Y8387786D1*
X3953470Y8387148D1*
X3956567Y8386097D1*
X3959500Y8384651D1*
X3962219Y8382834D1*
X3964678Y8380678D1*
X3966834Y8378219D1*
X3968651Y8375500D1*
X3970097Y8372567D1*
X3971148Y8369470D1*
X3971786Y8366263D1*
X3972000Y8363000D1*
D1*
G37*
X5078000Y15977000D2*
D13*
Y16153000D1*
X4772000Y15977000D2*
Y16153000D1*
G36*
X5112000Y16221000D2*
X5111786Y16217737D1*
X5111148Y16214530D1*
X5110097Y16211433D1*
X5108651Y16208500D1*
X5106834Y16205781D1*
X5104678Y16203322D1*
X5102219Y16201166D1*
X5099500Y16199349D1*
X5096567Y16197903D1*
X5093470Y16196852D1*
X5090263Y16196214D1*
X5087000Y16196000D1*
X5083737Y16196214D1*
X5080530Y16196852D1*
X5077433Y16197903D1*
X5074500Y16199349D1*
X5071781Y16201166D1*
X5069322Y16203322D1*
X5067166Y16205781D1*
X5065349Y16208500D1*
X5063903Y16211433D1*
X5062852Y16214530D1*
X5062214Y16217737D1*
X5062000Y16221000D1*
D1*
X5062214Y16224263D1*
X5062852Y16227470D1*
X5063903Y16230567D1*
X5065349Y16233500D1*
X5067166Y16236219D1*
X5069322Y16238678D1*
X5071781Y16240834D1*
X5074500Y16242651D1*
X5077433Y16244097D1*
X5080530Y16245148D1*
X5083737Y16245786D1*
X5087000Y16246000D1*
X5090263Y16245786D1*
X5093470Y16245148D1*
X5096567Y16244097D1*
X5099500Y16242651D1*
X5102219Y16240834D1*
X5104678Y16238678D1*
X5106834Y16236219D1*
X5108651Y16233500D1*
X5110097Y16230567D1*
X5111148Y16227470D1*
X5111786Y16224263D1*
X5112000Y16221000D1*
D1*
G37*
X1304000Y3595000D2*
D13*
X1275000D1*
Y2835000D1*
X1304000D1*
X2296000Y3595000D2*
X2325000D1*
Y2835000D1*
X2296000D1*
G36*
X1260000Y2672000D2*
X1260214Y2675263D1*
X1260852Y2678470D1*
X1261903Y2681567D1*
X1263349Y2684500D1*
X1265166Y2687219D1*
X1267322Y2689678D1*
X1269781Y2691834D1*
X1272500Y2693651D1*
X1275433Y2695097D1*
X1278530Y2696148D1*
X1281737Y2696786D1*
X1285000Y2697000D1*
X1288263Y2696786D1*
X1291470Y2696148D1*
X1294567Y2695097D1*
X1297500Y2693651D1*
X1300219Y2691834D1*
X1302678Y2689678D1*
X1304834Y2687219D1*
X1306651Y2684500D1*
X1308097Y2681567D1*
X1309148Y2678470D1*
X1309786Y2675263D1*
X1310000Y2672000D1*
D1*
X1309786Y2668737D1*
X1309148Y2665530D1*
X1308097Y2662433D1*
X1306651Y2659500D1*
X1304834Y2656781D1*
X1302678Y2654322D1*
X1300219Y2652166D1*
X1297500Y2650349D1*
X1294567Y2648903D1*
X1291470Y2647852D1*
X1288263Y2647214D1*
X1285000Y2647000D1*
X1281737Y2647214D1*
X1278530Y2647852D1*
X1275433Y2648903D1*
X1272500Y2650349D1*
X1269781Y2652166D1*
X1267322Y2654322D1*
X1265166Y2656781D1*
X1263349Y2659500D1*
X1261903Y2662433D1*
X1260852Y2665530D1*
X1260214Y2668737D1*
X1260000Y2672000D1*
D1*
G37*
X3004000Y3595000D2*
D13*
X2975000D1*
Y2835000D1*
X3004000D1*
X3996000Y3595000D2*
X4025000D1*
Y2835000D1*
X3996000D1*
G36*
X2960000Y2672000D2*
X2960214Y2675263D1*
X2960852Y2678470D1*
X2961903Y2681567D1*
X2963349Y2684500D1*
X2965166Y2687219D1*
X2967322Y2689678D1*
X2969781Y2691834D1*
X2972500Y2693651D1*
X2975433Y2695097D1*
X2978530Y2696148D1*
X2981737Y2696786D1*
X2985000Y2697000D1*
X2988263Y2696786D1*
X2991470Y2696148D1*
X2994567Y2695097D1*
X2997500Y2693651D1*
X3000219Y2691834D1*
X3002678Y2689678D1*
X3004834Y2687219D1*
X3006651Y2684500D1*
X3008097Y2681567D1*
X3009148Y2678470D1*
X3009786Y2675263D1*
X3010000Y2672000D1*
D1*
X3009786Y2668737D1*
X3009148Y2665530D1*
X3008097Y2662433D1*
X3006651Y2659500D1*
X3004834Y2656781D1*
X3002678Y2654322D1*
X3000219Y2652166D1*
X2997500Y2650349D1*
X2994567Y2648903D1*
X2991470Y2647852D1*
X2988263Y2647214D1*
X2985000Y2647000D1*
X2981737Y2647214D1*
X2978530Y2647852D1*
X2975433Y2648903D1*
X2972500Y2650349D1*
X2969781Y2652166D1*
X2967322Y2654322D1*
X2965166Y2656781D1*
X2963349Y2659500D1*
X2961903Y2662433D1*
X2960852Y2665530D1*
X2960214Y2668737D1*
X2960000Y2672000D1*
D1*
G37*
X3191990Y10944991D2*
D13*
X3144990Y10944990D1*
X3144991Y10897990D1*
X3854991Y10898010D2*
X3854990Y10945010D1*
X3807990Y10945009D1*
X3808010Y10235009D2*
X3855010Y10235010D1*
X3855009Y10282010D1*
X3145009Y10281990D2*
X3145010Y10234990D1*
X3192010Y10234991D1*
G36*
X3027990Y10916986D2*
X3028204Y10920249D1*
X3028842Y10923457D1*
X3029893Y10926553D1*
X3031339Y10929486D1*
X3033156Y10932205D1*
X3035312Y10934664D1*
X3037771Y10936820D1*
X3040490Y10938637D1*
X3043423Y10940084D1*
X3046519Y10941135D1*
X3049727Y10941773D1*
X3052990Y10941987D1*
X3056253Y10941773D1*
X3059460Y10941135D1*
X3062557Y10940084D1*
X3065490Y10938638D1*
X3068209Y10936821D1*
X3070668Y10934665D1*
X3072824Y10932206D1*
X3074641Y10929488D1*
X3076087Y10926555D1*
X3077138Y10923458D1*
X3077776Y10920251D1*
X3077990Y10916988D1*
D1*
X3077777Y10913724D1*
X3077139Y10910517D1*
X3076088Y10907420D1*
X3074641Y10904488D1*
X3072825Y10901768D1*
X3070669Y10899310D1*
X3068210Y10897153D1*
X3065491Y10895337D1*
X3062558Y10893890D1*
X3059462Y10892839D1*
X3056254Y10892201D1*
X3052991Y10891987D1*
X3049728Y10892201D1*
X3046521Y10892839D1*
X3043424Y10893890D1*
X3040491Y10895336D1*
X3037772Y10897153D1*
X3035313Y10899309D1*
X3033157Y10901767D1*
X3031340Y10904486D1*
X3029894Y10907419D1*
X3028842Y10910516D1*
X3028204Y10913723D1*
X3027990Y10916986D1*
D1*
G37*
X4704000Y3595000D2*
D13*
X4675000D1*
Y2835000D1*
X4704000D1*
X5696000Y3595000D2*
X5725000D1*
Y2835000D1*
X5696000D1*
G36*
X4660000Y2672000D2*
X4660214Y2675263D1*
X4660852Y2678470D1*
X4661903Y2681567D1*
X4663349Y2684500D1*
X4665166Y2687219D1*
X4667322Y2689678D1*
X4669781Y2691834D1*
X4672500Y2693651D1*
X4675433Y2695097D1*
X4678530Y2696148D1*
X4681737Y2696786D1*
X4685000Y2697000D1*
X4688263Y2696786D1*
X4691470Y2696148D1*
X4694567Y2695097D1*
X4697500Y2693651D1*
X4700219Y2691834D1*
X4702678Y2689678D1*
X4704834Y2687219D1*
X4706651Y2684500D1*
X4708097Y2681567D1*
X4709148Y2678470D1*
X4709786Y2675263D1*
X4710000Y2672000D1*
D1*
X4709786Y2668737D1*
X4709148Y2665530D1*
X4708097Y2662433D1*
X4706651Y2659500D1*
X4704834Y2656781D1*
X4702678Y2654322D1*
X4700219Y2652166D1*
X4697500Y2650349D1*
X4694567Y2648903D1*
X4691470Y2647852D1*
X4688263Y2647214D1*
X4685000Y2647000D1*
X4681737Y2647214D1*
X4678530Y2647852D1*
X4675433Y2648903D1*
X4672500Y2650349D1*
X4669781Y2652166D1*
X4667322Y2654322D1*
X4665166Y2656781D1*
X4663349Y2659500D1*
X4661903Y2662433D1*
X4660852Y2665530D1*
X4660214Y2668737D1*
X4660000Y2672000D1*
D1*
G37*
X2255027Y9415030D2*
D13*
X2254973Y9865030D1*
X1725027Y9414966D2*
X1724973Y9864966D1*
G36*
X2298960Y9966036D2*
X2298747Y9962772D1*
X2298109Y9959565D1*
X2297058Y9956468D1*
X2295612Y9953535D1*
X2293796Y9950816D1*
X2291640Y9948357D1*
X2289182Y9946201D1*
X2286463Y9944383D1*
X2283530Y9942937D1*
X2280434Y9941885D1*
X2277226Y9941247D1*
X2273963Y9941033D1*
X2270700Y9941246D1*
X2267493Y9941884D1*
X2264396Y9942934D1*
X2261463Y9944380D1*
X2258744Y9946197D1*
X2256285Y9948353D1*
X2254128Y9950811D1*
X2252311Y9953530D1*
X2250864Y9956463D1*
X2249813Y9959559D1*
X2249174Y9962766D1*
X2248960Y9966030D1*
D1*
X2249174Y9969293D1*
X2249811Y9972500D1*
X2250862Y9975597D1*
X2252308Y9978530D1*
X2254125Y9981249D1*
X2256280Y9983708D1*
X2258739Y9985865D1*
X2261458Y9987682D1*
X2264390Y9989128D1*
X2267487Y9990180D1*
X2270694Y9990818D1*
X2273957Y9991033D1*
X2277220Y9990819D1*
X2280428Y9990182D1*
X2283524Y9989131D1*
X2286458Y9987685D1*
X2289177Y9985868D1*
X2291636Y9983712D1*
X2293792Y9981254D1*
X2295609Y9978535D1*
X2297056Y9975602D1*
X2298108Y9972506D1*
X2298746Y9969299D1*
X2298960Y9966036D1*
D1*
G37*
X4745000Y9865000D2*
D13*
Y9415000D1*
X5275000Y9865000D2*
Y9415000D1*
G36*
X4701000Y9314000D2*
X4701214Y9317263D1*
X4701852Y9320470D1*
X4702903Y9323567D1*
X4704349Y9326500D1*
X4706166Y9329219D1*
X4708322Y9331678D1*
X4710781Y9333834D1*
X4713500Y9335651D1*
X4716433Y9337097D1*
X4719530Y9338148D1*
X4722737Y9338786D1*
X4726000Y9339000D1*
X4729263Y9338786D1*
X4732470Y9338148D1*
X4735567Y9337097D1*
X4738500Y9335651D1*
X4741219Y9333834D1*
X4743678Y9331678D1*
X4745834Y9329219D1*
X4747651Y9326500D1*
X4749097Y9323567D1*
X4750148Y9320470D1*
X4750786Y9317263D1*
X4751000Y9314000D1*
D1*
X4750786Y9310737D1*
X4750148Y9307530D1*
X4749097Y9304433D1*
X4747651Y9301500D1*
X4745834Y9298781D1*
X4743678Y9296322D1*
X4741219Y9294166D1*
X4738500Y9292349D1*
X4735567Y9290903D1*
X4732470Y9289852D1*
X4729263Y9289214D1*
X4726000Y9289000D1*
X4722737Y9289214D1*
X4719530Y9289852D1*
X4716433Y9290903D1*
X4713500Y9292349D1*
X4710781Y9294166D1*
X4708322Y9296322D1*
X4706166Y9298781D1*
X4704349Y9301500D1*
X4702903Y9304433D1*
X4701852Y9307530D1*
X4701214Y9310737D1*
X4701000Y9314000D1*
D1*
G37*
X3986400Y17303967D2*
D36*
Y17275000D1*
Y16801033D2*
Y16830000D1*
X3013600Y17275000D2*
Y17303967D1*
Y16801033D2*
Y16830000D1*
Y17303967D2*
X3986400D1*
Y16801033D2*
X3013600D1*
G36*
X2889767Y17055033D2*
X2889938Y17057644D1*
X2890448Y17060210D1*
X2891289Y17062687D1*
X2892446Y17065033D1*
X2893900Y17067209D1*
X2895625Y17069175D1*
X2897591Y17070900D1*
X2899767Y17072354D1*
X2902113Y17073511D1*
X2904590Y17074352D1*
X2907156Y17074862D1*
X2909767Y17075033D1*
X2912377Y17074862D1*
X2914943Y17074352D1*
X2917420Y17073511D1*
X2919767Y17072354D1*
X2921942Y17070900D1*
X2923909Y17069175D1*
X2925634Y17067209D1*
X2927087Y17065033D1*
X2928244Y17062687D1*
X2929085Y17060210D1*
X2929596Y17057644D1*
X2929767Y17055033D1*
D1*
X2929596Y17052423D1*
X2929085Y17049857D1*
X2928244Y17047380D1*
X2927087Y17045033D1*
X2925634Y17042858D1*
X2923909Y17040891D1*
X2921942Y17039166D1*
X2919767Y17037713D1*
X2917420Y17036556D1*
X2914943Y17035715D1*
X2912377Y17035204D1*
X2909767Y17035033D1*
X2907156Y17035204D1*
X2904590Y17035715D1*
X2902113Y17036556D1*
X2899767Y17037713D1*
X2897591Y17039166D1*
X2895625Y17040891D1*
X2893900Y17042858D1*
X2892446Y17045033D1*
X2891289Y17047380D1*
X2890448Y17049857D1*
X2889938Y17052423D1*
X2889767Y17055033D1*
D1*
G37*
G36*
X5975000Y3352500D2*
X5887500D1*
X5737500Y3077500D1*
X5887500D1*
X5981190Y3249267D1*
X5975000Y3352500D1*
G37*
G36*
X5737500D2*
X5587500D1*
X5437500Y3077500D1*
X5587500D1*
X5737500Y3352500D1*
G37*
G36*
X5437500D2*
X5287500D1*
X5137500Y3077500D1*
X5287500D1*
X5437500Y3352500D1*
G37*
G36*
X3337500D2*
X3187500D1*
X3037500Y3077500D1*
X3187500D1*
X3337500Y3352500D1*
G37*
G36*
X5137500D2*
X4987500D1*
X4837500Y3077500D1*
X4987500D1*
X5137500Y3352500D1*
G37*
G36*
X4837500D2*
X4687500D1*
X4537500Y3077500D1*
X4687500D1*
X4837500Y3352500D1*
G37*
G36*
X4537500D2*
X4387500D1*
X4237500Y3077500D1*
X4387500D1*
X4537500Y3352500D1*
G37*
G36*
X3637500D2*
X3487500D1*
X3337500Y3077500D1*
X3487500D1*
X3637500Y3352500D1*
G37*
G36*
X4237500D2*
X4087500D1*
X3937500Y3077500D1*
X4087500D1*
X4237500Y3352500D1*
G37*
G36*
X2437500D2*
X2287500D1*
X2137500Y3077500D1*
X2287500D1*
X2437500Y3352500D1*
G37*
G36*
X3937500D2*
X3787500D1*
X3637500Y3077500D1*
X3787500D1*
X3937500Y3352500D1*
G37*
G36*
X3037500D2*
X2887500D1*
X2737500Y3077500D1*
X2887500D1*
X3037500Y3352500D1*
G37*
G36*
X2737500D2*
X2587500D1*
X2437500Y3077500D1*
X2587500D1*
X2737500Y3352500D1*
G37*
G36*
X2137500D2*
X1987500D1*
X1837500Y3077500D1*
X1987500D1*
X2137500Y3352500D1*
G37*
G36*
X1537500D2*
X1387500D1*
X1237500Y3077500D1*
X1387500D1*
X1537500Y3352500D1*
G37*
G36*
X1837500D2*
X1687500D1*
X1537500Y3077500D1*
X1687500D1*
X1837500Y3352500D1*
G37*
G36*
X1237500D2*
X1087500D1*
X1012500Y3215000D1*
Y3077500D1*
X1087500D1*
X1237500Y3352500D1*
G37*
X1880000Y9170000D2*
D10*
X1885000Y11660000D1*
X1609993Y11660007D2*
X1885000Y11660000D1*
X1610073Y9170007D2*
X1880000Y9170000D1*
X5115000Y11660000D2*
Y9170000D1*
X5390010Y9169990D2*
X5115000Y9170000D1*
X5389910Y11659990D2*
X5115000Y11660000D1*
X2712500Y17302500D2*
D28*
Y16640000D1*
X2587500D1*
Y16440000D1*
X2012500D1*
Y16640000D1*
X1887500D1*
Y17302500D1*
X3212500Y11890000D2*
D24*
G02X3212500Y11890000I287500J0D01*
G01*
Y7390000D2*
G02X3212500Y7390000I287500J0D01*
G01*
G36*
X4572920Y10892080D2*
X4722920D1*
Y10717080D1*
X4572920D1*
Y10892080D1*
G37*
G36*
X4772920D2*
X4922920D1*
Y10717080D1*
X4772920D1*
Y10892080D1*
G37*
X1112500Y17290000D2*
D17*
Y17215000D1*
X1175000D2*
X1050000D1*
X1025000Y17165000D1*
X1112500Y17215000D2*
X1087500Y17165000D1*
X1175000Y17215000D2*
X1150000Y17165000D1*
X5912500Y17290000D2*
Y17215000D1*
X5975000D2*
X5850000D1*
X5825000Y17165000D1*
X5912500Y17215000D2*
X5887500Y17165000D1*
X5975000Y17215000D2*
X5950000Y17165000D1*
X5237500Y11415000D2*
X5200000D1*
Y11352500D2*
Y11477500D1*
X5150000Y11502500D1*
X5200000Y11415000D2*
X5150000Y11440000D1*
X5200000Y11352500D2*
X5150000Y11377500D1*
G36*
X1471333Y11801159D2*
X1473333Y11802159D1*
X1475333D1*
X1479333Y11800159D1*
X1483333Y11796159D1*
Y11794159D1*
X1484333Y11791159D1*
X1485333Y11787159D1*
X1489333Y11775159D1*
X1490333Y11771159D1*
X1493333Y11762159D1*
X1494333Y11758159D1*
X1498333Y11746159D1*
X1499333Y11742159D1*
X1503333Y11730159D1*
X1504333Y11726159D1*
X1506333Y11720159D1*
X1507333Y11719159D1*
Y11714159D1*
X1506333Y11713159D1*
Y11712159D1*
X1503333Y11709159D1*
X1501333Y11708159D1*
X1589333D1*
Y11848159D1*
X1033333D1*
Y11801159D1*
X1122333D1*
X1137000Y11802159D1*
X1151667D1*
X1166333Y11801159D1*
X1187333D1*
X1189333Y11802159D1*
X1191333D1*
X1195333Y11800159D1*
X1199333Y11796159D1*
Y11795159D1*
X1202333Y11789159D1*
X1204333Y11786159D1*
X1210333Y11774159D1*
X1212333Y11771159D1*
X1218333Y11759159D1*
X1220333Y11756159D1*
X1222333Y11752159D1*
X1223333Y11796159D1*
Y11797159D1*
X1226333Y11800159D1*
X1230333Y11802159D1*
X1232333D1*
X1236333Y11800159D1*
X1239333Y11797159D1*
Y11796159D1*
X1240333Y11795159D1*
Y11714159D1*
X1239333Y11713159D1*
Y11712159D1*
X1236333Y11709159D1*
X1232333Y11707159D1*
X1230333D1*
X1226333Y11709159D1*
X1222333Y11713159D1*
Y11714159D1*
X1219333Y11720159D1*
X1217333Y11723159D1*
X1211333Y11735159D1*
X1209333Y11738159D1*
X1203333Y11750159D1*
X1201333Y11753159D1*
X1199333Y11757159D1*
X1198333Y11713159D1*
Y11712159D1*
X1195333Y11709159D1*
X1191333Y11707159D1*
X1189333D1*
X1185333Y11709159D1*
X1182333Y11712159D1*
Y11713159D1*
X1181333Y11714159D1*
Y11795159D1*
X1182333Y11796159D1*
Y11797159D1*
X1185333Y11800159D1*
X1187333Y11801159D1*
X1166333D1*
X1168333Y11800159D1*
X1171333Y11797159D1*
Y11796159D1*
X1172333Y11795159D1*
Y11791159D1*
X1171333Y11790159D1*
Y11789159D1*
X1168333Y11786159D1*
X1166333Y11785159D1*
X1134333Y11784159D1*
Y11765159D1*
X1152333Y11764159D1*
X1154333Y11763159D1*
X1157333Y11760159D1*
Y11759159D1*
X1158333Y11758159D1*
Y11754159D1*
X1157333Y11753159D1*
Y11752159D1*
X1154333Y11749159D1*
X1152333Y11748159D1*
X1134333Y11747159D1*
Y11725159D1*
X1166333Y11724159D1*
X1168333Y11723159D1*
X1171333Y11720159D1*
Y11719159D1*
X1172333Y11718159D1*
Y11714159D1*
X1171333Y11713159D1*
Y11712159D1*
X1168333Y11709159D1*
X1166333Y11708159D1*
X1151667Y11707159D1*
X1137000D1*
X1122333Y11708159D1*
X1120333Y11709159D1*
X1117333Y11712159D1*
Y11713159D1*
X1116333Y11714159D1*
Y11795159D1*
X1117333Y11796159D1*
Y11797159D1*
X1120333Y11800159D1*
X1122333Y11801159D1*
X1033333D1*
Y11707159D1*
X1361333D1*
X1362333Y11708159D1*
X1345333D1*
X1343333Y11707159D1*
X1341333D1*
X1337333Y11709159D1*
X1334333Y11712159D1*
Y11713159D1*
X1333333Y11771159D1*
X1332333Y11770159D1*
X1330000Y11769159D1*
X1327667D1*
X1325333Y11770159D1*
X1323333Y11771159D1*
X1320333Y11774159D1*
Y11775159D1*
X1319333Y11776159D1*
Y11780159D1*
X1320333Y11781159D1*
Y11782159D1*
X1325333Y11787159D1*
X1327333Y11788159D1*
X1331333Y11792159D1*
X1335333Y11797159D1*
Y11798159D1*
X1341333Y11801159D1*
X1343333D1*
X1347333Y11799159D1*
X1350333Y11796159D1*
Y11795159D1*
X1351333Y11794159D1*
Y11714159D1*
X1350333Y11713159D1*
Y11712159D1*
X1347333Y11709159D1*
X1345333Y11708159D1*
X1362333D1*
X1364333Y11710159D1*
X1366333Y11711159D1*
X1386667Y11712159D1*
X1407000D1*
X1427333Y11711159D1*
X1429333Y11710159D1*
X1432333Y11707159D1*
Y11706159D1*
X1433333Y11705159D1*
Y11701159D1*
X1432333Y11700159D1*
Y11699159D1*
X1429333Y11696159D1*
X1427333Y11695159D1*
X1407000Y11694159D1*
X1386667D1*
X1366333Y11695159D1*
X1364333Y11696159D1*
X1361333Y11699159D1*
Y11700159D1*
X1360333Y11701159D1*
Y11705159D1*
X1361333Y11706159D1*
Y11707159D1*
X1033333D1*
Y11663159D1*
X1589333D1*
Y11708159D1*
X1501333D1*
X1499333Y11707159D1*
X1497333D1*
X1493333Y11709159D1*
X1489333Y11713159D1*
Y11715159D1*
X1488333Y11718159D1*
X1487333Y11722159D1*
X1484333Y11731159D1*
X1483333Y11733159D1*
X1466333D1*
X1465333Y11732159D1*
X1464333Y11729159D1*
X1463333Y11725159D1*
X1461333Y11719159D1*
X1460333Y11715159D1*
Y11713159D1*
X1456333Y11709159D1*
X1452333Y11707159D1*
X1450333D1*
X1446333Y11709159D1*
X1443333Y11712159D1*
Y11713159D1*
X1442333Y11714159D1*
Y11719159D1*
X1443333Y11720159D1*
X1444333Y11723159D1*
X1445333Y11727159D1*
X1447333Y11733159D1*
X1448333Y11737159D1*
X1450333Y11743159D1*
X1451333Y11747159D1*
X1453333Y11753159D1*
X1454333Y11757159D1*
X1455333Y11760159D1*
X1456333Y11764159D1*
X1458333Y11770159D1*
X1459333Y11774159D1*
X1461333Y11780159D1*
X1462333Y11784159D1*
X1464333Y11790159D1*
X1465333Y11794159D1*
Y11796159D1*
X1469333Y11800159D1*
X1471333Y11801159D1*
X1289333D1*
X1295333Y11797159D1*
X1297333Y11796159D1*
X1304333Y11789159D1*
Y11788159D1*
X1307333Y11783159D1*
X1308333Y11781159D1*
X1309333Y11778159D1*
X1310333Y11777159D1*
Y11772159D1*
X1309333Y11771159D1*
Y11770159D1*
X1306333Y11767159D1*
X1302333Y11765159D1*
X1300333D1*
X1296333Y11767159D1*
X1292333Y11771159D1*
Y11773159D1*
X1291333Y11775159D1*
X1290333Y11778159D1*
X1284333Y11784159D1*
X1277333D1*
X1271333Y11778159D1*
X1270333Y11775159D1*
X1269333Y11773159D1*
X1268333Y11770159D1*
X1267333Y11766159D1*
X1266333Y11763159D1*
Y11745159D1*
X1267333Y11742159D1*
X1268333Y11738159D1*
X1269333Y11736159D1*
X1270333Y11733159D1*
X1271333Y11731159D1*
X1275333Y11726159D1*
X1277333Y11725159D1*
X1283333D1*
X1285333Y11726159D1*
X1290333Y11731159D1*
X1291333Y11733159D1*
X1292333Y11736159D1*
Y11737159D1*
X1296333Y11741159D1*
X1300333Y11743159D1*
X1302333D1*
X1306333Y11741159D1*
X1309333Y11738159D1*
Y11737159D1*
X1310333Y11736159D1*
Y11731159D1*
X1309333Y11730159D1*
X1308333Y11728159D1*
X1307333Y11725159D1*
X1304333Y11721159D1*
Y11720159D1*
X1296333Y11712159D1*
X1294333Y11711159D1*
X1291333Y11709159D1*
X1290333Y11708159D1*
X1284333Y11707159D1*
X1278333D1*
X1272333Y11708159D1*
X1268333Y11710159D1*
X1267333Y11711159D1*
X1264333Y11713159D1*
X1256333Y11721159D1*
Y11722159D1*
X1254333Y11725159D1*
X1253333Y11728159D1*
X1252333Y11730159D1*
X1251333Y11734159D1*
X1250333Y11737159D1*
X1249333Y11741159D1*
X1248333Y11742159D1*
Y11766159D1*
X1249333Y11767159D1*
X1250333Y11771159D1*
X1251333Y11774159D1*
X1252333Y11778159D1*
X1253333Y11781159D1*
X1256333Y11787159D1*
X1262333Y11794159D1*
X1266333Y11798159D1*
X1268333Y11799159D1*
X1269333Y11800159D1*
X1271333Y11801159D1*
X1277333Y11802159D1*
X1283333D1*
X1289333Y11801159D1*
X1471333D1*
G37*
G36*
X1474333Y11762159D2*
Y11760159D1*
X1473333Y11759159D1*
X1472333Y11756159D1*
X1471333Y11752159D1*
Y11751159D1*
X1477333D1*
Y11754159D1*
X1475333Y11760159D1*
X1474147Y11761284D1*
X1474333Y11762159D1*
G37*
G36*
X5847778Y11801129D2*
X5849778Y11802129D1*
X5851778D1*
X5855778Y11800129D1*
X5859778Y11796129D1*
Y11794129D1*
X5860778Y11791129D1*
X5861778Y11787129D1*
X5865778Y11775129D1*
X5866778Y11771129D1*
X5869778Y11762129D1*
X5870778Y11758129D1*
X5874778Y11746129D1*
X5875778Y11742129D1*
X5879778Y11730129D1*
X5880778Y11726129D1*
X5882778Y11720129D1*
X5883778Y11719129D1*
Y11714129D1*
X5882778Y11713129D1*
Y11712129D1*
X5879778Y11709129D1*
X5877778Y11708129D1*
X5965778D1*
Y11848129D1*
X5383778D1*
Y11801129D1*
X5472778D1*
X5487445Y11802129D1*
X5502111D1*
X5516778Y11801129D1*
X5537778D1*
X5539778Y11802129D1*
X5541778D1*
X5545778Y11800129D1*
X5549778Y11796129D1*
Y11795129D1*
X5552778Y11789129D1*
X5554778Y11786129D1*
X5560778Y11774129D1*
X5562778Y11771129D1*
X5568778Y11759129D1*
X5570778Y11756129D1*
X5572778Y11752129D1*
X5573778Y11796129D1*
Y11797129D1*
X5576778Y11800129D1*
X5580778Y11802129D1*
X5582778D1*
X5586778Y11800129D1*
X5589778Y11797129D1*
Y11796129D1*
X5590778Y11795129D1*
Y11714129D1*
X5589778Y11713129D1*
Y11712129D1*
X5586778Y11709129D1*
X5582778Y11707129D1*
X5580778D1*
X5576778Y11709129D1*
X5572778Y11713129D1*
Y11714129D1*
X5569778Y11720129D1*
X5567778Y11723129D1*
X5561778Y11735129D1*
X5559778Y11738129D1*
X5553778Y11750129D1*
X5551778Y11753129D1*
X5549778Y11757129D1*
X5548778Y11713129D1*
Y11712129D1*
X5545778Y11709129D1*
X5541778Y11707129D1*
X5539778D1*
X5535778Y11709129D1*
X5532778Y11712129D1*
Y11713129D1*
X5531778Y11714129D1*
Y11795129D1*
X5532778Y11796129D1*
Y11797129D1*
X5535778Y11800129D1*
X5537778Y11801129D1*
X5516778D1*
X5518778Y11800129D1*
X5521778Y11797129D1*
Y11796129D1*
X5522778Y11795129D1*
Y11791129D1*
X5521778Y11790129D1*
Y11789129D1*
X5518778Y11786129D1*
X5516778Y11785129D1*
X5484778Y11784129D1*
Y11765129D1*
X5501778Y11764129D1*
X5503778Y11763129D1*
X5506778Y11760129D1*
Y11759129D1*
X5507778Y11758129D1*
Y11754129D1*
X5506778Y11753129D1*
Y11752129D1*
X5503778Y11749129D1*
X5501778Y11748129D1*
X5484778Y11747129D1*
Y11725129D1*
X5516778Y11724129D1*
X5518778Y11723129D1*
X5521778Y11720129D1*
Y11719129D1*
X5522778Y11718129D1*
Y11714129D1*
X5521778Y11713129D1*
Y11712129D1*
X5518778Y11709129D1*
X5516778Y11708129D1*
X5502111Y11707129D1*
X5487445D1*
X5472778Y11708129D1*
X5470778Y11709129D1*
X5467778Y11712129D1*
Y11713129D1*
X5466778Y11714129D1*
Y11795129D1*
X5467778Y11796129D1*
Y11797129D1*
X5470778Y11800129D1*
X5472778Y11801129D1*
X5383778D1*
Y11707129D1*
X5737778D1*
X5738778Y11708129D1*
X5721778D1*
X5706445Y11707129D1*
X5691111D1*
X5675778Y11708129D1*
X5673778Y11709129D1*
X5670778Y11712129D1*
Y11713129D1*
X5669778Y11714129D1*
Y11718129D1*
X5670778Y11719129D1*
X5671778Y11721129D1*
X5676778Y11727129D1*
X5696778Y11752129D1*
X5699778Y11756129D1*
X5701778Y11760129D1*
X5703778Y11763129D1*
X5705778Y11767129D1*
X5706778Y11770129D1*
X5707778Y11772129D1*
Y11776129D1*
X5706778Y11779129D1*
X5705778Y11781129D1*
X5704778Y11782129D1*
X5702778Y11783129D1*
X5694778D1*
X5692778Y11782129D1*
X5691778Y11781129D1*
X5690778Y11778129D1*
X5689778Y11771129D1*
Y11770129D1*
X5686778Y11767129D1*
X5682778Y11765129D1*
X5680778D1*
X5676778Y11767129D1*
X5673778Y11770129D1*
Y11771129D1*
X5672778Y11772129D1*
Y11781129D1*
X5673778Y11782129D1*
X5674778Y11786129D1*
X5676778Y11790129D1*
X5679778Y11794129D1*
X5682778Y11797129D1*
X5688778Y11800129D1*
X5695445Y11801129D1*
X5702111D1*
X5708778Y11800129D1*
X5714778Y11797129D1*
X5719778Y11792129D1*
Y11791129D1*
X5722778Y11787129D1*
X5723778Y11784129D1*
X5724778Y11782129D1*
X5725778Y11781129D1*
Y11768129D1*
X5724778Y11767129D1*
X5723778Y11764129D1*
X5722778Y11762129D1*
X5721778Y11759129D1*
X5720778Y11757129D1*
X5718778Y11754129D1*
X5716778Y11750129D1*
X5713778Y11746129D1*
X5697778Y11726129D1*
Y11725129D1*
X5721778Y11724129D1*
X5723778Y11723129D1*
X5726778Y11720129D1*
Y11719129D1*
X5727778Y11718129D1*
Y11714129D1*
X5726778Y11713129D1*
Y11712129D1*
X5723778Y11709129D1*
X5721778Y11708129D1*
X5738778D1*
X5740778Y11710129D1*
X5742778Y11711129D1*
X5763111Y11712129D1*
X5783445D1*
X5803778Y11711129D1*
X5805778Y11710129D1*
X5808778Y11707129D1*
Y11706129D1*
X5809778Y11705129D1*
Y11701129D1*
X5808778Y11700129D1*
Y11699129D1*
X5805778Y11696129D1*
X5803778Y11695129D1*
X5783445Y11694129D1*
X5763111D1*
X5742778Y11695129D1*
X5740778Y11696129D1*
X5737778Y11699129D1*
Y11700129D1*
X5736778Y11701129D1*
Y11705129D1*
X5737778Y11706129D1*
Y11707129D1*
X5383778D1*
Y11663129D1*
X5965778D1*
Y11708129D1*
X5877778D1*
X5875778Y11707129D1*
X5873778D1*
X5869778Y11709129D1*
X5865778Y11713129D1*
Y11715129D1*
X5864778Y11718129D1*
X5863778Y11722129D1*
X5860778Y11731129D1*
X5859778Y11733129D1*
X5842778D1*
X5841778Y11732129D1*
X5840778Y11729129D1*
X5839778Y11725129D1*
X5837778Y11719129D1*
X5836778Y11715129D1*
Y11713129D1*
X5832778Y11709129D1*
X5828778Y11707129D1*
X5826778D1*
X5822778Y11709129D1*
X5819778Y11712129D1*
Y11713129D1*
X5818778Y11714129D1*
Y11719129D1*
X5819778Y11720129D1*
X5820778Y11723129D1*
X5821778Y11727129D1*
X5823778Y11733129D1*
X5824778Y11737129D1*
X5826778Y11743129D1*
X5827778Y11747129D1*
X5829778Y11753129D1*
X5830778Y11757129D1*
X5831778Y11760129D1*
X5832778Y11764129D1*
X5834778Y11770129D1*
X5835778Y11774129D1*
X5837778Y11780129D1*
X5838778Y11784129D1*
X5840778Y11790129D1*
X5841778Y11794129D1*
Y11796129D1*
X5845778Y11800129D1*
X5847778Y11801129D1*
X5639778D1*
X5645778Y11797129D1*
X5647778Y11796129D1*
X5654778Y11789129D1*
Y11788129D1*
X5657778Y11783129D1*
X5658778Y11781129D1*
X5659778Y11778129D1*
X5660778Y11777129D1*
Y11772129D1*
X5659778Y11771129D1*
Y11770129D1*
X5656778Y11767129D1*
X5652778Y11765129D1*
X5650778D1*
X5646778Y11767129D1*
X5642778Y11771129D1*
Y11773129D1*
X5641778Y11775129D1*
X5640778Y11778129D1*
X5634778Y11784129D1*
X5627778D1*
X5621778Y11778129D1*
X5620778Y11775129D1*
X5619778Y11773129D1*
X5618778Y11770129D1*
X5617778Y11766129D1*
X5616778Y11763129D1*
Y11745129D1*
X5617778Y11742129D1*
X5618778Y11738129D1*
X5619778Y11736129D1*
X5620778Y11733129D1*
X5621778Y11731129D1*
X5625778Y11726129D1*
X5627778Y11725129D1*
X5633778D1*
X5635778Y11726129D1*
X5640778Y11731129D1*
X5641778Y11733129D1*
X5642778Y11736129D1*
Y11737129D1*
X5646778Y11741129D1*
X5650778Y11743129D1*
X5652778D1*
X5656778Y11741129D1*
X5659778Y11738129D1*
Y11737129D1*
X5660778Y11736129D1*
Y11731129D1*
X5659778Y11730129D1*
X5658778Y11728129D1*
X5657778Y11725129D1*
X5654778Y11721129D1*
Y11720129D1*
X5646778Y11712129D1*
X5644778Y11711129D1*
X5641778Y11709129D1*
X5640778Y11708129D1*
X5634778Y11707129D1*
X5628778D1*
X5622778Y11708129D1*
X5618778Y11710129D1*
X5617778Y11711129D1*
X5614778Y11713129D1*
X5606778Y11721129D1*
Y11722129D1*
X5604778Y11725129D1*
X5603778Y11728129D1*
X5602778Y11730129D1*
X5601778Y11734129D1*
X5600778Y11737129D1*
X5599778Y11741129D1*
X5598778Y11742129D1*
Y11766129D1*
X5599778Y11767129D1*
X5600778Y11771129D1*
X5601778Y11774129D1*
X5602778Y11778129D1*
X5603778Y11781129D1*
X5606778Y11787129D1*
X5612778Y11794129D1*
X5616778Y11798129D1*
X5618778Y11799129D1*
X5619778Y11800129D1*
X5621778Y11801129D1*
X5627778Y11802129D1*
X5633778D1*
X5639778Y11801129D1*
X5847778D1*
G37*
G36*
X5850778Y11762129D2*
Y11760129D1*
X5849778Y11759129D1*
X5848778Y11756129D1*
X5847778Y11752129D1*
Y11751129D1*
X5853778D1*
Y11754129D1*
X5851778Y11760129D1*
X5850592Y11761254D1*
X5850778Y11762129D1*
G37*
G36*
X4491333Y15356143D2*
X4493333Y15355143D1*
X4494333Y15354143D1*
X4496333Y15353143D1*
X4505333Y15344143D1*
Y15343143D1*
X4508333Y15338143D1*
X4509333Y15336143D1*
X4510333Y15333143D1*
X4511333Y15329143D1*
X4512333Y15326143D1*
X4513333Y15322143D1*
X4514333Y15321143D1*
Y15297143D1*
X4513333Y15296143D1*
X4512333Y15292143D1*
X4511333Y15289143D1*
X4510333Y15285143D1*
X4509333Y15283143D1*
X4508333Y15280143D1*
X4505333Y15276143D1*
Y15275143D1*
X4496333Y15266143D1*
X4494333Y15265143D1*
X4493333Y15264143D1*
X4491333Y15263143D1*
X4485333Y15262143D1*
X4479333D1*
X4473333Y15263143D1*
X4469333Y15265143D1*
X4468333Y15266143D1*
X4465333Y15268143D1*
X4457333Y15276143D1*
Y15277143D1*
X4455333Y15280143D1*
X4454333Y15283143D1*
X4453333Y15285143D1*
X4452333Y15289143D1*
X4451333Y15292143D1*
X4450333Y15296143D1*
X4449333Y15297143D1*
Y15321143D1*
X4450333Y15322143D1*
X4451333Y15326143D1*
X4452333Y15329143D1*
X4453333Y15333143D1*
X4454333Y15336143D1*
X4457333Y15342143D1*
X4463333Y15349143D1*
X4467333Y15353143D1*
X4469333Y15354143D1*
X4472333Y15356143D1*
X4435333D1*
X4437333Y15355143D1*
X4440333Y15352143D1*
Y15351143D1*
X4441333Y15350143D1*
Y15269143D1*
X4440333Y15268143D1*
Y15267143D1*
X4437333Y15264143D1*
X4433333Y15262143D1*
X4431333D1*
X4427333Y15264143D1*
X4424333Y15267143D1*
Y15268143D1*
X4423333Y15289143D1*
X4419333Y15277143D1*
X4418333Y15273143D1*
X4417333Y15270143D1*
Y15268143D1*
X4413333Y15264143D1*
X4409333Y15262143D1*
X4407333D1*
X4403333Y15264143D1*
X4399333Y15268143D1*
Y15270143D1*
X4398333Y15274143D1*
X4396333Y15280143D1*
X4395333Y15284143D1*
X4394333Y15287143D1*
X4393333Y15268143D1*
Y15267143D1*
X4390333Y15264143D1*
X4386333Y15262143D1*
X4384333D1*
X4380333Y15264143D1*
X4377333Y15267143D1*
Y15268143D1*
X4376333Y15269143D1*
Y15350143D1*
X4377333Y15351143D1*
Y15352143D1*
X4380333Y15355143D1*
X4382333Y15356143D1*
X4293333D1*
Y15218143D1*
X4939333D1*
Y15263143D1*
X4851333D1*
X4835667Y15262143D1*
X4820000D1*
X4804333Y15263143D1*
X4802333Y15264143D1*
X4799333Y15267143D1*
Y15268143D1*
X4798333Y15269143D1*
Y15273143D1*
X4799333Y15274143D1*
X4800333Y15276143D1*
X4805333Y15282143D1*
X4825333Y15307143D1*
X4828333Y15311143D1*
X4830333Y15315143D1*
X4832333Y15318143D1*
X4834333Y15322143D1*
X4835333Y15325143D1*
X4836333Y15327143D1*
Y15331143D1*
X4835333Y15334143D1*
X4834333Y15336143D1*
X4833333Y15337143D1*
X4831333Y15338143D1*
X4824333D1*
X4822333Y15337143D1*
X4821333Y15336143D1*
X4820333Y15334143D1*
X4819333Y15331143D1*
X4818333Y15326143D1*
Y15325143D1*
X4815333Y15322143D1*
X4811333Y15320143D1*
X4809333D1*
X4805333Y15322143D1*
X4802333Y15325143D1*
Y15326143D1*
X4801333Y15327143D1*
Y15336143D1*
X4802333Y15337143D1*
X4803333Y15339143D1*
X4804333Y15342143D1*
X4806333Y15345143D1*
X4809333Y15349143D1*
X4812333Y15352143D1*
X4818333Y15355143D1*
X4824667Y15356143D1*
X4831000D1*
X4837333Y15355143D1*
X4843333Y15352143D1*
X4848333Y15347143D1*
Y15346143D1*
X4851333Y15342143D1*
X4852333Y15339143D1*
X4853333Y15337143D1*
X4854333Y15336143D1*
Y15323143D1*
X4853333Y15322143D1*
X4852333Y15319143D1*
X4851333Y15317143D1*
X4850333Y15314143D1*
X4849333Y15312143D1*
X4847333Y15309143D1*
X4845333Y15305143D1*
X4842333Y15301143D1*
X4826333Y15281143D1*
Y15280143D1*
X4851333Y15279143D1*
X4853333Y15278143D1*
X4856333Y15275143D1*
Y15274143D1*
X4857333Y15273143D1*
Y15269143D1*
X4856333Y15268143D1*
Y15267143D1*
X4853333Y15264143D1*
X4851333Y15263143D1*
X4939333D1*
Y15356143D1*
X4703333D1*
X4711333Y15352143D1*
X4716333Y15347143D1*
Y15346143D1*
X4719333Y15342143D1*
X4720333Y15339143D1*
X4721333Y15337143D1*
X4722333Y15336143D1*
Y15323143D1*
X4721333Y15322143D1*
X4720333Y15319143D1*
X4719333Y15317143D1*
Y15315143D1*
X4711333Y15307143D1*
X4707333Y15305143D1*
Y15303143D1*
X4721333Y15275143D1*
X4722333Y15274143D1*
Y15269143D1*
X4721333Y15268143D1*
Y15267143D1*
X4718333Y15264143D1*
X4714333Y15262143D1*
X4712333D1*
X4708333Y15264143D1*
X4704333Y15268143D1*
Y15269143D1*
X4688333Y15301143D1*
X4687333Y15302143D1*
X4681333D1*
X4680333Y15268143D1*
Y15267143D1*
X4677333Y15264143D1*
X4673333Y15262143D1*
X4671333D1*
X4669333Y15263143D1*
X4632333D1*
X4626333Y15262143D1*
X4620333D1*
X4614333Y15263143D1*
X4610333Y15265143D1*
X4609333Y15266143D1*
X4606333Y15268143D1*
X4598333Y15276143D1*
Y15277143D1*
X4596333Y15280143D1*
X4595333Y15283143D1*
X4594333Y15285143D1*
X4593333Y15289143D1*
X4592333Y15292143D1*
X4591333Y15296143D1*
X4590333Y15297143D1*
Y15321143D1*
X4591333Y15322143D1*
X4592333Y15326143D1*
X4593333Y15329143D1*
X4594333Y15333143D1*
X4595333Y15336143D1*
X4598333Y15342143D1*
X4604333Y15349143D1*
X4608333Y15353143D1*
X4610333Y15354143D1*
X4611333Y15355143D1*
X4613333Y15356143D1*
X4619333Y15357143D1*
X4625333D1*
X4631333Y15356143D1*
X4633333Y15355143D1*
X4634333Y15354143D1*
X4637333Y15352143D1*
X4639333Y15351143D1*
X4646333Y15344143D1*
Y15343143D1*
X4649333Y15338143D1*
X4650333Y15336143D1*
X4651333Y15333143D1*
X4652333Y15329143D1*
X4653333Y15326143D1*
X4654333Y15322143D1*
X4655333Y15321143D1*
Y15297143D1*
X4654333Y15296143D1*
X4653333Y15292143D1*
X4652333Y15289143D1*
X4651333Y15285143D1*
X4650333Y15283143D1*
X4649333Y15280143D1*
X4646333Y15276143D1*
Y15275143D1*
X4638333Y15267143D1*
X4636333Y15266143D1*
X4633333Y15264143D1*
X4632333Y15263143D1*
X4669333D1*
X4667333Y15264143D1*
X4664333Y15267143D1*
Y15268143D1*
X4663333Y15269143D1*
Y15350143D1*
X4664333Y15351143D1*
Y15352143D1*
X4667333Y15355143D1*
X4669333Y15356143D1*
X4680667Y15357143D1*
X4692000D1*
X4703333Y15356143D1*
X4939333D1*
Y15403143D1*
X4293333D1*
Y15356143D1*
X4382333D1*
X4384333Y15357143D1*
X4386333D1*
X4390333Y15355143D1*
X4394333Y15351143D1*
Y15349143D1*
X4395333Y15345143D1*
X4397333Y15339143D1*
X4398333Y15335143D1*
X4400333Y15329143D1*
X4401333Y15325143D1*
X4403333Y15319143D1*
X4404333Y15315143D1*
X4405333Y15312143D1*
X4406333Y15308143D1*
X4408333Y15302143D1*
X4409333Y15304143D1*
X4411333Y15310143D1*
X4412333Y15314143D1*
X4416333Y15326143D1*
X4417333Y15330143D1*
X4421333Y15342143D1*
X4422333Y15346143D1*
X4423333Y15349143D1*
Y15351143D1*
X4427333Y15355143D1*
X4431333Y15357143D1*
X4433333D1*
X4435333Y15356143D1*
X4472333D1*
X4478667Y15357143D1*
X4485000D1*
X4491333Y15356143D1*
X4529333D1*
X4545000Y15357143D1*
X4560667D1*
X4576333Y15356143D1*
X4578333Y15355143D1*
X4581333Y15352143D1*
Y15351143D1*
X4582333Y15350143D1*
Y15346143D1*
X4581333Y15345143D1*
Y15344143D1*
X4578333Y15341143D1*
X4576333Y15340143D1*
X4561333Y15339143D1*
X4560333Y15268143D1*
Y15267143D1*
X4557333Y15264143D1*
X4553333Y15262143D1*
X4551333D1*
X4547333Y15264143D1*
X4544333Y15267143D1*
Y15268143D1*
X4543333Y15339143D1*
X4529333Y15340143D1*
X4527333Y15341143D1*
X4524333Y15344143D1*
Y15345143D1*
X4523333Y15346143D1*
Y15350143D1*
X4524333Y15351143D1*
Y15352143D1*
X4527333Y15355143D1*
X4529333Y15356143D1*
X4491333D1*
G37*
G36*
X4478333Y15339143D2*
X4472333Y15333143D1*
X4471333Y15330143D1*
X4470333Y15328143D1*
X4469333Y15325143D1*
X4468333Y15321143D1*
X4467333Y15318143D1*
Y15300143D1*
X4468333Y15297143D1*
X4469333Y15293143D1*
X4470333Y15291143D1*
X4471333Y15288143D1*
X4472333Y15286143D1*
X4476333Y15281143D1*
X4478333Y15280143D1*
X4485333D1*
X4491333Y15286143D1*
X4492333Y15288143D1*
X4493333Y15291143D1*
X4494333Y15293143D1*
X4495333Y15297143D1*
X4496333Y15300143D1*
Y15318143D1*
X4495333Y15321143D1*
X4494333Y15325143D1*
X4493333Y15328143D1*
X4492333Y15330143D1*
X4491333Y15333143D1*
X4485333Y15339143D1*
X4478333D1*
G37*
G36*
X4619333D2*
X4613333Y15333143D1*
X4612333Y15330143D1*
X4611333Y15328143D1*
X4610333Y15325143D1*
X4609333Y15321143D1*
X4608333Y15318143D1*
Y15300143D1*
X4609333Y15297143D1*
X4610333Y15293143D1*
X4611333Y15291143D1*
X4612333Y15288143D1*
X4613333Y15286143D1*
X4617333Y15281143D1*
X4619333Y15280143D1*
X4625333D1*
X4627333Y15281143D1*
X4632333Y15286143D1*
X4633333Y15288143D1*
X4634333Y15291143D1*
X4635333Y15293143D1*
X4636333Y15297143D1*
X4637333Y15300143D1*
Y15318143D1*
X4636333Y15321143D1*
X4635333Y15325143D1*
X4634333Y15328143D1*
X4633333Y15330143D1*
X4632333Y15333143D1*
X4626333Y15339143D1*
X4619333D1*
G37*
G36*
X4681333D2*
Y15320143D1*
X4697333D1*
X4701333Y15322143D1*
X4702333Y15323143D1*
X4704333Y15327143D1*
Y15331143D1*
X4703333Y15334143D1*
X4702333Y15336143D1*
X4701333Y15337143D1*
X4697333Y15339143D1*
X4681333D1*
G37*
G36*
X2508642Y3928857D2*
X2506642Y3929857D1*
X2505642Y3930857D1*
X2503642Y3931857D1*
X2494642Y3940857D1*
Y3941857D1*
X2491642Y3946857D1*
X2490642Y3948857D1*
X2489642Y3951857D1*
X2488642Y3955857D1*
X2487642Y3958857D1*
X2486642Y3962857D1*
X2485642Y3963857D1*
Y3987857D1*
X2486642Y3988857D1*
X2487642Y3992857D1*
X2488642Y3995857D1*
X2489642Y3999857D1*
X2490642Y4001857D1*
X2491642Y4004857D1*
X2494642Y4008857D1*
Y4009857D1*
X2503642Y4018857D1*
X2505642Y4019857D1*
X2506642Y4020857D1*
X2508642Y4021857D1*
X2514642Y4022857D1*
X2520642D1*
X2526642Y4021857D1*
X2530642Y4019857D1*
X2531642Y4018857D1*
X2534642Y4016857D1*
X2542642Y4008857D1*
Y4007857D1*
X2544642Y4004857D1*
X2545642Y4001857D1*
X2546642Y3999857D1*
X2547642Y3995857D1*
X2548642Y3992857D1*
X2549642Y3988857D1*
X2550642Y3987857D1*
Y3963857D1*
X2549642Y3962857D1*
X2548642Y3958857D1*
X2547642Y3955857D1*
X2546642Y3951857D1*
X2545642Y3948857D1*
X2542642Y3942857D1*
X2536642Y3935857D1*
X2532642Y3931857D1*
X2530642Y3930857D1*
X2527642Y3928857D1*
X2564642D1*
X2562642Y3929857D1*
X2559642Y3932857D1*
Y3933857D1*
X2558642Y3934857D1*
Y4015857D1*
X2559642Y4016857D1*
Y4017857D1*
X2562642Y4020857D1*
X2566642Y4022857D1*
X2568642D1*
X2572642Y4020857D1*
X2575642Y4017857D1*
Y4016857D1*
X2576642Y3997857D1*
X2577642Y4000857D1*
X2578642Y4004857D1*
X2580642Y4010857D1*
X2581642Y4014857D1*
Y4016857D1*
X2585642Y4020857D1*
X2589642Y4022857D1*
X2591642D1*
X2595642Y4020857D1*
X2599642Y4016857D1*
Y4014857D1*
X2600642Y4011857D1*
X2601642Y4007857D1*
X2605642Y3995857D1*
X2606642Y4016857D1*
Y4017857D1*
X2609642Y4020857D1*
X2613642Y4022857D1*
X2615642D1*
X2619642Y4020857D1*
X2622642Y4017857D1*
Y4016857D1*
X2623642Y4015857D1*
Y3934857D1*
X2622642Y3933857D1*
Y3932857D1*
X2619642Y3929857D1*
X2617642Y3928857D1*
X2706642D1*
Y4066857D1*
X2086642D1*
Y4021857D1*
X2174642D1*
X2176642Y4022857D1*
X2178642D1*
X2182642Y4020857D1*
X2185642Y4017857D1*
Y4016857D1*
X2186642Y3958857D1*
X2187642D1*
X2188642Y3959857D1*
X2190975Y3960857D1*
X2193309D1*
X2195642Y3959857D1*
X2197642Y3958857D1*
X2200642Y3955857D1*
Y3954857D1*
X2201642Y3953857D1*
Y3949857D1*
X2200642Y3948857D1*
Y3947857D1*
X2195642Y3942857D1*
X2193642Y3941857D1*
X2184642Y3932857D1*
Y3931857D1*
X2178642Y3928857D1*
X2176642D1*
X2172642Y3930857D1*
X2169642Y3933857D1*
Y3934857D1*
X2168642Y3935857D1*
Y4015857D1*
X2169642Y4016857D1*
Y4017857D1*
X2172642Y4020857D1*
X2174642Y4021857D1*
X2086642D1*
Y3928857D1*
X2296642D1*
X2292642Y3930857D1*
X2289642Y3931857D1*
X2287642Y3932857D1*
X2282642Y3937857D1*
Y3938857D1*
X2279642Y3944857D1*
X2278642Y3947857D1*
X2277642Y3948857D1*
Y3961857D1*
X2278642Y3962857D1*
X2279642Y3966857D1*
Y3969857D1*
X2287642Y3977857D1*
X2289642Y3978857D1*
X2292642Y3979857D1*
Y3981857D1*
X2278642Y4009857D1*
X2277642Y4010857D1*
Y4015857D1*
X2278642Y4016857D1*
Y4017857D1*
X2281642Y4020857D1*
X2285642Y4022857D1*
X2287642D1*
X2291642Y4020857D1*
X2295642Y4016857D1*
Y4015857D1*
X2311642Y3983857D1*
X2312642Y3982857D1*
X2317642D1*
X2318642Y4016857D1*
Y4017857D1*
X2321642Y4020857D1*
X2325642Y4022857D1*
X2327642D1*
X2329642Y4021857D1*
X2367642D1*
X2373642Y4022857D1*
X2379642D1*
X2385642Y4021857D1*
X2389642Y4019857D1*
X2390642Y4018857D1*
X2393642Y4016857D1*
X2401642Y4008857D1*
Y4007857D1*
X2403642Y4004857D1*
X2404642Y4001857D1*
X2405642Y3999857D1*
X2406642Y3995857D1*
X2407642Y3992857D1*
X2408642Y3988857D1*
X2409642Y3987857D1*
Y3963857D1*
X2408642Y3962857D1*
X2407642Y3958857D1*
X2406642Y3955857D1*
X2405642Y3951857D1*
X2404642Y3948857D1*
X2401642Y3942857D1*
X2395642Y3935857D1*
X2391642Y3931857D1*
X2389642Y3930857D1*
X2388642Y3929857D1*
X2386642Y3928857D1*
X2380642Y3927857D1*
X2374642D1*
X2368642Y3928857D1*
X2366642Y3929857D1*
X2365642Y3930857D1*
X2362642Y3932857D1*
X2360642Y3933857D1*
X2353642Y3940857D1*
Y3941857D1*
X2350642Y3946857D1*
X2349642Y3948857D1*
X2348642Y3951857D1*
X2347642Y3955857D1*
X2346642Y3958857D1*
X2345642Y3962857D1*
X2344642Y3963857D1*
Y3987857D1*
X2345642Y3988857D1*
X2346642Y3992857D1*
X2347642Y3995857D1*
X2348642Y3999857D1*
X2349642Y4001857D1*
X2350642Y4004857D1*
X2353642Y4008857D1*
Y4009857D1*
X2361642Y4017857D1*
X2363642Y4018857D1*
X2366642Y4020857D1*
X2367642Y4021857D1*
X2329642D1*
X2331642Y4020857D1*
X2334642Y4017857D1*
Y4016857D1*
X2335642Y4015857D1*
Y3934857D1*
X2334642Y3933857D1*
Y3932857D1*
X2331642Y3929857D1*
X2329642Y3928857D1*
X2318642Y3927857D1*
X2307642D1*
X2296642Y3928857D1*
X2086642D1*
Y3881857D1*
X2706642D1*
Y3928857D1*
X2617642D1*
X2615642Y3927857D1*
X2613642D1*
X2609642Y3929857D1*
X2605642Y3933857D1*
Y3935857D1*
X2604642Y3938857D1*
X2603642Y3942857D1*
X2599642Y3954857D1*
X2598642Y3958857D1*
X2595642Y3967857D1*
X2594642Y3971857D1*
X2591642Y3980857D1*
X2590642Y3982857D1*
X2588642Y3976857D1*
X2587642Y3972857D1*
X2586642Y3969857D1*
X2585642Y3965857D1*
X2583642Y3959857D1*
X2582642Y3955857D1*
X2580642Y3949857D1*
X2579642Y3945857D1*
X2577642Y3939857D1*
X2576642Y3935857D1*
Y3933857D1*
X2572642Y3929857D1*
X2568642Y3927857D1*
X2566642D1*
X2564642Y3928857D1*
X2527642D1*
X2521309Y3927857D1*
X2514975D1*
X2508642Y3928857D1*
X2470642D1*
X2454975Y3927857D1*
X2439309D1*
X2423642Y3928857D1*
X2421642Y3929857D1*
X2418642Y3932857D1*
Y3933857D1*
X2417642Y3934857D1*
Y3938857D1*
X2418642Y3939857D1*
Y3940857D1*
X2421642Y3943857D1*
X2423642Y3944857D1*
X2438642Y3945857D1*
X2439642Y4016857D1*
Y4017857D1*
X2442642Y4020857D1*
X2446642Y4022857D1*
X2448642D1*
X2452642Y4020857D1*
X2455642Y4017857D1*
Y4016857D1*
X2456642Y3945857D1*
X2470642Y3944857D1*
X2472642Y3943857D1*
X2475642Y3940857D1*
Y3939857D1*
X2476642Y3938857D1*
Y3934857D1*
X2475642Y3933857D1*
Y3932857D1*
X2472642Y3929857D1*
X2470642Y3928857D1*
X2508642D1*
G37*
G36*
X2521642Y3945857D2*
X2527642Y3951857D1*
X2528642Y3954857D1*
X2529642Y3956857D1*
X2530642Y3959857D1*
X2531642Y3963857D1*
X2532642Y3966857D1*
Y3984857D1*
X2531642Y3987857D1*
X2530642Y3991857D1*
X2529642Y3993857D1*
X2528642Y3996857D1*
X2527642Y3998857D1*
X2523642Y4003857D1*
X2521642Y4004857D1*
X2514642D1*
X2508642Y3998857D1*
X2507642Y3996857D1*
X2506642Y3993857D1*
X2505642Y3991857D1*
X2504642Y3987857D1*
X2503642Y3984857D1*
Y3966857D1*
X2504642Y3963857D1*
X2505642Y3959857D1*
X2506642Y3956857D1*
X2507642Y3954857D1*
X2508642Y3951857D1*
X2514642Y3945857D1*
X2521642D1*
G37*
G36*
X2380642D2*
X2386642Y3951857D1*
X2387642Y3954857D1*
X2388642Y3956857D1*
X2389642Y3959857D1*
X2390642Y3963857D1*
X2391642Y3966857D1*
Y3984857D1*
X2390642Y3987857D1*
X2389642Y3991857D1*
X2388642Y3993857D1*
X2387642Y3996857D1*
X2386642Y3998857D1*
X2382642Y4003857D1*
X2380642Y4004857D1*
X2374642D1*
X2372642Y4003857D1*
X2367642Y3998857D1*
X2366642Y3996857D1*
X2365642Y3993857D1*
X2364642Y3991857D1*
X2363642Y3987857D1*
X2362642Y3984857D1*
Y3966857D1*
X2363642Y3963857D1*
X2364642Y3959857D1*
X2365642Y3956857D1*
X2366642Y3954857D1*
X2367642Y3951857D1*
X2373642Y3945857D1*
X2380642D1*
G37*
G36*
X2317642D2*
Y3964857D1*
X2302642D1*
X2297642Y3962857D1*
X2296642Y3961857D1*
X2295642Y3958857D1*
Y3952857D1*
X2296642Y3948857D1*
X2297642Y3947857D1*
X2302642Y3945857D1*
X2317642D1*
G37*
G36*
X2728444Y1869621D2*
Y1692954D1*
X2721778Y1686287D1*
X2718444Y1679621D1*
Y1666287D1*
X2721778Y1659621D1*
X2731778Y1649621D1*
X2738444Y1646287D1*
X2751778D1*
X2758444Y1649621D1*
X2768444Y1659621D1*
X2771778Y1666287D1*
Y1679621D1*
X2768444Y1686287D1*
X2761778Y1692954D1*
Y1809621D1*
X2765339Y1811846D1*
X2768444Y1812954D1*
X2785111Y1796287D1*
Y1792954D1*
X2918444Y1646287D1*
X2921778Y1642954D1*
X2925111D1*
Y1859621D1*
X2931778Y1866287D1*
Y1886287D1*
X2925111Y1896287D1*
X2911778Y1902954D1*
X2898444D1*
X2891778Y1899621D1*
X2881778Y1889621D1*
X2878444Y1879621D1*
Y1872954D1*
X2881778Y1862954D1*
X2888444Y1856287D1*
Y1736287D1*
X2884910Y1732667D1*
X2883184Y1733208D1*
X2881778Y1736287D1*
X2868444Y1752954D1*
X2735111Y1899621D1*
X2728444Y1906287D1*
Y1869621D1*
X2738444D1*
X2742012Y1871611D1*
X2744847Y1871237D1*
X2747713Y1868376D1*
X2748444Y1866287D1*
X2778444Y1832954D1*
X2811778Y1796287D1*
X2841778Y1762954D1*
X2875111Y1726287D1*
X2898444Y1702954D1*
Y1866287D1*
X2895111Y1872954D1*
X2891158Y1876702D1*
X2891778Y1879621D1*
X2898444Y1886287D1*
X2904000Y1889621D1*
X2909555D1*
X2915111Y1886287D1*
X2918444Y1882954D1*
Y1872954D1*
X2911778Y1866287D1*
Y1676287D1*
X2908243Y1672667D1*
X2906525Y1673201D1*
X2904385Y1676871D1*
X2905111Y1679621D1*
X2875111Y1712954D1*
X2841778Y1749621D1*
X2811778Y1782954D1*
X2778444Y1819621D1*
X2751778Y1846287D1*
Y1682954D1*
X2758444Y1676287D1*
Y1669621D1*
X2751778Y1662954D1*
X2747333Y1659621D1*
X2742889D1*
X2738444Y1662954D1*
X2731778Y1669621D1*
Y1676287D1*
X2738444Y1682954D1*
Y1869621D1*
X2728444D1*
G37*
G36*
X2481778Y1886287D2*
Y1866287D1*
X2485111Y1859621D1*
X2488444Y1856287D1*
Y1689621D1*
X2481778Y1682954D1*
Y1662954D1*
X2485111Y1656287D1*
X2491778Y1649621D1*
X2498444Y1646287D1*
X2515111D1*
X2521778Y1649621D1*
X2531778Y1659621D1*
X2535111Y1672954D1*
X2531778Y1682954D1*
X2528444Y1689621D1*
X2525111Y1692954D1*
Y1752954D1*
X2621778Y1756287D1*
X2635111Y1759621D1*
X2648444Y1766287D1*
X2658444Y1772954D1*
X2665111Y1779621D1*
X2671778Y1789621D1*
X2675111Y1796287D1*
X2678444Y1806287D1*
Y1842954D1*
X2675111Y1852954D1*
X2671778Y1859621D1*
X2661778Y1872954D1*
X2648444Y1882954D1*
X2635111Y1889621D1*
X2621778Y1892954D1*
X2525111Y1896287D1*
X2518444Y1899621D1*
X2515111Y1902954D1*
X2498444D1*
X2491778Y1899621D1*
X2485111Y1892954D1*
X2481778Y1886287D1*
X2498444D1*
X2504000Y1889621D1*
X2509555D1*
X2515111Y1886287D1*
X2518444Y1882954D1*
X2625111Y1879621D1*
X2635111Y1876287D1*
X2641778Y1872954D1*
X2658444Y1856287D1*
Y1852954D1*
X2661778Y1846287D1*
X2665111Y1836287D1*
X2668444Y1832954D1*
Y1816287D1*
X2665111Y1812954D1*
X2661778Y1799621D1*
Y1796287D1*
X2641778Y1776287D1*
X2635111Y1772954D1*
X2625111Y1769621D1*
X2515111Y1766287D1*
Y1679621D1*
X2518444Y1676287D1*
Y1666287D1*
X2515111Y1662954D1*
X2509555Y1659621D1*
X2504000D1*
X2498444Y1662954D1*
X2495111Y1666287D1*
Y1676287D1*
X2501778Y1682954D1*
Y1866287D1*
X2495111Y1872954D1*
Y1882954D1*
X2498444Y1886287D1*
X2481778D1*
G37*
G36*
X2995111D2*
Y1866287D1*
X2998444Y1859621D1*
X3001778Y1856287D1*
Y1689621D1*
X2995111Y1682954D1*
Y1662954D1*
X2998444Y1656287D1*
X3005111Y1649621D1*
X3011778Y1646287D1*
X3028444D1*
X3035111Y1649621D1*
X3045111Y1659621D1*
X3048444Y1672954D1*
X3045111Y1682954D1*
X3041778Y1689621D1*
X3038444Y1692954D1*
Y1752954D1*
X3135111Y1756287D1*
X3148444Y1759621D1*
X3161778Y1766287D1*
X3171778Y1772954D1*
X3178444Y1779621D1*
X3185111Y1789621D1*
X3188444Y1796287D1*
X3191778Y1806287D1*
Y1842954D1*
X3188444Y1852954D1*
X3185111Y1859621D1*
X3175111Y1872954D1*
X3161778Y1882954D1*
X3148444Y1889621D1*
X3135111Y1892954D1*
X3038444Y1896287D1*
X3031778Y1899621D1*
X3028444Y1902954D1*
X3011778D1*
X3005111Y1899621D1*
X2998444Y1892954D1*
X2995111Y1886287D1*
X3011778D1*
X3017333Y1889621D1*
X3022889D1*
X3028444Y1886287D1*
X3031778Y1882954D1*
X3138444Y1879621D1*
X3148444Y1876287D1*
X3155111Y1872954D1*
X3171778Y1856287D1*
Y1852954D1*
X3175111Y1846287D1*
X3178444Y1836287D1*
X3181778Y1832954D1*
Y1816287D1*
X3178444Y1812954D1*
X3175111Y1799621D1*
Y1796287D1*
X3155111Y1776287D1*
X3148444Y1772954D1*
X3138444Y1769621D1*
X3028444Y1766287D1*
Y1679621D1*
X3031778Y1676287D1*
Y1666287D1*
X3028444Y1662954D1*
X3022889Y1659621D1*
X3017333D1*
X3011778Y1662954D1*
X3008444Y1666287D1*
Y1676287D1*
X3015111Y1682954D1*
Y1866287D1*
X3008444Y1872954D1*
Y1882954D1*
X3011778Y1886287D1*
X2995111D1*
G37*
G36*
X2515111Y1859621D2*
Y1779621D1*
X2618444D1*
X2628444Y1782954D1*
X2635111Y1786287D1*
X2645111Y1796287D1*
X2651778Y1806287D1*
X2655111Y1816287D1*
Y1836287D1*
X2651778Y1846287D1*
X2645111Y1856287D1*
X2635111Y1866287D1*
X2628444Y1869621D1*
X2618444Y1872954D1*
X2518444D1*
X2515111Y1869621D1*
Y1859621D1*
X2525111D1*
X2556222Y1862954D1*
X2587333D1*
X2618444Y1859621D1*
X2631778Y1852954D1*
X2634463Y1848650D1*
X2635111Y1846287D1*
X2638444Y1839621D1*
X2641778Y1836287D1*
Y1812954D1*
X2635111Y1806287D1*
X2634015Y1802243D1*
X2631778Y1799621D1*
X2618444Y1792954D1*
X2587333Y1789621D1*
X2556222D1*
X2525111Y1792954D1*
Y1859621D1*
X2515111D1*
G37*
G36*
X3028444D2*
Y1779621D1*
X3131778D1*
X3141778Y1782954D1*
X3148444Y1786287D1*
X3158444Y1796287D1*
X3165111Y1806287D1*
X3168444Y1816287D1*
Y1836287D1*
X3165111Y1846287D1*
X3158444Y1856287D1*
X3148444Y1866287D1*
X3141778Y1869621D1*
X3131778Y1872954D1*
X3031778D1*
X3028444Y1869621D1*
Y1859621D1*
X3038444D1*
X3069555Y1862954D1*
X3100666D1*
X3131778Y1859621D1*
X3145111Y1852954D1*
X3147796Y1848650D1*
X3148444Y1846287D1*
X3151778Y1839621D1*
X3155111Y1836287D1*
Y1812954D1*
X3148444Y1806287D1*
X3147349Y1802243D1*
X3145111Y1799621D1*
X3131778Y1792954D1*
X3100666Y1789621D1*
X3069555D1*
X3038444Y1792954D1*
Y1859621D1*
X3028444D1*
G37*
G36*
X1991778Y2306287D2*
Y2002954D1*
X1981778Y1992954D1*
X1978444Y1986287D1*
Y1959621D1*
X1981778Y1952954D1*
X1995111Y1939621D1*
X2005111Y1936287D1*
X2025111D1*
X2038444Y1942954D1*
X2045111Y1949621D1*
X2051778Y1962954D1*
Y1986287D1*
X2045111Y1996287D1*
X2038444Y2002954D1*
Y2136287D1*
X2035111Y2139621D1*
Y2146287D1*
X2037600Y2148428D1*
X2039286Y2148149D1*
X2041183Y2145393D1*
X2041778Y2142954D1*
X2048444Y2129621D1*
X2061778Y2109621D1*
X2065111Y2102954D1*
X2091778Y2062954D1*
X2095111Y2056287D1*
X2115111Y2026287D1*
X2118444Y2019621D1*
X2145111Y1979621D1*
X2151778Y1986287D1*
X2155111Y1992954D1*
X2175111Y2022954D1*
X2178444Y2029621D1*
X2205111Y2069621D1*
X2208444Y2076287D1*
X2228444Y2106287D1*
X2231778Y2112954D1*
X2245111Y2132954D1*
X2248444Y2139621D1*
Y2146287D1*
X2250934Y2148428D1*
X2252661Y2148233D1*
X2255111Y2146287D1*
Y2132954D1*
X2251778Y2129621D1*
Y1999621D1*
X2241778Y1989621D1*
X2238444Y1982954D1*
Y1966287D1*
X2241778Y1956287D1*
X2248444Y1946287D1*
X2258444Y1939621D1*
X2265111Y1936287D1*
X2288444D1*
X2295111Y1939621D1*
X2311778Y1956287D1*
X2315111Y1966287D1*
Y1979621D1*
X2311778Y1989621D1*
X2300111Y2002954D1*
Y2302954D1*
X2296778D1*
Y2299621D1*
X2291778Y2292954D1*
X2285111Y2282954D1*
X2281778Y2276287D1*
X2268444Y2256287D1*
X2265111Y2249621D1*
X2251778Y2229621D1*
X2248444Y2222954D1*
X2228444Y2192954D1*
X2225111Y2186287D1*
X2211778Y2166287D1*
X2208444Y2159621D1*
X2195111Y2139621D1*
X2191778Y2132954D1*
X2178444Y2112954D1*
X2175111Y2106287D1*
X2161778Y2086287D1*
X2158444Y2079621D1*
X2151778Y2069621D1*
X2150097Y2066279D1*
X2148162Y2062798D1*
X2144905Y2059326D1*
X2143197Y2059867D1*
X2141050Y2063539D1*
X2141778Y2066287D1*
X2138444Y2072954D1*
X2118444Y2102954D1*
X2115111Y2109621D1*
X2101778Y2129621D1*
X2098444Y2136287D1*
X2085111Y2156287D1*
X2081778Y2162954D1*
X2068444Y2182954D1*
X2065111Y2189621D1*
X2045111Y2219621D1*
X2041778Y2226287D1*
X2028444Y2246287D1*
X2025111Y2252954D1*
X2011778Y2272954D1*
X2008444Y2279621D1*
X1995111Y2299621D1*
X1991158Y2303368D1*
X1991778Y2306287D1*
G37*
G36*
X2461778Y2186287D2*
X2460682Y2182243D1*
X2458444Y2179621D1*
X2455111Y2169621D1*
X2448444Y2156287D1*
X2445111Y2146287D1*
X2438444Y2132954D1*
X2435111Y2122954D1*
X2428444Y2109621D1*
X2425111Y2099621D1*
X2421778Y2092954D1*
X2418444Y2082954D1*
X2411778Y2069621D1*
X2408444Y2059621D1*
X2401778Y2046287D1*
X2398444Y2036287D1*
X2391778Y2022954D1*
Y2016287D1*
X2385111Y2009621D1*
X2378444Y2006287D1*
X2371778Y1999621D1*
X2365111Y1986287D1*
Y1959621D1*
X2368444Y1952954D1*
X2381778Y1939621D1*
X2391778Y1936287D1*
X2411778D1*
X2425111Y1942954D1*
X2431778Y1949621D1*
X2438444Y1962954D1*
X2441778Y1996287D1*
X2445111Y2002954D1*
X2448444Y2012954D1*
X2449092Y2015317D1*
X2451778Y2019621D1*
X2494000Y2022954D1*
X2536222D1*
X2578444Y2019621D1*
Y2012954D1*
X2586778Y1996287D1*
X2588193Y1992637D1*
X2588399Y1989573D1*
X2588444Y1986287D1*
Y1966287D1*
X2591778Y1956287D1*
X2598444Y1946287D1*
X2608444Y1939621D1*
X2618444Y1936287D1*
X2638444D1*
X2645111Y1939621D1*
X2655111Y1946287D1*
X2661778Y1956287D1*
X2665111Y1966287D1*
Y1979621D1*
X2661778Y1989621D1*
X2658444Y1996287D1*
X2648444Y2006287D1*
X2641778Y2009621D1*
X2637824Y2013368D1*
X2638444Y2016287D1*
X2635111Y2022954D1*
X2631778Y2032954D1*
X2625111Y2046287D1*
X2621778Y2056287D1*
X2615111Y2069621D1*
X2611778Y2079621D1*
X2605111Y2092954D1*
X2601778Y2102954D1*
X2598444Y2109621D1*
X2595111Y2119621D1*
X2588444Y2132954D1*
X2585111Y2142954D1*
X2578444Y2156287D1*
X2575111Y2166287D1*
X2568444Y2179621D1*
X2565111Y2189621D1*
X2558444Y2202954D1*
X2555111Y2212954D1*
X2551778Y2219621D1*
X2548444Y2229621D1*
X2541778Y2242954D1*
X2538444Y2252954D1*
X2531778Y2266287D1*
X2528444Y2276287D1*
X2521778Y2289621D1*
X2518444Y2299621D1*
X2515111Y2306287D1*
X2511778Y2302954D1*
X2508444Y2296287D1*
X2505111Y2286287D1*
X2498444Y2272954D1*
X2495111Y2262954D1*
X2488444Y2249621D1*
X2485111Y2239621D1*
X2478444Y2226287D1*
X2475111Y2216287D1*
X2468444Y2202954D1*
X2465111Y2192954D1*
X2461778Y2186287D1*
X2511778D1*
X2514267Y2188428D1*
X2515994Y2188233D1*
X2518444Y2186287D1*
Y2176287D1*
X2521778Y2166287D1*
X2525111Y2159621D1*
X2531778Y2139621D1*
X2535111Y2132954D1*
X2541778Y2112954D1*
X2545111Y2106287D1*
X2551778Y2086287D1*
X2555111Y2079621D1*
X2557796Y2075317D1*
X2558444Y2072954D1*
X2529555Y2069621D1*
X2500666D1*
X2471778Y2072954D1*
Y2079621D1*
X2475111Y2082954D1*
X2481778Y2102954D1*
X2485111Y2109621D1*
X2491778Y2129621D1*
X2495111Y2136287D1*
X2501778Y2156287D1*
X2505111Y2162954D1*
X2511778Y2182954D1*
Y2186287D1*
X2461778D1*
G37*
G36*
X2748444Y2299621D2*
X2738444Y2296287D1*
X2728444Y2289621D1*
X2725111Y2286287D1*
X2718444Y2276287D1*
Y2246287D1*
X2721778Y2239621D1*
X2728444Y2232954D1*
Y2002954D1*
X2725111Y1999621D1*
X2718444Y1989621D1*
Y1959621D1*
X2721778Y1952954D1*
X2731778Y1942954D1*
X2745111Y1936287D1*
X2765111D1*
X2771778Y1939621D1*
X2781778Y1946287D1*
X2788444Y1956287D1*
X2791778Y1962954D1*
Y1986287D1*
X2788444Y1992954D1*
X2778444Y2002954D1*
Y2096287D1*
X2782006Y2098513D1*
X2785111Y2099621D1*
X2798444Y2086287D1*
X2828444Y2059621D1*
X2881778Y2012954D1*
X2911778Y1986287D1*
X2918444Y1982954D1*
X2931778Y1969621D1*
Y1962954D1*
X2938444Y1949621D1*
X2945111Y1942954D1*
X2951778Y1939621D1*
X2961778Y1936287D1*
X2978444D1*
X2991778Y1942954D1*
X3001778Y1952954D1*
X3005111Y1959621D1*
Y1986287D1*
X2998444Y1999621D1*
X2991778Y2006287D1*
X2985111Y2009621D1*
X2975111Y2012954D1*
X2961778Y2016287D1*
X2955111Y2019621D1*
X2938444Y2036287D1*
X2891778Y2076287D1*
X2865111Y2099621D1*
X2841778Y2119621D1*
X2835111Y2122954D1*
X2828444Y2129621D1*
Y2132954D1*
X2835111Y2136287D1*
X2888444Y2176287D1*
X2898444Y2182954D1*
X2938444Y2212954D1*
X2978444Y2226287D1*
X2991778Y2239621D1*
X2995111Y2246287D1*
X2998444Y2259621D1*
Y2262954D1*
X2995111Y2276287D1*
X2988444Y2286287D1*
X2981778Y2292954D1*
X2975111Y2296287D1*
X2961778Y2299621D1*
X2955111D1*
X2945111Y2296287D1*
X2938444Y2292954D1*
X2925111Y2279621D1*
X2921778Y2269621D1*
X2908444Y2256287D1*
X2901778Y2252954D1*
X2821778Y2192954D1*
X2805111Y2179621D1*
X2791778Y2169621D1*
X2785111Y2162954D1*
X2780225Y2163292D1*
X2778444Y2166287D1*
Y2229621D1*
X2781778Y2232954D1*
X2788444Y2242954D1*
X2791778Y2249621D1*
Y2272954D1*
X2788444Y2279621D1*
X2775111Y2292954D1*
X2768444Y2296287D1*
X2758444Y2299621D1*
X2748444D1*
G37*
G36*
X3285111Y2296287D2*
X3278444Y2292954D1*
X3271778Y2286287D1*
X3061778Y2282954D1*
Y1952954D1*
X3271778Y1949621D1*
X3278444Y1942954D1*
X3285111Y1939621D1*
X3308444D1*
X3315111Y1942954D1*
X3328444Y1956287D1*
X3331778Y1962954D1*
X3335111Y1976287D1*
X3331778Y1989621D1*
X3328444Y1996287D1*
X3315111Y2009621D1*
X3308444Y2012954D1*
X3285111D1*
X3278444Y2009621D1*
X3271778Y2002954D1*
X3219555Y1999621D1*
X3167333D1*
X3115111Y2002954D1*
Y2092954D1*
X3155111Y2096287D1*
X3195111D1*
X3235111Y2092954D1*
X3241778Y2086287D1*
X3248444Y2082954D1*
X3271778D1*
X3278444Y2086287D1*
X3291778Y2099621D1*
X3295111Y2106287D1*
X3298444Y2116287D1*
Y2119621D1*
X3295111Y2132954D1*
X3291778Y2139621D1*
X3278444Y2152954D1*
X3271778Y2156287D1*
X3248444D1*
X3241778Y2152954D1*
X3235111Y2146287D1*
X3195111Y2142954D1*
X3155111D1*
X3115111Y2146287D1*
Y2232954D1*
X3167333Y2236287D1*
X3219555D1*
X3271778Y2232954D1*
X3278444Y2226287D1*
X3285111Y2222954D1*
X3308444D1*
X3315111Y2226287D1*
X3328444Y2239621D1*
X3331778Y2246287D1*
X3335111Y2259621D1*
X3331778Y2272954D1*
X3328444Y2279621D1*
X3315111Y2292954D1*
X3308444Y2296287D1*
X3285111D1*
G37*
G36*
X3418444Y2232954D2*
Y2002954D1*
X3415111Y1999621D1*
X3408444Y1989621D1*
X3405111Y1976287D1*
Y1969621D1*
X3408444Y1959621D1*
X3411778Y1952954D1*
X3425111Y1939621D1*
X3431778Y1936287D1*
X3455111D1*
X3468444Y1942954D1*
X3475111Y1949621D1*
X3481778Y1962954D1*
Y1982954D1*
X3475111Y1996287D1*
X3468444Y2002954D1*
Y2092954D1*
X3491778Y2096287D1*
X3515111D1*
X3538444Y2092954D1*
X3541129Y2088650D1*
X3541778Y2086287D1*
X3551778Y2072954D1*
X3558444Y2062954D1*
X3578444Y2036287D1*
X3585111Y2026287D1*
X3615111Y1986287D1*
X3618444Y1976287D1*
Y1969621D1*
X3621778Y1959621D1*
X3625111Y1952954D1*
X3638444Y1939621D1*
X3648444Y1936287D1*
X3668444D1*
X3675111Y1939621D1*
X3688444Y1952954D1*
X3691778Y1959621D1*
X3695111Y1969621D1*
Y1979621D1*
X3691778Y1989621D1*
X3688444Y1996287D1*
X3678444Y2006287D1*
X3671778Y2009621D1*
X3661778Y2012954D1*
X3651778Y2022954D1*
Y2026287D1*
X3641778Y2039621D1*
X3635111Y2049621D1*
X3615111Y2076287D1*
X3608444Y2086287D1*
X3601778Y2092954D1*
Y2096287D1*
X3621778Y2099621D1*
X3631778Y2102954D1*
X3651778Y2112954D1*
X3675111Y2136287D1*
X3685111Y2156287D1*
X3688444Y2166287D1*
Y2209621D1*
X3685111Y2222954D1*
X3678444Y2236287D1*
X3671778Y2246287D1*
X3651778Y2266287D1*
X3625111Y2279621D1*
X3611778Y2282954D1*
X3468444Y2286287D1*
X3461778Y2292954D1*
X3455111Y2296287D1*
X3431778D1*
X3425111Y2292954D1*
X3411778Y2279621D1*
X3408444Y2272954D1*
X3405111Y2262954D1*
Y2256287D1*
X3408444Y2246287D1*
X3411778Y2239621D1*
X3418444Y2232954D1*
X3468444D1*
X3514000Y2236287D1*
X3559555D1*
X3605111Y2232954D1*
X3618444Y2226287D1*
X3628444Y2216287D1*
Y2212954D1*
X3631778Y2206287D1*
X3635111Y2202954D1*
Y2176287D1*
X3631778Y2172954D1*
X3628444Y2166287D1*
Y2162954D1*
X3618444Y2152954D1*
X3611778Y2149621D1*
X3601778Y2146287D1*
X3557333Y2142954D1*
X3512889D1*
X3468444Y2146287D1*
Y2232954D1*
X3418444D1*
G37*
G36*
X5108143Y16830667D2*
X5109143Y16832667D1*
X5112143Y16835667D1*
X5113143D1*
X5114143Y16836667D1*
X5195143D1*
X5196143Y16835667D1*
X5197143D1*
X5200143Y16832667D1*
X5202143Y16828667D1*
Y16826667D1*
X5200143Y16822667D1*
X5196143Y16818667D1*
X5195143D1*
X5189143Y16815667D1*
X5186143Y16813667D1*
X5174143Y16807667D1*
X5171143Y16805667D1*
X5159143Y16799667D1*
X5156143Y16797667D1*
X5152143Y16795667D1*
X5196143Y16794667D1*
X5197143D1*
X5200143Y16791667D1*
X5202143Y16787667D1*
Y16785667D1*
X5200143Y16781667D1*
X5197143Y16778667D1*
X5196143D1*
X5195143Y16777667D1*
X5114143D1*
X5113143Y16778667D1*
X5112143D1*
X5109143Y16781667D1*
X5108143Y16783667D1*
Y16695667D1*
X5248143D1*
Y17306667D1*
X5201143D1*
Y17108667D1*
X5202143Y17106667D1*
Y17104667D1*
X5200143Y17100667D1*
X5196143Y17096667D1*
X5194143D1*
X5190143Y17095667D1*
X5184143Y17093667D1*
X5180143Y17092667D1*
X5174143Y17090667D1*
X5170143Y17089667D1*
X5164143Y17087667D1*
X5160143Y17086667D1*
X5157143Y17085667D1*
X5153143Y17084667D1*
X5147143Y17082667D1*
X5153143Y17080667D1*
X5157143Y17079667D1*
X5160143Y17078667D1*
X5164143Y17077667D1*
X5170143Y17075667D1*
X5174143Y17074667D1*
X5180143Y17072667D1*
X5184143Y17071667D1*
X5190143Y17069667D1*
X5194143Y17068667D1*
X5196143D1*
X5200143Y17064667D1*
X5202143Y17060667D1*
Y17058667D1*
X5201143Y17056667D1*
Y16968667D1*
X5202143Y16954000D1*
Y16939333D1*
X5201143Y16924667D1*
X5200143Y16922667D1*
X5197143Y16919667D1*
X5196143D1*
X5195143Y16918667D1*
X5191143D1*
X5190143Y16919667D1*
X5189143D1*
X5186143Y16922667D1*
X5185143Y16924667D1*
X5184143Y16956667D1*
X5165143D1*
X5164143Y16938667D1*
X5163143Y16936667D1*
X5160143Y16933667D1*
X5159143D1*
X5158143Y16932667D1*
X5154143D1*
X5153143Y16933667D1*
X5152143D1*
X5149143Y16936667D1*
X5148143Y16938667D1*
X5147143Y16956667D1*
X5113143Y16957667D1*
X5112143D1*
X5109143Y16960667D1*
X5107143Y16964667D1*
Y16966667D1*
X5109143Y16970667D1*
X5112143Y16973667D1*
X5113143D1*
X5114143Y16974667D1*
X5195143D1*
X5196143Y16973667D1*
X5197143D1*
X5200143Y16970667D1*
X5201143Y16968667D1*
Y17056667D1*
X5200143Y17054667D1*
X5197143Y17051667D1*
X5196143D1*
X5195143Y17050667D1*
X5190143D1*
X5189143Y17051667D1*
X5186143Y17052667D1*
X5182143Y17053667D1*
X5176143Y17055667D1*
X5172143Y17056667D1*
X5166143Y17058667D1*
X5162143Y17059667D1*
X5156143Y17061667D1*
X5152143Y17062667D1*
X5149143Y17063667D1*
X5145143Y17064667D1*
X5139143Y17066667D1*
X5135143Y17067667D1*
X5129143Y17069667D1*
X5125143Y17070667D1*
X5119143Y17072667D1*
X5115143Y17073667D1*
X5113143D1*
X5109143Y17077667D1*
X5107143Y17081667D1*
Y17083667D1*
X5108143Y17085667D1*
Y17129667D1*
X5107143Y17145333D1*
Y17161000D1*
X5108143Y17176667D1*
X5109143Y17178667D1*
X5112143Y17181667D1*
X5113143D1*
X5114143Y17182667D1*
X5118143D1*
X5119143Y17181667D1*
X5121143Y17180667D1*
X5127143Y17175667D1*
X5152143Y17155667D1*
X5156143Y17152667D1*
X5160143Y17150667D1*
X5163143Y17148667D1*
X5167143Y17146667D1*
X5170143Y17145667D1*
X5172143Y17144667D1*
X5176143D1*
X5179143Y17145667D1*
X5181143Y17146667D1*
X5183143Y17148667D1*
Y17156667D1*
X5182143Y17158667D1*
X5181143Y17159667D1*
X5179143Y17160667D1*
X5176143Y17161667D1*
X5171143Y17162667D1*
X5170143D1*
X5167143Y17165667D1*
X5165143Y17169667D1*
Y17171667D1*
X5167143Y17175667D1*
X5170143Y17178667D1*
X5171143D1*
X5172143Y17179667D1*
X5181143D1*
X5182143Y17178667D1*
X5184143Y17177667D1*
X5187143Y17176667D1*
X5190143Y17174667D1*
X5194143Y17171667D1*
X5197143Y17168667D1*
X5200143Y17162667D1*
X5201143Y17156000D1*
Y17149333D1*
X5200143Y17142667D1*
X5199143Y17140667D1*
X5198143Y17139667D1*
X5197143Y17137667D1*
X5192143Y17132667D1*
X5191143D1*
X5187143Y17129667D1*
X5184143Y17128667D1*
X5182143Y17127667D1*
X5181143Y17126667D1*
X5168143D1*
X5167143Y17127667D1*
X5164143Y17128667D1*
X5162143Y17129667D1*
X5159143Y17130667D1*
X5157143Y17131667D1*
X5154143Y17133667D1*
X5150143Y17135667D1*
X5146143Y17138667D1*
X5126143Y17154667D1*
X5125143D1*
X5124143Y17129667D1*
X5123143Y17127667D1*
X5120143Y17124667D1*
X5119143D1*
X5118143Y17123667D1*
X5114143D1*
X5113143Y17124667D1*
X5112143D1*
X5109143Y17127667D1*
X5108143Y17129667D1*
Y17085667D1*
X5109143Y17087667D1*
X5113143Y17091667D1*
X5115143D1*
X5119143Y17092667D1*
X5125143Y17094667D1*
X5129143Y17095667D1*
X5135143Y17097667D1*
X5139143Y17098667D1*
X5145143Y17100667D1*
X5149143Y17101667D1*
X5152143Y17102667D1*
X5156143Y17103667D1*
X5162143Y17105667D1*
X5166143Y17106667D1*
X5172143Y17108667D1*
X5176143Y17109667D1*
X5182143Y17111667D1*
X5186143Y17112667D1*
X5189143Y17113667D1*
X5190143Y17114667D1*
X5195143D1*
X5196143Y17113667D1*
X5197143D1*
X5200143Y17110667D1*
X5201143Y17108667D1*
Y17306667D1*
X5200143D1*
Y17202667D1*
X5201143Y17200667D1*
Y17198667D1*
X5199143Y17194667D1*
X5196143Y17191667D1*
X5195143D1*
X5194143Y17190667D1*
X5114143D1*
X5113143Y17191667D1*
X5112143D1*
X5109143Y17194667D1*
X5107143Y17198667D1*
Y17200667D1*
X5109143Y17204667D1*
X5112143Y17207667D1*
X5113143D1*
X5171143Y17208667D1*
Y17209667D1*
X5170143Y17210667D1*
X5169143Y17213000D1*
Y17215333D1*
X5170143Y17217667D1*
X5171143Y17219667D1*
X5174143Y17222667D1*
X5175143D1*
X5176143Y17223667D1*
X5180143D1*
X5181143Y17222667D1*
X5182143D1*
X5187143Y17217667D1*
X5188143Y17215667D1*
X5197143Y17206667D1*
X5200143Y17202667D1*
Y17306667D1*
X5063143D1*
Y16695667D1*
X5108143D1*
Y16783667D1*
X5107143Y16785667D1*
Y16787667D1*
X5109143Y16791667D1*
X5113143Y16795667D1*
X5114143D1*
X5120143Y16798667D1*
X5123143Y16800667D1*
X5135143Y16806667D1*
X5138143Y16808667D1*
X5150143Y16814667D1*
X5153143Y16816667D1*
X5157143Y16818667D1*
X5113143Y16819667D1*
X5112143D1*
X5109143Y16822667D1*
X5107143Y16826667D1*
Y16828667D1*
X5108143Y16830667D1*
Y16851667D1*
X5107143Y16853667D1*
Y16855667D1*
X5109143Y16859667D1*
X5113143Y16863667D1*
X5115143D1*
X5119143Y16864667D1*
X5125143Y16866667D1*
X5129143Y16867667D1*
X5132143Y16868667D1*
X5133143Y16869667D1*
Y16885667D1*
X5132143Y16886667D1*
X5129143Y16887667D1*
X5125143Y16888667D1*
X5119143Y16890667D1*
X5115143Y16891667D1*
X5113143D1*
X5109143Y16895667D1*
X5107143Y16899667D1*
Y16901667D1*
X5109143Y16905667D1*
X5112143Y16908667D1*
X5113143D1*
X5114143Y16909667D1*
X5119143D1*
X5120143Y16908667D1*
X5123143Y16907667D1*
X5127143Y16906667D1*
X5133143Y16904667D1*
X5137143Y16903667D1*
X5143143Y16901667D1*
X5147143Y16900667D1*
X5153143Y16898667D1*
X5157143Y16897667D1*
X5160143Y16896667D1*
X5164143Y16895667D1*
X5170143Y16893667D1*
X5174143Y16892667D1*
X5180143Y16890667D1*
X5184143Y16889667D1*
X5190143Y16887667D1*
X5194143Y16886667D1*
X5196143D1*
X5200143Y16882667D1*
X5202143Y16878667D1*
Y16876667D1*
X5200143Y16872667D1*
X5196143Y16868667D1*
X5194143D1*
X5190143Y16867667D1*
X5184143Y16865667D1*
X5180143Y16864667D1*
X5174143Y16862667D1*
X5170143Y16861667D1*
X5164143Y16859667D1*
X5160143Y16858667D1*
X5157143Y16857667D1*
X5153143Y16856667D1*
X5147143Y16854667D1*
X5143143Y16853667D1*
X5137143Y16851667D1*
X5133143Y16850667D1*
X5127143Y16848667D1*
X5123143Y16847667D1*
X5120143Y16846667D1*
X5119143Y16845667D1*
X5114143D1*
X5113143Y16846667D1*
X5112143D1*
X5109143Y16849667D1*
X5108143Y16851667D1*
Y16830667D1*
G37*
G36*
X5162143Y16877667D2*
X5160143D1*
X5159143Y16878667D1*
X5156143Y16879667D1*
X5152143Y16880667D1*
X5151143D1*
Y16874667D1*
X5152143D1*
X5156143Y16875667D1*
X5159143Y16876667D1*
X5160143Y16877667D1*
X5162143D1*
G37*
G36*
X2465778Y16299121D2*
Y16293121D1*
X2468778Y16284121D1*
X2474778Y16275121D1*
X2477778Y16269121D1*
X2483778Y16260121D1*
X2489778Y16248121D1*
X2495778Y16239121D1*
X2501778Y16227121D1*
X2507778Y16218121D1*
X2513778Y16206121D1*
X2519778Y16197121D1*
X2522778Y16191121D1*
X2528778Y16182121D1*
X2534778Y16170121D1*
X2540778Y16161121D1*
X2546778Y16149121D1*
X2552778Y16140121D1*
X2558778Y16128121D1*
X2564778Y16119121D1*
X2567778Y16113121D1*
X2573778Y16104121D1*
X2579778Y16092121D1*
X2585778Y16083121D1*
X2591778Y16071121D1*
X2597778Y16062121D1*
X2603778Y16056121D1*
X2612778Y16053121D1*
X2615778D1*
X2624778Y16056121D1*
X2630778Y16059121D1*
X2633778Y16062121D1*
X2636778Y16068121D1*
X2642778Y16077121D1*
X2648778Y16089121D1*
X2654778Y16098121D1*
X2660778Y16110121D1*
X2666778Y16119121D1*
X2669778Y16125121D1*
X2675778Y16134121D1*
X2681778Y16146121D1*
X2687778Y16155121D1*
X2693778Y16167121D1*
X2699778Y16176121D1*
X2705778Y16188121D1*
X2711778Y16197121D1*
X2714778Y16203121D1*
X2720778Y16212121D1*
X2726778Y16224121D1*
X2732778Y16233121D1*
X2738778Y16245121D1*
X2744778Y16254121D1*
X2750778Y16266121D1*
X2756778Y16275121D1*
X2762778Y16287121D1*
X2765778Y16296121D1*
X2762778Y16305121D1*
X2759778Y16311121D1*
X2756778Y16314121D1*
X2750778Y16317121D1*
X2480778D1*
X2474778Y16314121D1*
X2468778Y16308121D1*
X2465778Y16299121D1*
X2486778D1*
X2572778Y16302121D1*
X2658778D1*
X2744778Y16299121D1*
X2747194Y16295247D1*
X2747778Y16293121D1*
X2741778Y16287121D1*
X2735778Y16275121D1*
X2729778Y16266121D1*
X2726778Y16260121D1*
X2720778Y16251121D1*
X2714778Y16239121D1*
X2708778Y16230121D1*
X2702778Y16218121D1*
X2696778Y16209121D1*
X2693778Y16203121D1*
X2687778Y16194121D1*
X2681778Y16182121D1*
X2675778Y16173121D1*
X2669778Y16161121D1*
X2663778Y16152121D1*
X2657778Y16140121D1*
X2651778Y16131121D1*
X2648778Y16125121D1*
X2642778Y16116121D1*
X2636778Y16104121D1*
X2630778Y16095121D1*
X2624778Y16083121D1*
Y16080121D1*
X2615778Y16071121D1*
X2611360Y16071423D1*
X2608874Y16074804D1*
X2609778Y16077121D1*
X2603778Y16089121D1*
X2597778Y16098121D1*
X2591778Y16110121D1*
X2585778Y16119121D1*
X2582778Y16125121D1*
X2576778Y16134121D1*
X2570778Y16146121D1*
X2564778Y16155121D1*
X2558778Y16167121D1*
X2552778Y16176121D1*
X2546778Y16188121D1*
X2540778Y16197121D1*
X2537778Y16203121D1*
X2531778Y16212121D1*
X2525778Y16224121D1*
X2519778Y16233121D1*
X2513778Y16245121D1*
X2507778Y16254121D1*
X2504778Y16260121D1*
X2498778Y16269121D1*
X2492778Y16281121D1*
X2486778Y16290121D1*
X2483220Y16293493D1*
X2484146Y16295497D1*
X2486778Y16299121D1*
X2465778D1*
G37*
G36*
X2612778Y16281121D2*
X2606778Y16278121D1*
X2603778Y16275121D1*
Y16263121D1*
X2609778Y16257121D1*
X2621778D1*
X2627778Y16263121D1*
Y16272121D1*
X2624778Y16278121D1*
X2618778Y16281121D1*
X2612778D1*
G37*
G36*
X2615778Y16242121D2*
X2609778Y16239121D1*
X2603778Y16233121D1*
Y16131121D1*
X2609778Y16125121D1*
X2621778D1*
X2627778Y16131121D1*
Y16233121D1*
X2621778Y16239121D1*
X2615778Y16242121D1*
G37*
G36*
X2851143Y17120917D2*
X2850143Y17118917D1*
X2849143Y17117917D1*
X2848143Y17115917D1*
X2839143Y17106917D1*
X2838143D1*
X2833143Y17103917D1*
X2831143Y17102917D1*
X2828143Y17101917D1*
X2824143Y17100917D1*
X2821143Y17099917D1*
X2817143Y17098917D1*
X2816143Y17097917D1*
X2792143D1*
X2791143Y17098917D1*
X2787143Y17099917D1*
X2784143Y17100917D1*
X2780143Y17101917D1*
X2778143Y17102917D1*
X2775143Y17103917D1*
X2771143Y17106917D1*
X2770143D1*
X2761143Y17115917D1*
X2760143Y17117917D1*
X2759143Y17118917D1*
X2758143Y17120917D1*
X2757143Y17126917D1*
Y17132917D1*
X2758143Y17138917D1*
X2760143Y17142917D1*
X2761143Y17143917D1*
X2763143Y17146917D1*
X2771143Y17154917D1*
X2772143D1*
X2775143Y17156917D1*
X2778143Y17157917D1*
X2780143Y17158917D1*
X2784143Y17159917D1*
X2787143Y17160917D1*
X2791143Y17161917D1*
X2792143Y17162917D1*
X2816143D1*
X2817143Y17161917D1*
X2821143Y17160917D1*
X2824143Y17159917D1*
X2828143Y17158917D1*
X2831143Y17157917D1*
X2837143Y17154917D1*
X2844143Y17148917D1*
X2848143Y17144917D1*
X2849143Y17142917D1*
X2851143Y17139917D1*
Y17190917D1*
X2849143Y17186917D1*
X2848143Y17183917D1*
X2847143Y17181917D1*
X2842143Y17176917D1*
X2841143D1*
X2837143Y17173917D1*
X2834143Y17172917D1*
X2832143Y17171917D1*
X2831143Y17170917D1*
X2814143D1*
X2813143Y17171917D1*
X2811143Y17172917D1*
X2808143Y17173917D1*
X2804143Y17176917D1*
X2803143D1*
X2798143Y17181917D1*
X2797143Y17183917D1*
X2796143Y17186917D1*
X2794143Y17190917D1*
X2793143Y17211917D1*
X2763143Y17212917D1*
X2762143D1*
X2759143Y17215917D1*
X2757143Y17219917D1*
Y17221917D1*
X2759143Y17225917D1*
X2762143Y17228917D1*
X2763143D1*
X2764143Y17229917D1*
X2845143D1*
X2846143Y17228917D1*
X2847143D1*
X2850143Y17225917D1*
X2851143Y17223917D1*
Y17312917D1*
X2713143D1*
Y16798917D1*
X2758143D1*
Y16886917D1*
X2757143Y16888917D1*
Y16890917D1*
X2759143Y16894917D1*
X2763143Y16898917D1*
X2764143D1*
X2796143Y16914917D1*
X2797143Y16915917D1*
Y16921917D1*
X2763143Y16922917D1*
X2762143D1*
X2759143Y16925917D1*
X2757143Y16929917D1*
Y16931917D1*
X2758143Y16933917D1*
Y16953917D1*
X2757143Y16968583D1*
Y16983250D1*
X2758143Y16997917D1*
X2759143Y16999917D1*
X2762143Y17002917D1*
X2763143D1*
X2764143Y17003917D1*
X2845143D1*
X2846143Y17002917D1*
X2847143D1*
X2850143Y16999917D1*
X2851143Y16997917D1*
X2852143Y16983250D1*
Y16968583D1*
X2851143Y16953917D1*
X2850143Y16951917D1*
X2847143Y16948917D1*
X2846143D1*
X2845143Y16947917D1*
X2841143D1*
X2840143Y16948917D1*
X2839143D1*
X2836143Y16951917D1*
X2835143Y16953917D1*
X2834143Y16985917D1*
X2815143D1*
X2814143Y16968917D1*
X2813143Y16966917D1*
X2810143Y16963917D1*
X2809143D1*
X2808143Y16962917D1*
X2804143D1*
X2803143Y16963917D1*
X2802143D1*
X2799143Y16966917D1*
X2798143Y16968917D1*
X2797143Y16985917D1*
X2775143D1*
X2774143Y16953917D1*
X2773143Y16951917D1*
X2770143Y16948917D1*
X2769143D1*
X2768143Y16947917D1*
X2764143D1*
X2763143Y16948917D1*
X2762143D1*
X2759143Y16951917D1*
X2758143Y16953917D1*
Y16933917D1*
X2759143Y16935917D1*
X2762143Y16938917D1*
X2763143D1*
X2764143Y16939917D1*
X2845143D1*
X2846143Y16938917D1*
X2847143D1*
X2850143Y16935917D1*
X2851143Y16933917D1*
X2852143Y16922917D1*
Y16911917D1*
X2851143Y16900917D1*
X2849143Y16896917D1*
X2848143Y16893917D1*
X2847143Y16891917D1*
X2842143Y16886917D1*
X2841143D1*
X2837143Y16883917D1*
X2834143Y16882917D1*
X2832143Y16881917D1*
X2831143Y16880917D1*
X2818143D1*
X2817143Y16881917D1*
X2814143Y16882917D1*
X2812143Y16883917D1*
X2810143D1*
X2802143Y16891917D1*
X2801143Y16893917D1*
X2800143Y16896917D1*
X2770143Y16881917D1*
X2769143Y16880917D1*
X2764143D1*
X2763143Y16881917D1*
X2762143D1*
X2759143Y16884917D1*
X2758143Y16886917D1*
Y16798917D1*
X2898143D1*
Y17312917D1*
X2851143D1*
Y17223917D1*
X2852143Y17212917D1*
Y17201917D1*
X2851143Y17190917D1*
Y17139917D1*
X2852143Y17133583D1*
Y17127250D1*
X2851143Y17120917D1*
Y17082917D1*
X2852143Y17080917D1*
Y17078917D1*
X2850143Y17074917D1*
X2847143Y17071917D1*
X2846143D1*
X2841143Y17070917D1*
X2835143Y17069917D1*
X2830143Y17068917D1*
X2824143Y17067917D1*
X2819143Y17066917D1*
X2813143Y17065917D1*
X2815143Y17064917D1*
X2820143Y17063917D1*
X2826143Y17062917D1*
X2846143Y17058917D1*
X2847143D1*
X2850143Y17055917D1*
X2852143Y17051917D1*
Y17049917D1*
X2850143Y17045917D1*
X2847143Y17042917D1*
X2846143D1*
X2841143Y17041917D1*
X2835143Y17040917D1*
X2830143Y17039917D1*
X2824143Y17038917D1*
X2819143Y17037917D1*
X2813143Y17036917D1*
X2815143Y17035917D1*
X2820143Y17034917D1*
X2826143Y17033917D1*
X2846143Y17029917D1*
X2847143D1*
X2850143Y17026917D1*
X2852143Y17022917D1*
Y17020917D1*
X2850143Y17016917D1*
X2847143Y17013917D1*
X2846143D1*
X2845143Y17012917D1*
X2841143D1*
X2840143Y17013917D1*
X2825143Y17016917D1*
X2819143Y17017917D1*
X2789143Y17023917D1*
X2783143Y17024917D1*
X2763143Y17028917D1*
X2762143D1*
X2759143Y17031917D1*
X2757143Y17035917D1*
Y17037917D1*
X2759143Y17041917D1*
X2762143Y17044917D1*
X2763143D1*
X2768143Y17045917D1*
X2774143Y17046917D1*
X2779143Y17047917D1*
X2785143Y17048917D1*
X2790143Y17049917D1*
X2796143Y17050917D1*
X2794143Y17051917D1*
X2789143Y17052917D1*
X2783143Y17053917D1*
X2763143Y17057917D1*
X2762143D1*
X2759143Y17060917D1*
X2757143Y17064917D1*
Y17066917D1*
X2759143Y17070917D1*
X2762143Y17073917D1*
X2763143D1*
X2768143Y17074917D1*
X2774143Y17075917D1*
X2779143Y17076917D1*
X2785143Y17077917D1*
X2790143Y17078917D1*
X2796143Y17079917D1*
X2801143Y17080917D1*
X2807143Y17081917D1*
X2812143Y17082917D1*
X2818143Y17083917D1*
X2823143Y17084917D1*
X2829143Y17085917D1*
X2834143Y17086917D1*
X2840143Y17087917D1*
X2841143Y17088917D1*
X2845143D1*
X2846143Y17087917D1*
X2847143D1*
X2850143Y17084917D1*
X2851143Y17082917D1*
Y17120917D1*
G37*
G36*
X2834143Y17211917D2*
X2811143D1*
Y17196917D1*
X2813143Y17191917D1*
X2814143Y17190917D1*
X2816143Y17189917D1*
X2819143Y17188917D1*
X2826143D1*
X2829143Y17189917D1*
X2831143Y17190917D1*
X2832143Y17191917D1*
X2834143Y17196917D1*
Y17211917D1*
G37*
G36*
Y17133917D2*
X2828143Y17139917D1*
X2825143Y17140917D1*
X2823143Y17141917D1*
X2820143Y17142917D1*
X2816143Y17143917D1*
X2813143Y17144917D1*
X2795143D1*
X2792143Y17143917D1*
X2788143Y17142917D1*
X2786143Y17141917D1*
X2783143Y17140917D1*
X2781143Y17139917D1*
X2776143Y17135917D1*
X2775143Y17133917D1*
Y17126917D1*
X2781143Y17120917D1*
X2783143Y17119917D1*
X2786143Y17118917D1*
X2788143Y17117917D1*
X2792143Y17116917D1*
X2795143Y17115917D1*
X2813143D1*
X2816143Y17116917D1*
X2820143Y17117917D1*
X2823143Y17118917D1*
X2825143Y17119917D1*
X2828143Y17120917D1*
X2834143Y17126917D1*
Y17133917D1*
G37*
G36*
Y16921917D2*
X2815143D1*
Y16906917D1*
X2817143Y16901917D1*
X2818143Y16900917D1*
X2822143Y16898917D1*
X2826143D1*
X2829143Y16899917D1*
X2831143Y16900917D1*
X2832143Y16901917D1*
X2834143Y16906917D1*
Y16921917D1*
G37*
G36*
X1448333Y7563659D2*
X1459333Y7564659D1*
X1470333D1*
X1481333Y7563659D1*
X1485333Y7561659D1*
X1488333Y7560659D1*
X1490333Y7559659D1*
X1495333Y7554659D1*
Y7553659D1*
X1498333Y7549659D1*
X1499333Y7546659D1*
X1500333Y7544659D1*
X1501333Y7543659D1*
Y7530659D1*
X1500333Y7529659D1*
X1499333Y7526659D1*
X1498333Y7524659D1*
X1494333Y7518659D1*
X1498333Y7513659D1*
X1499333Y7510659D1*
X1500333Y7508659D1*
X1501333Y7507659D1*
Y7490659D1*
X1500333Y7489659D1*
X1499333Y7486659D1*
X1498333Y7484659D1*
Y7482659D1*
X1490333Y7474659D1*
X1488333Y7473659D1*
X1485333Y7472659D1*
X1481333Y7470659D1*
X1583333D1*
Y7610659D1*
X1033333D1*
Y7563659D1*
X1122333D1*
X1137000Y7564659D1*
X1151667D1*
X1166333Y7563659D1*
X1187333D1*
X1189333Y7564659D1*
X1191333D1*
X1195333Y7562659D1*
X1199333Y7558659D1*
Y7557659D1*
X1202333Y7551659D1*
X1204333Y7548659D1*
X1210333Y7536659D1*
X1212333Y7533659D1*
X1218333Y7521659D1*
X1220333Y7518659D1*
X1222333Y7514659D1*
X1223333Y7558659D1*
Y7559659D1*
X1226333Y7562659D1*
X1230333Y7564659D1*
X1232333D1*
X1236333Y7562659D1*
X1239333Y7559659D1*
Y7558659D1*
X1240333Y7557659D1*
Y7476659D1*
X1239333Y7475659D1*
Y7474659D1*
X1236333Y7471659D1*
X1232333Y7469659D1*
X1230333D1*
X1226333Y7471659D1*
X1222333Y7475659D1*
Y7476659D1*
X1219333Y7482659D1*
X1217333Y7485659D1*
X1211333Y7497659D1*
X1209333Y7500659D1*
X1203333Y7512659D1*
X1201333Y7515659D1*
X1199333Y7519659D1*
X1198333Y7475659D1*
Y7474659D1*
X1195333Y7471659D1*
X1191333Y7469659D1*
X1189333D1*
X1185333Y7471659D1*
X1182333Y7474659D1*
Y7475659D1*
X1181333Y7476659D1*
Y7557659D1*
X1182333Y7558659D1*
Y7559659D1*
X1185333Y7562659D1*
X1187333Y7563659D1*
X1166333D1*
X1168333Y7562659D1*
X1171333Y7559659D1*
Y7558659D1*
X1172333Y7557659D1*
Y7553659D1*
X1171333Y7552659D1*
Y7551659D1*
X1168333Y7548659D1*
X1166333Y7547659D1*
X1134333Y7546659D1*
Y7527659D1*
X1152333Y7526659D1*
X1154333Y7525659D1*
X1157333Y7522659D1*
Y7521659D1*
X1158333Y7520659D1*
Y7516659D1*
X1157333Y7515659D1*
Y7514659D1*
X1154333Y7511659D1*
X1152333Y7510659D1*
X1134333Y7509659D1*
Y7487659D1*
X1166333Y7486659D1*
X1168333Y7485659D1*
X1171333Y7482659D1*
Y7481659D1*
X1172333Y7480659D1*
Y7476659D1*
X1171333Y7475659D1*
Y7474659D1*
X1168333Y7471659D1*
X1166333Y7470659D1*
X1151667Y7469659D1*
X1137000D1*
X1122333Y7470659D1*
X1120333Y7471659D1*
X1117333Y7474659D1*
Y7475659D1*
X1116333Y7476659D1*
Y7557659D1*
X1117333Y7558659D1*
Y7559659D1*
X1120333Y7562659D1*
X1122333Y7563659D1*
X1033333D1*
Y7469659D1*
X1361333D1*
X1362333Y7470659D1*
X1345333D1*
X1343333Y7469659D1*
X1341333D1*
X1337333Y7471659D1*
X1334333Y7474659D1*
Y7475659D1*
X1333333Y7533659D1*
X1329333Y7531659D1*
X1327333D1*
X1323333Y7533659D1*
X1320333Y7536659D1*
Y7537659D1*
X1319333Y7538659D1*
Y7542659D1*
X1320333Y7543659D1*
X1320833Y7544659D1*
X1321379Y7545570D1*
X1322343Y7546638D1*
X1323333Y7547659D1*
X1335333Y7559659D1*
Y7560659D1*
X1341333Y7563659D1*
X1343333D1*
X1347333Y7561659D1*
X1350333Y7558659D1*
Y7557659D1*
X1351333Y7556659D1*
Y7476659D1*
X1350333Y7475659D1*
Y7474659D1*
X1347333Y7471659D1*
X1345333Y7470659D1*
X1362333D1*
X1364333Y7472659D1*
X1366333Y7473659D1*
X1386667Y7474659D1*
X1407000D1*
X1427333Y7473659D1*
X1429333Y7472659D1*
X1432333Y7469659D1*
Y7468659D1*
X1433333Y7467659D1*
Y7463659D1*
X1432333Y7462659D1*
Y7461659D1*
X1429333Y7458659D1*
X1427333Y7457659D1*
X1407000Y7456659D1*
X1386667D1*
X1366333Y7457659D1*
X1364333Y7458659D1*
X1361333Y7461659D1*
Y7462659D1*
X1360333Y7463659D1*
Y7467659D1*
X1361333Y7468659D1*
Y7469659D1*
X1033333D1*
Y7425659D1*
X1583333D1*
Y7470659D1*
X1481333D1*
X1470333Y7469659D1*
X1459333D1*
X1448333Y7470659D1*
X1446333Y7471659D1*
X1443333Y7474659D1*
Y7475659D1*
X1442333Y7476659D1*
Y7557659D1*
X1443333Y7558659D1*
Y7559659D1*
X1446333Y7562659D1*
X1448333Y7563659D1*
X1289333D1*
X1295333Y7559659D1*
X1297333Y7558659D1*
X1304333Y7551659D1*
Y7550659D1*
X1307333Y7545659D1*
X1308333Y7543659D1*
X1309333Y7540659D1*
X1310333Y7539659D1*
Y7534659D1*
X1309333Y7533659D1*
Y7532659D1*
X1306333Y7529659D1*
X1302333Y7527659D1*
X1300333D1*
X1296333Y7529659D1*
X1292333Y7533659D1*
Y7535659D1*
X1291333Y7537659D1*
X1290333Y7540659D1*
X1284333Y7546659D1*
X1277333D1*
X1271333Y7540659D1*
X1270333Y7537659D1*
X1269333Y7535659D1*
X1268333Y7532659D1*
X1267333Y7528659D1*
X1266333Y7525659D1*
Y7507659D1*
X1267333Y7504659D1*
X1268333Y7500659D1*
X1269333Y7498659D1*
X1270333Y7495659D1*
X1271333Y7493659D1*
X1275333Y7488659D1*
X1277333Y7487659D1*
X1283333D1*
X1285333Y7488659D1*
X1290333Y7493659D1*
X1291333Y7495659D1*
X1292333Y7498659D1*
Y7499659D1*
X1296333Y7503659D1*
X1300333Y7505659D1*
X1302333D1*
X1306333Y7503659D1*
X1309333Y7500659D1*
Y7499659D1*
X1310333Y7498659D1*
Y7493659D1*
X1309333Y7492659D1*
X1308333Y7490659D1*
X1307333Y7487659D1*
X1304333Y7483659D1*
Y7482659D1*
X1296333Y7474659D1*
X1294333Y7473659D1*
X1291333Y7471659D1*
X1290333Y7470659D1*
X1284333Y7469659D1*
X1278333D1*
X1272333Y7470659D1*
X1268333Y7472659D1*
X1267333Y7473659D1*
X1264333Y7475659D1*
X1256333Y7483659D1*
Y7484659D1*
X1254333Y7487659D1*
X1253333Y7490659D1*
X1252333Y7492659D1*
X1251333Y7496659D1*
X1250333Y7499659D1*
X1249333Y7503659D1*
X1248333Y7504659D1*
Y7528659D1*
X1249333Y7529659D1*
X1250333Y7533659D1*
X1251333Y7536659D1*
X1252333Y7540659D1*
X1253333Y7543659D1*
X1256333Y7549659D1*
X1262333Y7556659D1*
X1266333Y7560659D1*
X1268333Y7561659D1*
X1269333Y7562659D1*
X1271333Y7563659D1*
X1277333Y7564659D1*
X1283333D1*
X1289333Y7563659D1*
X1448333D1*
G37*
G36*
X1460333Y7546659D2*
Y7527659D1*
X1475333D1*
X1480333Y7529659D1*
X1481333Y7530659D1*
X1483333Y7534659D1*
Y7538659D1*
X1482333Y7541659D1*
X1481333Y7543659D1*
X1480333Y7544659D1*
X1475333Y7546659D1*
X1460333D1*
G37*
G36*
Y7509659D2*
Y7487659D1*
X1475333D1*
X1480333Y7489659D1*
X1481333Y7490659D1*
X1483333Y7494659D1*
Y7502659D1*
X1482333Y7505659D1*
X1480333Y7507659D1*
X1475333Y7509659D1*
X1460333D1*
G37*
G36*
X5830640Y7563629D2*
X5841640Y7564629D1*
X5852640D1*
X5863640Y7563629D1*
X5867640Y7561629D1*
X5870640Y7560629D1*
X5872640Y7559629D1*
X5877640Y7554629D1*
Y7553629D1*
X5880640Y7549629D1*
X5881640Y7546629D1*
X5882640Y7544629D1*
X5883640Y7543629D1*
Y7530629D1*
X5882640Y7529629D1*
X5881640Y7526629D1*
X5880640Y7524629D1*
X5876640Y7518629D1*
X5880640Y7513629D1*
X5881640Y7510629D1*
X5882640Y7508629D1*
X5883640Y7507629D1*
Y7490629D1*
X5882640Y7489629D1*
X5881640Y7486629D1*
X5880640Y7484629D1*
Y7482629D1*
X5872640Y7474629D1*
X5870640Y7473629D1*
X5867640Y7472629D1*
X5863640Y7470629D1*
X5965640D1*
Y7610629D1*
X5389640D1*
Y7563629D1*
X5478640D1*
X5493307Y7564629D1*
X5507974D1*
X5522640Y7563629D1*
X5543640D1*
X5545640Y7564629D1*
X5547640D1*
X5551640Y7562629D1*
X5555640Y7558629D1*
Y7557629D1*
X5560640Y7547629D1*
X5562640Y7544629D1*
X5574640Y7520629D1*
X5576640Y7517629D1*
X5577640Y7515629D1*
X5578640Y7558629D1*
Y7559629D1*
X5581640Y7562629D1*
X5585640Y7564629D1*
X5587640D1*
X5591640Y7562629D1*
X5594640Y7559629D1*
Y7558629D1*
X5595640Y7557629D1*
Y7476629D1*
X5594640Y7475629D1*
Y7474629D1*
X5591640Y7471629D1*
X5587640Y7469629D1*
X5585640D1*
X5581640Y7471629D1*
X5577640Y7475629D1*
Y7476629D1*
X5572640Y7486629D1*
X5570640Y7489629D1*
X5559640Y7511629D1*
X5557640Y7514629D1*
X5555640Y7518629D1*
X5554640Y7475629D1*
Y7474629D1*
X5551640Y7471629D1*
X5547640Y7469629D1*
X5545640D1*
X5541640Y7471629D1*
X5538640Y7474629D1*
Y7475629D1*
X5537640Y7476629D1*
Y7557629D1*
X5538640Y7558629D1*
Y7559629D1*
X5541640Y7562629D1*
X5543640Y7563629D1*
X5522640D1*
X5524640Y7562629D1*
X5527640Y7559629D1*
Y7558629D1*
X5528640Y7557629D1*
Y7553629D1*
X5527640Y7552629D1*
Y7551629D1*
X5524640Y7548629D1*
X5522640Y7547629D1*
X5490640Y7546629D1*
Y7527629D1*
X5507640Y7526629D1*
X5509640Y7525629D1*
X5512640Y7522629D1*
Y7521629D1*
X5513640Y7520629D1*
Y7516629D1*
X5512640Y7515629D1*
Y7514629D1*
X5509640Y7511629D1*
X5507640Y7510629D1*
X5490640Y7509629D1*
Y7487629D1*
X5522640Y7486629D1*
X5524640Y7485629D1*
X5527640Y7482629D1*
Y7481629D1*
X5528640Y7480629D1*
Y7476629D1*
X5527640Y7475629D1*
Y7474629D1*
X5524640Y7471629D1*
X5522640Y7470629D1*
X5507974Y7469629D1*
X5493307D1*
X5478640Y7470629D1*
X5476640Y7471629D1*
X5473640Y7474629D1*
Y7475629D1*
X5472640Y7476629D1*
Y7557629D1*
X5473640Y7558629D1*
Y7559629D1*
X5476640Y7562629D1*
X5478640Y7563629D1*
X5389640D1*
Y7469629D1*
X5743640D1*
X5744640Y7470629D1*
X5727640D1*
X5712307Y7469629D1*
X5696974D1*
X5681640Y7470629D1*
X5679640Y7471629D1*
X5676640Y7474629D1*
Y7475629D1*
X5675640Y7476629D1*
Y7480629D1*
X5676640Y7481629D1*
X5677640Y7483629D1*
X5682640Y7489629D1*
X5702640Y7514629D1*
X5705640Y7518629D1*
X5707640Y7522629D1*
X5708640Y7525629D1*
X5710640Y7529629D1*
X5711640Y7532629D1*
X5712640Y7534629D1*
Y7538629D1*
X5711640Y7541629D1*
X5710640Y7543629D1*
X5708640Y7545629D1*
X5700640D1*
X5698640Y7544629D1*
X5697640Y7543629D1*
X5696640Y7541629D1*
X5695640Y7538629D1*
X5694640Y7533629D1*
Y7532629D1*
X5691640Y7529629D1*
X5687640Y7527629D1*
X5685640D1*
X5681640Y7529629D1*
X5678640Y7532629D1*
Y7533629D1*
X5677640Y7534629D1*
Y7543629D1*
X5678640Y7544629D1*
X5679640Y7546629D1*
X5680640Y7549629D1*
X5682640Y7552629D1*
X5685640Y7556629D1*
X5688640Y7559629D1*
X5694640Y7562629D1*
X5701307Y7563629D1*
X5707974D1*
X5714640Y7562629D1*
X5720640Y7559629D1*
X5725640Y7554629D1*
Y7553629D1*
X5727640Y7549629D1*
X5728640Y7546629D1*
X5729640Y7544629D1*
X5730640Y7543629D1*
Y7530629D1*
X5729640Y7529629D1*
X5728640Y7526629D1*
X5727640Y7524629D1*
X5726640Y7521629D1*
X5724640Y7517629D1*
X5723640Y7514629D1*
X5722640Y7512629D1*
X5719640Y7508629D1*
X5703640Y7488629D1*
Y7487629D1*
X5727640Y7486629D1*
X5729640Y7485629D1*
X5732640Y7482629D1*
Y7481629D1*
X5733640Y7480629D1*
Y7476629D1*
X5732640Y7475629D1*
Y7474629D1*
X5729640Y7471629D1*
X5727640Y7470629D1*
X5744640D1*
X5746640Y7472629D1*
X5748640Y7473629D1*
X5768974Y7474629D1*
X5789307D1*
X5809640Y7473629D1*
X5811640Y7472629D1*
X5814640Y7469629D1*
Y7468629D1*
X5815640Y7467629D1*
Y7463629D1*
X5814640Y7462629D1*
Y7461629D1*
X5811640Y7458629D1*
X5809640Y7457629D1*
X5789307Y7456629D1*
X5768974D1*
X5748640Y7457629D1*
X5746640Y7458629D1*
X5743640Y7461629D1*
Y7462629D1*
X5742640Y7463629D1*
Y7467629D1*
X5743640Y7468629D1*
Y7469629D1*
X5389640D1*
Y7425629D1*
X5965640D1*
Y7470629D1*
X5863640D1*
X5852640Y7469629D1*
X5841640D1*
X5830640Y7470629D1*
X5828640Y7471629D1*
X5825640Y7474629D1*
Y7475629D1*
X5824640Y7476629D1*
Y7557629D1*
X5825640Y7558629D1*
Y7559629D1*
X5828640Y7562629D1*
X5830640Y7563629D1*
X5645640D1*
X5651640Y7559629D1*
X5653640Y7558629D1*
X5660640Y7551629D1*
Y7550629D1*
X5663640Y7545629D1*
X5664640Y7543629D1*
X5665640Y7540629D1*
X5666640Y7539629D1*
Y7534629D1*
X5665640Y7533629D1*
Y7532629D1*
X5662640Y7529629D1*
X5658640Y7527629D1*
X5656640D1*
X5652640Y7529629D1*
X5648640Y7533629D1*
Y7535629D1*
X5647640Y7537629D1*
X5646640Y7540629D1*
X5640640Y7546629D1*
X5633640D1*
X5627640Y7540629D1*
X5626640Y7537629D1*
X5625640Y7535629D1*
X5624640Y7532629D1*
X5623640Y7528629D1*
X5622640Y7525629D1*
Y7507629D1*
X5623640Y7504629D1*
X5624640Y7500629D1*
X5625640Y7498629D1*
X5626640Y7495629D1*
X5627640Y7493629D1*
X5631640Y7488629D1*
X5633640Y7487629D1*
X5639640D1*
X5641640Y7488629D1*
X5646640Y7493629D1*
X5647640Y7495629D1*
X5648640Y7498629D1*
Y7499629D1*
X5652640Y7503629D1*
X5656640Y7505629D1*
X5658640D1*
X5662640Y7503629D1*
X5665640Y7500629D1*
Y7499629D1*
X5666640Y7498629D1*
Y7493629D1*
X5665640Y7492629D1*
X5664640Y7490629D1*
X5663640Y7487629D1*
X5660640Y7483629D1*
Y7482629D1*
X5652640Y7474629D1*
X5650640Y7473629D1*
X5647640Y7471629D1*
X5646640Y7470629D1*
X5640640Y7469629D1*
X5634640D1*
X5628640Y7470629D1*
X5624640Y7472629D1*
X5623640Y7473629D1*
X5620640Y7475629D1*
X5612640Y7483629D1*
Y7484629D1*
X5610640Y7487629D1*
X5609640Y7490629D1*
X5608640Y7492629D1*
X5607640Y7496629D1*
X5606640Y7499629D1*
X5605640Y7503629D1*
X5604640Y7504629D1*
Y7528629D1*
X5605640Y7529629D1*
X5606640Y7533629D1*
X5607640Y7536629D1*
X5608640Y7540629D1*
X5609640Y7543629D1*
X5612640Y7549629D1*
X5618640Y7556629D1*
X5622640Y7560629D1*
X5624640Y7561629D1*
X5625640Y7562629D1*
X5627640Y7563629D1*
X5633640Y7564629D1*
X5639640D1*
X5645640Y7563629D1*
X5830640D1*
G37*
G36*
X5842640Y7546629D2*
Y7527629D1*
X5857640D1*
X5862640Y7529629D1*
X5863640Y7530629D1*
X5865640Y7534629D1*
Y7538629D1*
X5864640Y7541629D1*
X5863640Y7543629D1*
X5862640Y7544629D1*
X5857640Y7546629D1*
X5842640D1*
G37*
G36*
Y7509629D2*
Y7487629D1*
X5857640D1*
X5862640Y7489629D1*
X5863640Y7490629D1*
X5865640Y7494629D1*
Y7502629D1*
X5864640Y7505629D1*
X5862640Y7507629D1*
X5857640Y7509629D1*
X5842640D1*
G37*
X1627140Y10359905D2*
D88*
X1703706D1*
Y10386185D1*
X1699999Y10394945D1*
X1696377Y10397842D1*
X1689134Y10400740D1*
X1678184D1*
X1670856Y10397842D1*
X1667234Y10394945D1*
X1663612Y10386185D1*
X1659906Y10394945D1*
X1656284Y10397842D1*
X1649040Y10400740D1*
X1641712D1*
X1634468Y10397842D1*
X1630762Y10394945D1*
X1627140Y10386185D1*
Y10359905D1*
X1663612D2*
Y10386185D1*
X1667234Y10427407D2*
Y10453687D1*
X1663612Y10462379D1*
X1659906Y10465344D1*
X1652662Y10468242D1*
X1641712D1*
X1634468Y10465344D1*
X1630762Y10462379D1*
X1627140Y10453687D1*
Y10427407D1*
X1703706D1*
Y10653671D2*
X1627140Y10630289D1*
X1703706Y10606974D1*
X1678184Y10615734D2*
Y10644911D1*
X1627140Y10721173D2*
X1703706D1*
X1627140Y10680338D1*
X1703706D1*
Y10901171D2*
X1627140Y10877789D1*
X1703706Y10854474D1*
X1678184Y10863234D2*
Y10892411D1*
X1667234Y10927838D2*
Y10954118D1*
X1663612Y10962811D1*
X1659906Y10965775D1*
X1652662Y10968673D1*
X1641712D1*
X1634468Y10965775D1*
X1630762Y10962811D1*
X1627140Y10954118D1*
Y10927838D1*
X1703706D1*
X1627224Y11391980D2*
Y11362870D1*
X1659990Y11359972D1*
X1656368Y11362870D1*
X1652662Y11371630D1*
Y11380322D1*
X1656368Y11389082D1*
X1663612Y11394945D1*
X1674562Y11397842D1*
X1681806D1*
X1692756Y11394945D1*
X1700084Y11389082D1*
X1703706Y11380322D1*
Y11371630D1*
X1700084Y11362870D1*
X1696377Y11359972D1*
X1689134Y11357007D1*
X1627140Y11424509D2*
X1703706Y11447824D1*
X1627140Y11471139D1*
X1667234Y9363887D2*
Y9390167D1*
X1663612Y9398860D1*
X1659906Y9401825D1*
X1652662Y9404722D1*
X1641712D1*
X1634468Y9401825D1*
X1630762Y9398860D1*
X1627140Y9390167D1*
Y9363887D1*
X1703706D1*
X1627140Y9469259D2*
Y9431389D1*
X1703706D1*
Y9469259D1*
X1663612Y9431389D2*
Y9454704D1*
X1627140Y9609905D2*
Y9650740D1*
X1703706Y9609905D1*
Y9650740D1*
X1627140Y9718242D2*
X1703706D1*
X1627140Y9677407D1*
X1703706D1*
X1627140Y10112405D2*
X1703706D1*
Y10138685D1*
X1699999Y10147445D1*
X1696377Y10150342D1*
X1689134Y10153240D1*
X1678184D1*
X1670856Y10150342D1*
X1667234Y10147445D1*
X1663612Y10138685D1*
X1659906Y10147445D1*
X1656284Y10150342D1*
X1649040Y10153240D1*
X1641712D1*
X1634468Y10150342D1*
X1630762Y10147445D1*
X1627140Y10138685D1*
Y10112405D1*
X1663612D2*
Y10138685D1*
X1627140Y10220742D2*
X1703706D1*
X1627140Y10179907D1*
X1703706D1*
X1645334Y11185940D2*
X1638090Y11183042D1*
X1630762Y11177180D1*
X1627140Y11171385D1*
Y11159727D1*
X1630762Y11153865D1*
X1638090Y11148069D1*
X1645334Y11145105D1*
X1656284Y11142207D1*
X1674562D1*
X1685427Y11145105D1*
X1692756Y11148069D1*
X1699999Y11153865D1*
X1703706Y11159727D1*
Y11171385D1*
X1699999Y11177180D1*
X1692756Y11183042D1*
X1685427Y11185940D1*
X1674562D1*
Y11171385D1*
X1627140Y9862405D2*
Y9903240D1*
X1703706Y9862405D1*
Y9903240D1*
X1667234Y9929907D2*
Y9956187D1*
X1663612Y9964879D1*
X1659906Y9967844D1*
X1652662Y9970742D1*
X1641712D1*
X1634468Y9967844D1*
X1630762Y9964879D1*
X1627140Y9956187D1*
Y9929907D1*
X1703706D1*
X5372847Y10470098D2*
X5296281D1*
Y10443818D1*
X5299987Y10435058D1*
X5303609Y10432161D1*
X5310853Y10429263D1*
X5321803D1*
X5329131Y10432161D1*
X5332753Y10435058D1*
X5336375Y10443818D1*
X5340081Y10435058D1*
X5343703Y10432161D1*
X5350947Y10429263D1*
X5358275D1*
X5365519Y10432161D1*
X5369225Y10435058D1*
X5372847Y10443818D1*
Y10470098D1*
X5336375D2*
Y10443818D1*
X5332753Y10402597D2*
Y10376317D1*
X5336375Y10367624D1*
X5340081Y10364659D1*
X5347325Y10361762D1*
X5358275D1*
X5365519Y10364659D1*
X5369225Y10367624D1*
X5372847Y10376317D1*
Y10402597D1*
X5296281D1*
Y10176332D2*
X5372847Y10199715D1*
X5296281Y10223030D1*
X5321803Y10214270D2*
Y10185092D1*
X5372847Y10108830D2*
X5296281D1*
X5372847Y10149665D1*
X5296281D1*
Y9928832D2*
X5372847Y9952215D1*
X5296281Y9975530D1*
X5321803Y9966770D2*
Y9937592D1*
X5332753Y9902165D2*
Y9875885D1*
X5336375Y9867193D1*
X5340081Y9864228D1*
X5347325Y9861330D1*
X5358275D1*
X5365519Y9864228D1*
X5369225Y9867193D1*
X5372847Y9875885D1*
Y9902165D1*
X5296281D1*
X5354653Y9644064D2*
X5361897Y9646961D1*
X5369225Y9652824D1*
X5372847Y9658619D1*
Y9670276D1*
X5369225Y9676139D1*
X5361897Y9681934D1*
X5354653Y9684899D1*
X5343703Y9687796D1*
X5325425D1*
X5314559Y9684899D1*
X5307231Y9681934D1*
X5299987Y9676139D1*
X5296281Y9670276D1*
Y9658619D1*
X5299987Y9652824D1*
X5307231Y9646961D1*
X5314559Y9644064D1*
X5325425D1*
Y9658619D1*
X5372763Y9438023D2*
Y9467133D1*
X5339997Y9470031D1*
X5343619Y9467133D1*
X5347325Y9458373D1*
Y9449681D1*
X5343619Y9440921D1*
X5336375Y9435058D1*
X5325425Y9432161D1*
X5318181D1*
X5307231Y9435058D1*
X5299903Y9440921D1*
X5296281Y9449681D1*
Y9458373D1*
X5299903Y9467133D1*
X5303609Y9470031D1*
X5310853Y9472996D1*
X5372847Y9405494D2*
X5296281Y9382179D1*
X5372847Y9358864D1*
X5332753Y11466116D2*
Y11439836D1*
X5336375Y11431143D1*
X5340081Y11428178D1*
X5347325Y11425281D1*
X5358275D1*
X5365519Y11428178D1*
X5369225Y11431143D1*
X5372847Y11439836D1*
Y11466116D1*
X5296281D1*
X5372847Y11360744D2*
Y11398614D1*
X5296281D1*
Y11360744D1*
X5336375Y11398614D2*
Y11375299D1*
X5372847Y11220098D2*
Y11179263D1*
X5296281Y11220098D1*
Y11179263D1*
X5372847Y11111762D2*
X5296281D1*
X5372847Y11152597D1*
X5296281D1*
X5372847Y10967598D2*
Y10926763D1*
X5296281Y10967598D1*
Y10926763D1*
X5332753Y10900097D2*
Y10873817D1*
X5336375Y10865124D1*
X5340081Y10862159D1*
X5347325Y10859262D1*
X5358275D1*
X5365519Y10862159D1*
X5369225Y10865124D1*
X5372847Y10873817D1*
Y10900097D1*
X5296281D1*
X5372847Y10717598D2*
X5296281D1*
Y10691318D1*
X5299987Y10682558D1*
X5303609Y10679661D1*
X5310853Y10676763D1*
X5321803D1*
X5329131Y10679661D1*
X5332753Y10682558D1*
X5336375Y10691318D1*
X5340081Y10682558D1*
X5343703Y10679661D1*
X5350947Y10676763D1*
X5358275D1*
X5365519Y10679661D1*
X5369225Y10682558D1*
X5372847Y10691318D1*
Y10717598D1*
X5336375D2*
Y10691318D1*
X5372847Y10609262D2*
X5296281D1*
X5372847Y10650097D1*
X5296281D1*
X2942903Y14444870D2*
Y14368304D1*
X2969183D1*
X2977943Y14372010D1*
X2980841Y14375632D1*
X2983738Y14382876D1*
Y14393826D1*
X2980841Y14401154D1*
X2977943Y14404776D1*
X2969183Y14408398D1*
X2977943Y14412104D1*
X2980841Y14415726D1*
X2983738Y14422970D1*
Y14430298D1*
X2980841Y14437542D1*
X2977943Y14441248D1*
X2969183Y14444870D1*
X2942903D1*
Y14408398D2*
X2969183D1*
X3010405Y14406545D2*
X3044097D1*
X3367003Y14444870D2*
Y14368304D1*
X3393283D1*
X3402043Y14372010D1*
X3404940Y14375632D1*
X3407838Y14382876D1*
Y14393826D1*
X3404940Y14401154D1*
X3402043Y14404776D1*
X3393283Y14408398D1*
X3402043Y14412104D1*
X3404940Y14415726D1*
X3407838Y14422970D1*
Y14430298D1*
X3404940Y14437542D1*
X3402043Y14441248D1*
X3393283Y14444870D1*
X3367003D1*
Y14408398D2*
X3393283D1*
X3460717Y14439352D2*
Y14373737D1*
X3434505Y14406502D2*
X3486997D1*
X3578669Y14368304D2*
X3555287Y14444870D1*
X3531972Y14368304D1*
X3540732Y14393826D2*
X3569909D1*
X3605336Y14406545D2*
X3639028D1*
X3977769Y14368304D2*
X3954387Y14444870D1*
X3931072Y14368304D1*
X3939832Y14393826D2*
X3969009D1*
X4030648Y14439352D2*
Y14373737D1*
X4004436Y14406502D2*
X4056928D1*
X4146927Y3822237D2*
Y3898803D1*
X4120647D1*
X4111887Y3895097D1*
X4108989Y3891475D1*
X4106092Y3884231D1*
Y3873281D1*
X4108989Y3865953D1*
X4111887Y3862331D1*
X4120647Y3858709D1*
X4111887Y3855003D1*
X4108989Y3851381D1*
X4106092Y3844137D1*
Y3836809D1*
X4108989Y3829565D1*
X4111887Y3825859D1*
X4120647Y3822237D1*
X4146927D1*
Y3858709D2*
X4120647D1*
X4079425Y3860562D2*
X4045733D1*
X3810327Y3822237D2*
Y3898803D1*
X3784047D1*
X3775287Y3895097D1*
X3772390Y3891475D1*
X3769492Y3884231D1*
Y3873281D1*
X3772390Y3865953D1*
X3775287Y3862331D1*
X3784047Y3858709D1*
X3775287Y3855003D1*
X3772390Y3851381D1*
X3769492Y3844137D1*
Y3836809D1*
X3772390Y3829565D1*
X3775287Y3825859D1*
X3784047Y3822237D1*
X3810327D1*
Y3858709D2*
X3784047D1*
X3716613Y3827754D2*
Y3893370D1*
X3742825Y3860604D2*
X3690333D1*
X3261161Y3898803D2*
X3284543Y3822237D1*
X3307858Y3898803D1*
X3299098Y3873281D2*
X3269921D1*
X3234494Y3860562D2*
X3200802D1*
X2924561Y3898803D2*
X2947943Y3822237D1*
X2971258Y3898803D1*
X2962498Y3873281D2*
X2933321D1*
X2871682Y3827754D2*
Y3893370D1*
X2897894Y3860604D2*
X2845402D1*
X1893300Y8377567D2*
X1855430D1*
Y8301001D1*
X1893300D1*
X1855430Y8341095D2*
X1878745D1*
X1919967Y8377567D2*
Y8301001D1*
X1940384D1*
X1949144Y8304707D1*
X1955007Y8311951D1*
X1957904Y8319279D1*
X1960802Y8330145D1*
Y8348423D1*
X1957904Y8359373D1*
X1955007Y8366617D1*
X1949144Y8373945D1*
X1940384Y8377567D1*
X1919967D1*
X1987469Y8362911D2*
X1993331Y8366617D1*
X2002091Y8377483D1*
Y8301001D1*
X2075455D2*
X2052073Y8377567D1*
X2028758Y8301001D1*
X2037518Y8326523D2*
X2066695D1*
X1890403Y7977483D2*
X1861292D1*
X1858395Y7944717D1*
X1861292Y7948339D1*
X1870052Y7952045D1*
X1878745D1*
X1887505Y7948339D1*
X1893368Y7941095D1*
X1896265Y7930145D1*
Y7922901D1*
X1893368Y7911951D1*
X1887505Y7904623D1*
X1878745Y7901001D1*
X1870052D1*
X1861292Y7904623D1*
X1858395Y7908329D1*
X1855430Y7915573D1*
X1922932Y7977567D2*
X1946247Y7901001D1*
X1969562Y7977567D1*
X5103797Y8302433D2*
X5141667D1*
Y8378999D1*
X5103797D1*
X5141667Y8338905D2*
X5118352D1*
X5077130Y8302433D2*
Y8378999D1*
X5056712D1*
X5047952Y8375293D1*
X5042090Y8368049D1*
X5039192Y8360721D1*
X5036295Y8349855D1*
Y8331577D1*
X5039192Y8320627D1*
X5042090Y8313383D1*
X5047952Y8306055D1*
X5056712Y8302433D1*
X5077130D1*
X5006663Y8320711D2*
Y8317089D1*
X5003766Y8309761D1*
X5000868Y8306139D1*
X4995006Y8302517D1*
X4983348D1*
X4977553Y8306139D1*
X4974655Y8309761D1*
X4971691Y8317089D1*
Y8324333D1*
X4974655Y8331661D1*
X4980451Y8342527D1*
X5009628Y8378999D1*
X4968793D1*
X4895429D2*
X4918811Y8302433D1*
X4942126Y8378999D1*
X4933366Y8353477D2*
X4904189D1*
X5106694Y8702517D2*
X5135804D1*
X5138702Y8735283D1*
X5135804Y8731661D1*
X5127044Y8727955D1*
X5118352D1*
X5109592Y8731661D1*
X5103729Y8738905D1*
X5100832Y8749855D1*
Y8757099D1*
X5103729Y8768049D1*
X5109592Y8775377D1*
X5118352Y8778999D1*
X5127044D1*
X5135804Y8775377D1*
X5138702Y8771671D1*
X5141667Y8764427D1*
X5074165Y8702433D2*
X5050850Y8778999D1*
X5027535Y8702433D1*
X5097934Y8520627D2*
X5100832Y8513383D1*
X5106694Y8506055D1*
X5112489Y8502433D1*
X5124147D1*
X5130009Y8506055D1*
X5135804Y8513383D1*
X5138769Y8520627D1*
X5141667Y8531577D1*
Y8549855D1*
X5138769Y8560721D1*
X5135804Y8568049D1*
X5130009Y8575293D1*
X5124147Y8578999D1*
X5112489D1*
X5106694Y8575293D1*
X5100832Y8568049D1*
X5097934Y8560721D1*
Y8549855D1*
X5112489D1*
X5030432Y8502433D2*
Y8578999D1*
X5071267Y8502433D1*
Y8578999D1*
X5003766Y8502433D2*
Y8578999D1*
X4983348D1*
X4974588Y8575293D1*
X4968726Y8568049D1*
X4965828Y8560721D1*
X4962931Y8549855D1*
Y8531577D1*
X4965828Y8520627D1*
X4968726Y8513383D1*
X4974588Y8506055D1*
X4983348Y8502433D1*
X5003766D1*
X1899163Y8159373D2*
X1896265Y8166617D1*
X1890403Y8173945D1*
X1884608Y8177567D1*
X1872950D1*
X1867088Y8173945D1*
X1861292Y8166617D1*
X1858328Y8159373D1*
X1855430Y8148423D1*
Y8130145D1*
X1858328Y8119279D1*
X1861292Y8111951D1*
X1867088Y8104707D1*
X1872950Y8101001D1*
X1884608D1*
X1890403Y8104707D1*
X1896265Y8111951D1*
X1899163Y8119279D1*
Y8130145D1*
X1884608D1*
X1966664Y8177567D2*
Y8101001D1*
X1925829Y8177567D1*
Y8101001D1*
X1993331Y8177567D2*
Y8101001D1*
X2013749D1*
X2022509Y8104707D1*
X2028371Y8111951D1*
X2031269Y8119279D1*
X2034166Y8130145D1*
Y8148423D1*
X2031269Y8159373D1*
X2028371Y8166617D1*
X2022509Y8173945D1*
X2013749Y8177567D1*
X1993331D1*
X5103797Y8102433D2*
X5141667D1*
Y8178999D1*
X5103797D1*
X5141667Y8138905D2*
X5118352D1*
X5077130Y8102433D2*
Y8178999D1*
X5056712D1*
X5047952Y8175293D1*
X5042090Y8168049D1*
X5039192Y8160721D1*
X5036295Y8149855D1*
Y8131577D1*
X5039192Y8120627D1*
X5042090Y8113383D1*
X5047952Y8106055D1*
X5056712Y8102433D1*
X5077130D1*
X5006663Y8120711D2*
Y8117089D1*
X5003766Y8109761D1*
X5000868Y8106139D1*
X4995006Y8102517D1*
X4983348D1*
X4977553Y8106139D1*
X4974655Y8109761D1*
X4971691Y8117089D1*
Y8124333D1*
X4974655Y8131661D1*
X4980451Y8142527D1*
X5009628Y8178999D1*
X4968793D1*
X4942126Y8102433D2*
Y8178999D1*
X4915846D1*
X4907086Y8175293D1*
X4904189Y8171671D1*
X4901291Y8164427D1*
Y8153477D1*
X4904189Y8146149D1*
X4907086Y8142527D1*
X4915846Y8138905D1*
X4907086Y8135199D1*
X4904189Y8131577D1*
X4901291Y8124333D1*
Y8117005D1*
X4904189Y8109761D1*
X4907086Y8106055D1*
X4915846Y8102433D1*
X4942126D1*
Y8138905D2*
X4915846D1*
X5103797Y7902433D2*
X5141667D1*
Y7978999D1*
X5103797D1*
X5141667Y7938905D2*
X5118352D1*
X5077130Y7902433D2*
Y7978999D1*
X5056712D1*
X5047952Y7975293D1*
X5042090Y7968049D1*
X5039192Y7960721D1*
X5036295Y7949855D1*
Y7931577D1*
X5039192Y7920627D1*
X5042090Y7913383D1*
X5047952Y7906055D1*
X5056712Y7902433D1*
X5077130D1*
X5006663Y7920711D2*
Y7917089D1*
X5003766Y7909761D1*
X5000868Y7906139D1*
X4995006Y7902517D1*
X4983348D1*
X4977553Y7906139D1*
X4974655Y7909761D1*
X4971691Y7917089D1*
Y7924333D1*
X4974655Y7931661D1*
X4980451Y7942527D1*
X5009628Y7978999D1*
X4968793D1*
X4942126Y7902433D2*
X4901291D1*
X4942126Y7978999D1*
X4901291D1*
X1893300Y8577567D2*
X1855430D1*
Y8501001D1*
X1893300D1*
X1855430Y8541095D2*
X1878745D1*
X1919967Y8577567D2*
Y8501001D1*
X1940384D1*
X1949144Y8504707D1*
X1955007Y8511951D1*
X1957904Y8519279D1*
X1960802Y8530145D1*
Y8548423D1*
X1957904Y8559373D1*
X1955007Y8566617D1*
X1949144Y8573945D1*
X1940384Y8577567D1*
X1919967D1*
X1987469Y8562911D2*
X1993331Y8566617D1*
X2002091Y8577483D1*
Y8501001D1*
X2028758Y8577567D2*
Y8501001D1*
X2055038D1*
X2063798Y8504707D1*
X2066695Y8508329D1*
X2069593Y8515573D1*
Y8526523D1*
X2066695Y8533851D1*
X2063798Y8537473D1*
X2055038Y8541095D1*
X2063798Y8544801D1*
X2066695Y8548423D1*
X2069593Y8555667D1*
Y8562995D1*
X2066695Y8570239D1*
X2063798Y8573945D1*
X2055038Y8577567D1*
X2028758D1*
Y8541095D2*
X2055038D1*
X1893300Y8777567D2*
X1855430D1*
Y8701001D1*
X1893300D1*
X1855430Y8741095D2*
X1878745D1*
X1919967Y8777567D2*
Y8701001D1*
X1940384D1*
X1949144Y8704707D1*
X1955007Y8711951D1*
X1957904Y8719279D1*
X1960802Y8730145D1*
Y8748423D1*
X1957904Y8759373D1*
X1955007Y8766617D1*
X1949144Y8773945D1*
X1940384Y8777567D1*
X1919967D1*
X1987469Y8762911D2*
X1993331Y8766617D1*
X2002091Y8777483D1*
Y8701001D1*
X2028758Y8777567D2*
X2069593D1*
X2028758Y8701001D1*
X2069593D1*
X2783194Y9690089D2*
D89*
Y9588002D1*
Y9636631D2*
X2794874Y9651231D1*
X2802691Y9656060D1*
X2814371D1*
X2822098Y9651231D1*
X2825961Y9636631D1*
Y9588002D1*
X2873197Y9690089D2*
Y9607431D1*
X2877060Y9592943D1*
X2884877Y9588002D1*
X2892604D1*
X2861517Y9656060D2*
X2888740D1*
X2939839Y9690089D2*
Y9607431D1*
X2943702Y9592943D1*
X2951519Y9588002D1*
X2959246D1*
X2928159Y9656060D2*
X2955382D1*
X2994801D2*
Y9553972D1*
Y9641460D2*
X3002618Y9651118D1*
X3010345Y9656060D1*
X3022025D1*
X3029841Y9651118D1*
X3037568Y9641460D1*
X3041521Y9626860D1*
Y9617089D1*
X3037568Y9602602D1*
X3029841Y9592831D1*
X3022025Y9588002D1*
X3010345D1*
X3002618Y9592831D1*
X2994801Y9602602D1*
X3081030Y9656060D2*
X3077077Y9651118D1*
X3081030Y9646289D1*
X3084894Y9651118D1*
X3081030Y9656060D1*
Y9597772D2*
X3077077Y9592831D1*
X3081030Y9588002D1*
X3084894Y9592831D1*
X3081030Y9597772D1*
X3120449Y9588002D2*
X3174896Y9689977D1*
X3210451Y9588002D2*
X3264898Y9689977D1*
X3300454Y9656060D2*
Y9588002D1*
Y9636631D2*
X3312134Y9651231D1*
X3319950Y9656060D1*
X3331541D1*
X3339357Y9651231D1*
X3343221Y9636631D1*
Y9588002D1*
Y9636631D2*
X3354901Y9651231D1*
X3362717Y9656060D1*
X3374307D1*
X3382124Y9651231D1*
X3386077Y9636631D1*
Y9588002D1*
X3468263Y9656060D2*
Y9588002D1*
Y9641460D2*
X3460536Y9651231D1*
X3452720Y9656060D1*
X3441129D1*
X3433313Y9651231D1*
X3425586Y9641460D1*
X3421633Y9626860D1*
Y9617202D1*
X3425586Y9602602D1*
X3433313Y9592943D1*
X3441129Y9588002D1*
X3452720D1*
X3460536Y9592943D1*
X3468263Y9602602D1*
X3503818Y9690089D2*
Y9588002D1*
X3542722Y9656060D2*
X3503818Y9607431D1*
X3519362Y9626860D2*
X3546585Y9588002D1*
X3582141Y9626860D2*
X3628771D1*
Y9636631D1*
X3624908Y9646402D1*
X3621044Y9651231D1*
X3613228Y9656060D1*
X3601548D1*
X3593821Y9651231D1*
X3586004Y9641460D1*
X3582141Y9626860D1*
Y9617202D1*
X3586004Y9602602D1*
X3593821Y9592943D1*
X3601548Y9588002D1*
X3613228D1*
X3621044Y9592943D1*
X3628771Y9602602D1*
X3664326Y9656060D2*
Y9588002D1*
Y9626860D2*
X3668280Y9641460D1*
X3676006Y9651231D1*
X3683823Y9656060D1*
X3695503D1*
X3731059D2*
Y9553972D1*
Y9641460D2*
X3738875Y9651118D1*
X3746602Y9656060D1*
X3758282D1*
X3766099Y9651118D1*
X3773825Y9641460D1*
X3777779Y9626860D1*
Y9617089D1*
X3773825Y9602602D1*
X3766099Y9592831D1*
X3758282Y9588002D1*
X3746602D1*
X3738875Y9592831D1*
X3731059Y9602602D1*
X3813334Y9656060D2*
Y9588002D1*
Y9636631D2*
X3825014Y9651231D1*
X3832831Y9656060D1*
X3844421D1*
X3852238Y9651231D1*
X3856101Y9636631D1*
Y9588002D1*
X3891657Y9656060D2*
Y9553972D1*
Y9641460D2*
X3899473Y9651118D1*
X3907200Y9656060D1*
X3918880D1*
X3926697Y9651118D1*
X3934423Y9641460D1*
X3938377Y9626860D1*
Y9617089D1*
X3934423Y9602602D1*
X3926697Y9592831D1*
X3918880Y9588002D1*
X3907200D1*
X3899473Y9592831D1*
X3891657Y9602602D1*
X3977795Y9597772D2*
X3973932Y9592831D1*
X3977795Y9588002D1*
X3981749Y9592831D1*
X3977795Y9597772D1*
X4036711Y9656060D2*
X4028984Y9651231D1*
X4021168Y9641460D1*
X4017304Y9626860D1*
Y9617202D1*
X4021168Y9602602D1*
X4028984Y9592943D1*
X4036711Y9588002D1*
X4048391D1*
X4056208Y9592943D1*
X4063934Y9602602D1*
X4067888Y9617202D1*
Y9626860D1*
X4063934Y9641460D1*
X4056208Y9651231D1*
X4048391Y9656060D1*
X4036711D1*
X4103443D2*
Y9588002D1*
Y9626860D2*
X4107396Y9641460D1*
X4115123Y9651231D1*
X4122940Y9656060D1*
X4134620D1*
X4216806Y9651231D2*
Y9573402D1*
X4212942Y9558914D1*
X4209079Y9553972D1*
X4201262Y9549143D1*
X4189582D1*
X4181855Y9553972D1*
X4216806Y9636631D2*
X4209079Y9646289D1*
X4201262Y9651231D1*
X4189582D1*
X4181855Y9646289D1*
X4174039Y9636631D1*
X4170175Y9622031D1*
Y9612260D1*
X4174039Y9597772D1*
X4181855Y9588002D1*
X4189582Y9583172D1*
X4201262D1*
X4209079Y9588002D1*
X4216806Y9597772D1*
X4134503Y2261119D2*
Y2159032D1*
X4161726D1*
X4173406Y2163973D1*
X4181223Y2173632D1*
X4185086Y2183403D1*
X4188950Y2197890D1*
Y2222261D1*
X4185086Y2236861D1*
X4181223Y2246519D1*
X4173406Y2256290D1*
X4161726Y2261119D1*
X4134503D1*
X4224505Y2197890D2*
X4271135D1*
Y2207661D1*
X4267272Y2217432D1*
X4263409Y2222261D1*
X4255592Y2227090D1*
X4243912D1*
X4236185Y2222261D1*
X4228369Y2212490D1*
X4224505Y2197890D1*
Y2188232D1*
X4228369Y2173632D1*
X4236185Y2163973D1*
X4243912Y2159032D1*
X4255592D1*
X4263409Y2163973D1*
X4271135Y2173632D1*
X4349458Y2212490D2*
X4345594Y2222261D1*
X4333914Y2227090D1*
X4322234D1*
X4310554Y2222261D1*
X4306691Y2212490D1*
X4310554Y2202832D1*
X4318371Y2197890D1*
X4337778Y2193061D1*
X4345594Y2188232D1*
X4349458Y2178461D1*
Y2173632D1*
X4345594Y2163973D1*
X4333914Y2159032D1*
X4322234D1*
X4310554Y2163973D1*
X4306691Y2173632D1*
X4385013Y2261119D2*
X4388877Y2256290D1*
X4392830Y2261119D1*
X4388877Y2266061D1*
X4385013Y2261119D1*
X4388877Y2227090D2*
Y2159032D1*
X4475016Y2222261D2*
Y2144432D1*
X4471152Y2129944D1*
X4467289Y2125003D1*
X4459472Y2120173D1*
X4447792D1*
X4440065Y2125003D1*
X4475016Y2207661D2*
X4467289Y2217319D1*
X4459472Y2222261D1*
X4447792D1*
X4440065Y2217319D1*
X4432249Y2207661D1*
X4428385Y2193061D1*
Y2183290D1*
X4432249Y2168803D1*
X4440065Y2159032D1*
X4447792Y2154203D1*
X4459472D1*
X4467289Y2159032D1*
X4475016Y2168803D1*
X4510571Y2227090D2*
Y2159032D1*
Y2207661D2*
X4522251Y2222261D1*
X4530068Y2227090D1*
X4541658D1*
X4549474Y2222261D1*
X4553338Y2207661D1*
Y2159032D1*
X4588893Y2197890D2*
X4635524D1*
Y2207661D1*
X4631660Y2217432D1*
X4627797Y2222261D1*
X4619980Y2227090D1*
X4608300D1*
X4600573Y2222261D1*
X4592757Y2212490D1*
X4588893Y2197890D1*
Y2188232D1*
X4592757Y2173632D1*
X4600573Y2163973D1*
X4608300Y2159032D1*
X4619980D1*
X4627797Y2163973D1*
X4635524Y2173632D1*
X4717709Y2261119D2*
Y2159032D1*
Y2212490D2*
X4709982Y2222261D1*
X4702166Y2227090D1*
X4690486D1*
X4682759Y2222261D1*
X4674942Y2212490D1*
X4671079Y2197890D1*
Y2188232D1*
X4674942Y2173632D1*
X4682759Y2163973D1*
X4690486Y2159032D1*
X4702166D1*
X4709982Y2163973D1*
X4717709Y2173632D1*
X4842728Y2261119D2*
Y2159032D1*
Y2212490D2*
X4850545Y2222261D1*
X4858271Y2227090D1*
X4869951D1*
X4877678Y2222261D1*
X4885495Y2212490D1*
X4889358Y2197890D1*
Y2188232D1*
X4885495Y2173632D1*
X4877678Y2163973D1*
X4869951Y2159032D1*
X4858271D1*
X4850545Y2163973D1*
X4842728Y2173632D1*
X4928867Y2227090D2*
X4952137Y2159032D1*
X4944410Y2139603D1*
X4936594Y2129832D1*
X4928867Y2125003D1*
X4924914D1*
X4975497Y2227090D2*
X4952137Y2159032D1*
X4020445Y2049059D2*
Y1946971D1*
X4047669D1*
X4059349Y1951913D1*
X4067165Y1961571D1*
X4071029Y1971342D1*
X4074892Y1985830D1*
Y2010201D1*
X4071029Y2024801D1*
X4067165Y2034459D1*
X4059349Y2044230D1*
X4047669Y2049059D1*
X4020445D1*
X4129854Y2015030D2*
X4122128Y2010201D1*
X4114311Y2000430D1*
X4110448Y1985830D1*
Y1976171D1*
X4114311Y1961571D1*
X4122128Y1951913D1*
X4129854Y1946971D1*
X4141534D1*
X4149351Y1951913D1*
X4157078Y1961571D1*
X4161031Y1976171D1*
Y1985830D1*
X4157078Y2000430D1*
X4149351Y2010201D1*
X4141534Y2015030D1*
X4129854D1*
X4196587D2*
Y1946971D1*
Y1995601D2*
X4208267Y2010201D1*
X4216083Y2015030D1*
X4227673D1*
X4235490Y2010201D1*
X4239353Y1995601D1*
Y1946971D1*
Y1995601D2*
X4251033Y2010201D1*
X4258850Y2015030D1*
X4270440D1*
X4278257Y2010201D1*
X4282210Y1995601D1*
Y1946971D1*
X4317765Y2049059D2*
X4321629Y2044230D1*
X4325582Y2049059D1*
X4321629Y2054001D1*
X4317765Y2049059D1*
X4321629Y2015030D2*
Y1946971D1*
X4361138Y2015030D2*
Y1946971D1*
Y1995601D2*
X4372818Y2010201D1*
X4380634Y2015030D1*
X4392224D1*
X4400041Y2010201D1*
X4403904Y1995601D1*
Y1946971D1*
X4439460Y2049059D2*
X4443323Y2044230D1*
X4447277Y2049059D1*
X4443323Y2054001D1*
X4439460Y2049059D1*
X4443323Y2015030D2*
Y1946971D1*
X4529552Y2000430D2*
X4521736Y2010201D1*
X4513919Y2015030D1*
X4502329D1*
X4494512Y2010201D1*
X4486785Y2000430D1*
X4482832Y1985830D1*
Y1976171D1*
X4486785Y1961571D1*
X4494512Y1951913D1*
X4502329Y1946971D1*
X4513919D1*
X4521736Y1951913D1*
X4529552Y1961571D1*
X4712881Y2024801D2*
X4709018Y2034459D1*
X4701201Y2044230D1*
X4693474Y2049059D1*
X4677931D1*
X4670114Y2044230D1*
X4662388Y2034459D1*
X4658434Y2024801D1*
X4654571Y2010201D1*
Y1985830D1*
X4658434Y1971342D1*
X4662388Y1961571D1*
X4670114Y1951913D1*
X4677931Y1946971D1*
X4693474D1*
X4701201Y1951913D1*
X4709018Y1961571D1*
X4712881Y1971342D1*
X4748437Y2049059D2*
Y1946971D1*
X4783992Y2049059D2*
X4787856Y2044230D1*
X4791809Y2049059D1*
X4787856Y2054001D1*
X4783992Y2049059D1*
X4787856Y2015030D2*
Y1946971D1*
X4858451Y2049059D2*
X4850724D1*
X4842908Y2044230D1*
X4839044Y2029630D1*
Y1946971D1*
X4827364Y2015030D2*
X4854588D1*
X4905687Y2049059D2*
Y1966401D1*
X4909550Y1951913D1*
X4917367Y1946971D1*
X4925093D1*
X4894007Y2015030D2*
X4921230D1*
X4980056D2*
X4972329Y2010201D1*
X4964512Y2000430D1*
X4960649Y1985830D1*
Y1976171D1*
X4964512Y1961571D1*
X4972329Y1951913D1*
X4980056Y1946971D1*
X4991736D1*
X4999552Y1951913D1*
X5007279Y1961571D1*
X5011232Y1976171D1*
Y1985830D1*
X5007279Y2000430D1*
X4999552Y2010201D1*
X4991736Y2015030D1*
X4980056D1*
X5046788D2*
Y1946971D1*
Y1995601D2*
X5058468Y2010201D1*
X5066285Y2015030D1*
X5077875D1*
X5085691Y2010201D1*
X5089555Y1995601D1*
Y1946971D1*
X4951078Y16634801D2*
D88*
Y16700417D1*
X4977290Y16667651D2*
X4924798D1*
X4898131Y16643940D2*
X4892268Y16640234D1*
X4883508Y16629368D1*
Y16705849D1*
X4853877Y16647562D2*
Y16643940D1*
X4850979Y16636612D1*
X4848082Y16632990D1*
X4842219Y16629368D1*
X4830562D1*
X4824767Y16632990D1*
X4821869Y16636612D1*
X4818904Y16643940D1*
Y16651184D1*
X4821869Y16658512D1*
X4827664Y16669378D1*
X4856842Y16705849D1*
X4816007D1*
X4789340Y16629284D2*
X4766025Y16705849D1*
X4742710Y16629284D1*
X4575635Y16647478D2*
X4578533Y16640234D1*
X4584395Y16632906D1*
X4590191Y16629284D1*
X4601848D1*
X4607711Y16632906D1*
X4613506Y16640234D1*
X4616471Y16647478D1*
X4619368Y16658428D1*
Y16676706D1*
X4616471Y16687571D1*
X4613506Y16694899D1*
X4607711Y16702143D1*
X4601848Y16705849D1*
X4590191D1*
X4584395Y16702143D1*
X4578533Y16694899D1*
X4575635Y16687571D1*
Y16676706D1*
X4590191D1*
X4508134Y16629284D2*
Y16705849D1*
X4548969Y16629284D1*
Y16705849D1*
X4481467Y16629284D2*
Y16705849D1*
X4461049D1*
X4452289Y16702143D1*
X4446427Y16694899D1*
X4443529Y16687571D1*
X4440632Y16676706D1*
Y16658428D1*
X4443529Y16647478D1*
X4446427Y16640234D1*
X4452289Y16632906D1*
X4461049Y16629284D1*
X4481467D1*
X1207907Y15326007D2*
X1178797D1*
X1175899Y15293241D1*
X1178797Y15296863D1*
X1187557Y15300569D1*
X1196249D1*
X1205009Y15296863D1*
X1210872Y15289619D1*
X1213769Y15278669D1*
Y15271425D1*
X1210872Y15260475D1*
X1205009Y15253147D1*
X1196249Y15249525D1*
X1187557D1*
X1178797Y15253147D1*
X1175899Y15256853D1*
X1172934Y15264097D1*
X1240436Y15326091D2*
X1263751Y15249525D1*
X1287066Y15326091D1*
X5697289Y15311435D2*
X5703152Y15315141D1*
X5711912Y15326007D1*
Y15249525D1*
X5741544Y15307813D2*
Y15311435D1*
X5744441Y15318763D1*
X5747339Y15322385D1*
X5753201Y15326007D1*
X5764859D1*
X5770654Y15322385D1*
X5773551Y15318763D1*
X5776516Y15311435D1*
Y15304191D1*
X5773551Y15296863D1*
X5767756Y15285997D1*
X5738579Y15249525D1*
X5779414D1*
X5806080Y15326091D2*
X5829395Y15249525D1*
X5852711Y15326091D1*
X2300603Y16109603D2*
X2303501Y16102359D1*
X2309363Y16095031D1*
X2315159Y16091409D1*
X2326816D1*
X2332679Y16095031D1*
X2338474Y16102359D1*
X2341439Y16109603D1*
X2344336Y16120553D1*
Y16138831D1*
X2341439Y16149697D1*
X2338474Y16157025D1*
X2332679Y16164269D1*
X2326816Y16167975D1*
X2315159D1*
X2309363Y16164269D1*
X2303501Y16157025D1*
X2300603Y16149697D1*
X2273937Y16091409D2*
Y16167975D1*
X2233102Y16091409D2*
Y16167975D1*
X2273937Y16127881D2*
X2233102D1*
X2168565Y16091409D2*
X2206435D1*
Y16167975D1*
X2168565D1*
X2206435Y16127881D2*
X2183120D1*
X2098166Y16109603D2*
X2101063Y16102359D1*
X2106926Y16095031D1*
X2112721Y16091409D1*
X2124378D1*
X2130241Y16095031D1*
X2136036Y16102359D1*
X2139001Y16109603D1*
X2141898Y16120553D1*
Y16138831D1*
X2139001Y16149697D1*
X2136036Y16157025D1*
X2130241Y16164269D1*
X2124378Y16167975D1*
X2112721D1*
X2106926Y16164269D1*
X2101063Y16157025D1*
X2098166Y16149697D1*
X2071499Y16091409D2*
Y16167975D1*
X2030664Y16091409D2*
X2071499Y16142453D1*
X2056944Y16124175D2*
X2030664Y16167975D1*
X2429551Y16261631D2*
X2403271D1*
X2394579Y16258009D1*
X2391614Y16254303D1*
X2388716Y16247059D1*
Y16236109D1*
X2391614Y16228865D1*
X2394579Y16225159D1*
X2403271Y16221537D1*
X2429551D1*
Y16298103D1*
X2344529Y16221537D2*
X2350392Y16225159D1*
X2356187Y16232487D1*
X2359152Y16239731D1*
X2362049Y16250681D1*
Y16268959D1*
X2359152Y16279825D1*
X2356187Y16287153D1*
X2350392Y16294397D1*
X2344529Y16298103D1*
X2332872D1*
X2327077Y16294397D1*
X2321214Y16287153D1*
X2318317Y16279825D1*
X2315419Y16268959D1*
Y16250681D1*
X2318317Y16239731D1*
X2321214Y16232487D1*
X2327077Y16225159D1*
X2332872Y16221537D1*
X2344529D1*
X2288753D2*
Y16298103D1*
X2253780D1*
X2180416D2*
X2203798Y16221537D1*
X2227113Y16298103D1*
X2218353Y16272581D2*
X2189176D1*
X2153749Y16258009D2*
X2127537D1*
X2118777Y16254303D1*
X2115812Y16250681D1*
X2112914Y16243437D1*
Y16236109D1*
X2115812Y16228865D1*
X2118777Y16225159D1*
X2127537Y16221537D1*
X2153749D1*
Y16298103D1*
X2133332Y16258009D2*
X2112914Y16298103D1*
X2086247Y16221537D2*
Y16298103D1*
X2039163Y16221537D2*
Y16298103D1*
X2059581Y16221537D2*
X2018746D1*
X1992079D2*
X1968764Y16258009D1*
Y16298103D1*
X1945449Y16221537D2*
X1968764Y16258009D1*
X2705299Y16545579D2*
D89*
X2714957Y16549442D1*
X2724728Y16557259D1*
X2729557Y16564986D1*
Y16580529D1*
X2724728Y16588346D1*
X2714957Y16596072D1*
X2705299Y16600026D1*
X2690699Y16603889D1*
X2666328D1*
X2651840Y16600026D1*
X2642070Y16596072D1*
X2632411Y16588346D1*
X2627470Y16580529D1*
Y16564986D1*
X2632411Y16557259D1*
X2642070Y16549442D1*
X2651840Y16545579D1*
X2666328D1*
Y16564986D1*
X2729557Y16455576D2*
X2627470D1*
X2729557Y16510023D1*
X2627470D1*
X2729557Y16420021D2*
X2627470D1*
Y16392797D1*
X2632411Y16381117D1*
X2642070Y16373301D1*
X2651840Y16369437D1*
X2666328Y16365574D1*
X2690699D1*
X2705299Y16369437D1*
X2714957Y16373301D1*
X2724728Y16381117D1*
X2729557Y16392797D1*
Y16420021D1*
X1975621Y16606389D2*
X1873534Y16575302D1*
X1975621Y16544215D1*
X1968265Y16473710D2*
X1880777D1*
X1924465Y16508660D2*
Y16438670D1*
X2302490Y10843813D2*
Y10800125D1*
X2307432Y10785525D1*
X2312261Y10780584D1*
X2321919Y10775754D1*
X2331690D1*
X2341349Y10780584D1*
X2346290Y10785525D1*
X2351119Y10800125D1*
Y10843813D1*
X2249032D1*
X2302490Y10809784D2*
X2249032Y10775754D1*
X2287890Y10731310D2*
Y10673022D1*
X2297661D1*
X2307432Y10677851D1*
X2312261Y10682681D1*
X2317090Y10692451D1*
Y10707051D1*
X2312261Y10716710D1*
X2302490Y10726481D1*
X2287890Y10731310D1*
X2278232D1*
X2263632Y10726481D1*
X2253973Y10716710D1*
X2249032Y10707051D1*
Y10692451D1*
X2253973Y10682681D1*
X2263632Y10673022D1*
X2317090Y10628578D2*
X2249032Y10599378D1*
X2317090Y10570290D1*
X2249032Y10336187D2*
X2351119Y10375158D1*
X2249032Y10414016D1*
X2283061Y10399416D2*
Y10350787D1*
X2114688Y10785371D2*
X2119517D1*
X2129288Y10780542D1*
X2134117Y10775713D1*
X2138947Y10765942D1*
Y10746513D1*
X2134117Y10736854D1*
X2129288Y10732025D1*
X2119517Y10727084D1*
X2109859D1*
X2100088Y10732025D1*
X2085601Y10741684D1*
X2036971Y10790313D1*
Y10722254D1*
X2138947Y10648610D2*
X2134117Y10663210D1*
X2119517Y10672981D1*
X2095259Y10677810D1*
X2080659D1*
X2056401Y10672981D1*
X2041801Y10663210D1*
X2036971Y10648610D1*
Y10638951D1*
X2041801Y10624351D1*
X2056401Y10614693D1*
X2080659Y10609751D1*
X2095259D1*
X2119517Y10614693D1*
X2134117Y10624351D1*
X2138947Y10638951D1*
Y10648610D1*
X2119517Y10614693D2*
X2056401Y10672981D1*
X2114688Y10560365D2*
X2119517D1*
X2129288Y10555536D1*
X2134117Y10550707D1*
X2138947Y10540936D1*
Y10521507D1*
X2134117Y10511849D1*
X2129288Y10507019D1*
X2119517Y10502078D1*
X2109859D1*
X2100088Y10507019D1*
X2085601Y10516678D1*
X2036971Y10565307D1*
Y10497249D1*
X2124459Y10394516D2*
X2134117Y10399346D1*
X2138947Y10413946D1*
Y10423604D1*
X2134117Y10438204D1*
X2119517Y10447975D1*
X2095259Y10452804D1*
X2071001D1*
X2051571Y10447975D1*
X2041801Y10438204D1*
X2036971Y10423604D1*
Y10418775D1*
X2041801Y10404287D1*
X2051571Y10394516D1*
X2066171Y10389687D1*
X2071001D1*
X2085601Y10394516D1*
X2095259Y10404287D1*
X2100088Y10418775D1*
Y10423604D1*
X2095259Y10438204D1*
X2085601Y10447975D1*
X2071001Y10452804D1*
X4592943Y10346899D2*
Y10298382D1*
X4636631Y10293553D1*
X4631802Y10298382D1*
X4626860Y10312982D1*
Y10327469D1*
X4631802Y10342069D1*
X4641460Y10351840D1*
X4656060Y10356669D1*
X4665718D1*
X4680318Y10351840D1*
X4690089Y10342069D1*
X4694918Y10327469D1*
Y10312982D1*
X4690089Y10298382D1*
X4685148Y10293553D1*
X4675489Y10288611D1*
X4612372Y10401114D2*
X4607431Y10410885D1*
X4592943Y10425485D1*
X4694918D1*
X4607431Y10528217D2*
X4597772Y10523388D1*
X4592943Y10508788D1*
Y10499129D1*
X4597772Y10484529D1*
X4612372Y10474758D1*
X4636631Y10469929D1*
X4660889D1*
X4680318Y10474758D1*
X4690089Y10484529D1*
X4694918Y10499129D1*
Y10503958D1*
X4690089Y10518446D1*
X4680318Y10528217D1*
X4665718Y10533046D1*
X4660889D1*
X4646289Y10528217D1*
X4636631Y10518446D1*
X4631802Y10503958D1*
Y10499129D1*
X4636631Y10484529D1*
X4646289Y10474758D1*
X4660889Y10469929D1*
X4592943Y10606691D2*
X4597772Y10592091D1*
X4612372Y10582320D1*
X4636631Y10577491D1*
X4651231D1*
X4675489Y10582320D1*
X4690089Y10592091D1*
X4694918Y10606691D1*
Y10616349D1*
X4690089Y10630949D1*
X4675489Y10640607D1*
X4651231Y10645549D1*
X4636631D1*
X4612372Y10640607D1*
X4597772Y10630949D1*
X4592943Y10616349D1*
Y10606691D1*
X4612372Y10640607D2*
X4675489Y10582320D1*
X4817202Y10293553D2*
X4812372D1*
X4802602Y10298382D1*
X4797772Y10303211D1*
X4792943Y10312982D1*
Y10332411D1*
X4797772Y10342069D1*
X4802602Y10346899D1*
X4812372Y10351840D1*
X4822031D1*
X4831802Y10346899D1*
X4846289Y10337240D1*
X4894918Y10288611D1*
Y10356669D1*
X4812372Y10401114D2*
X4807431Y10410885D1*
X4792943Y10425485D1*
X4894918D1*
X4807431Y10528217D2*
X4797772Y10523388D1*
X4792943Y10508788D1*
Y10499129D1*
X4797772Y10484529D1*
X4812372Y10474758D1*
X4836631Y10469929D1*
X4860889D1*
X4880318Y10474758D1*
X4890089Y10484529D1*
X4894918Y10499129D1*
Y10503958D1*
X4890089Y10518446D1*
X4880318Y10528217D1*
X4865718Y10533046D1*
X4860889D1*
X4846289Y10528217D1*
X4836631Y10518446D1*
X4831802Y10503958D1*
Y10499129D1*
X4836631Y10484529D1*
X4846289Y10474758D1*
X4860889Y10469929D1*
X4792943Y10606691D2*
X4797772Y10592091D1*
X4812372Y10582320D1*
X4836631Y10577491D1*
X4851231D1*
X4875489Y10582320D1*
X4890089Y10592091D1*
X4894918Y10606691D1*
Y10616349D1*
X4890089Y10630949D1*
X4875489Y10640607D1*
X4851231Y10645549D1*
X4836631D1*
X4812372Y10640607D1*
X4797772Y10630949D1*
X4792943Y10616349D1*
Y10606691D1*
X4812372Y10640607D2*
X4875489Y10582320D1*
X4210016Y17156159D2*
X4214957Y17148342D1*
X4229445Y17136662D1*
X4127470D1*
X4229445Y17077747D2*
X4224616Y17089427D1*
X4210016Y17097243D1*
X4185757Y17101107D1*
X4171157D1*
X4146899Y17097243D1*
X4132299Y17089427D1*
X4127470Y17077747D1*
Y17070020D1*
X4132299Y17058340D1*
X4146899Y17050613D1*
X4171157Y17046660D1*
X4185757D1*
X4210016Y17050613D1*
X4224616Y17058340D1*
X4229445Y17070020D1*
Y17077747D1*
X4210016Y17050613D2*
X4146899Y17097243D1*
X4127470Y16948841D2*
X4229557Y16980018D1*
X4127470Y17011104D1*
X4161499Y16999424D2*
Y16960521D1*
X5111001Y1719622D2*
D88*
X5187567Y1743005D1*
X5111001Y1766320D1*
X5136523Y1757560D2*
Y1728382D1*
X5172911Y1692956D2*
X5176617Y1687093D1*
X5187483Y1678333D1*
X5111001D1*
X4111001Y1760912D2*
X4187567Y1784294D1*
X4111001Y1807609D1*
X4136523Y1798849D2*
Y1769672D1*
X4172911Y1734245D2*
X4176617Y1728382D1*
X4187483Y1719622D1*
X4111001D1*
X4172911Y1692956D2*
X4176617Y1687093D1*
X4187483Y1678333D1*
X4111001D1*
X3811001Y1787124D2*
X3887567Y1810507D1*
X3811001Y1833822D1*
X3836523Y1825062D2*
Y1795884D1*
X3872911Y1760458D2*
X3876617Y1754595D1*
X3887483Y1745835D1*
X3811001D1*
X3869289Y1716203D2*
X3872911D1*
X3880239Y1713306D1*
X3883861Y1710408D1*
X3887483Y1704546D1*
Y1692888D1*
X3883861Y1687093D1*
X3880239Y1684196D1*
X3872911Y1681231D1*
X3865667D1*
X3858339Y1684196D1*
X3847473Y1689991D1*
X3811001Y1719168D1*
Y1678333D1*
X1811001Y1813337D2*
X1887567Y1836719D1*
X1811001Y1860034D1*
X1836523Y1851274D2*
Y1822097D1*
X1887483Y1780808D2*
Y1748800D1*
X1858339Y1766253D1*
Y1757493D1*
X1854717Y1751698D1*
X1851095Y1748800D1*
X1840145Y1745835D1*
X1832901D1*
X1821951Y1748800D1*
X1814623Y1754595D1*
X1811001Y1763355D1*
Y1772115D1*
X1814623Y1780808D1*
X1818329Y1783705D1*
X1825573Y1786670D1*
X1869289Y1716203D2*
X1872911D1*
X1880239Y1713306D1*
X1883861Y1710408D1*
X1887483Y1704546D1*
Y1692888D1*
X1883861Y1687093D1*
X1880239Y1684196D1*
X1872911Y1681231D1*
X1865667D1*
X1858339Y1684196D1*
X1847473Y1689991D1*
X1811001Y1719168D1*
Y1678333D1*
M02*
