G04 DipTrace 5.2.0.4*
G04 TopSilk.gbr*
%MOMM*%
G04 #@! TF.FileFunction,Legend,Top*
G04 #@! TF.Part,Single*
%ADD10C,0.1*%
%ADD13C,0.12*%
%ADD17C,0.25*%
%ADD24C,0.5*%
%ADD26C,0.15*%
%ADD34C,0.127*%
%ADD83C,0.16667*%
%ADD84C,0.22222*%
%FSLAX35Y35*%
G04*
G71*
G90*
G75*
G01*
G04 TopSilk*
%LPD*%
X2539998Y15837003D2*
D13*
X2540002Y15693003D1*
X2269998Y15836997D2*
X2270002Y15692997D1*
X3115500Y7904000D2*
Y7876000D1*
X3019500Y7904000D2*
Y7876000D1*
X3453000Y7904000D2*
Y7876000D1*
X3357000Y7904000D2*
Y7876000D1*
X2444500Y4753000D2*
Y4777000D1*
X2590500Y4753000D2*
Y4777000D1*
X3219001Y4817000D2*
X3191001D1*
X3218999Y4913000D2*
X3190999D1*
X1757001Y15750998D2*
X1756999Y15778998D1*
X1853001Y15751002D2*
X1852999Y15779002D1*
X2819002Y4817001D2*
X2791002Y4816999D1*
X2818998Y4913001D2*
X2790998Y4912999D1*
X3019500Y7382249D2*
Y7410249D1*
X3115500Y7382251D2*
Y7410251D1*
X1545978Y7074996D2*
X1019978Y7074978D1*
X1020013Y6019978D1*
X1284022Y5754987D1*
X1546022Y5754996D1*
X1813978Y7075004D2*
X2339978Y7075022D1*
X2340013Y6020022D1*
X2076022Y5755013D1*
X1814022Y5755004D1*
X1005000Y6415000D2*
G02X1005000Y6415000I675000J0D01*
G01*
G36*
X2212722Y5907316D2*
X2212508Y5904053D1*
X2211870Y5900846D1*
X2210819Y5897749D1*
X2209373Y5894816D1*
X2207556Y5892097D1*
X2205400Y5889638D1*
X2202942Y5887482D1*
X2200223Y5885665D1*
X2197290Y5884219D1*
X2194193Y5883167D1*
X2190986Y5882529D1*
X2187723Y5882315D1*
X2184460Y5882529D1*
X2181252Y5883167D1*
X2178156Y5884218D1*
X2175223Y5885664D1*
X2172504Y5887481D1*
X2170045Y5889637D1*
X2167889Y5892096D1*
X2166072Y5894815D1*
X2164625Y5897747D1*
X2163574Y5900844D1*
X2162936Y5904051D1*
X2162722Y5907314D1*
D1*
X2162936Y5910578D1*
X2163574Y5913785D1*
X2164625Y5916882D1*
X2166071Y5919815D1*
X2167888Y5922534D1*
X2170044Y5924992D1*
X2172502Y5927149D1*
X2175221Y5928965D1*
X2178154Y5930412D1*
X2181251Y5931463D1*
X2184458Y5932101D1*
X2187721Y5932315D1*
X2190984Y5932102D1*
X2194192Y5931464D1*
X2197288Y5930413D1*
X2200221Y5928966D1*
X2202940Y5927150D1*
X2205399Y5924994D1*
X2207555Y5922535D1*
X2209372Y5919816D1*
X2210819Y5916883D1*
X2211870Y5913787D1*
X2212508Y5910579D1*
X2212722Y5907316D1*
D1*
G37*
X1814017Y4105003D2*
D13*
X2340017Y4105017D1*
X2339990Y5160017D1*
X2075983Y5425010D1*
X1813983Y5425003D1*
X1546017Y4104997D2*
X1020017Y4104983D1*
X1019990Y5159983D1*
X1283983Y5424990D1*
X1545983Y5424997D1*
X1542998Y15738000D2*
X1566998D1*
X1543002Y15592000D2*
X1567002D1*
X1542998Y15938000D2*
X1566998D1*
X1543002Y15792000D2*
X1567002D1*
X1005000Y4765000D2*
G02X1005000Y4765000I675000J0D01*
G01*
G36*
X2212722Y4257316D2*
X2212508Y4254053D1*
X2211870Y4250846D1*
X2210819Y4247749D1*
X2209373Y4244816D1*
X2207556Y4242097D1*
X2205400Y4239638D1*
X2202942Y4237482D1*
X2200223Y4235665D1*
X2197290Y4234219D1*
X2194193Y4233167D1*
X2190986Y4232529D1*
X2187723Y4232315D1*
X2184460Y4232529D1*
X2181252Y4233167D1*
X2178156Y4234218D1*
X2175223Y4235664D1*
X2172504Y4237481D1*
X2170045Y4239637D1*
X2167889Y4242096D1*
X2166072Y4244815D1*
X2164625Y4247747D1*
X2163574Y4250844D1*
X2162936Y4254051D1*
X2162722Y4257314D1*
D1*
X2162936Y4260578D1*
X2163574Y4263785D1*
X2164625Y4266882D1*
X2166071Y4269815D1*
X2167888Y4272534D1*
X2170044Y4274992D1*
X2172502Y4277149D1*
X2175221Y4278965D1*
X2178154Y4280412D1*
X2181251Y4281463D1*
X2184458Y4282101D1*
X2187721Y4282315D1*
X2190984Y4282102D1*
X2194192Y4281464D1*
X2197288Y4280413D1*
X2200221Y4278966D1*
X2202940Y4277150D1*
X2205399Y4274994D1*
X2207555Y4272535D1*
X2209372Y4269816D1*
X2210819Y4266883D1*
X2211870Y4263787D1*
X2212508Y4260579D1*
X2212722Y4257316D1*
D1*
G37*
X3345959Y16874992D2*
D13*
X2819959Y16874959D1*
X2820025Y15819959D1*
X3084041Y15554975D1*
X3346041Y15554992D1*
X3613959Y16875008D2*
X4139959Y16875041D1*
X4140025Y15820041D1*
X3876041Y15555025D1*
X3614041Y15555008D1*
X2805000Y16215000D2*
G02X2805000Y16215000I675000J0D01*
G01*
G36*
X2744321Y16197322D2*
X2742165Y16199781D1*
X2740348Y16202500D1*
X2738902Y16205433D1*
X2737851Y16208530D1*
X2737213Y16211737D1*
X2736999Y16215000D1*
X2737213Y16218263D1*
X2737851Y16221470D1*
X2738902Y16224567D1*
X2740348Y16227500D1*
X2742165Y16230219D1*
X2744321Y16232678D1*
X2746780Y16234834D1*
X2749499Y16236651D1*
X2752432Y16238097D1*
X2755529Y16239148D1*
X2758736Y16239786D1*
X2761999Y16240000D1*
X2765262Y16239786D1*
X2768470Y16239148D1*
X2771566Y16238097D1*
X2774499Y16236651D1*
X2777218Y16234834D1*
X2779677Y16232678D1*
D1*
X2781833Y16230219D1*
X2783650Y16227500D1*
X2785096Y16224567D1*
X2786147Y16221470D1*
X2786785Y16218263D1*
X2786999Y16215000D1*
X2786785Y16211737D1*
X2786147Y16208530D1*
X2785096Y16205433D1*
X2783650Y16202500D1*
X2781833Y16199781D1*
X2779677Y16197322D1*
X2777218Y16195166D1*
X2774499Y16193349D1*
X2771566Y16191903D1*
X2768470Y16190852D1*
X2765262Y16190214D1*
X2761999Y16190000D1*
X2758736Y16190214D1*
X2755529Y16190852D1*
X2752432Y16191903D1*
X2749499Y16193349D1*
X2746780Y16195166D1*
X2744321Y16197322D1*
D1*
G37*
X3603000Y7904000D2*
D13*
Y7876000D1*
X3507000Y7904000D2*
Y7876000D1*
X3940500Y7904000D2*
Y7876000D1*
X3844500Y7904000D2*
Y7876000D1*
X4369500Y4752999D2*
Y4776999D1*
X4515500Y4753001D2*
Y4777001D1*
X3741000Y4913000D2*
X3769000D1*
X3741000Y4817000D2*
X3769000D1*
X4140999Y4913000D2*
X4168999D1*
X4141001Y4817000D2*
X4169001D1*
X4340500Y8354000D2*
Y8326000D1*
X4244500Y8354000D2*
Y8326000D1*
X3844500Y7382249D2*
Y7410249D1*
X3940500Y7382251D2*
Y7410251D1*
X5414017Y4105003D2*
X5940017Y4105017D1*
X5939990Y5160017D1*
X5675983Y5425010D1*
X5413983Y5425003D1*
X5146017Y4104997D2*
X4620017Y4104983D1*
X4619990Y5159983D1*
X4883983Y5424990D1*
X5145983Y5424997D1*
X4605000Y4765000D2*
G02X4605000Y4765000I675000J0D01*
G01*
G36*
X4747297Y5272703D2*
X4747511Y5275966D1*
X4748149Y5279174D1*
X4749200Y5282270D1*
X4750646Y5285203D1*
X4752463Y5287922D1*
X4754619Y5290381D1*
X4757078Y5292537D1*
X4759797Y5294354D1*
X4762730Y5295800D1*
X4765826Y5296851D1*
X4769034Y5297489D1*
X4772297Y5297703D1*
X4775560Y5297489D1*
X4778767Y5296851D1*
X4781864Y5295800D1*
X4784797Y5294354D1*
X4787516Y5292537D1*
X4789974Y5290381D1*
X4792131Y5287922D1*
X4793947Y5285203D1*
X4795394Y5282270D1*
X4796445Y5279174D1*
X4797083Y5275966D1*
X4797297Y5272703D1*
D1*
X4797083Y5269440D1*
X4796445Y5266233D1*
X4795394Y5263136D1*
X4793947Y5260203D1*
X4792131Y5257484D1*
X4789974Y5255026D1*
X4787516Y5252869D1*
X4784797Y5251053D1*
X4781864Y5249606D1*
X4778767Y5248555D1*
X4775560Y5247917D1*
X4772297Y5247703D1*
X4769034Y5247917D1*
X4765826Y5248555D1*
X4762730Y5249606D1*
X4759797Y5251053D1*
X4757078Y5252869D1*
X4754619Y5255026D1*
X4752463Y5257484D1*
X4750646Y5260203D1*
X4749200Y5263136D1*
X4748149Y5266233D1*
X4747511Y5269440D1*
X4747297Y5272703D1*
D1*
G37*
X5145978Y7074996D2*
D13*
X4619978Y7074978D1*
X4620013Y6019978D1*
X4884022Y5754987D1*
X5146022Y5754996D1*
X5413978Y7075004D2*
X5939978Y7075022D1*
X5940013Y6020022D1*
X5676022Y5755013D1*
X5414022Y5755004D1*
X4605000Y6415000D2*
G02X4605000Y6415000I675000J0D01*
G01*
G36*
X4747282Y6922688D2*
X4747496Y6925951D1*
X4748133Y6929158D1*
X4749184Y6932255D1*
X4750631Y6935188D1*
X4752447Y6937907D1*
X4754604Y6940366D1*
X4757062Y6942522D1*
X4759781Y6944339D1*
X4762714Y6945785D1*
X4765811Y6946836D1*
X4769018Y6947474D1*
X4772281Y6947688D1*
X4775544Y6947475D1*
X4778752Y6946837D1*
X4781848Y6945786D1*
X4784781Y6944339D1*
X4787500Y6942523D1*
X4789959Y6940367D1*
X4792115Y6937908D1*
X4793932Y6935189D1*
X4795378Y6932256D1*
X4796430Y6929160D1*
X4797068Y6925952D1*
X4797282Y6922689D1*
D1*
X4797068Y6919426D1*
X4796430Y6916219D1*
X4795379Y6913122D1*
X4793933Y6910189D1*
X4792116Y6907470D1*
X4789960Y6905011D1*
X4787501Y6902855D1*
X4784782Y6901038D1*
X4781850Y6899592D1*
X4778753Y6898540D1*
X4775546Y6897902D1*
X4772282Y6897688D1*
X4769019Y6897902D1*
X4765812Y6898540D1*
X4762715Y6899591D1*
X4759782Y6901037D1*
X4757063Y6902854D1*
X4754605Y6905010D1*
X4752448Y6907469D1*
X4750631Y6910188D1*
X4749185Y6913121D1*
X4748134Y6916217D1*
X4747496Y6919425D1*
X4747282Y6922688D1*
D1*
G37*
X4190500Y8354000D2*
D13*
Y8326000D1*
X4094500Y8354000D2*
Y8326000D1*
X4490500Y8354000D2*
Y8326000D1*
X4394500Y8354000D2*
Y8326000D1*
X2769001Y8754500D2*
X2741001D1*
X2768999Y8850500D2*
X2740999D1*
X2769001Y8442000D2*
X2741001D1*
X2768999Y8538000D2*
X2740999D1*
X4420001Y15992998D2*
X4419999Y16136998D1*
X4690001Y15993002D2*
X4689999Y16137002D1*
X5203000Y16079000D2*
Y16051000D1*
X5107000Y16079000D2*
Y16051000D1*
X5417002Y15892000D2*
X5393002D1*
X5416998Y16038000D2*
X5392998D1*
X5417002Y16092000D2*
X5393002D1*
X5416998Y16238000D2*
X5392998D1*
X3844500Y11375999D2*
Y11403999D1*
X3940500Y11376001D2*
Y11404001D1*
X3507000Y11375998D2*
Y11403998D1*
X3603000Y11376002D2*
Y11404002D1*
X4515500Y14527003D2*
Y14503003D1*
X4369500Y14526997D2*
Y14502997D1*
X3740999Y14463000D2*
X3768999D1*
X3741001Y14367000D2*
X3769001D1*
X4140999Y14463000D2*
X4168999D1*
X4141001Y14367000D2*
X4169001D1*
X3940499Y11897752D2*
X3940501Y11869752D1*
X3844499Y11897748D2*
X3844501Y11869748D1*
X5414017Y12205003D2*
X5940017Y12205017D1*
X5939990Y13260017D1*
X5675983Y13525010D1*
X5413983Y13525003D1*
X5146017Y12204997D2*
X4620017Y12204983D1*
X4619990Y13259983D1*
X4883983Y13524990D1*
X5145983Y13524997D1*
X4605000Y12865000D2*
G02X4605000Y12865000I675000J0D01*
G01*
G36*
X4747297Y13372703D2*
X4747511Y13375966D1*
X4748149Y13379174D1*
X4749200Y13382270D1*
X4750646Y13385203D1*
X4752463Y13387922D1*
X4754619Y13390381D1*
X4757078Y13392537D1*
X4759797Y13394354D1*
X4762730Y13395800D1*
X4765826Y13396851D1*
X4769034Y13397489D1*
X4772297Y13397703D1*
X4775560Y13397489D1*
X4778767Y13396851D1*
X4781864Y13395800D1*
X4784797Y13394354D1*
X4787516Y13392537D1*
X4789974Y13390381D1*
X4792131Y13387922D1*
X4793947Y13385203D1*
X4795394Y13382270D1*
X4796445Y13379174D1*
X4797083Y13375966D1*
X4797297Y13372703D1*
D1*
X4797083Y13369440D1*
X4796445Y13366233D1*
X4795394Y13363136D1*
X4793947Y13360203D1*
X4792131Y13357484D1*
X4789974Y13355026D1*
X4787516Y13352869D1*
X4784797Y13351053D1*
X4781864Y13349606D1*
X4778767Y13348555D1*
X4775560Y13347917D1*
X4772297Y13347703D1*
X4769034Y13347917D1*
X4765826Y13348555D1*
X4762730Y13349606D1*
X4759797Y13351053D1*
X4757078Y13352869D1*
X4754619Y13355026D1*
X4752463Y13357484D1*
X4750646Y13360203D1*
X4749200Y13363136D1*
X4748149Y13366233D1*
X4747511Y13369440D1*
X4747297Y13372703D1*
D1*
G37*
X5145988Y15174998D2*
D13*
X4619988Y15174988D1*
X4620007Y14119988D1*
X4884012Y13854993D1*
X5146012Y13854998D1*
X5413988Y15175002D2*
X5939988Y15175012D1*
X5940007Y14120012D1*
X5676012Y13855007D1*
X5414012Y13855002D1*
X4605000Y14515000D2*
G02X4605000Y14515000I675000J0D01*
G01*
G36*
X4747297Y15022703D2*
X4747511Y15025966D1*
X4748149Y15029174D1*
X4749200Y15032270D1*
X4750646Y15035203D1*
X4752463Y15037922D1*
X4754619Y15040381D1*
X4757078Y15042537D1*
X4759797Y15044354D1*
X4762730Y15045800D1*
X4765826Y15046851D1*
X4769034Y15047489D1*
X4772297Y15047703D1*
X4775560Y15047489D1*
X4778767Y15046851D1*
X4781864Y15045800D1*
X4784797Y15044354D1*
X4787516Y15042537D1*
X4789974Y15040381D1*
X4792131Y15037922D1*
X4793947Y15035203D1*
X4795394Y15032270D1*
X4796445Y15029174D1*
X4797083Y15025966D1*
X4797297Y15022703D1*
D1*
X4797083Y15019440D1*
X4796445Y15016233D1*
X4795394Y15013136D1*
X4793947Y15010203D1*
X4792131Y15007484D1*
X4789974Y15005026D1*
X4787516Y15002869D1*
X4784797Y15001053D1*
X4781864Y14999606D1*
X4778767Y14998555D1*
X4775560Y14997917D1*
X4772297Y14997703D1*
X4769034Y14997917D1*
X4765826Y14998555D1*
X4762730Y14999606D1*
X4759797Y15001053D1*
X4757078Y15002869D1*
X4754619Y15005026D1*
X4752463Y15007484D1*
X4750646Y15010203D1*
X4749200Y15013136D1*
X4748149Y15016233D1*
X4747511Y15019440D1*
X4747297Y15022703D1*
D1*
G37*
X3357000Y11375998D2*
D13*
Y11403998D1*
X3453000Y11376002D2*
Y11404002D1*
X3019500Y11375999D2*
Y11403999D1*
X3115500Y11376001D2*
Y11404001D1*
X2590500Y14527003D2*
Y14503003D1*
X2444500Y14526997D2*
Y14502997D1*
X2819001Y14367000D2*
X2791001D1*
X2818999Y14463000D2*
X2790999D1*
X3219002Y14367001D2*
X3191002Y14366999D1*
X3218998Y14463001D2*
X3190998Y14462999D1*
X2632000Y10925999D2*
Y10953999D1*
X2728000Y10926001D2*
Y10954001D1*
X3115500Y11897751D2*
Y11869751D1*
X3019500Y11897749D2*
Y11869749D1*
X1814017Y12205003D2*
X2340017Y12205017D1*
X2339990Y13260017D1*
X2075983Y13525010D1*
X1813983Y13525003D1*
X1546017Y12204997D2*
X1020017Y12204983D1*
X1019990Y13259983D1*
X1283983Y13524990D1*
X1545983Y13524997D1*
X1005000Y12865000D2*
G02X1005000Y12865000I675000J0D01*
G01*
G36*
X2212715Y12357308D2*
X2212501Y12354045D1*
X2211863Y12350838D1*
X2210812Y12347741D1*
X2209365Y12344808D1*
X2207549Y12342089D1*
X2205393Y12339631D1*
X2202934Y12337474D1*
X2200215Y12335657D1*
X2197282Y12334211D1*
X2194186Y12333160D1*
X2190978Y12332522D1*
X2187715Y12332308D1*
X2184452Y12332522D1*
X2181245Y12333160D1*
X2178148Y12334211D1*
X2175215Y12335657D1*
X2172496Y12337474D1*
X2170037Y12339630D1*
X2167881Y12342088D1*
X2166064Y12344807D1*
X2164618Y12347740D1*
X2163567Y12350837D1*
X2162928Y12354044D1*
X2162715Y12357307D1*
D1*
X2162928Y12360570D1*
X2163566Y12363778D1*
X2164617Y12366874D1*
X2166064Y12369807D1*
X2167880Y12372526D1*
X2170036Y12374985D1*
X2172495Y12377141D1*
X2175214Y12378958D1*
X2178147Y12380405D1*
X2181244Y12381456D1*
X2184451Y12382094D1*
X2187714Y12382308D1*
X2190977Y12382094D1*
X2194184Y12381456D1*
X2197281Y12380405D1*
X2200214Y12378959D1*
X2202933Y12377142D1*
X2205392Y12374986D1*
X2207548Y12372527D1*
X2209365Y12369808D1*
X2210811Y12366875D1*
X2211863Y12363779D1*
X2212501Y12360572D1*
X2212715Y12357308D1*
D1*
G37*
X1545988Y15174998D2*
D13*
X1019988Y15174988D1*
X1020007Y14119988D1*
X1284012Y13854993D1*
X1546012Y13854998D1*
X1813988Y15175002D2*
X2339988Y15175012D1*
X2340007Y14120012D1*
X2076012Y13855007D1*
X1814012Y13855002D1*
X1005000Y14515000D2*
G02X1005000Y14515000I675000J0D01*
G01*
G36*
X2212715Y14007308D2*
X2212501Y14004045D1*
X2211863Y14000838D1*
X2210812Y13997741D1*
X2209365Y13994808D1*
X2207549Y13992089D1*
X2205393Y13989631D1*
X2202934Y13987474D1*
X2200215Y13985657D1*
X2197282Y13984211D1*
X2194186Y13983160D1*
X2190978Y13982522D1*
X2187715Y13982308D1*
X2184452Y13982522D1*
X2181245Y13983160D1*
X2178148Y13984211D1*
X2175215Y13985657D1*
X2172496Y13987474D1*
X2170037Y13989630D1*
X2167881Y13992088D1*
X2166064Y13994807D1*
X2164618Y13997740D1*
X2163567Y14000837D1*
X2162928Y14004044D1*
X2162715Y14007307D1*
D1*
X2162928Y14010570D1*
X2163566Y14013778D1*
X2164617Y14016874D1*
X2166064Y14019807D1*
X2167880Y14022526D1*
X2170036Y14024985D1*
X2172495Y14027141D1*
X2175214Y14028958D1*
X2178147Y14030405D1*
X2181244Y14031456D1*
X2184451Y14032094D1*
X2187714Y14032308D1*
X2190977Y14032094D1*
X2194184Y14031456D1*
X2197281Y14030405D1*
X2200214Y14028959D1*
X2202933Y14027142D1*
X2205392Y14024986D1*
X2207548Y14022527D1*
X2209365Y14019808D1*
X2210811Y14016875D1*
X2211863Y14013779D1*
X2212501Y14010572D1*
X2212715Y14007308D1*
D1*
G37*
X2782001Y10925998D2*
D13*
X2781999Y10953998D1*
X2878001Y10926002D2*
X2877999Y10954002D1*
X2482000Y10925998D2*
Y10953998D1*
X2578000Y10926002D2*
Y10954002D1*
X4191000Y10463000D2*
X4219000D1*
X4191000Y10367000D2*
X4219000D1*
X4191000Y10838000D2*
X4219000D1*
X4191000Y10742000D2*
X4219000D1*
X2741000Y8713000D2*
X2769000D1*
X2741000Y8617000D2*
X2769000D1*
X2741000Y8400500D2*
X2769000D1*
X2741000Y8304500D2*
X2769000D1*
X4219002Y10567001D2*
X4191002Y10566999D1*
X4218998Y10663001D2*
X4190998Y10662999D1*
X4219000Y10879500D2*
X4191000D1*
X4219000Y10975500D2*
X4191000D1*
X3357000Y9401000D2*
Y9429000D1*
X3453000Y9401000D2*
Y9429000D1*
X3603000Y9879000D2*
Y9851000D1*
X3507000Y9879000D2*
Y9851000D1*
X3040500Y2479000D2*
Y2451000D1*
X2944500Y2479000D2*
Y2451000D1*
X2890500Y3666500D2*
Y3638500D1*
X2794500Y3666500D2*
Y3638500D1*
X1365500Y2479000D2*
Y2451000D1*
X1269500Y2479000D2*
Y2451000D1*
X1353500Y3963000D2*
X1381500D1*
X1353500Y3867000D2*
X1381500D1*
X4783500Y2466500D2*
Y2438500D1*
X4687500Y2466500D2*
Y2438500D1*
X4795999Y3963000D2*
X4823999D1*
X4796001Y3867000D2*
X4824001D1*
X2406000Y9405500D2*
X2434000D1*
X2406000Y9309500D2*
X2434000D1*
X4549001Y9874500D2*
X4521001D1*
X4548999Y9970500D2*
X4520999D1*
X1270000Y15370000D2*
D10*
X1340000D1*
X2645005Y2319999D2*
X2715005Y2320001D1*
X5620005Y15369999D2*
X5690005Y15370001D1*
X1108007Y15849997D2*
D13*
X1070007Y15849995D1*
X1069993Y16299995D1*
X1107993Y16299997D1*
X1312007Y15850003D2*
X1350007Y15850005D1*
X1349993Y16300005D1*
X1311993Y16300003D1*
X1132011Y15741997D2*
X1288011Y15742003D1*
X5653004Y15849998D2*
X5615004Y15849997D1*
X5614996Y16299997D1*
X5652996Y16299998D1*
X5857004Y15850002D2*
X5895004Y15850003D1*
X5894996Y16300003D1*
X5856996Y16300002D1*
X5677006Y15741999D2*
X5833006Y15742001D1*
X2055000Y16292000D2*
Y16330000D1*
X2505000D1*
Y16292000D1*
X2055000Y16088000D2*
Y16050000D1*
X2505000D1*
Y16088000D1*
X1947000Y16268000D2*
Y16112000D1*
X4269000Y14545000D2*
D34*
X2691000D1*
Y15395000D1*
X4269000D1*
Y14545000D1*
G36*
X4335000Y14935000D2*
X4337611Y14934829D1*
X4340176Y14934319D1*
X4342654Y14933478D1*
X4345000Y14932321D1*
X4347175Y14930867D1*
X4349142Y14929142D1*
X4350867Y14927175D1*
X4352321Y14925000D1*
X4353478Y14922654D1*
X4354319Y14920176D1*
X4354829Y14917611D1*
X4355000Y14915000D1*
X4354829Y14912389D1*
X4354319Y14909824D1*
X4353478Y14907346D1*
X4352320Y14905000D1*
X4350867Y14902825D1*
X4349142Y14900858D1*
X4347175Y14899133D1*
X4345000Y14897679D1*
X4342654Y14896522D1*
X4340176Y14895681D1*
X4337610Y14895171D1*
X4335000Y14895000D1*
D1*
X4332389Y14895171D1*
X4329824Y14895681D1*
X4327346Y14896522D1*
X4325000Y14897679D1*
X4322825Y14899133D1*
X4320858Y14900858D1*
X4319133Y14902825D1*
X4317679Y14905000D1*
X4316522Y14907346D1*
X4315681Y14909824D1*
X4315171Y14912389D1*
X4315000Y14915000D1*
X4315171Y14917611D1*
X4315681Y14920176D1*
X4316522Y14922654D1*
X4317679Y14925000D1*
X4319133Y14927175D1*
X4320858Y14929142D1*
X4322825Y14930867D1*
X4325000Y14932320D1*
X4327346Y14933478D1*
X4329824Y14934319D1*
X4332389Y14934829D1*
X4335000Y14935000D1*
D1*
G37*
X1030006Y7642490D2*
D13*
X1029981Y9037490D1*
X1111984Y9037491D1*
G36*
X1657003Y7828001D2*
X1653740Y7828215D1*
X1650532Y7828853D1*
X1647436Y7829904D1*
X1644503Y7831350D1*
X1641784Y7833167D1*
X1639325Y7835323D1*
X1637169Y7837782D1*
X1635352Y7840501D1*
X1633905Y7843434D1*
X1632854Y7846530D1*
X1632216Y7849738D1*
X1632002Y7853001D1*
X1632216Y7856264D1*
X1632854Y7859471D1*
X1633905Y7862568D1*
X1635351Y7865501D1*
X1637168Y7868220D1*
X1639324Y7870679D1*
X1641783Y7872835D1*
X1644502Y7874652D1*
X1647435Y7876098D1*
X1650531Y7877149D1*
X1653739Y7877787D1*
X1657002Y7878001D1*
D1*
X1660265Y7877787D1*
X1663472Y7877150D1*
X1666569Y7876098D1*
X1669502Y7874652D1*
X1672221Y7872835D1*
X1674680Y7870679D1*
X1676836Y7868221D1*
X1678653Y7865502D1*
X1680099Y7862569D1*
X1681150Y7859472D1*
X1681788Y7856265D1*
X1682002Y7853002D1*
X1681788Y7849739D1*
X1681151Y7846531D1*
X1680099Y7843435D1*
X1678653Y7840502D1*
X1676836Y7837783D1*
X1674680Y7835324D1*
X1672222Y7833168D1*
X1669503Y7831351D1*
X1666570Y7829904D1*
X1663473Y7828853D1*
X1660266Y7828215D1*
X1657003Y7828001D1*
D1*
G37*
X1447977Y9037497D2*
D13*
X1529981Y9037499D1*
X1529985Y8807996D1*
X1530002Y7872002D2*
X1530006Y7642499D1*
X1448003Y7642497D1*
X1112009Y7642491D2*
X1030006Y7642490D1*
X5930000Y9037500D2*
Y7642500D1*
X5847997D1*
G36*
X5303000Y8852000D2*
X5306263Y8851786D1*
X5309470Y8851148D1*
X5312567Y8850097D1*
X5315500Y8848651D1*
X5318219Y8846834D1*
X5320678Y8844678D1*
X5322834Y8842219D1*
X5324651Y8839500D1*
X5326097Y8836567D1*
X5327148Y8833470D1*
X5327786Y8830263D1*
X5328000Y8827000D1*
X5327786Y8823737D1*
X5327148Y8820530D1*
X5326097Y8817433D1*
X5324651Y8814500D1*
X5322834Y8811781D1*
X5320678Y8809322D1*
X5318219Y8807166D1*
X5315500Y8805349D1*
X5312567Y8803903D1*
X5309470Y8802852D1*
X5306263Y8802214D1*
X5303000Y8802000D1*
D1*
X5299737Y8802214D1*
X5296530Y8802852D1*
X5293433Y8803903D1*
X5290500Y8805349D1*
X5287781Y8807166D1*
X5285322Y8809322D1*
X5283166Y8811781D1*
X5281349Y8814500D1*
X5279903Y8817433D1*
X5278852Y8820530D1*
X5278214Y8823737D1*
X5278000Y8827000D1*
X5278214Y8830263D1*
X5278852Y8833470D1*
X5279903Y8836567D1*
X5281349Y8839500D1*
X5283166Y8842219D1*
X5285322Y8844678D1*
X5287781Y8846834D1*
X5290500Y8848651D1*
X5293433Y8850097D1*
X5296530Y8851148D1*
X5299737Y8851786D1*
X5303000Y8852000D1*
D1*
G37*
X5512003Y7642500D2*
D13*
X5430000D1*
Y7872003D1*
Y8807997D2*
Y9037500D1*
X5512003D1*
X5847997D2*
X5930000D1*
X2691000Y4735000D2*
D34*
X4269000D1*
Y3885000D1*
X2691000D1*
Y4735000D1*
G36*
X2625000Y4345000D2*
X2622389Y4345171D1*
X2619824Y4345681D1*
X2617346Y4346522D1*
X2615000Y4347679D1*
X2612825Y4349133D1*
X2610858Y4350858D1*
X2609133Y4352825D1*
X2607679Y4355000D1*
X2606522Y4357346D1*
X2605681Y4359824D1*
X2605171Y4362389D1*
X2605000Y4365000D1*
X2605171Y4367611D1*
X2605681Y4370176D1*
X2606522Y4372654D1*
X2607680Y4375000D1*
X2609133Y4377175D1*
X2610858Y4379142D1*
X2612825Y4380867D1*
X2615000Y4382321D1*
X2617346Y4383478D1*
X2619824Y4384319D1*
X2622390Y4384829D1*
X2625000Y4385000D1*
D1*
X2627611Y4384829D1*
X2630176Y4384319D1*
X2632654Y4383478D1*
X2635000Y4382321D1*
X2637175Y4380867D1*
X2639142Y4379142D1*
X2640867Y4377175D1*
X2642321Y4375000D1*
X2643478Y4372654D1*
X2644319Y4370176D1*
X2644829Y4367611D1*
X2645000Y4365000D1*
X2644829Y4362389D1*
X2644319Y4359824D1*
X2643478Y4357346D1*
X2642321Y4355000D1*
X2640867Y4352825D1*
X2639142Y4350858D1*
X2637175Y4349133D1*
X2635000Y4347680D1*
X2632654Y4346522D1*
X2630176Y4345681D1*
X2627611Y4345171D1*
X2625000Y4345000D1*
D1*
G37*
X4305000Y17275500D2*
D13*
Y16699500D1*
X5045000D1*
Y17275500D1*
X4305000D1*
G36*
X4775000Y17318500D2*
X4775214Y17321763D1*
X4775852Y17324970D1*
X4776903Y17328067D1*
X4778349Y17331000D1*
X4780166Y17333719D1*
X4782322Y17336178D1*
X4784781Y17338334D1*
X4787500Y17340151D1*
X4790433Y17341597D1*
X4793530Y17342648D1*
X4796737Y17343286D1*
X4800000Y17343500D1*
X4803263Y17343286D1*
X4806470Y17342648D1*
X4809567Y17341597D1*
X4812500Y17340151D1*
X4815219Y17338334D1*
X4817678Y17336178D1*
X4819834Y17333719D1*
X4821651Y17331000D1*
X4823097Y17328067D1*
X4824148Y17324970D1*
X4824786Y17321763D1*
X4825000Y17318500D1*
D1*
X4824786Y17315237D1*
X4824148Y17312030D1*
X4823097Y17308933D1*
X4821651Y17306000D1*
X4819834Y17303281D1*
X4817678Y17300822D1*
X4815219Y17298666D1*
X4812500Y17296849D1*
X4809567Y17295403D1*
X4806470Y17294352D1*
X4803263Y17293714D1*
X4800000Y17293500D1*
X4796737Y17293714D1*
X4793530Y17294352D1*
X4790433Y17295403D1*
X4787500Y17296849D1*
X4784781Y17298666D1*
X4782322Y17300822D1*
X4780166Y17303281D1*
X4778349Y17306000D1*
X4776903Y17308933D1*
X4775852Y17312030D1*
X4775214Y17315237D1*
X4775000Y17318500D1*
D1*
G37*
G36*
X2750001Y16815010D2*
X2749830Y16812399D1*
X2749319Y16809833D1*
X2748478Y16807356D1*
X2747321Y16805010D1*
X2745868Y16802834D1*
X2744143Y16800868D1*
X2742176Y16799143D1*
X2740001Y16797689D1*
X2737655Y16796532D1*
X2735177Y16795691D1*
X2732612Y16795181D1*
X2730001Y16795009D1*
X2727390Y16795180D1*
X2724825Y16795691D1*
X2722347Y16796532D1*
X2720001Y16797689D1*
X2717826Y16799142D1*
X2715859Y16800867D1*
X2714134Y16802834D1*
X2712680Y16805009D1*
X2711523Y16807355D1*
X2710682Y16809833D1*
X2710172Y16812398D1*
X2710001Y16815009D1*
D1*
X2710172Y16817619D1*
X2710682Y16820185D1*
X2711523Y16822663D1*
X2712680Y16825009D1*
X2714133Y16827184D1*
X2715858Y16829151D1*
X2717825Y16830876D1*
X2720000Y16832330D1*
X2722346Y16833487D1*
X2724824Y16834328D1*
X2727390Y16834838D1*
X2730000Y16835009D1*
X2732611Y16834838D1*
X2735177Y16834328D1*
X2737654Y16833487D1*
X2740000Y16832330D1*
X2742175Y16830877D1*
X2744142Y16829152D1*
X2745867Y16827185D1*
X2747321Y16825010D1*
X2748478Y16822663D1*
X2749319Y16820186D1*
X2749829Y16817620D1*
X2750001Y16815010D1*
D1*
G37*
X2553009Y16415005D2*
D34*
X2553005Y16615005D1*
X2007005Y16614993D2*
X2007009Y16414993D1*
X2553009Y16415005D1*
X2673005Y16615008D2*
X2672991Y17265008D1*
X1886991Y17264991D1*
X1887005Y16614991D1*
X2007005Y16614993D1*
X2553005Y16615005D2*
X2673005Y16615008D1*
G36*
X5080000Y1840000D2*
X5080428Y1846526D1*
X5081704Y1852941D1*
X5083806Y1859134D1*
X5086699Y1865000D1*
X5090332Y1870438D1*
X5094645Y1875355D1*
X5099562Y1879668D1*
X5105000Y1883301D1*
X5110866Y1886194D1*
X5117059Y1888296D1*
X5123474Y1889572D1*
X5130000Y1890000D1*
X5136526Y1889572D1*
X5142941Y1888296D1*
X5149134Y1886194D1*
X5155000Y1883301D1*
X5160438Y1879668D1*
X5165355Y1875355D1*
X5169668Y1870438D1*
X5173301Y1865000D1*
X5176194Y1859134D1*
X5178296Y1852941D1*
X5179572Y1846526D1*
X5180000Y1840000D1*
D1*
X5179572Y1833474D1*
X5178296Y1827059D1*
X5176194Y1820866D1*
X5173301Y1815000D1*
X5169668Y1809562D1*
X5165355Y1804645D1*
X5160438Y1800332D1*
X5155000Y1796699D1*
X5149134Y1793806D1*
X5142941Y1791704D1*
X5136526Y1790428D1*
X5130000Y1790000D1*
X5123474Y1790428D1*
X5117059Y1791704D1*
X5110866Y1793806D1*
X5105000Y1796699D1*
X5099562Y1800332D1*
X5094645Y1804645D1*
X5090332Y1809562D1*
X5086699Y1815000D1*
X5083806Y1820866D1*
X5081704Y1827059D1*
X5080428Y1833474D1*
X5080000Y1840000D1*
D1*
G37*
X1014574Y9169988D2*
D13*
X1590574Y9170007D1*
X1590492Y11660007D1*
X1014492Y11659988D1*
X1014574Y9169988D1*
G36*
X971501Y11389986D2*
X968238Y11390200D1*
X965031Y11390838D1*
X961934Y11391889D1*
X959001Y11393335D1*
X956282Y11395152D1*
X953823Y11397308D1*
X951667Y11399767D1*
X949850Y11402486D1*
X948404Y11405419D1*
X947352Y11408515D1*
X946714Y11411722D1*
X946500Y11414986D1*
X946714Y11418249D1*
X947352Y11421456D1*
X948403Y11424553D1*
X949849Y11427486D1*
X951666Y11430205D1*
X953822Y11432664D1*
X956281Y11434820D1*
X959000Y11436637D1*
X961932Y11438083D1*
X965029Y11439134D1*
X968236Y11439772D1*
X971499Y11439986D1*
D1*
X974763Y11439773D1*
X977970Y11439135D1*
X981067Y11438084D1*
X984000Y11436637D1*
X986719Y11434821D1*
X989177Y11432665D1*
X991334Y11430206D1*
X993150Y11427487D1*
X994597Y11424554D1*
X995648Y11421458D1*
X996286Y11418250D1*
X996500Y11414987D1*
X996287Y11411724D1*
X995649Y11408517D1*
X994598Y11405420D1*
X993151Y11402487D1*
X991335Y11399768D1*
X989179Y11397309D1*
X986720Y11395153D1*
X984001Y11393336D1*
X981068Y11391890D1*
X977972Y11390839D1*
X974764Y11390200D1*
X971501Y11389986D1*
D1*
G37*
X5945410Y11660014D2*
D13*
X5369410Y11659991D1*
X5369510Y9169991D1*
X5945510Y9170014D1*
X5945410Y11660014D1*
G36*
X5988499Y9440016D2*
X5991763Y9439802D1*
X5994970Y9439164D1*
X5998067Y9438113D1*
X6001000Y9436667D1*
X6003719Y9434850D1*
X6006177Y9432694D1*
X6008334Y9430236D1*
X6010151Y9427517D1*
X6011597Y9424584D1*
X6012648Y9421487D1*
X6013286Y9418280D1*
X6013500Y9415017D1*
X6013287Y9411754D1*
X6012649Y9408546D1*
X6011598Y9405450D1*
X6010152Y9402517D1*
X6008335Y9399798D1*
X6006179Y9397339D1*
X6003720Y9395183D1*
X6001001Y9393366D1*
X5998068Y9391919D1*
X5994972Y9390868D1*
X5991765Y9390230D1*
X5988501Y9390016D1*
D1*
X5985238Y9390230D1*
X5982031Y9390867D1*
X5978934Y9391918D1*
X5976001Y9393365D1*
X5973282Y9395181D1*
X5970823Y9397337D1*
X5968667Y9399796D1*
X5966850Y9402515D1*
X5965404Y9405448D1*
X5964353Y9408544D1*
X5963714Y9411752D1*
X5963500Y9415015D1*
X5963714Y9418278D1*
X5964352Y9421485D1*
X5965403Y9424582D1*
X5966849Y9427515D1*
X5968666Y9430234D1*
X5970822Y9432693D1*
X5973281Y9434849D1*
X5976000Y9436666D1*
X5978932Y9438112D1*
X5982029Y9439164D1*
X5985236Y9439802D1*
X5988499Y9440016D1*
D1*
G37*
X1840007Y16012008D2*
D13*
X1840008Y16005008D1*
X1420008Y16004992D1*
X1420007Y16011992D1*
X1839993Y16418008D2*
X1839992Y16425008D1*
X1419992Y16424992D1*
X1419993Y16417992D1*
X5120000Y15818000D2*
Y15825000D1*
X5540000D1*
Y15818000D1*
X5120000Y15412000D2*
Y15405000D1*
X5540000D1*
Y15412000D1*
X2917500Y5560000D2*
D34*
Y5077500D1*
X2392500D2*
Y5560000D1*
G36*
X2845500Y5834000D2*
X2848111Y5833829D1*
X2850676Y5833319D1*
X2853154Y5832478D1*
X2855500Y5831321D1*
X2857675Y5829867D1*
X2859642Y5828142D1*
X2861367Y5826175D1*
X2862821Y5824000D1*
X2863978Y5821654D1*
X2864819Y5819176D1*
X2865329Y5816611D1*
X2865500Y5814000D1*
X2865329Y5811389D1*
X2864819Y5808824D1*
X2863978Y5806346D1*
X2862821Y5804000D1*
X2861367Y5801825D1*
X2859642Y5799858D1*
X2857675Y5798133D1*
X2855500Y5796679D1*
X2853154Y5795522D1*
X2850676Y5794681D1*
X2848111Y5794171D1*
X2845500Y5794000D1*
D1*
X2842889Y5794171D1*
X2840324Y5794681D1*
X2837846Y5795522D1*
X2835500Y5796679D1*
X2833325Y5798133D1*
X2831358Y5799858D1*
X2829633Y5801825D1*
X2828179Y5804000D1*
X2827022Y5806346D1*
X2826181Y5808824D1*
X2825671Y5811389D1*
X2825500Y5814000D1*
X2825671Y5816611D1*
X2826181Y5819176D1*
X2827022Y5821654D1*
X2828179Y5824000D1*
X2829633Y5826175D1*
X2831358Y5828142D1*
X2833325Y5829867D1*
X2835500Y5831321D1*
X2837846Y5832478D1*
X2840324Y5833319D1*
X2842889Y5833829D1*
X2845500Y5834000D1*
D1*
G37*
X2917500Y6710000D2*
D34*
Y6227500D1*
X2392500D2*
Y6710000D1*
G36*
X2845500Y6984000D2*
X2848111Y6983829D1*
X2850676Y6983319D1*
X2853154Y6982478D1*
X2855500Y6981321D1*
X2857675Y6979867D1*
X2859642Y6978142D1*
X2861367Y6976175D1*
X2862821Y6974000D1*
X2863978Y6971654D1*
X2864819Y6969176D1*
X2865329Y6966611D1*
X2865500Y6964000D1*
X2865329Y6961389D1*
X2864819Y6958824D1*
X2863978Y6956346D1*
X2862821Y6954000D1*
X2861367Y6951825D1*
X2859642Y6949858D1*
X2857675Y6948133D1*
X2855500Y6946679D1*
X2853154Y6945522D1*
X2850676Y6944681D1*
X2848111Y6944171D1*
X2845500Y6944000D1*
D1*
X2842889Y6944171D1*
X2840324Y6944681D1*
X2837846Y6945522D1*
X2835500Y6946679D1*
X2833325Y6948133D1*
X2831358Y6949858D1*
X2829633Y6951825D1*
X2828179Y6954000D1*
X2827022Y6956346D1*
X2826181Y6958824D1*
X2825671Y6961389D1*
X2825500Y6964000D1*
X2825671Y6966611D1*
X2826181Y6969176D1*
X2827022Y6971654D1*
X2828179Y6974000D1*
X2829633Y6976175D1*
X2831358Y6978142D1*
X2833325Y6979867D1*
X2835500Y6981321D1*
X2837846Y6982478D1*
X2840324Y6983319D1*
X2842889Y6983829D1*
X2845500Y6984000D1*
D1*
G37*
X3467500Y5560000D2*
D34*
Y5077500D1*
X2942500D2*
Y5560000D1*
G36*
X3395500Y5834000D2*
X3398111Y5833829D1*
X3400676Y5833319D1*
X3403154Y5832478D1*
X3405500Y5831321D1*
X3407675Y5829867D1*
X3409642Y5828142D1*
X3411367Y5826175D1*
X3412821Y5824000D1*
X3413978Y5821654D1*
X3414819Y5819176D1*
X3415329Y5816611D1*
X3415500Y5814000D1*
X3415329Y5811389D1*
X3414819Y5808824D1*
X3413978Y5806346D1*
X3412821Y5804000D1*
X3411367Y5801825D1*
X3409642Y5799858D1*
X3407675Y5798133D1*
X3405500Y5796679D1*
X3403154Y5795522D1*
X3400676Y5794681D1*
X3398111Y5794171D1*
X3395500Y5794000D1*
D1*
X3392889Y5794171D1*
X3390324Y5794681D1*
X3387846Y5795522D1*
X3385500Y5796679D1*
X3383325Y5798133D1*
X3381358Y5799858D1*
X3379633Y5801825D1*
X3378179Y5804000D1*
X3377022Y5806346D1*
X3376181Y5808824D1*
X3375671Y5811389D1*
X3375500Y5814000D1*
X3375671Y5816611D1*
X3376181Y5819176D1*
X3377022Y5821654D1*
X3378179Y5824000D1*
X3379633Y5826175D1*
X3381358Y5828142D1*
X3383325Y5829867D1*
X3385500Y5831321D1*
X3387846Y5832478D1*
X3390324Y5833319D1*
X3392889Y5833829D1*
X3395500Y5834000D1*
D1*
G37*
X3467500Y6710000D2*
D34*
Y6227500D1*
X2942500D2*
Y6710000D1*
G36*
X3395500Y6984000D2*
X3398111Y6983829D1*
X3400676Y6983319D1*
X3403154Y6982478D1*
X3405500Y6981321D1*
X3407675Y6979867D1*
X3409642Y6978142D1*
X3411367Y6976175D1*
X3412821Y6974000D1*
X3413978Y6971654D1*
X3414819Y6969176D1*
X3415329Y6966611D1*
X3415500Y6964000D1*
X3415329Y6961389D1*
X3414819Y6958824D1*
X3413978Y6956346D1*
X3412821Y6954000D1*
X3411367Y6951825D1*
X3409642Y6949858D1*
X3407675Y6948133D1*
X3405500Y6946679D1*
X3403154Y6945522D1*
X3400676Y6944681D1*
X3398111Y6944171D1*
X3395500Y6944000D1*
D1*
X3392889Y6944171D1*
X3390324Y6944681D1*
X3387846Y6945522D1*
X3385500Y6946679D1*
X3383325Y6948133D1*
X3381358Y6949858D1*
X3379633Y6951825D1*
X3378179Y6954000D1*
X3377022Y6956346D1*
X3376181Y6958824D1*
X3375671Y6961389D1*
X3375500Y6964000D1*
X3375671Y6966611D1*
X3376181Y6969176D1*
X3377022Y6971654D1*
X3378179Y6974000D1*
X3379633Y6976175D1*
X3381358Y6978142D1*
X3383325Y6979867D1*
X3385500Y6981321D1*
X3387846Y6982478D1*
X3390324Y6983319D1*
X3392889Y6983829D1*
X3395500Y6984000D1*
D1*
G37*
X4017500Y5560000D2*
D34*
Y5077500D1*
X3492500D2*
Y5560000D1*
G36*
X3945500Y5834000D2*
X3948111Y5833829D1*
X3950676Y5833319D1*
X3953154Y5832478D1*
X3955500Y5831321D1*
X3957675Y5829867D1*
X3959642Y5828142D1*
X3961367Y5826175D1*
X3962821Y5824000D1*
X3963978Y5821654D1*
X3964819Y5819176D1*
X3965329Y5816611D1*
X3965500Y5814000D1*
X3965329Y5811389D1*
X3964819Y5808824D1*
X3963978Y5806346D1*
X3962821Y5804000D1*
X3961367Y5801825D1*
X3959642Y5799858D1*
X3957675Y5798133D1*
X3955500Y5796679D1*
X3953154Y5795522D1*
X3950676Y5794681D1*
X3948111Y5794171D1*
X3945500Y5794000D1*
D1*
X3942889Y5794171D1*
X3940324Y5794681D1*
X3937846Y5795522D1*
X3935500Y5796679D1*
X3933325Y5798133D1*
X3931358Y5799858D1*
X3929633Y5801825D1*
X3928179Y5804000D1*
X3927022Y5806346D1*
X3926181Y5808824D1*
X3925671Y5811389D1*
X3925500Y5814000D1*
X3925671Y5816611D1*
X3926181Y5819176D1*
X3927022Y5821654D1*
X3928179Y5824000D1*
X3929633Y5826175D1*
X3931358Y5828142D1*
X3933325Y5829867D1*
X3935500Y5831321D1*
X3937846Y5832478D1*
X3940324Y5833319D1*
X3942889Y5833829D1*
X3945500Y5834000D1*
D1*
G37*
X4042500Y13720000D2*
D34*
Y14202500D1*
X4567500D2*
Y13720000D1*
G36*
X4114500Y13446000D2*
X4111889Y13446171D1*
X4109324Y13446681D1*
X4106846Y13447522D1*
X4104500Y13448679D1*
X4102325Y13450133D1*
X4100358Y13451858D1*
X4098633Y13453825D1*
X4097179Y13456000D1*
X4096022Y13458346D1*
X4095181Y13460824D1*
X4094671Y13463389D1*
X4094500Y13466000D1*
X4094671Y13468611D1*
X4095181Y13471176D1*
X4096022Y13473654D1*
X4097179Y13476000D1*
X4098633Y13478175D1*
X4100358Y13480142D1*
X4102325Y13481867D1*
X4104500Y13483321D1*
X4106846Y13484478D1*
X4109324Y13485319D1*
X4111889Y13485829D1*
X4114500Y13486000D1*
D1*
X4117111Y13485829D1*
X4119676Y13485319D1*
X4122154Y13484478D1*
X4124500Y13483321D1*
X4126675Y13481867D1*
X4128642Y13480142D1*
X4130367Y13478175D1*
X4131821Y13476000D1*
X4132978Y13473654D1*
X4133819Y13471176D1*
X4134329Y13468611D1*
X4134500Y13466000D1*
X4134329Y13463389D1*
X4133819Y13460824D1*
X4132978Y13458346D1*
X4131821Y13456000D1*
X4130367Y13453825D1*
X4128642Y13451858D1*
X4126675Y13450133D1*
X4124500Y13448679D1*
X4122154Y13447522D1*
X4119676Y13446681D1*
X4117111Y13446171D1*
X4114500Y13446000D1*
D1*
G37*
X4042500Y12570000D2*
D34*
Y13052500D1*
X4567500D2*
Y12570000D1*
G36*
X4114500Y12296000D2*
X4111889Y12296171D1*
X4109324Y12296681D1*
X4106846Y12297522D1*
X4104500Y12298679D1*
X4102325Y12300133D1*
X4100358Y12301858D1*
X4098633Y12303825D1*
X4097179Y12306000D1*
X4096022Y12308346D1*
X4095181Y12310824D1*
X4094671Y12313389D1*
X4094500Y12316000D1*
X4094671Y12318611D1*
X4095181Y12321176D1*
X4096022Y12323654D1*
X4097179Y12326000D1*
X4098633Y12328175D1*
X4100358Y12330142D1*
X4102325Y12331867D1*
X4104500Y12333321D1*
X4106846Y12334478D1*
X4109324Y12335319D1*
X4111889Y12335829D1*
X4114500Y12336000D1*
D1*
X4117111Y12335829D1*
X4119676Y12335319D1*
X4122154Y12334478D1*
X4124500Y12333321D1*
X4126675Y12331867D1*
X4128642Y12330142D1*
X4130367Y12328175D1*
X4131821Y12326000D1*
X4132978Y12323654D1*
X4133819Y12321176D1*
X4134329Y12318611D1*
X4134500Y12316000D1*
X4134329Y12313389D1*
X4133819Y12310824D1*
X4132978Y12308346D1*
X4131821Y12306000D1*
X4130367Y12303825D1*
X4128642Y12301858D1*
X4126675Y12300133D1*
X4124500Y12298679D1*
X4122154Y12297522D1*
X4119676Y12296681D1*
X4117111Y12296171D1*
X4114500Y12296000D1*
D1*
G37*
X3492500Y13720000D2*
D34*
Y14202500D1*
X4017500D2*
Y13720000D1*
G36*
X3564500Y13446000D2*
X3561889Y13446171D1*
X3559324Y13446681D1*
X3556846Y13447522D1*
X3554500Y13448679D1*
X3552325Y13450133D1*
X3550358Y13451858D1*
X3548633Y13453825D1*
X3547179Y13456000D1*
X3546022Y13458346D1*
X3545181Y13460824D1*
X3544671Y13463389D1*
X3544500Y13466000D1*
X3544671Y13468611D1*
X3545181Y13471176D1*
X3546022Y13473654D1*
X3547179Y13476000D1*
X3548633Y13478175D1*
X3550358Y13480142D1*
X3552325Y13481867D1*
X3554500Y13483321D1*
X3556846Y13484478D1*
X3559324Y13485319D1*
X3561889Y13485829D1*
X3564500Y13486000D1*
D1*
X3567111Y13485829D1*
X3569676Y13485319D1*
X3572154Y13484478D1*
X3574500Y13483321D1*
X3576675Y13481867D1*
X3578642Y13480142D1*
X3580367Y13478175D1*
X3581821Y13476000D1*
X3582978Y13473654D1*
X3583819Y13471176D1*
X3584329Y13468611D1*
X3584500Y13466000D1*
X3584329Y13463389D1*
X3583819Y13460824D1*
X3582978Y13458346D1*
X3581821Y13456000D1*
X3580367Y13453825D1*
X3578642Y13451858D1*
X3576675Y13450133D1*
X3574500Y13448679D1*
X3572154Y13447522D1*
X3569676Y13446681D1*
X3567111Y13446171D1*
X3564500Y13446000D1*
D1*
G37*
X3495000Y12570000D2*
D34*
Y13052500D1*
X4020000D2*
Y12570000D1*
G36*
X3567000Y12296000D2*
X3564389Y12296171D1*
X3561824Y12296681D1*
X3559346Y12297522D1*
X3557000Y12298679D1*
X3554825Y12300133D1*
X3552858Y12301858D1*
X3551133Y12303825D1*
X3549679Y12306000D1*
X3548522Y12308346D1*
X3547681Y12310824D1*
X3547171Y12313389D1*
X3547000Y12316000D1*
X3547171Y12318611D1*
X3547681Y12321176D1*
X3548522Y12323654D1*
X3549679Y12326000D1*
X3551133Y12328175D1*
X3552858Y12330142D1*
X3554825Y12331867D1*
X3557000Y12333321D1*
X3559346Y12334478D1*
X3561824Y12335319D1*
X3564389Y12335829D1*
X3567000Y12336000D1*
D1*
X3569611Y12335829D1*
X3572176Y12335319D1*
X3574654Y12334478D1*
X3577000Y12333321D1*
X3579175Y12331867D1*
X3581142Y12330142D1*
X3582867Y12328175D1*
X3584321Y12326000D1*
X3585478Y12323654D1*
X3586319Y12321176D1*
X3586829Y12318611D1*
X3587000Y12316000D1*
X3586829Y12313389D1*
X3586319Y12310824D1*
X3585478Y12308346D1*
X3584321Y12306000D1*
X3582867Y12303825D1*
X3581142Y12301858D1*
X3579175Y12300133D1*
X3577000Y12298679D1*
X3574654Y12297522D1*
X3572176Y12296681D1*
X3569611Y12296171D1*
X3567000Y12296000D1*
D1*
G37*
X2942500Y13720000D2*
D34*
Y14202500D1*
X3467500D2*
Y13720000D1*
G36*
X3014500Y13446000D2*
X3011889Y13446171D1*
X3009324Y13446681D1*
X3006846Y13447522D1*
X3004500Y13448679D1*
X3002325Y13450133D1*
X3000358Y13451858D1*
X2998633Y13453825D1*
X2997179Y13456000D1*
X2996022Y13458346D1*
X2995181Y13460824D1*
X2994671Y13463389D1*
X2994500Y13466000D1*
X2994671Y13468611D1*
X2995181Y13471176D1*
X2996022Y13473654D1*
X2997179Y13476000D1*
X2998633Y13478175D1*
X3000358Y13480142D1*
X3002325Y13481867D1*
X3004500Y13483321D1*
X3006846Y13484478D1*
X3009324Y13485319D1*
X3011889Y13485829D1*
X3014500Y13486000D1*
D1*
X3017111Y13485829D1*
X3019676Y13485319D1*
X3022154Y13484478D1*
X3024500Y13483321D1*
X3026675Y13481867D1*
X3028642Y13480142D1*
X3030367Y13478175D1*
X3031821Y13476000D1*
X3032978Y13473654D1*
X3033819Y13471176D1*
X3034329Y13468611D1*
X3034500Y13466000D1*
X3034329Y13463389D1*
X3033819Y13460824D1*
X3032978Y13458346D1*
X3031821Y13456000D1*
X3030367Y13453825D1*
X3028642Y13451858D1*
X3026675Y13450133D1*
X3024500Y13448679D1*
X3022154Y13447522D1*
X3019676Y13446681D1*
X3017111Y13446171D1*
X3014500Y13446000D1*
D1*
G37*
X2942500Y12570000D2*
D34*
Y13052500D1*
X3467500D2*
Y12570000D1*
G36*
X3014500Y12296000D2*
X3011889Y12296171D1*
X3009324Y12296681D1*
X3006846Y12297522D1*
X3004500Y12298679D1*
X3002325Y12300133D1*
X3000358Y12301858D1*
X2998633Y12303825D1*
X2997179Y12306000D1*
X2996022Y12308346D1*
X2995181Y12310824D1*
X2994671Y12313389D1*
X2994500Y12316000D1*
X2994671Y12318611D1*
X2995181Y12321176D1*
X2996022Y12323654D1*
X2997179Y12326000D1*
X2998633Y12328175D1*
X3000358Y12330142D1*
X3002325Y12331867D1*
X3004500Y12333321D1*
X3006846Y12334478D1*
X3009324Y12335319D1*
X3011889Y12335829D1*
X3014500Y12336000D1*
D1*
X3017111Y12335829D1*
X3019676Y12335319D1*
X3022154Y12334478D1*
X3024500Y12333321D1*
X3026675Y12331867D1*
X3028642Y12330142D1*
X3030367Y12328175D1*
X3031821Y12326000D1*
X3032978Y12323654D1*
X3033819Y12321176D1*
X3034329Y12318611D1*
X3034500Y12316000D1*
X3034329Y12313389D1*
X3033819Y12310824D1*
X3032978Y12308346D1*
X3031821Y12306000D1*
X3030367Y12303825D1*
X3028642Y12301858D1*
X3026675Y12300133D1*
X3024500Y12298679D1*
X3022154Y12297522D1*
X3019676Y12296681D1*
X3017111Y12296171D1*
X3014500Y12296000D1*
D1*
G37*
X2392500Y13720000D2*
D34*
Y14202500D1*
X2917500D2*
Y13720000D1*
G36*
X2464500Y13446000D2*
X2461889Y13446171D1*
X2459324Y13446681D1*
X2456846Y13447522D1*
X2454500Y13448679D1*
X2452325Y13450133D1*
X2450358Y13451858D1*
X2448633Y13453825D1*
X2447179Y13456000D1*
X2446022Y13458346D1*
X2445181Y13460824D1*
X2444671Y13463389D1*
X2444500Y13466000D1*
X2444671Y13468611D1*
X2445181Y13471176D1*
X2446022Y13473654D1*
X2447179Y13476000D1*
X2448633Y13478175D1*
X2450358Y13480142D1*
X2452325Y13481867D1*
X2454500Y13483321D1*
X2456846Y13484478D1*
X2459324Y13485319D1*
X2461889Y13485829D1*
X2464500Y13486000D1*
D1*
X2467111Y13485829D1*
X2469676Y13485319D1*
X2472154Y13484478D1*
X2474500Y13483321D1*
X2476675Y13481867D1*
X2478642Y13480142D1*
X2480367Y13478175D1*
X2481821Y13476000D1*
X2482978Y13473654D1*
X2483819Y13471176D1*
X2484329Y13468611D1*
X2484500Y13466000D1*
X2484329Y13463389D1*
X2483819Y13460824D1*
X2482978Y13458346D1*
X2481821Y13456000D1*
X2480367Y13453825D1*
X2478642Y13451858D1*
X2476675Y13450133D1*
X2474500Y13448679D1*
X2472154Y13447522D1*
X2469676Y13446681D1*
X2467111Y13446171D1*
X2464500Y13446000D1*
D1*
G37*
X2392500Y12570000D2*
D34*
Y13052500D1*
X2917500D2*
Y12570000D1*
G36*
X2464500Y12296000D2*
X2461889Y12296171D1*
X2459324Y12296681D1*
X2456846Y12297522D1*
X2454500Y12298679D1*
X2452325Y12300133D1*
X2450358Y12301858D1*
X2448633Y12303825D1*
X2447179Y12306000D1*
X2446022Y12308346D1*
X2445181Y12310824D1*
X2444671Y12313389D1*
X2444500Y12316000D1*
X2444671Y12318611D1*
X2445181Y12321176D1*
X2446022Y12323654D1*
X2447179Y12326000D1*
X2448633Y12328175D1*
X2450358Y12330142D1*
X2452325Y12331867D1*
X2454500Y12333321D1*
X2456846Y12334478D1*
X2459324Y12335319D1*
X2461889Y12335829D1*
X2464500Y12336000D1*
D1*
X2467111Y12335829D1*
X2469676Y12335319D1*
X2472154Y12334478D1*
X2474500Y12333321D1*
X2476675Y12331867D1*
X2478642Y12330142D1*
X2480367Y12328175D1*
X2481821Y12326000D1*
X2482978Y12323654D1*
X2483819Y12321176D1*
X2484329Y12318611D1*
X2484500Y12316000D1*
X2484329Y12313389D1*
X2483819Y12310824D1*
X2482978Y12308346D1*
X2481821Y12306000D1*
X2480367Y12303825D1*
X2478642Y12301858D1*
X2476675Y12300133D1*
X2474500Y12298679D1*
X2472154Y12297522D1*
X2469676Y12296681D1*
X2467111Y12296171D1*
X2464500Y12296000D1*
D1*
G37*
X4017500Y6710000D2*
D34*
Y6227500D1*
X3492500D2*
Y6710000D1*
G36*
X3945500Y6984000D2*
X3948111Y6983829D1*
X3950676Y6983319D1*
X3953154Y6982478D1*
X3955500Y6981321D1*
X3957675Y6979867D1*
X3959642Y6978142D1*
X3961367Y6976175D1*
X3962821Y6974000D1*
X3963978Y6971654D1*
X3964819Y6969176D1*
X3965329Y6966611D1*
X3965500Y6964000D1*
X3965329Y6961389D1*
X3964819Y6958824D1*
X3963978Y6956346D1*
X3962821Y6954000D1*
X3961367Y6951825D1*
X3959642Y6949858D1*
X3957675Y6948133D1*
X3955500Y6946679D1*
X3953154Y6945522D1*
X3950676Y6944681D1*
X3948111Y6944171D1*
X3945500Y6944000D1*
D1*
X3942889Y6944171D1*
X3940324Y6944681D1*
X3937846Y6945522D1*
X3935500Y6946679D1*
X3933325Y6948133D1*
X3931358Y6949858D1*
X3929633Y6951825D1*
X3928179Y6954000D1*
X3927022Y6956346D1*
X3926181Y6958824D1*
X3925671Y6961389D1*
X3925500Y6964000D1*
X3925671Y6966611D1*
X3926181Y6969176D1*
X3927022Y6971654D1*
X3928179Y6974000D1*
X3929633Y6976175D1*
X3931358Y6978142D1*
X3933325Y6979867D1*
X3935500Y6981321D1*
X3937846Y6982478D1*
X3940324Y6983319D1*
X3942889Y6983829D1*
X3945500Y6984000D1*
D1*
G37*
X4567500Y5560000D2*
D34*
Y5077500D1*
X4042500D2*
Y5560000D1*
G36*
X4495500Y5834000D2*
X4498111Y5833829D1*
X4500676Y5833319D1*
X4503154Y5832478D1*
X4505500Y5831321D1*
X4507675Y5829867D1*
X4509642Y5828142D1*
X4511367Y5826175D1*
X4512821Y5824000D1*
X4513978Y5821654D1*
X4514819Y5819176D1*
X4515329Y5816611D1*
X4515500Y5814000D1*
X4515329Y5811389D1*
X4514819Y5808824D1*
X4513978Y5806346D1*
X4512821Y5804000D1*
X4511367Y5801825D1*
X4509642Y5799858D1*
X4507675Y5798133D1*
X4505500Y5796679D1*
X4503154Y5795522D1*
X4500676Y5794681D1*
X4498111Y5794171D1*
X4495500Y5794000D1*
D1*
X4492889Y5794171D1*
X4490324Y5794681D1*
X4487846Y5795522D1*
X4485500Y5796679D1*
X4483325Y5798133D1*
X4481358Y5799858D1*
X4479633Y5801825D1*
X4478179Y5804000D1*
X4477022Y5806346D1*
X4476181Y5808824D1*
X4475671Y5811389D1*
X4475500Y5814000D1*
X4475671Y5816611D1*
X4476181Y5819176D1*
X4477022Y5821654D1*
X4478179Y5824000D1*
X4479633Y5826175D1*
X4481358Y5828142D1*
X4483325Y5829867D1*
X4485500Y5831321D1*
X4487846Y5832478D1*
X4490324Y5833319D1*
X4492889Y5833829D1*
X4495500Y5834000D1*
D1*
G37*
X4567500Y6710000D2*
D34*
Y6227500D1*
X4042500D2*
Y6710000D1*
G36*
X4495500Y6984000D2*
X4498111Y6983829D1*
X4500676Y6983319D1*
X4503154Y6982478D1*
X4505500Y6981321D1*
X4507675Y6979867D1*
X4509642Y6978142D1*
X4511367Y6976175D1*
X4512821Y6974000D1*
X4513978Y6971654D1*
X4514819Y6969176D1*
X4515329Y6966611D1*
X4515500Y6964000D1*
X4515329Y6961389D1*
X4514819Y6958824D1*
X4513978Y6956346D1*
X4512821Y6954000D1*
X4511367Y6951825D1*
X4509642Y6949858D1*
X4507675Y6948133D1*
X4505500Y6946679D1*
X4503154Y6945522D1*
X4500676Y6944681D1*
X4498111Y6944171D1*
X4495500Y6944000D1*
D1*
X4492889Y6944171D1*
X4490324Y6944681D1*
X4487846Y6945522D1*
X4485500Y6946679D1*
X4483325Y6948133D1*
X4481358Y6949858D1*
X4479633Y6951825D1*
X4478179Y6954000D1*
X4477022Y6956346D1*
X4476181Y6958824D1*
X4475671Y6961389D1*
X4475500Y6964000D1*
X4475671Y6966611D1*
X4476181Y6969176D1*
X4477022Y6971654D1*
X4478179Y6974000D1*
X4479633Y6976175D1*
X4481358Y6978142D1*
X4483325Y6979867D1*
X4485500Y6981321D1*
X4487846Y6982478D1*
X4490324Y6983319D1*
X4492889Y6983829D1*
X4495500Y6984000D1*
D1*
G37*
X2957000Y5916000D2*
D13*
Y5964000D1*
X3053000Y5916000D2*
Y5964000D1*
X3056000Y7038000D2*
X3104000D1*
X3056000Y6942000D2*
X3104000D1*
X2503000Y5964000D2*
Y5916000D1*
X2407000Y5964000D2*
Y5916000D1*
X2554000Y6942000D2*
X2506000D1*
X2554000Y7038000D2*
X2506000D1*
X4181000Y8850500D2*
X4229000D1*
X4181000Y8754500D2*
X4229000D1*
X4181000Y8713000D2*
X4229000D1*
X4181000Y8617000D2*
X4229000D1*
X2144997Y15366250D2*
D10*
X2065003D1*
X2144997Y15451250D2*
X2065003D1*
X2144998Y15466251D2*
X2065004Y15466249D1*
X2144996Y15551251D2*
X2065002Y15551249D1*
X2562004Y7346997D2*
D13*
X2561996Y7782997D1*
X2898004Y7347003D2*
X2897996Y7783003D1*
X4057000Y5916000D2*
Y5964000D1*
X4153000Y5916000D2*
Y5964000D1*
X4156000Y7038000D2*
X4204000D1*
X4156000Y6942000D2*
X4204000D1*
X3603000Y5964000D2*
Y5916000D1*
X3507000Y5964000D2*
Y5916000D1*
X3654000Y6942000D2*
X3606000D1*
X3654000Y7038000D2*
X3606000D1*
X4181000Y8988000D2*
X4229000D1*
X4181000Y8892000D2*
X4229000D1*
X4181000Y9125500D2*
X4229000D1*
X4181000Y9029500D2*
X4229000D1*
X4061954Y7346997D2*
X4061946Y7782997D1*
X4397954Y7347003D2*
X4397946Y7783003D1*
X4490499Y8651503D2*
X4490501Y8603503D1*
X4394499Y8651497D2*
X4394501Y8603497D1*
X1088300Y15491000D2*
Y15539000D1*
X1184300Y15491000D2*
Y15539000D1*
X2590500Y2489000D2*
Y2441000D1*
X2494500Y2489000D2*
Y2441000D1*
X5153000Y2489000D2*
Y2441000D1*
X5057000Y2489000D2*
Y2441000D1*
X2731000Y9125500D2*
X2779000D1*
X2731000Y9029500D2*
X2779000D1*
X1569500Y2441000D2*
Y2489000D1*
X1665500Y2441000D2*
Y2489000D1*
X1419500Y2441000D2*
Y2489000D1*
X1515500Y2441000D2*
Y2489000D1*
X2731000Y8988000D2*
X2779000D1*
X2731000Y8892000D2*
X2779000D1*
X3057000Y9390999D2*
Y9438999D1*
X3153000Y9391001D2*
Y9439001D1*
X3302999Y9439002D2*
X3303001Y9391002D1*
X3206999Y9438998D2*
X3207001Y9390998D1*
X3478000Y2489000D2*
Y2441000D1*
X3382000Y2489000D2*
Y2441000D1*
X3628000Y2489000D2*
Y2441000D1*
X3532000Y2489000D2*
Y2441000D1*
X3177999Y2489001D2*
X3178001Y2441001D1*
X3081999Y2488999D2*
X3082001Y2440999D1*
X3328000Y2489000D2*
Y2441000D1*
X3232000Y2489000D2*
Y2441000D1*
X5207000D2*
Y2489000D1*
X5303000Y2441000D2*
Y2489000D1*
X4294500Y2440999D2*
Y2488999D1*
X4390500Y2441001D2*
Y2489001D1*
X4815003Y16463750D2*
D10*
X4894997D1*
X4815003Y16378750D2*
X4894997D1*
X4815003Y16363750D2*
X4894997D1*
X4815003Y16278750D2*
X4894997D1*
X4002999Y13364001D2*
D13*
X4003001Y13316001D1*
X3906999Y13363999D2*
X3907001Y13315999D1*
X3906501Y12242001D2*
X3858501Y12241999D1*
X3906499Y12338001D2*
X3858499Y12337999D1*
X4457000Y13316000D2*
Y13364000D1*
X4553000Y13316000D2*
Y13364000D1*
X4406000Y12338000D2*
X4454000D1*
X4406000Y12242000D2*
X4454000D1*
X2779000Y10429500D2*
X2731000D1*
X2779000Y10525500D2*
X2731000D1*
X2779000Y10567000D2*
X2731000D1*
X2779000Y10663000D2*
X2731000D1*
X4397994Y11933004D2*
X4398006Y11497004D1*
X4061994Y11932996D2*
X4062006Y11496996D1*
X2903000Y13364000D2*
Y13316000D1*
X2807000Y13364000D2*
Y13316000D1*
X2804001Y12242001D2*
X2756001Y12241999D1*
X2803999Y12338001D2*
X2755999Y12337999D1*
X3357000Y13316000D2*
Y13364000D1*
X3453000Y13316000D2*
Y13364000D1*
X3306000Y12338000D2*
X3354000D1*
X3306000Y12242000D2*
X3354000D1*
X2779000Y10292000D2*
X2731000D1*
X2779000Y10388000D2*
X2731000D1*
X2779000Y10154500D2*
X2731000D1*
X2779000Y10250500D2*
X2731000D1*
X2897988Y11933009D2*
X2898012Y11497009D1*
X2561988Y11932991D2*
X2562012Y11496991D1*
X2482001Y10628498D2*
X2481999Y10676498D1*
X2578001Y10628502D2*
X2577999Y10676502D1*
X3902999Y9889002D2*
X3903001Y9841002D1*
X3806999Y9888998D2*
X3807001Y9840998D1*
X3657000Y9840999D2*
Y9888999D1*
X3753000Y9841001D2*
Y9889001D1*
X4229000Y10092000D2*
X4181000D1*
X4229000Y10188000D2*
X4181000D1*
X4229000Y10229500D2*
X4181000D1*
X4229000Y10325500D2*
X4181000D1*
X5782000Y15490999D2*
Y15538999D1*
X5878000Y15491001D2*
Y15539001D1*
X2779000Y9167000D2*
X2731000D1*
X2779000Y9263000D2*
X2731000D1*
X4181000Y10050500D2*
X4229000D1*
X4181000Y9954500D2*
X4229000D1*
X4822994Y11933004D2*
X4823006Y11497004D1*
X4486994Y11932996D2*
X4487006Y11496996D1*
X2473000Y11933000D2*
Y11497000D1*
X2137000Y11933000D2*
Y11497000D1*
X2137004Y7346997D2*
X2136996Y7782997D1*
X2473004Y7347003D2*
X2472996Y7783003D1*
X4487004Y7346997D2*
X4486996Y7782997D1*
X4823004Y7347003D2*
X4822996Y7783003D1*
X2337008Y9463995D2*
X2513008Y9464003D1*
X2336992Y9815995D2*
X2512992Y9816003D1*
G36*
X2586007Y9491007D2*
X2582744Y9491220D1*
X2579537Y9491858D1*
X2576440Y9492909D1*
X2573507Y9494355D1*
X2570788Y9496172D1*
X2568329Y9498328D1*
X2566173Y9500787D1*
X2564356Y9503506D1*
X2562909Y9506438D1*
X2561858Y9509535D1*
X2561220Y9512742D1*
X2561006Y9516005D1*
X2561220Y9519269D1*
X2561857Y9522476D1*
X2562908Y9525573D1*
X2564355Y9528506D1*
X2566171Y9531225D1*
X2568327Y9533684D1*
X2570786Y9535840D1*
X2573505Y9537657D1*
X2576438Y9539103D1*
X2579534Y9540155D1*
X2582742Y9540793D1*
X2586005Y9541007D1*
D1*
X2589268Y9540793D1*
X2592475Y9540155D1*
X2595572Y9539104D1*
X2598505Y9537658D1*
X2601224Y9535841D1*
X2603683Y9533685D1*
X2605839Y9531227D1*
X2607656Y9528508D1*
X2609102Y9525575D1*
X2610154Y9522478D1*
X2610792Y9519271D1*
X2611006Y9516008D1*
X2610792Y9512745D1*
X2610154Y9509537D1*
X2609103Y9506441D1*
X2607657Y9503508D1*
X2605840Y9500789D1*
X2603684Y9498330D1*
X2601226Y9496174D1*
X2598507Y9494357D1*
X2595574Y9492910D1*
X2592478Y9491859D1*
X2589270Y9491221D1*
X2586007Y9491007D1*
D1*
G37*
X4622995Y9816003D2*
D13*
X4446995Y9815998D1*
X4623005Y9464003D2*
X4447005Y9463998D1*
G36*
X4373996Y9788996D2*
X4377259Y9788783D1*
X4380467Y9788145D1*
X4383563Y9787094D1*
X4386496Y9785647D1*
X4389215Y9783831D1*
X4391674Y9781675D1*
X4393830Y9779216D1*
X4395647Y9776497D1*
X4397094Y9773564D1*
X4398145Y9770467D1*
X4398783Y9767260D1*
X4398997Y9763997D1*
X4398783Y9760734D1*
X4398145Y9757527D1*
X4397094Y9754430D1*
X4395648Y9751497D1*
X4393831Y9748778D1*
X4391675Y9746319D1*
X4389216Y9744163D1*
X4386497Y9742346D1*
X4383564Y9740900D1*
X4380468Y9739848D1*
X4377261Y9739210D1*
X4373997Y9738996D1*
D1*
X4370734Y9739210D1*
X4367527Y9739848D1*
X4364430Y9740899D1*
X4361497Y9742345D1*
X4358778Y9744162D1*
X4356320Y9746318D1*
X4354163Y9748777D1*
X4352346Y9751496D1*
X4350900Y9754429D1*
X4349849Y9757525D1*
X4349211Y9760733D1*
X4348997Y9763996D1*
X4349211Y9767259D1*
X4349848Y9770466D1*
X4350900Y9773563D1*
X4352346Y9776496D1*
X4354163Y9779215D1*
X4356319Y9781674D1*
X4358777Y9783830D1*
X4361496Y9785647D1*
X4364429Y9787093D1*
X4367526Y9788144D1*
X4370733Y9788782D1*
X4373996Y9788996D1*
D1*
G37*
X1902000Y15853000D2*
D13*
Y15677000D1*
X2208000Y15853000D2*
Y15677000D1*
G36*
X1868000Y15609000D2*
X1868214Y15612263D1*
X1868852Y15615470D1*
X1869903Y15618567D1*
X1871349Y15621500D1*
X1873166Y15624219D1*
X1875322Y15626678D1*
X1877781Y15628834D1*
X1880500Y15630651D1*
X1883433Y15632097D1*
X1886530Y15633148D1*
X1889737Y15633786D1*
X1893000Y15634000D1*
X1896263Y15633786D1*
X1899470Y15633148D1*
X1902567Y15632097D1*
X1905500Y15630651D1*
X1908219Y15628834D1*
X1910678Y15626678D1*
X1912834Y15624219D1*
X1914651Y15621500D1*
X1916097Y15618567D1*
X1917148Y15615470D1*
X1917786Y15612263D1*
X1918000Y15609000D1*
D1*
X1917786Y15605737D1*
X1917148Y15602530D1*
X1916097Y15599433D1*
X1914651Y15596500D1*
X1912834Y15593781D1*
X1910678Y15591322D1*
X1908219Y15589166D1*
X1905500Y15587349D1*
X1902567Y15585903D1*
X1899470Y15584852D1*
X1896263Y15584214D1*
X1893000Y15584000D1*
X1889737Y15584214D1*
X1886530Y15584852D1*
X1883433Y15585903D1*
X1880500Y15587349D1*
X1877781Y15589166D1*
X1875322Y15591322D1*
X1873166Y15593781D1*
X1871349Y15596500D1*
X1869903Y15599433D1*
X1868852Y15602530D1*
X1868214Y15605737D1*
X1868000Y15609000D1*
D1*
G37*
X3788000Y8335000D2*
D13*
X3835000D1*
Y8382000D1*
X3125000D2*
Y8335000D1*
X3172000D1*
Y9045000D2*
X3125000D1*
Y8998000D1*
X3835000D2*
Y9045000D1*
X3788000D1*
G36*
X3952000Y8363000D2*
X3951786Y8359737D1*
X3951148Y8356530D1*
X3950097Y8353433D1*
X3948651Y8350500D1*
X3946834Y8347781D1*
X3944678Y8345322D1*
X3942219Y8343166D1*
X3939500Y8341349D1*
X3936567Y8339903D1*
X3933470Y8338852D1*
X3930263Y8338214D1*
X3927000Y8338000D1*
X3923737Y8338214D1*
X3920530Y8338852D1*
X3917433Y8339903D1*
X3914500Y8341349D1*
X3911781Y8343166D1*
X3909322Y8345322D1*
X3907166Y8347781D1*
X3905349Y8350500D1*
X3903903Y8353433D1*
X3902852Y8356530D1*
X3902214Y8359737D1*
X3902000Y8363000D1*
D1*
X3902214Y8366263D1*
X3902852Y8369470D1*
X3903903Y8372567D1*
X3905349Y8375500D1*
X3907166Y8378219D1*
X3909322Y8380678D1*
X3911781Y8382834D1*
X3914500Y8384651D1*
X3917433Y8386097D1*
X3920530Y8387148D1*
X3923737Y8387786D1*
X3927000Y8388000D1*
X3930263Y8387786D1*
X3933470Y8387148D1*
X3936567Y8386097D1*
X3939500Y8384651D1*
X3942219Y8382834D1*
X3944678Y8380678D1*
X3946834Y8378219D1*
X3948651Y8375500D1*
X3950097Y8372567D1*
X3951148Y8369470D1*
X3951786Y8366263D1*
X3952000Y8363000D1*
D1*
G37*
X5058000Y15977000D2*
D13*
Y16153000D1*
X4752000Y15977000D2*
Y16153000D1*
G36*
X5092000Y16221000D2*
X5091786Y16217737D1*
X5091148Y16214530D1*
X5090097Y16211433D1*
X5088651Y16208500D1*
X5086834Y16205781D1*
X5084678Y16203322D1*
X5082219Y16201166D1*
X5079500Y16199349D1*
X5076567Y16197903D1*
X5073470Y16196852D1*
X5070263Y16196214D1*
X5067000Y16196000D1*
X5063737Y16196214D1*
X5060530Y16196852D1*
X5057433Y16197903D1*
X5054500Y16199349D1*
X5051781Y16201166D1*
X5049322Y16203322D1*
X5047166Y16205781D1*
X5045349Y16208500D1*
X5043903Y16211433D1*
X5042852Y16214530D1*
X5042214Y16217737D1*
X5042000Y16221000D1*
D1*
X5042214Y16224263D1*
X5042852Y16227470D1*
X5043903Y16230567D1*
X5045349Y16233500D1*
X5047166Y16236219D1*
X5049322Y16238678D1*
X5051781Y16240834D1*
X5054500Y16242651D1*
X5057433Y16244097D1*
X5060530Y16245148D1*
X5063737Y16245786D1*
X5067000Y16246000D1*
X5070263Y16245786D1*
X5073470Y16245148D1*
X5076567Y16244097D1*
X5079500Y16242651D1*
X5082219Y16240834D1*
X5084678Y16238678D1*
X5086834Y16236219D1*
X5088651Y16233500D1*
X5090097Y16230567D1*
X5091148Y16227470D1*
X5091786Y16224263D1*
X5092000Y16221000D1*
D1*
G37*
X1284000Y3595000D2*
D13*
X1255000D1*
Y2835000D1*
X1284000D1*
X2276000Y3595000D2*
X2305000D1*
Y2835000D1*
X2276000D1*
G36*
X1240000Y2672000D2*
X1240214Y2675263D1*
X1240852Y2678470D1*
X1241903Y2681567D1*
X1243349Y2684500D1*
X1245166Y2687219D1*
X1247322Y2689678D1*
X1249781Y2691834D1*
X1252500Y2693651D1*
X1255433Y2695097D1*
X1258530Y2696148D1*
X1261737Y2696786D1*
X1265000Y2697000D1*
X1268263Y2696786D1*
X1271470Y2696148D1*
X1274567Y2695097D1*
X1277500Y2693651D1*
X1280219Y2691834D1*
X1282678Y2689678D1*
X1284834Y2687219D1*
X1286651Y2684500D1*
X1288097Y2681567D1*
X1289148Y2678470D1*
X1289786Y2675263D1*
X1290000Y2672000D1*
D1*
X1289786Y2668737D1*
X1289148Y2665530D1*
X1288097Y2662433D1*
X1286651Y2659500D1*
X1284834Y2656781D1*
X1282678Y2654322D1*
X1280219Y2652166D1*
X1277500Y2650349D1*
X1274567Y2648903D1*
X1271470Y2647852D1*
X1268263Y2647214D1*
X1265000Y2647000D1*
X1261737Y2647214D1*
X1258530Y2647852D1*
X1255433Y2648903D1*
X1252500Y2650349D1*
X1249781Y2652166D1*
X1247322Y2654322D1*
X1245166Y2656781D1*
X1243349Y2659500D1*
X1241903Y2662433D1*
X1240852Y2665530D1*
X1240214Y2668737D1*
X1240000Y2672000D1*
D1*
G37*
X2984000Y3595000D2*
D13*
X2955000D1*
Y2835000D1*
X2984000D1*
X3976000Y3595000D2*
X4005000D1*
Y2835000D1*
X3976000D1*
G36*
X2940000Y2672000D2*
X2940214Y2675263D1*
X2940852Y2678470D1*
X2941903Y2681567D1*
X2943349Y2684500D1*
X2945166Y2687219D1*
X2947322Y2689678D1*
X2949781Y2691834D1*
X2952500Y2693651D1*
X2955433Y2695097D1*
X2958530Y2696148D1*
X2961737Y2696786D1*
X2965000Y2697000D1*
X2968263Y2696786D1*
X2971470Y2696148D1*
X2974567Y2695097D1*
X2977500Y2693651D1*
X2980219Y2691834D1*
X2982678Y2689678D1*
X2984834Y2687219D1*
X2986651Y2684500D1*
X2988097Y2681567D1*
X2989148Y2678470D1*
X2989786Y2675263D1*
X2990000Y2672000D1*
D1*
X2989786Y2668737D1*
X2989148Y2665530D1*
X2988097Y2662433D1*
X2986651Y2659500D1*
X2984834Y2656781D1*
X2982678Y2654322D1*
X2980219Y2652166D1*
X2977500Y2650349D1*
X2974567Y2648903D1*
X2971470Y2647852D1*
X2968263Y2647214D1*
X2965000Y2647000D1*
X2961737Y2647214D1*
X2958530Y2647852D1*
X2955433Y2648903D1*
X2952500Y2650349D1*
X2949781Y2652166D1*
X2947322Y2654322D1*
X2945166Y2656781D1*
X2943349Y2659500D1*
X2941903Y2662433D1*
X2940852Y2665530D1*
X2940214Y2668737D1*
X2940000Y2672000D1*
D1*
G37*
X3171990Y10944991D2*
D13*
X3124990Y10944990D1*
X3124991Y10897990D1*
X3834991Y10898010D2*
X3834990Y10945010D1*
X3787990Y10945009D1*
X3788010Y10235009D2*
X3835010Y10235010D1*
X3835009Y10282010D1*
X3125009Y10281990D2*
X3125010Y10234990D1*
X3172010Y10234991D1*
G36*
X3007990Y10916986D2*
X3008204Y10920249D1*
X3008842Y10923457D1*
X3009893Y10926553D1*
X3011339Y10929486D1*
X3013156Y10932205D1*
X3015312Y10934664D1*
X3017771Y10936820D1*
X3020490Y10938637D1*
X3023423Y10940084D1*
X3026519Y10941135D1*
X3029727Y10941773D1*
X3032990Y10941987D1*
X3036253Y10941773D1*
X3039460Y10941135D1*
X3042557Y10940084D1*
X3045490Y10938638D1*
X3048209Y10936821D1*
X3050668Y10934665D1*
X3052824Y10932206D1*
X3054641Y10929488D1*
X3056087Y10926555D1*
X3057138Y10923458D1*
X3057776Y10920251D1*
X3057990Y10916988D1*
D1*
X3057777Y10913724D1*
X3057139Y10910517D1*
X3056088Y10907420D1*
X3054641Y10904488D1*
X3052825Y10901768D1*
X3050669Y10899310D1*
X3048210Y10897153D1*
X3045491Y10895337D1*
X3042558Y10893890D1*
X3039462Y10892839D1*
X3036254Y10892201D1*
X3032991Y10891987D1*
X3029728Y10892201D1*
X3026521Y10892839D1*
X3023424Y10893890D1*
X3020491Y10895336D1*
X3017772Y10897153D1*
X3015313Y10899309D1*
X3013157Y10901767D1*
X3011340Y10904486D1*
X3009894Y10907419D1*
X3008842Y10910516D1*
X3008204Y10913723D1*
X3007990Y10916986D1*
D1*
G37*
X4684000Y3595000D2*
D13*
X4655000D1*
Y2835000D1*
X4684000D1*
X5676000Y3595000D2*
X5705000D1*
Y2835000D1*
X5676000D1*
G36*
X4640000Y2672000D2*
X4640214Y2675263D1*
X4640852Y2678470D1*
X4641903Y2681567D1*
X4643349Y2684500D1*
X4645166Y2687219D1*
X4647322Y2689678D1*
X4649781Y2691834D1*
X4652500Y2693651D1*
X4655433Y2695097D1*
X4658530Y2696148D1*
X4661737Y2696786D1*
X4665000Y2697000D1*
X4668263Y2696786D1*
X4671470Y2696148D1*
X4674567Y2695097D1*
X4677500Y2693651D1*
X4680219Y2691834D1*
X4682678Y2689678D1*
X4684834Y2687219D1*
X4686651Y2684500D1*
X4688097Y2681567D1*
X4689148Y2678470D1*
X4689786Y2675263D1*
X4690000Y2672000D1*
D1*
X4689786Y2668737D1*
X4689148Y2665530D1*
X4688097Y2662433D1*
X4686651Y2659500D1*
X4684834Y2656781D1*
X4682678Y2654322D1*
X4680219Y2652166D1*
X4677500Y2650349D1*
X4674567Y2648903D1*
X4671470Y2647852D1*
X4668263Y2647214D1*
X4665000Y2647000D1*
X4661737Y2647214D1*
X4658530Y2647852D1*
X4655433Y2648903D1*
X4652500Y2650349D1*
X4649781Y2652166D1*
X4647322Y2654322D1*
X4645166Y2656781D1*
X4643349Y2659500D1*
X4641903Y2662433D1*
X4640852Y2665530D1*
X4640214Y2668737D1*
X4640000Y2672000D1*
D1*
G37*
X2235027Y9415030D2*
D13*
X2234973Y9865030D1*
X1705027Y9414966D2*
X1704973Y9864966D1*
G36*
X2278960Y9966036D2*
X2278747Y9962772D1*
X2278109Y9959565D1*
X2277058Y9956468D1*
X2275612Y9953535D1*
X2273796Y9950816D1*
X2271640Y9948357D1*
X2269182Y9946201D1*
X2266463Y9944383D1*
X2263530Y9942937D1*
X2260434Y9941885D1*
X2257226Y9941247D1*
X2253963Y9941033D1*
X2250700Y9941246D1*
X2247493Y9941884D1*
X2244396Y9942934D1*
X2241463Y9944380D1*
X2238744Y9946197D1*
X2236285Y9948353D1*
X2234128Y9950811D1*
X2232311Y9953530D1*
X2230864Y9956463D1*
X2229813Y9959559D1*
X2229174Y9962766D1*
X2228960Y9966030D1*
D1*
X2229174Y9969293D1*
X2229811Y9972500D1*
X2230862Y9975597D1*
X2232308Y9978530D1*
X2234125Y9981249D1*
X2236280Y9983708D1*
X2238739Y9985865D1*
X2241458Y9987682D1*
X2244390Y9989128D1*
X2247487Y9990180D1*
X2250694Y9990818D1*
X2253957Y9991033D1*
X2257220Y9990819D1*
X2260428Y9990182D1*
X2263524Y9989131D1*
X2266458Y9987685D1*
X2269177Y9985868D1*
X2271636Y9983712D1*
X2273792Y9981254D1*
X2275609Y9978535D1*
X2277056Y9975602D1*
X2278108Y9972506D1*
X2278746Y9969299D1*
X2278960Y9966036D1*
D1*
G37*
X4725000Y9865000D2*
D13*
Y9415000D1*
X5255000Y9865000D2*
Y9415000D1*
G36*
X4681000Y9314000D2*
X4681214Y9317263D1*
X4681852Y9320470D1*
X4682903Y9323567D1*
X4684349Y9326500D1*
X4686166Y9329219D1*
X4688322Y9331678D1*
X4690781Y9333834D1*
X4693500Y9335651D1*
X4696433Y9337097D1*
X4699530Y9338148D1*
X4702737Y9338786D1*
X4706000Y9339000D1*
X4709263Y9338786D1*
X4712470Y9338148D1*
X4715567Y9337097D1*
X4718500Y9335651D1*
X4721219Y9333834D1*
X4723678Y9331678D1*
X4725834Y9329219D1*
X4727651Y9326500D1*
X4729097Y9323567D1*
X4730148Y9320470D1*
X4730786Y9317263D1*
X4731000Y9314000D1*
D1*
X4730786Y9310737D1*
X4730148Y9307530D1*
X4729097Y9304433D1*
X4727651Y9301500D1*
X4725834Y9298781D1*
X4723678Y9296322D1*
X4721219Y9294166D1*
X4718500Y9292349D1*
X4715567Y9290903D1*
X4712470Y9289852D1*
X4709263Y9289214D1*
X4706000Y9289000D1*
X4702737Y9289214D1*
X4699530Y9289852D1*
X4696433Y9290903D1*
X4693500Y9292349D1*
X4690781Y9294166D1*
X4688322Y9296322D1*
X4686166Y9298781D1*
X4684349Y9301500D1*
X4682903Y9304433D1*
X4681852Y9307530D1*
X4681214Y9310737D1*
X4681000Y9314000D1*
D1*
G37*
G36*
X5955000Y3352500D2*
X5867500D1*
X5717500Y3077500D1*
X5867500D1*
X5961190Y3249267D1*
X5955000Y3352500D1*
G37*
G36*
X5717500D2*
X5567500D1*
X5417500Y3077500D1*
X5567500D1*
X5717500Y3352500D1*
G37*
G36*
X5417500D2*
X5267500D1*
X5117500Y3077500D1*
X5267500D1*
X5417500Y3352500D1*
G37*
G36*
X3317500D2*
X3167500D1*
X3017500Y3077500D1*
X3167500D1*
X3317500Y3352500D1*
G37*
G36*
X5117500D2*
X4967500D1*
X4817500Y3077500D1*
X4967500D1*
X5117500Y3352500D1*
G37*
G36*
X4817500D2*
X4667500D1*
X4517500Y3077500D1*
X4667500D1*
X4817500Y3352500D1*
G37*
G36*
X4517500D2*
X4367500D1*
X4217500Y3077500D1*
X4367500D1*
X4517500Y3352500D1*
G37*
G36*
X3617500D2*
X3467500D1*
X3317500Y3077500D1*
X3467500D1*
X3617500Y3352500D1*
G37*
G36*
X4217500D2*
X4067500D1*
X3917500Y3077500D1*
X4067500D1*
X4217500Y3352500D1*
G37*
G36*
X2417500D2*
X2267500D1*
X2117500Y3077500D1*
X2267500D1*
X2417500Y3352500D1*
G37*
G36*
X3917500D2*
X3767500D1*
X3617500Y3077500D1*
X3767500D1*
X3917500Y3352500D1*
G37*
G36*
X3017500D2*
X2867500D1*
X2717500Y3077500D1*
X2867500D1*
X3017500Y3352500D1*
G37*
G36*
X2717500D2*
X2567500D1*
X2417500Y3077500D1*
X2567500D1*
X2717500Y3352500D1*
G37*
G36*
X2117500D2*
X1967500D1*
X1817500Y3077500D1*
X1967500D1*
X2117500Y3352500D1*
G37*
G36*
X1517500D2*
X1367500D1*
X1217500Y3077500D1*
X1367500D1*
X1517500Y3352500D1*
G37*
G36*
X1817500D2*
X1667500D1*
X1517500Y3077500D1*
X1667500D1*
X1817500Y3352500D1*
G37*
G36*
X1217500D2*
X1067500D1*
X992500Y3215000D1*
Y3077500D1*
X1067500D1*
X1217500Y3352500D1*
G37*
X1865073Y9164990D2*
D10*
Y11664990D1*
X1015073D2*
X1865073D1*
Y9164990D2*
Y11664990D1*
X1015073Y9164990D2*
X1865073D1*
X5094913Y11665013D2*
Y9165013D1*
X5944913D2*
X5094913D1*
Y11665013D2*
Y9165013D1*
X5944913Y11665013D2*
X5094913D1*
X2692500Y17281667D2*
D26*
Y16602500D1*
X2567500D1*
Y16402500D1*
X1992500D1*
Y16602500D1*
X1867500D1*
Y17277500D1*
X3192500Y11890000D2*
D24*
G02X3192500Y11890000I287500J0D01*
G01*
Y7390000D2*
G02X3192500Y7390000I287500J0D01*
G01*
G36*
X4855210Y15779790D2*
X5030210D1*
Y15629790D1*
X4855210D1*
Y15779790D1*
G37*
G36*
Y15579790D2*
X5030210D1*
Y15429790D1*
X4855210D1*
Y15579790D1*
G37*
X1130000Y16602500D2*
D17*
Y16527500D1*
X1192500D2*
X1067500D1*
X1042500Y16477500D1*
X1130000Y16527500D2*
X1105000Y16477500D1*
X1192500Y16527500D2*
X1167500Y16477500D1*
X5817500Y16602500D2*
Y16527500D1*
X5880000D2*
X5755000D1*
X5730000Y16477500D1*
X5817500Y16527500D2*
X5792500Y16477500D1*
X5880000Y16527500D2*
X5855000Y16477500D1*
X5217500Y11415000D2*
X5180000D1*
Y11352500D2*
Y11477500D1*
X5130000Y11502500D1*
X5180000Y11415000D2*
X5130000Y11440000D1*
X5180000Y11352500D2*
X5130000Y11377500D1*
G36*
X1451333Y11801159D2*
X1453333Y11802159D1*
X1455333D1*
X1459333Y11800159D1*
X1463333Y11796159D1*
Y11794159D1*
X1464333Y11791159D1*
X1465333Y11787159D1*
X1469333Y11775159D1*
X1470333Y11771159D1*
X1473333Y11762159D1*
X1474333Y11758159D1*
X1478333Y11746159D1*
X1479333Y11742159D1*
X1483333Y11730159D1*
X1484333Y11726159D1*
X1486333Y11720159D1*
X1487333Y11719159D1*
Y11714159D1*
X1486333Y11713159D1*
Y11712159D1*
X1483333Y11709159D1*
X1481333Y11708159D1*
X1569333D1*
Y11848159D1*
X1013333D1*
Y11801159D1*
X1102333D1*
X1117000Y11802159D1*
X1131667D1*
X1146333Y11801159D1*
X1167333D1*
X1169333Y11802159D1*
X1171333D1*
X1175333Y11800159D1*
X1179333Y11796159D1*
Y11795159D1*
X1182333Y11789159D1*
X1184333Y11786159D1*
X1190333Y11774159D1*
X1192333Y11771159D1*
X1198333Y11759159D1*
X1200333Y11756159D1*
X1202333Y11752159D1*
X1203333Y11796159D1*
Y11797159D1*
X1206333Y11800159D1*
X1210333Y11802159D1*
X1212333D1*
X1216333Y11800159D1*
X1219333Y11797159D1*
Y11796159D1*
X1220333Y11795159D1*
Y11714159D1*
X1219333Y11713159D1*
Y11712159D1*
X1216333Y11709159D1*
X1212333Y11707159D1*
X1210333D1*
X1206333Y11709159D1*
X1202333Y11713159D1*
Y11714159D1*
X1199333Y11720159D1*
X1197333Y11723159D1*
X1191333Y11735159D1*
X1189333Y11738159D1*
X1183333Y11750159D1*
X1181333Y11753159D1*
X1179333Y11757159D1*
X1178333Y11713159D1*
Y11712159D1*
X1175333Y11709159D1*
X1171333Y11707159D1*
X1169333D1*
X1165333Y11709159D1*
X1162333Y11712159D1*
Y11713159D1*
X1161333Y11714159D1*
Y11795159D1*
X1162333Y11796159D1*
Y11797159D1*
X1165333Y11800159D1*
X1167333Y11801159D1*
X1146333D1*
X1148333Y11800159D1*
X1151333Y11797159D1*
Y11796159D1*
X1152333Y11795159D1*
Y11791159D1*
X1151333Y11790159D1*
Y11789159D1*
X1148333Y11786159D1*
X1146333Y11785159D1*
X1114333Y11784159D1*
Y11765159D1*
X1132333Y11764159D1*
X1134333Y11763159D1*
X1137333Y11760159D1*
Y11759159D1*
X1138333Y11758159D1*
Y11754159D1*
X1137333Y11753159D1*
Y11752159D1*
X1134333Y11749159D1*
X1132333Y11748159D1*
X1114333Y11747159D1*
Y11725159D1*
X1146333Y11724159D1*
X1148333Y11723159D1*
X1151333Y11720159D1*
Y11719159D1*
X1152333Y11718159D1*
Y11714159D1*
X1151333Y11713159D1*
Y11712159D1*
X1148333Y11709159D1*
X1146333Y11708159D1*
X1131667Y11707159D1*
X1117000D1*
X1102333Y11708159D1*
X1100333Y11709159D1*
X1097333Y11712159D1*
Y11713159D1*
X1096333Y11714159D1*
Y11795159D1*
X1097333Y11796159D1*
Y11797159D1*
X1100333Y11800159D1*
X1102333Y11801159D1*
X1013333D1*
Y11707159D1*
X1341333D1*
X1342333Y11708159D1*
X1325333D1*
X1323333Y11707159D1*
X1321333D1*
X1317333Y11709159D1*
X1314333Y11712159D1*
Y11713159D1*
X1313333Y11771159D1*
X1312333Y11770159D1*
X1310000Y11769159D1*
X1307667D1*
X1305333Y11770159D1*
X1303333Y11771159D1*
X1300333Y11774159D1*
Y11775159D1*
X1299333Y11776159D1*
Y11780159D1*
X1300333Y11781159D1*
Y11782159D1*
X1305333Y11787159D1*
X1307333Y11788159D1*
X1311333Y11792159D1*
X1315333Y11797159D1*
Y11798159D1*
X1321333Y11801159D1*
X1323333D1*
X1327333Y11799159D1*
X1330333Y11796159D1*
Y11795159D1*
X1331333Y11794159D1*
Y11714159D1*
X1330333Y11713159D1*
Y11712159D1*
X1327333Y11709159D1*
X1325333Y11708159D1*
X1342333D1*
X1344333Y11710159D1*
X1346333Y11711159D1*
X1366667Y11712159D1*
X1387000D1*
X1407333Y11711159D1*
X1409333Y11710159D1*
X1412333Y11707159D1*
Y11706159D1*
X1413333Y11705159D1*
Y11701159D1*
X1412333Y11700159D1*
Y11699159D1*
X1409333Y11696159D1*
X1407333Y11695159D1*
X1387000Y11694159D1*
X1366667D1*
X1346333Y11695159D1*
X1344333Y11696159D1*
X1341333Y11699159D1*
Y11700159D1*
X1340333Y11701159D1*
Y11705159D1*
X1341333Y11706159D1*
Y11707159D1*
X1013333D1*
Y11663159D1*
X1569333D1*
Y11708159D1*
X1481333D1*
X1479333Y11707159D1*
X1477333D1*
X1473333Y11709159D1*
X1469333Y11713159D1*
Y11715159D1*
X1468333Y11718159D1*
X1467333Y11722159D1*
X1464333Y11731159D1*
X1463333Y11733159D1*
X1446333D1*
X1445333Y11732159D1*
X1444333Y11729159D1*
X1443333Y11725159D1*
X1441333Y11719159D1*
X1440333Y11715159D1*
Y11713159D1*
X1436333Y11709159D1*
X1432333Y11707159D1*
X1430333D1*
X1426333Y11709159D1*
X1423333Y11712159D1*
Y11713159D1*
X1422333Y11714159D1*
Y11719159D1*
X1423333Y11720159D1*
X1424333Y11723159D1*
X1425333Y11727159D1*
X1427333Y11733159D1*
X1428333Y11737159D1*
X1430333Y11743159D1*
X1431333Y11747159D1*
X1433333Y11753159D1*
X1434333Y11757159D1*
X1435333Y11760159D1*
X1436333Y11764159D1*
X1438333Y11770159D1*
X1439333Y11774159D1*
X1441333Y11780159D1*
X1442333Y11784159D1*
X1444333Y11790159D1*
X1445333Y11794159D1*
Y11796159D1*
X1449333Y11800159D1*
X1451333Y11801159D1*
X1269333D1*
X1275333Y11797159D1*
X1277333Y11796159D1*
X1284333Y11789159D1*
Y11788159D1*
X1287333Y11783159D1*
X1288333Y11781159D1*
X1289333Y11778159D1*
X1290333Y11777159D1*
Y11772159D1*
X1289333Y11771159D1*
Y11770159D1*
X1286333Y11767159D1*
X1282333Y11765159D1*
X1280333D1*
X1276333Y11767159D1*
X1272333Y11771159D1*
Y11773159D1*
X1271333Y11775159D1*
X1270333Y11778159D1*
X1264333Y11784159D1*
X1257333D1*
X1251333Y11778159D1*
X1250333Y11775159D1*
X1249333Y11773159D1*
X1248333Y11770159D1*
X1247333Y11766159D1*
X1246333Y11763159D1*
Y11745159D1*
X1247333Y11742159D1*
X1248333Y11738159D1*
X1249333Y11736159D1*
X1250333Y11733159D1*
X1251333Y11731159D1*
X1255333Y11726159D1*
X1257333Y11725159D1*
X1263333D1*
X1265333Y11726159D1*
X1270333Y11731159D1*
X1271333Y11733159D1*
X1272333Y11736159D1*
Y11737159D1*
X1276333Y11741159D1*
X1280333Y11743159D1*
X1282333D1*
X1286333Y11741159D1*
X1289333Y11738159D1*
Y11737159D1*
X1290333Y11736159D1*
Y11731159D1*
X1289333Y11730159D1*
X1288333Y11728159D1*
X1287333Y11725159D1*
X1284333Y11721159D1*
Y11720159D1*
X1276333Y11712159D1*
X1274333Y11711159D1*
X1271333Y11709159D1*
X1270333Y11708159D1*
X1264333Y11707159D1*
X1258333D1*
X1252333Y11708159D1*
X1248333Y11710159D1*
X1247333Y11711159D1*
X1244333Y11713159D1*
X1236333Y11721159D1*
Y11722159D1*
X1234333Y11725159D1*
X1233333Y11728159D1*
X1232333Y11730159D1*
X1231333Y11734159D1*
X1230333Y11737159D1*
X1229333Y11741159D1*
X1228333Y11742159D1*
Y11766159D1*
X1229333Y11767159D1*
X1230333Y11771159D1*
X1231333Y11774159D1*
X1232333Y11778159D1*
X1233333Y11781159D1*
X1236333Y11787159D1*
X1242333Y11794159D1*
X1246333Y11798159D1*
X1248333Y11799159D1*
X1249333Y11800159D1*
X1251333Y11801159D1*
X1257333Y11802159D1*
X1263333D1*
X1269333Y11801159D1*
X1451333D1*
G37*
G36*
X1454333Y11762159D2*
Y11760159D1*
X1453333Y11759159D1*
X1452333Y11756159D1*
X1451333Y11752159D1*
Y11751159D1*
X1457333D1*
Y11754159D1*
X1455333Y11760159D1*
X1454147Y11761284D1*
X1454333Y11762159D1*
G37*
G36*
X5827778Y11801129D2*
X5829778Y11802129D1*
X5831778D1*
X5835778Y11800129D1*
X5839778Y11796129D1*
Y11794129D1*
X5840778Y11791129D1*
X5841778Y11787129D1*
X5845778Y11775129D1*
X5846778Y11771129D1*
X5849778Y11762129D1*
X5850778Y11758129D1*
X5854778Y11746129D1*
X5855778Y11742129D1*
X5859778Y11730129D1*
X5860778Y11726129D1*
X5862778Y11720129D1*
X5863778Y11719129D1*
Y11714129D1*
X5862778Y11713129D1*
Y11712129D1*
X5859778Y11709129D1*
X5857778Y11708129D1*
X5945778D1*
Y11848129D1*
X5363778D1*
Y11801129D1*
X5452778D1*
X5467445Y11802129D1*
X5482111D1*
X5496778Y11801129D1*
X5517778D1*
X5519778Y11802129D1*
X5521778D1*
X5525778Y11800129D1*
X5529778Y11796129D1*
Y11795129D1*
X5532778Y11789129D1*
X5534778Y11786129D1*
X5540778Y11774129D1*
X5542778Y11771129D1*
X5548778Y11759129D1*
X5550778Y11756129D1*
X5552778Y11752129D1*
X5553778Y11796129D1*
Y11797129D1*
X5556778Y11800129D1*
X5560778Y11802129D1*
X5562778D1*
X5566778Y11800129D1*
X5569778Y11797129D1*
Y11796129D1*
X5570778Y11795129D1*
Y11714129D1*
X5569778Y11713129D1*
Y11712129D1*
X5566778Y11709129D1*
X5562778Y11707129D1*
X5560778D1*
X5556778Y11709129D1*
X5552778Y11713129D1*
Y11714129D1*
X5549778Y11720129D1*
X5547778Y11723129D1*
X5541778Y11735129D1*
X5539778Y11738129D1*
X5533778Y11750129D1*
X5531778Y11753129D1*
X5529778Y11757129D1*
X5528778Y11713129D1*
Y11712129D1*
X5525778Y11709129D1*
X5521778Y11707129D1*
X5519778D1*
X5515778Y11709129D1*
X5512778Y11712129D1*
Y11713129D1*
X5511778Y11714129D1*
Y11795129D1*
X5512778Y11796129D1*
Y11797129D1*
X5515778Y11800129D1*
X5517778Y11801129D1*
X5496778D1*
X5498778Y11800129D1*
X5501778Y11797129D1*
Y11796129D1*
X5502778Y11795129D1*
Y11791129D1*
X5501778Y11790129D1*
Y11789129D1*
X5498778Y11786129D1*
X5496778Y11785129D1*
X5464778Y11784129D1*
Y11765129D1*
X5481778Y11764129D1*
X5483778Y11763129D1*
X5486778Y11760129D1*
Y11759129D1*
X5487778Y11758129D1*
Y11754129D1*
X5486778Y11753129D1*
Y11752129D1*
X5483778Y11749129D1*
X5481778Y11748129D1*
X5464778Y11747129D1*
Y11725129D1*
X5496778Y11724129D1*
X5498778Y11723129D1*
X5501778Y11720129D1*
Y11719129D1*
X5502778Y11718129D1*
Y11714129D1*
X5501778Y11713129D1*
Y11712129D1*
X5498778Y11709129D1*
X5496778Y11708129D1*
X5482111Y11707129D1*
X5467445D1*
X5452778Y11708129D1*
X5450778Y11709129D1*
X5447778Y11712129D1*
Y11713129D1*
X5446778Y11714129D1*
Y11795129D1*
X5447778Y11796129D1*
Y11797129D1*
X5450778Y11800129D1*
X5452778Y11801129D1*
X5363778D1*
Y11707129D1*
X5717778D1*
X5718778Y11708129D1*
X5701778D1*
X5686445Y11707129D1*
X5671111D1*
X5655778Y11708129D1*
X5653778Y11709129D1*
X5650778Y11712129D1*
Y11713129D1*
X5649778Y11714129D1*
Y11718129D1*
X5650778Y11719129D1*
X5651778Y11721129D1*
X5656778Y11727129D1*
X5676778Y11752129D1*
X5679778Y11756129D1*
X5681778Y11760129D1*
X5683778Y11763129D1*
X5685778Y11767129D1*
X5686778Y11770129D1*
X5687778Y11772129D1*
Y11776129D1*
X5686778Y11779129D1*
X5685778Y11781129D1*
X5684778Y11782129D1*
X5682778Y11783129D1*
X5674778D1*
X5672778Y11782129D1*
X5671778Y11781129D1*
X5670778Y11778129D1*
X5669778Y11771129D1*
Y11770129D1*
X5666778Y11767129D1*
X5662778Y11765129D1*
X5660778D1*
X5656778Y11767129D1*
X5653778Y11770129D1*
Y11771129D1*
X5652778Y11772129D1*
Y11781129D1*
X5653778Y11782129D1*
X5654778Y11786129D1*
X5656778Y11790129D1*
X5659778Y11794129D1*
X5662778Y11797129D1*
X5668778Y11800129D1*
X5675445Y11801129D1*
X5682111D1*
X5688778Y11800129D1*
X5694778Y11797129D1*
X5699778Y11792129D1*
Y11791129D1*
X5702778Y11787129D1*
X5703778Y11784129D1*
X5704778Y11782129D1*
X5705778Y11781129D1*
Y11768129D1*
X5704778Y11767129D1*
X5703778Y11764129D1*
X5702778Y11762129D1*
X5701778Y11759129D1*
X5700778Y11757129D1*
X5698778Y11754129D1*
X5696778Y11750129D1*
X5693778Y11746129D1*
X5677778Y11726129D1*
Y11725129D1*
X5701778Y11724129D1*
X5703778Y11723129D1*
X5706778Y11720129D1*
Y11719129D1*
X5707778Y11718129D1*
Y11714129D1*
X5706778Y11713129D1*
Y11712129D1*
X5703778Y11709129D1*
X5701778Y11708129D1*
X5718778D1*
X5720778Y11710129D1*
X5722778Y11711129D1*
X5743111Y11712129D1*
X5763445D1*
X5783778Y11711129D1*
X5785778Y11710129D1*
X5788778Y11707129D1*
Y11706129D1*
X5789778Y11705129D1*
Y11701129D1*
X5788778Y11700129D1*
Y11699129D1*
X5785778Y11696129D1*
X5783778Y11695129D1*
X5763445Y11694129D1*
X5743111D1*
X5722778Y11695129D1*
X5720778Y11696129D1*
X5717778Y11699129D1*
Y11700129D1*
X5716778Y11701129D1*
Y11705129D1*
X5717778Y11706129D1*
Y11707129D1*
X5363778D1*
Y11663129D1*
X5945778D1*
Y11708129D1*
X5857778D1*
X5855778Y11707129D1*
X5853778D1*
X5849778Y11709129D1*
X5845778Y11713129D1*
Y11715129D1*
X5844778Y11718129D1*
X5843778Y11722129D1*
X5840778Y11731129D1*
X5839778Y11733129D1*
X5822778D1*
X5821778Y11732129D1*
X5820778Y11729129D1*
X5819778Y11725129D1*
X5817778Y11719129D1*
X5816778Y11715129D1*
Y11713129D1*
X5812778Y11709129D1*
X5808778Y11707129D1*
X5806778D1*
X5802778Y11709129D1*
X5799778Y11712129D1*
Y11713129D1*
X5798778Y11714129D1*
Y11719129D1*
X5799778Y11720129D1*
X5800778Y11723129D1*
X5801778Y11727129D1*
X5803778Y11733129D1*
X5804778Y11737129D1*
X5806778Y11743129D1*
X5807778Y11747129D1*
X5809778Y11753129D1*
X5810778Y11757129D1*
X5811778Y11760129D1*
X5812778Y11764129D1*
X5814778Y11770129D1*
X5815778Y11774129D1*
X5817778Y11780129D1*
X5818778Y11784129D1*
X5820778Y11790129D1*
X5821778Y11794129D1*
Y11796129D1*
X5825778Y11800129D1*
X5827778Y11801129D1*
X5619778D1*
X5625778Y11797129D1*
X5627778Y11796129D1*
X5634778Y11789129D1*
Y11788129D1*
X5637778Y11783129D1*
X5638778Y11781129D1*
X5639778Y11778129D1*
X5640778Y11777129D1*
Y11772129D1*
X5639778Y11771129D1*
Y11770129D1*
X5636778Y11767129D1*
X5632778Y11765129D1*
X5630778D1*
X5626778Y11767129D1*
X5622778Y11771129D1*
Y11773129D1*
X5621778Y11775129D1*
X5620778Y11778129D1*
X5614778Y11784129D1*
X5607778D1*
X5601778Y11778129D1*
X5600778Y11775129D1*
X5599778Y11773129D1*
X5598778Y11770129D1*
X5597778Y11766129D1*
X5596778Y11763129D1*
Y11745129D1*
X5597778Y11742129D1*
X5598778Y11738129D1*
X5599778Y11736129D1*
X5600778Y11733129D1*
X5601778Y11731129D1*
X5605778Y11726129D1*
X5607778Y11725129D1*
X5613778D1*
X5615778Y11726129D1*
X5620778Y11731129D1*
X5621778Y11733129D1*
X5622778Y11736129D1*
Y11737129D1*
X5626778Y11741129D1*
X5630778Y11743129D1*
X5632778D1*
X5636778Y11741129D1*
X5639778Y11738129D1*
Y11737129D1*
X5640778Y11736129D1*
Y11731129D1*
X5639778Y11730129D1*
X5638778Y11728129D1*
X5637778Y11725129D1*
X5634778Y11721129D1*
Y11720129D1*
X5626778Y11712129D1*
X5624778Y11711129D1*
X5621778Y11709129D1*
X5620778Y11708129D1*
X5614778Y11707129D1*
X5608778D1*
X5602778Y11708129D1*
X5598778Y11710129D1*
X5597778Y11711129D1*
X5594778Y11713129D1*
X5586778Y11721129D1*
Y11722129D1*
X5584778Y11725129D1*
X5583778Y11728129D1*
X5582778Y11730129D1*
X5581778Y11734129D1*
X5580778Y11737129D1*
X5579778Y11741129D1*
X5578778Y11742129D1*
Y11766129D1*
X5579778Y11767129D1*
X5580778Y11771129D1*
X5581778Y11774129D1*
X5582778Y11778129D1*
X5583778Y11781129D1*
X5586778Y11787129D1*
X5592778Y11794129D1*
X5596778Y11798129D1*
X5598778Y11799129D1*
X5599778Y11800129D1*
X5601778Y11801129D1*
X5607778Y11802129D1*
X5613778D1*
X5619778Y11801129D1*
X5827778D1*
G37*
G36*
X5830778Y11762129D2*
Y11760129D1*
X5829778Y11759129D1*
X5828778Y11756129D1*
X5827778Y11752129D1*
Y11751129D1*
X5833778D1*
Y11754129D1*
X5831778Y11760129D1*
X5830592Y11761254D1*
X5830778Y11762129D1*
G37*
G36*
X4411143Y15203667D2*
X4410143Y15201667D1*
X4409143Y15200667D1*
X4408143Y15198667D1*
X4399143Y15189667D1*
X4398143D1*
X4393143Y15186667D1*
X4391143Y15185667D1*
X4388143Y15184667D1*
X4384143Y15183667D1*
X4381143Y15182667D1*
X4377143Y15181667D1*
X4376143Y15180667D1*
X4352143D1*
X4351143Y15181667D1*
X4347143Y15182667D1*
X4344143Y15183667D1*
X4340143Y15184667D1*
X4338143Y15185667D1*
X4335143Y15186667D1*
X4331143Y15189667D1*
X4330143D1*
X4321143Y15198667D1*
X4320143Y15200667D1*
X4319143Y15201667D1*
X4318143Y15203667D1*
X4317143Y15209667D1*
Y15215667D1*
X4318143Y15221667D1*
X4320143Y15225667D1*
X4321143Y15226667D1*
X4323143Y15229667D1*
X4331143Y15237667D1*
X4332143D1*
X4335143Y15239667D1*
X4338143Y15240667D1*
X4340143Y15241667D1*
X4344143Y15242667D1*
X4347143Y15243667D1*
X4351143Y15244667D1*
X4352143Y15245667D1*
X4376143D1*
X4377143Y15244667D1*
X4381143Y15243667D1*
X4384143Y15242667D1*
X4388143Y15241667D1*
X4391143Y15240667D1*
X4397143Y15237667D1*
X4404143Y15231667D1*
X4408143Y15227667D1*
X4409143Y15225667D1*
X4411143Y15222667D1*
Y15259667D1*
X4410143Y15257667D1*
X4407143Y15254667D1*
X4406143D1*
X4405143Y15253667D1*
X4324143D1*
X4323143Y15254667D1*
X4322143D1*
X4319143Y15257667D1*
X4317143Y15261667D1*
Y15263667D1*
X4319143Y15267667D1*
X4322143Y15270667D1*
X4323143D1*
X4344143Y15271667D1*
X4332143Y15275667D1*
X4328143Y15276667D1*
X4325143Y15277667D1*
X4323143D1*
X4319143Y15281667D1*
X4317143Y15285667D1*
Y15287667D1*
X4319143Y15291667D1*
X4323143Y15295667D1*
X4325143D1*
X4329143Y15296667D1*
X4335143Y15298667D1*
X4339143Y15299667D1*
X4342143Y15300667D1*
X4323143Y15301667D1*
X4322143D1*
X4319143Y15304667D1*
X4317143Y15308667D1*
Y15310667D1*
X4319143Y15314667D1*
X4322143Y15317667D1*
X4323143D1*
X4324143Y15318667D1*
X4405143D1*
X4406143Y15317667D1*
X4407143D1*
X4410143Y15314667D1*
X4411143Y15312667D1*
Y15401667D1*
X4273143D1*
Y14755667D1*
X4318143D1*
Y14843667D1*
X4317143Y14859333D1*
Y14875000D1*
X4318143Y14890667D1*
X4319143Y14892667D1*
X4322143Y14895667D1*
X4323143D1*
X4324143Y14896667D1*
X4328143D1*
X4329143Y14895667D1*
X4331143Y14894667D1*
X4337143Y14889667D1*
X4362143Y14869667D1*
X4366143Y14866667D1*
X4370143Y14864667D1*
X4373143Y14862667D1*
X4377143Y14860667D1*
X4380143Y14859667D1*
X4382143Y14858667D1*
X4386143D1*
X4389143Y14859667D1*
X4391143Y14860667D1*
X4392143Y14861667D1*
X4393143Y14863667D1*
Y14870667D1*
X4392143Y14872667D1*
X4391143Y14873667D1*
X4389143Y14874667D1*
X4386143Y14875667D1*
X4381143Y14876667D1*
X4380143D1*
X4377143Y14879667D1*
X4375143Y14883667D1*
Y14885667D1*
X4377143Y14889667D1*
X4380143Y14892667D1*
X4381143D1*
X4382143Y14893667D1*
X4391143D1*
X4392143Y14892667D1*
X4394143Y14891667D1*
X4397143Y14890667D1*
X4400143Y14888667D1*
X4404143Y14885667D1*
X4407143Y14882667D1*
X4410143Y14876667D1*
X4411143Y14870333D1*
Y14864000D1*
X4410143Y14857667D1*
X4407143Y14851667D1*
X4402143Y14846667D1*
X4401143D1*
X4397143Y14843667D1*
X4394143Y14842667D1*
X4392143Y14841667D1*
X4391143Y14840667D1*
X4378143D1*
X4377143Y14841667D1*
X4374143Y14842667D1*
X4372143Y14843667D1*
X4369143Y14844667D1*
X4367143Y14845667D1*
X4364143Y14847667D1*
X4360143Y14849667D1*
X4356143Y14852667D1*
X4336143Y14868667D1*
X4335143D1*
X4334143Y14843667D1*
X4333143Y14841667D1*
X4330143Y14838667D1*
X4329143D1*
X4328143Y14837667D1*
X4324143D1*
X4323143Y14838667D1*
X4322143D1*
X4319143Y14841667D1*
X4318143Y14843667D1*
Y14755667D1*
X4411143D1*
Y14991667D1*
X4407143Y14983667D1*
X4402143Y14978667D1*
X4401143D1*
X4397143Y14975667D1*
X4394143Y14974667D1*
X4392143Y14973667D1*
X4391143Y14972667D1*
X4378143D1*
X4377143Y14973667D1*
X4374143Y14974667D1*
X4372143Y14975667D1*
X4370143D1*
X4362143Y14983667D1*
X4360143Y14987667D1*
X4358143D1*
X4330143Y14973667D1*
X4329143Y14972667D1*
X4324143D1*
X4323143Y14973667D1*
X4322143D1*
X4319143Y14976667D1*
X4317143Y14980667D1*
Y14982667D1*
X4319143Y14986667D1*
X4323143Y14990667D1*
X4324143D1*
X4356143Y15006667D1*
X4357143Y15007667D1*
Y15013667D1*
X4323143Y15014667D1*
X4322143D1*
X4319143Y15017667D1*
X4317143Y15021667D1*
Y15023667D1*
X4318143Y15025667D1*
Y15062667D1*
X4317143Y15068667D1*
Y15074667D1*
X4318143Y15080667D1*
X4320143Y15084667D1*
X4321143Y15085667D1*
X4323143Y15088667D1*
X4331143Y15096667D1*
X4332143D1*
X4335143Y15098667D1*
X4338143Y15099667D1*
X4340143Y15100667D1*
X4344143Y15101667D1*
X4347143Y15102667D1*
X4351143Y15103667D1*
X4352143Y15104667D1*
X4376143D1*
X4377143Y15103667D1*
X4381143Y15102667D1*
X4384143Y15101667D1*
X4388143Y15100667D1*
X4391143Y15099667D1*
X4397143Y15096667D1*
X4404143Y15090667D1*
X4408143Y15086667D1*
X4409143Y15084667D1*
X4410143Y15083667D1*
X4411143Y15081667D1*
X4412143Y15075667D1*
Y15069667D1*
X4411143Y15063667D1*
X4410143Y15061667D1*
X4409143Y15060667D1*
X4407143Y15057667D1*
X4406143Y15055667D1*
X4399143Y15048667D1*
X4398143D1*
X4393143Y15045667D1*
X4391143Y15044667D1*
X4388143Y15043667D1*
X4384143Y15042667D1*
X4381143Y15041667D1*
X4377143Y15040667D1*
X4376143Y15039667D1*
X4352143D1*
X4351143Y15040667D1*
X4347143Y15041667D1*
X4344143Y15042667D1*
X4340143Y15043667D1*
X4338143Y15044667D1*
X4335143Y15045667D1*
X4331143Y15048667D1*
X4330143D1*
X4322143Y15056667D1*
X4321143Y15058667D1*
X4319143Y15061667D1*
X4318143Y15062667D1*
Y15025667D1*
X4319143Y15027667D1*
X4322143Y15030667D1*
X4323143D1*
X4324143Y15031667D1*
X4405143D1*
X4406143Y15030667D1*
X4407143D1*
X4410143Y15027667D1*
X4411143Y15025667D1*
X4412143Y15014333D1*
Y15003000D1*
X4411143Y14991667D1*
Y14755667D1*
X4458143D1*
Y15401667D1*
X4411143D1*
Y15312667D1*
X4412143Y15310667D1*
Y15308667D1*
X4410143Y15304667D1*
X4406143Y15300667D1*
X4404143D1*
X4400143Y15299667D1*
X4394143Y15297667D1*
X4390143Y15296667D1*
X4384143Y15294667D1*
X4380143Y15293667D1*
X4374143Y15291667D1*
X4370143Y15290667D1*
X4367143Y15289667D1*
X4363143Y15288667D1*
X4357143Y15286667D1*
X4359143Y15285667D1*
X4365143Y15283667D1*
X4369143Y15282667D1*
X4381143Y15278667D1*
X4385143Y15277667D1*
X4397143Y15273667D1*
X4401143Y15272667D1*
X4404143Y15271667D1*
X4406143D1*
X4410143Y15267667D1*
X4412143Y15263667D1*
Y15261667D1*
X4411143Y15259667D1*
Y15222667D1*
X4412143Y15216333D1*
Y15210000D1*
X4411143Y15203667D1*
Y15165667D1*
X4412143Y15150000D1*
Y15134333D1*
X4411143Y15118667D1*
X4410143Y15116667D1*
X4407143Y15113667D1*
X4406143D1*
X4405143Y15112667D1*
X4401143D1*
X4400143Y15113667D1*
X4399143D1*
X4396143Y15116667D1*
X4395143Y15118667D1*
X4394143Y15133667D1*
X4323143Y15134667D1*
X4322143D1*
X4319143Y15137667D1*
X4317143Y15141667D1*
Y15143667D1*
X4319143Y15147667D1*
X4322143Y15150667D1*
X4323143D1*
X4394143Y15151667D1*
X4395143Y15165667D1*
X4396143Y15167667D1*
X4399143Y15170667D1*
X4400143D1*
X4401143Y15171667D1*
X4405143D1*
X4406143Y15170667D1*
X4407143D1*
X4410143Y15167667D1*
X4411143Y15165667D1*
Y15203667D1*
G37*
G36*
X4394143Y15216667D2*
X4388143Y15222667D1*
X4385143Y15223667D1*
X4383143Y15224667D1*
X4380143Y15225667D1*
X4376143Y15226667D1*
X4373143Y15227667D1*
X4355143D1*
X4352143Y15226667D1*
X4348143Y15225667D1*
X4346143Y15224667D1*
X4343143Y15223667D1*
X4341143Y15222667D1*
X4336143Y15218667D1*
X4335143Y15216667D1*
Y15209667D1*
X4341143Y15203667D1*
X4343143Y15202667D1*
X4346143Y15201667D1*
X4348143Y15200667D1*
X4352143Y15199667D1*
X4355143Y15198667D1*
X4373143D1*
X4376143Y15199667D1*
X4380143Y15200667D1*
X4383143Y15201667D1*
X4385143Y15202667D1*
X4388143Y15203667D1*
X4394143Y15209667D1*
Y15216667D1*
G37*
G36*
Y15075667D2*
X4388143Y15081667D1*
X4385143Y15082667D1*
X4383143Y15083667D1*
X4380143Y15084667D1*
X4376143Y15085667D1*
X4373143Y15086667D1*
X4355143D1*
X4352143Y15085667D1*
X4348143Y15084667D1*
X4346143Y15083667D1*
X4343143Y15082667D1*
X4341143Y15081667D1*
X4336143Y15077667D1*
X4335143Y15075667D1*
Y15069667D1*
X4336143Y15067667D1*
X4341143Y15062667D1*
X4343143Y15061667D1*
X4346143Y15060667D1*
X4348143Y15059667D1*
X4352143Y15058667D1*
X4355143Y15057667D1*
X4373143D1*
X4376143Y15058667D1*
X4380143Y15059667D1*
X4383143Y15060667D1*
X4385143Y15061667D1*
X4388143Y15062667D1*
X4394143Y15068667D1*
Y15075667D1*
G37*
G36*
Y15013667D2*
X4375143D1*
Y14997667D1*
X4377143Y14993667D1*
X4378143Y14992667D1*
X4382143Y14990667D1*
X4386143D1*
X4389143Y14991667D1*
X4391143Y14992667D1*
X4392143Y14993667D1*
X4394143Y14997667D1*
Y15013667D1*
G37*
G36*
X2548857Y4081358D2*
X2549857Y4083358D1*
X2550857Y4084358D1*
X2551857Y4086358D1*
X2560857Y4095358D1*
X2561857D1*
X2566857Y4098358D1*
X2568857Y4099358D1*
X2571857Y4100358D1*
X2575857Y4101358D1*
X2578857Y4102358D1*
X2582857Y4103358D1*
X2583857Y4104358D1*
X2607857D1*
X2608857Y4103358D1*
X2612857Y4102358D1*
X2615857Y4101358D1*
X2619857Y4100358D1*
X2621857Y4099358D1*
X2624857Y4098358D1*
X2628857Y4095358D1*
X2629857D1*
X2638857Y4086358D1*
X2639857Y4084358D1*
X2640857Y4083358D1*
X2641857Y4081358D1*
X2642857Y4075358D1*
Y4069358D1*
X2641857Y4063358D1*
X2639857Y4059358D1*
X2638857Y4058358D1*
X2636857Y4055358D1*
X2628857Y4047358D1*
X2627857D1*
X2624857Y4045358D1*
X2621857Y4044358D1*
X2619857Y4043358D1*
X2615857Y4042358D1*
X2612857Y4041358D1*
X2608857Y4040358D1*
X2607857Y4039358D1*
X2583857D1*
X2582857Y4040358D1*
X2578857Y4041358D1*
X2575857Y4042358D1*
X2571857Y4043358D1*
X2568857Y4044358D1*
X2562857Y4047358D1*
X2555857Y4053358D1*
X2551857Y4057358D1*
X2550857Y4059358D1*
X2548857Y4062358D1*
Y4025358D1*
X2549857Y4027358D1*
X2552857Y4030358D1*
X2553857D1*
X2554857Y4031358D1*
X2635857D1*
X2636857Y4030358D1*
X2637857D1*
X2640857Y4027358D1*
X2642857Y4023358D1*
Y4021358D1*
X2640857Y4017358D1*
X2637857Y4014358D1*
X2636857D1*
X2617857Y4013358D1*
X2620857Y4012358D1*
X2624857Y4011358D1*
X2630857Y4009358D1*
X2634857Y4008358D1*
X2636857D1*
X2640857Y4004358D1*
X2642857Y4000358D1*
Y3998358D1*
X2640857Y3994358D1*
X2636857Y3990358D1*
X2634857D1*
X2631857Y3989358D1*
X2627857Y3988358D1*
X2615857Y3984358D1*
X2636857Y3983358D1*
X2637857D1*
X2640857Y3980358D1*
X2642857Y3976358D1*
Y3974358D1*
X2640857Y3970358D1*
X2637857Y3967358D1*
X2636857D1*
X2635857Y3966358D1*
X2554857D1*
X2553857Y3967358D1*
X2552857D1*
X2549857Y3970358D1*
X2548857Y3972358D1*
Y3883358D1*
X2686857D1*
Y4503358D1*
X2641857D1*
Y4415358D1*
X2642857Y4413358D1*
Y4411358D1*
X2640857Y4407358D1*
X2637857Y4404358D1*
X2636857D1*
X2578857Y4403358D1*
Y4402358D1*
X2579857Y4401358D1*
X2580857Y4399025D1*
Y4396691D1*
X2579857Y4394358D1*
X2578857Y4392358D1*
X2575857Y4389358D1*
X2574857D1*
X2573857Y4388358D1*
X2569857D1*
X2568857Y4389358D1*
X2567857D1*
X2562857Y4394358D1*
X2561857Y4396358D1*
X2552857Y4405358D1*
X2551857D1*
X2548857Y4411358D1*
Y4413358D1*
X2550857Y4417358D1*
X2553857Y4420358D1*
X2554857D1*
X2555857Y4421358D1*
X2635857D1*
X2636857Y4420358D1*
X2637857D1*
X2640857Y4417358D1*
X2641857Y4415358D1*
Y4503358D1*
X2548857D1*
Y4293358D1*
X2550857Y4297358D1*
X2551857Y4300358D1*
X2552857Y4302358D1*
X2557857Y4307358D1*
X2558857D1*
X2564857Y4310358D1*
X2567857Y4311358D1*
X2568857Y4312358D1*
X2581857D1*
X2582857Y4311358D1*
X2586857Y4310358D1*
X2589857D1*
X2597857Y4302358D1*
X2598857Y4300358D1*
X2599857Y4297358D1*
X2601857D1*
X2629857Y4311358D1*
X2630857Y4312358D1*
X2635857D1*
X2636857Y4311358D1*
X2637857D1*
X2640857Y4308358D1*
X2642857Y4304358D1*
Y4302358D1*
X2640857Y4298358D1*
X2636857Y4294358D1*
X2635857D1*
X2603857Y4278358D1*
X2602857Y4277358D1*
Y4272358D1*
X2636857Y4271358D1*
X2637857D1*
X2640857Y4268358D1*
X2642857Y4264358D1*
Y4262358D1*
X2641857Y4260358D1*
Y4222358D1*
X2642857Y4216358D1*
Y4210358D1*
X2641857Y4204358D1*
X2639857Y4200358D1*
X2638857Y4199358D1*
X2636857Y4196358D1*
X2628857Y4188358D1*
X2627857D1*
X2624857Y4186358D1*
X2621857Y4185358D1*
X2619857Y4184358D1*
X2615857Y4183358D1*
X2612857Y4182358D1*
X2608857Y4181358D1*
X2607857Y4180358D1*
X2583857D1*
X2582857Y4181358D1*
X2578857Y4182358D1*
X2575857Y4183358D1*
X2571857Y4184358D1*
X2568857Y4185358D1*
X2562857Y4188358D1*
X2555857Y4194358D1*
X2551857Y4198358D1*
X2550857Y4200358D1*
X2549857Y4201358D1*
X2548857Y4203358D1*
X2547857Y4209358D1*
Y4215358D1*
X2548857Y4221358D1*
X2549857Y4223358D1*
X2550857Y4224358D1*
X2552857Y4227358D1*
X2553857Y4229358D1*
X2560857Y4236358D1*
X2561857D1*
X2566857Y4239358D1*
X2568857Y4240358D1*
X2571857Y4241358D1*
X2575857Y4242358D1*
X2578857Y4243358D1*
X2582857Y4244358D1*
X2583857Y4245358D1*
X2607857D1*
X2608857Y4244358D1*
X2612857Y4243358D1*
X2615857Y4242358D1*
X2619857Y4241358D1*
X2621857Y4240358D1*
X2624857Y4239358D1*
X2628857Y4236358D1*
X2629857D1*
X2637857Y4228358D1*
X2638857Y4226358D1*
X2640857Y4223358D1*
X2641857Y4222358D1*
Y4260358D1*
X2640857Y4258358D1*
X2637857Y4255358D1*
X2636857D1*
X2635857Y4254358D1*
X2554857D1*
X2553857Y4255358D1*
X2552857D1*
X2549857Y4258358D1*
X2548857Y4260358D1*
X2547857Y4271358D1*
Y4282358D1*
X2548857Y4293358D1*
Y4503358D1*
X2501857D1*
Y3883358D1*
X2548857D1*
Y3972358D1*
X2547857Y3974358D1*
Y3976358D1*
X2549857Y3980358D1*
X2553857Y3984358D1*
X2555857D1*
X2558857Y3985358D1*
X2562857Y3986358D1*
X2574857Y3990358D1*
X2578857Y3991358D1*
X2587857Y3994358D1*
X2591857Y3995358D1*
X2600857Y3998358D1*
X2602857Y3999358D1*
X2596857Y4001358D1*
X2592857Y4002358D1*
X2589857Y4003358D1*
X2585857Y4004358D1*
X2579857Y4006358D1*
X2575857Y4007358D1*
X2569857Y4009358D1*
X2565857Y4010358D1*
X2559857Y4012358D1*
X2555857Y4013358D1*
X2553857D1*
X2549857Y4017358D1*
X2547857Y4021358D1*
Y4023358D1*
X2548857Y4025358D1*
Y4062358D1*
X2547857Y4068691D1*
Y4075025D1*
X2548857Y4081358D1*
Y4119358D1*
X2547857Y4135025D1*
Y4150691D1*
X2548857Y4166358D1*
X2549857Y4168358D1*
X2552857Y4171358D1*
X2553857D1*
X2554857Y4172358D1*
X2558857D1*
X2559857Y4171358D1*
X2560857D1*
X2563857Y4168358D1*
X2564857Y4166358D1*
X2565857Y4151358D1*
X2636857Y4150358D1*
X2637857D1*
X2640857Y4147358D1*
X2642857Y4143358D1*
Y4141358D1*
X2640857Y4137358D1*
X2637857Y4134358D1*
X2636857D1*
X2565857Y4133358D1*
X2564857Y4119358D1*
X2563857Y4117358D1*
X2560857Y4114358D1*
X2559857D1*
X2558857Y4113358D1*
X2554857D1*
X2553857Y4114358D1*
X2552857D1*
X2549857Y4117358D1*
X2548857Y4119358D1*
Y4081358D1*
G37*
G36*
X2565857Y4068358D2*
X2571857Y4062358D1*
X2574857Y4061358D1*
X2576857Y4060358D1*
X2579857Y4059358D1*
X2583857Y4058358D1*
X2586857Y4057358D1*
X2604857D1*
X2607857Y4058358D1*
X2611857Y4059358D1*
X2613857Y4060358D1*
X2616857Y4061358D1*
X2618857Y4062358D1*
X2623857Y4066358D1*
X2624857Y4068358D1*
Y4075358D1*
X2618857Y4081358D1*
X2616857Y4082358D1*
X2613857Y4083358D1*
X2611857Y4084358D1*
X2607857Y4085358D1*
X2604857Y4086358D1*
X2586857D1*
X2583857Y4085358D1*
X2579857Y4084358D1*
X2576857Y4083358D1*
X2574857Y4082358D1*
X2571857Y4081358D1*
X2565857Y4075358D1*
Y4068358D1*
G37*
G36*
Y4209358D2*
X2571857Y4203358D1*
X2574857Y4202358D1*
X2576857Y4201358D1*
X2579857Y4200358D1*
X2583857Y4199358D1*
X2586857Y4198358D1*
X2604857D1*
X2607857Y4199358D1*
X2611857Y4200358D1*
X2613857Y4201358D1*
X2616857Y4202358D1*
X2618857Y4203358D1*
X2623857Y4207358D1*
X2624857Y4209358D1*
Y4215358D1*
X2623857Y4217358D1*
X2618857Y4222358D1*
X2616857Y4223358D1*
X2613857Y4224358D1*
X2611857Y4225358D1*
X2607857Y4226358D1*
X2604857Y4227358D1*
X2586857D1*
X2583857Y4226358D1*
X2579857Y4225358D1*
X2576857Y4224358D1*
X2574857Y4223358D1*
X2571857Y4222358D1*
X2565857Y4216358D1*
Y4209358D1*
G37*
G36*
Y4272358D2*
X2584857D1*
Y4287358D1*
X2582857Y4292358D1*
X2581857Y4293358D1*
X2578857Y4294358D1*
X2572857D1*
X2568857Y4293358D1*
X2567857Y4292358D1*
X2565857Y4287358D1*
Y4272358D1*
G37*
G36*
X2710256Y1868798D2*
Y1692131D1*
X2703589Y1685465D1*
X2700256Y1678798D1*
Y1665465D1*
X2703589Y1658798D1*
X2713589Y1648798D1*
X2720256Y1645465D1*
X2733589D1*
X2740256Y1648798D1*
X2750256Y1658798D1*
X2753589Y1665465D1*
Y1678798D1*
X2750256Y1685465D1*
X2743589Y1692131D1*
Y1808798D1*
X2747151Y1811023D1*
X2750256Y1812131D1*
X2766922Y1795465D1*
Y1792131D1*
X2900256Y1645465D1*
X2903589Y1642131D1*
X2906922D1*
Y1858798D1*
X2913589Y1865465D1*
Y1885465D1*
X2906922Y1895465D1*
X2893589Y1902131D1*
X2880256D1*
X2873589Y1898798D1*
X2863589Y1888798D1*
X2860256Y1878798D1*
Y1872131D1*
X2863589Y1862131D1*
X2870256Y1855465D1*
Y1735465D1*
X2866721Y1731844D1*
X2864995Y1732386D1*
X2863589Y1735465D1*
X2850256Y1752131D1*
X2716922Y1898798D1*
X2710256Y1905465D1*
Y1868798D1*
X2720256D1*
X2723824Y1870788D1*
X2726659Y1870414D1*
X2729525Y1867553D1*
X2730256Y1865465D1*
X2760256Y1832131D1*
X2793589Y1795465D1*
X2823589Y1762131D1*
X2856922Y1725465D1*
X2880256Y1702131D1*
Y1865465D1*
X2876922Y1872131D1*
X2872969Y1875879D1*
X2873589Y1878798D1*
X2880256Y1885465D1*
X2885811Y1888798D1*
X2891367D1*
X2896922Y1885465D1*
X2900256Y1882131D1*
Y1872131D1*
X2893589Y1865465D1*
Y1675465D1*
X2890055Y1671844D1*
X2888337Y1672379D1*
X2886196Y1676049D1*
X2886922Y1678798D1*
X2856922Y1712131D1*
X2823589Y1748798D1*
X2793589Y1782131D1*
X2760256Y1818798D1*
X2733589Y1845465D1*
Y1682131D1*
X2740256Y1675465D1*
Y1668798D1*
X2733589Y1662131D1*
X2729145Y1658798D1*
X2724700D1*
X2720256Y1662131D1*
X2713589Y1668798D1*
Y1675465D1*
X2720256Y1682131D1*
Y1868798D1*
X2710256D1*
G37*
G36*
X2463589Y1885465D2*
Y1865465D1*
X2466922Y1858798D1*
X2470256Y1855465D1*
Y1688798D1*
X2463589Y1682131D1*
Y1662131D1*
X2466922Y1655465D1*
X2473589Y1648798D1*
X2480256Y1645465D1*
X2496922D1*
X2503589Y1648798D1*
X2513589Y1658798D1*
X2516922Y1672131D1*
X2513589Y1682131D1*
X2510256Y1688798D1*
X2506922Y1692131D1*
Y1752131D1*
X2603589Y1755465D1*
X2616922Y1758798D1*
X2630256Y1765465D1*
X2640256Y1772131D1*
X2646922Y1778798D1*
X2653589Y1788798D1*
X2656922Y1795465D1*
X2660256Y1805465D1*
Y1842131D1*
X2656922Y1852131D1*
X2653589Y1858798D1*
X2643589Y1872131D1*
X2630256Y1882131D1*
X2616922Y1888798D1*
X2603589Y1892131D1*
X2506922Y1895465D1*
X2500256Y1898798D1*
X2496922Y1902131D1*
X2480256D1*
X2473589Y1898798D1*
X2466922Y1892131D1*
X2463589Y1885465D1*
X2480256D1*
X2485811Y1888798D1*
X2491367D1*
X2496922Y1885465D1*
X2500256Y1882131D1*
X2606922Y1878798D1*
X2616922Y1875465D1*
X2623589Y1872131D1*
X2640256Y1855465D1*
Y1852131D1*
X2643589Y1845465D1*
X2646922Y1835465D1*
X2650256Y1832131D1*
Y1815465D1*
X2646922Y1812131D1*
X2643589Y1798798D1*
Y1795465D1*
X2623589Y1775465D1*
X2616922Y1772131D1*
X2606922Y1768798D1*
X2496922Y1765465D1*
Y1678798D1*
X2500256Y1675465D1*
Y1665465D1*
X2496922Y1662131D1*
X2491367Y1658798D1*
X2485811D1*
X2480256Y1662131D1*
X2476922Y1665465D1*
Y1675465D1*
X2483589Y1682131D1*
Y1865465D1*
X2476922Y1872131D1*
Y1882131D1*
X2480256Y1885465D1*
X2463589D1*
G37*
G36*
X2976922D2*
Y1865465D1*
X2980256Y1858798D1*
X2983589Y1855465D1*
Y1688798D1*
X2976922Y1682131D1*
Y1662131D1*
X2980256Y1655465D1*
X2986922Y1648798D1*
X2993589Y1645465D1*
X3010256D1*
X3016922Y1648798D1*
X3026922Y1658798D1*
X3030256Y1672131D1*
X3026922Y1682131D1*
X3023589Y1688798D1*
X3020256Y1692131D1*
Y1752131D1*
X3116922Y1755465D1*
X3130256Y1758798D1*
X3143589Y1765465D1*
X3153589Y1772131D1*
X3160256Y1778798D1*
X3166922Y1788798D1*
X3170256Y1795465D1*
X3173589Y1805465D1*
Y1842131D1*
X3170256Y1852131D1*
X3166922Y1858798D1*
X3156922Y1872131D1*
X3143589Y1882131D1*
X3130256Y1888798D1*
X3116922Y1892131D1*
X3020256Y1895465D1*
X3013589Y1898798D1*
X3010256Y1902131D1*
X2993589D1*
X2986922Y1898798D1*
X2980256Y1892131D1*
X2976922Y1885465D1*
X2993589D1*
X2999145Y1888798D1*
X3004700D1*
X3010256Y1885465D1*
X3013589Y1882131D1*
X3120256Y1878798D1*
X3130256Y1875465D1*
X3136922Y1872131D1*
X3153589Y1855465D1*
Y1852131D1*
X3156922Y1845465D1*
X3160256Y1835465D1*
X3163589Y1832131D1*
Y1815465D1*
X3160256Y1812131D1*
X3156922Y1798798D1*
Y1795465D1*
X3136922Y1775465D1*
X3130256Y1772131D1*
X3120256Y1768798D1*
X3010256Y1765465D1*
Y1678798D1*
X3013589Y1675465D1*
Y1665465D1*
X3010256Y1662131D1*
X3004700Y1658798D1*
X2999145D1*
X2993589Y1662131D1*
X2990256Y1665465D1*
Y1675465D1*
X2996922Y1682131D1*
Y1865465D1*
X2990256Y1872131D1*
Y1882131D1*
X2993589Y1885465D1*
X2976922D1*
G37*
G36*
X2496922Y1858798D2*
Y1778798D1*
X2600256D1*
X2610256Y1782131D1*
X2616922Y1785465D1*
X2626922Y1795465D1*
X2633589Y1805465D1*
X2636922Y1815465D1*
Y1835465D1*
X2633589Y1845465D1*
X2626922Y1855465D1*
X2616922Y1865465D1*
X2610256Y1868798D1*
X2600256Y1872131D1*
X2500256D1*
X2496922Y1868798D1*
Y1858798D1*
X2506922D1*
X2538033Y1862131D1*
X2569145D1*
X2600256Y1858798D1*
X2613589Y1852131D1*
X2616274Y1847828D1*
X2616922Y1845465D1*
X2620256Y1838798D1*
X2623589Y1835465D1*
Y1812131D1*
X2616922Y1805465D1*
X2615827Y1801421D1*
X2613589Y1798798D1*
X2600256Y1792131D1*
X2569145Y1788798D1*
X2538033D1*
X2506922Y1792131D1*
Y1858798D1*
X2496922D1*
G37*
G36*
X3010256D2*
Y1778798D1*
X3113589D1*
X3123589Y1782131D1*
X3130256Y1785465D1*
X3140256Y1795465D1*
X3146922Y1805465D1*
X3150256Y1815465D1*
Y1835465D1*
X3146922Y1845465D1*
X3140256Y1855465D1*
X3130256Y1865465D1*
X3123589Y1868798D1*
X3113589Y1872131D1*
X3013589D1*
X3010256Y1868798D1*
Y1858798D1*
X3020256D1*
X3051367Y1862131D1*
X3082478D1*
X3113589Y1858798D1*
X3126922Y1852131D1*
X3129608Y1847828D1*
X3130256Y1845465D1*
X3133589Y1838798D1*
X3136922Y1835465D1*
Y1812131D1*
X3130256Y1805465D1*
X3129160Y1801421D1*
X3126922Y1798798D1*
X3113589Y1792131D1*
X3082478Y1788798D1*
X3051367D1*
X3020256Y1792131D1*
Y1858798D1*
X3010256D1*
G37*
G36*
X1973589Y2305465D2*
Y2002131D1*
X1963589Y1992131D1*
X1960256Y1985465D1*
Y1958798D1*
X1963589Y1952131D1*
X1976922Y1938798D1*
X1986922Y1935465D1*
X2006922D1*
X2020256Y1942131D1*
X2026922Y1948798D1*
X2033589Y1962131D1*
Y1985465D1*
X2026922Y1995465D1*
X2020256Y2002131D1*
Y2135465D1*
X2016922Y2138798D1*
Y2145465D1*
X2019412Y2147605D1*
X2021098Y2147326D1*
X2022995Y2144570D1*
X2023589Y2142131D1*
X2030256Y2128798D1*
X2043589Y2108798D1*
X2046922Y2102131D1*
X2073589Y2062131D1*
X2076922Y2055465D1*
X2096922Y2025465D1*
X2100256Y2018798D1*
X2126922Y1978798D1*
X2133589Y1985465D1*
X2136922Y1992131D1*
X2156922Y2022131D1*
X2160256Y2028798D1*
X2186922Y2068798D1*
X2190256Y2075465D1*
X2210256Y2105465D1*
X2213589Y2112131D1*
X2226922Y2132131D1*
X2230256Y2138798D1*
Y2145465D1*
X2232745Y2147605D1*
X2234473Y2147411D1*
X2236922Y2145465D1*
Y2132131D1*
X2233589Y2128798D1*
Y1998798D1*
X2223589Y1988798D1*
X2220256Y1982131D1*
Y1965465D1*
X2223589Y1955465D1*
X2230256Y1945465D1*
X2240256Y1938798D1*
X2246922Y1935465D1*
X2270256D1*
X2276922Y1938798D1*
X2293589Y1955465D1*
X2296922Y1965465D1*
Y1978798D1*
X2293589Y1988798D1*
X2281922Y2002131D1*
Y2302131D1*
X2278589D1*
Y2298798D1*
X2273589Y2292131D1*
X2266922Y2282131D1*
X2263589Y2275465D1*
X2250256Y2255465D1*
X2246922Y2248798D1*
X2233589Y2228798D1*
X2230256Y2222131D1*
X2210256Y2192131D1*
X2206922Y2185465D1*
X2193589Y2165465D1*
X2190256Y2158798D1*
X2176922Y2138798D1*
X2173589Y2132131D1*
X2160256Y2112131D1*
X2156922Y2105465D1*
X2143589Y2085465D1*
X2140256Y2078798D1*
X2133589Y2068798D1*
X2131908Y2065456D1*
X2129973Y2061975D1*
X2126717Y2058503D1*
X2125008Y2059044D1*
X2122862Y2062716D1*
X2123589Y2065465D1*
X2120256Y2072131D1*
X2100256Y2102131D1*
X2096922Y2108798D1*
X2083589Y2128798D1*
X2080256Y2135465D1*
X2066922Y2155465D1*
X2063589Y2162131D1*
X2050256Y2182131D1*
X2046922Y2188798D1*
X2026922Y2218798D1*
X2023589Y2225465D1*
X2010256Y2245465D1*
X2006922Y2252131D1*
X1993589Y2272131D1*
X1990256Y2278798D1*
X1976922Y2298798D1*
X1972969Y2302545D1*
X1973589Y2305465D1*
G37*
G36*
X2443589Y2185465D2*
X2442493Y2181421D1*
X2440256Y2178798D1*
X2436922Y2168798D1*
X2430256Y2155465D1*
X2426922Y2145465D1*
X2420256Y2132131D1*
X2416922Y2122131D1*
X2410256Y2108798D1*
X2406922Y2098798D1*
X2403589Y2092131D1*
X2400256Y2082131D1*
X2393589Y2068798D1*
X2390256Y2058798D1*
X2383589Y2045465D1*
X2380256Y2035465D1*
X2373589Y2022131D1*
Y2015465D1*
X2366922Y2008798D1*
X2360256Y2005465D1*
X2353589Y1998798D1*
X2346922Y1985465D1*
Y1958798D1*
X2350256Y1952131D1*
X2363589Y1938798D1*
X2373589Y1935465D1*
X2393589D1*
X2406922Y1942131D1*
X2413589Y1948798D1*
X2420256Y1962131D1*
X2423589Y1995465D1*
X2426922Y2002131D1*
X2430256Y2012131D1*
X2430904Y2014494D1*
X2433589Y2018798D1*
X2475811Y2022131D1*
X2518033D1*
X2560256Y2018798D1*
Y2012131D1*
X2568589Y1995465D1*
X2570005Y1991814D1*
X2570210Y1988751D1*
X2570256Y1985465D1*
Y1965465D1*
X2573589Y1955465D1*
X2580256Y1945465D1*
X2590256Y1938798D1*
X2600256Y1935465D1*
X2620256D1*
X2626922Y1938798D1*
X2636922Y1945465D1*
X2643589Y1955465D1*
X2646922Y1965465D1*
Y1978798D1*
X2643589Y1988798D1*
X2640256Y1995465D1*
X2630256Y2005465D1*
X2623589Y2008798D1*
X2619636Y2012545D1*
X2620256Y2015465D1*
X2616922Y2022131D1*
X2613589Y2032131D1*
X2606922Y2045465D1*
X2603589Y2055465D1*
X2596922Y2068798D1*
X2593589Y2078798D1*
X2586922Y2092131D1*
X2583589Y2102131D1*
X2580256Y2108798D1*
X2576922Y2118798D1*
X2570256Y2132131D1*
X2566922Y2142131D1*
X2560256Y2155465D1*
X2556922Y2165465D1*
X2550256Y2178798D1*
X2546922Y2188798D1*
X2540256Y2202131D1*
X2536922Y2212131D1*
X2533589Y2218798D1*
X2530256Y2228798D1*
X2523589Y2242131D1*
X2520256Y2252131D1*
X2513589Y2265465D1*
X2510256Y2275465D1*
X2503589Y2288798D1*
X2500256Y2298798D1*
X2496922Y2305465D1*
X2493589Y2302131D1*
X2490256Y2295465D1*
X2486922Y2285465D1*
X2480256Y2272131D1*
X2476922Y2262131D1*
X2470256Y2248798D1*
X2466922Y2238798D1*
X2460256Y2225465D1*
X2456922Y2215465D1*
X2450256Y2202131D1*
X2446922Y2192131D1*
X2443589Y2185465D1*
X2493589D1*
X2496078Y2187605D1*
X2497806Y2187411D1*
X2500256Y2185465D1*
Y2175465D1*
X2503589Y2165465D1*
X2506922Y2158798D1*
X2513589Y2138798D1*
X2516922Y2132131D1*
X2523589Y2112131D1*
X2526922Y2105465D1*
X2533589Y2085465D1*
X2536922Y2078798D1*
X2539608Y2074494D1*
X2540256Y2072131D1*
X2511367Y2068798D1*
X2482478D1*
X2453589Y2072131D1*
Y2078798D1*
X2456922Y2082131D1*
X2463589Y2102131D1*
X2466922Y2108798D1*
X2473589Y2128798D1*
X2476922Y2135465D1*
X2483589Y2155465D1*
X2486922Y2162131D1*
X2493589Y2182131D1*
Y2185465D1*
X2443589D1*
G37*
G36*
X2730256Y2298798D2*
X2720256Y2295465D1*
X2710256Y2288798D1*
X2706922Y2285465D1*
X2700256Y2275465D1*
Y2245465D1*
X2703589Y2238798D1*
X2710256Y2232131D1*
Y2002131D1*
X2706922Y1998798D1*
X2700256Y1988798D1*
Y1958798D1*
X2703589Y1952131D1*
X2713589Y1942131D1*
X2726922Y1935465D1*
X2746922D1*
X2753589Y1938798D1*
X2763589Y1945465D1*
X2770256Y1955465D1*
X2773589Y1962131D1*
Y1985465D1*
X2770256Y1992131D1*
X2760256Y2002131D1*
Y2095465D1*
X2763817Y2097690D1*
X2766922Y2098798D1*
X2780256Y2085465D1*
X2810256Y2058798D1*
X2863589Y2012131D1*
X2893589Y1985465D1*
X2900256Y1982131D1*
X2913589Y1968798D1*
Y1962131D1*
X2920256Y1948798D1*
X2926922Y1942131D1*
X2933589Y1938798D1*
X2943589Y1935465D1*
X2960256D1*
X2973589Y1942131D1*
X2983589Y1952131D1*
X2986922Y1958798D1*
Y1985465D1*
X2980256Y1998798D1*
X2973589Y2005465D1*
X2966922Y2008798D1*
X2956922Y2012131D1*
X2943589Y2015465D1*
X2936922Y2018798D1*
X2920256Y2035465D1*
X2873589Y2075465D1*
X2846922Y2098798D1*
X2823589Y2118798D1*
X2816922Y2122131D1*
X2810256Y2128798D1*
Y2132131D1*
X2816922Y2135465D1*
X2870256Y2175465D1*
X2880256Y2182131D1*
X2920256Y2212131D1*
X2960256Y2225465D1*
X2973589Y2238798D1*
X2976922Y2245465D1*
X2980256Y2258798D1*
Y2262131D1*
X2976922Y2275465D1*
X2970256Y2285465D1*
X2963589Y2292131D1*
X2956922Y2295465D1*
X2943589Y2298798D1*
X2936922D1*
X2926922Y2295465D1*
X2920256Y2292131D1*
X2906922Y2278798D1*
X2903589Y2268798D1*
X2890256Y2255465D1*
X2883589Y2252131D1*
X2803589Y2192131D1*
X2786922Y2178798D1*
X2773589Y2168798D1*
X2766922Y2162131D1*
X2762037Y2162470D1*
X2760256Y2165465D1*
Y2228798D1*
X2763589Y2232131D1*
X2770256Y2242131D1*
X2773589Y2248798D1*
Y2272131D1*
X2770256Y2278798D1*
X2756922Y2292131D1*
X2750256Y2295465D1*
X2740256Y2298798D1*
X2730256D1*
G37*
G36*
X3266922Y2295465D2*
X3260256Y2292131D1*
X3253589Y2285465D1*
X3043589Y2282131D1*
Y1952131D1*
X3253589Y1948798D1*
X3260256Y1942131D1*
X3266922Y1938798D1*
X3290256D1*
X3296922Y1942131D1*
X3310256Y1955465D1*
X3313589Y1962131D1*
X3316922Y1975465D1*
X3313589Y1988798D1*
X3310256Y1995465D1*
X3296922Y2008798D1*
X3290256Y2012131D1*
X3266922D1*
X3260256Y2008798D1*
X3253589Y2002131D1*
X3201367Y1998798D1*
X3149145D1*
X3096922Y2002131D1*
Y2092131D1*
X3136922Y2095465D1*
X3176922D1*
X3216922Y2092131D1*
X3223589Y2085465D1*
X3230256Y2082131D1*
X3253589D1*
X3260256Y2085465D1*
X3273589Y2098798D1*
X3276922Y2105465D1*
X3280256Y2115465D1*
Y2118798D1*
X3276922Y2132131D1*
X3273589Y2138798D1*
X3260256Y2152131D1*
X3253589Y2155465D1*
X3230256D1*
X3223589Y2152131D1*
X3216922Y2145465D1*
X3176922Y2142131D1*
X3136922D1*
X3096922Y2145465D1*
Y2232131D1*
X3149145Y2235465D1*
X3201367D1*
X3253589Y2232131D1*
X3260256Y2225465D1*
X3266922Y2222131D1*
X3290256D1*
X3296922Y2225465D1*
X3310256Y2238798D1*
X3313589Y2245465D1*
X3316922Y2258798D1*
X3313589Y2272131D1*
X3310256Y2278798D1*
X3296922Y2292131D1*
X3290256Y2295465D1*
X3266922D1*
G37*
G36*
X3400256Y2232131D2*
Y2002131D1*
X3396922Y1998798D1*
X3390256Y1988798D1*
X3386922Y1975465D1*
Y1968798D1*
X3390256Y1958798D1*
X3393589Y1952131D1*
X3406922Y1938798D1*
X3413589Y1935465D1*
X3436922D1*
X3450256Y1942131D1*
X3456922Y1948798D1*
X3463589Y1962131D1*
Y1982131D1*
X3456922Y1995465D1*
X3450256Y2002131D1*
Y2092131D1*
X3473589Y2095465D1*
X3496922D1*
X3520256Y2092131D1*
X3522941Y2087828D1*
X3523589Y2085465D1*
X3533589Y2072131D1*
X3540256Y2062131D1*
X3560256Y2035465D1*
X3566922Y2025465D1*
X3596922Y1985465D1*
X3600256Y1975465D1*
Y1968798D1*
X3603589Y1958798D1*
X3606922Y1952131D1*
X3620256Y1938798D1*
X3630256Y1935465D1*
X3650256D1*
X3656922Y1938798D1*
X3670256Y1952131D1*
X3673589Y1958798D1*
X3676922Y1968798D1*
Y1978798D1*
X3673589Y1988798D1*
X3670256Y1995465D1*
X3660256Y2005465D1*
X3653589Y2008798D1*
X3643589Y2012131D1*
X3633589Y2022131D1*
Y2025465D1*
X3623589Y2038798D1*
X3616922Y2048798D1*
X3596922Y2075465D1*
X3590256Y2085465D1*
X3583589Y2092131D1*
Y2095465D1*
X3603589Y2098798D1*
X3613589Y2102131D1*
X3633589Y2112131D1*
X3656922Y2135465D1*
X3666922Y2155465D1*
X3670256Y2165465D1*
Y2208798D1*
X3666922Y2222131D1*
X3660256Y2235465D1*
X3653589Y2245465D1*
X3633589Y2265465D1*
X3606922Y2278798D1*
X3593589Y2282131D1*
X3450256Y2285465D1*
X3443589Y2292131D1*
X3436922Y2295465D1*
X3413589D1*
X3406922Y2292131D1*
X3393589Y2278798D1*
X3390256Y2272131D1*
X3386922Y2262131D1*
Y2255465D1*
X3390256Y2245465D1*
X3393589Y2238798D1*
X3400256Y2232131D1*
X3450256D1*
X3495811Y2235465D1*
X3541367D1*
X3586922Y2232131D1*
X3600256Y2225465D1*
X3610256Y2215465D1*
Y2212131D1*
X3613589Y2205465D1*
X3616922Y2202131D1*
Y2175465D1*
X3613589Y2172131D1*
X3610256Y2165465D1*
Y2162131D1*
X3600256Y2152131D1*
X3593589Y2148798D1*
X3583589Y2145465D1*
X3539145Y2142131D1*
X3494700D1*
X3450256Y2145465D1*
Y2232131D1*
X3400256D1*
G37*
G36*
X5088143Y16805667D2*
X5089143Y16807667D1*
X5092143Y16810667D1*
X5093143D1*
X5094143Y16811667D1*
X5175143D1*
X5176143Y16810667D1*
X5177143D1*
X5180143Y16807667D1*
X5182143Y16803667D1*
Y16801667D1*
X5180143Y16797667D1*
X5176143Y16793667D1*
X5175143D1*
X5169143Y16790667D1*
X5166143Y16788667D1*
X5154143Y16782667D1*
X5151143Y16780667D1*
X5139143Y16774667D1*
X5136143Y16772667D1*
X5132143Y16770667D1*
X5176143Y16769667D1*
X5177143D1*
X5180143Y16766667D1*
X5182143Y16762667D1*
Y16760667D1*
X5180143Y16756667D1*
X5177143Y16753667D1*
X5176143D1*
X5175143Y16752667D1*
X5094143D1*
X5093143Y16753667D1*
X5092143D1*
X5089143Y16756667D1*
X5088143Y16758667D1*
Y16670667D1*
X5228143D1*
Y17281667D1*
X5181143D1*
Y17083667D1*
X5182143Y17081667D1*
Y17079667D1*
X5180143Y17075667D1*
X5176143Y17071667D1*
X5174143D1*
X5170143Y17070667D1*
X5164143Y17068667D1*
X5160143Y17067667D1*
X5154143Y17065667D1*
X5150143Y17064667D1*
X5144143Y17062667D1*
X5140143Y17061667D1*
X5137143Y17060667D1*
X5133143Y17059667D1*
X5127143Y17057667D1*
X5133143Y17055667D1*
X5137143Y17054667D1*
X5140143Y17053667D1*
X5144143Y17052667D1*
X5150143Y17050667D1*
X5154143Y17049667D1*
X5160143Y17047667D1*
X5164143Y17046667D1*
X5170143Y17044667D1*
X5174143Y17043667D1*
X5176143D1*
X5180143Y17039667D1*
X5182143Y17035667D1*
Y17033667D1*
X5181143Y17031667D1*
Y16943667D1*
X5182143Y16929000D1*
Y16914333D1*
X5181143Y16899667D1*
X5180143Y16897667D1*
X5177143Y16894667D1*
X5176143D1*
X5175143Y16893667D1*
X5171143D1*
X5170143Y16894667D1*
X5169143D1*
X5166143Y16897667D1*
X5165143Y16899667D1*
X5164143Y16931667D1*
X5145143D1*
X5144143Y16913667D1*
X5143143Y16911667D1*
X5140143Y16908667D1*
X5139143D1*
X5138143Y16907667D1*
X5134143D1*
X5133143Y16908667D1*
X5132143D1*
X5129143Y16911667D1*
X5128143Y16913667D1*
X5127143Y16931667D1*
X5093143Y16932667D1*
X5092143D1*
X5089143Y16935667D1*
X5087143Y16939667D1*
Y16941667D1*
X5089143Y16945667D1*
X5092143Y16948667D1*
X5093143D1*
X5094143Y16949667D1*
X5175143D1*
X5176143Y16948667D1*
X5177143D1*
X5180143Y16945667D1*
X5181143Y16943667D1*
Y17031667D1*
X5180143Y17029667D1*
X5177143Y17026667D1*
X5176143D1*
X5175143Y17025667D1*
X5170143D1*
X5169143Y17026667D1*
X5166143Y17027667D1*
X5162143Y17028667D1*
X5156143Y17030667D1*
X5152143Y17031667D1*
X5146143Y17033667D1*
X5142143Y17034667D1*
X5136143Y17036667D1*
X5132143Y17037667D1*
X5129143Y17038667D1*
X5125143Y17039667D1*
X5119143Y17041667D1*
X5115143Y17042667D1*
X5109143Y17044667D1*
X5105143Y17045667D1*
X5099143Y17047667D1*
X5095143Y17048667D1*
X5093143D1*
X5089143Y17052667D1*
X5087143Y17056667D1*
Y17058667D1*
X5088143Y17060667D1*
Y17104667D1*
X5087143Y17120333D1*
Y17136000D1*
X5088143Y17151667D1*
X5089143Y17153667D1*
X5092143Y17156667D1*
X5093143D1*
X5094143Y17157667D1*
X5098143D1*
X5099143Y17156667D1*
X5101143Y17155667D1*
X5107143Y17150667D1*
X5132143Y17130667D1*
X5136143Y17127667D1*
X5140143Y17125667D1*
X5143143Y17123667D1*
X5147143Y17121667D1*
X5150143Y17120667D1*
X5152143Y17119667D1*
X5156143D1*
X5159143Y17120667D1*
X5161143Y17121667D1*
X5163143Y17123667D1*
Y17131667D1*
X5162143Y17133667D1*
X5161143Y17134667D1*
X5159143Y17135667D1*
X5156143Y17136667D1*
X5151143Y17137667D1*
X5150143D1*
X5147143Y17140667D1*
X5145143Y17144667D1*
Y17146667D1*
X5147143Y17150667D1*
X5150143Y17153667D1*
X5151143D1*
X5152143Y17154667D1*
X5161143D1*
X5162143Y17153667D1*
X5164143Y17152667D1*
X5167143Y17151667D1*
X5170143Y17149667D1*
X5174143Y17146667D1*
X5177143Y17143667D1*
X5180143Y17137667D1*
X5181143Y17131000D1*
Y17124333D1*
X5180143Y17117667D1*
X5179143Y17115667D1*
X5178143Y17114667D1*
X5177143Y17112667D1*
X5172143Y17107667D1*
X5171143D1*
X5167143Y17104667D1*
X5164143Y17103667D1*
X5162143Y17102667D1*
X5161143Y17101667D1*
X5148143D1*
X5147143Y17102667D1*
X5144143Y17103667D1*
X5142143Y17104667D1*
X5139143Y17105667D1*
X5137143Y17106667D1*
X5134143Y17108667D1*
X5130143Y17110667D1*
X5126143Y17113667D1*
X5106143Y17129667D1*
X5105143D1*
X5104143Y17104667D1*
X5103143Y17102667D1*
X5100143Y17099667D1*
X5099143D1*
X5098143Y17098667D1*
X5094143D1*
X5093143Y17099667D1*
X5092143D1*
X5089143Y17102667D1*
X5088143Y17104667D1*
Y17060667D1*
X5089143Y17062667D1*
X5093143Y17066667D1*
X5095143D1*
X5099143Y17067667D1*
X5105143Y17069667D1*
X5109143Y17070667D1*
X5115143Y17072667D1*
X5119143Y17073667D1*
X5125143Y17075667D1*
X5129143Y17076667D1*
X5132143Y17077667D1*
X5136143Y17078667D1*
X5142143Y17080667D1*
X5146143Y17081667D1*
X5152143Y17083667D1*
X5156143Y17084667D1*
X5162143Y17086667D1*
X5166143Y17087667D1*
X5169143Y17088667D1*
X5170143Y17089667D1*
X5175143D1*
X5176143Y17088667D1*
X5177143D1*
X5180143Y17085667D1*
X5181143Y17083667D1*
Y17281667D1*
X5180143D1*
Y17177667D1*
X5181143Y17175667D1*
Y17173667D1*
X5179143Y17169667D1*
X5176143Y17166667D1*
X5175143D1*
X5174143Y17165667D1*
X5094143D1*
X5093143Y17166667D1*
X5092143D1*
X5089143Y17169667D1*
X5087143Y17173667D1*
Y17175667D1*
X5089143Y17179667D1*
X5092143Y17182667D1*
X5093143D1*
X5151143Y17183667D1*
Y17184667D1*
X5150143Y17185667D1*
X5149143Y17188000D1*
Y17190333D1*
X5150143Y17192667D1*
X5151143Y17194667D1*
X5154143Y17197667D1*
X5155143D1*
X5156143Y17198667D1*
X5160143D1*
X5161143Y17197667D1*
X5162143D1*
X5167143Y17192667D1*
X5168143Y17190667D1*
X5177143Y17181667D1*
X5180143Y17177667D1*
Y17281667D1*
X5043143D1*
Y16670667D1*
X5088143D1*
Y16758667D1*
X5087143Y16760667D1*
Y16762667D1*
X5089143Y16766667D1*
X5093143Y16770667D1*
X5094143D1*
X5100143Y16773667D1*
X5103143Y16775667D1*
X5115143Y16781667D1*
X5118143Y16783667D1*
X5130143Y16789667D1*
X5133143Y16791667D1*
X5137143Y16793667D1*
X5093143Y16794667D1*
X5092143D1*
X5089143Y16797667D1*
X5087143Y16801667D1*
Y16803667D1*
X5088143Y16805667D1*
Y16826667D1*
X5087143Y16828667D1*
Y16830667D1*
X5089143Y16834667D1*
X5093143Y16838667D1*
X5095143D1*
X5099143Y16839667D1*
X5105143Y16841667D1*
X5109143Y16842667D1*
X5112143Y16843667D1*
X5113143Y16844667D1*
Y16860667D1*
X5112143Y16861667D1*
X5109143Y16862667D1*
X5105143Y16863667D1*
X5099143Y16865667D1*
X5095143Y16866667D1*
X5093143D1*
X5089143Y16870667D1*
X5087143Y16874667D1*
Y16876667D1*
X5089143Y16880667D1*
X5092143Y16883667D1*
X5093143D1*
X5094143Y16884667D1*
X5099143D1*
X5100143Y16883667D1*
X5103143Y16882667D1*
X5107143Y16881667D1*
X5113143Y16879667D1*
X5117143Y16878667D1*
X5123143Y16876667D1*
X5127143Y16875667D1*
X5133143Y16873667D1*
X5137143Y16872667D1*
X5140143Y16871667D1*
X5144143Y16870667D1*
X5150143Y16868667D1*
X5154143Y16867667D1*
X5160143Y16865667D1*
X5164143Y16864667D1*
X5170143Y16862667D1*
X5174143Y16861667D1*
X5176143D1*
X5180143Y16857667D1*
X5182143Y16853667D1*
Y16851667D1*
X5180143Y16847667D1*
X5176143Y16843667D1*
X5174143D1*
X5170143Y16842667D1*
X5164143Y16840667D1*
X5160143Y16839667D1*
X5154143Y16837667D1*
X5150143Y16836667D1*
X5144143Y16834667D1*
X5140143Y16833667D1*
X5137143Y16832667D1*
X5133143Y16831667D1*
X5127143Y16829667D1*
X5123143Y16828667D1*
X5117143Y16826667D1*
X5113143Y16825667D1*
X5107143Y16823667D1*
X5103143Y16822667D1*
X5100143Y16821667D1*
X5099143Y16820667D1*
X5094143D1*
X5093143Y16821667D1*
X5092143D1*
X5089143Y16824667D1*
X5088143Y16826667D1*
Y16805667D1*
G37*
G36*
X5142143Y16852667D2*
X5140143D1*
X5139143Y16853667D1*
X5136143Y16854667D1*
X5132143Y16855667D1*
X5131143D1*
Y16849667D1*
X5132143D1*
X5136143Y16850667D1*
X5139143Y16851667D1*
X5140143Y16852667D1*
X5142143D1*
G37*
G36*
X2943589Y17218798D2*
Y17212131D1*
X2946922Y17202131D1*
X2953589Y17192131D1*
X2956922Y17185465D1*
X2963589Y17175465D1*
X2970256Y17162131D1*
X2976922Y17152131D1*
X2983589Y17138798D1*
X2990256Y17128798D1*
X2996922Y17115465D1*
X3003589Y17105465D1*
X3006922Y17098798D1*
X3013589Y17088798D1*
X3020256Y17075465D1*
X3026922Y17065465D1*
X3033589Y17052131D1*
X3040256Y17042131D1*
X3046922Y17028798D1*
X3053589Y17018798D1*
X3056922Y17012131D1*
X3063589Y17002131D1*
X3070256Y16988798D1*
X3076922Y16978798D1*
X3083589Y16965465D1*
X3090256Y16955465D1*
X3096922Y16948798D1*
X3106922Y16945465D1*
X3110256D1*
X3120256Y16948798D1*
X3126922Y16952131D1*
X3130256Y16955465D1*
X3133589Y16962131D1*
X3140256Y16972131D1*
X3146922Y16985465D1*
X3153589Y16995465D1*
X3160256Y17008798D1*
X3166922Y17018798D1*
X3170256Y17025465D1*
X3176922Y17035465D1*
X3183589Y17048798D1*
X3190256Y17058798D1*
X3196922Y17072131D1*
X3203589Y17082131D1*
X3210256Y17095465D1*
X3216922Y17105465D1*
X3220256Y17112131D1*
X3226922Y17122131D1*
X3233589Y17135465D1*
X3240256Y17145465D1*
X3246922Y17158798D1*
X3253589Y17168798D1*
X3260256Y17182131D1*
X3266922Y17192131D1*
X3273589Y17205465D1*
X3276922Y17215465D1*
X3273589Y17225465D1*
X3270256Y17232131D1*
X3266922Y17235465D1*
X3260256Y17238798D1*
X2960256D1*
X2953589Y17235465D1*
X2946922Y17228798D1*
X2943589Y17218798D1*
X2966922D1*
X3062478Y17222131D1*
X3158033D1*
X3253589Y17218798D1*
X3256274Y17214494D1*
X3256922Y17212131D1*
X3250256Y17205465D1*
X3243589Y17192131D1*
X3236922Y17182131D1*
X3233589Y17175465D1*
X3226922Y17165465D1*
X3220256Y17152131D1*
X3213589Y17142131D1*
X3206922Y17128798D1*
X3200256Y17118798D1*
X3196922Y17112131D1*
X3190256Y17102131D1*
X3183589Y17088798D1*
X3176922Y17078798D1*
X3170256Y17065465D1*
X3163589Y17055465D1*
X3156922Y17042131D1*
X3150256Y17032131D1*
X3146922Y17025465D1*
X3140256Y17015465D1*
X3133589Y17002131D1*
X3126922Y16992131D1*
X3120256Y16978798D1*
Y16975465D1*
X3110256Y16965465D1*
X3105347Y16965800D1*
X3102585Y16969557D1*
X3103589Y16972131D1*
X3096922Y16985465D1*
X3090256Y16995465D1*
X3083589Y17008798D1*
X3076922Y17018798D1*
X3073589Y17025465D1*
X3066922Y17035465D1*
X3060256Y17048798D1*
X3053589Y17058798D1*
X3046922Y17072131D1*
X3040256Y17082131D1*
X3033589Y17095465D1*
X3026922Y17105465D1*
X3023589Y17112131D1*
X3016922Y17122131D1*
X3010256Y17135465D1*
X3003589Y17145465D1*
X2996922Y17158798D1*
X2990256Y17168798D1*
X2986922Y17175465D1*
X2980256Y17185465D1*
X2973589Y17198798D1*
X2966922Y17208798D1*
X2962969Y17212545D1*
X2963999Y17214772D1*
X2966922Y17218798D1*
X2943589D1*
G37*
G36*
X3106922Y17198798D2*
X3100256Y17195465D1*
X3096922Y17192131D1*
Y17178798D1*
X3103589Y17172131D1*
X3116922D1*
X3123589Y17178798D1*
Y17188798D1*
X3120256Y17195465D1*
X3113589Y17198798D1*
X3106922D1*
G37*
G36*
X3110256Y17155465D2*
X3103589Y17152131D1*
X3096922Y17145465D1*
Y17032131D1*
X3103589Y17025465D1*
X3116922D1*
X3123589Y17032131D1*
Y17145465D1*
X3116922Y17152131D1*
X3110256Y17155465D1*
G37*
G36*
X2831143Y17095917D2*
X2830143Y17093917D1*
X2829143Y17092917D1*
X2828143Y17090917D1*
X2819143Y17081917D1*
X2818143D1*
X2813143Y17078917D1*
X2811143Y17077917D1*
X2808143Y17076917D1*
X2804143Y17075917D1*
X2801143Y17074917D1*
X2797143Y17073917D1*
X2796143Y17072917D1*
X2772143D1*
X2771143Y17073917D1*
X2767143Y17074917D1*
X2764143Y17075917D1*
X2760143Y17076917D1*
X2758143Y17077917D1*
X2755143Y17078917D1*
X2751143Y17081917D1*
X2750143D1*
X2741143Y17090917D1*
X2740143Y17092917D1*
X2739143Y17093917D1*
X2738143Y17095917D1*
X2737143Y17101917D1*
Y17107917D1*
X2738143Y17113917D1*
X2740143Y17117917D1*
X2741143Y17118917D1*
X2743143Y17121917D1*
X2751143Y17129917D1*
X2752143D1*
X2755143Y17131917D1*
X2758143Y17132917D1*
X2760143Y17133917D1*
X2764143Y17134917D1*
X2767143Y17135917D1*
X2771143Y17136917D1*
X2772143Y17137917D1*
X2796143D1*
X2797143Y17136917D1*
X2801143Y17135917D1*
X2804143Y17134917D1*
X2808143Y17133917D1*
X2811143Y17132917D1*
X2817143Y17129917D1*
X2824143Y17123917D1*
X2828143Y17119917D1*
X2829143Y17117917D1*
X2831143Y17114917D1*
Y17165917D1*
X2829143Y17161917D1*
X2828143Y17158917D1*
X2827143Y17156917D1*
X2822143Y17151917D1*
X2821143D1*
X2817143Y17148917D1*
X2814143Y17147917D1*
X2812143Y17146917D1*
X2811143Y17145917D1*
X2794143D1*
X2793143Y17146917D1*
X2791143Y17147917D1*
X2788143Y17148917D1*
X2784143Y17151917D1*
X2783143D1*
X2778143Y17156917D1*
X2777143Y17158917D1*
X2776143Y17161917D1*
X2774143Y17165917D1*
X2773143Y17186917D1*
X2743143Y17187917D1*
X2742143D1*
X2739143Y17190917D1*
X2737143Y17194917D1*
Y17196917D1*
X2739143Y17200917D1*
X2742143Y17203917D1*
X2743143D1*
X2744143Y17204917D1*
X2825143D1*
X2826143Y17203917D1*
X2827143D1*
X2830143Y17200917D1*
X2831143Y17198917D1*
Y17287917D1*
X2693143D1*
Y16773917D1*
X2738143D1*
Y16861917D1*
X2737143Y16863917D1*
Y16865917D1*
X2739143Y16869917D1*
X2743143Y16873917D1*
X2744143D1*
X2776143Y16889917D1*
X2777143Y16890917D1*
Y16896917D1*
X2743143Y16897917D1*
X2742143D1*
X2739143Y16900917D1*
X2737143Y16904917D1*
Y16906917D1*
X2738143Y16908917D1*
Y16928917D1*
X2737143Y16943583D1*
Y16958250D1*
X2738143Y16972917D1*
X2739143Y16974917D1*
X2742143Y16977917D1*
X2743143D1*
X2744143Y16978917D1*
X2825143D1*
X2826143Y16977917D1*
X2827143D1*
X2830143Y16974917D1*
X2831143Y16972917D1*
X2832143Y16958250D1*
Y16943583D1*
X2831143Y16928917D1*
X2830143Y16926917D1*
X2827143Y16923917D1*
X2826143D1*
X2825143Y16922917D1*
X2821143D1*
X2820143Y16923917D1*
X2819143D1*
X2816143Y16926917D1*
X2815143Y16928917D1*
X2814143Y16960917D1*
X2795143D1*
X2794143Y16943917D1*
X2793143Y16941917D1*
X2790143Y16938917D1*
X2789143D1*
X2788143Y16937917D1*
X2784143D1*
X2783143Y16938917D1*
X2782143D1*
X2779143Y16941917D1*
X2778143Y16943917D1*
X2777143Y16960917D1*
X2755143D1*
X2754143Y16928917D1*
X2753143Y16926917D1*
X2750143Y16923917D1*
X2749143D1*
X2748143Y16922917D1*
X2744143D1*
X2743143Y16923917D1*
X2742143D1*
X2739143Y16926917D1*
X2738143Y16928917D1*
Y16908917D1*
X2739143Y16910917D1*
X2742143Y16913917D1*
X2743143D1*
X2744143Y16914917D1*
X2825143D1*
X2826143Y16913917D1*
X2827143D1*
X2830143Y16910917D1*
X2831143Y16908917D1*
X2832143Y16897917D1*
Y16886917D1*
X2831143Y16875917D1*
X2829143Y16871917D1*
X2828143Y16868917D1*
X2827143Y16866917D1*
X2822143Y16861917D1*
X2821143D1*
X2817143Y16858917D1*
X2814143Y16857917D1*
X2812143Y16856917D1*
X2811143Y16855917D1*
X2798143D1*
X2797143Y16856917D1*
X2794143Y16857917D1*
X2792143Y16858917D1*
X2790143D1*
X2782143Y16866917D1*
X2781143Y16868917D1*
X2780143Y16871917D1*
X2750143Y16856917D1*
X2749143Y16855917D1*
X2744143D1*
X2743143Y16856917D1*
X2742143D1*
X2739143Y16859917D1*
X2738143Y16861917D1*
Y16773917D1*
X2878143D1*
Y17287917D1*
X2831143D1*
Y17198917D1*
X2832143Y17187917D1*
Y17176917D1*
X2831143Y17165917D1*
Y17114917D1*
X2832143Y17108583D1*
Y17102250D1*
X2831143Y17095917D1*
Y17057917D1*
X2832143Y17055917D1*
Y17053917D1*
X2830143Y17049917D1*
X2827143Y17046917D1*
X2826143D1*
X2821143Y17045917D1*
X2815143Y17044917D1*
X2810143Y17043917D1*
X2804143Y17042917D1*
X2799143Y17041917D1*
X2793143Y17040917D1*
X2795143Y17039917D1*
X2800143Y17038917D1*
X2806143Y17037917D1*
X2826143Y17033917D1*
X2827143D1*
X2830143Y17030917D1*
X2832143Y17026917D1*
Y17024917D1*
X2830143Y17020917D1*
X2827143Y17017917D1*
X2826143D1*
X2821143Y17016917D1*
X2815143Y17015917D1*
X2810143Y17014917D1*
X2804143Y17013917D1*
X2799143Y17012917D1*
X2793143Y17011917D1*
X2795143Y17010917D1*
X2800143Y17009917D1*
X2806143Y17008917D1*
X2826143Y17004917D1*
X2827143D1*
X2830143Y17001917D1*
X2832143Y16997917D1*
Y16995917D1*
X2830143Y16991917D1*
X2827143Y16988917D1*
X2826143D1*
X2825143Y16987917D1*
X2821143D1*
X2820143Y16988917D1*
X2805143Y16991917D1*
X2799143Y16992917D1*
X2769143Y16998917D1*
X2763143Y16999917D1*
X2743143Y17003917D1*
X2742143D1*
X2739143Y17006917D1*
X2737143Y17010917D1*
Y17012917D1*
X2739143Y17016917D1*
X2742143Y17019917D1*
X2743143D1*
X2748143Y17020917D1*
X2754143Y17021917D1*
X2759143Y17022917D1*
X2765143Y17023917D1*
X2770143Y17024917D1*
X2776143Y17025917D1*
X2774143Y17026917D1*
X2769143Y17027917D1*
X2763143Y17028917D1*
X2743143Y17032917D1*
X2742143D1*
X2739143Y17035917D1*
X2737143Y17039917D1*
Y17041917D1*
X2739143Y17045917D1*
X2742143Y17048917D1*
X2743143D1*
X2748143Y17049917D1*
X2754143Y17050917D1*
X2759143Y17051917D1*
X2765143Y17052917D1*
X2770143Y17053917D1*
X2776143Y17054917D1*
X2781143Y17055917D1*
X2787143Y17056917D1*
X2792143Y17057917D1*
X2798143Y17058917D1*
X2803143Y17059917D1*
X2809143Y17060917D1*
X2814143Y17061917D1*
X2820143Y17062917D1*
X2821143Y17063917D1*
X2825143D1*
X2826143Y17062917D1*
X2827143D1*
X2830143Y17059917D1*
X2831143Y17057917D1*
Y17095917D1*
G37*
G36*
X2814143Y17186917D2*
X2791143D1*
Y17171917D1*
X2793143Y17166917D1*
X2794143Y17165917D1*
X2796143Y17164917D1*
X2799143Y17163917D1*
X2806143D1*
X2809143Y17164917D1*
X2811143Y17165917D1*
X2812143Y17166917D1*
X2814143Y17171917D1*
Y17186917D1*
G37*
G36*
Y17108917D2*
X2808143Y17114917D1*
X2805143Y17115917D1*
X2803143Y17116917D1*
X2800143Y17117917D1*
X2796143Y17118917D1*
X2793143Y17119917D1*
X2775143D1*
X2772143Y17118917D1*
X2768143Y17117917D1*
X2766143Y17116917D1*
X2763143Y17115917D1*
X2761143Y17114917D1*
X2756143Y17110917D1*
X2755143Y17108917D1*
Y17101917D1*
X2761143Y17095917D1*
X2763143Y17094917D1*
X2766143Y17093917D1*
X2768143Y17092917D1*
X2772143Y17091917D1*
X2775143Y17090917D1*
X2793143D1*
X2796143Y17091917D1*
X2800143Y17092917D1*
X2803143Y17093917D1*
X2805143Y17094917D1*
X2808143Y17095917D1*
X2814143Y17101917D1*
Y17108917D1*
G37*
G36*
Y16896917D2*
X2795143D1*
Y16881917D1*
X2797143Y16876917D1*
X2798143Y16875917D1*
X2802143Y16873917D1*
X2806143D1*
X2809143Y16874917D1*
X2811143Y16875917D1*
X2812143Y16876917D1*
X2814143Y16881917D1*
Y16896917D1*
G37*
G36*
X1428333Y7563659D2*
X1439333Y7564659D1*
X1450333D1*
X1461333Y7563659D1*
X1465333Y7561659D1*
X1468333Y7560659D1*
X1470333Y7559659D1*
X1475333Y7554659D1*
Y7553659D1*
X1478333Y7549659D1*
X1479333Y7546659D1*
X1480333Y7544659D1*
X1481333Y7543659D1*
Y7530659D1*
X1480333Y7529659D1*
X1479333Y7526659D1*
X1478333Y7524659D1*
X1474333Y7518659D1*
X1478333Y7513659D1*
X1479333Y7510659D1*
X1480333Y7508659D1*
X1481333Y7507659D1*
Y7490659D1*
X1480333Y7489659D1*
X1479333Y7486659D1*
X1478333Y7484659D1*
Y7482659D1*
X1470333Y7474659D1*
X1468333Y7473659D1*
X1465333Y7472659D1*
X1461333Y7470659D1*
X1563333D1*
Y7610659D1*
X1013333D1*
Y7563659D1*
X1102333D1*
X1117000Y7564659D1*
X1131667D1*
X1146333Y7563659D1*
X1167333D1*
X1169333Y7564659D1*
X1171333D1*
X1175333Y7562659D1*
X1179333Y7558659D1*
Y7557659D1*
X1182333Y7551659D1*
X1184333Y7548659D1*
X1190333Y7536659D1*
X1192333Y7533659D1*
X1198333Y7521659D1*
X1200333Y7518659D1*
X1202333Y7514659D1*
X1203333Y7558659D1*
Y7559659D1*
X1206333Y7562659D1*
X1210333Y7564659D1*
X1212333D1*
X1216333Y7562659D1*
X1219333Y7559659D1*
Y7558659D1*
X1220333Y7557659D1*
Y7476659D1*
X1219333Y7475659D1*
Y7474659D1*
X1216333Y7471659D1*
X1212333Y7469659D1*
X1210333D1*
X1206333Y7471659D1*
X1202333Y7475659D1*
Y7476659D1*
X1199333Y7482659D1*
X1197333Y7485659D1*
X1191333Y7497659D1*
X1189333Y7500659D1*
X1183333Y7512659D1*
X1181333Y7515659D1*
X1179333Y7519659D1*
X1178333Y7475659D1*
Y7474659D1*
X1175333Y7471659D1*
X1171333Y7469659D1*
X1169333D1*
X1165333Y7471659D1*
X1162333Y7474659D1*
Y7475659D1*
X1161333Y7476659D1*
Y7557659D1*
X1162333Y7558659D1*
Y7559659D1*
X1165333Y7562659D1*
X1167333Y7563659D1*
X1146333D1*
X1148333Y7562659D1*
X1151333Y7559659D1*
Y7558659D1*
X1152333Y7557659D1*
Y7553659D1*
X1151333Y7552659D1*
Y7551659D1*
X1148333Y7548659D1*
X1146333Y7547659D1*
X1114333Y7546659D1*
Y7527659D1*
X1132333Y7526659D1*
X1134333Y7525659D1*
X1137333Y7522659D1*
Y7521659D1*
X1138333Y7520659D1*
Y7516659D1*
X1137333Y7515659D1*
Y7514659D1*
X1134333Y7511659D1*
X1132333Y7510659D1*
X1114333Y7509659D1*
Y7487659D1*
X1146333Y7486659D1*
X1148333Y7485659D1*
X1151333Y7482659D1*
Y7481659D1*
X1152333Y7480659D1*
Y7476659D1*
X1151333Y7475659D1*
Y7474659D1*
X1148333Y7471659D1*
X1146333Y7470659D1*
X1131667Y7469659D1*
X1117000D1*
X1102333Y7470659D1*
X1100333Y7471659D1*
X1097333Y7474659D1*
Y7475659D1*
X1096333Y7476659D1*
Y7557659D1*
X1097333Y7558659D1*
Y7559659D1*
X1100333Y7562659D1*
X1102333Y7563659D1*
X1013333D1*
Y7469659D1*
X1341333D1*
X1342333Y7470659D1*
X1325333D1*
X1323333Y7469659D1*
X1321333D1*
X1317333Y7471659D1*
X1314333Y7474659D1*
Y7475659D1*
X1313333Y7533659D1*
X1309333Y7531659D1*
X1307333D1*
X1303333Y7533659D1*
X1300333Y7536659D1*
Y7537659D1*
X1299333Y7538659D1*
Y7542659D1*
X1300333Y7543659D1*
X1300833Y7544659D1*
X1301379Y7545570D1*
X1302343Y7546638D1*
X1303333Y7547659D1*
X1315333Y7559659D1*
Y7560659D1*
X1321333Y7563659D1*
X1323333D1*
X1327333Y7561659D1*
X1330333Y7558659D1*
Y7557659D1*
X1331333Y7556659D1*
Y7476659D1*
X1330333Y7475659D1*
Y7474659D1*
X1327333Y7471659D1*
X1325333Y7470659D1*
X1342333D1*
X1344333Y7472659D1*
X1346333Y7473659D1*
X1366667Y7474659D1*
X1387000D1*
X1407333Y7473659D1*
X1409333Y7472659D1*
X1412333Y7469659D1*
Y7468659D1*
X1413333Y7467659D1*
Y7463659D1*
X1412333Y7462659D1*
Y7461659D1*
X1409333Y7458659D1*
X1407333Y7457659D1*
X1387000Y7456659D1*
X1366667D1*
X1346333Y7457659D1*
X1344333Y7458659D1*
X1341333Y7461659D1*
Y7462659D1*
X1340333Y7463659D1*
Y7467659D1*
X1341333Y7468659D1*
Y7469659D1*
X1013333D1*
Y7425659D1*
X1563333D1*
Y7470659D1*
X1461333D1*
X1450333Y7469659D1*
X1439333D1*
X1428333Y7470659D1*
X1426333Y7471659D1*
X1423333Y7474659D1*
Y7475659D1*
X1422333Y7476659D1*
Y7557659D1*
X1423333Y7558659D1*
Y7559659D1*
X1426333Y7562659D1*
X1428333Y7563659D1*
X1269333D1*
X1275333Y7559659D1*
X1277333Y7558659D1*
X1284333Y7551659D1*
Y7550659D1*
X1287333Y7545659D1*
X1288333Y7543659D1*
X1289333Y7540659D1*
X1290333Y7539659D1*
Y7534659D1*
X1289333Y7533659D1*
Y7532659D1*
X1286333Y7529659D1*
X1282333Y7527659D1*
X1280333D1*
X1276333Y7529659D1*
X1272333Y7533659D1*
Y7535659D1*
X1271333Y7537659D1*
X1270333Y7540659D1*
X1264333Y7546659D1*
X1257333D1*
X1251333Y7540659D1*
X1250333Y7537659D1*
X1249333Y7535659D1*
X1248333Y7532659D1*
X1247333Y7528659D1*
X1246333Y7525659D1*
Y7507659D1*
X1247333Y7504659D1*
X1248333Y7500659D1*
X1249333Y7498659D1*
X1250333Y7495659D1*
X1251333Y7493659D1*
X1255333Y7488659D1*
X1257333Y7487659D1*
X1263333D1*
X1265333Y7488659D1*
X1270333Y7493659D1*
X1271333Y7495659D1*
X1272333Y7498659D1*
Y7499659D1*
X1276333Y7503659D1*
X1280333Y7505659D1*
X1282333D1*
X1286333Y7503659D1*
X1289333Y7500659D1*
Y7499659D1*
X1290333Y7498659D1*
Y7493659D1*
X1289333Y7492659D1*
X1288333Y7490659D1*
X1287333Y7487659D1*
X1284333Y7483659D1*
Y7482659D1*
X1276333Y7474659D1*
X1274333Y7473659D1*
X1271333Y7471659D1*
X1270333Y7470659D1*
X1264333Y7469659D1*
X1258333D1*
X1252333Y7470659D1*
X1248333Y7472659D1*
X1247333Y7473659D1*
X1244333Y7475659D1*
X1236333Y7483659D1*
Y7484659D1*
X1234333Y7487659D1*
X1233333Y7490659D1*
X1232333Y7492659D1*
X1231333Y7496659D1*
X1230333Y7499659D1*
X1229333Y7503659D1*
X1228333Y7504659D1*
Y7528659D1*
X1229333Y7529659D1*
X1230333Y7533659D1*
X1231333Y7536659D1*
X1232333Y7540659D1*
X1233333Y7543659D1*
X1236333Y7549659D1*
X1242333Y7556659D1*
X1246333Y7560659D1*
X1248333Y7561659D1*
X1249333Y7562659D1*
X1251333Y7563659D1*
X1257333Y7564659D1*
X1263333D1*
X1269333Y7563659D1*
X1428333D1*
G37*
G36*
X1440333Y7546659D2*
Y7527659D1*
X1455333D1*
X1460333Y7529659D1*
X1461333Y7530659D1*
X1463333Y7534659D1*
Y7538659D1*
X1462333Y7541659D1*
X1461333Y7543659D1*
X1460333Y7544659D1*
X1455333Y7546659D1*
X1440333D1*
G37*
G36*
Y7509659D2*
Y7487659D1*
X1455333D1*
X1460333Y7489659D1*
X1461333Y7490659D1*
X1463333Y7494659D1*
Y7502659D1*
X1462333Y7505659D1*
X1460333Y7507659D1*
X1455333Y7509659D1*
X1440333D1*
G37*
G36*
X5810640Y7563629D2*
X5821640Y7564629D1*
X5832640D1*
X5843640Y7563629D1*
X5847640Y7561629D1*
X5850640Y7560629D1*
X5852640Y7559629D1*
X5857640Y7554629D1*
Y7553629D1*
X5860640Y7549629D1*
X5861640Y7546629D1*
X5862640Y7544629D1*
X5863640Y7543629D1*
Y7530629D1*
X5862640Y7529629D1*
X5861640Y7526629D1*
X5860640Y7524629D1*
X5856640Y7518629D1*
X5860640Y7513629D1*
X5861640Y7510629D1*
X5862640Y7508629D1*
X5863640Y7507629D1*
Y7490629D1*
X5862640Y7489629D1*
X5861640Y7486629D1*
X5860640Y7484629D1*
Y7482629D1*
X5852640Y7474629D1*
X5850640Y7473629D1*
X5847640Y7472629D1*
X5843640Y7470629D1*
X5945640D1*
Y7610629D1*
X5369640D1*
Y7563629D1*
X5458640D1*
X5473307Y7564629D1*
X5487974D1*
X5502640Y7563629D1*
X5523640D1*
X5525640Y7564629D1*
X5527640D1*
X5531640Y7562629D1*
X5535640Y7558629D1*
Y7557629D1*
X5540640Y7547629D1*
X5542640Y7544629D1*
X5554640Y7520629D1*
X5556640Y7517629D1*
X5557640Y7515629D1*
X5558640Y7558629D1*
Y7559629D1*
X5561640Y7562629D1*
X5565640Y7564629D1*
X5567640D1*
X5571640Y7562629D1*
X5574640Y7559629D1*
Y7558629D1*
X5575640Y7557629D1*
Y7476629D1*
X5574640Y7475629D1*
Y7474629D1*
X5571640Y7471629D1*
X5567640Y7469629D1*
X5565640D1*
X5561640Y7471629D1*
X5557640Y7475629D1*
Y7476629D1*
X5552640Y7486629D1*
X5550640Y7489629D1*
X5539640Y7511629D1*
X5537640Y7514629D1*
X5535640Y7518629D1*
X5534640Y7475629D1*
Y7474629D1*
X5531640Y7471629D1*
X5527640Y7469629D1*
X5525640D1*
X5521640Y7471629D1*
X5518640Y7474629D1*
Y7475629D1*
X5517640Y7476629D1*
Y7557629D1*
X5518640Y7558629D1*
Y7559629D1*
X5521640Y7562629D1*
X5523640Y7563629D1*
X5502640D1*
X5504640Y7562629D1*
X5507640Y7559629D1*
Y7558629D1*
X5508640Y7557629D1*
Y7553629D1*
X5507640Y7552629D1*
Y7551629D1*
X5504640Y7548629D1*
X5502640Y7547629D1*
X5470640Y7546629D1*
Y7527629D1*
X5487640Y7526629D1*
X5489640Y7525629D1*
X5492640Y7522629D1*
Y7521629D1*
X5493640Y7520629D1*
Y7516629D1*
X5492640Y7515629D1*
Y7514629D1*
X5489640Y7511629D1*
X5487640Y7510629D1*
X5470640Y7509629D1*
Y7487629D1*
X5502640Y7486629D1*
X5504640Y7485629D1*
X5507640Y7482629D1*
Y7481629D1*
X5508640Y7480629D1*
Y7476629D1*
X5507640Y7475629D1*
Y7474629D1*
X5504640Y7471629D1*
X5502640Y7470629D1*
X5487974Y7469629D1*
X5473307D1*
X5458640Y7470629D1*
X5456640Y7471629D1*
X5453640Y7474629D1*
Y7475629D1*
X5452640Y7476629D1*
Y7557629D1*
X5453640Y7558629D1*
Y7559629D1*
X5456640Y7562629D1*
X5458640Y7563629D1*
X5369640D1*
Y7469629D1*
X5723640D1*
X5724640Y7470629D1*
X5707640D1*
X5692307Y7469629D1*
X5676974D1*
X5661640Y7470629D1*
X5659640Y7471629D1*
X5656640Y7474629D1*
Y7475629D1*
X5655640Y7476629D1*
Y7480629D1*
X5656640Y7481629D1*
X5657640Y7483629D1*
X5662640Y7489629D1*
X5682640Y7514629D1*
X5685640Y7518629D1*
X5687640Y7522629D1*
X5688640Y7525629D1*
X5690640Y7529629D1*
X5691640Y7532629D1*
X5692640Y7534629D1*
Y7538629D1*
X5691640Y7541629D1*
X5690640Y7543629D1*
X5688640Y7545629D1*
X5680640D1*
X5678640Y7544629D1*
X5677640Y7543629D1*
X5676640Y7541629D1*
X5675640Y7538629D1*
X5674640Y7533629D1*
Y7532629D1*
X5671640Y7529629D1*
X5667640Y7527629D1*
X5665640D1*
X5661640Y7529629D1*
X5658640Y7532629D1*
Y7533629D1*
X5657640Y7534629D1*
Y7543629D1*
X5658640Y7544629D1*
X5659640Y7546629D1*
X5660640Y7549629D1*
X5662640Y7552629D1*
X5665640Y7556629D1*
X5668640Y7559629D1*
X5674640Y7562629D1*
X5681307Y7563629D1*
X5687974D1*
X5694640Y7562629D1*
X5700640Y7559629D1*
X5705640Y7554629D1*
Y7553629D1*
X5707640Y7549629D1*
X5708640Y7546629D1*
X5709640Y7544629D1*
X5710640Y7543629D1*
Y7530629D1*
X5709640Y7529629D1*
X5708640Y7526629D1*
X5707640Y7524629D1*
X5706640Y7521629D1*
X5704640Y7517629D1*
X5703640Y7514629D1*
X5702640Y7512629D1*
X5699640Y7508629D1*
X5683640Y7488629D1*
Y7487629D1*
X5707640Y7486629D1*
X5709640Y7485629D1*
X5712640Y7482629D1*
Y7481629D1*
X5713640Y7480629D1*
Y7476629D1*
X5712640Y7475629D1*
Y7474629D1*
X5709640Y7471629D1*
X5707640Y7470629D1*
X5724640D1*
X5726640Y7472629D1*
X5728640Y7473629D1*
X5748974Y7474629D1*
X5769307D1*
X5789640Y7473629D1*
X5791640Y7472629D1*
X5794640Y7469629D1*
Y7468629D1*
X5795640Y7467629D1*
Y7463629D1*
X5794640Y7462629D1*
Y7461629D1*
X5791640Y7458629D1*
X5789640Y7457629D1*
X5769307Y7456629D1*
X5748974D1*
X5728640Y7457629D1*
X5726640Y7458629D1*
X5723640Y7461629D1*
Y7462629D1*
X5722640Y7463629D1*
Y7467629D1*
X5723640Y7468629D1*
Y7469629D1*
X5369640D1*
Y7425629D1*
X5945640D1*
Y7470629D1*
X5843640D1*
X5832640Y7469629D1*
X5821640D1*
X5810640Y7470629D1*
X5808640Y7471629D1*
X5805640Y7474629D1*
Y7475629D1*
X5804640Y7476629D1*
Y7557629D1*
X5805640Y7558629D1*
Y7559629D1*
X5808640Y7562629D1*
X5810640Y7563629D1*
X5625640D1*
X5631640Y7559629D1*
X5633640Y7558629D1*
X5640640Y7551629D1*
Y7550629D1*
X5643640Y7545629D1*
X5644640Y7543629D1*
X5645640Y7540629D1*
X5646640Y7539629D1*
Y7534629D1*
X5645640Y7533629D1*
Y7532629D1*
X5642640Y7529629D1*
X5638640Y7527629D1*
X5636640D1*
X5632640Y7529629D1*
X5628640Y7533629D1*
Y7535629D1*
X5627640Y7537629D1*
X5626640Y7540629D1*
X5620640Y7546629D1*
X5613640D1*
X5607640Y7540629D1*
X5606640Y7537629D1*
X5605640Y7535629D1*
X5604640Y7532629D1*
X5603640Y7528629D1*
X5602640Y7525629D1*
Y7507629D1*
X5603640Y7504629D1*
X5604640Y7500629D1*
X5605640Y7498629D1*
X5606640Y7495629D1*
X5607640Y7493629D1*
X5611640Y7488629D1*
X5613640Y7487629D1*
X5619640D1*
X5621640Y7488629D1*
X5626640Y7493629D1*
X5627640Y7495629D1*
X5628640Y7498629D1*
Y7499629D1*
X5632640Y7503629D1*
X5636640Y7505629D1*
X5638640D1*
X5642640Y7503629D1*
X5645640Y7500629D1*
Y7499629D1*
X5646640Y7498629D1*
Y7493629D1*
X5645640Y7492629D1*
X5644640Y7490629D1*
X5643640Y7487629D1*
X5640640Y7483629D1*
Y7482629D1*
X5632640Y7474629D1*
X5630640Y7473629D1*
X5627640Y7471629D1*
X5626640Y7470629D1*
X5620640Y7469629D1*
X5614640D1*
X5608640Y7470629D1*
X5604640Y7472629D1*
X5603640Y7473629D1*
X5600640Y7475629D1*
X5592640Y7483629D1*
Y7484629D1*
X5590640Y7487629D1*
X5589640Y7490629D1*
X5588640Y7492629D1*
X5587640Y7496629D1*
X5586640Y7499629D1*
X5585640Y7503629D1*
X5584640Y7504629D1*
Y7528629D1*
X5585640Y7529629D1*
X5586640Y7533629D1*
X5587640Y7536629D1*
X5588640Y7540629D1*
X5589640Y7543629D1*
X5592640Y7549629D1*
X5598640Y7556629D1*
X5602640Y7560629D1*
X5604640Y7561629D1*
X5605640Y7562629D1*
X5607640Y7563629D1*
X5613640Y7564629D1*
X5619640D1*
X5625640Y7563629D1*
X5810640D1*
G37*
G36*
X5822640Y7546629D2*
Y7527629D1*
X5837640D1*
X5842640Y7529629D1*
X5843640Y7530629D1*
X5845640Y7534629D1*
Y7538629D1*
X5844640Y7541629D1*
X5843640Y7543629D1*
X5842640Y7544629D1*
X5837640Y7546629D1*
X5822640D1*
G37*
G36*
Y7509629D2*
Y7487629D1*
X5837640D1*
X5842640Y7489629D1*
X5843640Y7490629D1*
X5845640Y7494629D1*
Y7502629D1*
X5844640Y7505629D1*
X5842640Y7507629D1*
X5837640Y7509629D1*
X5822640D1*
G37*
X1607140Y10359905D2*
D83*
X1683706D1*
Y10386185D1*
X1679999Y10394945D1*
X1676377Y10397842D1*
X1669134Y10400740D1*
X1658184D1*
X1650856Y10397842D1*
X1647234Y10394945D1*
X1643612Y10386185D1*
X1639906Y10394945D1*
X1636284Y10397842D1*
X1629040Y10400740D1*
X1621712D1*
X1614468Y10397842D1*
X1610762Y10394945D1*
X1607140Y10386185D1*
Y10359905D1*
X1643612D2*
Y10386185D1*
X1647234Y10427407D2*
Y10453687D1*
X1643612Y10462379D1*
X1639906Y10465344D1*
X1632662Y10468242D1*
X1621712D1*
X1614468Y10465344D1*
X1610762Y10462379D1*
X1607140Y10453687D1*
Y10427407D1*
X1683706D1*
Y10653671D2*
X1607140Y10630289D1*
X1683706Y10606974D1*
X1658184Y10615734D2*
Y10644911D1*
X1607140Y10721173D2*
X1683706D1*
X1607140Y10680338D1*
X1683706D1*
Y10901171D2*
X1607140Y10877789D1*
X1683706Y10854474D1*
X1658184Y10863234D2*
Y10892411D1*
X1647234Y10927838D2*
Y10954118D1*
X1643612Y10962811D1*
X1639906Y10965775D1*
X1632662Y10968673D1*
X1621712D1*
X1614468Y10965775D1*
X1610762Y10962811D1*
X1607140Y10954118D1*
Y10927838D1*
X1683706D1*
X1607224Y11391980D2*
Y11362870D1*
X1639990Y11359972D1*
X1636368Y11362870D1*
X1632662Y11371630D1*
Y11380322D1*
X1636368Y11389082D1*
X1643612Y11394945D1*
X1654562Y11397842D1*
X1661806D1*
X1672756Y11394945D1*
X1680084Y11389082D1*
X1683706Y11380322D1*
Y11371630D1*
X1680084Y11362870D1*
X1676377Y11359972D1*
X1669134Y11357007D1*
X1607140Y11424509D2*
X1683706Y11447824D1*
X1607140Y11471139D1*
X1647234Y9363887D2*
Y9390167D1*
X1643612Y9398860D1*
X1639906Y9401825D1*
X1632662Y9404722D1*
X1621712D1*
X1614468Y9401825D1*
X1610762Y9398860D1*
X1607140Y9390167D1*
Y9363887D1*
X1683706D1*
X1607140Y9469259D2*
Y9431389D1*
X1683706D1*
Y9469259D1*
X1643612Y9431389D2*
Y9454704D1*
X1607140Y9609905D2*
Y9650740D1*
X1683706Y9609905D1*
Y9650740D1*
X1607140Y9718242D2*
X1683706D1*
X1607140Y9677407D1*
X1683706D1*
X1607140Y10112405D2*
X1683706D1*
Y10138685D1*
X1679999Y10147445D1*
X1676377Y10150342D1*
X1669134Y10153240D1*
X1658184D1*
X1650856Y10150342D1*
X1647234Y10147445D1*
X1643612Y10138685D1*
X1639906Y10147445D1*
X1636284Y10150342D1*
X1629040Y10153240D1*
X1621712D1*
X1614468Y10150342D1*
X1610762Y10147445D1*
X1607140Y10138685D1*
Y10112405D1*
X1643612D2*
Y10138685D1*
X1607140Y10220742D2*
X1683706D1*
X1607140Y10179907D1*
X1683706D1*
X1625334Y11185940D2*
X1618090Y11183042D1*
X1610762Y11177180D1*
X1607140Y11171385D1*
Y11159727D1*
X1610762Y11153865D1*
X1618090Y11148069D1*
X1625334Y11145105D1*
X1636284Y11142207D1*
X1654562D1*
X1665427Y11145105D1*
X1672756Y11148069D1*
X1679999Y11153865D1*
X1683706Y11159727D1*
Y11171385D1*
X1679999Y11177180D1*
X1672756Y11183042D1*
X1665427Y11185940D1*
X1654562D1*
Y11171385D1*
X1607140Y9862405D2*
Y9903240D1*
X1683706Y9862405D1*
Y9903240D1*
X1647234Y9929907D2*
Y9956187D1*
X1643612Y9964879D1*
X1639906Y9967844D1*
X1632662Y9970742D1*
X1621712D1*
X1614468Y9967844D1*
X1610762Y9964879D1*
X1607140Y9956187D1*
Y9929907D1*
X1683706D1*
X5352847Y10470098D2*
X5276281D1*
Y10443818D1*
X5279987Y10435058D1*
X5283609Y10432161D1*
X5290853Y10429263D1*
X5301803D1*
X5309131Y10432161D1*
X5312753Y10435058D1*
X5316375Y10443818D1*
X5320081Y10435058D1*
X5323703Y10432161D1*
X5330947Y10429263D1*
X5338275D1*
X5345519Y10432161D1*
X5349225Y10435058D1*
X5352847Y10443818D1*
Y10470098D1*
X5316375D2*
Y10443818D1*
X5312753Y10402597D2*
Y10376317D1*
X5316375Y10367624D1*
X5320081Y10364659D1*
X5327325Y10361762D1*
X5338275D1*
X5345519Y10364659D1*
X5349225Y10367624D1*
X5352847Y10376317D1*
Y10402597D1*
X5276281D1*
Y10176332D2*
X5352847Y10199715D1*
X5276281Y10223030D1*
X5301803Y10214270D2*
Y10185092D1*
X5352847Y10108830D2*
X5276281D1*
X5352847Y10149665D1*
X5276281D1*
Y9928832D2*
X5352847Y9952215D1*
X5276281Y9975530D1*
X5301803Y9966770D2*
Y9937592D1*
X5312753Y9902165D2*
Y9875885D1*
X5316375Y9867193D1*
X5320081Y9864228D1*
X5327325Y9861330D1*
X5338275D1*
X5345519Y9864228D1*
X5349225Y9867193D1*
X5352847Y9875885D1*
Y9902165D1*
X5276281D1*
X5334653Y9644064D2*
X5341897Y9646961D1*
X5349225Y9652824D1*
X5352847Y9658619D1*
Y9670276D1*
X5349225Y9676139D1*
X5341897Y9681934D1*
X5334653Y9684899D1*
X5323703Y9687796D1*
X5305425D1*
X5294559Y9684899D1*
X5287231Y9681934D1*
X5279987Y9676139D1*
X5276281Y9670276D1*
Y9658619D1*
X5279987Y9652824D1*
X5287231Y9646961D1*
X5294559Y9644064D1*
X5305425D1*
Y9658619D1*
X5352763Y9438023D2*
Y9467133D1*
X5319997Y9470031D1*
X5323619Y9467133D1*
X5327325Y9458373D1*
Y9449681D1*
X5323619Y9440921D1*
X5316375Y9435058D1*
X5305425Y9432161D1*
X5298181D1*
X5287231Y9435058D1*
X5279903Y9440921D1*
X5276281Y9449681D1*
Y9458373D1*
X5279903Y9467133D1*
X5283609Y9470031D1*
X5290853Y9472996D1*
X5352847Y9405494D2*
X5276281Y9382179D1*
X5352847Y9358864D1*
X5312753Y11466116D2*
Y11439836D1*
X5316375Y11431143D1*
X5320081Y11428178D1*
X5327325Y11425281D1*
X5338275D1*
X5345519Y11428178D1*
X5349225Y11431143D1*
X5352847Y11439836D1*
Y11466116D1*
X5276281D1*
X5352847Y11360744D2*
Y11398614D1*
X5276281D1*
Y11360744D1*
X5316375Y11398614D2*
Y11375299D1*
X5352847Y11220098D2*
Y11179263D1*
X5276281Y11220098D1*
Y11179263D1*
X5352847Y11111762D2*
X5276281D1*
X5352847Y11152597D1*
X5276281D1*
X5352847Y10967598D2*
Y10926763D1*
X5276281Y10967598D1*
Y10926763D1*
X5312753Y10900097D2*
Y10873817D1*
X5316375Y10865124D1*
X5320081Y10862159D1*
X5327325Y10859262D1*
X5338275D1*
X5345519Y10862159D1*
X5349225Y10865124D1*
X5352847Y10873817D1*
Y10900097D1*
X5276281D1*
X5352847Y10717598D2*
X5276281D1*
Y10691318D1*
X5279987Y10682558D1*
X5283609Y10679661D1*
X5290853Y10676763D1*
X5301803D1*
X5309131Y10679661D1*
X5312753Y10682558D1*
X5316375Y10691318D1*
X5320081Y10682558D1*
X5323703Y10679661D1*
X5330947Y10676763D1*
X5338275D1*
X5345519Y10679661D1*
X5349225Y10682558D1*
X5352847Y10691318D1*
Y10717598D1*
X5316375D2*
Y10691318D1*
X5352847Y10609262D2*
X5276281D1*
X5352847Y10650097D1*
X5276281D1*
X2835403Y15507370D2*
Y15430804D1*
X2861683D1*
X2870443Y15434510D1*
X2873341Y15438132D1*
X2876238Y15445376D1*
Y15456326D1*
X2873341Y15463654D1*
X2870443Y15467276D1*
X2861683Y15470898D1*
X2870443Y15474604D1*
X2873341Y15478226D1*
X2876238Y15485470D1*
Y15492798D1*
X2873341Y15500042D1*
X2870443Y15503748D1*
X2861683Y15507370D1*
X2835403D1*
Y15470898D2*
X2861683D1*
X2902905Y15469045D2*
X2936597D1*
X3172003Y15507370D2*
Y15430804D1*
X3198283D1*
X3207043Y15434510D1*
X3209940Y15438132D1*
X3212838Y15445376D1*
Y15456326D1*
X3209940Y15463654D1*
X3207043Y15467276D1*
X3198283Y15470898D1*
X3207043Y15474604D1*
X3209940Y15478226D1*
X3212838Y15485470D1*
Y15492798D1*
X3209940Y15500042D1*
X3207043Y15503748D1*
X3198283Y15507370D1*
X3172003D1*
Y15470898D2*
X3198283D1*
X3265717Y15501852D2*
Y15436237D1*
X3239505Y15469002D2*
X3291997D1*
X3721169Y15430804D2*
X3697787Y15507370D1*
X3674472Y15430804D1*
X3683232Y15456326D2*
X3712409D1*
X3747836Y15469045D2*
X3781528D1*
X4057769Y15430804D2*
X4034387Y15507370D1*
X4011072Y15430804D1*
X4019832Y15456326D2*
X4049009D1*
X4110648Y15501852D2*
Y15436237D1*
X4084436Y15469002D2*
X4136928D1*
X4126927Y3822237D2*
Y3898803D1*
X4100647D1*
X4091887Y3895097D1*
X4088989Y3891475D1*
X4086092Y3884231D1*
Y3873281D1*
X4088989Y3865953D1*
X4091887Y3862331D1*
X4100647Y3858709D1*
X4091887Y3855003D1*
X4088989Y3851381D1*
X4086092Y3844137D1*
Y3836809D1*
X4088989Y3829565D1*
X4091887Y3825859D1*
X4100647Y3822237D1*
X4126927D1*
Y3858709D2*
X4100647D1*
X4059425Y3860562D2*
X4025733D1*
X3790327Y3822237D2*
Y3898803D1*
X3764047D1*
X3755287Y3895097D1*
X3752390Y3891475D1*
X3749492Y3884231D1*
Y3873281D1*
X3752390Y3865953D1*
X3755287Y3862331D1*
X3764047Y3858709D1*
X3755287Y3855003D1*
X3752390Y3851381D1*
X3749492Y3844137D1*
Y3836809D1*
X3752390Y3829565D1*
X3755287Y3825859D1*
X3764047Y3822237D1*
X3790327D1*
Y3858709D2*
X3764047D1*
X3696613Y3827754D2*
Y3893370D1*
X3722825Y3860604D2*
X3670333D1*
X3241161Y3898803D2*
X3264543Y3822237D1*
X3287858Y3898803D1*
X3279098Y3873281D2*
X3249921D1*
X3214494Y3860562D2*
X3180802D1*
X2904561Y3898803D2*
X2927943Y3822237D1*
X2951258Y3898803D1*
X2942498Y3873281D2*
X2913321D1*
X2851682Y3827754D2*
Y3893370D1*
X2877894Y3860604D2*
X2825402D1*
X1873300Y8377567D2*
X1835430D1*
Y8301001D1*
X1873300D1*
X1835430Y8341095D2*
X1858745D1*
X1899967Y8377567D2*
Y8301001D1*
X1920384D1*
X1929144Y8304707D1*
X1935007Y8311951D1*
X1937904Y8319279D1*
X1940802Y8330145D1*
Y8348423D1*
X1937904Y8359373D1*
X1935007Y8366617D1*
X1929144Y8373945D1*
X1920384Y8377567D1*
X1899967D1*
X1967469Y8362911D2*
X1973331Y8366617D1*
X1982091Y8377483D1*
Y8301001D1*
X2055455D2*
X2032073Y8377567D1*
X2008758Y8301001D1*
X2017518Y8326523D2*
X2046695D1*
X1870403Y7977483D2*
X1841292D1*
X1838395Y7944717D1*
X1841292Y7948339D1*
X1850052Y7952045D1*
X1858745D1*
X1867505Y7948339D1*
X1873368Y7941095D1*
X1876265Y7930145D1*
Y7922901D1*
X1873368Y7911951D1*
X1867505Y7904623D1*
X1858745Y7901001D1*
X1850052D1*
X1841292Y7904623D1*
X1838395Y7908329D1*
X1835430Y7915573D1*
X1902932Y7977567D2*
X1926247Y7901001D1*
X1949562Y7977567D1*
X5083797Y8302433D2*
X5121667D1*
Y8378999D1*
X5083797D1*
X5121667Y8338905D2*
X5098352D1*
X5057130Y8302433D2*
Y8378999D1*
X5036712D1*
X5027952Y8375293D1*
X5022090Y8368049D1*
X5019192Y8360721D1*
X5016295Y8349855D1*
Y8331577D1*
X5019192Y8320627D1*
X5022090Y8313383D1*
X5027952Y8306055D1*
X5036712Y8302433D1*
X5057130D1*
X4986663Y8320711D2*
Y8317089D1*
X4983766Y8309761D1*
X4980868Y8306139D1*
X4975006Y8302517D1*
X4963348D1*
X4957553Y8306139D1*
X4954655Y8309761D1*
X4951691Y8317089D1*
Y8324333D1*
X4954655Y8331661D1*
X4960451Y8342527D1*
X4989628Y8378999D1*
X4948793D1*
X4875429D2*
X4898811Y8302433D1*
X4922126Y8378999D1*
X4913366Y8353477D2*
X4884189D1*
X5086694Y8702517D2*
X5115804D1*
X5118702Y8735283D1*
X5115804Y8731661D1*
X5107044Y8727955D1*
X5098352D1*
X5089592Y8731661D1*
X5083729Y8738905D1*
X5080832Y8749855D1*
Y8757099D1*
X5083729Y8768049D1*
X5089592Y8775377D1*
X5098352Y8778999D1*
X5107044D1*
X5115804Y8775377D1*
X5118702Y8771671D1*
X5121667Y8764427D1*
X5054165Y8702433D2*
X5030850Y8778999D1*
X5007535Y8702433D1*
X5077934Y8520627D2*
X5080832Y8513383D1*
X5086694Y8506055D1*
X5092489Y8502433D1*
X5104147D1*
X5110009Y8506055D1*
X5115804Y8513383D1*
X5118769Y8520627D1*
X5121667Y8531577D1*
Y8549855D1*
X5118769Y8560721D1*
X5115804Y8568049D1*
X5110009Y8575293D1*
X5104147Y8578999D1*
X5092489D1*
X5086694Y8575293D1*
X5080832Y8568049D1*
X5077934Y8560721D1*
Y8549855D1*
X5092489D1*
X5010432Y8502433D2*
Y8578999D1*
X5051267Y8502433D1*
Y8578999D1*
X4983766Y8502433D2*
Y8578999D1*
X4963348D1*
X4954588Y8575293D1*
X4948726Y8568049D1*
X4945828Y8560721D1*
X4942931Y8549855D1*
Y8531577D1*
X4945828Y8520627D1*
X4948726Y8513383D1*
X4954588Y8506055D1*
X4963348Y8502433D1*
X4983766D1*
X1879163Y8159373D2*
X1876265Y8166617D1*
X1870403Y8173945D1*
X1864608Y8177567D1*
X1852950D1*
X1847088Y8173945D1*
X1841292Y8166617D1*
X1838328Y8159373D1*
X1835430Y8148423D1*
Y8130145D1*
X1838328Y8119279D1*
X1841292Y8111951D1*
X1847088Y8104707D1*
X1852950Y8101001D1*
X1864608D1*
X1870403Y8104707D1*
X1876265Y8111951D1*
X1879163Y8119279D1*
Y8130145D1*
X1864608D1*
X1946664Y8177567D2*
Y8101001D1*
X1905829Y8177567D1*
Y8101001D1*
X1973331Y8177567D2*
Y8101001D1*
X1993749D1*
X2002509Y8104707D1*
X2008371Y8111951D1*
X2011269Y8119279D1*
X2014166Y8130145D1*
Y8148423D1*
X2011269Y8159373D1*
X2008371Y8166617D1*
X2002509Y8173945D1*
X1993749Y8177567D1*
X1973331D1*
X5083797Y8102433D2*
X5121667D1*
Y8178999D1*
X5083797D1*
X5121667Y8138905D2*
X5098352D1*
X5057130Y8102433D2*
Y8178999D1*
X5036712D1*
X5027952Y8175293D1*
X5022090Y8168049D1*
X5019192Y8160721D1*
X5016295Y8149855D1*
Y8131577D1*
X5019192Y8120627D1*
X5022090Y8113383D1*
X5027952Y8106055D1*
X5036712Y8102433D1*
X5057130D1*
X4986663Y8120711D2*
Y8117089D1*
X4983766Y8109761D1*
X4980868Y8106139D1*
X4975006Y8102517D1*
X4963348D1*
X4957553Y8106139D1*
X4954655Y8109761D1*
X4951691Y8117089D1*
Y8124333D1*
X4954655Y8131661D1*
X4960451Y8142527D1*
X4989628Y8178999D1*
X4948793D1*
X4922126Y8102433D2*
Y8178999D1*
X4895846D1*
X4887086Y8175293D1*
X4884189Y8171671D1*
X4881291Y8164427D1*
Y8153477D1*
X4884189Y8146149D1*
X4887086Y8142527D1*
X4895846Y8138905D1*
X4887086Y8135199D1*
X4884189Y8131577D1*
X4881291Y8124333D1*
Y8117005D1*
X4884189Y8109761D1*
X4887086Y8106055D1*
X4895846Y8102433D1*
X4922126D1*
Y8138905D2*
X4895846D1*
X5083797Y7902433D2*
X5121667D1*
Y7978999D1*
X5083797D1*
X5121667Y7938905D2*
X5098352D1*
X5057130Y7902433D2*
Y7978999D1*
X5036712D1*
X5027952Y7975293D1*
X5022090Y7968049D1*
X5019192Y7960721D1*
X5016295Y7949855D1*
Y7931577D1*
X5019192Y7920627D1*
X5022090Y7913383D1*
X5027952Y7906055D1*
X5036712Y7902433D1*
X5057130D1*
X4986663Y7920711D2*
Y7917089D1*
X4983766Y7909761D1*
X4980868Y7906139D1*
X4975006Y7902517D1*
X4963348D1*
X4957553Y7906139D1*
X4954655Y7909761D1*
X4951691Y7917089D1*
Y7924333D1*
X4954655Y7931661D1*
X4960451Y7942527D1*
X4989628Y7978999D1*
X4948793D1*
X4922126Y7902433D2*
X4881291D1*
X4922126Y7978999D1*
X4881291D1*
X1873300Y8577567D2*
X1835430D1*
Y8501001D1*
X1873300D1*
X1835430Y8541095D2*
X1858745D1*
X1899967Y8577567D2*
Y8501001D1*
X1920384D1*
X1929144Y8504707D1*
X1935007Y8511951D1*
X1937904Y8519279D1*
X1940802Y8530145D1*
Y8548423D1*
X1937904Y8559373D1*
X1935007Y8566617D1*
X1929144Y8573945D1*
X1920384Y8577567D1*
X1899967D1*
X1967469Y8562911D2*
X1973331Y8566617D1*
X1982091Y8577483D1*
Y8501001D1*
X2008758Y8577567D2*
Y8501001D1*
X2035038D1*
X2043798Y8504707D1*
X2046695Y8508329D1*
X2049593Y8515573D1*
Y8526523D1*
X2046695Y8533851D1*
X2043798Y8537473D1*
X2035038Y8541095D1*
X2043798Y8544801D1*
X2046695Y8548423D1*
X2049593Y8555667D1*
Y8562995D1*
X2046695Y8570239D1*
X2043798Y8573945D1*
X2035038Y8577567D1*
X2008758D1*
Y8541095D2*
X2035038D1*
X1873300Y8777567D2*
X1835430D1*
Y8701001D1*
X1873300D1*
X1835430Y8741095D2*
X1858745D1*
X1899967Y8777567D2*
Y8701001D1*
X1920384D1*
X1929144Y8704707D1*
X1935007Y8711951D1*
X1937904Y8719279D1*
X1940802Y8730145D1*
Y8748423D1*
X1937904Y8759373D1*
X1935007Y8766617D1*
X1929144Y8773945D1*
X1920384Y8777567D1*
X1899967D1*
X1967469Y8762911D2*
X1973331Y8766617D1*
X1982091Y8777483D1*
Y8701001D1*
X2008758Y8777567D2*
X2049593D1*
X2008758Y8701001D1*
X2049593D1*
X2763194Y9690089D2*
D84*
Y9588002D1*
Y9636631D2*
X2774874Y9651231D1*
X2782691Y9656060D1*
X2794371D1*
X2802098Y9651231D1*
X2805961Y9636631D1*
Y9588002D1*
X2853197Y9690089D2*
Y9607431D1*
X2857060Y9592943D1*
X2864877Y9588002D1*
X2872604D1*
X2841517Y9656060D2*
X2868740D1*
X2919839Y9690089D2*
Y9607431D1*
X2923702Y9592943D1*
X2931519Y9588002D1*
X2939246D1*
X2908159Y9656060D2*
X2935382D1*
X2974801D2*
Y9553972D1*
Y9641460D2*
X2982618Y9651118D1*
X2990345Y9656060D1*
X3002025D1*
X3009841Y9651118D1*
X3017568Y9641460D1*
X3021521Y9626860D1*
Y9617089D1*
X3017568Y9602602D1*
X3009841Y9592831D1*
X3002025Y9588002D1*
X2990345D1*
X2982618Y9592831D1*
X2974801Y9602602D1*
X3061030Y9656060D2*
X3057077Y9651118D1*
X3061030Y9646289D1*
X3064894Y9651118D1*
X3061030Y9656060D1*
Y9597772D2*
X3057077Y9592831D1*
X3061030Y9588002D1*
X3064894Y9592831D1*
X3061030Y9597772D1*
X3100449Y9588002D2*
X3154896Y9689977D1*
X3190451Y9588002D2*
X3244898Y9689977D1*
X3280454Y9656060D2*
Y9588002D1*
Y9636631D2*
X3292134Y9651231D1*
X3299950Y9656060D1*
X3311541D1*
X3319357Y9651231D1*
X3323221Y9636631D1*
Y9588002D1*
Y9636631D2*
X3334901Y9651231D1*
X3342717Y9656060D1*
X3354307D1*
X3362124Y9651231D1*
X3366077Y9636631D1*
Y9588002D1*
X3448263Y9656060D2*
Y9588002D1*
Y9641460D2*
X3440536Y9651231D1*
X3432720Y9656060D1*
X3421129D1*
X3413313Y9651231D1*
X3405586Y9641460D1*
X3401633Y9626860D1*
Y9617202D1*
X3405586Y9602602D1*
X3413313Y9592943D1*
X3421129Y9588002D1*
X3432720D1*
X3440536Y9592943D1*
X3448263Y9602602D1*
X3483818Y9690089D2*
Y9588002D1*
X3522722Y9656060D2*
X3483818Y9607431D1*
X3499362Y9626860D2*
X3526585Y9588002D1*
X3562141Y9626860D2*
X3608771D1*
Y9636631D1*
X3604908Y9646402D1*
X3601044Y9651231D1*
X3593228Y9656060D1*
X3581548D1*
X3573821Y9651231D1*
X3566004Y9641460D1*
X3562141Y9626860D1*
Y9617202D1*
X3566004Y9602602D1*
X3573821Y9592943D1*
X3581548Y9588002D1*
X3593228D1*
X3601044Y9592943D1*
X3608771Y9602602D1*
X3644326Y9656060D2*
Y9588002D1*
Y9626860D2*
X3648280Y9641460D1*
X3656006Y9651231D1*
X3663823Y9656060D1*
X3675503D1*
X3711059D2*
Y9553972D1*
Y9641460D2*
X3718875Y9651118D1*
X3726602Y9656060D1*
X3738282D1*
X3746099Y9651118D1*
X3753825Y9641460D1*
X3757779Y9626860D1*
Y9617089D1*
X3753825Y9602602D1*
X3746099Y9592831D1*
X3738282Y9588002D1*
X3726602D1*
X3718875Y9592831D1*
X3711059Y9602602D1*
X3793334Y9656060D2*
Y9588002D1*
Y9636631D2*
X3805014Y9651231D1*
X3812831Y9656060D1*
X3824421D1*
X3832238Y9651231D1*
X3836101Y9636631D1*
Y9588002D1*
X3871657Y9656060D2*
Y9553972D1*
Y9641460D2*
X3879473Y9651118D1*
X3887200Y9656060D1*
X3898880D1*
X3906697Y9651118D1*
X3914423Y9641460D1*
X3918377Y9626860D1*
Y9617089D1*
X3914423Y9602602D1*
X3906697Y9592831D1*
X3898880Y9588002D1*
X3887200D1*
X3879473Y9592831D1*
X3871657Y9602602D1*
X3957795Y9597772D2*
X3953932Y9592831D1*
X3957795Y9588002D1*
X3961749Y9592831D1*
X3957795Y9597772D1*
X4016711Y9656060D2*
X4008984Y9651231D1*
X4001168Y9641460D1*
X3997304Y9626860D1*
Y9617202D1*
X4001168Y9602602D1*
X4008984Y9592943D1*
X4016711Y9588002D1*
X4028391D1*
X4036208Y9592943D1*
X4043934Y9602602D1*
X4047888Y9617202D1*
Y9626860D1*
X4043934Y9641460D1*
X4036208Y9651231D1*
X4028391Y9656060D1*
X4016711D1*
X4083443D2*
Y9588002D1*
Y9626860D2*
X4087396Y9641460D1*
X4095123Y9651231D1*
X4102940Y9656060D1*
X4114620D1*
X4196806Y9651231D2*
Y9573402D1*
X4192942Y9558914D1*
X4189079Y9553972D1*
X4181262Y9549143D1*
X4169582D1*
X4161855Y9553972D1*
X4196806Y9636631D2*
X4189079Y9646289D1*
X4181262Y9651231D1*
X4169582D1*
X4161855Y9646289D1*
X4154039Y9636631D1*
X4150175Y9622031D1*
Y9612260D1*
X4154039Y9597772D1*
X4161855Y9588002D1*
X4169582Y9583172D1*
X4181262D1*
X4189079Y9588002D1*
X4196806Y9597772D1*
X4114503Y2261119D2*
Y2159032D1*
X4141726D1*
X4153406Y2163973D1*
X4161223Y2173632D1*
X4165086Y2183403D1*
X4168950Y2197890D1*
Y2222261D1*
X4165086Y2236861D1*
X4161223Y2246519D1*
X4153406Y2256290D1*
X4141726Y2261119D1*
X4114503D1*
X4204505Y2197890D2*
X4251135D1*
Y2207661D1*
X4247272Y2217432D1*
X4243409Y2222261D1*
X4235592Y2227090D1*
X4223912D1*
X4216185Y2222261D1*
X4208369Y2212490D1*
X4204505Y2197890D1*
Y2188232D1*
X4208369Y2173632D1*
X4216185Y2163973D1*
X4223912Y2159032D1*
X4235592D1*
X4243409Y2163973D1*
X4251135Y2173632D1*
X4329458Y2212490D2*
X4325594Y2222261D1*
X4313914Y2227090D1*
X4302234D1*
X4290554Y2222261D1*
X4286691Y2212490D1*
X4290554Y2202832D1*
X4298371Y2197890D1*
X4317778Y2193061D1*
X4325594Y2188232D1*
X4329458Y2178461D1*
Y2173632D1*
X4325594Y2163973D1*
X4313914Y2159032D1*
X4302234D1*
X4290554Y2163973D1*
X4286691Y2173632D1*
X4365013Y2261119D2*
X4368877Y2256290D1*
X4372830Y2261119D1*
X4368877Y2266061D1*
X4365013Y2261119D1*
X4368877Y2227090D2*
Y2159032D1*
X4455016Y2222261D2*
Y2144432D1*
X4451152Y2129944D1*
X4447289Y2125003D1*
X4439472Y2120173D1*
X4427792D1*
X4420065Y2125003D1*
X4455016Y2207661D2*
X4447289Y2217319D1*
X4439472Y2222261D1*
X4427792D1*
X4420065Y2217319D1*
X4412249Y2207661D1*
X4408385Y2193061D1*
Y2183290D1*
X4412249Y2168803D1*
X4420065Y2159032D1*
X4427792Y2154203D1*
X4439472D1*
X4447289Y2159032D1*
X4455016Y2168803D1*
X4490571Y2227090D2*
Y2159032D1*
Y2207661D2*
X4502251Y2222261D1*
X4510068Y2227090D1*
X4521658D1*
X4529474Y2222261D1*
X4533338Y2207661D1*
Y2159032D1*
X4568893Y2197890D2*
X4615524D1*
Y2207661D1*
X4611660Y2217432D1*
X4607797Y2222261D1*
X4599980Y2227090D1*
X4588300D1*
X4580573Y2222261D1*
X4572757Y2212490D1*
X4568893Y2197890D1*
Y2188232D1*
X4572757Y2173632D1*
X4580573Y2163973D1*
X4588300Y2159032D1*
X4599980D1*
X4607797Y2163973D1*
X4615524Y2173632D1*
X4697709Y2261119D2*
Y2159032D1*
Y2212490D2*
X4689982Y2222261D1*
X4682166Y2227090D1*
X4670486D1*
X4662759Y2222261D1*
X4654942Y2212490D1*
X4651079Y2197890D1*
Y2188232D1*
X4654942Y2173632D1*
X4662759Y2163973D1*
X4670486Y2159032D1*
X4682166D1*
X4689982Y2163973D1*
X4697709Y2173632D1*
X4822728Y2261119D2*
Y2159032D1*
Y2212490D2*
X4830545Y2222261D1*
X4838271Y2227090D1*
X4849951D1*
X4857678Y2222261D1*
X4865495Y2212490D1*
X4869358Y2197890D1*
Y2188232D1*
X4865495Y2173632D1*
X4857678Y2163973D1*
X4849951Y2159032D1*
X4838271D1*
X4830545Y2163973D1*
X4822728Y2173632D1*
X4908867Y2227090D2*
X4932137Y2159032D1*
X4924410Y2139603D1*
X4916594Y2129832D1*
X4908867Y2125003D1*
X4904914D1*
X4955497Y2227090D2*
X4932137Y2159032D1*
X4000445Y2049059D2*
Y1946971D1*
X4027669D1*
X4039349Y1951913D1*
X4047165Y1961571D1*
X4051029Y1971342D1*
X4054892Y1985830D1*
Y2010201D1*
X4051029Y2024801D1*
X4047165Y2034459D1*
X4039349Y2044230D1*
X4027669Y2049059D1*
X4000445D1*
X4109854Y2015030D2*
X4102128Y2010201D1*
X4094311Y2000430D1*
X4090448Y1985830D1*
Y1976171D1*
X4094311Y1961571D1*
X4102128Y1951913D1*
X4109854Y1946971D1*
X4121534D1*
X4129351Y1951913D1*
X4137078Y1961571D1*
X4141031Y1976171D1*
Y1985830D1*
X4137078Y2000430D1*
X4129351Y2010201D1*
X4121534Y2015030D1*
X4109854D1*
X4176587D2*
Y1946971D1*
Y1995601D2*
X4188267Y2010201D1*
X4196083Y2015030D1*
X4207673D1*
X4215490Y2010201D1*
X4219353Y1995601D1*
Y1946971D1*
Y1995601D2*
X4231033Y2010201D1*
X4238850Y2015030D1*
X4250440D1*
X4258257Y2010201D1*
X4262210Y1995601D1*
Y1946971D1*
X4297765Y2049059D2*
X4301629Y2044230D1*
X4305582Y2049059D1*
X4301629Y2054001D1*
X4297765Y2049059D1*
X4301629Y2015030D2*
Y1946971D1*
X4341138Y2015030D2*
Y1946971D1*
Y1995601D2*
X4352818Y2010201D1*
X4360634Y2015030D1*
X4372224D1*
X4380041Y2010201D1*
X4383904Y1995601D1*
Y1946971D1*
X4419460Y2049059D2*
X4423323Y2044230D1*
X4427277Y2049059D1*
X4423323Y2054001D1*
X4419460Y2049059D1*
X4423323Y2015030D2*
Y1946971D1*
X4509552Y2000430D2*
X4501736Y2010201D1*
X4493919Y2015030D1*
X4482329D1*
X4474512Y2010201D1*
X4466785Y2000430D1*
X4462832Y1985830D1*
Y1976171D1*
X4466785Y1961571D1*
X4474512Y1951913D1*
X4482329Y1946971D1*
X4493919D1*
X4501736Y1951913D1*
X4509552Y1961571D1*
X4692881Y2024801D2*
X4689018Y2034459D1*
X4681201Y2044230D1*
X4673474Y2049059D1*
X4657931D1*
X4650114Y2044230D1*
X4642388Y2034459D1*
X4638434Y2024801D1*
X4634571Y2010201D1*
Y1985830D1*
X4638434Y1971342D1*
X4642388Y1961571D1*
X4650114Y1951913D1*
X4657931Y1946971D1*
X4673474D1*
X4681201Y1951913D1*
X4689018Y1961571D1*
X4692881Y1971342D1*
X4728437Y2049059D2*
Y1946971D1*
X4763992Y2049059D2*
X4767856Y2044230D1*
X4771809Y2049059D1*
X4767856Y2054001D1*
X4763992Y2049059D1*
X4767856Y2015030D2*
Y1946971D1*
X4838451Y2049059D2*
X4830724D1*
X4822908Y2044230D1*
X4819044Y2029630D1*
Y1946971D1*
X4807364Y2015030D2*
X4834588D1*
X4885687Y2049059D2*
Y1966401D1*
X4889550Y1951913D1*
X4897367Y1946971D1*
X4905093D1*
X4874007Y2015030D2*
X4901230D1*
X4960056D2*
X4952329Y2010201D1*
X4944512Y2000430D1*
X4940649Y1985830D1*
Y1976171D1*
X4944512Y1961571D1*
X4952329Y1951913D1*
X4960056Y1946971D1*
X4971736D1*
X4979552Y1951913D1*
X4987279Y1961571D1*
X4991232Y1976171D1*
Y1985830D1*
X4987279Y2000430D1*
X4979552Y2010201D1*
X4971736Y2015030D1*
X4960056D1*
X5026788D2*
Y1946971D1*
Y1995601D2*
X5038468Y2010201D1*
X5046285Y2015030D1*
X5057875D1*
X5065691Y2010201D1*
X5069555Y1995601D1*
Y1946971D1*
X4931078Y16584801D2*
D83*
Y16650417D1*
X4957290Y16617651D2*
X4904798D1*
X4878131Y16593940D2*
X4872268Y16590234D1*
X4863508Y16579368D1*
Y16655849D1*
X4833877Y16597562D2*
Y16593940D1*
X4830979Y16586612D1*
X4828082Y16582990D1*
X4822219Y16579368D1*
X4810562D1*
X4804767Y16582990D1*
X4801869Y16586612D1*
X4798904Y16593940D1*
Y16601184D1*
X4801869Y16608512D1*
X4807664Y16619378D1*
X4836842Y16655849D1*
X4796007D1*
X4769340Y16579284D2*
X4746025Y16655849D1*
X4722710Y16579284D1*
X4555635Y16597478D2*
X4558533Y16590234D1*
X4564395Y16582906D1*
X4570191Y16579284D1*
X4581848D1*
X4587711Y16582906D1*
X4593506Y16590234D1*
X4596471Y16597478D1*
X4599368Y16608428D1*
Y16626706D1*
X4596471Y16637571D1*
X4593506Y16644899D1*
X4587711Y16652143D1*
X4581848Y16655849D1*
X4570191D1*
X4564395Y16652143D1*
X4558533Y16644899D1*
X4555635Y16637571D1*
Y16626706D1*
X4570191D1*
X4488134Y16579284D2*
Y16655849D1*
X4528969Y16579284D1*
Y16655849D1*
X4461467Y16579284D2*
Y16655849D1*
X4441049D1*
X4432289Y16652143D1*
X4426427Y16644899D1*
X4423529Y16637571D1*
X4420632Y16626706D1*
Y16608428D1*
X4423529Y16597478D1*
X4426427Y16590234D1*
X4432289Y16582906D1*
X4441049Y16579284D1*
X4461467D1*
X1187907Y15326007D2*
X1158797D1*
X1155899Y15293241D1*
X1158797Y15296863D1*
X1167557Y15300569D1*
X1176249D1*
X1185009Y15296863D1*
X1190872Y15289619D1*
X1193769Y15278669D1*
Y15271425D1*
X1190872Y15260475D1*
X1185009Y15253147D1*
X1176249Y15249525D1*
X1167557D1*
X1158797Y15253147D1*
X1155899Y15256853D1*
X1152934Y15264097D1*
X1220436Y15326091D2*
X1243751Y15249525D1*
X1267066Y15326091D1*
X5677289Y15311435D2*
X5683152Y15315141D1*
X5691912Y15326007D1*
Y15249525D1*
X5721544Y15307813D2*
Y15311435D1*
X5724441Y15318763D1*
X5727339Y15322385D1*
X5733201Y15326007D1*
X5744859D1*
X5750654Y15322385D1*
X5753551Y15318763D1*
X5756516Y15311435D1*
Y15304191D1*
X5753551Y15296863D1*
X5747756Y15285997D1*
X5718579Y15249525D1*
X5759414D1*
X5786080Y15326091D2*
X5809395Y15249525D1*
X5832711Y15326091D1*
X4035603Y17022103D2*
X4038501Y17014859D1*
X4044363Y17007531D1*
X4050159Y17003909D1*
X4061816D1*
X4067679Y17007531D1*
X4073474Y17014859D1*
X4076439Y17022103D1*
X4079336Y17033053D1*
Y17051331D1*
X4076439Y17062197D1*
X4073474Y17069525D1*
X4067679Y17076769D1*
X4061816Y17080475D1*
X4050159D1*
X4044363Y17076769D1*
X4038501Y17069525D1*
X4035603Y17062197D1*
X4008937Y17003909D2*
Y17080475D1*
X3968102Y17003909D2*
Y17080475D1*
X4008937Y17040381D2*
X3968102D1*
X3903565Y17003909D2*
X3941435D1*
Y17080475D1*
X3903565D1*
X3941435Y17040381D2*
X3918120D1*
X3833166Y17022103D2*
X3836063Y17014859D1*
X3841926Y17007531D1*
X3847721Y17003909D1*
X3859378D1*
X3865241Y17007531D1*
X3871036Y17014859D1*
X3874001Y17022103D1*
X3876898Y17033053D1*
Y17051331D1*
X3874001Y17062197D1*
X3871036Y17069525D1*
X3865241Y17076769D1*
X3859378Y17080475D1*
X3847721D1*
X3841926Y17076769D1*
X3836063Y17069525D1*
X3833166Y17062197D1*
X3806499Y17003909D2*
Y17080475D1*
X3765664Y17003909D2*
X3806499Y17054953D1*
X3791944Y17036675D2*
X3765664Y17080475D1*
X4164551Y17174131D2*
X4138271D1*
X4129579Y17170509D1*
X4126614Y17166803D1*
X4123716Y17159559D1*
Y17148609D1*
X4126614Y17141365D1*
X4129579Y17137659D1*
X4138271Y17134037D1*
X4164551D1*
Y17210603D1*
X4079529Y17134037D2*
X4085392Y17137659D1*
X4091187Y17144987D1*
X4094152Y17152231D1*
X4097049Y17163181D1*
Y17181459D1*
X4094152Y17192325D1*
X4091187Y17199653D1*
X4085392Y17206897D1*
X4079529Y17210603D1*
X4067872D1*
X4062077Y17206897D1*
X4056214Y17199653D1*
X4053317Y17192325D1*
X4050419Y17181459D1*
Y17163181D1*
X4053317Y17152231D1*
X4056214Y17144987D1*
X4062077Y17137659D1*
X4067872Y17134037D1*
X4079529D1*
X4023753D2*
Y17210603D1*
X3988780D1*
X3915416D2*
X3938798Y17134037D1*
X3962113Y17210603D1*
X3953353Y17185081D2*
X3924176D1*
X3888749Y17170509D2*
X3862537D1*
X3853777Y17166803D1*
X3850812Y17163181D1*
X3847914Y17155937D1*
Y17148609D1*
X3850812Y17141365D1*
X3853777Y17137659D1*
X3862537Y17134037D1*
X3888749D1*
Y17210603D1*
X3868332Y17170509D2*
X3847914Y17210603D1*
X3821247Y17134037D2*
Y17210603D1*
X3774163Y17134037D2*
Y17210603D1*
X3794581Y17134037D2*
X3753746D1*
X3727079D2*
X3703764Y17170509D1*
Y17210603D1*
X3680449Y17134037D2*
X3703764Y17170509D1*
X2685299Y16508079D2*
D84*
X2694957Y16511942D1*
X2704728Y16519759D1*
X2709557Y16527486D1*
Y16543029D1*
X2704728Y16550846D1*
X2694957Y16558572D1*
X2685299Y16562526D1*
X2670699Y16566389D1*
X2646328D1*
X2631840Y16562526D1*
X2622070Y16558572D1*
X2612411Y16550846D1*
X2607470Y16543029D1*
Y16527486D1*
X2612411Y16519759D1*
X2622070Y16511942D1*
X2631840Y16508079D1*
X2646328D1*
Y16527486D1*
X2709557Y16418076D2*
X2607470D1*
X2709557Y16472523D1*
X2607470D1*
X2709557Y16382521D2*
X2607470D1*
Y16355297D1*
X2612411Y16343617D1*
X2622070Y16335801D1*
X2631840Y16331937D1*
X2646328Y16328074D1*
X2670699D1*
X2685299Y16331937D1*
X2694957Y16335801D1*
X2704728Y16343617D1*
X2709557Y16355297D1*
Y16382521D1*
X1955621Y16568889D2*
X1853534Y16537802D1*
X1955621Y16506715D1*
X1948265Y16436210D2*
X1860777D1*
X1904465Y16471160D2*
Y16401170D1*
X2282490Y10843813D2*
Y10800125D1*
X2287432Y10785525D1*
X2292261Y10780584D1*
X2301919Y10775754D1*
X2311690D1*
X2321349Y10780584D1*
X2326290Y10785525D1*
X2331119Y10800125D1*
Y10843813D1*
X2229032D1*
X2282490Y10809784D2*
X2229032Y10775754D1*
X2267890Y10731310D2*
Y10673022D1*
X2277661D1*
X2287432Y10677851D1*
X2292261Y10682681D1*
X2297090Y10692451D1*
Y10707051D1*
X2292261Y10716710D1*
X2282490Y10726481D1*
X2267890Y10731310D1*
X2258232D1*
X2243632Y10726481D1*
X2233973Y10716710D1*
X2229032Y10707051D1*
Y10692451D1*
X2233973Y10682681D1*
X2243632Y10673022D1*
X2297090Y10628578D2*
X2229032Y10599378D1*
X2297090Y10570290D1*
X2229032Y10336187D2*
X2331119Y10375158D1*
X2229032Y10414016D1*
X2263061Y10399416D2*
Y10350787D1*
X2094688Y10785371D2*
X2099517D1*
X2109288Y10780542D1*
X2114117Y10775713D1*
X2118947Y10765942D1*
Y10746513D1*
X2114117Y10736854D1*
X2109288Y10732025D1*
X2099517Y10727084D1*
X2089859D1*
X2080088Y10732025D1*
X2065601Y10741684D1*
X2016971Y10790313D1*
Y10722254D1*
X2118947Y10648610D2*
X2114117Y10663210D1*
X2099517Y10672981D1*
X2075259Y10677810D1*
X2060659D1*
X2036401Y10672981D1*
X2021801Y10663210D1*
X2016971Y10648610D1*
Y10638951D1*
X2021801Y10624351D1*
X2036401Y10614693D1*
X2060659Y10609751D1*
X2075259D1*
X2099517Y10614693D1*
X2114117Y10624351D1*
X2118947Y10638951D1*
Y10648610D1*
X2099517Y10614693D2*
X2036401Y10672981D1*
X2094688Y10560365D2*
X2099517D1*
X2109288Y10555536D1*
X2114117Y10550707D1*
X2118947Y10540936D1*
Y10521507D1*
X2114117Y10511849D1*
X2109288Y10507019D1*
X2099517Y10502078D1*
X2089859D1*
X2080088Y10507019D1*
X2065601Y10516678D1*
X2016971Y10565307D1*
Y10497249D1*
X2104459Y10394516D2*
X2114117Y10399346D1*
X2118947Y10413946D1*
Y10423604D1*
X2114117Y10438204D1*
X2099517Y10447975D1*
X2075259Y10452804D1*
X2051001D1*
X2031571Y10447975D1*
X2021801Y10438204D1*
X2016971Y10423604D1*
Y10418775D1*
X2021801Y10404287D1*
X2031571Y10394516D1*
X2046171Y10389687D1*
X2051001D1*
X2065601Y10394516D1*
X2075259Y10404287D1*
X2080088Y10418775D1*
Y10423604D1*
X2075259Y10438204D1*
X2065601Y10447975D1*
X2051001Y10452804D1*
X4485029Y15759767D2*
X4436512D1*
X4431683Y15716079D1*
X4436512Y15720908D1*
X4451112Y15725850D1*
X4465599D1*
X4480199Y15720908D1*
X4489970Y15711250D1*
X4494799Y15696650D1*
Y15686992D1*
X4489970Y15672392D1*
X4480199Y15662621D1*
X4465599Y15657792D1*
X4451112D1*
X4436512Y15662621D1*
X4431683Y15667562D1*
X4426741Y15677221D1*
X4539244Y15740338D2*
X4549015Y15745279D1*
X4563615Y15759767D1*
Y15657792D1*
X4666347Y15745279D2*
X4661518Y15754938D1*
X4646918Y15759767D1*
X4637259D1*
X4622659Y15754938D1*
X4612888Y15740338D1*
X4608059Y15716079D1*
Y15691821D1*
X4612888Y15672392D1*
X4622659Y15662621D1*
X4637259Y15657792D1*
X4642088D1*
X4656576Y15662621D1*
X4666347Y15672392D1*
X4671176Y15686992D1*
Y15691821D1*
X4666347Y15706421D1*
X4656576Y15716079D1*
X4642088Y15720908D1*
X4637259D1*
X4622659Y15716079D1*
X4612888Y15706421D1*
X4608059Y15691821D1*
X4744821Y15759767D2*
X4730221Y15754938D1*
X4720450Y15740338D1*
X4715621Y15716079D1*
Y15701479D1*
X4720450Y15677221D1*
X4730221Y15662621D1*
X4744821Y15657792D1*
X4754479D1*
X4769079Y15662621D1*
X4778737Y15677221D1*
X4783679Y15701479D1*
Y15716079D1*
X4778737Y15740338D1*
X4769079Y15754938D1*
X4754479Y15759767D1*
X4744821D1*
X4778737Y15740338D2*
X4720450Y15677221D1*
X4431683Y15535508D2*
Y15540338D1*
X4436512Y15550108D1*
X4441341Y15554938D1*
X4451112Y15559767D1*
X4470541D1*
X4480199Y15554938D1*
X4485029Y15550108D1*
X4489970Y15540338D1*
Y15530679D1*
X4485029Y15520908D1*
X4475370Y15506421D1*
X4426741Y15457792D1*
X4494799D1*
X4539244Y15540338D2*
X4549015Y15545279D1*
X4563615Y15559767D1*
Y15457792D1*
X4666347Y15545279D2*
X4661518Y15554938D1*
X4646918Y15559767D1*
X4637259D1*
X4622659Y15554938D1*
X4612888Y15540338D1*
X4608059Y15516079D1*
Y15491821D1*
X4612888Y15472392D1*
X4622659Y15462621D1*
X4637259Y15457792D1*
X4642088D1*
X4656576Y15462621D1*
X4666347Y15472392D1*
X4671176Y15486992D1*
Y15491821D1*
X4666347Y15506421D1*
X4656576Y15516079D1*
X4642088Y15520908D1*
X4637259D1*
X4622659Y15516079D1*
X4612888Y15506421D1*
X4608059Y15491821D1*
X4744821Y15559767D2*
X4730221Y15554938D1*
X4720450Y15540338D1*
X4715621Y15516079D1*
Y15501479D1*
X4720450Y15477221D1*
X4730221Y15462621D1*
X4744821Y15457792D1*
X4754479D1*
X4769079Y15462621D1*
X4778737Y15477221D1*
X4783679Y15501479D1*
Y15516079D1*
X4778737Y15540338D1*
X4769079Y15554938D1*
X4754479Y15559767D1*
X4744821D1*
X4778737Y15540338D2*
X4720450Y15477221D1*
X5091001Y1719622D2*
D83*
X5167567Y1743005D1*
X5091001Y1766320D1*
X5116523Y1757560D2*
Y1728382D1*
X5152911Y1692956D2*
X5156617Y1687093D1*
X5167483Y1678333D1*
X5091001D1*
X4091001Y1760912D2*
X4167567Y1784294D1*
X4091001Y1807609D1*
X4116523Y1798849D2*
Y1769672D1*
X4152911Y1734245D2*
X4156617Y1728382D1*
X4167483Y1719622D1*
X4091001D1*
X4152911Y1692956D2*
X4156617Y1687093D1*
X4167483Y1678333D1*
X4091001D1*
X3791001Y1787124D2*
X3867567Y1810507D1*
X3791001Y1833822D1*
X3816523Y1825062D2*
Y1795884D1*
X3852911Y1760458D2*
X3856617Y1754595D1*
X3867483Y1745835D1*
X3791001D1*
X3849289Y1716203D2*
X3852911D1*
X3860239Y1713306D1*
X3863861Y1710408D1*
X3867483Y1704546D1*
Y1692888D1*
X3863861Y1687093D1*
X3860239Y1684196D1*
X3852911Y1681231D1*
X3845667D1*
X3838339Y1684196D1*
X3827473Y1689991D1*
X3791001Y1719168D1*
Y1678333D1*
X1791001Y1813337D2*
X1867567Y1836719D1*
X1791001Y1860034D1*
X1816523Y1851274D2*
Y1822097D1*
X1867483Y1780808D2*
Y1748800D1*
X1838339Y1766253D1*
Y1757493D1*
X1834717Y1751698D1*
X1831095Y1748800D1*
X1820145Y1745835D1*
X1812901D1*
X1801951Y1748800D1*
X1794623Y1754595D1*
X1791001Y1763355D1*
Y1772115D1*
X1794623Y1780808D1*
X1798329Y1783705D1*
X1805573Y1786670D1*
X1849289Y1716203D2*
X1852911D1*
X1860239Y1713306D1*
X1863861Y1710408D1*
X1867483Y1704546D1*
Y1692888D1*
X1863861Y1687093D1*
X1860239Y1684196D1*
X1852911Y1681231D1*
X1845667D1*
X1838339Y1684196D1*
X1827473Y1689991D1*
X1791001Y1719168D1*
Y1678333D1*
M02*
