G04 DipTrace 5.2.0.4*
G04 BottomSilk.gbr*
%MOMM*%
G04 #@! TF.FileFunction,Legend,Bot*
G04 #@! TF.Part,Single*
%ADD10C,0.1*%
%ADD13C,0.12*%
%ADD16C,0.127*%
%ADD119C,0.22222*%
%ADD120C,0.16667*%
%ADD124C,0.38889*%
%FSLAX35Y35*%
G04*
G71*
G90*
G75*
G01*
G04 BotSilk*
%LPD*%
X5048998Y4853001D2*
D13*
X5020998Y4852999D1*
X5049002Y4757001D2*
X5021002Y4756999D1*
X5048998Y4563001D2*
X5020998Y4562999D1*
X5049002Y4467001D2*
X5021002Y4466999D1*
X5048998Y4708001D2*
X5020998Y4707999D1*
X5049002Y4612001D2*
X5021002Y4611999D1*
X6117507Y5054997D2*
D10*
X6197500Y5055003D1*
X6117500Y5139997D2*
X6197493Y5140003D1*
X5465006Y4859998D2*
X5544999Y4860002D1*
X5465001Y4944998D2*
X5544994Y4945002D1*
X5414997Y4747493D2*
X5415003Y4667500D1*
X5499997Y4747500D2*
X5500003Y4667507D1*
X5932498Y4942495D2*
X5932502Y4862501D1*
X6017498Y4942499D2*
X6017502Y4862505D1*
X6182508Y4394996D2*
X6262501Y4395004D1*
X6182499Y4479996D2*
X6262492Y4480004D1*
X6182507Y4299996D2*
X6262501Y4300004D1*
X6182499Y4384996D2*
X6262493Y4385004D1*
X5432493Y5560004D2*
X5352500Y5559996D1*
X5432500Y5475004D2*
X5352507Y5474996D1*
X5074999Y5259998D2*
X4995006Y5260002D1*
X5074994Y5174998D2*
X4995001Y5175002D1*
X5964994Y5262502D2*
X5885001Y5262498D1*
X5964999Y5177502D2*
X5885006Y5177498D1*
X5932499Y5127495D2*
X5932501Y5047502D1*
X6017499Y5127498D2*
X6017501Y5047505D1*
X5532505Y5149999D2*
X5612498Y5150001D1*
X5532502Y5234999D2*
X5612495Y5235001D1*
X5432494Y5467502D2*
X5352501Y5467498D1*
X5432499Y5382502D2*
X5352506Y5382498D1*
X5048997Y4998001D2*
D13*
X5020997Y4997999D1*
X5049003Y4902001D2*
X5021003Y4901999D1*
X5049003Y5145499D2*
X5021003Y5145501D1*
X5048997Y5049499D2*
X5020997Y5049501D1*
X6201005Y5439499D2*
X6229005Y5439501D1*
X6200995Y5535499D2*
X6228995Y5535501D1*
X5878236Y3188334D2*
D10*
X5821676Y3131767D1*
X5938344Y3128233D2*
X5881784Y3071666D1*
X5491676Y3118227D2*
X5548243Y3061666D1*
X5551777Y3178334D2*
X5608344Y3121773D1*
X5549283Y2739166D2*
X5605844Y2795733D1*
X5489176Y2799267D2*
X5545737Y2855834D1*
X5962512Y2760006D2*
X5962508Y2839999D1*
X5877512Y2760001D2*
X5877508Y2839994D1*
X5990004Y2482502D2*
X5910011Y2482498D1*
X5990009Y2397502D2*
X5910016Y2397498D1*
X5481676Y2968226D2*
X5538244Y2911666D1*
X5541776Y3028334D2*
X5598344Y2971774D1*
X5127512Y2520006D2*
X5127508Y2599999D1*
X5042512Y2520001D2*
X5042508Y2599994D1*
X5050008Y3399995D2*
X5050012Y3320001D1*
X5135008Y3399999D2*
X5135012Y3320005D1*
X5160007Y2957497D2*
X5240000Y2957503D1*
X5160000Y3042497D2*
X5239993Y3042503D1*
X6110004Y3622502D2*
X6030011Y3622498D1*
X6110009Y3537502D2*
X6030016Y3537498D1*
X5710006Y3517498D2*
X5789999Y3517502D1*
X5710001Y3602498D2*
X5789994Y3602502D1*
X5641676Y3128227D2*
X5698243Y3071666D1*
X5701777Y3188334D2*
X5758344Y3131773D1*
X5310016Y3517498D2*
X5390009Y3517502D1*
X5310011Y3602498D2*
X5390004Y3602502D1*
X6347508Y3399995D2*
X6347512Y3320001D1*
X6432508Y3399999D2*
X6432512Y3320005D1*
X6297516Y2477497D2*
X6377509Y2477503D1*
X6297511Y2562497D2*
X6377504Y2562503D1*
X6307508Y2919995D2*
X6307512Y2840001D1*
X6392508Y2919999D2*
X6392512Y2840005D1*
X5910004Y2982502D2*
X5830011Y2982498D1*
X5910009Y2897502D2*
X5830016Y2897498D1*
X5872512Y2760006D2*
X5872508Y2839999D1*
X5787512Y2760001D2*
X5787508Y2839994D1*
X5681784Y2741666D2*
X5738344Y2798234D1*
X5621676Y2801766D2*
X5678236Y2858334D1*
X6107508Y2329994D2*
X6107512Y2250001D1*
X6192508Y2329999D2*
X6192512Y2250006D1*
X5387498Y2329994D2*
X5387502Y2250001D1*
X5472498Y2329999D2*
X5472502Y2250006D1*
X5037513Y3320007D2*
X5037507Y3400000D1*
X4952513Y3320000D2*
X4952507Y3399993D1*
X4940013Y3320007D2*
X4940007Y3400000D1*
X4855013Y3320000D2*
X4855007Y3399993D1*
X6250007Y3777497D2*
X6330000Y3777503D1*
X6250000Y3862497D2*
X6329993Y3862503D1*
X6250007Y3874997D2*
X6330000Y3875003D1*
X6250000Y3959997D2*
X6329993Y3960003D1*
X5080010Y2787494D2*
X5160003Y2787506D1*
X5079997Y2872494D2*
X5159990Y2872506D1*
X5387509Y2919996D2*
X5387511Y2840002D1*
X5472509Y2919998D2*
X5472511Y2840004D1*
X6477508Y3039994D2*
X6477512Y2960001D1*
X6562508Y3039999D2*
X6562512Y2960006D1*
X6071676Y2978226D2*
X6128244Y2921666D1*
X6131776Y3038334D2*
X6188344Y2981774D1*
X5890002Y4717505D2*
X5889998Y4797498D1*
X5805002Y4717502D2*
X5804998Y4797495D1*
X5630002Y4717505D2*
X5629998Y4797498D1*
X5545002Y4717502D2*
X5544998Y4797495D1*
X6037495Y4815002D2*
X5957501Y4814998D1*
X6037499Y4730002D2*
X5957505Y4729998D1*
X5465005Y5054999D2*
X5544998Y5055001D1*
X5465002Y5139999D2*
X5544995Y5140001D1*
X5532506Y5249997D2*
X5612499Y5250003D1*
X5532501Y5334997D2*
X5612494Y5335003D1*
X4222012Y3009495D2*
D13*
X4195012Y3009492D1*
X4194985Y3295492D1*
X4221985Y3295495D1*
X4338012Y3009505D2*
X4365012Y3009508D1*
X4364985Y3295508D1*
X4337985Y3295505D1*
G36*
X4279977Y3383500D2*
X4276714Y3383714D1*
X4273507Y3384351D1*
X4270410Y3385402D1*
X4267477Y3386848D1*
X4264758Y3388665D1*
X4262299Y3390821D1*
X4260143Y3393279D1*
X4258326Y3395998D1*
X4256879Y3398931D1*
X4255828Y3402027D1*
X4255189Y3405235D1*
X4254975Y3408498D1*
X4255189Y3411761D1*
X4255826Y3414968D1*
X4256877Y3418065D1*
X4258323Y3420998D1*
X4260140Y3423717D1*
X4262296Y3426176D1*
X4264754Y3428332D1*
X4267473Y3430149D1*
X4270406Y3431596D1*
X4273502Y3432648D1*
X4276710Y3433286D1*
X4279973Y3433500D1*
D1*
X4283236Y3433286D1*
X4286443Y3432649D1*
X4289540Y3431598D1*
X4292473Y3430152D1*
X4295192Y3428335D1*
X4297651Y3426179D1*
X4299808Y3423721D1*
X4301625Y3421002D1*
X4303071Y3418069D1*
X4304123Y3414973D1*
X4304761Y3411765D1*
X4304975Y3408502D1*
X4304762Y3405239D1*
X4304124Y3402032D1*
X4303073Y3398935D1*
X4301627Y3396002D1*
X4299810Y3393283D1*
X4297654Y3390824D1*
X4295196Y3388668D1*
X4292477Y3386851D1*
X4289544Y3385404D1*
X4286448Y3384352D1*
X4283241Y3383714D1*
X4279977Y3383500D1*
D1*
G37*
X1679480Y5935998D2*
D16*
X1820480Y5936001D1*
X1820520Y3764001D2*
X1679520Y3763998D1*
G36*
X1974982Y5810004D2*
X1972372Y5810175D1*
X1969806Y5810685D1*
X1967329Y5811526D1*
X1964982Y5812683D1*
X1962807Y5814136D1*
X1960840Y5815861D1*
X1959115Y5817828D1*
X1957662Y5820003D1*
X1956505Y5822350D1*
X1955664Y5824827D1*
X1955153Y5827393D1*
X1954982Y5830003D1*
X1955153Y5832614D1*
X1955663Y5835180D1*
X1956504Y5837657D1*
X1957661Y5840003D1*
X1959115Y5842179D1*
X1960840Y5844146D1*
X1962806Y5845871D1*
X1964982Y5847324D1*
X1967328Y5848481D1*
X1969805Y5849322D1*
X1972371Y5849833D1*
X1974982Y5850004D1*
D1*
X1977592Y5849833D1*
X1980158Y5849322D1*
X1982635Y5848481D1*
X1984982Y5847324D1*
X1987157Y5845871D1*
X1989124Y5844146D1*
X1990849Y5842179D1*
X1992302Y5840004D1*
X1993459Y5837658D1*
X1994300Y5835180D1*
X1994811Y5832615D1*
X1994982Y5830004D1*
X1994811Y5827393D1*
X1994301Y5824828D1*
X1993460Y5822350D1*
X1992303Y5820004D1*
X1990849Y5817829D1*
X1989124Y5815862D1*
X1987158Y5814137D1*
X1984982Y5812683D1*
X1982636Y5811526D1*
X1980159Y5810685D1*
X1977593Y5810175D1*
X1974982Y5810004D1*
D1*
G37*
X9679480Y5935998D2*
D16*
X9820480Y5936001D1*
X9820520Y3764001D2*
X9679520Y3763998D1*
G36*
X9974982Y5810004D2*
X9972372Y5810175D1*
X9969806Y5810685D1*
X9967329Y5811526D1*
X9964982Y5812683D1*
X9962807Y5814136D1*
X9960840Y5815861D1*
X9959115Y5817828D1*
X9957662Y5820003D1*
X9956505Y5822350D1*
X9955664Y5824827D1*
X9955153Y5827393D1*
X9954982Y5830003D1*
X9955153Y5832614D1*
X9955663Y5835180D1*
X9956504Y5837657D1*
X9957661Y5840003D1*
X9959115Y5842179D1*
X9960840Y5844146D1*
X9962806Y5845871D1*
X9964982Y5847324D1*
X9967328Y5848481D1*
X9969805Y5849322D1*
X9972371Y5849833D1*
X9974982Y5850004D1*
D1*
X9977592Y5849833D1*
X9980158Y5849322D1*
X9982635Y5848481D1*
X9984982Y5847324D1*
X9987157Y5845871D1*
X9989124Y5844146D1*
X9990849Y5842179D1*
X9992302Y5840004D1*
X9993459Y5837658D1*
X9994300Y5835180D1*
X9994811Y5832615D1*
X9994982Y5830004D1*
X9994811Y5827393D1*
X9994301Y5824828D1*
X9993460Y5822350D1*
X9992303Y5820004D1*
X9990849Y5817829D1*
X9989124Y5815862D1*
X9987158Y5814137D1*
X9984982Y5812683D1*
X9982636Y5811526D1*
X9980159Y5810685D1*
X9977593Y5810175D1*
X9974982Y5810004D1*
D1*
G37*
X2164000Y1379500D2*
D16*
Y1520500D1*
X4336000D2*
Y1379500D1*
G36*
X2290000Y1675000D2*
X2289829Y1672389D1*
X2289319Y1669824D1*
X2288478Y1667346D1*
X2287321Y1665000D1*
X2285867Y1662825D1*
X2284142Y1660858D1*
X2282175Y1659133D1*
X2280000Y1657679D1*
X2277654Y1656522D1*
X2275176Y1655681D1*
X2272611Y1655171D1*
X2270000Y1655000D1*
X2267389Y1655171D1*
X2264824Y1655681D1*
X2262346Y1656522D1*
X2260000Y1657679D1*
X2257825Y1659133D1*
X2255858Y1660858D1*
X2254133Y1662825D1*
X2252679Y1665000D1*
X2251522Y1667346D1*
X2250681Y1669824D1*
X2250171Y1672389D1*
X2250000Y1675000D1*
D1*
X2250171Y1677611D1*
X2250681Y1680176D1*
X2251522Y1682654D1*
X2252679Y1685000D1*
X2254133Y1687175D1*
X2255858Y1689142D1*
X2257825Y1690867D1*
X2260000Y1692321D1*
X2262346Y1693478D1*
X2264824Y1694319D1*
X2267389Y1694829D1*
X2270000Y1695000D1*
X2272611Y1694829D1*
X2275176Y1694319D1*
X2277654Y1693478D1*
X2280000Y1692321D1*
X2282175Y1690867D1*
X2284142Y1689142D1*
X2285867Y1687175D1*
X2287321Y1685000D1*
X2288478Y1682654D1*
X2289319Y1680176D1*
X2289829Y1677611D1*
X2290000Y1675000D1*
D1*
G37*
X7164000Y1379500D2*
D16*
Y1520500D1*
X9336000D2*
Y1379500D1*
G36*
X7290000Y1675000D2*
X7289829Y1672389D1*
X7289319Y1669824D1*
X7288478Y1667346D1*
X7287321Y1665000D1*
X7285867Y1662825D1*
X7284142Y1660858D1*
X7282175Y1659133D1*
X7280000Y1657679D1*
X7277654Y1656522D1*
X7275176Y1655681D1*
X7272611Y1655171D1*
X7270000Y1655000D1*
X7267389Y1655171D1*
X7264824Y1655681D1*
X7262346Y1656522D1*
X7260000Y1657679D1*
X7257825Y1659133D1*
X7255858Y1660858D1*
X7254133Y1662825D1*
X7252679Y1665000D1*
X7251522Y1667346D1*
X7250681Y1669824D1*
X7250171Y1672389D1*
X7250000Y1675000D1*
D1*
X7250171Y1677611D1*
X7250681Y1680176D1*
X7251522Y1682654D1*
X7252679Y1685000D1*
X7254133Y1687175D1*
X7255858Y1689142D1*
X7257825Y1690867D1*
X7260000Y1692321D1*
X7262346Y1693478D1*
X7264824Y1694319D1*
X7267389Y1694829D1*
X7270000Y1695000D1*
X7272611Y1694829D1*
X7275176Y1694319D1*
X7277654Y1693478D1*
X7280000Y1692321D1*
X7282175Y1690867D1*
X7284142Y1689142D1*
X7285867Y1687175D1*
X7287321Y1685000D1*
X7288478Y1682654D1*
X7289319Y1680176D1*
X7289829Y1677611D1*
X7290000Y1675000D1*
D1*
G37*
X5284998Y4877495D2*
D10*
X5285002Y4797501D1*
X5369998Y4877499D2*
X5370002Y4797505D1*
X4561995Y1422995D2*
D13*
X4562005Y1276995D1*
X4737995Y1423005D2*
X4738005Y1277005D1*
X1362504Y5787499D2*
D10*
X1442498Y5787501D1*
X1362502Y5872499D2*
X1442496Y5872501D1*
X10431000Y4115003D2*
Y4194997D1*
X10346000Y4115003D2*
Y4194997D1*
X10304000Y4115003D2*
Y4194997D1*
X10219000Y4115003D2*
Y4194997D1*
X4995001Y5275002D2*
X5074995Y5274998D1*
X4995005Y5360002D2*
X5074999Y5359998D1*
X7147500Y3759997D2*
Y3680003D1*
X7232500Y3759997D2*
Y3680003D1*
X7267500Y3759997D2*
Y3680003D1*
X7352500Y3759997D2*
Y3680003D1*
X7087500Y3564997D2*
Y3485003D1*
X7172500Y3564997D2*
Y3485003D1*
X7027500Y3759997D2*
Y3680003D1*
X7112500Y3759997D2*
Y3680003D1*
X7207500Y3564997D2*
Y3485003D1*
X7292500Y3564997D2*
Y3485003D1*
X9357499Y2454996D2*
X9357501Y2375003D1*
X9442499Y2454997D2*
X9442501Y2375004D1*
X4477502Y1550006D2*
X4477498Y1629999D1*
X4392502Y1550001D2*
X4392498Y1629994D1*
X7135003Y1590006D2*
X7134997Y1670000D1*
X7050003Y1590000D2*
X7049997Y1669994D1*
X4516006Y2781997D2*
D13*
X4564006Y2782003D1*
X4515994Y2877997D2*
X4563994Y2878003D1*
X6631999Y3153997D2*
X6632001Y3105997D1*
X6727999Y3154003D2*
X6728001Y3106003D1*
X4516015Y3261997D2*
X4564015Y3262003D1*
X4516005Y3357997D2*
X4564005Y3358003D1*
X6030006Y3632497D2*
D10*
X6109999Y3632503D1*
X6030001Y3717497D2*
X6109994Y3717503D1*
X4563996Y3048002D2*
D13*
X4515996Y3047998D1*
X4564004Y2952002D2*
X4516004Y2951998D1*
X5711003Y3671998D2*
X5759003Y3672002D1*
X5710997Y3767998D2*
X5758997Y3768002D1*
X6631999Y2823997D2*
X6632001Y2775997D1*
X6727999Y2824003D2*
X6728001Y2776003D1*
X6446005Y2231998D2*
X6494005Y2232002D1*
X6445995Y2327998D2*
X6493995Y2328002D1*
X6432503Y3510006D2*
D10*
X6432497Y3590000D1*
X6347503Y3510000D2*
X6347497Y3589994D1*
X10480000Y4390000D2*
Y4040000D1*
X10170000D1*
Y4390000D1*
G36*
X2150143Y5741216D2*
X2149143Y5739216D1*
X2145143Y5735216D1*
X2144143D1*
X2141143Y5733216D1*
X2139143Y5732216D1*
X2136143Y5730216D1*
X2134143Y5729216D1*
X2131143Y5727216D1*
X2129143Y5726216D1*
X2126143Y5724216D1*
X2124143Y5723216D1*
X2121143Y5721216D1*
X2119143Y5720216D1*
X2116143Y5718216D1*
X2114143Y5717216D1*
X2111143Y5715216D1*
X2109143Y5714216D1*
X2106143Y5712216D1*
X2104143Y5711216D1*
X2101143Y5709216D1*
X2099143Y5708216D1*
X2096143Y5706216D1*
X2095143Y5705216D1*
X2090143D1*
X2089143Y5706216D1*
X2088143D1*
X2085143Y5709216D1*
X2084143Y5711216D1*
X2083143Y5735216D1*
X2063143Y5736216D1*
X2062143D1*
X2059143Y5739216D1*
X2057143Y5743216D1*
Y5745216D1*
X2059143Y5749216D1*
X2062143Y5752216D1*
X2063143D1*
X2083143Y5753216D1*
X2084143Y5761216D1*
X2085143Y5763216D1*
X2088143Y5766216D1*
X2089143D1*
X2090143Y5767216D1*
X2094143D1*
X2095143Y5766216D1*
X2096143D1*
X2099143Y5763216D1*
X2100143Y5761216D1*
X2101143Y5753216D1*
X2145143Y5752216D1*
X2146143D1*
X2149143Y5749216D1*
X2150143Y5747216D1*
Y5850216D1*
X2013143D1*
Y5421216D1*
X2198143D1*
Y5850216D1*
X2151143D1*
Y5542216D1*
X2152143Y5531216D1*
Y5520216D1*
X2151143Y5509216D1*
X2150143Y5507216D1*
X2147143Y5504216D1*
X2146143D1*
X2145143Y5503216D1*
X2064143D1*
X2063143Y5504216D1*
X2062143D1*
X2059143Y5507216D1*
X2057143Y5511216D1*
Y5513216D1*
X2058143Y5515216D1*
Y5590216D1*
X2057143Y5595883D1*
Y5601550D1*
X2058143Y5607216D1*
X2062143Y5615216D1*
X2071143Y5624216D1*
X2072143D1*
X2077143Y5626216D1*
X2080143Y5627216D1*
X2084143Y5628216D1*
X2085143Y5629216D1*
X2098143D1*
X2099143Y5628216D1*
X2103143Y5627216D1*
X2106143Y5626216D1*
X2111143Y5624216D1*
X2115143Y5621216D1*
X2118143Y5618216D1*
X2119143Y5616216D1*
X2120143Y5615216D1*
X2121143D1*
X2123143Y5616216D1*
X2126143Y5618216D1*
X2128143Y5619216D1*
X2131143Y5621216D1*
X2135143Y5623216D1*
X2138143Y5625216D1*
X2139143Y5626216D1*
X2144143D1*
X2145143Y5625216D1*
X2146143D1*
X2149143Y5622216D1*
X2150143Y5620216D1*
X2151143Y5607550D1*
Y5594883D1*
X2150143Y5582216D1*
X2149143Y5580216D1*
X2146143Y5577216D1*
X2145143D1*
X2144143Y5576216D1*
X2140143D1*
X2139143Y5577216D1*
X2138143D1*
X2135143Y5580216D1*
X2134143Y5582216D1*
X2133143Y5601216D1*
X2132143D1*
X2129143Y5599216D1*
X2127143Y5598216D1*
X2124143Y5596216D1*
X2120143Y5594216D1*
X2117143Y5592216D1*
X2116143Y5591216D1*
X2111143D1*
X2110143Y5592216D1*
X2109143D1*
X2106143Y5595216D1*
X2105143Y5597216D1*
X2104143Y5607216D1*
X2102143Y5609216D1*
X2098143Y5610216D1*
X2095143Y5611216D1*
X2088143D1*
X2085143Y5610216D1*
X2081143Y5609216D1*
X2077143Y5605216D1*
X2075143Y5601216D1*
Y5596216D1*
X2077143Y5591216D1*
X2078143Y5590216D1*
X2082143Y5588216D1*
X2084143D1*
X2088143Y5584216D1*
X2090143Y5580216D1*
Y5578216D1*
X2088143Y5574216D1*
X2085143Y5571216D1*
X2084143D1*
X2083143Y5570216D1*
X2078143D1*
X2077143Y5571216D1*
X2074143Y5572216D1*
X2072143Y5573216D1*
X2070143D1*
X2062143Y5581216D1*
X2061143Y5583216D1*
X2060143Y5586216D1*
X2058143Y5590216D1*
Y5515216D1*
X2059143Y5517216D1*
X2062143Y5520216D1*
X2063143D1*
X2093143Y5521216D1*
X2095143Y5544216D1*
X2096143Y5547216D1*
X2098143Y5551216D1*
X2104143Y5557216D1*
X2105143D1*
X2108143Y5559216D1*
X2111143Y5560216D1*
X2113143Y5561216D1*
X2114143Y5562216D1*
X2131143D1*
X2132143Y5561216D1*
X2134143Y5560216D1*
X2137143Y5559216D1*
X2140143Y5557216D1*
X2144143Y5554216D1*
X2147143Y5551216D1*
X2149143Y5547216D1*
X2150143Y5544216D1*
X2151143Y5542216D1*
Y5850216D1*
X2150143D1*
Y5747216D1*
X2151143Y5745216D1*
Y5743216D1*
X2150143Y5741216D1*
Y5691216D1*
X2151143Y5689216D1*
Y5687216D1*
X2149143Y5683216D1*
X2145143Y5679216D1*
X2144143D1*
X2140143Y5677216D1*
X2137143Y5675216D1*
X2127143Y5670216D1*
X2124143Y5668216D1*
X2114143Y5663216D1*
X2111143Y5661216D1*
X2103143Y5657216D1*
X2100143Y5655216D1*
X2090143Y5650216D1*
X2087143Y5648216D1*
X2077143Y5643216D1*
X2074143Y5641216D1*
X2070143Y5639216D1*
X2069143Y5638216D1*
X2064143D1*
X2063143Y5639216D1*
X2062143D1*
X2059143Y5642216D1*
X2057143Y5646216D1*
Y5648216D1*
X2059143Y5652216D1*
X2063143Y5656216D1*
X2064143D1*
X2068143Y5658216D1*
X2071143Y5660216D1*
X2081143Y5665216D1*
X2084143Y5667216D1*
X2094143Y5672216D1*
X2097143Y5674216D1*
X2105143Y5678216D1*
X2108143Y5680216D1*
X2118143Y5685216D1*
X2121143Y5687216D1*
X2131143Y5692216D1*
X2134143Y5694216D1*
X2138143Y5696216D1*
X2139143Y5697216D1*
X2144143D1*
X2145143Y5696216D1*
X2146143D1*
X2149143Y5693216D1*
X2150143Y5691216D1*
Y5741216D1*
G37*
G36*
X2134143Y5536216D2*
X2133143Y5539216D1*
X2132143Y5541216D1*
X2131143Y5542216D1*
X2129143Y5543216D1*
X2126143Y5544216D1*
X2119143D1*
X2116143Y5543216D1*
X2114143Y5542216D1*
X2113143Y5541216D1*
X2112143Y5539216D1*
X2111143Y5536216D1*
Y5521216D1*
X2134143D1*
Y5536216D1*
G37*
G36*
X2110143Y5735216D2*
X2101143D1*
Y5730216D1*
X2105143Y5732216D1*
X2108143Y5734216D1*
X2109267Y5735402D1*
X2110143Y5735216D1*
G37*
G36*
X10150143Y5728661D2*
X10147143Y5722661D1*
X10142143Y5717661D1*
X10141143D1*
X10137143Y5714661D1*
X10134143Y5713661D1*
X10132143Y5712661D1*
X10131143Y5711661D1*
X10122143D1*
X10121143Y5712661D1*
X10120143D1*
X10117143Y5715661D1*
X10115143Y5719661D1*
Y5721661D1*
X10117143Y5725661D1*
X10120143Y5728661D1*
X10121143D1*
X10126143Y5729661D1*
X10129143Y5730661D1*
X10131143Y5731661D1*
X10132143Y5732661D1*
X10133143Y5734661D1*
Y5742661D1*
X10131143Y5744661D1*
X10129143Y5745661D1*
X10126143Y5746661D1*
X10122143D1*
X10120143Y5745661D1*
X10117143Y5744661D1*
X10111143Y5741661D1*
X10108143Y5739661D1*
X10106143Y5738661D1*
X10102143Y5735661D1*
X10072143Y5711661D1*
X10069143Y5709661D1*
X10068143Y5708661D1*
X10064143D1*
X10063143Y5709661D1*
X10062143D1*
X10059143Y5712661D1*
X10058143Y5714661D1*
X10057143Y5730328D1*
Y5745995D1*
X10058143Y5761661D1*
X10059143Y5763661D1*
X10062143Y5766661D1*
X10063143D1*
X10064143Y5767661D1*
X10068143D1*
X10069143Y5766661D1*
X10070143D1*
X10073143Y5763661D1*
X10074143Y5761661D1*
X10075143Y5736661D1*
X10076143D1*
X10091143Y5748661D1*
X10097143Y5753661D1*
X10100143Y5755661D1*
X10102143Y5756661D1*
X10105143Y5758661D1*
X10109143Y5760661D1*
X10112143Y5761661D1*
X10114143Y5762661D1*
X10117143Y5763661D1*
X10118143Y5764661D1*
X10131143D1*
X10132143Y5763661D1*
X10134143Y5762661D1*
X10137143Y5761661D1*
X10140143Y5759661D1*
X10144143Y5756661D1*
X10147143Y5753661D1*
X10148143Y5751661D1*
X10150143Y5748661D1*
Y5850661D1*
X10013143D1*
Y5450661D1*
X10198143D1*
Y5850661D1*
X10151143D1*
Y5571661D1*
X10152143Y5560661D1*
Y5549661D1*
X10151143Y5538661D1*
X10150143Y5536661D1*
X10147143Y5533661D1*
X10146143D1*
X10145143Y5532661D1*
X10064143D1*
X10063143Y5533661D1*
X10062143D1*
X10059143Y5536661D1*
X10057143Y5540661D1*
Y5542661D1*
X10058143Y5544661D1*
Y5620661D1*
X10057143Y5622661D1*
Y5624661D1*
X10059143Y5628661D1*
X10062143Y5631661D1*
X10063143D1*
X10064143Y5632661D1*
X10144143D1*
X10145143Y5631661D1*
X10146143D1*
X10149143Y5628661D1*
X10151143Y5624661D1*
Y5622661D1*
X10149143Y5618661D1*
X10139143Y5608661D1*
X10138143D1*
X10136143Y5605661D1*
X10135143Y5603661D1*
X10132143Y5600661D1*
X10131143D1*
X10130143Y5599661D1*
X10126143D1*
X10125143Y5600661D1*
X10124143D1*
X10121143Y5603661D1*
X10119143Y5607661D1*
Y5609661D1*
X10121143Y5613661D1*
Y5614661D1*
X10063143Y5615661D1*
X10062143D1*
X10059143Y5618661D1*
X10058143Y5620661D1*
Y5544661D1*
X10059143Y5546661D1*
X10062143Y5549661D1*
X10063143D1*
X10093143Y5550661D1*
X10095143Y5573661D1*
X10096143Y5576661D1*
X10098143Y5580661D1*
X10104143Y5586661D1*
X10105143D1*
X10108143Y5588661D1*
X10111143Y5589661D1*
X10113143Y5590661D1*
X10114143Y5591661D1*
X10131143D1*
X10132143Y5590661D1*
X10134143Y5589661D1*
X10137143Y5588661D1*
X10140143Y5586661D1*
X10144143Y5583661D1*
X10147143Y5580661D1*
X10149143Y5576661D1*
X10150143Y5573661D1*
X10151143Y5571661D1*
Y5850661D1*
X10150143D1*
Y5748661D1*
X10151143Y5741995D1*
Y5735328D1*
X10150143Y5728661D1*
Y5694661D1*
X10151143Y5692661D1*
Y5690661D1*
X10149143Y5686661D1*
X10145143Y5682661D1*
X10144143D1*
X10140143Y5680661D1*
X10137143Y5678661D1*
X10127143Y5673661D1*
X10124143Y5671661D1*
X10114143Y5666661D1*
X10111143Y5664661D1*
X10103143Y5660661D1*
X10100143Y5658661D1*
X10090143Y5653661D1*
X10087143Y5651661D1*
X10077143Y5646661D1*
X10074143Y5644661D1*
X10070143Y5642661D1*
X10069143Y5641661D1*
X10064143D1*
X10063143Y5642661D1*
X10062143D1*
X10059143Y5645661D1*
X10057143Y5649661D1*
Y5651661D1*
X10059143Y5655661D1*
X10063143Y5659661D1*
X10064143D1*
X10068143Y5661661D1*
X10071143Y5663661D1*
X10081143Y5668661D1*
X10084143Y5670661D1*
X10094143Y5675661D1*
X10097143Y5677661D1*
X10105143Y5681661D1*
X10108143Y5683661D1*
X10118143Y5688661D1*
X10121143Y5690661D1*
X10131143Y5695661D1*
X10134143Y5697661D1*
X10138143Y5699661D1*
X10139143Y5700661D1*
X10144143D1*
X10145143Y5699661D1*
X10146143D1*
X10149143Y5696661D1*
X10150143Y5694661D1*
Y5728661D1*
G37*
G36*
X10134143Y5565661D2*
X10133143Y5568661D1*
X10132143Y5570661D1*
X10131143Y5571661D1*
X10129143Y5572661D1*
X10126143Y5573661D1*
X10119143D1*
X10116143Y5572661D1*
X10114143Y5571661D1*
X10113143Y5570661D1*
X10112143Y5568661D1*
X10111143Y5565661D1*
Y5550661D1*
X10134143D1*
Y5565661D1*
G37*
G36*
X2535135Y1766143D2*
X2537135Y1765143D1*
X2540135Y1762143D1*
Y1761143D1*
X2541135Y1760143D1*
Y1756143D1*
X2540135Y1755143D1*
Y1754143D1*
X2537135Y1751143D1*
X2535135Y1750143D1*
X2514469Y1749143D1*
X2493802D1*
X2473135Y1750143D1*
X2471135Y1751143D1*
X2468135Y1754143D1*
Y1755143D1*
X2467135Y1756143D1*
Y1760143D1*
X2468135Y1761143D1*
Y1762143D1*
X2258135D1*
Y1718143D1*
X2761135D1*
Y1763143D1*
X2656135D1*
X2650135Y1762143D1*
X2644135D1*
X2638135Y1763143D1*
X2634135Y1765143D1*
X2633135Y1766143D1*
X2630135Y1768143D1*
X2622135Y1776143D1*
Y1777143D1*
X2620135Y1780143D1*
X2619135Y1783143D1*
X2618135Y1785143D1*
X2617135Y1786143D1*
Y1791143D1*
X2618135Y1792143D1*
Y1793143D1*
X2621135Y1796143D1*
X2625135Y1798143D1*
X2627135D1*
X2631135Y1796143D1*
X2635135Y1792143D1*
Y1791143D1*
X2636135Y1788143D1*
X2637135Y1786143D1*
X2641135Y1781143D1*
X2643135Y1780143D1*
X2649135D1*
X2651135Y1781143D1*
X2656135Y1786143D1*
X2657135Y1788143D1*
X2658135Y1791143D1*
X2659135Y1793143D1*
X2660135Y1797143D1*
X2661135Y1800143D1*
Y1818143D1*
X2660135Y1821143D1*
X2659135Y1825143D1*
X2658135Y1828143D1*
X2657135Y1830143D1*
X2656135Y1833143D1*
X2650135Y1839143D1*
X2643135D1*
X2637135Y1833143D1*
X2636135Y1830143D1*
X2635135Y1828143D1*
Y1826143D1*
X2631135Y1822143D1*
X2627135Y1820143D1*
X2625135D1*
X2621135Y1822143D1*
X2618135Y1825143D1*
Y1826143D1*
X2617135Y1827143D1*
Y1832143D1*
X2618135Y1833143D1*
X2619135Y1836143D1*
X2622135Y1842143D1*
X2628135Y1849143D1*
X2632135Y1853143D1*
X2634135Y1854143D1*
X2635135Y1855143D1*
X2637135Y1856143D1*
X2643135Y1857143D1*
X2649135D1*
X2655135Y1856143D1*
X2657135Y1855143D1*
X2658135Y1854143D1*
X2661135Y1852143D1*
X2663135Y1851143D1*
X2670135Y1844143D1*
Y1843143D1*
X2673135Y1838143D1*
X2674135Y1836143D1*
X2675135Y1833143D1*
X2676135Y1829143D1*
X2677135Y1826143D1*
X2678135Y1822143D1*
X2679135Y1821143D1*
Y1797143D1*
X2678135Y1796143D1*
X2677135Y1792143D1*
X2676135Y1789143D1*
X2675135Y1785143D1*
X2674135Y1783143D1*
X2673135Y1780143D1*
X2670135Y1776143D1*
Y1775143D1*
X2662135Y1767143D1*
X2660135Y1766143D1*
X2657135Y1764143D1*
X2656135Y1763143D1*
X2761135D1*
Y1903143D1*
X2258135D1*
Y1856143D1*
X2382135D1*
X2384135Y1857143D1*
X2386135D1*
X2388135Y1856143D1*
X2409135D1*
X2423802Y1857143D1*
X2438469D1*
X2453135Y1856143D1*
X2455135Y1855143D1*
X2458135Y1852143D1*
Y1851143D1*
X2459135Y1850143D1*
Y1769143D1*
X2458135Y1768143D1*
Y1767143D1*
X2455135Y1764143D1*
X2451135Y1762143D1*
X2449135D1*
X2445135Y1764143D1*
X2442135Y1767143D1*
Y1768143D1*
X2441135Y1802143D1*
X2423135Y1803143D1*
X2421135Y1804143D1*
X2418135Y1807143D1*
Y1808143D1*
X2417135Y1809143D1*
Y1813143D1*
X2418135Y1814143D1*
Y1815143D1*
X2421135Y1818143D1*
X2423135Y1819143D1*
X2441135Y1820143D1*
Y1839143D1*
X2409135Y1840143D1*
X2407135Y1841143D1*
X2404135Y1844143D1*
Y1845143D1*
X2403135Y1846143D1*
Y1850143D1*
X2404135Y1851143D1*
Y1852143D1*
X2407135Y1855143D1*
X2409135Y1856143D1*
X2388135D1*
X2390135Y1855143D1*
X2393135Y1852143D1*
Y1851143D1*
X2394135Y1850143D1*
Y1769143D1*
X2393135Y1768143D1*
Y1767143D1*
X2390135Y1764143D1*
X2388135Y1763143D1*
X2374469Y1762143D1*
X2360802D1*
X2347135Y1763143D1*
X2345135Y1764143D1*
X2342135Y1767143D1*
Y1768143D1*
X2341135Y1769143D1*
Y1773143D1*
X2342135Y1774143D1*
Y1775143D1*
X2345135Y1778143D1*
X2347135Y1779143D1*
X2376135Y1780143D1*
X2377135Y1851143D1*
Y1852143D1*
X2380135Y1855143D1*
X2382135Y1856143D1*
X2258135D1*
Y1762143D1*
X2468135D1*
X2471135Y1765143D1*
X2473135Y1766143D1*
X2493802Y1767143D1*
X2514469D1*
X2535135Y1766143D1*
X2552135D1*
X2551135Y1768143D1*
X2550135Y1769143D1*
Y1850143D1*
X2551135Y1851143D1*
Y1852143D1*
X2554135Y1855143D1*
X2558135Y1857143D1*
X2560135D1*
X2564135Y1855143D1*
X2567135Y1852143D1*
Y1851143D1*
X2568135Y1808143D1*
X2570135Y1812143D1*
X2572135Y1815143D1*
X2583135Y1837143D1*
X2585135Y1840143D1*
X2590135Y1850143D1*
Y1851143D1*
X2594135Y1855143D1*
X2598135Y1857143D1*
X2600135D1*
X2604135Y1855143D1*
X2607135Y1852143D1*
Y1851143D1*
X2608135Y1850143D1*
Y1769143D1*
X2607135Y1768143D1*
Y1767143D1*
X2604135Y1764143D1*
X2600135Y1762143D1*
X2598135D1*
X2594135Y1764143D1*
X2591135Y1767143D1*
Y1768143D1*
X2590135Y1811143D1*
X2589135Y1809143D1*
X2587135Y1806143D1*
X2575135Y1782143D1*
X2573135Y1779143D1*
X2568135Y1769143D1*
Y1768143D1*
X2564135Y1764143D1*
X2560135Y1762143D1*
X2558135D1*
X2554135Y1764143D1*
X2552135Y1766143D1*
X2535135D1*
G37*
G36*
X7533204D2*
X7535204Y1765143D1*
X7538204Y1762143D1*
Y1761143D1*
X7539204Y1760143D1*
Y1756143D1*
X7538204Y1755143D1*
Y1754143D1*
X7535204Y1751143D1*
X7533204Y1750143D1*
X7512537Y1749143D1*
X7491871D1*
X7471204Y1750143D1*
X7469204Y1751143D1*
X7466204Y1754143D1*
Y1755143D1*
X7465204Y1756143D1*
Y1760143D1*
X7466204Y1761143D1*
Y1762143D1*
X7250204D1*
Y1718143D1*
X7759204D1*
Y1763143D1*
X7654204D1*
X7648204Y1762143D1*
X7642204D1*
X7636204Y1763143D1*
X7632204Y1765143D1*
X7631204Y1766143D1*
X7628204Y1768143D1*
X7620204Y1776143D1*
Y1777143D1*
X7618204Y1780143D1*
X7617204Y1783143D1*
X7616204Y1785143D1*
X7615204Y1786143D1*
Y1791143D1*
X7616204Y1792143D1*
Y1793143D1*
X7619204Y1796143D1*
X7623204Y1798143D1*
X7625204D1*
X7629204Y1796143D1*
X7633204Y1792143D1*
Y1791143D1*
X7634204Y1788143D1*
X7635204Y1786143D1*
X7639204Y1781143D1*
X7641204Y1780143D1*
X7647204D1*
X7649204Y1781143D1*
X7654204Y1786143D1*
X7655204Y1788143D1*
X7656204Y1791143D1*
X7657204Y1793143D1*
X7658204Y1797143D1*
X7659204Y1800143D1*
Y1818143D1*
X7658204Y1821143D1*
X7657204Y1825143D1*
X7656204Y1828143D1*
X7655204Y1830143D1*
X7654204Y1833143D1*
X7648204Y1839143D1*
X7641204D1*
X7635204Y1833143D1*
X7634204Y1830143D1*
X7633204Y1828143D1*
Y1826143D1*
X7629204Y1822143D1*
X7625204Y1820143D1*
X7623204D1*
X7619204Y1822143D1*
X7616204Y1825143D1*
Y1826143D1*
X7615204Y1827143D1*
Y1832143D1*
X7616204Y1833143D1*
X7617204Y1836143D1*
X7620204Y1842143D1*
X7626204Y1849143D1*
X7630204Y1853143D1*
X7632204Y1854143D1*
X7633204Y1855143D1*
X7635204Y1856143D1*
X7641204Y1857143D1*
X7647204D1*
X7653204Y1856143D1*
X7655204Y1855143D1*
X7656204Y1854143D1*
X7659204Y1852143D1*
X7661204Y1851143D1*
X7668204Y1844143D1*
Y1843143D1*
X7671204Y1838143D1*
X7672204Y1836143D1*
X7673204Y1833143D1*
X7674204Y1829143D1*
X7675204Y1826143D1*
X7676204Y1822143D1*
X7677204Y1821143D1*
Y1797143D1*
X7676204Y1796143D1*
X7675204Y1792143D1*
X7674204Y1789143D1*
X7673204Y1785143D1*
X7672204Y1783143D1*
X7671204Y1780143D1*
X7668204Y1776143D1*
Y1775143D1*
X7660204Y1767143D1*
X7658204Y1766143D1*
X7655204Y1764143D1*
X7654204Y1763143D1*
X7759204D1*
Y1903143D1*
X7250204D1*
Y1856143D1*
X7353204D1*
X7364204Y1857143D1*
X7375204D1*
X7386204Y1856143D1*
X7407204D1*
X7421871Y1857143D1*
X7436537D1*
X7451204Y1856143D1*
X7453204Y1855143D1*
X7456204Y1852143D1*
Y1851143D1*
X7457204Y1850143D1*
Y1769143D1*
X7456204Y1768143D1*
Y1767143D1*
X7453204Y1764143D1*
X7449204Y1762143D1*
X7447204D1*
X7443204Y1764143D1*
X7440204Y1767143D1*
Y1768143D1*
X7439204Y1802143D1*
X7421204Y1803143D1*
X7419204Y1804143D1*
X7416204Y1807143D1*
Y1808143D1*
X7415204Y1809143D1*
Y1813143D1*
X7416204Y1814143D1*
Y1815143D1*
X7419204Y1818143D1*
X7421204Y1819143D1*
X7439204Y1820143D1*
Y1839143D1*
X7407204Y1840143D1*
X7405204Y1841143D1*
X7402204Y1844143D1*
Y1845143D1*
X7401204Y1846143D1*
Y1850143D1*
X7402204Y1851143D1*
Y1852143D1*
X7405204Y1855143D1*
X7407204Y1856143D1*
X7386204D1*
X7388204Y1855143D1*
X7391204Y1852143D1*
Y1851143D1*
X7392204Y1850143D1*
Y1769143D1*
X7391204Y1768143D1*
Y1767143D1*
X7388204Y1764143D1*
X7384204Y1762143D1*
X7382204D1*
X7378204Y1764143D1*
X7375204Y1767143D1*
Y1768143D1*
X7374204Y1802143D1*
X7369204D1*
X7368204Y1801143D1*
X7367204Y1799143D1*
X7365204Y1796143D1*
X7357204Y1780143D1*
X7355204Y1777143D1*
X7351204Y1769143D1*
Y1768143D1*
X7347204Y1764143D1*
X7343204Y1762143D1*
X7341204D1*
X7337204Y1764143D1*
X7334204Y1767143D1*
Y1768143D1*
X7333204Y1769143D1*
Y1774143D1*
X7334204Y1775143D1*
X7338204Y1783143D1*
X7340204Y1786143D1*
X7349204Y1804143D1*
X7348204Y1805143D1*
X7343204Y1808143D1*
X7341204Y1809143D1*
X7338204Y1812143D1*
Y1813143D1*
X7335204Y1819143D1*
X7334204Y1822143D1*
X7333204Y1823143D1*
Y1836143D1*
X7334204Y1837143D1*
X7335204Y1839143D1*
X7336204Y1842143D1*
X7338204Y1845143D1*
X7341204Y1849143D1*
X7344204Y1852143D1*
X7348204Y1854143D1*
X7351204Y1855143D1*
X7353204Y1856143D1*
X7250204D1*
Y1762143D1*
X7466204D1*
X7469204Y1765143D1*
X7471204Y1766143D1*
X7491871Y1767143D1*
X7512537D1*
X7533204Y1766143D1*
X7549204D1*
X7548204Y1768143D1*
X7547204Y1769143D1*
Y1850143D1*
X7548204Y1851143D1*
Y1852143D1*
X7551204Y1855143D1*
X7555204Y1857143D1*
X7557204D1*
X7561204Y1855143D1*
X7564204Y1852143D1*
Y1851143D1*
X7565204Y1807143D1*
X7567204Y1811143D1*
X7569204Y1814143D1*
X7575204Y1826143D1*
X7577204Y1829143D1*
X7583204Y1841143D1*
X7585204Y1844143D1*
X7588204Y1850143D1*
Y1851143D1*
X7592204Y1855143D1*
X7596204Y1857143D1*
X7598204D1*
X7602204Y1855143D1*
X7605204Y1852143D1*
Y1851143D1*
X7606204Y1850143D1*
Y1769143D1*
X7605204Y1768143D1*
Y1767143D1*
X7602204Y1764143D1*
X7598204Y1762143D1*
X7596204D1*
X7592204Y1764143D1*
X7589204Y1767143D1*
Y1768143D1*
X7588204Y1812143D1*
X7586204Y1808143D1*
X7584204Y1805143D1*
X7578204Y1793143D1*
X7576204Y1790143D1*
X7570204Y1778143D1*
X7568204Y1775143D1*
X7565204Y1769143D1*
Y1768143D1*
X7561204Y1764143D1*
X7557204Y1762143D1*
X7555204D1*
X7551204Y1764143D1*
X7549204Y1766143D1*
X7533204D1*
G37*
G36*
X7359204Y1839143D2*
X7356204Y1838143D1*
X7354204Y1837143D1*
X7353204Y1836143D1*
X7352204Y1834143D1*
X7351204Y1831143D1*
Y1827143D1*
X7353204Y1823143D1*
X7354204Y1822143D1*
X7356204Y1821143D1*
X7359204Y1820143D1*
X7374204D1*
Y1839143D1*
X7359204D1*
G37*
G36*
X3750987Y5365627D2*
X3737654Y5352293D1*
X3704320Y5315627D1*
X3667654Y5275627D1*
X3634320Y5238960D1*
X3597654Y5198960D1*
X3564320Y5162293D1*
X3557654Y5152293D1*
X3554119Y5148673D1*
X3552393Y5149214D1*
X3550987Y5152293D1*
Y5345627D1*
X3557654Y5352293D1*
X3560987Y5358960D1*
X3564320Y5368960D1*
Y5382293D1*
X3560987Y5392293D1*
X3557654Y5398960D1*
X3540987Y5415627D1*
X3530987Y5418960D1*
X3510987D1*
X3500987Y5415627D1*
X3480987Y5395627D1*
X3477654Y5385627D1*
Y5365627D1*
X3480987Y5355627D1*
X3490987Y5345627D1*
Y5002293D1*
X3524320Y5035627D1*
X3597654Y5115627D1*
X3630987Y5152293D1*
X3740987Y5272293D1*
X3741531Y5274872D1*
X3743576Y5277604D1*
X3745219Y5277525D1*
X3747654Y5275627D1*
Y5082293D1*
X3737654Y5072293D1*
X3734320Y5065627D1*
Y5038960D1*
X3737654Y5032293D1*
X3744320Y5022293D1*
X3747654Y5018960D1*
X3757654Y5012293D1*
X3767654Y5008960D1*
X3787654D1*
X3797654Y5012293D1*
X3814320Y5028960D1*
X3817654Y5035627D1*
X3820987Y5045627D1*
Y5058960D1*
X3817654Y5068960D1*
X3814320Y5075627D1*
X3807654Y5082293D1*
Y5425627D1*
X3774320Y5392293D1*
X3750987Y5365627D1*
X3777654D1*
X3780143Y5367767D1*
X3781870Y5367573D1*
X3784320Y5365627D1*
Y5068960D1*
X3794320Y5055627D1*
X3796842Y5051143D1*
X3796509Y5048141D1*
X3794320Y5045627D1*
Y5042293D1*
X3787654Y5035627D1*
X3780987Y5032293D1*
X3774320D1*
X3767654Y5035627D1*
X3757654Y5045627D1*
Y5055627D1*
X3760987Y5058960D1*
X3767654Y5068960D1*
Y5332293D1*
X3757654Y5322293D1*
X3690987Y5248960D1*
X3654320Y5208960D1*
X3587654Y5135627D1*
X3550987Y5095627D1*
X3517654Y5058960D1*
X3514119Y5055340D1*
X3512393Y5055881D1*
X3510987Y5058960D1*
Y5358960D1*
X3504320Y5368960D1*
X3500987Y5372293D1*
Y5382293D1*
X3510987Y5392293D1*
X3517654Y5395627D1*
X3524320D1*
X3530987Y5392293D1*
X3537654Y5385627D1*
Y5382293D1*
X3540987Y5378960D1*
Y5372293D1*
X3537654Y5368960D1*
X3530987Y5358960D1*
Y5095627D1*
X3544320Y5108960D1*
X3580987Y5148960D1*
X3680987Y5258960D1*
X3717654Y5298960D1*
X3750987Y5335627D1*
X3777654Y5365627D1*
X3750987D1*
G37*
G36*
X3117654Y5392293D2*
X3114320Y5388960D1*
X3107654Y5385627D1*
X3090987Y5372293D1*
X3077654Y5355627D1*
X3067654Y5335627D1*
X3064320Y5325627D1*
X3060987Y5308960D1*
Y5278960D1*
X3064320Y5262293D1*
X3067654Y5252293D1*
X3077654Y5232293D1*
X3087654Y5218960D1*
X3094320Y5212293D1*
X3107654Y5202293D1*
X3117654Y5195627D1*
X3124320Y5192293D1*
X3144320Y5185627D1*
X3160987Y5182293D1*
X3307654Y5178960D1*
Y5082293D1*
X3300987Y5075627D1*
X3294320Y5062293D1*
Y5042293D1*
X3297654Y5032293D1*
X3304320Y5022293D1*
X3307654Y5018960D1*
X3317654Y5012293D1*
X3327654Y5008960D1*
X3347654D1*
X3357654Y5012293D1*
X3374320Y5028960D1*
X3377654Y5035627D1*
X3380987Y5045627D1*
Y5058960D1*
X3377654Y5068960D1*
X3374320Y5075627D1*
X3367654Y5082293D1*
Y5345627D1*
X3374320Y5352293D1*
X3377654Y5358960D1*
X3380987Y5368960D1*
Y5382293D1*
X3377654Y5392293D1*
X3374320Y5398960D1*
X3357654Y5415627D1*
X3347654Y5418960D1*
X3327654D1*
X3317654Y5415627D1*
X3310987Y5408960D1*
X3157654Y5405627D1*
X3140987Y5402293D1*
X3130987Y5398960D1*
X3117654Y5392293D1*
X3327654D1*
X3334320Y5395627D1*
X3340987D1*
X3347654Y5392293D1*
X3354320Y5385627D1*
Y5382293D1*
X3357654Y5378960D1*
Y5372293D1*
X3354320Y5368960D1*
X3347654Y5358960D1*
Y5065627D1*
X3354320Y5055627D1*
X3356842Y5051143D1*
X3356509Y5048141D1*
X3354320Y5045627D1*
Y5042293D1*
X3347654Y5035627D1*
X3340987Y5032293D1*
X3334320D1*
X3327654Y5035627D1*
X3317654Y5045627D1*
Y5055627D1*
X3327654Y5065627D1*
Y5202293D1*
X3157654Y5205627D1*
X3144320Y5208960D1*
X3134320Y5212293D1*
X3127654Y5215627D1*
X3124320Y5218960D1*
X3117654Y5222293D1*
X3097654Y5242293D1*
Y5245627D1*
X3087654Y5265627D1*
X3084320Y5285627D1*
X3080987Y5288960D1*
Y5298960D1*
X3084320Y5302293D1*
X3087654Y5318960D1*
X3090987Y5328960D1*
X3094320Y5335627D1*
X3100987Y5345627D1*
Y5348960D1*
X3117654Y5365627D1*
X3124320Y5368960D1*
X3127654Y5372293D1*
X3140987Y5378960D1*
X3154320Y5382293D1*
X3320987Y5385627D1*
X3327654Y5392293D1*
X3117654D1*
G37*
G36*
X3937654D2*
X3934320Y5388960D1*
X3927654Y5385627D1*
X3910987Y5372293D1*
X3897654Y5355627D1*
X3887654Y5335627D1*
X3884320Y5325627D1*
X3880987Y5308960D1*
Y5278960D1*
X3884320Y5262293D1*
X3887654Y5252293D1*
X3897654Y5232293D1*
X3907654Y5218960D1*
X3914320Y5212293D1*
X3927654Y5202293D1*
X3937654Y5195627D1*
X3944320Y5192293D1*
X3964320Y5185627D1*
X3980987Y5182293D1*
X4127654Y5178960D1*
Y5082293D1*
X4120987Y5075627D1*
X4114320Y5062293D1*
Y5042293D1*
X4117654Y5032293D1*
X4124320Y5022293D1*
X4127654Y5018960D1*
X4137654Y5012293D1*
X4147654Y5008960D1*
X4167654D1*
X4177654Y5012293D1*
X4194320Y5028960D1*
X4197654Y5035627D1*
X4200987Y5045627D1*
Y5058960D1*
X4197654Y5068960D1*
X4194320Y5075627D1*
X4187654Y5082293D1*
Y5345627D1*
X4194320Y5352293D1*
X4197654Y5358960D1*
X4200987Y5368960D1*
Y5382293D1*
X4197654Y5392293D1*
X4194320Y5398960D1*
X4177654Y5415627D1*
X4167654Y5418960D1*
X4147654D1*
X4137654Y5415627D1*
X4130987Y5408960D1*
X3977654Y5405627D1*
X3960987Y5402293D1*
X3950987Y5398960D1*
X3937654Y5392293D1*
X4147654D1*
X4154320Y5395627D1*
X4160987D1*
X4167654Y5392293D1*
X4174320Y5385627D1*
Y5382293D1*
X4177654Y5378960D1*
Y5372293D1*
X4174320Y5368960D1*
X4167654Y5358960D1*
Y5065627D1*
X4174320Y5055627D1*
X4176842Y5051143D1*
X4176509Y5048141D1*
X4174320Y5045627D1*
Y5042293D1*
X4167654Y5035627D1*
X4160987Y5032293D1*
X4154320D1*
X4147654Y5035627D1*
X4137654Y5045627D1*
Y5055627D1*
X4147654Y5065627D1*
Y5202293D1*
X3977654Y5205627D1*
X3964320Y5208960D1*
X3954320Y5212293D1*
X3947654Y5215627D1*
X3944320Y5218960D1*
X3937654Y5222293D1*
X3917654Y5242293D1*
Y5245627D1*
X3907654Y5265627D1*
X3904320Y5285627D1*
X3900987Y5288960D1*
Y5298960D1*
X3904320Y5302293D1*
X3907654Y5318960D1*
X3910987Y5328960D1*
X3914320Y5335627D1*
X3920987Y5345627D1*
Y5348960D1*
X3937654Y5365627D1*
X3944320Y5368960D1*
X3947654Y5372293D1*
X3960987Y5378960D1*
X3974320Y5382293D1*
X4140987Y5385627D1*
X4147654Y5392293D1*
X3937654D1*
G37*
G36*
X3120987Y5345627D2*
X3114320Y5338960D1*
X3104320Y5318960D1*
X3100987Y5308960D1*
Y5278960D1*
X3107654Y5258960D1*
X3114320Y5248960D1*
X3130987Y5232293D1*
X3150987Y5222293D1*
X3164320Y5218960D1*
X3327654D1*
Y5358960D1*
X3320987Y5368960D1*
X3160987D1*
X3147654Y5365627D1*
X3140987Y5362293D1*
X3130987Y5355627D1*
X3120987Y5345627D1*
X3160987D1*
X3209876Y5348960D1*
X3258765D1*
X3307654Y5345627D1*
Y5242293D1*
X3259876Y5238960D1*
X3212098D1*
X3164320Y5242293D1*
X3154320Y5245627D1*
X3147654Y5248960D1*
X3144320Y5252293D1*
X3137654Y5255627D1*
X3133700Y5259374D1*
X3134320Y5262293D1*
X3127654Y5272293D1*
X3124320Y5285627D1*
X3120987Y5288960D1*
Y5298960D1*
X3124320Y5302293D1*
X3127654Y5315627D1*
Y5318960D1*
X3147654Y5338960D1*
X3160987Y5345627D1*
X3120987D1*
G37*
G36*
X3940987D2*
X3934320Y5338960D1*
X3924320Y5318960D1*
X3920987Y5308960D1*
Y5278960D1*
X3927654Y5258960D1*
X3934320Y5248960D1*
X3950987Y5232293D1*
X3970987Y5222293D1*
X3984320Y5218960D1*
X4147654D1*
Y5358960D1*
X4140987Y5368960D1*
X3980987D1*
X3967654Y5365627D1*
X3960987Y5362293D1*
X3950987Y5355627D1*
X3940987Y5345627D1*
X3980987D1*
X4029876Y5348960D1*
X4078765D1*
X4127654Y5345627D1*
Y5242293D1*
X4079876Y5238960D1*
X4032098D1*
X3984320Y5242293D1*
X3974320Y5245627D1*
X3967654Y5248960D1*
X3964320Y5252293D1*
X3957654Y5255627D1*
X3953700Y5259374D1*
X3954320Y5262293D1*
X3947654Y5272293D1*
X3944320Y5285627D1*
X3940987Y5288960D1*
Y5298960D1*
X3944320Y5302293D1*
X3947654Y5315627D1*
Y5318960D1*
X3967654Y5338960D1*
X3980987Y5345627D1*
X3940987D1*
G37*
G36*
X4360987Y6012293D2*
Y5598960D1*
X4354320Y5592293D1*
X4347654Y5582293D1*
X4344320Y5575627D1*
Y5542293D1*
X4347654Y5535627D1*
X4354320Y5525627D1*
X4360987Y5518960D1*
X4370987Y5512293D1*
X4380987Y5508960D1*
X4407654D1*
X4417654Y5512293D1*
X4427654Y5518960D1*
X4434320Y5525627D1*
X4440987Y5535627D1*
X4444320Y5542293D1*
X4447654Y5558960D1*
Y5562293D1*
X4444320Y5575627D1*
X4440987Y5582293D1*
X4434320Y5592293D1*
X4427654Y5598960D1*
Y5775627D1*
X4424320Y5778960D1*
Y5792293D1*
X4426810Y5794434D1*
X4428495Y5794155D1*
X4430392Y5791399D1*
X4430987Y5788960D1*
X4440987Y5768960D1*
X4454320Y5748960D1*
X4457654Y5742293D1*
X4484320Y5702293D1*
X4487654Y5695627D1*
X4507654Y5665627D1*
X4510987Y5658960D1*
X4537654Y5618960D1*
X4540987Y5612293D1*
X4567654Y5572293D1*
X4570987Y5565627D1*
X4574320Y5568960D1*
X4594320Y5598960D1*
X4597654Y5605627D1*
X4624320Y5645627D1*
X4627654Y5652293D1*
X4654320Y5692293D1*
X4657654Y5698960D1*
X4684320Y5738960D1*
X4687654Y5745627D1*
X4707654Y5775627D1*
X4710987Y5785627D1*
X4714320Y5792293D1*
X4714865Y5794872D1*
X4716909Y5797604D1*
X4718552Y5797525D1*
X4720987Y5795627D1*
Y5785627D1*
X4717654Y5782293D1*
Y5598960D1*
X4704320Y5585627D1*
X4700987Y5578960D1*
X4697654Y5568960D1*
Y5548960D1*
X4700987Y5538960D1*
X4704320Y5532293D1*
X4720987Y5515627D1*
X4727654Y5512293D1*
X4737654Y5508960D1*
X4764320D1*
X4777654Y5515627D1*
X4794320Y5532293D1*
X4800987Y5545627D1*
Y5572293D1*
X4794320Y5585627D1*
X4782654Y5598960D1*
Y6008960D1*
X4779320D1*
Y6005627D1*
X4774320Y5998960D1*
X4767654Y5988960D1*
X4764320Y5982293D1*
X4744320Y5952293D1*
X4740987Y5945627D1*
X4727654Y5925627D1*
X4724320Y5918960D1*
X4710987Y5898960D1*
X4707654Y5892293D1*
X4687654Y5862293D1*
X4684320Y5855627D1*
X4670987Y5835627D1*
X4667654Y5828960D1*
X4647654Y5798960D1*
X4644320Y5792293D1*
X4630987Y5772293D1*
X4627654Y5765627D1*
X4614320Y5745627D1*
X4610987Y5738960D1*
X4590987Y5708960D1*
X4587654Y5702293D1*
X4580987Y5692293D1*
X4577654Y5685627D1*
X4576440Y5681528D1*
X4572995Y5678702D1*
X4570987Y5678960D1*
X4564320Y5685627D1*
Y5688960D1*
X4560987Y5695627D1*
X4547654Y5715627D1*
X4544320Y5722293D1*
X4530987Y5742293D1*
X4527654Y5748960D1*
X4514320Y5768960D1*
X4510987Y5775627D1*
X4490987Y5805627D1*
X4487654Y5812293D1*
X4474320Y5832293D1*
X4470987Y5838960D1*
X4450987Y5868960D1*
X4447654Y5875627D1*
X4434320Y5895627D1*
X4430987Y5902293D1*
X4417654Y5922293D1*
X4414320Y5928960D1*
X4394320Y5958960D1*
X4390987Y5965627D1*
X4377654Y5985627D1*
X4374320Y5992293D1*
X4367654Y6002293D1*
X4360987Y6008960D1*
Y6012293D1*
G37*
G36*
X4000987Y5845627D2*
Y5838960D1*
X3997654Y5835627D1*
X3990987Y5822293D1*
X3987654Y5812293D1*
X3980987Y5798960D1*
X3977654Y5788960D1*
X3970987Y5775627D1*
X3967654Y5765627D1*
X3960987Y5752293D1*
X3957654Y5742293D1*
X3954320Y5735627D1*
X3950987Y5725627D1*
X3944320Y5712293D1*
X3940987Y5702293D1*
X3934320Y5688960D1*
X3930987Y5678960D1*
X3924320Y5665627D1*
X3920987Y5655627D1*
X3914320Y5642293D1*
X3910987Y5632293D1*
X3907654Y5625627D1*
X3904320Y5615627D1*
X3903224Y5611583D1*
X3900987Y5608960D1*
X3894320Y5605627D1*
X3884320Y5598960D1*
X3877654Y5588960D1*
X3870987Y5575627D1*
X3867654Y5565627D1*
Y5555627D1*
X3870987Y5542293D1*
X3877654Y5528960D1*
X3890987Y5515627D1*
X3904320Y5508960D1*
X3934320D1*
X3944320Y5512293D1*
X3954320Y5518960D1*
X3960987Y5525627D1*
X3967654Y5535627D1*
X3970987Y5545627D1*
X3974320Y5588960D1*
X3980987Y5602293D1*
X3984320Y5612293D1*
X3987654Y5618960D1*
Y5622293D1*
X4044320Y5625627D1*
X4100987D1*
X4157654Y5622293D1*
Y5618960D1*
X4164320Y5605627D1*
X4167654Y5595627D1*
X4170987Y5588960D1*
X4174320Y5545627D1*
X4180987Y5532293D1*
X4187654Y5522293D1*
X4197654Y5515627D1*
X4210987Y5508960D1*
X4240987D1*
X4254320Y5515627D1*
X4267654Y5528960D1*
X4274320Y5542293D1*
X4277654Y5552293D1*
Y5568960D1*
X4274320Y5578960D1*
X4267654Y5592293D1*
X4257654Y5602293D1*
X4250987Y5605627D1*
X4240987Y5615627D1*
Y5618960D1*
X4237654Y5625627D1*
X4234320Y5635627D1*
X4230987Y5642293D1*
X4227654Y5652293D1*
X4220987Y5665627D1*
X4217654Y5675627D1*
X4210987Y5688960D1*
X4207654Y5698960D1*
X4200987Y5712293D1*
X4197654Y5722293D1*
X4190987Y5735627D1*
X4187654Y5745627D1*
X4180987Y5758960D1*
X4177654Y5768960D1*
X4170987Y5782293D1*
X4167654Y5792293D1*
X4160987Y5805627D1*
X4157654Y5815627D1*
X4150987Y5828960D1*
X4147654Y5838960D1*
X4140987Y5852293D1*
X4137654Y5862293D1*
X4134320Y5868960D1*
X4130987Y5878960D1*
X4124320Y5892293D1*
X4120987Y5902293D1*
X4114320Y5915627D1*
X4110987Y5925627D1*
X4104320Y5938960D1*
X4100987Y5948960D1*
X4094320Y5962293D1*
X4090987Y5972293D1*
X4084320Y5985627D1*
X4080987Y5995627D1*
X4074320Y6008960D1*
X4070987D1*
X4067654Y6002293D1*
X4064320Y5992293D1*
X4057654Y5978960D1*
X4054320Y5968960D1*
X4047654Y5955627D1*
X4044320Y5945627D1*
X4037654Y5932293D1*
X4034320Y5922293D1*
X4027654Y5908960D1*
X4024320Y5898960D1*
X4017654Y5885627D1*
X4014320Y5875627D1*
X4010987Y5868960D1*
X4007654Y5858960D1*
X4000987Y5845627D1*
X4067654D1*
X4071222Y5847617D1*
X4074116Y5847403D1*
X4077654Y5845627D1*
Y5835627D1*
X4084320Y5815627D1*
X4087654Y5808960D1*
X4094320Y5788960D1*
X4097654Y5782293D1*
X4104320Y5762293D1*
X4107654Y5755627D1*
X4114320Y5735627D1*
X4117654Y5728960D1*
X4124320Y5708960D1*
X4127654Y5702293D1*
X4130987Y5698960D1*
Y5692293D1*
X4092098Y5688960D1*
X4053209D1*
X4014320Y5692293D1*
X4014968Y5694656D1*
X4017654Y5698960D1*
X4024320Y5718960D1*
X4027654Y5725627D1*
X4034320Y5745627D1*
X4037654Y5752293D1*
X4044320Y5772293D1*
X4047654Y5778960D1*
X4054320Y5798960D1*
X4057654Y5805627D1*
X4067654Y5835627D1*
Y5845627D1*
X4000987D1*
G37*
G36*
X2490987Y5908960D2*
X2489891Y5904916D1*
X2487654Y5902293D1*
X2480987Y5882293D1*
Y5822293D1*
X2484320Y5808960D1*
X2487654Y5802293D1*
X2490987Y5792293D1*
X2504320Y5772293D1*
X2517654Y5758960D1*
X2530987Y5748960D1*
X2540987Y5742293D1*
X2547654Y5738960D1*
X2577654Y5728960D1*
X2600987Y5725627D1*
X2594320Y5718960D1*
X2584320Y5705627D1*
X2577654Y5695627D1*
X2547654Y5655627D1*
X2540987Y5645627D1*
X2520987Y5618960D1*
Y5615627D1*
X2514320Y5612293D1*
X2504320Y5608960D1*
X2497654Y5605627D1*
X2487654Y5598960D1*
X2477654Y5585627D1*
X2474320Y5578960D1*
Y5545627D1*
X2477654Y5535627D1*
X2484320Y5525627D1*
X2490987Y5518960D1*
X2500987Y5512293D1*
X2510987Y5508960D1*
X2534320D1*
X2544320Y5512293D1*
X2550987Y5515627D1*
X2567654Y5532293D1*
X2574320Y5545627D1*
X2577654Y5572293D1*
X2597654Y5598960D1*
X2604320Y5608960D1*
X2634320Y5648960D1*
X2640987Y5658960D1*
X2670987Y5698960D1*
X2677654Y5708960D1*
Y5712293D1*
X2687654Y5722293D1*
X2717654Y5725627D1*
X2747654D1*
X2777654Y5722293D1*
Y5598960D1*
X2770987Y5592293D1*
X2764320Y5582293D1*
X2760987Y5572293D1*
Y5548960D1*
X2764320Y5538960D1*
X2767654Y5532293D1*
X2784320Y5515627D1*
X2790987Y5512293D1*
X2800987Y5508960D1*
X2824320D1*
X2834320Y5512293D1*
X2840987Y5515627D1*
X2857654Y5532293D1*
X2860987Y5538960D1*
X2864320Y5548960D1*
Y5572293D1*
X2860987Y5582293D1*
X2854320Y5592293D1*
X2847654Y5598960D1*
Y5908960D1*
X2857654Y5918960D1*
X2860987Y5925627D1*
X2864320Y5935627D1*
Y5955627D1*
X2860987Y5965627D1*
X2857654Y5972293D1*
X2850987Y5982293D1*
X2847654Y5985627D1*
X2837654Y5992293D1*
X2830987Y5995627D1*
X2820987Y5998960D1*
X2804320D1*
X2794320Y5995627D1*
X2787654Y5992293D1*
X2777654Y5982293D1*
X2587654Y5978960D1*
X2560987Y5972293D1*
X2540987Y5962293D1*
X2530987Y5955627D1*
X2500987Y5925627D1*
X2494320Y5915627D1*
X2490987Y5908960D1*
X2597654D1*
X2657654Y5912293D1*
X2717654D1*
X2777654Y5908960D1*
Y5795627D1*
X2718765Y5792293D1*
X2659876D1*
X2600987Y5795627D1*
X2587654Y5798960D1*
X2580987Y5802293D1*
X2577654Y5805627D1*
X2570987Y5808960D1*
X2564320Y5815627D1*
Y5818960D1*
X2557654Y5828960D1*
X2554320Y5845627D1*
X2550987Y5848960D1*
Y5855627D1*
X2554320Y5858960D1*
X2557654Y5875627D1*
X2564320Y5885627D1*
Y5888960D1*
X2570987Y5895627D1*
X2577654Y5898960D1*
X2580987Y5902293D1*
X2587654Y5905627D1*
X2597654Y5908960D1*
X2490987D1*
G37*
G36*
X3004320Y5998960D2*
X2994320Y5995627D1*
X2987654Y5992293D1*
X2977654Y5985627D1*
X2974320Y5982293D1*
X2967654Y5972293D1*
X2964320Y5965627D1*
X2960987Y5955627D1*
Y5938960D1*
X2964320Y5928960D1*
X2967654Y5922293D1*
X2974320Y5912293D1*
X2977654Y5908960D1*
X2987654Y5902293D1*
X2994320Y5898960D1*
X3007654Y5895627D1*
X3020987D1*
X3030987Y5898960D1*
X3037654Y5902293D1*
X3047654Y5908960D1*
Y5912293D1*
X3117654Y5915627D1*
X3187654D1*
X3257654Y5912293D1*
Y5795627D1*
X3204320Y5792293D1*
X3150987D1*
X3097654Y5795627D1*
X3087654Y5805627D1*
X3080987Y5808960D1*
X3070987Y5812293D1*
X3054320D1*
X3044320Y5808960D1*
X3037654Y5805627D1*
X3017654Y5785627D1*
X3014320Y5778960D1*
X3010987Y5768960D1*
Y5748960D1*
X3014320Y5738960D1*
X3020987Y5725627D1*
X3027654Y5718960D1*
X3037654Y5712293D1*
X3044320Y5708960D1*
X3054320Y5705627D1*
X3070987D1*
X3080987Y5708960D1*
X3087654Y5712293D1*
X3097654Y5722293D1*
X3150987Y5725627D1*
X3204320D1*
X3257654Y5722293D1*
Y5595627D1*
X3187654Y5592293D1*
X3117654D1*
X3047654Y5595627D1*
X3037654Y5605627D1*
X3030987Y5608960D1*
X3020987Y5612293D1*
X3007654D1*
X2994320Y5608960D1*
X2987654Y5605627D1*
X2967654Y5585627D1*
X2964320Y5578960D1*
X2960987Y5565627D1*
Y5552293D1*
X2964320Y5538960D1*
X2967654Y5532293D1*
X2987654Y5512293D1*
X2994320Y5508960D1*
X3007654Y5505627D1*
X3020987D1*
X3030987Y5508960D1*
X3037654Y5512293D1*
X3047654Y5518960D1*
X3327654Y5525627D1*
Y5978960D1*
X3047654Y5982293D1*
X3037654Y5992293D1*
X3024320Y5998960D1*
X3004320D1*
G37*
G36*
X3454320D2*
X3434320Y5988960D1*
X3430987Y5985627D1*
X3424320Y5975627D1*
X3417654Y5962293D1*
Y5935627D1*
X3420987Y5925627D1*
X3424320Y5918960D1*
X3437654Y5905627D1*
X3450987Y5898960D1*
X3464320Y5895627D1*
X3467654D1*
X3472098Y5898960D1*
X3476542D1*
X3480987Y5895627D1*
X3484320Y5892293D1*
X3494320Y5885627D1*
X3547654Y5845627D1*
X3557654Y5838960D1*
X3624320Y5788960D1*
X3634320Y5782293D1*
X3640987Y5778960D1*
X3647654Y5772293D1*
X3640987Y5768960D1*
X3617654Y5748960D1*
X3590987Y5725627D1*
X3474320Y5625627D1*
X3464320Y5615627D1*
X3444320Y5612293D1*
X3434320Y5608960D1*
X3427654Y5605627D1*
X3410987Y5588960D1*
X3407654Y5582293D1*
X3404320Y5572293D1*
Y5548960D1*
X3407654Y5538960D1*
X3410987Y5532293D1*
X3427654Y5515627D1*
X3434320Y5512293D1*
X3444320Y5508960D1*
X3464320D1*
X3477654Y5512293D1*
X3487654Y5518960D1*
X3500987Y5532293D1*
X3504320Y5538960D1*
X3507654Y5548960D1*
Y5555627D1*
X3520987Y5568960D1*
X3527654Y5572293D1*
X3557654Y5598960D1*
X3637654Y5668960D1*
X3667654Y5695627D1*
X3694320Y5718960D1*
X3704320Y5728960D1*
X3706810Y5731101D1*
X3708537Y5730906D1*
X3710987Y5728960D1*
Y5598960D1*
X3700987Y5588960D1*
X3697654Y5582293D1*
X3694320Y5572293D1*
Y5548960D1*
X3697654Y5538960D1*
X3704320Y5528960D1*
X3717654Y5515627D1*
X3724320Y5512293D1*
X3734320Y5508960D1*
X3757654D1*
X3767654Y5512293D1*
X3777654Y5518960D1*
X3787654Y5528960D1*
X3797654Y5548960D1*
Y5572293D1*
X3794320Y5582293D1*
X3787654Y5592293D1*
X3780987Y5598960D1*
Y5908960D1*
X3787654Y5915627D1*
X3794320Y5928960D1*
X3797654Y5938960D1*
Y5958960D1*
X3794320Y5968960D1*
X3790987Y5975627D1*
X3774320Y5992293D1*
X3760987Y5998960D1*
X3730987D1*
X3720987Y5995627D1*
X3700987Y5975627D1*
X3694320Y5962293D1*
Y5935627D1*
X3697654Y5925627D1*
X3704320Y5915627D1*
X3710987Y5908960D1*
Y5818960D1*
X3707452Y5815340D1*
X3705727Y5815881D1*
X3704320Y5818960D1*
X3637654Y5868960D1*
X3620987Y5882293D1*
X3527654Y5952293D1*
X3520987Y5955627D1*
X3517654Y5958960D1*
Y5968960D1*
X3514320Y5975627D1*
X3497654Y5992293D1*
X3484320Y5998960D1*
X3454320D1*
G37*
X8210497Y4328619D2*
D119*
Y4226532D1*
X8183274D1*
X8171594Y4231473D1*
X8163777Y4241132D1*
X8159914Y4250903D1*
X8156050Y4265390D1*
Y4289761D1*
X8159914Y4304361D1*
X8163777Y4314019D1*
X8171594Y4323790D1*
X8183274Y4328619D1*
X8210497D1*
X8120495Y4265390D2*
X8073865D1*
Y4275161D1*
X8077728Y4284932D1*
X8081591Y4289761D1*
X8089408Y4294590D1*
X8101088D1*
X8108815Y4289761D1*
X8116631Y4279990D1*
X8120495Y4265390D1*
Y4255732D1*
X8116631Y4241132D1*
X8108815Y4231473D1*
X8101088Y4226532D1*
X8089408D1*
X8081591Y4231473D1*
X8073865Y4241132D1*
X7995542Y4279990D2*
X7999406Y4289761D1*
X8011086Y4294590D1*
X8022766D1*
X8034446Y4289761D1*
X8038309Y4279990D1*
X8034446Y4270332D1*
X8026629Y4265390D1*
X8007222Y4260561D1*
X7999406Y4255732D1*
X7995542Y4245961D1*
Y4241132D1*
X7999406Y4231473D1*
X8011086Y4226532D1*
X8022766D1*
X8034446Y4231473D1*
X8038309Y4241132D1*
X7959987Y4328619D2*
X7956123Y4323790D1*
X7952170Y4328619D1*
X7956123Y4333561D1*
X7959987Y4328619D1*
X7956123Y4294590D2*
Y4226532D1*
X7869984Y4289761D2*
Y4211932D1*
X7873848Y4197444D1*
X7877711Y4192503D1*
X7885528Y4187673D1*
X7897208D1*
X7904935Y4192503D1*
X7869984Y4275161D2*
X7877711Y4284819D1*
X7885528Y4289761D1*
X7897208D1*
X7904935Y4284819D1*
X7912751Y4275161D1*
X7916615Y4260561D1*
Y4250790D1*
X7912751Y4236303D1*
X7904935Y4226532D1*
X7897208Y4221703D1*
X7885528D1*
X7877711Y4226532D1*
X7869984Y4236303D1*
X7834429Y4294590D2*
Y4226532D1*
Y4275161D2*
X7822749Y4289761D1*
X7814932Y4294590D1*
X7803342D1*
X7795526Y4289761D1*
X7791662Y4275161D1*
Y4226532D1*
X7756107Y4265390D2*
X7709476D1*
Y4275161D1*
X7713340Y4284932D1*
X7717203Y4289761D1*
X7725020Y4294590D1*
X7736700D1*
X7744427Y4289761D1*
X7752243Y4279990D1*
X7756107Y4265390D1*
Y4255732D1*
X7752243Y4241132D1*
X7744427Y4231473D1*
X7736700Y4226532D1*
X7725020D1*
X7717203Y4231473D1*
X7709476Y4241132D1*
X7627291Y4328619D2*
Y4226532D1*
Y4279990D2*
X7635018Y4289761D1*
X7642834Y4294590D1*
X7654514D1*
X7662241Y4289761D1*
X7670058Y4279990D1*
X7673921Y4265390D1*
Y4255732D1*
X7670058Y4241132D1*
X7662241Y4231473D1*
X7654514Y4226532D1*
X7642834D1*
X7635018Y4231473D1*
X7627291Y4241132D1*
X7502272Y4328619D2*
Y4226532D1*
Y4279990D2*
X7494455Y4289761D1*
X7486729Y4294590D1*
X7475049D1*
X7467322Y4289761D1*
X7459505Y4279990D1*
X7455642Y4265390D1*
Y4255732D1*
X7459505Y4241132D1*
X7467322Y4231473D1*
X7475049Y4226532D1*
X7486729D1*
X7494455Y4231473D1*
X7502272Y4241132D1*
X7416133Y4294590D2*
X7392863Y4226532D1*
X7400590Y4207103D1*
X7408406Y4197332D1*
X7416133Y4192503D1*
X7420086D1*
X7369503Y4294590D2*
X7392863Y4226532D1*
X8324555Y4116559D2*
Y4014471D1*
X8297331D1*
X8285651Y4019413D1*
X8277835Y4029071D1*
X8273971Y4038842D1*
X8270108Y4053330D1*
Y4077701D1*
X8273971Y4092301D1*
X8277835Y4101959D1*
X8285651Y4111730D1*
X8297331Y4116559D1*
X8324555D1*
X8215146Y4082530D2*
X8222872Y4077701D1*
X8230689Y4067930D1*
X8234552Y4053330D1*
Y4043671D1*
X8230689Y4029071D1*
X8222872Y4019413D1*
X8215146Y4014471D1*
X8203466D1*
X8195649Y4019413D1*
X8187922Y4029071D1*
X8183969Y4043671D1*
Y4053330D1*
X8187922Y4067930D1*
X8195649Y4077701D1*
X8203466Y4082530D1*
X8215146D1*
X8148413D2*
Y4014471D1*
Y4063101D2*
X8136733Y4077701D1*
X8128917Y4082530D1*
X8117327D1*
X8109510Y4077701D1*
X8105647Y4063101D1*
Y4014471D1*
Y4063101D2*
X8093967Y4077701D1*
X8086150Y4082530D1*
X8074560D1*
X8066743Y4077701D1*
X8062790Y4063101D1*
Y4014471D1*
X8027235Y4116559D2*
X8023371Y4111730D1*
X8019418Y4116559D1*
X8023371Y4121501D1*
X8027235Y4116559D1*
X8023371Y4082530D2*
Y4014471D1*
X7983862Y4082530D2*
Y4014471D1*
Y4063101D2*
X7972182Y4077701D1*
X7964366Y4082530D1*
X7952776D1*
X7944959Y4077701D1*
X7941096Y4063101D1*
Y4014471D1*
X7905540Y4116559D2*
X7901677Y4111730D1*
X7897723Y4116559D1*
X7901677Y4121501D1*
X7905540Y4116559D1*
X7901677Y4082530D2*
Y4014471D1*
X7815448Y4067930D2*
X7823264Y4077701D1*
X7831081Y4082530D1*
X7842671D1*
X7850488Y4077701D1*
X7858215Y4067930D1*
X7862168Y4053330D1*
Y4043671D1*
X7858215Y4029071D1*
X7850488Y4019413D1*
X7842671Y4014471D1*
X7831081D1*
X7823264Y4019413D1*
X7815448Y4029071D1*
X7632119Y4092301D2*
X7635982Y4101959D1*
X7643799Y4111730D1*
X7651526Y4116559D1*
X7667069D1*
X7674886Y4111730D1*
X7682612Y4101959D1*
X7686566Y4092301D1*
X7690429Y4077701D1*
Y4053330D1*
X7686566Y4038842D1*
X7682612Y4029071D1*
X7674886Y4019413D1*
X7667069Y4014471D1*
X7651526D1*
X7643799Y4019413D1*
X7635982Y4029071D1*
X7632119Y4038842D1*
X7596563Y4116559D2*
Y4014471D1*
X7561008Y4116559D2*
X7557144Y4111730D1*
X7553191Y4116559D1*
X7557144Y4121501D1*
X7561008Y4116559D1*
X7557144Y4082530D2*
Y4014471D1*
X7486549Y4116559D2*
X7494276D1*
X7502092Y4111730D1*
X7505956Y4097130D1*
Y4014471D1*
X7517636Y4082530D2*
X7490412D1*
X7439313Y4116559D2*
Y4033901D1*
X7435450Y4019413D1*
X7427633Y4014471D1*
X7419907D1*
X7450993Y4082530D2*
X7423770D1*
X7364944D2*
X7372671Y4077701D1*
X7380488Y4067930D1*
X7384351Y4053330D1*
Y4043671D1*
X7380488Y4029071D1*
X7372671Y4019413D1*
X7364944Y4014471D1*
X7353264D1*
X7345448Y4019413D1*
X7337721Y4029071D1*
X7333768Y4043671D1*
Y4053330D1*
X7337721Y4067930D1*
X7345448Y4077701D1*
X7353264Y4082530D1*
X7364944D1*
X7298212D2*
Y4014471D1*
Y4063101D2*
X7286532Y4077701D1*
X7278715Y4082530D1*
X7267125D1*
X7259309Y4077701D1*
X7255445Y4063101D1*
Y4014471D1*
X9044410Y5782656D2*
D124*
Y5604003D1*
Y5689104D2*
X9023970Y5714654D1*
X9010291Y5723105D1*
X8989851D1*
X8976329Y5714654D1*
X8969568Y5689104D1*
Y5604003D1*
X8886906Y5782656D2*
Y5638004D1*
X8880145Y5612650D1*
X8866466Y5604003D1*
X8852944D1*
X8907346Y5723105D2*
X8859705D1*
X8770282Y5782656D2*
Y5638004D1*
X8763521Y5612650D1*
X8749842Y5604003D1*
X8736320D1*
X8790722Y5723105D2*
X8743081D1*
X8674097D2*
Y5544452D1*
Y5697555D2*
X8660418Y5714457D1*
X8646897Y5723105D1*
X8626457D1*
X8612777Y5714457D1*
X8599256Y5697555D1*
X8592337Y5672005D1*
Y5654906D1*
X8599256Y5629553D1*
X8612777Y5612454D1*
X8626457Y5604003D1*
X8646897D1*
X8660418Y5612454D1*
X8674097Y5629553D1*
X8523197Y5723105D2*
X8530115Y5714457D1*
X8523197Y5706006D1*
X8516436Y5714457D1*
X8523197Y5723105D1*
Y5621102D2*
X8530115Y5612454D1*
X8523197Y5604003D1*
X8516436Y5612454D1*
X8523197Y5621102D1*
X8454214Y5604003D2*
X8358932Y5782460D1*
X8296710Y5604003D2*
X8201428Y5782460D1*
X8139206Y5723105D2*
Y5604003D1*
Y5689104D2*
X8118766Y5714654D1*
X8105087Y5723105D1*
X8084804D1*
X8071125Y5714654D1*
X8064364Y5689104D1*
Y5604003D1*
Y5689104D2*
X8043924Y5714654D1*
X8030245Y5723105D1*
X8009962D1*
X7996283Y5714654D1*
X7989365Y5689104D1*
Y5604003D1*
X7845540Y5723105D2*
Y5604003D1*
Y5697555D2*
X7859062Y5714654D1*
X7872741Y5723105D1*
X7893024D1*
X7906703Y5714654D1*
X7920225Y5697555D1*
X7927143Y5672005D1*
Y5655103D1*
X7920225Y5629553D1*
X7906703Y5612650D1*
X7893024Y5604003D1*
X7872741D1*
X7859062Y5612650D1*
X7845540Y5629553D1*
X7783318Y5782656D2*
Y5604003D1*
X7715237Y5723105D2*
X7783318Y5638004D1*
X7756117Y5672005D2*
X7708476Y5604003D1*
X7646254Y5672005D2*
X7564651D1*
Y5689104D1*
X7571412Y5706203D1*
X7578173Y5714654D1*
X7591852Y5723105D1*
X7612292D1*
X7625814Y5714654D1*
X7639493Y5697555D1*
X7646254Y5672005D1*
Y5655103D1*
X7639493Y5629553D1*
X7625814Y5612650D1*
X7612292Y5604003D1*
X7591852D1*
X7578173Y5612650D1*
X7564651Y5629553D1*
X7502429Y5723105D2*
Y5604003D1*
Y5672005D2*
X7495510Y5697555D1*
X7481989Y5714654D1*
X7468310Y5723105D1*
X7447870D1*
X7385647D2*
Y5544452D1*
Y5697555D2*
X7371968Y5714457D1*
X7358446Y5723105D1*
X7338006D1*
X7324327Y5714457D1*
X7310805Y5697555D1*
X7303887Y5672005D1*
Y5654906D1*
X7310805Y5629553D1*
X7324327Y5612454D1*
X7338006Y5604003D1*
X7358446D1*
X7371968Y5612454D1*
X7385647Y5629553D1*
X7241665Y5723105D2*
Y5604003D1*
Y5689104D2*
X7221225Y5714654D1*
X7207546Y5723105D1*
X7187263D1*
X7173584Y5714654D1*
X7166823Y5689104D1*
Y5604003D1*
X7104601Y5723105D2*
Y5544452D1*
Y5697555D2*
X7090922Y5714457D1*
X7077400Y5723105D1*
X7056960D1*
X7043281Y5714457D1*
X7029759Y5697555D1*
X7022841Y5672005D1*
Y5654906D1*
X7029759Y5629553D1*
X7043281Y5612454D1*
X7056960Y5604003D1*
X7077400D1*
X7090922Y5612454D1*
X7104601Y5629553D1*
X6953858Y5621102D2*
X6960619Y5612454D1*
X6953858Y5604003D1*
X6946940Y5612454D1*
X6953858Y5621102D1*
X6850756Y5723105D2*
X6864278Y5714654D1*
X6877957Y5697555D1*
X6884718Y5672005D1*
Y5655103D1*
X6877957Y5629553D1*
X6864278Y5612650D1*
X6850756Y5604003D1*
X6830316D1*
X6816637Y5612650D1*
X6803115Y5629553D1*
X6796197Y5655103D1*
Y5672005D1*
X6803115Y5697555D1*
X6816637Y5714654D1*
X6830316Y5723105D1*
X6850756D1*
X6733974D2*
Y5604003D1*
Y5672005D2*
X6727056Y5697555D1*
X6713534Y5714654D1*
X6699855Y5723105D1*
X6679415D1*
X6535590Y5714654D2*
Y5578453D1*
X6542351Y5553099D1*
X6549112Y5544452D1*
X6562791Y5536000D1*
X6583231D1*
X6596753Y5544452D1*
X6535590Y5689104D2*
X6549112Y5706006D1*
X6562791Y5714654D1*
X6583231D1*
X6596753Y5706006D1*
X6610432Y5689104D1*
X6617193Y5663554D1*
Y5646455D1*
X6610432Y5621102D1*
X6596753Y5604003D1*
X6583231Y5595552D1*
X6562791D1*
X6549112Y5604003D1*
X6535590Y5621102D1*
X7205746Y3087567D2*
D120*
X7182430Y3011001D1*
X7159115Y3087567D1*
X7132449Y3047473D2*
X7106169D1*
X7097476Y3051095D1*
X7094511Y3054801D1*
X7091614Y3062045D1*
Y3072995D1*
X7094511Y3080239D1*
X7097476Y3083945D1*
X7106169Y3087567D1*
X7132449D1*
Y3011001D1*
X7064947Y3087567D2*
Y3011001D1*
X7029974D1*
X7003308Y3087567D2*
Y3011001D1*
X6968335D1*
X6924148Y3087483D2*
X6932908Y3083861D1*
X6938771Y3072911D1*
X6941668Y3054717D1*
Y3043767D1*
X6938771Y3025573D1*
X6932908Y3014623D1*
X6924148Y3011001D1*
X6918353D1*
X6909593Y3014623D1*
X6903798Y3025573D1*
X6900833Y3043767D1*
Y3054717D1*
X6903798Y3072911D1*
X6909593Y3083861D1*
X6918353Y3087483D1*
X6924148D1*
X6903798Y3072911D2*
X6938771Y3025573D1*
X7155764Y2917567D2*
X7132449Y2841001D1*
X7109134Y2917567D1*
X7038734Y2899373D2*
X7041632Y2906617D1*
X7047494Y2913945D1*
X7053289Y2917567D1*
X7064947D1*
X7070809Y2913945D1*
X7076605Y2906617D1*
X7079569Y2899373D1*
X7082467Y2888423D1*
Y2870145D1*
X7079569Y2859279D1*
X7076605Y2851951D1*
X7070809Y2844707D1*
X7064947Y2841001D1*
X7053289D1*
X7047494Y2844707D1*
X7041632Y2851951D1*
X7038734Y2859279D1*
X6968335Y2899373D2*
X6971233Y2906617D1*
X6977095Y2913945D1*
X6982890Y2917567D1*
X6994548D1*
X7000410Y2913945D1*
X7006205Y2906617D1*
X7009170Y2899373D1*
X7012068Y2888423D1*
Y2870145D1*
X7009170Y2859279D1*
X7006205Y2851951D1*
X7000410Y2844707D1*
X6994548Y2841001D1*
X6982890D1*
X6977095Y2844707D1*
X6971233Y2851951D1*
X6968335Y2859279D1*
X6938703Y2899289D2*
Y2902911D1*
X6935806Y2910239D1*
X6932908Y2913861D1*
X6927046Y2917483D1*
X6915388D1*
X6909593Y2913861D1*
X6906696Y2910239D1*
X6903731Y2902911D1*
Y2895667D1*
X6906696Y2888339D1*
X6912491Y2877473D1*
X6941668Y2841001D1*
X6900833D1*
X5155435Y3665067D2*
X5132120Y3588501D1*
X5108805Y3665067D1*
X5044201D2*
X5082139D1*
Y3588501D1*
Y3628595D2*
X5058823D1*
X4970837Y3588501D2*
X4994219Y3665067D1*
X5017534Y3588501D1*
X5008774Y3614023D2*
X4979597D1*
X4903335Y3654117D2*
X4909130Y3661445D1*
X4917890Y3665067D1*
X4929548D1*
X4938308Y3661445D1*
X4944170Y3654117D1*
Y3646873D1*
X4941205Y3639545D1*
X4938308Y3635923D1*
X4932513Y3632301D1*
X4914993Y3624973D1*
X4909130Y3621351D1*
X4906233Y3617645D1*
X4903335Y3610401D1*
Y3599451D1*
X4909130Y3592207D1*
X4917890Y3588501D1*
X4929548D1*
X4938308Y3592207D1*
X4944170Y3599451D1*
X4856251Y3665067D2*
Y3588501D1*
X4876668Y3665067D2*
X4835833D1*
X5084969Y3257567D2*
X5061654Y3181001D1*
X5038339Y3257567D1*
X5008707Y3239289D2*
Y3242911D1*
X5005809Y3250239D1*
X5002912Y3253861D1*
X4997049Y3257483D1*
X4985392D1*
X4979597Y3253861D1*
X4976699Y3250239D1*
X4973734Y3242911D1*
Y3235667D1*
X4976699Y3228339D1*
X4982494Y3217473D1*
X5011672Y3181001D1*
X4970837D1*
X4944170Y3217473D2*
X4917890D1*
X4909198Y3221095D1*
X4906233Y3224801D1*
X4903335Y3232045D1*
Y3242995D1*
X4906233Y3250239D1*
X4909198Y3253945D1*
X4917890Y3257567D1*
X4944170D1*
Y3181001D1*
X4841696Y3257483D2*
X4870806D1*
X4873703Y3224717D1*
X4870806Y3228339D1*
X4862046Y3232045D1*
X4853353D1*
X4844593Y3228339D1*
X4838731Y3221095D1*
X4835833Y3210145D1*
Y3202901D1*
X4838731Y3191951D1*
X4844593Y3184623D1*
X4853353Y3181001D1*
X4862046D1*
X4870806Y3184623D1*
X4873703Y3188329D1*
X4876668Y3195573D1*
X5090764Y3142567D2*
X5067449Y3066001D1*
X5044134Y3142567D1*
X4973734Y3124373D2*
X4976632Y3131617D1*
X4982494Y3138945D1*
X4988289Y3142567D1*
X4999947D1*
X5005809Y3138945D1*
X5011605Y3131617D1*
X5014569Y3124373D1*
X5017467Y3113423D1*
Y3095145D1*
X5014569Y3084279D1*
X5011605Y3076951D1*
X5005809Y3069707D1*
X4999947Y3066001D1*
X4988289D1*
X4982494Y3069707D1*
X4976632Y3076951D1*
X4973734Y3084279D1*
X4903335Y3124373D2*
X4906233Y3131617D1*
X4912095Y3138945D1*
X4917890Y3142567D1*
X4929548D1*
X4935410Y3138945D1*
X4941205Y3131617D1*
X4944170Y3124373D1*
X4947068Y3113423D1*
Y3095145D1*
X4944170Y3084279D1*
X4941205Y3076951D1*
X4935410Y3069707D1*
X4929548Y3066001D1*
X4917890D1*
X4912095Y3069707D1*
X4906233Y3076951D1*
X4903335Y3084279D1*
X4859148Y3142483D2*
X4867908Y3138861D1*
X4873771Y3127911D1*
X4876668Y3109717D1*
Y3098767D1*
X4873771Y3080573D1*
X4867908Y3069623D1*
X4859148Y3066001D1*
X4853353D1*
X4844593Y3069623D1*
X4838798Y3080573D1*
X4835833Y3098767D1*
Y3109717D1*
X4838798Y3127911D1*
X4844593Y3138861D1*
X4853353Y3142483D1*
X4859148D1*
X4838798Y3127911D2*
X4873771Y3080573D1*
X5114167Y2740067D2*
X5090852Y2663501D1*
X5067537Y2740067D1*
X5040870Y2699973D2*
X5014590D1*
X5005897Y2703595D1*
X5002932Y2707301D1*
X5000035Y2714545D1*
Y2725495D1*
X5002932Y2732739D1*
X5005897Y2736445D1*
X5014590Y2740067D1*
X5040870D1*
Y2663501D1*
X4973368Y2740067D2*
Y2663501D1*
X4938395D1*
X4911729Y2740067D2*
Y2663501D1*
X4876756D1*
X4850090Y2725411D2*
X4844227Y2729117D1*
X4835467Y2739983D1*
Y2663501D1*
X5459167Y3827567D2*
X5435852Y3751001D1*
X5412537Y3827567D1*
X5342137Y3809373D2*
X5345035Y3816617D1*
X5350897Y3823945D1*
X5356692Y3827567D1*
X5368350D1*
X5374212Y3823945D1*
X5380007Y3816617D1*
X5382972Y3809373D1*
X5385870Y3798423D1*
Y3780145D1*
X5382972Y3769279D1*
X5380007Y3761951D1*
X5374212Y3754707D1*
X5368350Y3751001D1*
X5356692D1*
X5350897Y3754707D1*
X5345035Y3761951D1*
X5342137Y3769279D1*
X5271738Y3809373D2*
X5274635Y3816617D1*
X5280498Y3823945D1*
X5286293Y3827567D1*
X5297951D1*
X5303813Y3823945D1*
X5309608Y3816617D1*
X5312573Y3809373D1*
X5315471Y3798423D1*
Y3780145D1*
X5312573Y3769279D1*
X5309608Y3761951D1*
X5303813Y3754707D1*
X5297951Y3751001D1*
X5286293D1*
X5280498Y3754707D1*
X5274635Y3761951D1*
X5271738Y3769279D1*
X5245071Y3812911D2*
X5239209Y3816617D1*
X5230449Y3827483D1*
Y3751001D1*
X6530764Y2442567D2*
X6507449Y2366001D1*
X6484134Y2442567D1*
X6413734Y2424373D2*
X6416632Y2431617D1*
X6422494Y2438945D1*
X6428289Y2442567D1*
X6439947D1*
X6445809Y2438945D1*
X6451605Y2431617D1*
X6454569Y2424373D1*
X6457467Y2413423D1*
Y2395145D1*
X6454569Y2384279D1*
X6451605Y2376951D1*
X6445809Y2369707D1*
X6439947Y2366001D1*
X6428289D1*
X6422494Y2369707D1*
X6416632Y2376951D1*
X6413734Y2384279D1*
X6343335Y2424373D2*
X6346233Y2431617D1*
X6352095Y2438945D1*
X6357890Y2442567D1*
X6369548D1*
X6375410Y2438945D1*
X6381205Y2431617D1*
X6384170Y2424373D1*
X6387068Y2413423D1*
Y2395145D1*
X6384170Y2384279D1*
X6381205Y2376951D1*
X6375410Y2369707D1*
X6369548Y2366001D1*
X6357890D1*
X6352095Y2369707D1*
X6346233Y2376951D1*
X6343335Y2384279D1*
X6310806Y2442483D2*
X6278798D1*
X6296251Y2413339D1*
X6287491D1*
X6281696Y2409717D1*
X6278798Y2406095D1*
X6275833Y2395145D1*
Y2387901D1*
X6278798Y2376951D1*
X6284593Y2369623D1*
X6293353Y2366001D1*
X6302113D1*
X6310806Y2369623D1*
X6313703Y2373329D1*
X6316668Y2380573D1*
X4448541Y1438113D2*
Y1467223D1*
X4481307Y1470120D1*
X4477685Y1467223D1*
X4473979Y1458463D1*
Y1449770D1*
X4477685Y1441010D1*
X4484929Y1435148D1*
X4495879Y1432250D1*
X4503123D1*
X4514073Y1435148D1*
X4521401Y1441010D1*
X4525023Y1449770D1*
Y1458463D1*
X4521401Y1467223D1*
X4517695Y1470120D1*
X4510451Y1473085D1*
X4448457Y1405583D2*
X4525023Y1382268D1*
X4448457Y1358953D1*
Y1294417D2*
Y1332287D1*
X4525023D1*
Y1294417D1*
X4484929Y1332287D2*
Y1308972D1*
X4448457Y1226915D2*
X4525023D1*
X4448457Y1267750D1*
X4525023D1*
X4970837Y3824373D2*
X4973734Y3831617D1*
X4979597Y3838945D1*
X4985392Y3842567D1*
X4997049D1*
X5002912Y3838945D1*
X5008707Y3831617D1*
X5011672Y3824373D1*
X5014569Y3813423D1*
Y3795145D1*
X5011672Y3784279D1*
X5008707Y3776951D1*
X5002912Y3769707D1*
X4997049Y3766001D1*
X4985392D1*
X4979597Y3769707D1*
X4973734Y3776951D1*
X4970837Y3784279D1*
Y3795145D1*
X4985392D1*
X4903335Y3842567D2*
Y3766001D1*
X4944170Y3842567D1*
Y3766001D1*
X4876668Y3842567D2*
Y3766001D1*
X4856251D1*
X4847491Y3769707D1*
X4841628Y3776951D1*
X4838731Y3784279D1*
X4835833Y3795145D1*
Y3813423D1*
X4838731Y3824373D1*
X4841628Y3831617D1*
X4847491Y3838945D1*
X4856251Y3842567D1*
X4876668D1*
X10480387Y4497631D2*
Y4421065D1*
X10439552Y4497631D2*
Y4421065D1*
X10480387Y4461159D2*
X10439552D1*
X10401228Y4421065D2*
X10372051Y4497547D1*
X10412886D1*
X10345384Y4421065D2*
X10304549Y4497547D1*
X10234149Y4479437D2*
X10237047Y4486681D1*
X10242909Y4494009D1*
X10248705Y4497631D1*
X10260362D1*
X10266225Y4494009D1*
X10272020Y4486681D1*
X10274985Y4479437D1*
X10277882Y4468487D1*
Y4450209D1*
X10274985Y4439343D1*
X10272020Y4432015D1*
X10266225Y4424771D1*
X10260362Y4421065D1*
X10248705D1*
X10242909Y4424771D1*
X10237047Y4432015D1*
X10234149Y4439343D1*
X10172510Y4486681D2*
X10175408Y4493925D1*
X10184168Y4497547D1*
X10189963D1*
X10198723Y4493925D1*
X10204585Y4482975D1*
X10207483Y4464781D1*
Y4446587D1*
X10204585Y4432015D1*
X10198723Y4424687D1*
X10189963Y4421065D1*
X10187065D1*
X10178373Y4424687D1*
X10172510Y4432015D1*
X10169613Y4442965D1*
Y4446587D1*
X10172510Y4457537D1*
X10178373Y4464781D1*
X10187065Y4468403D1*
X10189963D1*
X10198723Y4464781D1*
X10204585Y4457537D1*
X10207483Y4446587D1*
X10449601Y4367503D2*
Y4312837D1*
X10446704Y4301887D1*
X10440841Y4294643D1*
X10432081Y4290937D1*
X10426286D1*
X10417526Y4294643D1*
X10411664Y4301887D1*
X10408766Y4312837D1*
Y4367503D1*
X10335402Y4290937D2*
X10358785Y4367503D1*
X10382100Y4290937D1*
X10373340Y4316459D2*
X10344162D1*
X10308735Y4331031D2*
X10282523D1*
X10273763Y4334737D1*
X10270798Y4338359D1*
X10267900Y4345603D1*
Y4352931D1*
X10270798Y4360175D1*
X10273763Y4363881D1*
X10282523Y4367503D1*
X10308735D1*
Y4290937D1*
X10288318Y4331031D2*
X10267900Y4290937D1*
X10220816Y4367503D2*
Y4290937D1*
X10241234Y4367503D2*
X10200399D1*
M02*
