M48
METRIC,0000.00
T01C0.2
T02C0.25
T03C0.6
T04C0.62
T05C0.9
T06C1.28
T07C2.6
%
T01
X+005848Y+005292
X+005783Y+005292
X+005717Y+005292
X+005652Y+005292
X+005652Y+005358
X+005717Y+005358
X+005783Y+005358
X+005848Y+005358
X+005912Y+005358
X+005977Y+005358
X+005977Y+005423
X+005912Y+005423
X+005848Y+005423
X+005912Y+005292
X+005977Y+005292
X+006042Y+005292
X+006042Y+005227
X+006042Y+005162
X+006042Y+005098
X+006042Y+005033
X+006108Y+005033
X+006108Y+005098
X+006108Y+005162
X+006108Y+005227
X+006108Y+005292
X+006173Y+005292
X+006173Y+005227
X+006173Y+005162
X+006173Y+005033
X+006173Y+004967
X+006173Y+004902
X+006108Y+004902
X+006108Y+004967
X+006042Y+004967
X+006042Y+004902
X+006042Y+004838
X+006042Y+004773
X+006042Y+004708
X+005977Y+004708
X+005912Y+004708
X+005848Y+004708
X+005783Y+004708
X+005783Y+004642
X+005848Y+004642
X+005912Y+004642
X+005977Y+004642
X+006042Y+004642
X+006042Y+004577
X+006042Y+004512
X+005977Y+004512
X+005977Y+004577
X+005912Y+004577
X+005848Y+004577
X+005783Y+004577
X+005783Y+004512
X+005717Y+004512
X+005717Y+004577
X+005717Y+004642
X+005652Y+004642
X+005652Y+004708
X+005717Y+004708
X+005588Y+004708
X+005585Y+004645
X+005523Y+004642
X+005458Y+004642
X+005523Y+004577
X+005588Y+004577
X+005588Y+004512
X+005535Y+004410
X+005720Y+004410
X+005780Y+004410
X+005912Y+004512
X+006108Y+004512
X+006173Y+004512
X+006235Y+004510
X+006238Y+004577
X+006173Y+004577
X+006173Y+004642
X+006108Y+004642
X+006108Y+004577
X+006108Y+004708
X+006173Y+004708
X+006173Y+004773
X+006173Y+004838
X+006108Y+004838
X+006108Y+004773
X+006238Y+004773
X+006238Y+004708
X+006238Y+004642
X+006360Y+004642
X+006370Y+004870
X+006238Y+004838
X+006345Y+005065
X+006345Y+005130
X+006455Y+005104
X+006460Y+005333
X+006460Y+005383
X+006460Y+005438
X+006505Y+005475
X+006638Y+005470
X+006680Y+005433
X+006798Y+005352
X+006845Y+005195
X+006942Y+005150
X+007030Y+005230
X+006990Y+005270
X+007115Y+005315
X+007180Y+005317
X+007425Y+005188
X+007692Y+005190
X+007692Y+005065
X+007692Y+004845
X+007525Y+004765
X+007375Y+004660
X+007325Y+004725
X+007160Y+004895
X+006890Y+005033
X+006723Y+005083
X+006638Y+004875
X+006680Y+004808
X+006662Y+004642
X+006598Y+004573
X+006345Y+004305
X+006505Y+004090
X+006340Y+003867
X+006240Y+003870
X+006240Y+003715
X+006150Y+003560
X+006150Y+003480
X+006070Y+003480
X+006070Y+003400
X+006070Y+003320
X+006150Y+003320
X+006230Y+003320
X+006230Y+003400
X+006230Y+003480
X+006310Y+003480
X+006310Y+003400
X+006310Y+003320
X+006310Y+003240
X+006230Y+003240
X+006230Y+003160
X+006150Y+003160
X+006070Y+003160
X+006070Y+003240
X+006150Y+003240
X+005990Y+003240
X+005910Y+003240
X+005910Y+003160
X+005990Y+003160
X+005990Y+003080
X+005910Y+003080
X+005830Y+003080
X+005830Y+003160
X+005830Y+003240
X+005830Y+003320
X+005830Y+003400
X+005830Y+003480
X+005830Y+003560
X+005910Y+003480
X+005990Y+003480
X+005990Y+003400
X+005910Y+003400
X+005910Y+003320
X+005990Y+003320
X+006150Y+003400
X+005990Y+003560
X+006010Y+003746
X+006050Y+003785
X+006010Y+003824
X+006050Y+003870
X+005835Y+003802
X+005835Y+003745
X+005795Y+003745
X+005670Y+003642
X+005670Y+003560
X+005670Y+003480
X+005670Y+003400
X+005670Y+003320
X+005590Y+003320
X+005590Y+003400
X+005590Y+003480
X+005510Y+003480
X+005510Y+003400
X+005510Y+003320
X+005510Y+003240
X+005590Y+003240
X+005590Y+003160
X+005510Y+003160
X+005510Y+003080
X+005510Y+003000
X+005590Y+002920
X+005590Y+002840
X+005510Y+002840
X+005510Y+002760
X+005430Y+002760
X+005430Y+002840
X+005352Y+002842
X+005350Y+002920
X+005430Y+002920
X+005430Y+003080
X+005350Y+003080
X+005270Y+003080
X+005270Y+003000
X+005270Y+002920
X+005270Y+002842
X+005270Y+002760
X+005350Y+002760
X+005350Y+002680
X+005430Y+002680
X+005430Y+002600
X+005430Y+002520
X+005350Y+002520
X+005350Y+002600
X+005270Y+002600
X+005270Y+002680
X+005190Y+002600
X+005190Y+002520
X+005110Y+002520
X+005060Y+002520
X+005085Y+002600
X+005270Y+002520
X+005430Y+002440
X+005430Y+002360
X+005430Y+002320
X+005408Y+002235
X+005495Y+002177
X+005623Y+002175
X+005877Y+002175
X+006002Y+002175
X+006131Y+002175
X+006257Y+002174
X+006387Y+002174
X+006458Y+002195
X+006410Y+002280
X+006373Y+002280
X+006575Y+002258
X+006575Y+002302
X+006752Y+002373
X+006802Y+002373
X+006866Y+002195
X+006972Y+002195
X+007070Y+002096
X+007233Y+001833
X+007283Y+001833
X+007188Y+001683
X+007092Y+001680
X+007093Y+001580
X+007148Y+001410
X+007197Y+001410
X+007270Y+001400
X+007310Y+001400
X+007350Y+001400
X+007370Y+001500
X+007310Y+001500
X+007470Y+001500
X+007550Y+001500
X+007510Y+001400
X+007590Y+001400
X+007670Y+001400
X+007750Y+001400
X+007830Y+001400
X+007910Y+001400
X+007990Y+001400
X+008070Y+001400
X+008150Y+001400
X+008110Y+001230
X+008190Y+001230
X+008030Y+001230
X+007950Y+001230
X+007870Y+001230
X+007790Y+001230
X+007710Y+001230
X+007630Y+001230
X+007550Y+001230
X+007470Y+001230
X+007410Y+001230
X+007670Y+001500
X+007790Y+001523
X+007870Y+001523
X+007950Y+001523
X+007910Y+001642
X+007830Y+001642
X+007770Y+001717
X+007735Y+001753
X+007600Y+001740
X+007565Y+001705
X+007510Y+001665
X+007430Y+001665
X+007650Y+002027
X+007712Y+002027
X+007777Y+002027
X+007924Y+002026
X+007923Y+002153
X+007923Y+002279
X+007921Y+002406
X+007955Y+002538
X+008017Y+002662
X+008080Y+002788
X+008080Y+002915
X+008096Y+003041
X+008099Y+003168
X+008120Y+003295
X+008245Y+003373
X+008523Y+003350
X+008645Y+003250
X+008833Y+003345
X+009020Y+003380
X+009080Y+003467
X+009160Y+003373
X+009202Y+003220
X+009202Y+003025
X+009400Y+003025
X+009400Y+003223
X+009598Y+003223
X+009598Y+003025
X+009598Y+002827
X+009633Y+002638
X+009670Y+002598
X+009715Y+002527
X+009755Y+002562
X+009480Y+002375
X+009400Y+002340
X+009400Y+002488
X+009160Y+002290
X+009080Y+002290
X+009000Y+002290
X+008850Y+002545
X+008850Y+002625
X+008742Y+002700
X+008700Y+002875
X+008840Y+002945
X+008988Y+002705
X+009202Y+002827
X+009400Y+002827
X+009480Y+003427
X+009400Y+003505
X+009240Y+003550
X+009300Y+003735
X+009548Y+003735
X+009698Y+003870
X+009800Y+003870
X+009800Y+003950
X+009800Y+004030
X+009800Y+004110
X+009800Y+004190
X+009800Y+004270
X+009800Y+004350
X+009800Y+004430
X+009800Y+004510
X+009800Y+004590
X+009800Y+004670
X+009800Y+004750
X+009800Y+004830
X+009800Y+004910
X+009800Y+004990
X+009800Y+005070
X+009800Y+005150
X+009800Y+005230
X+009800Y+005310
X+009800Y+005390
X+009800Y+005470
X+009800Y+005550
X+009700Y+005590
X+009800Y+005670
X+009800Y+005750
X+009800Y+005830
X+009750Y+005875
X+009745Y+006060
X+009855Y+006060
X+009930Y+006060
X+010090Y+006098
X+010130Y+006060
X+010200Y+006023
X+010165Y+005983
X+010325Y+006110
X+010438Y+005800
X+010325Y+005593
X+009970Y+005590
X+009970Y+005652
X+009970Y+005712
X+009970Y+005792
X+009970Y+005510
X+009970Y+005430
X+009970Y+005350
X+009970Y+005270
X+009970Y+005190
X+009970Y+005110
X+009970Y+005030
X+009970Y+004950
X+009970Y+004870
X+009970Y+004790
X+009970Y+004710
X+009970Y+004630
X+009970Y+004550
X+009970Y+004470
X+009970Y+004390
X+009970Y+004310
X+009970Y+004230
X+009970Y+004150
X+009970Y+004070
X+009970Y+003990
X+009970Y+003910
X+010173Y+003865
X+010262Y+003784
X+010389Y+003875
X+010427Y+003748
X+010325Y+004155
X+010388Y+004273
X+010262Y+004274
X+009700Y+004390
X+009700Y+004470
X+009530Y+004670
X+009700Y+004950
X+009700Y+005350
X+009343Y+005430
X+009262Y+005427
X+009318Y+005510
X+009115Y+005498
X+009005Y+005470
X+009039Y+005309
X+009096Y+005309
X+009167Y+005310
X+009238Y+005310
X+008955Y+005310
X+008855Y+005575
X+008588Y+005430
X+008392Y+005550
X+008215Y+005435
X+008125Y+005620
X+008045Y+005658
X+008010Y+005550
X+007862Y+005585
X+007792Y+005550
X+007827Y+005902
X+007980Y+005902
X+007980Y+006025
X+008085Y+006027
X+008170Y+006025
X+008173Y+005902
X+008588Y+005780
X+008945Y+006030
X+009212Y+005762
X+009530Y+005790
X+008980Y+004910
X+008940Y+004870
X+008980Y+004830
X+008940Y+004790
X+008980Y+004750
X+008940Y+004710
X+009080Y+004550
X+009040Y+004510
X+009120Y+004590
X+009160Y+004630
X+009245Y+004430
X+009245Y+004350
X+009200Y+004310
X+009160Y+004270
X+009120Y+004230
X+009530Y+004190
X+009530Y+004070
X+008792Y+003690
X+008530Y+003575
X+008195Y+003852
X+008160Y+003905
X+008085Y+003852
X+008050Y+003892
X+008027Y+003940
X+007998Y+003985
X+008120Y+004025
X+008242Y+004010
X+007885Y+004345
X+007920Y+004405
X+007920Y+004460
X+007735Y+004465
X+007735Y+004525
X+007475Y+004470
X+007525Y+004335
X+007325Y+004473
X+007112Y+004267
X+007070Y+004230
X+006990Y+004348
X+006942Y+004312
X+007030Y+004508
X+007030Y+004610
X+007200Y+004125
X+007310Y+004160
X+007517Y+003850
X+007658Y+003467
X+007573Y+003440
X+007735Y+003415
X+007770Y+003365
X+007805Y+003470
X+007658Y+003295
X+007562Y+003115
X+007520Y+003042
X+007417Y+003038
X+007310Y+003002
X+007260Y+003130
X+007260Y+003200
X+007315Y+003200
X+007310Y+003270
X+007260Y+003375
X+007152Y+003315
X+007112Y+003375
X+007023Y+003320
X+006942Y+003235
X+006902Y+003080
X+006895Y+003000
X+007015Y+003000
X+007112Y+003000
X+007070Y+003120
X+006883Y+003400
X+006883Y+003452
X+006708Y+003205
X+006652Y+003205
X+006590Y+003083
X+006677Y+002880
X+006558Y+002783
X+006595Y+002740
X+006650Y+002720
X+006708Y+002720
X+006840Y+002745
X+006980Y+002693
X+006980Y+002635
X+007417Y+002810
X+007598Y+002787
X+007648Y+002914
X+007608Y+002980
X+007770Y+002660
X+007785Y+002533
X+007740Y+002406
X+007738Y+002279
X+007690Y+002158
X+007527Y+002158
X+007590Y+002406
X+007458Y+002535
X+008167Y+002660
X+008435Y+002473
X+008475Y+002508
X+008477Y+002438
X+008435Y+002400
X+008542Y+002290
X+008502Y+002252
X+008670Y+002225
X+008673Y+001975
X+008530Y+001975
X+008305Y+001770
X+008267Y+001808
X+008227Y+001845
X+008155Y+001808
X+008192Y+001770
X+008117Y+001845
X+008165Y+002027
X+008165Y+002275
X+008390Y+001645
X+008470Y+001645
X+008550Y+001648
X+008630Y+001645
X+008710Y+001645
X+008790Y+001645
X+008870Y+001645
X+008950Y+001645
X+009030Y+001645
X+008990Y+001525
X+008910Y+001525
X+008830Y+001525
X+008750Y+001525
X+008670Y+001525
X+008590Y+001525
X+008510Y+001525
X+008430Y+001525
X+008350Y+001525
X+008550Y+001375
X+008630Y+001375
X+008710Y+001375
X+008790Y+001375
X+008870Y+001375
X+008950Y+001375
X+009030Y+001375
X+008990Y+001255
X+008910Y+001255
X+008830Y+001255
X+008750Y+001255
X+008670Y+001255
X+008590Y+001255
X+009070Y+001255
X+009150Y+001255
X+009230Y+001255
X+009190Y+001374
X+009150Y+001525
X+009230Y+001525
X+009190Y+001645
X+009070Y+001525
X+009648Y+001755
X+009690Y+001755
X+009630Y+001860
X+009779Y+001939
X+009800Y+002101
X+009920Y+001770
X+009920Y+001580
X+009800Y+001530
X+010027Y+001360
X+007400Y+003440
X+006502Y+003480
X+006460Y+003400
X+006423Y+003280
X+006230Y+003080
X+006150Y+003080
X+006070Y+003080
X+006070Y+002920
X+006150Y+002920
X+006230Y+002920
X+006310Y+002920
X+006310Y+002840
X+006230Y+002840
X+006230Y+002760
X+006150Y+002760
X+006150Y+002840
X+006070Y+002840
X+006070Y+002760
X+005990Y+002760
X+005910Y+002760
X+005910Y+002840
X+005990Y+002840
X+005990Y+002920
X+005910Y+002920
X+005830Y+002920
X+005830Y+002840
X+005830Y+002760
X+005750Y+002760
X+005670Y+002760
X+005670Y+002840
X+005670Y+002920
X+005670Y+003080
X+005590Y+003080
X+005670Y+003160
X+005670Y+003240
X+005430Y+003240
X+005350Y+003240
X+005350Y+003160
X+005430Y+003160
X+005270Y+003160
X+005270Y+003240
X+005270Y+003320
X+005350Y+003320
X+005430Y+003320
X+005430Y+003400
X+005350Y+003400
X+005270Y+003400
X+005270Y+003480
X+005350Y+003480
X+005430Y+003480
X+005430Y+003560
X+005270Y+003560
X+005270Y+003640
X+005145Y+003820
X+005090Y+003892
X+005050Y+003858
X+005090Y+003962
X+005050Y+003998
X+004885Y+003820
X+004617Y+003810
X+004617Y+004083
X+004760Y+004085
X+004715Y+004315
X+004675Y+004350
X+004617Y+004345
X+004795Y+004345
X+004850Y+004345
X+004848Y+004600
X+004960Y+004588
X+005110Y+004588
X+005110Y+004733
X+005035Y+004805
X+005110Y+004877
X+005192Y+004838
X+005262Y+004838
X+005262Y+004902
X+005327Y+004967
X+005392Y+004967
X+005392Y+004902
X+005392Y+004838
X+005392Y+004773
X+005392Y+004708
X+005327Y+004708
X+005327Y+004577
X+005262Y+004577
X+005262Y+004512
X+005327Y+004512
X+005458Y+004773
X+005458Y+004838
X+005458Y+004902
X+005458Y+004967
X+005458Y+005033
X+005458Y+005098
X+005458Y+005162
X+005458Y+005227
X+005458Y+005292
X+005523Y+005292
X+005523Y+005358
X+005588Y+005358
X+005588Y+005423
X+005523Y+005423
X+005458Y+005488
X+005448Y+005585
X+005411Y+005624
X+005340Y+005623
X+005262Y+005488
X+005200Y+005458
X+005200Y+005405
X+005152Y+005370
X+005262Y+005292
X+005327Y+005292
X+005392Y+005292
X+005392Y+005227
X+005392Y+005162
X+005327Y+005162
X+005327Y+005098
X+005327Y+005033
X+005262Y+005033
X+005262Y+005098
X+005392Y+005098
X+005392Y+005033
X+005523Y+005195
X+005652Y+005098
X+005717Y+005098
X+005717Y+005033
X+005652Y+005033
X+005652Y+004967
X+005717Y+004967
X+005717Y+004902
X+005652Y+004902
X+005783Y+004902
X+005848Y+004902
X+005848Y+004967
X+005783Y+004967
X+005783Y+005033
X+005848Y+005033
X+005848Y+005098
X+005783Y+005098
X+006042Y+005358
X+006108Y+005358
X+006108Y+005488
X+006173Y+005488
X+006238Y+005488
X+006238Y+005627
X+006183Y+005627
X+006158Y+005708
X+006220Y+005767
X+006273Y+005767
X+006330Y+005767
X+006388Y+005768
X+006390Y+005860
X+006494Y+005801
X+006495Y+005748
X+006552Y+005800
X+006670Y+005820
X+006598Y+005665
X+006455Y+005625
X+006400Y+005625
X+006748Y+005623
X+006798Y+006027
X+006990Y+006025
X+007190Y+005900
X+007265Y+006025
X+006495Y+005977
X+006445Y+006020
X+006285Y+006062
X+006195Y+006027
X+006155Y+006062
X+005870Y+005645
X+005730Y+005645
X+005633Y+005560
X+005595Y+005598
X+005477Y+005735
X+005438Y+005775
X+005540Y+005870
X+005473Y+005977
X+005302Y+005940
X+005245Y+005945
X+005075Y+005998
X+004995Y+005973
X+004673Y+005900
X+004620Y+005900
X+004577Y+005860
X+004540Y+005823
X+004370Y+005735
X+004335Y+005775
X+004300Y+005623
X+004300Y+005395
X+004190Y+005345
X+004020Y+005258
X+003870Y+005258
X+003883Y+005190
X+003830Y+005190
X+003735Y+005227
X+003688Y+005267
X+003592Y+005380
X+003530Y+005448
X+003558Y+005492
X+003648Y+005492
X+003627Y+005627
X+003700Y+005627
X+003870Y+005627
X+003967Y+005700
X+003933Y+005740
X+004020Y+005627
X+004190Y+005850
X+003800Y+005835
X+003748Y+005833
X+003425Y+005550
X+003390Y+005510
X+003492Y+005400
X+003388Y+005348
X+003130Y+005350
X+003075Y+004942
X+003125Y+004755
X+003225Y+004765
X+003275Y+004715
X+003225Y+004675
X+003175Y+004635
X+003075Y+004635
X+003325Y+004635
X+003375Y+004685
X+003375Y+004765
X+003438Y+004745
X+003477Y+004783
X+003515Y+004708
X+003498Y+004550
X+003495Y+004312
X+003440Y+004223
X+003370Y+004222
X+003250Y+004373
X+003658Y+004162
X+003675Y+003975
X+003640Y+003935
X+003845Y+004333
X+003883Y+004370
X+003983Y+004375
X+003980Y+004305
X+004050Y+004265
X+004015Y+004225
X+004148Y+004205
X+004225Y+003920
X+004280Y+003883
X+004155Y+003280
X+004198Y+003235
X+004183Y+003183
X+004183Y+003127
X+004198Y+003075
X+004155Y+003027
X+004367Y+003060
X+004705Y+002920
X+004848Y+002917
X+005075Y+003000
X+005110Y+003000
X+005110Y+003320
X+005110Y+003400
X+005075Y+003400
X+005190Y+003400
X+005190Y+003320
X+005662Y+003842
X+005625Y+003885
X+005662Y+003925
X+005625Y+003965
X+005662Y+004010
X+005625Y+004050
X+005662Y+004090
X+005750Y+004090
X+005683Y+004195
X+005723Y+004238
X+005775Y+004220
X+005827Y+004220
X+005880Y+004220
X+005933Y+004220
X+005985Y+004220
X+006038Y+004220
X+006090Y+004220
X+005595Y+004160
X+005475Y+004125
X+005392Y+004200
X+004960Y+004877
X+004960Y+005023
X+004885Y+005208
X+004935Y+005317
X+004815Y+005317
X+004860Y+005450
X+004860Y+005580
X+004638Y+005623
X+004543Y+005560
X+004542Y+005505
X+004585Y+004990
X+004530Y+004950
X+004370Y+004950
X+004335Y+004992
X+004280Y+004692
X+004225Y+004692
X+004175Y+004670
X+004175Y+004727
X+004125Y+004635
X+004073Y+004667
X+003975Y+004635
X+003933Y+004740
X+004025Y+004767
X+003815Y+004977
X+003770Y+004950
X+003688Y+004965
X+003652Y+005023
X+003538Y+005115
X+003742Y+004640
X+004340Y+004515
X+004675Y+004723
X+004725Y+004840
X+004725Y+004985
X+005020Y+005215
X+005327Y+005358
X+005392Y+005358
X+006455Y+003600
X+006230Y+002680
X+006230Y+002600
X+006308Y+002602
X+006388Y+002600
X+006230Y+002520
X+006150Y+002520
X+006150Y+002600
X+006070Y+002600
X+006070Y+002520
X+005990Y+002520
X+005910Y+002520
X+005910Y+002600
X+005910Y+002680
X+005990Y+002680
X+005990Y+002600
X+006070Y+002680
X+006150Y+002680
X+006150Y+002440
X+006150Y+002360
X+006150Y+002320
X+005990Y+002440
X+005910Y+002440
X+005830Y+002520
X+005830Y+002600
X+005830Y+002680
X+005670Y+002680
X+005670Y+002600
X+005590Y+002600
X+005590Y+002680
X+005510Y+002680
X+005510Y+002600
X+005510Y+002520
X+005590Y+002520
X+005670Y+002520
X+005670Y+002440
X+005240Y+002174
X+005115Y+002175
X+005070Y+001930
X+005115Y+001692
X+005242Y+001692
X+005367Y+001692
X+005496Y+001692
X+005623Y+001692
X+005750Y+001625
X+005877Y+001833
X+006004Y+001833
X+006132Y+001830
X+006258Y+001692
X+006385Y+001692
X+006458Y+001860
X+006550Y+001860
X+006550Y+001350
X+006480Y+001350
X+006366Y+001350
X+006300Y+001350
X+006400Y+001151
X+006450Y+001151
X+005210Y+001350
X+005140Y+001350
X+005020Y+001350
X+004940Y+001350
X+004715Y+001235
X+004715Y+001200
X+004715Y+001165
X+004585Y+001165
X+004585Y+001200
X+004585Y+001235
X+004435Y+001492
X+004230Y+001523
X+004150Y+001523
X+004070Y+001523
X+003990Y+001523
X+003910Y+001455
X+003950Y+001400
X+004030Y+001400
X+004110Y+001400
X+004190Y+001400
X+004230Y+001230
X+004150Y+001230
X+004070Y+001230
X+003990Y+001230
X+003910Y+001230
X+003830Y+001230
X+003748Y+001230
X+003670Y+001230
X+003590Y+001230
X+003510Y+001230
X+003430Y+001230
X+003350Y+001230
X+003270Y+001230
X+003190Y+001230
X+003110Y+001230
X+003030Y+001230
X+002950Y+001230
X+002870Y+001230
X+002710Y+001230
X+002630Y+001230
X+002550Y+001230
X+002470Y+001230
X+002390Y+001230
X+002310Y+001230
X+002350Y+001400
X+002430Y+001400
X+002510Y+001400
X+002590Y+001400
X+002670Y+001400
X+002710Y+001500
X+002630Y+001500
X+002550Y+001500
X+002470Y+001500
X+002390Y+001500
X+002310Y+001500
X+002350Y+001670
X+002430Y+001670
X+002510Y+001670
X+002590Y+001670
X+002670Y+001670
X+002902Y+001755
X+003030Y+001673
X+003070Y+001708
X+003112Y+001755
X+002990Y+001500
X+002990Y+001400
X+002910Y+001400
X+003070Y+001400
X+003150Y+001400
X+003230Y+001400
X+003310Y+001400
X+003470Y+001400
X+003550Y+001400
X+003630Y+001400
X+003710Y+001400
X+003790Y+001400
X+003870Y+001400
X+004110Y+001648
X+004190Y+001648
X+003805Y+001955
X+003755Y+002152
X+003798Y+002280
X+003917Y+002317
X+003962Y+002283
X+004002Y+002317
X+004042Y+002283
X+004083Y+002317
X+004148Y+002377
X+003790Y+002408
X+003792Y+002533
X+003742Y+002660
X+003758Y+002787
X+003497Y+002787
X+003498Y+002660
X+003498Y+002533
X+003498Y+002405
X+003498Y+002277
X+003483Y+002152
X+003330Y+002225
X+003330Y+002285
X+003202Y+002185
X+003152Y+002227
X+002950Y+002345
X+002885Y+002192
X+002902Y+001970
X+002512Y+001955
X+001980Y+001912
X+001430Y+002088
X+001390Y+002088
X+001265Y+002835
X+001390Y+002915
X+001430Y+002915
X+001220Y+003770
X+001530Y+003870
X+001530Y+003950
X+001530Y+004030
X+001529Y+004110
X+001530Y+004190
X+001530Y+004270
X+001530Y+004350
X+001530Y+004430
X+001530Y+004510
X+001530Y+004590
X+001530Y+004670
X+001530Y+004750
X+001530Y+004830
X+001530Y+004910
X+001530Y+004990
X+001530Y+005070
X+001530Y+005150
X+001530Y+005230
X+001530Y+005310
X+001530Y+005390
X+001530Y+005470
X+001530Y+005550
X+001530Y+005630
X+001530Y+005710
X+001530Y+005790
X+001700Y+005750
X+001700Y+005670
X+001700Y+005590
X+001700Y+005510
X+001700Y+005430
X+001700Y+005350
X+001700Y+005270
X+001700Y+005190
X+001700Y+005110
X+001700Y+005030
X+001700Y+004950
X+001700Y+004870
X+001700Y+004790
X+001700Y+004710
X+001700Y+004630
X+001700Y+004550
X+001700Y+004470
X+001700Y+004390
X+001700Y+004310
X+001700Y+004230
X+001700Y+004150
X+001700Y+004070
X+001700Y+003990
X+001700Y+003910
X+001800Y+004030
X+001800Y+004110
X+001800Y+004190
X+001970Y+004150
X+001970Y+004070
X+001970Y+003990
X+002015Y+003950
X+001970Y+003910
X+002015Y+003875
X+002125Y+004230
X+002085Y+004270
X+002045Y+004310
X+002010Y+004350
X+002027Y+004430
X+002190Y+004590
X+002150Y+004630
X+002230Y+004550
X+002270Y+004510
X+001970Y+004670
X+001800Y+004470
X+001970Y+004950
X+001970Y+005350
X+001970Y+005590
X+001800Y+005790
X+002158Y+006090
X+001290Y+006088
X+001280Y+005830
X+001280Y+005592
X+002540Y+004910
X+002580Y+004870
X+002540Y+004830
X+002580Y+004790
X+002540Y+004750
X+002580Y+004710
X+003175Y+005810
X+003225Y+005848
X+003270Y+005810
X+003317Y+005847
X+003298Y+006090
X+003495Y+003295
X+003775Y+003295
X+003223Y+003090
X+003223Y+003036
X+003223Y+002983
X+003075Y+002854
X+003075Y+002725
X+003250Y+002750
X+002970Y+003295
X+002615Y+003295
X+003367Y+001930
X+004460Y+002135
X+004527Y+002135
X+004492Y+002055
X+004548Y+002255
X+004633Y+002217
X+004690Y+002217
X+004733Y+002295
X+004727Y+002535
X+004783Y+002535
X+004848Y+002535
X+004102Y+002795
X+004980Y+001100
X+005030Y+001100
X+001430Y+001255
X+001390Y+001255
X+007960Y+004705
X+008125Y+004685
X+008225Y+004685
X+008275Y+004725
X+008275Y+004635
X+008375Y+004645
X+008425Y+004765
X+008538Y+004867
X+008577Y+004902
X+008655Y+004973
X+008458Y+004973
X+008325Y+004925
X+008175Y+004925
X+007960Y+004895
X+008292Y+005190
X+008392Y+005190
X+010438Y+005050
T02
X+004820Y+003458
X+004855Y+003483
X+004820Y+003508
X+004785Y+003483
X+004692Y+003483
X+004658Y+003508
X+004658Y+003458
X+004500Y+003000
X+004442Y+003000
X+004323Y+002990
X+004238Y+002990
X+004415Y+002830
X+004500Y+002830
X+001815Y+002642
X+001815Y+002575
X+001812Y+002455
X+001815Y+002390
X+001648Y+002388
X+001648Y+002452
X+001648Y+002575
X+001648Y+002640
X+001410Y+003102
X+001208Y+003090
X+001160Y+003090
X+001112Y+003090
X+001112Y+003042
X+001112Y+002998
X+001160Y+002998
X+001208Y+002998
X+001208Y+003042
X+001712Y+003220
X+001712Y+003285
X+001815Y+003285
X+001815Y+003220
X+001815Y+003408
X+001815Y+003473
X+001712Y+003473
X+001712Y+003408
X+001320Y+003770
X+001205Y+002260
X+001158Y+002260
X+001110Y+002260
X+001110Y+002212
X+001110Y+002167
X+001158Y+002167
X+001205Y+002167
X+001205Y+002212
X+001315Y+001890
X+001645Y+001815
X+001645Y+001750
X+001645Y+001627
X+001645Y+001562
X+001815Y+001558
X+001815Y+001627
X+001815Y+001745
X+001815Y+001815
X+001208Y+001433
X+001208Y+001385
X+001208Y+001340
X+001160Y+001340
X+001112Y+001340
X+001112Y+001385
X+001112Y+001433
X+001160Y+001433
X+001315Y+001230
X+008600Y+002700
X+008600Y+002940
X+008600Y+003350
X+009150Y+003733
X+009367Y+003735
X+009417Y+003735
X+009467Y+003735
X+009640Y+003740
X+009467Y+004023
X+009417Y+004023
X+009367Y+004023
T03
X+004823Y+001135G85X+004848Y+001135
X+004822Y+001565G85X+004847Y+001565
X+005302Y+001565G85X+005327Y+001565
X+005303Y+001135G85X+005328Y+001135
X+006173Y+001135G85X+006198Y+001135
X+006173Y+001565G85X+006198Y+001565
X+006652Y+001565G85X+006677Y+001565
X+006652Y+001135G85X+006677Y+001135
T04
X+004690Y+001350G85X+004710Y+001350
X+005450Y+001350
X+006040Y+001350G85X+006060Y+001350
X+006800Y+001350
T05
X+001235Y+004133
X+001235Y+004383
T06
X+002060Y+002219
X+002060Y+002473
X+002060Y+002727
X+002060Y+002981
T07
X+007250Y+002600
X+005750Y+001350
X+004250Y+002600
X+005750Y+005850
T00
M30
