G04 DipTrace 5.2.0.4*
G04 TopDimension.gbr*
%MOMM*%
G04 #@! TF.FileFunction,Drawing,Top*
G04 #@! TF.Part,Single*
%ADD15C,0.035*%
%ADD121C,0.15686*%
%FSLAX35Y35*%
G04*
G71*
G90*
G75*
G01*
G04 TopDimension*
%LPD*%
X1000000Y1000000D2*
D15*
Y650000D1*
X3230000Y1475000D2*
Y650000D1*
X2115000Y700000D2*
X1100000D1*
G36*
X1000000D2*
X1100000Y720000D1*
Y680000D1*
X1000000Y700000D1*
G37*
X2115000D2*
D15*
X3130000D1*
G36*
X3230000D2*
X3130000Y680000D1*
Y720000D1*
X3230000Y700000D1*
G37*
X1000000Y1000000D2*
D15*
Y450000D1*
X1750000Y4850000D2*
Y450000D1*
X1375000Y500000D2*
X1100000D1*
G36*
X1000000D2*
X1100000Y520000D1*
Y480000D1*
X1000000Y500000D1*
G37*
X1375000D2*
D15*
X1650000D1*
G36*
X1750000D2*
X1650000Y480000D1*
Y520000D1*
X1750000Y500000D1*
G37*
X10500000Y1000000D2*
D15*
Y450000D1*
X9750000Y4850000D2*
Y450000D1*
X10125000Y500000D2*
X10400000D1*
G36*
X10500000D2*
X10400000Y480000D1*
Y520000D1*
X10500000Y500000D1*
G37*
X10125000D2*
D15*
X9850000D1*
G36*
X9750000D2*
X9850000Y520000D1*
Y480000D1*
X9750000Y500000D1*
G37*
X10500000Y1000000D2*
D15*
Y650000D1*
X8250000Y1450000D2*
Y650000D1*
X9375000Y700000D2*
X10400000D1*
G36*
X10500000D2*
X10400000Y680000D1*
Y720000D1*
X10500000Y700000D1*
G37*
X9375000D2*
D15*
X8350000D1*
G36*
X8250000D2*
X8350000Y720000D1*
Y680000D1*
X8250000Y700000D1*
G37*
X1000000Y1000000D2*
D15*
X350000D1*
X1750000Y4850000D2*
X350000D1*
X400000Y2925000D2*
Y1100000D1*
G36*
Y1000000D2*
X380000Y1100000D1*
X420000D1*
X400000Y1000000D1*
G37*
Y2925000D2*
D15*
Y4750000D1*
G36*
Y4850000D2*
X420000Y4750000D1*
X380000D1*
X400000Y4850000D1*
G37*
X1000000Y1000000D2*
D15*
X750000D1*
X3250000Y1450000D2*
X750000D1*
X800000D2*
Y1000000D1*
Y1600000D2*
Y1550000D1*
G36*
Y1450000D2*
X780000Y1550000D1*
X820000D1*
X800000Y1450000D1*
G37*
Y850000D2*
D15*
Y900000D1*
G36*
Y1000000D2*
X820000Y900000D1*
X780000D1*
X800000Y1000000D1*
G37*
X10105000Y5650000D2*
D15*
X11150000D1*
X1000000Y1000000D2*
X11150000D1*
X11100000Y3325000D2*
Y5550000D1*
G36*
Y5650000D2*
X11120000Y5550000D1*
X11080000D1*
X11100000Y5650000D1*
G37*
Y3325000D2*
D15*
Y1100000D1*
G36*
Y1000000D2*
X11080000Y1100000D1*
X11120000D1*
X11100000Y1000000D1*
G37*
X3250000Y1450000D2*
D15*
X550000D1*
X4250000Y2600000D2*
X550000D1*
X600000Y2025000D2*
Y1550000D1*
G36*
Y1450000D2*
X580000Y1550000D1*
X620000D1*
X600000Y1450000D1*
G37*
Y2025000D2*
D15*
Y2500000D1*
G36*
Y2600000D2*
X620000Y2500000D1*
X580000D1*
X600000Y2600000D1*
G37*
X1000000Y1000000D2*
D15*
Y250000D1*
X5750000Y1350000D2*
Y250000D1*
X3375000Y300000D2*
X1100000D1*
G36*
X1000000D2*
X1100000Y320000D1*
Y280000D1*
X1000000Y300000D1*
G37*
X3375000D2*
D15*
X5650000D1*
G36*
X5750000D2*
X5650000Y280000D1*
Y320000D1*
X5750000Y300000D1*
G37*
Y1350000D2*
D15*
Y250000D1*
X10500000Y1000000D2*
Y250000D1*
X8125000Y300000D2*
X5850000D1*
G36*
X5750000D2*
X5850000Y320000D1*
Y280000D1*
X5750000Y300000D1*
G37*
X8125000D2*
D15*
X10400000D1*
G36*
X10500000D2*
X10400000Y280000D1*
Y320000D1*
X10500000Y300000D1*
G37*
Y1000000D2*
D15*
Y50000D1*
X1000000Y1000000D2*
Y50000D1*
X5750000Y100000D2*
X10400000D1*
G36*
X10500000D2*
X10400000Y80000D1*
Y120000D1*
X10500000Y100000D1*
G37*
X5750000D2*
D15*
X1100000D1*
G36*
X1000000D2*
X1100000Y120000D1*
Y80000D1*
X1000000Y100000D1*
G37*
Y1000000D2*
D15*
X150000D1*
X1000000Y6200000D2*
X150000D1*
X200000Y3600000D2*
Y1100000D1*
G36*
Y1000000D2*
X180000Y1100000D1*
X220000D1*
X200000Y1000000D1*
G37*
Y3600000D2*
D15*
Y6100000D1*
G36*
Y6200000D2*
X220000Y6100000D1*
X180000D1*
X200000Y6200000D1*
G37*
X6425000Y1350000D2*
D15*
Y650000D1*
X5075000Y1350000D2*
Y650000D1*
X5750000Y700000D2*
X6325000D1*
G36*
X6425000D2*
X6325000Y680000D1*
Y720000D1*
X6425000Y700000D1*
G37*
X5750000D2*
D15*
X5175000D1*
G36*
X5075000D2*
X5175000Y720000D1*
Y680000D1*
X5075000Y700000D1*
G37*
X7880000Y2660000D2*
D15*
Y450000D1*
X5750000Y1350000D2*
Y450000D1*
X6815000Y500000D2*
X7780000D1*
G36*
X7880000D2*
X7780000Y480000D1*
Y520000D1*
X7880000Y500000D1*
G37*
X6815000D2*
D15*
X5850000D1*
G36*
X5750000D2*
X5850000Y520000D1*
Y480000D1*
X5750000Y500000D1*
G37*
Y1350000D2*
D15*
Y450000D1*
X3620000Y2660000D2*
Y450000D1*
X4685000Y500000D2*
X5650000D1*
G36*
X5750000D2*
X5650000Y480000D1*
Y520000D1*
X5750000Y500000D1*
G37*
X4685000D2*
D15*
X3720000D1*
G36*
X3620000D2*
X3720000Y520000D1*
Y480000D1*
X3620000Y500000D1*
G37*
X8250000Y1450000D2*
D15*
Y650000D1*
X7250000Y2600000D2*
Y650000D1*
X7750000Y700000D2*
X8150000D1*
G36*
X8250000D2*
X8150000Y680000D1*
Y720000D1*
X8250000Y700000D1*
G37*
X7750000D2*
D15*
X7350000D1*
G36*
X7250000D2*
X7350000Y720000D1*
Y680000D1*
X7250000Y700000D1*
G37*
X4250000Y2600000D2*
D15*
Y650000D1*
X3250000Y1450000D2*
Y650000D1*
X3750000Y700000D2*
X4150000D1*
G36*
X4250000D2*
X4150000Y680000D1*
Y720000D1*
X4250000Y700000D1*
G37*
X3750000D2*
D15*
X3350000D1*
G36*
X3250000D2*
X3350000Y720000D1*
Y680000D1*
X3250000Y700000D1*
G37*
Y4700000D2*
D15*
Y6450000D1*
X4050000Y4700000D2*
Y6450000D1*
X3650000Y6400000D2*
X3350000D1*
G36*
X3250000D2*
X3350000Y6420000D1*
Y6380000D1*
X3250000Y6400000D1*
G37*
X3650000D2*
D15*
X3950000D1*
G36*
X4050000D2*
X3950000Y6380000D1*
Y6420000D1*
X4050000Y6400000D1*
G37*
X5750000Y5000000D2*
D15*
Y6450000D1*
X4050000Y4700000D2*
Y6450000D1*
X4900000Y6400000D2*
X5650000D1*
G36*
X5750000D2*
X5650000Y6380000D1*
Y6420000D1*
X5750000Y6400000D1*
G37*
X4900000D2*
D15*
X4150000D1*
G36*
X4050000D2*
X4150000Y6420000D1*
Y6380000D1*
X4050000Y6400000D1*
G37*
X5750000Y5000000D2*
D15*
Y6450000D1*
X7450000Y4705000D2*
Y6450000D1*
X6600000Y6400000D2*
X5850000D1*
G36*
X5750000D2*
X5850000Y6420000D1*
Y6380000D1*
X5750000Y6400000D1*
G37*
X6600000D2*
D15*
X7350000D1*
G36*
X7450000D2*
X7350000Y6380000D1*
Y6420000D1*
X7450000Y6400000D1*
G37*
Y4700000D2*
D15*
Y6450000D1*
X8250000Y4700000D2*
Y6450000D1*
X7850000Y6400000D2*
X7550000D1*
G36*
X7450000D2*
X7550000Y6420000D1*
Y6380000D1*
X7450000Y6400000D1*
G37*
X7850000D2*
D15*
X8150000D1*
G36*
X8250000D2*
X8150000Y6380000D1*
Y6420000D1*
X8250000Y6400000D1*
G37*
X10325000Y5800000D2*
D15*
Y6450000D1*
X10500000Y6200000D2*
Y6450000D1*
X10325000Y6400000D2*
X10500000D1*
X10175000D2*
X10225000D1*
G36*
X10325000D2*
X10225000Y6380000D1*
Y6420000D1*
X10325000Y6400000D1*
G37*
X10650000D2*
D15*
X10600000D1*
G36*
X10500000D2*
X10600000Y6420000D1*
Y6380000D1*
X10500000Y6400000D1*
G37*
X10864376D2*
D15*
X10500000D1*
X1175000Y5800000D2*
Y6450000D1*
X1000000Y6200000D2*
Y6450000D1*
Y6400000D2*
X1175000D1*
X850000D2*
X900000D1*
G36*
X1000000D2*
X900000Y6380000D1*
Y6420000D1*
X1000000Y6400000D1*
G37*
X1325000D2*
D15*
X1275000D1*
G36*
X1175000D2*
X1275000Y6420000D1*
Y6380000D1*
X1175000Y6400000D1*
G37*
X1539376D2*
D15*
X1175000D1*
X1000000Y6200000D2*
X750000D1*
X1175000Y5800000D2*
X750000D1*
X800000Y6000000D2*
Y6100000D1*
G36*
Y6200000D2*
X820000Y6100000D1*
X780000D1*
X800000Y6200000D1*
G37*
Y6000000D2*
D15*
Y5900000D1*
G36*
Y5800000D2*
X780000Y5900000D1*
X820000D1*
X800000Y5800000D1*
G37*
X1000000Y6200000D2*
D15*
X550000D1*
X1175000Y5050000D2*
X550000D1*
X600000Y5625000D2*
Y6100000D1*
G36*
Y6200000D2*
X620000Y6100000D1*
X580000D1*
X600000Y6200000D1*
G37*
Y5625000D2*
D15*
Y5150000D1*
G36*
Y5050000D2*
X580000Y5150000D1*
X620000D1*
X600000Y5050000D1*
G37*
X10500000Y6200000D2*
D15*
X10750000D1*
X10325000Y5800000D2*
X10750000D1*
X10700000Y6000000D2*
Y6100000D1*
G36*
Y6200000D2*
X10720000Y6100000D1*
X10680000D1*
X10700000Y6200000D1*
G37*
Y6000000D2*
D15*
Y5900000D1*
G36*
Y5800000D2*
X10680000Y5900000D1*
X10720000D1*
X10700000Y5800000D1*
G37*
X10500000Y6200000D2*
D15*
X10950000D1*
X10325000Y5050000D2*
X10950000D1*
X10900000Y5625000D2*
Y6100000D1*
G36*
Y6200000D2*
X10920000Y6100000D1*
X10880000D1*
X10900000Y6200000D1*
G37*
Y5625000D2*
D15*
Y5150000D1*
G36*
Y5050000D2*
X10880000Y5150000D1*
X10920000D1*
X10900000Y5050000D1*
G37*
X10500000Y1000000D2*
D15*
X10750000D1*
X8250000Y1450000D2*
X10750000D1*
X10700000D2*
Y1000000D1*
Y1600000D2*
Y1550000D1*
G36*
Y1450000D2*
X10680000Y1550000D1*
X10720000D1*
X10700000Y1450000D1*
G37*
Y850000D2*
D15*
Y900000D1*
G36*
Y1000000D2*
X10720000Y900000D1*
X10680000D1*
X10700000Y1000000D1*
G37*
X8250000Y1450000D2*
D15*
X10950000D1*
X7250000Y2600000D2*
X10950000D1*
X10900000Y2025000D2*
Y1550000D1*
G36*
Y1450000D2*
X10880000Y1550000D1*
X10920000D1*
X10900000Y1450000D1*
G37*
Y2025000D2*
D15*
Y2500000D1*
G36*
Y2600000D2*
X10920000Y2500000D1*
X10880000D1*
X10900000Y2600000D1*
G37*
X1973753Y808732D2*
D121*
Y813561D1*
X1978582Y823332D1*
X1983411Y828161D1*
X1993182Y832991D1*
X2012611D1*
X2022270Y828161D1*
X2027099Y823332D1*
X2032040Y813561D1*
Y803903D1*
X2027099Y794132D1*
X2017440Y779645D1*
X1968811Y731015D1*
X2036870D1*
X2073184Y808732D2*
Y813561D1*
X2078013Y823332D1*
X2082842Y828161D1*
X2092613Y832991D1*
X2112042D1*
X2121701Y828161D1*
X2126530Y823332D1*
X2131471Y813561D1*
Y803903D1*
X2126530Y794132D1*
X2116871Y779645D1*
X2068242Y731015D1*
X2136301D1*
X2172502Y740786D2*
X2167673Y735845D1*
X2172502Y731015D1*
X2177444Y735845D1*
X2172502Y740786D1*
X2218587Y832991D2*
X2271933D1*
X2242846Y794132D1*
X2257446D1*
X2267104Y789303D1*
X2271933Y784474D1*
X2276875Y769874D1*
Y760215D1*
X2271933Y745615D1*
X2262275Y735845D1*
X2247675Y731015D1*
X2233075D1*
X2218587Y735845D1*
X2213758Y740786D1*
X2208817Y750445D1*
X1297956Y531015D2*
X1346585Y632991D1*
X1278527D1*
X1382787Y540786D2*
X1377958Y535845D1*
X1382787Y531015D1*
X1387729Y535845D1*
X1382787Y540786D1*
X1477389Y632991D2*
X1428872D1*
X1424043Y589303D1*
X1428872Y594132D1*
X1443472Y599074D1*
X1457960D1*
X1472560Y594132D1*
X1482330Y584474D1*
X1487160Y569874D1*
Y560215D1*
X1482330Y545615D1*
X1472560Y535845D1*
X1457960Y531015D1*
X1443472D1*
X1428872Y535845D1*
X1424043Y540786D1*
X1419101Y550445D1*
X10047956Y531015D2*
X10096585Y632991D1*
X10028527D1*
X10132787Y540786D2*
X10127958Y535845D1*
X10132787Y531015D1*
X10137729Y535845D1*
X10132787Y540786D1*
X10227389Y632991D2*
X10178872D1*
X10174043Y589303D1*
X10178872Y594132D1*
X10193472Y599074D1*
X10207960D1*
X10222560Y594132D1*
X10232330Y584474D1*
X10237160Y569874D1*
Y560215D1*
X10232330Y545615D1*
X10222560Y535845D1*
X10207960Y531015D1*
X10193472D1*
X10178872Y535845D1*
X10174043Y540786D1*
X10169101Y550445D1*
X9233753Y808732D2*
Y813561D1*
X9238582Y823332D1*
X9243411Y828161D1*
X9253182Y832991D1*
X9272611D1*
X9282270Y828161D1*
X9287099Y823332D1*
X9292040Y813561D1*
Y803903D1*
X9287099Y794132D1*
X9277440Y779645D1*
X9228811Y731015D1*
X9296870D1*
X9333184Y808732D2*
Y813561D1*
X9338013Y823332D1*
X9342842Y828161D1*
X9352613Y832991D1*
X9372042D1*
X9381701Y828161D1*
X9386530Y823332D1*
X9391471Y813561D1*
Y803903D1*
X9386530Y794132D1*
X9376871Y779645D1*
X9328242Y731015D1*
X9396301D1*
X9432502Y740786D2*
X9427673Y735845D1*
X9432502Y731015D1*
X9437444Y735845D1*
X9432502Y740786D1*
X9527104Y832991D2*
X9478587D1*
X9473758Y789303D1*
X9478587Y794132D1*
X9493187Y799074D1*
X9507675D1*
X9522275Y794132D1*
X9532046Y784474D1*
X9536875Y769874D1*
Y760215D1*
X9532046Y745615D1*
X9522275Y735845D1*
X9507675Y731015D1*
X9493187D1*
X9478587Y735845D1*
X9473758Y740786D1*
X9468817Y750445D1*
X267009Y2788638D2*
Y2841984D1*
X305868Y2812897D1*
Y2827497D1*
X310697Y2837155D1*
X315526Y2841984D1*
X330126Y2846926D1*
X339785D1*
X354385Y2841984D1*
X364155Y2832326D1*
X368985Y2817726D1*
Y2803126D1*
X364155Y2788638D1*
X359214Y2783809D1*
X349555Y2778867D1*
X267009Y2902557D2*
X271839Y2888069D1*
X281497Y2883128D1*
X291268D1*
X300926Y2888069D1*
X305868Y2897728D1*
X310697Y2917157D1*
X315526Y2931757D1*
X325297Y2941415D1*
X334955Y2946245D1*
X349555D1*
X359214Y2941415D1*
X364155Y2936586D1*
X368985Y2921986D1*
Y2902557D1*
X364155Y2888069D1*
X359214Y2883128D1*
X349555Y2878298D1*
X334955D1*
X325297Y2883128D1*
X315526Y2892898D1*
X310697Y2907386D1*
X305868Y2926815D1*
X300926Y2936586D1*
X291268Y2941415D1*
X281497D1*
X271839Y2936586D1*
X267009Y2921986D1*
Y2902557D1*
X359214Y2982446D2*
X364155Y2977617D1*
X368985Y2982446D1*
X364155Y2987388D1*
X359214Y2982446D1*
X267009Y3077048D2*
Y3028531D1*
X310697Y3023702D1*
X305868Y3028531D1*
X300926Y3043131D1*
Y3057619D1*
X305868Y3072219D1*
X315526Y3081990D1*
X330126Y3086819D1*
X339785D1*
X354385Y3081990D1*
X364155Y3072219D1*
X368985Y3057619D1*
Y3043131D1*
X364155Y3028531D1*
X359214Y3023702D1*
X349555Y3018760D1*
X768985Y1174741D2*
X667009D1*
X734955Y1126112D1*
Y1199000D1*
X759214Y1235202D2*
X764155Y1230372D1*
X768985Y1235202D1*
X764155Y1240143D1*
X759214Y1235202D1*
X667009Y1329803D2*
Y1281286D1*
X710697Y1276457D1*
X705868Y1281286D1*
X700926Y1295886D1*
Y1310374D1*
X705868Y1324974D1*
X715526Y1334745D1*
X730126Y1339574D1*
X739785D1*
X754385Y1334745D1*
X764155Y1324974D1*
X768985Y1310374D1*
Y1295886D1*
X764155Y1281286D1*
X759214Y1276457D1*
X749555Y1271516D1*
X11131015Y3422503D2*
X11232991D1*
X11165045Y3471133D1*
Y3398245D1*
X11218503Y3308585D2*
X11228161Y3313414D1*
X11232991Y3328014D1*
Y3337672D1*
X11228161Y3352272D1*
X11213561Y3362043D1*
X11189303Y3366872D1*
X11165045D1*
X11145615Y3362043D1*
X11135845Y3352272D1*
X11131015Y3337672D1*
Y3332843D1*
X11135845Y3318355D1*
X11145615Y3308585D1*
X11160215Y3303755D1*
X11165045D1*
X11179645Y3308585D1*
X11189303Y3318355D1*
X11194132Y3332843D1*
Y3337672D1*
X11189303Y3352272D1*
X11179645Y3362043D1*
X11165045Y3366872D1*
X11140786Y3267554D2*
X11135845Y3272383D1*
X11131015Y3267554D1*
X11135845Y3262612D1*
X11140786Y3267554D1*
X11232991Y3172952D2*
Y3221469D1*
X11189303Y3226298D1*
X11194132Y3221469D1*
X11199074Y3206869D1*
Y3192381D1*
X11194132Y3177781D1*
X11184474Y3168010D1*
X11169874Y3163181D1*
X11160215D1*
X11145615Y3168010D1*
X11135845Y3177781D1*
X11131015Y3192381D1*
Y3206869D1*
X11135845Y3221469D1*
X11140786Y3226298D1*
X11150445Y3231240D1*
X486439Y1922499D2*
X481497Y1932270D1*
X467009Y1946870D1*
X568985D1*
X486439Y1978242D2*
X481497Y1988013D1*
X467009Y2002613D1*
X568985D1*
X559214Y2038815D2*
X564155Y2033986D1*
X568985Y2038815D1*
X564155Y2043756D1*
X559214Y2038815D1*
X467009Y2133417D2*
Y2084900D1*
X510697Y2080070D1*
X505868Y2084900D1*
X500926Y2099500D1*
Y2113987D1*
X505868Y2128587D1*
X515526Y2138358D1*
X530126Y2143187D1*
X539785D1*
X554385Y2138358D1*
X564155Y2128587D1*
X568985Y2113987D1*
Y2099500D1*
X564155Y2084900D1*
X559214Y2080070D1*
X549555Y2075129D1*
X3275026Y331015D2*
Y432991D1*
X3226397Y365045D1*
X3299284D1*
X3350086Y331015D2*
X3398715Y432991D1*
X3330657D1*
X3434917Y340786D2*
X3430088Y335845D1*
X3434917Y331015D1*
X3439859Y335845D1*
X3434917Y340786D1*
X3529519Y432991D2*
X3481002D1*
X3476173Y389303D1*
X3481002Y394132D1*
X3495602Y399074D1*
X3510090D1*
X3524690Y394132D1*
X3534460Y384474D1*
X3539290Y369874D1*
Y360215D1*
X3534460Y345615D1*
X3524690Y335845D1*
X3510090Y331015D1*
X3495602D1*
X3481002Y335845D1*
X3476173Y340786D1*
X3471231Y350445D1*
X8025026Y331015D2*
Y432991D1*
X7976397Y365045D1*
X8049284D1*
X8100086Y331015D2*
X8148715Y432991D1*
X8080657D1*
X8184917Y340786D2*
X8180088Y335845D1*
X8184917Y331015D1*
X8189859Y335845D1*
X8184917Y340786D1*
X8279519Y432991D2*
X8231002D1*
X8226173Y389303D1*
X8231002Y394132D1*
X8245602Y399074D1*
X8260090D1*
X8274690Y394132D1*
X8284460Y384474D1*
X8289290Y369874D1*
Y360215D1*
X8284460Y345615D1*
X8274690Y335845D1*
X8260090Y331015D1*
X8245602D1*
X8231002Y335845D1*
X8226173Y340786D1*
X8221231Y350445D1*
X5739742Y199074D2*
X5734801Y184474D1*
X5725142Y174703D1*
X5710542Y169874D1*
X5705713D1*
X5691113Y174703D1*
X5681455Y184474D1*
X5676513Y199074D1*
Y203903D1*
X5681455Y218503D1*
X5691113Y228161D1*
X5705713Y232991D1*
X5710542D1*
X5725142Y228161D1*
X5734801Y218503D1*
X5739742Y199074D1*
Y174703D1*
X5734801Y150445D1*
X5725142Y135845D1*
X5710542Y131015D1*
X5700884D1*
X5686284Y135845D1*
X5681455Y145615D1*
X5829402Y232991D2*
X5780886D1*
X5776056Y189303D1*
X5780886Y194132D1*
X5795486Y199074D1*
X5809973D1*
X5824573Y194132D1*
X5834344Y184474D1*
X5839173Y169874D1*
Y160215D1*
X5834344Y145615D1*
X5824573Y135845D1*
X5809973Y131015D1*
X5795486D1*
X5780886Y135845D1*
X5776056Y140786D1*
X5771115Y150445D1*
X67009Y3582386D2*
Y3533869D1*
X110697Y3529040D1*
X105868Y3533869D1*
X100926Y3548469D1*
Y3562957D1*
X105868Y3577557D1*
X115526Y3587328D1*
X130126Y3592157D1*
X139785D1*
X154385Y3587328D1*
X164155Y3577557D1*
X168985Y3562957D1*
Y3548469D1*
X164155Y3533869D1*
X159214Y3529040D1*
X149555Y3524098D1*
X91268Y3628471D2*
X86439D1*
X76668Y3633300D1*
X71839Y3638129D1*
X67009Y3647900D1*
Y3667329D1*
X71839Y3676988D1*
X76668Y3681817D1*
X86439Y3686759D1*
X96097D1*
X105868Y3681817D1*
X120355Y3672159D1*
X168985Y3623529D1*
Y3691588D1*
X5625655Y813561D2*
X5635426Y818503D1*
X5650026Y832991D1*
Y731015D1*
X5691169Y832991D2*
X5744515D1*
X5715428Y794132D1*
X5730028D1*
X5739686Y789303D1*
X5744515Y784474D1*
X5749457Y769874D1*
Y760215D1*
X5744515Y745615D1*
X5734857Y735845D1*
X5720257Y731015D1*
X5705657D1*
X5691169Y735845D1*
X5686340Y740786D1*
X5681398Y750445D1*
X5785659Y740786D2*
X5780829Y735845D1*
X5785659Y731015D1*
X5790600Y735845D1*
X5785659Y740786D1*
X5880260Y832991D2*
X5831743D1*
X5826914Y789303D1*
X5831743Y794132D1*
X5846343Y799074D1*
X5860831D1*
X5875431Y794132D1*
X5885202Y784474D1*
X5890031Y769874D1*
Y760215D1*
X5885202Y745615D1*
X5875431Y735845D1*
X5860831Y731015D1*
X5846343D1*
X5831743Y735845D1*
X5826914Y740786D1*
X5821973Y750445D1*
X6695597Y608732D2*
Y613561D1*
X6700426Y623332D1*
X6705255Y628161D1*
X6715026Y632991D1*
X6734455D1*
X6744114Y628161D1*
X6748943Y623332D1*
X6753884Y613561D1*
Y603903D1*
X6748943Y594132D1*
X6739284Y579645D1*
X6690655Y531015D1*
X6758714D1*
X6790086Y613561D2*
X6799857Y618503D1*
X6814457Y632991D1*
Y531015D1*
X6850659Y540786D2*
X6845829Y535845D1*
X6850659Y531015D1*
X6855600Y535845D1*
X6850659Y540786D1*
X6896743Y632991D2*
X6950090D1*
X6921002Y594132D1*
X6935602D1*
X6945260Y589303D1*
X6950090Y584474D1*
X6955031Y569874D1*
Y560215D1*
X6950090Y545615D1*
X6940431Y535845D1*
X6925831Y531015D1*
X6911231D1*
X6896743Y535845D1*
X6891914Y540786D1*
X6886973Y550445D1*
X4565597Y608732D2*
Y613561D1*
X4570426Y623332D1*
X4575255Y628161D1*
X4585026Y632991D1*
X4604455D1*
X4614114Y628161D1*
X4618943Y623332D1*
X4623884Y613561D1*
Y603903D1*
X4618943Y594132D1*
X4609284Y579645D1*
X4560655Y531015D1*
X4628714D1*
X4660086Y613561D2*
X4669857Y618503D1*
X4684457Y632991D1*
Y531015D1*
X4720659Y540786D2*
X4715829Y535845D1*
X4720659Y531015D1*
X4725600Y535845D1*
X4720659Y540786D1*
X4766743Y632991D2*
X4820090D1*
X4791002Y594132D1*
X4805602D1*
X4815260Y589303D1*
X4820090Y584474D1*
X4825031Y569874D1*
Y560215D1*
X4820090Y545615D1*
X4810431Y535845D1*
X4795831Y531015D1*
X4781231D1*
X4766743Y535845D1*
X4761914Y540786D1*
X4756973Y550445D1*
X7695942Y813561D2*
X7705713Y818503D1*
X7720313Y832991D1*
Y731015D1*
X7780886Y832991D2*
X7766286Y828161D1*
X7756515Y813561D1*
X7751686Y789303D1*
Y774703D1*
X7756515Y750445D1*
X7766286Y735845D1*
X7780886Y731015D1*
X7790544D1*
X7805144Y735845D1*
X7814802Y750445D1*
X7819744Y774703D1*
Y789303D1*
X7814802Y813561D1*
X7805144Y828161D1*
X7790544Y832991D1*
X7780886D1*
X7814802Y813561D2*
X7756515Y750445D1*
X3695942Y813561D2*
X3705713Y818503D1*
X3720313Y832991D1*
Y731015D1*
X3780886Y832991D2*
X3766286Y828161D1*
X3756515Y813561D1*
X3751686Y789303D1*
Y774703D1*
X3756515Y750445D1*
X3766286Y735845D1*
X3780886Y731015D1*
X3790544D1*
X3805144Y735845D1*
X3814802Y750445D1*
X3819744Y774703D1*
Y789303D1*
X3814802Y813561D1*
X3805144Y828161D1*
X3790544Y832991D1*
X3780886D1*
X3814802Y813561D2*
X3756515Y750445D1*
X3648129Y6532991D2*
X3633641Y6528161D1*
X3628699Y6518503D1*
Y6508732D1*
X3633641Y6499074D1*
X3643299Y6494132D1*
X3662729Y6489303D1*
X3677329Y6484474D1*
X3686987Y6474703D1*
X3691816Y6465045D1*
Y6450445D1*
X3686987Y6440786D1*
X3682158Y6435845D1*
X3667558Y6431015D1*
X3648129D1*
X3633641Y6435845D1*
X3628699Y6440786D1*
X3623870Y6450445D1*
Y6465045D1*
X3628699Y6474703D1*
X3638470Y6484474D1*
X3652958Y6489303D1*
X3672387Y6494132D1*
X3682158Y6499074D1*
X3686987Y6508732D1*
Y6518503D1*
X3682158Y6528161D1*
X3667558Y6532991D1*
X3648129D1*
X4845942Y6513561D2*
X4855713Y6518503D1*
X4870313Y6532991D1*
Y6431015D1*
X4921115D2*
X4969744Y6532991D1*
X4901686D1*
X6545942Y6513561D2*
X6555713Y6518503D1*
X6570313Y6532991D1*
Y6431015D1*
X6621115D2*
X6669744Y6532991D1*
X6601686D1*
X7848129D2*
X7833641Y6528161D1*
X7828699Y6518503D1*
Y6508732D1*
X7833641Y6499074D1*
X7843299Y6494132D1*
X7862729Y6489303D1*
X7877329Y6484474D1*
X7886987Y6474703D1*
X7891816Y6465045D1*
Y6450445D1*
X7886987Y6440786D1*
X7882158Y6435845D1*
X7867558Y6431015D1*
X7848129D1*
X7833641Y6435845D1*
X7828699Y6440786D1*
X7823870Y6450445D1*
Y6465045D1*
X7828699Y6474703D1*
X7838470Y6484474D1*
X7852958Y6489303D1*
X7872387Y6494132D1*
X7882158Y6499074D1*
X7886987Y6508732D1*
Y6518503D1*
X7882158Y6528161D1*
X7867558Y6532991D1*
X7848129D1*
X10623529Y6513561D2*
X10633300Y6518503D1*
X10647900Y6532991D1*
Y6431015D1*
X10684102Y6440786D2*
X10679273Y6435845D1*
X10684102Y6431015D1*
X10689043Y6435845D1*
X10684102Y6440786D1*
X10739845Y6431015D2*
X10788475Y6532991D1*
X10720416D1*
X10878135D2*
X10829618D1*
X10824789Y6489303D1*
X10829618Y6494132D1*
X10844218Y6499074D1*
X10858706D1*
X10873306Y6494132D1*
X10883076Y6484474D1*
X10887906Y6469874D1*
Y6460215D1*
X10883076Y6445615D1*
X10873306Y6435845D1*
X10858706Y6431015D1*
X10844218D1*
X10829618Y6435845D1*
X10824789Y6440786D1*
X10819847Y6450445D1*
X1298529Y6513561D2*
X1308300Y6518503D1*
X1322900Y6532991D1*
Y6431015D1*
X1359102Y6440786D2*
X1354273Y6435845D1*
X1359102Y6431015D1*
X1364043Y6435845D1*
X1359102Y6440786D1*
X1414845Y6431015D2*
X1463475Y6532991D1*
X1395416D1*
X1553135D2*
X1504618D1*
X1499789Y6489303D1*
X1504618Y6494132D1*
X1519218Y6499074D1*
X1533706D1*
X1548306Y6494132D1*
X1558076Y6484474D1*
X1562906Y6469874D1*
Y6460215D1*
X1558076Y6445615D1*
X1548306Y6435845D1*
X1533706Y6431015D1*
X1519218D1*
X1504618Y6435845D1*
X1499789Y6440786D1*
X1494847Y6450445D1*
X768985Y6020029D2*
X667009D1*
X734955Y5971399D1*
Y6044287D1*
X486439Y5522499D2*
X481497Y5532270D1*
X467009Y5546870D1*
X568985D1*
X486439Y5578242D2*
X481497Y5588013D1*
X467009Y5602613D1*
X568985D1*
X559214Y5638815D2*
X564155Y5633986D1*
X568985Y5638815D1*
X564155Y5643756D1*
X559214Y5638815D1*
X467009Y5733417D2*
Y5684900D1*
X510697Y5680070D1*
X505868Y5684900D1*
X500926Y5699500D1*
Y5713987D1*
X505868Y5728587D1*
X515526Y5738358D1*
X530126Y5743187D1*
X539785D1*
X554385Y5738358D1*
X564155Y5728587D1*
X568985Y5713987D1*
Y5699500D1*
X564155Y5684900D1*
X559214Y5680070D1*
X549555Y5675129D1*
X10731015Y5979971D2*
X10832991D1*
X10765045Y6028601D1*
Y5955713D1*
X11013561Y5727501D2*
X11018503Y5717730D1*
X11032991Y5703130D1*
X10931015D1*
X11013561Y5671758D2*
X11018503Y5661987D1*
X11032991Y5647387D1*
X10931015D1*
X10940786Y5611185D2*
X10935845Y5616014D1*
X10931015Y5611185D1*
X10935845Y5606244D1*
X10940786Y5611185D1*
X11032991Y5516583D2*
Y5565100D1*
X10989303Y5569930D1*
X10994132Y5565100D1*
X10999074Y5550500D1*
Y5536013D1*
X10994132Y5521413D1*
X10984474Y5511642D1*
X10969874Y5506813D1*
X10960215D1*
X10945615Y5511642D1*
X10935845Y5521413D1*
X10931015Y5536013D1*
Y5550500D1*
X10935845Y5565100D1*
X10940786Y5569930D1*
X10950445Y5574871D1*
X10731015Y1275259D2*
X10832991D1*
X10765045Y1323888D1*
Y1251000D1*
X10740786Y1214798D2*
X10735845Y1219628D1*
X10731015Y1214798D1*
X10735845Y1209857D1*
X10740786Y1214798D1*
X10832991Y1120197D2*
Y1168714D1*
X10789303Y1173543D1*
X10794132Y1168714D1*
X10799074Y1154114D1*
Y1139626D1*
X10794132Y1125026D1*
X10784474Y1115255D1*
X10769874Y1110426D1*
X10760215D1*
X10745615Y1115255D1*
X10735845Y1125026D1*
X10731015Y1139626D1*
Y1154114D1*
X10735845Y1168714D1*
X10740786Y1173543D1*
X10750445Y1178484D1*
X11013561Y2127501D2*
X11018503Y2117730D1*
X11032991Y2103130D1*
X10931015D1*
X11013561Y2071758D2*
X11018503Y2061987D1*
X11032991Y2047387D1*
X10931015D1*
X10940786Y2011185D2*
X10935845Y2016014D1*
X10931015Y2011185D1*
X10935845Y2006244D1*
X10940786Y2011185D1*
X11032991Y1916583D2*
Y1965100D1*
X10989303Y1969930D1*
X10994132Y1965100D1*
X10999074Y1950500D1*
Y1936013D1*
X10994132Y1921413D1*
X10984474Y1911642D1*
X10969874Y1906813D1*
X10960215D1*
X10945615Y1911642D1*
X10935845Y1921413D1*
X10931015Y1936013D1*
Y1950500D1*
X10935845Y1965100D1*
X10940786Y1969930D1*
X10950445Y1974871D1*
M02*
