G04 DipTrace 5.2.0.4*
G04 TopSilk.gbr*
%MOMM*%
G04 #@! TF.FileFunction,Legend,Top*
G04 #@! TF.Part,Single*
%ADD10C,0.1*%
%ADD13C,0.12*%
%ADD16C,0.127*%
%ADD18C,0.2*%
%ADD19C,0.3*%
%ADD119C,0.22222*%
%ADD120C,0.16667*%
%ADD123C,0.11111*%
%ADD124C,0.38889*%
%FSLAX35Y35*%
G04*
G71*
G90*
G75*
G01*
G04 TopSilk*
%LPD*%
X9239997Y3847500D2*
D10*
X9160003D1*
X9239997Y3932500D2*
X9160003D1*
X9344501Y3860497D2*
D13*
X9344499Y3884497D1*
X9490501Y3860503D2*
X9490499Y3884503D1*
X9647503Y3812500D2*
D10*
X9727497D1*
X9647503Y3727500D2*
X9727497D1*
X7027501Y2105002D2*
X7027499Y2184995D1*
X7112501Y2105005D2*
X7112499Y2184998D1*
X4917504Y4814999D2*
X4917496Y4894993D1*
X5002504Y4815007D2*
X5002496Y4895001D1*
X7127501Y2105002D2*
X7127499Y2184995D1*
X7212501Y2105005D2*
X7212499Y2184998D1*
X8580003Y2017500D2*
X8659997D1*
X8580003Y1932500D2*
X8659997D1*
X8580003Y1917500D2*
X8659997D1*
X8580003Y1832500D2*
X8659997D1*
X9842500Y1679997D2*
Y1600003D1*
X9757500Y1679997D2*
Y1600003D1*
X9718000Y1634000D2*
D13*
Y1606000D1*
X9622000Y1634000D2*
Y1606000D1*
X7202498Y4839999D2*
D10*
X7202502Y4760006D1*
X7117498Y4839994D2*
X7117502Y4760001D1*
X3497501Y4560003D2*
X3497499Y4639996D1*
X3582501Y4560004D2*
X3582499Y4639997D1*
X8002498Y4839999D2*
X8002502Y4760006D1*
X7917498Y4839994D2*
X7917502Y4760001D1*
X4297501Y4560003D2*
X4297499Y4639996D1*
X4382501Y4560004D2*
X4382499Y4639997D1*
X1540003Y3812500D2*
X1619997D1*
X1540003Y3727500D2*
X1619997D1*
X1449997Y3400000D2*
X1370003D1*
X1449997Y3485000D2*
X1370003D1*
X1449997Y2572500D2*
X1370003D1*
X1449997Y2657500D2*
X1370003D1*
X1449997Y1740000D2*
X1370003D1*
X1449997Y1825000D2*
X1370003D1*
X7457498Y2944998D2*
X7457502Y2865005D1*
X7372498Y2944995D2*
X7372502Y2865002D1*
X5002500Y5159997D2*
Y5080003D1*
X4917500Y5159997D2*
Y5080003D1*
X1742004Y2349501D2*
D13*
X1718004Y2349499D1*
X1741996Y2495501D2*
X1717996Y2495499D1*
X1742004Y2537001D2*
X1718004Y2536999D1*
X1741996Y2683001D2*
X1717996Y2682999D1*
X1207999Y2154004D2*
X1208001Y2126004D1*
X1111999Y2153996D2*
X1112001Y2125996D1*
X1742004Y1707001D2*
X1718004Y1706999D1*
X1741996Y1853001D2*
X1717996Y1852999D1*
X1742004Y1519501D2*
X1718004Y1519499D1*
X1741996Y1665501D2*
X1717996Y1665499D1*
X1207999Y1324002D2*
X1208001Y1296002D1*
X1111999Y1323998D2*
X1112001Y1295998D1*
X1742005Y3367001D2*
X1718005Y3366999D1*
X1741995Y3513001D2*
X1717995Y3512999D1*
X1742005Y3179501D2*
X1718005Y3179499D1*
X1741995Y3325501D2*
X1717995Y3325499D1*
X1207999Y2984002D2*
X1208001Y2956002D1*
X1111999Y2983998D2*
X1112001Y2955998D1*
X4762008Y3412001D2*
X4738008Y3411999D1*
X4761992Y3558001D2*
X4737992Y3557999D1*
X4764998Y5272501D2*
D10*
X4685005Y5272499D1*
X4764995Y5357501D2*
X4685002Y5357499D1*
X5735001Y1040003D2*
X5734999Y1110003D1*
X5755000Y1110000D2*
Y1040000D1*
X1950009Y1144998D2*
X2020009Y1145002D1*
X8210005Y2454999D2*
X8280005Y2455001D1*
X3285000Y3390000D2*
X3215000D1*
Y2455000D2*
X3285000D1*
X8279994Y3390001D2*
X8209994Y3389999D1*
X1945009Y1524998D2*
X2015009Y1525002D1*
X1927000Y2048997D2*
D13*
X2193000D1*
Y3150997D1*
X1927000D1*
Y2048997D1*
G36*
X1884400Y2194397D2*
X1881189Y2194607D1*
X1878033Y2195235D1*
X1874986Y2196269D1*
X1872100Y2197692D1*
X1869424Y2199480D1*
X1867005Y2201602D1*
X1864884Y2204021D1*
X1863096Y2206697D1*
X1861673Y2209583D1*
X1860638Y2212630D1*
X1860010Y2215786D1*
X1859800Y2218997D1*
X1860010Y2222208D1*
X1860638Y2225364D1*
X1861673Y2228411D1*
X1863096Y2231297D1*
X1864884Y2233972D1*
X1867005Y2236391D1*
X1869424Y2238513D1*
X1872100Y2240301D1*
X1874986Y2241724D1*
X1878033Y2242758D1*
X1881189Y2243386D1*
X1884400Y2243597D1*
D1*
X1887611Y2243386D1*
X1890767Y2242758D1*
X1893814Y2241724D1*
X1896700Y2240301D1*
X1899376Y2238513D1*
X1901795Y2236391D1*
X1903916Y2233972D1*
X1905704Y2231297D1*
X1907127Y2228411D1*
X1908162Y2225364D1*
X1908790Y2222208D1*
X1909000Y2218997D1*
X1908790Y2215786D1*
X1908162Y2212630D1*
X1907127Y2209583D1*
X1905704Y2206697D1*
X1903916Y2204021D1*
X1901795Y2201602D1*
X1899376Y2199480D1*
X1896700Y2197692D1*
X1893814Y2196269D1*
X1890767Y2195235D1*
X1887611Y2194607D1*
X1884400Y2194397D1*
D1*
G37*
X5225004Y1175003D2*
D10*
X4925004Y1174997D1*
X5224996Y1525003D2*
X4924996Y1524997D1*
X4650004Y1149991D2*
X4650002Y1249991D1*
X4625001Y1299990D1*
X4624999Y1399990D1*
X4649998Y1449991D1*
X4649996Y1549991D1*
X5500004Y1150009D2*
X5500002Y1250009D1*
X5525001Y1300010D1*
X5524999Y1400010D1*
X5499998Y1450009D1*
X5499996Y1550009D1*
X5424996Y1550008D2*
X5499996Y1550009D1*
X5500004Y1150009D2*
X5425004Y1150008D1*
X4650004Y1149991D2*
X4725004Y1149992D1*
X4649996Y1549991D2*
X4724996Y1549992D1*
X6483510Y1765041D2*
D13*
X6441006Y1765039D1*
G36*
X6410022Y1593034D2*
X6409808Y1589771D1*
X6409170Y1586563D1*
X6408119Y1583467D1*
X6406673Y1580534D1*
X6404856Y1577815D1*
X6402700Y1575356D1*
X6400242Y1573200D1*
X6397523Y1571383D1*
X6394590Y1569936D1*
X6391493Y1568885D1*
X6388286Y1568247D1*
X6385023Y1568033D1*
X6381760Y1568246D1*
X6378552Y1568884D1*
X6375456Y1569935D1*
X6372523Y1571381D1*
X6369804Y1573198D1*
X6367345Y1575354D1*
X6365189Y1577813D1*
X6363372Y1580532D1*
X6361925Y1583464D1*
X6360874Y1586561D1*
X6360236Y1589768D1*
X6360022Y1593031D1*
D1*
X6360235Y1596295D1*
X6360873Y1599502D1*
X6361924Y1602599D1*
X6363370Y1605532D1*
X6365187Y1608251D1*
X6367343Y1610709D1*
X6369802Y1612866D1*
X6372521Y1614683D1*
X6375453Y1616129D1*
X6378550Y1617180D1*
X6381757Y1617819D1*
X6385020Y1618033D1*
X6388284Y1617819D1*
X6391491Y1617181D1*
X6394588Y1616130D1*
X6397521Y1614684D1*
X6400240Y1612867D1*
X6402698Y1610711D1*
X6404855Y1608253D1*
X6406672Y1605534D1*
X6408118Y1602601D1*
X6409170Y1599504D1*
X6409808Y1596297D1*
X6410022Y1593034D1*
D1*
G37*
X5059016Y1764968D2*
D13*
X5016510Y1764966D1*
X5016493Y2094962D1*
X5058999Y2094964D1*
X6440989Y2095036D2*
X6483493Y2095038D1*
X6483510Y1765041D1*
X6575000Y1175000D2*
D10*
X6275000D1*
X6575000Y1525000D2*
X6275000D1*
X6000000Y1150000D2*
Y1250000D1*
X5975000Y1300000D1*
Y1400000D1*
X6000000Y1450000D1*
Y1550000D1*
X6850000Y1150000D2*
Y1250000D1*
X6875000Y1300000D1*
Y1400000D1*
X6850000Y1450000D1*
Y1550000D1*
X6775000D2*
X6850000D1*
Y1150000D2*
X6775000D1*
X6000000D2*
X6075000D1*
X6000000Y1550000D2*
X6075000D1*
X10289893Y2280057D2*
D18*
X10464990D1*
Y1139943D1*
X10250007D1*
X9984973D2*
X9914903D1*
Y1195047D1*
Y1330040D2*
Y2160053D1*
G36*
X10179937Y1710020D2*
X10180022Y1711327D1*
X10180278Y1712611D1*
X10180699Y1713851D1*
X10181278Y1715025D1*
X10182005Y1716114D1*
X10182869Y1717098D1*
X10183853Y1717961D1*
X10184942Y1718689D1*
X10186116Y1719268D1*
X10187356Y1719689D1*
X10188640Y1719944D1*
X10189947Y1720030D1*
X10191253Y1719944D1*
X10192537Y1719689D1*
X10193777Y1719268D1*
X10194952Y1718689D1*
X10196040Y1717961D1*
X10197025Y1717098D1*
X10197888Y1716114D1*
X10198616Y1715025D1*
X10199195Y1713851D1*
X10199616Y1712611D1*
X10199871Y1711327D1*
X10199957Y1710020D1*
Y1709980D1*
X10199871Y1708673D1*
X10199616Y1707389D1*
X10199195Y1706149D1*
X10198616Y1704975D1*
X10197888Y1703886D1*
X10197025Y1702902D1*
X10196040Y1702039D1*
X10194952Y1701311D1*
X10193777Y1700732D1*
X10192537Y1700311D1*
X10191253Y1700056D1*
X10189947Y1699970D1*
X10188640Y1700056D1*
X10187356Y1700311D1*
X10186116Y1700732D1*
X10184942Y1701311D1*
X10183853Y1702039D1*
X10182869Y1702902D1*
X10182005Y1703886D1*
X10181278Y1704975D1*
X10180699Y1706149D1*
X10180278Y1707389D1*
X10180022Y1708673D1*
X10179937Y1709980D1*
Y1710020D1*
G37*
G36*
X10487494Y4420007D2*
X10487280Y4416744D1*
X10486642Y4413536D1*
X10485591Y4410440D1*
X10484145Y4407507D1*
X10482328Y4404788D1*
X10480172Y4402329D1*
X10477714Y4400173D1*
X10474995Y4398356D1*
X10472062Y4396910D1*
X10468965Y4395858D1*
X10465758Y4395220D1*
X10462495Y4395006D1*
X10459232Y4395220D1*
X10456024Y4395858D1*
X10452928Y4396909D1*
X10449995Y4398355D1*
X10447276Y4400172D1*
X10444817Y4402328D1*
X10442661Y4404787D1*
X10440844Y4407506D1*
X10439397Y4410439D1*
X10438346Y4413535D1*
X10437708Y4416743D1*
X10437494Y4420006D1*
D1*
X10437708Y4423269D1*
X10438346Y4426476D1*
X10439397Y4429573D1*
X10440843Y4432506D1*
X10442660Y4435225D1*
X10444816Y4437684D1*
X10447275Y4439840D1*
X10449994Y4441657D1*
X10452927Y4443103D1*
X10456023Y4444154D1*
X10459230Y4444792D1*
X10462494Y4445006D1*
X10465757Y4444793D1*
X10468964Y4444155D1*
X10472061Y4443104D1*
X10474994Y4441657D1*
X10477713Y4439840D1*
X10480171Y4437684D1*
X10482328Y4435226D1*
X10484145Y4432507D1*
X10485591Y4429574D1*
X10486642Y4426477D1*
X10487280Y4423270D1*
X10487494Y4420007D1*
D1*
G37*
X10464504Y3977003D2*
D13*
X10444001D1*
X10206007Y3976997D2*
X10185504D1*
X10185496Y4332997D1*
X10205999D1*
X10443993Y4333003D2*
X10464496D1*
X10464504Y3977003D1*
X7715028Y1926496D2*
X7715026Y1968999D1*
G36*
X7543022Y1999987D2*
X7539759Y2000201D1*
X7536551Y2000839D1*
X7533455Y2001890D1*
X7530522Y2003336D1*
X7527803Y2005153D1*
X7525344Y2007309D1*
X7523188Y2009767D1*
X7521371Y2012486D1*
X7519924Y2015419D1*
X7518873Y2018516D1*
X7518235Y2021723D1*
X7518021Y2024986D1*
X7518235Y2028249D1*
X7518873Y2031457D1*
X7519924Y2034553D1*
X7521370Y2037486D1*
X7523187Y2040205D1*
X7525343Y2042664D1*
X7527801Y2044820D1*
X7530520Y2046637D1*
X7533453Y2048084D1*
X7536550Y2049135D1*
X7539757Y2049773D1*
X7543020Y2049987D1*
D1*
X7546283Y2049773D1*
X7549491Y2049135D1*
X7552587Y2048084D1*
X7555520Y2046638D1*
X7558239Y2044821D1*
X7560698Y2042665D1*
X7562854Y2040207D1*
X7564671Y2037488D1*
X7566118Y2034555D1*
X7567169Y2031458D1*
X7567807Y2028251D1*
X7568021Y2024988D1*
X7567807Y2021725D1*
X7567169Y2018517D1*
X7566118Y2015421D1*
X7564672Y2012488D1*
X7562855Y2009769D1*
X7560699Y2007310D1*
X7558241Y2005154D1*
X7555522Y2003337D1*
X7552589Y2001890D1*
X7549492Y2000839D1*
X7546285Y2000201D1*
X7543022Y1999987D1*
D1*
G37*
X7714980Y3350989D2*
D13*
X7714979Y3393496D1*
X8044976Y3393507D1*
X8044977Y3351000D1*
X8045023Y1969010D2*
X8045024Y1926507D1*
X7715028Y1926496D1*
X1575500Y4627500D2*
X999500D1*
Y3887500D1*
X1575500D1*
Y4627500D1*
G36*
X1618500Y4157500D2*
X1621763Y4157286D1*
X1624970Y4156648D1*
X1628067Y4155597D1*
X1631000Y4154151D1*
X1633719Y4152334D1*
X1636178Y4150178D1*
X1638334Y4147719D1*
X1640151Y4145000D1*
X1641597Y4142067D1*
X1642648Y4138970D1*
X1643286Y4135763D1*
X1643500Y4132500D1*
X1643286Y4129237D1*
X1642648Y4126030D1*
X1641597Y4122933D1*
X1640151Y4120000D1*
X1638334Y4117281D1*
X1636178Y4114822D1*
X1633719Y4112666D1*
X1631000Y4110849D1*
X1628067Y4109403D1*
X1624970Y4108352D1*
X1621763Y4107714D1*
X1618500Y4107500D1*
D1*
X1615237Y4107714D1*
X1612030Y4108352D1*
X1608933Y4109403D1*
X1606000Y4110849D1*
X1603281Y4112666D1*
X1600822Y4114822D1*
X1598666Y4117281D1*
X1596849Y4120000D1*
X1595403Y4122933D1*
X1594352Y4126030D1*
X1593714Y4129237D1*
X1593500Y4132500D1*
X1593714Y4135763D1*
X1594352Y4138970D1*
X1595403Y4142067D1*
X1596849Y4145000D1*
X1598666Y4147719D1*
X1600822Y4150178D1*
X1603281Y4152334D1*
X1606000Y4154151D1*
X1608933Y4155597D1*
X1612030Y4156648D1*
X1615237Y4157286D1*
X1618500Y4157500D1*
D1*
G37*
G36*
X2307093Y2873990D2*
X2309703Y2873819D1*
X2312269Y2873309D1*
X2314747Y2872468D1*
X2317093Y2871311D1*
X2319268Y2869858D1*
X2321235Y2868133D1*
X2322960Y2866166D1*
X2324414Y2863991D1*
X2325571Y2861644D1*
X2326412Y2859167D1*
X2326922Y2856601D1*
X2327093Y2853991D1*
X2326922Y2851380D1*
X2326412Y2848814D1*
X2325571Y2846337D1*
X2324414Y2843991D1*
X2322961Y2841815D1*
X2321236Y2839848D1*
X2319269Y2838123D1*
X2317094Y2836670D1*
X2314748Y2835513D1*
X2312270Y2834672D1*
X2309705Y2834161D1*
X2307094Y2833990D1*
D1*
X2304483Y2834161D1*
X2301918Y2834672D1*
X2299440Y2835512D1*
X2297094Y2836669D1*
X2294919Y2838123D1*
X2292952Y2839848D1*
X2291227Y2841815D1*
X2289773Y2843990D1*
X2288616Y2846336D1*
X2287775Y2848813D1*
X2287265Y2851379D1*
X2287093Y2853990D1*
X2287265Y2856600D1*
X2287775Y2859166D1*
X2288616Y2861643D1*
X2289773Y2863990D1*
X2291226Y2866165D1*
X2292951Y2868132D1*
X2294918Y2869857D1*
X2297093Y2871310D1*
X2299439Y2872468D1*
X2301917Y2873309D1*
X2304482Y2873819D1*
X2307093Y2873990D1*
D1*
G37*
X2578558Y2925497D2*
D18*
X2921425Y2925506D1*
X2578575Y2274497D2*
X2921442Y2274506D1*
X3455017Y1926498D2*
D13*
X3455016Y1969001D1*
G36*
X3283012Y1999991D2*
X3279749Y2000205D1*
X3276542Y2000843D1*
X3273445Y2001894D1*
X3270512Y2003340D1*
X3267793Y2005157D1*
X3265334Y2007313D1*
X3263178Y2009772D1*
X3261361Y2012491D1*
X3259915Y2015424D1*
X3258864Y2018520D1*
X3258226Y2021728D1*
X3258012Y2024991D1*
X3258225Y2028254D1*
X3258863Y2031461D1*
X3259914Y2034558D1*
X3261361Y2037491D1*
X3263178Y2040210D1*
X3265334Y2042669D1*
X3267792Y2044825D1*
X3270511Y2046642D1*
X3273444Y2048088D1*
X3276541Y2049139D1*
X3279748Y2049777D1*
X3283011Y2049991D1*
D1*
X3286274Y2049777D1*
X3289482Y2049140D1*
X3292578Y2048088D1*
X3295511Y2046642D1*
X3298230Y2044825D1*
X3300689Y2042669D1*
X3302845Y2040211D1*
X3304662Y2037492D1*
X3306108Y2034559D1*
X3307160Y2031462D1*
X3307798Y2028255D1*
X3308012Y2024992D1*
X3307798Y2021729D1*
X3307160Y2018521D1*
X3306109Y2015425D1*
X3304663Y2012492D1*
X3302846Y2009773D1*
X3300690Y2007314D1*
X3298231Y2005158D1*
X3295512Y2003341D1*
X3292579Y2001894D1*
X3289483Y2000843D1*
X3286275Y2000205D1*
X3283012Y1999991D1*
D1*
G37*
X3454991Y3350991D2*
D13*
X3454990Y3393498D1*
X3784987Y3393504D1*
Y3350997D1*
X3785013Y1969007D2*
Y1926504D1*
X3455017Y1926498D1*
X5165002Y5202498D2*
D10*
X5164998Y5042498D1*
X5055002Y5202502D2*
X5054998Y5042502D1*
X5084997Y5142501D2*
X5135004Y5132499D1*
X5084997Y5127501D2*
X5135003Y5117499D1*
X5084996Y5112501D2*
X5135003Y5102499D1*
X1650001Y2099995D2*
D13*
X1649999Y2139995D1*
X1870001Y2100005D2*
X1869999Y2140005D1*
X1650001Y1269993D2*
X1649999Y1309993D1*
X1870001Y1270007D2*
X1869999Y1310007D1*
X1650001Y2929995D2*
X1649999Y2969995D1*
X1870001Y2930005D2*
X1869999Y2970005D1*
X8610003Y2917500D2*
D10*
X8689997D1*
X8610003Y2832500D2*
X8689997D1*
X9160003Y3842500D2*
X9239997D1*
X9160003Y3757500D2*
X9239997D1*
X8610002Y2667499D2*
X8689995Y2667501D1*
X8610005Y2582499D2*
X8689998Y2582501D1*
X8610003Y2817500D2*
X8689997D1*
X8610003Y2732500D2*
X8689997D1*
Y3072500D2*
X8610003D1*
X8689997Y3157500D2*
X8610003D1*
X8689997Y2972500D2*
X8610003D1*
X8689997Y3057500D2*
X8610003D1*
X7227501Y2105002D2*
X7227499Y2184995D1*
X7312501Y2105005D2*
X7312499Y2184998D1*
X6927502Y2105001D2*
X6927498Y2184995D1*
X7012502Y2105005D2*
X7012498Y2184999D1*
X6912498Y2184998D2*
X6912502Y2105005D1*
X6827498Y2184995D2*
X6827502Y2105002D1*
X6464998Y1560001D2*
X6385004Y1559999D1*
X6464996Y1645001D2*
X6385002Y1644999D1*
X6639998Y1657501D2*
X6560005Y1657499D1*
X6639995Y1742501D2*
X6560002Y1742499D1*
X8580003Y1817500D2*
X8659997D1*
X8580003Y1732500D2*
X8659997D1*
X8580002Y2112499D2*
X8659995Y2112501D1*
X8580005Y2027499D2*
X8659998Y2027501D1*
X4862503Y1742500D2*
X4942497D1*
X4862503Y1657500D2*
X4942497D1*
X5035001Y1644998D2*
X5114995Y1645002D1*
X5035005Y1559998D2*
X5114999Y1560002D1*
X8659998Y2122501D2*
X8580005Y2122499D1*
X8659995Y2207501D2*
X8580002Y2207499D1*
X8610003Y3467500D2*
X8689997D1*
X8610003Y3382500D2*
X8689997D1*
Y2482500D2*
X8610003D1*
X8689997Y2567500D2*
X8610003D1*
X6510002Y5317501D2*
X6509998Y5397495D1*
X6595002Y5317505D2*
X6594998Y5397499D1*
X2588500Y2235500D2*
D13*
X2636500D1*
X2588500Y2139500D2*
X2636500D1*
X3087502Y3205001D2*
D10*
X3087498Y3284995D1*
X3172502Y3205005D2*
X3172498Y3284999D1*
X8202501Y2292502D2*
X8202499Y2372495D1*
X8287501Y2292505D2*
X8287499Y2372498D1*
X3207501Y2305003D2*
X3207499Y2384996D1*
X3292501Y2305004D2*
X3292499Y2384997D1*
X5184998Y1032501D2*
X5105005Y1032499D1*
X5184995Y1117501D2*
X5105002Y1117499D1*
X6315002D2*
X6394995Y1117501D1*
X6315005Y1032499D2*
X6394998Y1032501D1*
X5067504Y4814999D2*
X5067496Y4894993D1*
X5152504Y4815007D2*
X5152496Y4895001D1*
X4889997Y2682500D2*
X4890003Y2602506D1*
X4804997Y2682494D2*
X4805003Y2602500D1*
X1135002Y6154999D2*
X1214995Y6155001D1*
X1135005Y6069999D2*
X1214998Y6070001D1*
X4805002Y2782501D2*
X4804998Y2862494D1*
X4890002Y2782506D2*
X4889998Y2862499D1*
X1217002Y2385000D2*
D13*
X1203002D1*
X1216998Y2445000D2*
X1202998D1*
X1402999Y2545000D2*
X1416999D1*
X1403001Y2485000D2*
X1417001D1*
X1402998Y2445000D2*
X1416998D1*
X1403002Y2385000D2*
X1417002D1*
X1217002Y1555000D2*
X1203002D1*
X1216998Y1615000D2*
X1202998D1*
X1402999Y1715000D2*
X1416999D1*
X1403001Y1655000D2*
X1417001D1*
X1402999Y1615000D2*
X1416999D1*
X1403001Y1555000D2*
X1417001D1*
X1217001Y3215000D2*
X1203001D1*
X1216999Y3275000D2*
X1202999D1*
X1402999Y3375000D2*
X1416999D1*
X1403001Y3315000D2*
X1417001D1*
X1402999Y3275000D2*
X1416999D1*
X1403001Y3215000D2*
X1417001D1*
X7529999Y3212502D2*
D10*
X7450006Y3212498D1*
X7529994Y3297502D2*
X7450001Y3297498D1*
X7529998Y3302501D2*
X7450005Y3302499D1*
X7529995Y3387501D2*
X7450002Y3387499D1*
X7477505Y2864998D2*
X7477495Y2944991D1*
X7562505Y2865009D2*
X7562495Y2945002D1*
X7450000Y3482496D2*
X7529993Y3482504D1*
X7450007Y3397496D2*
X7530000Y3397504D1*
X7270000Y3482496D2*
X7349993Y3482504D1*
X7270007Y3397496D2*
X7350000Y3397504D1*
X7567497Y2372500D2*
X7567503Y2292507D1*
X7482497Y2372493D2*
X7482503Y2292500D1*
X7267504Y2864999D2*
X7267496Y2944993D1*
X7352504Y2865007D2*
X7352496Y2945001D1*
X7162501Y2865002D2*
X7162499Y2944995D1*
X7247501Y2865005D2*
X7247499Y2944998D1*
X4879999Y4672503D2*
X4800006Y4672497D1*
X4879994Y4757503D2*
X4800001Y4757497D1*
X4879999Y4557503D2*
X4800006Y4557497D1*
X4879994Y4642503D2*
X4800001Y4642497D1*
X2067001Y1270997D2*
D13*
X2066999Y1318997D1*
X2163001Y1271003D2*
X2162999Y1319003D1*
X2062001Y1645997D2*
X2061999Y1693997D1*
X2158001Y1646003D2*
X2157999Y1694003D1*
X9413997Y2107995D2*
X9414002Y1931995D1*
X9765997Y2108005D2*
X9766002Y1932005D1*
G36*
X9441004Y1858996D2*
X9441218Y1862259D1*
X9441856Y1865466D1*
X9442907Y1868563D1*
X9444353Y1871496D1*
X9446170Y1874215D1*
X9448326Y1876674D1*
X9450784Y1878830D1*
X9453503Y1880647D1*
X9456436Y1882093D1*
X9459533Y1883144D1*
X9462740Y1883782D1*
X9466003Y1883996D1*
X9469267Y1883783D1*
X9472474Y1883145D1*
X9475571Y1882094D1*
X9478503Y1880647D1*
X9481223Y1878831D1*
X9483681Y1876675D1*
X9485838Y1874216D1*
X9487654Y1871497D1*
X9489101Y1868564D1*
X9490152Y1865468D1*
X9490790Y1862260D1*
X9491004Y1858997D1*
D1*
X9490790Y1855734D1*
X9490152Y1852527D1*
X9489101Y1849430D1*
X9487655Y1846497D1*
X9485838Y1843778D1*
X9483682Y1841319D1*
X9481224Y1839163D1*
X9478505Y1837346D1*
X9475572Y1835900D1*
X9472475Y1834848D1*
X9469268Y1834210D1*
X9466005Y1833996D1*
X9462742Y1834210D1*
X9459534Y1834848D1*
X9456438Y1835899D1*
X9453505Y1837345D1*
X9450786Y1839162D1*
X9448327Y1841318D1*
X9446171Y1843777D1*
X9444354Y1846496D1*
X9442907Y1849429D1*
X9441856Y1852525D1*
X9441218Y1855732D1*
X9441004Y1858996D1*
D1*
G37*
X4305007Y1350013D2*
D10*
Y1349979D1*
G03X4504993Y1349987I99993J4D01*
G01*
Y1350021D1*
G03X4305007Y1350013I-99993J-4D01*
G01*
X4485018Y1154980D2*
X4550008Y1154983D1*
X4260008Y1154971D2*
X4324998Y1154973D1*
X4259992Y1545017D2*
X4324982Y1545020D1*
X4549992Y1545029D2*
X4485002Y1545027D1*
X4549992Y1545029D2*
X4550008Y1154983D1*
X4260008Y1154971D2*
X4259992Y1545017D1*
X6997507Y1350013D2*
Y1349979D1*
G03X7197493Y1349987I99993J4D01*
G01*
Y1350021D1*
G03X6997507Y1350013I-99993J-4D01*
G01*
X7177518Y1154980D2*
X7242508Y1154983D1*
X6952508Y1154971D2*
X7017498Y1154973D1*
X6952492Y1545017D2*
X7017482Y1545020D1*
X7242492Y1545029D2*
X7177502Y1545027D1*
X7242492Y1545029D2*
X7242508Y1154983D1*
X6952508Y1154971D2*
X6952492Y1545017D1*
X10424993Y5799988D2*
Y5800021D1*
G03X10225007Y5800012I-99993J-5D01*
G01*
Y5799979D1*
G03X10424993Y5799988I99993J5D01*
G01*
X10244981Y5995020D2*
X10179991Y5995016D1*
X10469991Y5995030D2*
X10405001Y5995027D1*
X10470009Y5604984D2*
X10405019Y5604980D1*
X10180009Y5604970D2*
X10244999Y5604973D1*
X10180009Y5604970D2*
X10179991Y5995016D1*
X10469991Y5995030D2*
X10470009Y5604984D1*
X1274993Y5799994D2*
Y5800027D1*
G03X1075007Y5800006I-99993J-10D01*
G01*
Y5799973D1*
G03X1274993Y5799994I99993J10D01*
G01*
X1094970Y5995015D2*
X1029980Y5995008D1*
X1319980Y5995038D2*
X1254990Y5995032D1*
X1320020Y5604992D2*
X1255030Y5604985D1*
X1030020Y5604962D2*
X1095010Y5604968D1*
X1030020Y5604962D2*
X1029980Y5995008D1*
X1319980Y5995038D2*
X1320020Y5604992D1*
X10424993Y5049983D2*
Y5050017D1*
G03X10225007Y5050017I-99993J0D01*
G01*
Y5049983D1*
G03X10424993Y5049983I99993J0D01*
G01*
X10244990Y5245023D2*
X10180000D1*
X10470000D2*
X10405010D1*
X10470000Y4854977D2*
X10405010D1*
X10180000D2*
X10244990D1*
X10180000D2*
Y5245023D1*
X10470000D2*
Y4854977D1*
X1274993Y5049983D2*
Y5050017D1*
G03X1075007Y5050017I-99993J0D01*
G01*
Y5049983D1*
G03X1274993Y5049983I99993J0D01*
G01*
X1094990Y5245023D2*
X1030000D1*
X1320000D2*
X1255010D1*
X1320000Y4854977D2*
X1255010D1*
X1030000D2*
X1094990D1*
X1030000D2*
Y5245023D1*
X1320000D2*
Y4854977D1*
G36*
X9800000Y3770000D2*
X9802611Y3769829D1*
X9805176Y3769319D1*
X9807654Y3768478D1*
X9810000Y3767321D1*
X9812175Y3765867D1*
X9814142Y3764142D1*
X9815867Y3762175D1*
X9817321Y3760000D1*
X9818478Y3757654D1*
X9819319Y3755176D1*
X9819829Y3752611D1*
X9820000Y3750000D1*
X9819829Y3747389D1*
X9819319Y3744824D1*
X9818478Y3742346D1*
X9817321Y3740000D1*
X9815867Y3737825D1*
X9814142Y3735858D1*
X9812175Y3734133D1*
X9810000Y3732679D1*
X9807654Y3731522D1*
X9805176Y3730681D1*
X9802611Y3730171D1*
X9800000Y3730000D1*
D1*
X9797389Y3730171D1*
X9794824Y3730681D1*
X9792346Y3731522D1*
X9790000Y3732679D1*
X9787825Y3734133D1*
X9785858Y3735858D1*
X9784133Y3737825D1*
X9782679Y3740000D1*
X9781522Y3742346D1*
X9780681Y3744824D1*
X9780171Y3747389D1*
X9780000Y3750000D1*
X9780171Y3752611D1*
X9780681Y3755176D1*
X9781522Y3757654D1*
X9782679Y3760000D1*
X9784133Y3762175D1*
X9785858Y3764142D1*
X9787825Y3765867D1*
X9790000Y3767321D1*
X9792346Y3768478D1*
X9794824Y3769319D1*
X9797389Y3769829D1*
X9800000Y3770000D1*
D1*
G37*
X10500000Y2365000D2*
D16*
X9962000D1*
Y3685000D2*
X10500000D1*
Y2365000D1*
X8331998Y2047998D2*
D13*
X8286998Y2047996D1*
X8472998Y2048004D2*
X8427998Y2048002D1*
X8428004Y1902002D2*
X8473004Y1902004D1*
X8287004Y1901996D2*
X8332004Y1901998D1*
G36*
X8460495Y2127503D2*
X8464410Y2127247D1*
X8468259Y2126481D1*
X8471975Y2125220D1*
X8475495Y2123485D1*
X8478758Y2121305D1*
X8481708Y2118717D1*
X8484296Y2115767D1*
X8486476Y2112504D1*
X8488212Y2108985D1*
X8489473Y2105269D1*
X8490239Y2101420D1*
X8490496Y2097504D1*
X8490239Y2093589D1*
X8489474Y2089740D1*
X8488213Y2086024D1*
X8486477Y2082504D1*
X8484297Y2079241D1*
X8481710Y2076291D1*
X8478760Y2073703D1*
X8475497Y2071523D1*
X8471977Y2069787D1*
X8468262Y2068526D1*
X8464413Y2067760D1*
X8460497Y2067503D1*
D1*
X8456581Y2067760D1*
X8452732Y2068525D1*
X8449016Y2069786D1*
X8445497Y2071522D1*
X8442234Y2073702D1*
X8439283Y2076289D1*
X8436696Y2079239D1*
X8434516Y2082502D1*
X8432780Y2086022D1*
X8431518Y2089738D1*
X8430753Y2093586D1*
X8430496Y2097502D1*
X8430752Y2101418D1*
X8431518Y2105267D1*
X8432779Y2108983D1*
X8434514Y2112502D1*
X8436694Y2115765D1*
X8439282Y2118716D1*
X8442232Y2121303D1*
X8445495Y2123483D1*
X8449014Y2125219D1*
X8452730Y2126481D1*
X8456579Y2127246D1*
X8460495Y2127503D1*
D1*
G37*
X6997000Y1858300D2*
D13*
Y1813300D1*
Y1999300D2*
Y1954300D1*
X7143000D2*
Y1999300D1*
Y1813300D2*
Y1858300D1*
G36*
X6917500Y1986800D2*
X6917757Y1990716D1*
X6918522Y1994565D1*
X6919784Y1998281D1*
X6921519Y2001800D1*
X6923699Y2005063D1*
X6926287Y2008013D1*
X6929237Y2010601D1*
X6932500Y2012781D1*
X6936019Y2014516D1*
X6939735Y2015778D1*
X6943584Y2016543D1*
X6947500Y2016800D1*
X6951416Y2016543D1*
X6955265Y2015778D1*
X6958981Y2014516D1*
X6962500Y2012781D1*
X6965763Y2010601D1*
X6968713Y2008013D1*
X6971301Y2005063D1*
X6973481Y2001800D1*
X6975216Y1998281D1*
X6976478Y1994565D1*
X6977243Y1990716D1*
X6977500Y1986800D1*
D1*
X6977243Y1982884D1*
X6976478Y1979035D1*
X6975216Y1975319D1*
X6973481Y1971800D1*
X6971301Y1968537D1*
X6968713Y1965587D1*
X6965763Y1962999D1*
X6962500Y1960819D1*
X6958981Y1959084D1*
X6955265Y1957822D1*
X6951416Y1957057D1*
X6947500Y1956800D1*
X6943584Y1957057D1*
X6939735Y1957822D1*
X6936019Y1959084D1*
X6932500Y1960819D1*
X6929237Y1962999D1*
X6926287Y1965587D1*
X6923699Y1968537D1*
X6921519Y1971800D1*
X6919784Y1975319D1*
X6918522Y1979035D1*
X6917757Y1982884D1*
X6917500Y1986800D1*
D1*
G37*
X7242000Y4805000D2*
D13*
X7235000D1*
Y4595000D1*
X7242000D1*
X7658000Y4805000D2*
X7665000D1*
Y4595000D1*
X7658000D1*
G36*
X7198000Y4522000D2*
X7198214Y4525263D1*
X7198852Y4528470D1*
X7199903Y4531567D1*
X7201349Y4534500D1*
X7203166Y4537219D1*
X7205322Y4539678D1*
X7207781Y4541834D1*
X7210500Y4543651D1*
X7213433Y4545097D1*
X7216530Y4546148D1*
X7219737Y4546786D1*
X7223000Y4547000D1*
X7226263Y4546786D1*
X7229470Y4546148D1*
X7232567Y4545097D1*
X7235500Y4543651D1*
X7238219Y4541834D1*
X7240678Y4539678D1*
X7242834Y4537219D1*
X7244651Y4534500D1*
X7246097Y4531567D1*
X7247148Y4528470D1*
X7247786Y4525263D1*
X7248000Y4522000D1*
D1*
X7247786Y4518737D1*
X7247148Y4515530D1*
X7246097Y4512433D1*
X7244651Y4509500D1*
X7242834Y4506781D1*
X7240678Y4504322D1*
X7238219Y4502166D1*
X7235500Y4500349D1*
X7232567Y4498903D1*
X7229470Y4497852D1*
X7226263Y4497214D1*
X7223000Y4497000D1*
X7219737Y4497214D1*
X7216530Y4497852D1*
X7213433Y4498903D1*
X7210500Y4500349D1*
X7207781Y4502166D1*
X7205322Y4504322D1*
X7203166Y4506781D1*
X7201349Y4509500D1*
X7199903Y4512433D1*
X7198852Y4515530D1*
X7198214Y4518737D1*
X7198000Y4522000D1*
D1*
G37*
X3458000Y4595000D2*
D13*
X3465000D1*
Y4805000D1*
X3458000D1*
X3042000Y4595000D2*
X3035000D1*
Y4805000D1*
X3042000D1*
G36*
X3502000Y4878000D2*
X3501786Y4874737D1*
X3501148Y4871530D1*
X3500097Y4868433D1*
X3498651Y4865500D1*
X3496834Y4862781D1*
X3494678Y4860322D1*
X3492219Y4858166D1*
X3489500Y4856349D1*
X3486567Y4854903D1*
X3483470Y4853852D1*
X3480263Y4853214D1*
X3477000Y4853000D1*
X3473737Y4853214D1*
X3470530Y4853852D1*
X3467433Y4854903D1*
X3464500Y4856349D1*
X3461781Y4858166D1*
X3459322Y4860322D1*
X3457166Y4862781D1*
X3455349Y4865500D1*
X3453903Y4868433D1*
X3452852Y4871530D1*
X3452214Y4874737D1*
X3452000Y4878000D1*
D1*
X3452214Y4881263D1*
X3452852Y4884470D1*
X3453903Y4887567D1*
X3455349Y4890500D1*
X3457166Y4893219D1*
X3459322Y4895678D1*
X3461781Y4897834D1*
X3464500Y4899651D1*
X3467433Y4901097D1*
X3470530Y4902148D1*
X3473737Y4902786D1*
X3477000Y4903000D1*
X3480263Y4902786D1*
X3483470Y4902148D1*
X3486567Y4901097D1*
X3489500Y4899651D1*
X3492219Y4897834D1*
X3494678Y4895678D1*
X3496834Y4893219D1*
X3498651Y4890500D1*
X3500097Y4887567D1*
X3501148Y4884470D1*
X3501786Y4881263D1*
X3502000Y4878000D1*
D1*
G37*
X1256996Y2227994D2*
D13*
X1257004Y2051994D1*
X1562996Y2228007D2*
X1563004Y2052007D1*
G36*
X1223007Y1974992D2*
X1223221Y1978255D1*
X1223859Y1981463D1*
X1224910Y1984559D1*
X1226356Y1987492D1*
X1228173Y1990211D1*
X1230329Y1992670D1*
X1232787Y1994826D1*
X1235506Y1996643D1*
X1238439Y1998090D1*
X1241536Y1999141D1*
X1244743Y1999779D1*
X1248006Y1999993D1*
X1251269Y1999779D1*
X1254477Y1999142D1*
X1257573Y1998091D1*
X1260506Y1996644D1*
X1263225Y1994828D1*
X1265684Y1992672D1*
X1267840Y1990213D1*
X1269657Y1987494D1*
X1271104Y1984561D1*
X1272155Y1981465D1*
X1272793Y1978257D1*
X1273007Y1974994D1*
D1*
X1272794Y1971731D1*
X1272156Y1968524D1*
X1271105Y1965427D1*
X1269658Y1962494D1*
X1267842Y1959775D1*
X1265686Y1957316D1*
X1263227Y1955160D1*
X1260508Y1953343D1*
X1257575Y1951897D1*
X1254479Y1950845D1*
X1251272Y1950207D1*
X1248008Y1949993D1*
X1244745Y1950207D1*
X1241538Y1950845D1*
X1238441Y1951896D1*
X1235508Y1953342D1*
X1232789Y1955159D1*
X1230330Y1957315D1*
X1228174Y1959773D1*
X1226357Y1962492D1*
X1224911Y1965425D1*
X1223859Y1968522D1*
X1223221Y1971729D1*
X1223007Y1974992D1*
D1*
G37*
X8042000Y4805000D2*
D13*
X8035000D1*
Y4595000D1*
X8042000D1*
X8458000Y4805000D2*
X8465000D1*
Y4595000D1*
X8458000D1*
G36*
X7998000Y4522000D2*
X7998214Y4525263D1*
X7998852Y4528470D1*
X7999903Y4531567D1*
X8001349Y4534500D1*
X8003166Y4537219D1*
X8005322Y4539678D1*
X8007781Y4541834D1*
X8010500Y4543651D1*
X8013433Y4545097D1*
X8016530Y4546148D1*
X8019737Y4546786D1*
X8023000Y4547000D1*
X8026263Y4546786D1*
X8029470Y4546148D1*
X8032567Y4545097D1*
X8035500Y4543651D1*
X8038219Y4541834D1*
X8040678Y4539678D1*
X8042834Y4537219D1*
X8044651Y4534500D1*
X8046097Y4531567D1*
X8047148Y4528470D1*
X8047786Y4525263D1*
X8048000Y4522000D1*
D1*
X8047786Y4518737D1*
X8047148Y4515530D1*
X8046097Y4512433D1*
X8044651Y4509500D1*
X8042834Y4506781D1*
X8040678Y4504322D1*
X8038219Y4502166D1*
X8035500Y4500349D1*
X8032567Y4498903D1*
X8029470Y4497852D1*
X8026263Y4497214D1*
X8023000Y4497000D1*
X8019737Y4497214D1*
X8016530Y4497852D1*
X8013433Y4498903D1*
X8010500Y4500349D1*
X8007781Y4502166D1*
X8005322Y4504322D1*
X8003166Y4506781D1*
X8001349Y4509500D1*
X7999903Y4512433D1*
X7998852Y4515530D1*
X7998214Y4518737D1*
X7998000Y4522000D1*
D1*
G37*
X4258000Y4595000D2*
D13*
X4265000D1*
Y4805000D1*
X4258000D1*
X3842000Y4595000D2*
X3835000D1*
Y4805000D1*
X3842000D1*
G36*
X4302000Y4878000D2*
X4301786Y4874737D1*
X4301148Y4871530D1*
X4300097Y4868433D1*
X4298651Y4865500D1*
X4296834Y4862781D1*
X4294678Y4860322D1*
X4292219Y4858166D1*
X4289500Y4856349D1*
X4286567Y4854903D1*
X4283470Y4853852D1*
X4280263Y4853214D1*
X4277000Y4853000D1*
X4273737Y4853214D1*
X4270530Y4853852D1*
X4267433Y4854903D1*
X4264500Y4856349D1*
X4261781Y4858166D1*
X4259322Y4860322D1*
X4257166Y4862781D1*
X4255349Y4865500D1*
X4253903Y4868433D1*
X4252852Y4871530D1*
X4252214Y4874737D1*
X4252000Y4878000D1*
D1*
X4252214Y4881263D1*
X4252852Y4884470D1*
X4253903Y4887567D1*
X4255349Y4890500D1*
X4257166Y4893219D1*
X4259322Y4895678D1*
X4261781Y4897834D1*
X4264500Y4899651D1*
X4267433Y4901097D1*
X4270530Y4902148D1*
X4273737Y4902786D1*
X4277000Y4903000D1*
X4280263Y4902786D1*
X4283470Y4902148D1*
X4286567Y4901097D1*
X4289500Y4899651D1*
X4292219Y4897834D1*
X4294678Y4895678D1*
X4296834Y4893219D1*
X4298651Y4890500D1*
X4300097Y4887567D1*
X4301148Y4884470D1*
X4301786Y4881263D1*
X4302000Y4878000D1*
D1*
G37*
X1347996Y3828002D2*
D13*
X1171996Y3827998D1*
X1348004Y3522002D2*
X1172004Y3521998D1*
G36*
X1103995Y3862996D2*
X1107259Y3862782D1*
X1110466Y3862144D1*
X1113562Y3861093D1*
X1116495Y3859647D1*
X1119215Y3857830D1*
X1121673Y3855674D1*
X1123829Y3853216D1*
X1125646Y3850497D1*
X1127093Y3847564D1*
X1128144Y3844467D1*
X1128782Y3841260D1*
X1128996Y3837997D1*
X1128782Y3834733D1*
X1128144Y3831526D1*
X1127093Y3828429D1*
X1125647Y3825497D1*
X1123830Y3822777D1*
X1121674Y3820319D1*
X1119216Y3818163D1*
X1116497Y3816346D1*
X1113564Y3814899D1*
X1110467Y3813848D1*
X1107260Y3813210D1*
X1103997Y3812996D1*
D1*
X1100733Y3813210D1*
X1097526Y3813848D1*
X1094430Y3814899D1*
X1091497Y3816345D1*
X1088777Y3818162D1*
X1086319Y3820318D1*
X1084163Y3822776D1*
X1082346Y3825495D1*
X1080899Y3828428D1*
X1079848Y3831525D1*
X1079210Y3834732D1*
X1078996Y3837995D1*
X1079210Y3841259D1*
X1079848Y3844466D1*
X1080899Y3847562D1*
X1082345Y3850495D1*
X1084162Y3853215D1*
X1086318Y3855673D1*
X1088776Y3857829D1*
X1091495Y3859646D1*
X1094428Y3861093D1*
X1097525Y3862144D1*
X1100732Y3862782D1*
X1103995Y3862996D1*
D1*
G37*
X1256995Y1397991D2*
D13*
X1257005Y1221991D1*
X1562995Y1398009D2*
X1563005Y1222009D1*
G36*
X1223010Y1144989D2*
X1223223Y1148253D1*
X1223861Y1151460D1*
X1224912Y1154557D1*
X1226358Y1157490D1*
X1228175Y1160209D1*
X1230331Y1162668D1*
X1232789Y1164824D1*
X1235508Y1166641D1*
X1238441Y1168087D1*
X1241538Y1169139D1*
X1244745Y1169777D1*
X1248008Y1169991D1*
X1251271Y1169777D1*
X1254479Y1169139D1*
X1257575Y1168088D1*
X1260508Y1166642D1*
X1263228Y1164826D1*
X1265686Y1162670D1*
X1267843Y1160211D1*
X1269660Y1157492D1*
X1271106Y1154559D1*
X1272157Y1151463D1*
X1272796Y1148256D1*
X1273010Y1144992D1*
D1*
X1272796Y1141729D1*
X1272158Y1138522D1*
X1271107Y1135425D1*
X1269661Y1132492D1*
X1267844Y1129773D1*
X1265688Y1127314D1*
X1263230Y1125158D1*
X1260511Y1123341D1*
X1257578Y1121894D1*
X1254482Y1120843D1*
X1251274Y1120205D1*
X1248011Y1119991D1*
X1244748Y1120205D1*
X1241541Y1120842D1*
X1238444Y1121893D1*
X1235511Y1123340D1*
X1232792Y1125156D1*
X1230333Y1127312D1*
X1228177Y1129771D1*
X1226360Y1132490D1*
X1224913Y1135422D1*
X1223862Y1138519D1*
X1223224Y1141726D1*
X1223010Y1144989D1*
D1*
G37*
X1256996Y3057994D2*
D13*
X1257004Y2881994D1*
X1562996Y3058007D2*
X1563004Y2882007D1*
G36*
X1223007Y2804992D2*
X1223221Y2808255D1*
X1223859Y2811463D1*
X1224910Y2814559D1*
X1226356Y2817492D1*
X1228173Y2820211D1*
X1230329Y2822670D1*
X1232787Y2824826D1*
X1235506Y2826643D1*
X1238439Y2828090D1*
X1241536Y2829141D1*
X1244743Y2829779D1*
X1248006Y2829993D1*
X1251269Y2829779D1*
X1254477Y2829142D1*
X1257573Y2828091D1*
X1260506Y2826644D1*
X1263225Y2824828D1*
X1265684Y2822672D1*
X1267840Y2820213D1*
X1269657Y2817494D1*
X1271104Y2814561D1*
X1272155Y2811465D1*
X1272793Y2808257D1*
X1273007Y2804994D1*
D1*
X1272794Y2801731D1*
X1272156Y2798524D1*
X1271105Y2795427D1*
X1269658Y2792494D1*
X1267842Y2789775D1*
X1265686Y2787316D1*
X1263227Y2785160D1*
X1260508Y2783343D1*
X1257575Y2781897D1*
X1254479Y2780845D1*
X1251272Y2780207D1*
X1248008Y2779993D1*
X1244745Y2780207D1*
X1241538Y2780845D1*
X1238441Y2781896D1*
X1235508Y2783342D1*
X1232789Y2785159D1*
X1230330Y2787315D1*
X1228174Y2789773D1*
X1226357Y2792492D1*
X1224911Y2795425D1*
X1223859Y2798522D1*
X1223221Y2801729D1*
X1223007Y2804992D1*
D1*
G37*
X5396226Y3707483D2*
D13*
X5042476Y3707467D1*
X5042493Y3353717D1*
X5042527Y2646217D2*
X5042544Y2292467D1*
X5396294Y2292483D1*
X6103726Y3707517D2*
X6457476Y3707534D1*
X6457493Y3353784D1*
X6457527Y2646284D2*
X6457544Y2292534D1*
X6103794Y2292517D1*
G36*
X4999040Y2374965D2*
X4995777Y2375178D1*
X4992569Y2375816D1*
X4989473Y2376867D1*
X4986540Y2378313D1*
X4983821Y2380130D1*
X4981362Y2382286D1*
X4979206Y2384745D1*
X4977389Y2387463D1*
X4975942Y2390396D1*
X4974891Y2393493D1*
X4974253Y2396700D1*
X4974039Y2399963D1*
X4974252Y2403226D1*
X4974890Y2406434D1*
X4975941Y2409531D1*
X4977387Y2412463D1*
X4979204Y2415183D1*
X4981360Y2417641D1*
X4983819Y2419798D1*
X4986538Y2421615D1*
X4989470Y2423061D1*
X4992567Y2424112D1*
X4995774Y2424750D1*
X4999037Y2424965D1*
D1*
X5002301Y2424751D1*
X5005508Y2424113D1*
X5008605Y2423062D1*
X5011538Y2421616D1*
X5014257Y2419799D1*
X5016715Y2417643D1*
X5018872Y2415185D1*
X5020689Y2412466D1*
X5022135Y2409533D1*
X5023186Y2406436D1*
X5023825Y2403229D1*
X5024039Y2399966D1*
X5023825Y2396703D1*
X5023187Y2393495D1*
X5022136Y2390399D1*
X5020690Y2387466D1*
X5018873Y2384746D1*
X5016717Y2382288D1*
X5014259Y2380131D1*
X5011540Y2378314D1*
X5008607Y2376868D1*
X5005510Y2375817D1*
X5002303Y2375179D1*
X4999040Y2374965D1*
D1*
G37*
X6257500Y5253750D2*
D13*
Y5507500D1*
X6003750D1*
X5496250D2*
X5242500D1*
Y5253750D1*
X6257500Y4746250D2*
Y4492500D1*
X6003750D1*
X5496250D2*
X5242500D1*
Y4746250D1*
G36*
X5295000Y5525500D2*
X5293107Y5525624D1*
X5291247Y5525994D1*
X5289451Y5526604D1*
X5287750Y5527443D1*
X5286173Y5528496D1*
X5284747Y5529747D1*
X5283496Y5531173D1*
X5282443Y5532750D1*
X5281604Y5534451D1*
X5280994Y5536247D1*
X5280624Y5538107D1*
X5280500Y5540000D1*
X5280624Y5541893D1*
X5280994Y5543753D1*
X5281604Y5545549D1*
X5282443Y5547250D1*
X5283496Y5548827D1*
X5284747Y5550253D1*
X5286173Y5551504D1*
X5287750Y5552557D1*
X5289451Y5553396D1*
X5291247Y5554006D1*
X5293107Y5554376D1*
X5295000Y5554500D1*
D1*
X5296893Y5554376D1*
X5298753Y5554006D1*
X5300549Y5553396D1*
X5302250Y5552557D1*
X5303827Y5551504D1*
X5305253Y5550253D1*
X5306504Y5548827D1*
X5307557Y5547250D1*
X5308396Y5545549D1*
X5309006Y5543753D1*
X5309376Y5541893D1*
X5309500Y5540000D1*
X5309376Y5538107D1*
X5309006Y5536247D1*
X5308396Y5534451D1*
X5307557Y5532750D1*
X5306504Y5531173D1*
X5305253Y5529747D1*
X5303827Y5528496D1*
X5302250Y5527443D1*
X5300549Y5526604D1*
X5298753Y5525994D1*
X5296893Y5525624D1*
X5295000Y5525500D1*
D1*
G37*
G36*
X7360000Y3410000D2*
X7361958Y3409872D1*
X7363882Y3409489D1*
X7365740Y3408858D1*
X7367500Y3407990D1*
X7369131Y3406900D1*
X7370607Y3405607D1*
X7371900Y3404131D1*
X7372990Y3402500D1*
X7373858Y3400740D1*
X7374489Y3398882D1*
X7374872Y3396958D1*
X7375000Y3395000D1*
X7374872Y3393042D1*
X7374489Y3391118D1*
X7373858Y3389260D1*
X7372990Y3387500D1*
X7371900Y3385869D1*
X7370607Y3384393D1*
X7369131Y3383100D1*
X7367500Y3382010D1*
X7365740Y3381142D1*
X7363882Y3380511D1*
X7361958Y3380128D1*
X7360000Y3380000D1*
X7359980D1*
X7358022Y3380128D1*
X7356098Y3380511D1*
X7354240Y3381142D1*
X7352480Y3382010D1*
X7350849Y3383100D1*
X7349373Y3384393D1*
X7348080Y3385869D1*
X7346990Y3387500D1*
X7346122Y3389260D1*
X7345491Y3391118D1*
X7345108Y3393042D1*
X7344980Y3395000D1*
X7345108Y3396958D1*
X7345491Y3398882D1*
X7346122Y3400740D1*
X7346990Y3402500D1*
X7348080Y3404131D1*
X7349373Y3405607D1*
X7350849Y3406900D1*
X7352480Y3407990D1*
X7354240Y3408858D1*
X7356098Y3409489D1*
X7358022Y3409872D1*
X7359980Y3410000D1*
X7360000D1*
G37*
X4742009Y4797001D2*
D13*
X4708009Y4797000D1*
X4741992Y5203001D2*
X4707992Y5203000D1*
X4561999Y5036994D2*
X4562002Y4962994D1*
X4887999Y5037007D2*
X4888002Y4963007D1*
G36*
X4561151Y5228334D2*
X4564414Y5228120D1*
X4567622Y5227482D1*
X4570718Y5226431D1*
X4573651Y5224985D1*
X4576370Y5223168D1*
X4578829Y5221012D1*
X4580985Y5218554D1*
X4582802Y5215835D1*
X4584249Y5212902D1*
X4585300Y5209805D1*
X4585938Y5206598D1*
X4586152Y5203335D1*
X4585939Y5200072D1*
X4585301Y5196864D1*
X4584250Y5193768D1*
X4582803Y5190835D1*
X4580987Y5188116D1*
X4578831Y5185657D1*
X4576372Y5183501D1*
X4573653Y5181684D1*
X4570720Y5180237D1*
X4567624Y5179186D1*
X4564416Y5178548D1*
X4561153Y5178334D1*
D1*
X4557890Y5178548D1*
X4554683Y5179185D1*
X4551586Y5180236D1*
X4548653Y5181683D1*
X4545934Y5183499D1*
X4543475Y5185655D1*
X4541319Y5188114D1*
X4539502Y5190833D1*
X4538056Y5193766D1*
X4537004Y5196862D1*
X4536366Y5200070D1*
X4536152Y5203333D1*
X4536366Y5206596D1*
X4537004Y5209803D1*
X4538055Y5212900D1*
X4539501Y5215833D1*
X4541318Y5218552D1*
X4543474Y5221011D1*
X4545932Y5223167D1*
X4548651Y5224984D1*
X4551584Y5226430D1*
X4554681Y5227482D1*
X4557888Y5228120D1*
X4561151Y5228334D1*
D1*
G37*
X1000000Y6200000D2*
D10*
X10500000D1*
Y1000000D1*
X1000000D1*
Y6200000D1*
X9320000Y2225000D2*
D19*
X8935000Y2224953D1*
Y1124957D1*
X9485087D1*
X9550077Y1189973D1*
X9684980D1*
Y1124957D1*
X9794937D1*
X9865000Y1195000D1*
X9850000Y2225000D2*
X9780000D1*
G36*
X2702515Y3058643D2*
X2704515Y3057643D1*
X2707515Y3054643D1*
Y3053643D1*
X2708515Y3052643D1*
Y3048643D1*
X2707515Y3047643D1*
Y3046643D1*
X2704515Y3043643D1*
X2702515Y3042643D1*
X2671515Y3041643D1*
Y3022643D1*
X2688515Y3021643D1*
X2690515Y3020643D1*
X2693515Y3017643D1*
Y3016643D1*
X2694515Y3015643D1*
Y3011643D1*
X2693515Y3010643D1*
Y3009643D1*
X2690515Y3006643D1*
X2688515Y3005643D1*
X2671515Y3004643D1*
Y2982643D1*
X2702515Y2981643D1*
X2704515Y2980643D1*
X2707515Y2977643D1*
Y2976643D1*
X2708515Y2975643D1*
Y2971643D1*
X2707515Y2970643D1*
Y2969643D1*
X2704515Y2966643D1*
X2702515Y2965643D1*
X2688182Y2964643D1*
X2673849D1*
X2659515Y2965643D1*
X2657515Y2966643D1*
X2654515Y2969643D1*
Y2970643D1*
X2653515Y2971643D1*
Y3052643D1*
X2654515Y3053643D1*
Y3054643D1*
X2657515Y3057643D1*
X2659515Y3058643D1*
X2619515D1*
X2627515Y3054643D1*
X2635515Y3046643D1*
Y3045643D1*
X2638515Y3040643D1*
X2639515Y3038643D1*
X2640515Y3035643D1*
X2641515Y3031643D1*
X2642515Y3028643D1*
X2643515Y3024643D1*
X2644515Y3023643D1*
Y2999643D1*
X2643515Y2998643D1*
X2642515Y2994643D1*
X2641515Y2991643D1*
X2640515Y2987643D1*
X2639515Y2985643D1*
X2638515Y2982643D1*
X2635515Y2978643D1*
Y2977643D1*
X2627515Y2969643D1*
X2619515Y2965643D1*
X2610182Y2964643D1*
X2600849D1*
X2591515Y2965643D1*
X2589515Y2966643D1*
X2586515Y2969643D1*
Y2970643D1*
X2585515Y2971643D1*
Y3052643D1*
X2586515Y3053643D1*
Y3054643D1*
X2589515Y3057643D1*
X2591515Y3058643D1*
X2502515D1*
Y2920643D1*
X2996515D1*
Y2965643D1*
X2894515D1*
X2888515Y2964643D1*
X2882515D1*
X2876515Y2965643D1*
X2821515D1*
X2816849Y2964643D1*
X2812182D1*
X2807515Y2965643D1*
X2805515Y2966643D1*
X2802515Y2967643D1*
X2798515Y2969643D1*
X2793515Y2974643D1*
Y2975643D1*
X2790515Y2979643D1*
X2788515Y2984643D1*
X2787515Y2987643D1*
X2786515Y2991643D1*
X2785515Y2992643D1*
Y3052643D1*
X2786515Y3053643D1*
Y3054643D1*
X2789515Y3057643D1*
X2793515Y3059643D1*
X2795515D1*
X2799515Y3057643D1*
X2802515Y3054643D1*
Y3053643D1*
X2803515Y2995643D1*
X2804515Y2992643D1*
X2805515Y2988643D1*
X2806515Y2986643D1*
X2808515Y2984643D1*
X2810515Y2983643D1*
X2813515Y2982643D1*
X2815515D1*
X2820515Y2984643D1*
X2824515Y2988643D1*
X2825515Y2993643D1*
X2826515Y3053643D1*
Y3054643D1*
X2829515Y3057643D1*
X2833515Y3059643D1*
X2835515D1*
X2839515Y3057643D1*
X2842515Y3054643D1*
Y3053643D1*
X2843515Y3052643D1*
Y2993643D1*
X2842515Y2992643D1*
X2841515Y2986643D1*
X2840515Y2981643D1*
X2838515Y2978643D1*
Y2977643D1*
X2830515Y2969643D1*
X2828515Y2968643D1*
X2825515Y2967643D1*
X2821515Y2965643D1*
X2876515D1*
X2871515Y2968643D1*
X2868515Y2970643D1*
X2860515Y2978643D1*
Y2979643D1*
X2858515Y2982643D1*
X2857515Y2985643D1*
X2856515Y2987643D1*
X2855515Y2991643D1*
X2854515Y2994643D1*
X2853515Y2998643D1*
X2852515Y2999643D1*
Y3023643D1*
X2853515Y3024643D1*
X2854515Y3028643D1*
X2855515Y3031643D1*
X2856515Y3035643D1*
X2857515Y3038643D1*
X2860515Y3044643D1*
X2866515Y3051643D1*
X2870515Y3055643D1*
X2872515Y3056643D1*
X2873515Y3057643D1*
X2875515Y3058643D1*
X2881515Y3059643D1*
X2887515D1*
X2893515Y3058643D1*
X2895515Y3057643D1*
X2896515Y3056643D1*
X2899515Y3054643D1*
X2901515Y3053643D1*
X2908515Y3046643D1*
Y3045643D1*
X2911515Y3040643D1*
X2912515Y3038643D1*
X2913515Y3035643D1*
X2914515Y3034643D1*
Y3029643D1*
X2913515Y3028643D1*
Y3027643D1*
X2910515Y3024643D1*
X2906515Y3022643D1*
X2904515D1*
X2900515Y3024643D1*
X2896515Y3028643D1*
Y3030643D1*
X2895515Y3032643D1*
X2894515Y3035643D1*
X2888515Y3041643D1*
X2881515D1*
X2875515Y3035643D1*
X2874515Y3032643D1*
X2873515Y3030643D1*
X2872515Y3027643D1*
X2871515Y3023643D1*
X2870515Y3020643D1*
Y3002643D1*
X2871515Y2999643D1*
X2872515Y2995643D1*
X2873515Y2993643D1*
X2874515Y2990643D1*
X2875515Y2988643D1*
X2879515Y2983643D1*
X2881515Y2982643D1*
X2887515D1*
X2889515Y2983643D1*
X2894515Y2988643D1*
X2895515Y2990643D1*
X2896515Y2993643D1*
X2887515Y2994643D1*
X2885515Y2995643D1*
X2882515Y2998643D1*
Y2999643D1*
X2881515Y3000643D1*
Y3004643D1*
X2882515Y3005643D1*
Y3006643D1*
X2885515Y3009643D1*
X2887515Y3010643D1*
X2894515Y3011643D1*
X2901515D1*
X2908515Y3010643D1*
X2910515Y3009643D1*
X2913515Y3006643D1*
Y3005643D1*
X2914515Y3004643D1*
Y2988643D1*
X2913515Y2987643D1*
X2912515Y2985643D1*
X2911515Y2982643D1*
X2908515Y2978643D1*
Y2977643D1*
X2900515Y2969643D1*
X2898515Y2968643D1*
X2895515Y2966643D1*
X2894515Y2965643D1*
X2996515D1*
Y3105643D1*
X2502515D1*
Y3058643D1*
X2591515D1*
X2600849Y3059643D1*
X2610182D1*
X2619515Y3058643D1*
X2659515D1*
X2673849Y3059643D1*
X2688182D1*
X2702515Y3058643D1*
X2723515D1*
X2734515Y3059643D1*
X2745515D1*
X2756515Y3058643D1*
X2760515Y3056643D1*
X2763515Y3055643D1*
X2765515Y3054643D1*
X2770515Y3049643D1*
Y3048643D1*
X2773515Y3044643D1*
X2774515Y3041643D1*
X2775515Y3039643D1*
X2776515Y3038643D1*
Y3025643D1*
X2775515Y3024643D1*
X2774515Y3021643D1*
X2773515Y3019643D1*
X2769515Y3013643D1*
X2773515Y3008643D1*
X2774515Y3005643D1*
X2775515Y3003643D1*
X2776515Y3002643D1*
Y2985643D1*
X2775515Y2984643D1*
X2774515Y2981643D1*
X2773515Y2979643D1*
Y2977643D1*
X2765515Y2969643D1*
X2763515Y2968643D1*
X2760515Y2967643D1*
X2756515Y2965643D1*
X2745515Y2964643D1*
X2734515D1*
X2723515Y2965643D1*
X2721515Y2966643D1*
X2718515Y2969643D1*
Y2970643D1*
X2717515Y2971643D1*
Y3052643D1*
X2718515Y3053643D1*
Y3054643D1*
X2721515Y3057643D1*
X2723515Y3058643D1*
X2702515D1*
G37*
G36*
X2603515Y3041643D2*
Y2982643D1*
X2613515D1*
X2617515Y2984643D1*
X2621515Y2988643D1*
X2622515Y2990643D1*
X2623515Y2993643D1*
X2624515Y2995643D1*
X2625515Y2999643D1*
X2626515Y3002643D1*
Y3020643D1*
X2625515Y3023643D1*
X2624515Y3027643D1*
X2623515Y3030643D1*
X2622515Y3032643D1*
X2621515Y3035643D1*
X2617515Y3039643D1*
X2613515Y3041643D1*
X2603515D1*
G37*
G36*
X2735515D2*
Y3022643D1*
X2750515D1*
X2755515Y3024643D1*
X2756515Y3025643D1*
X2758515Y3029643D1*
Y3033643D1*
X2757515Y3036643D1*
X2756515Y3038643D1*
X2755515Y3039643D1*
X2750515Y3041643D1*
X2735515D1*
G37*
G36*
Y3004643D2*
Y2982643D1*
X2750515D1*
X2755515Y2984643D1*
X2756515Y2985643D1*
X2758515Y2989643D1*
Y2997643D1*
X2757515Y3000643D1*
X2755515Y3002643D1*
X2750515Y3004643D1*
X2735515D1*
G37*
G36*
X1994223Y2023643D2*
X2002223Y2019643D1*
X2010223Y2011643D1*
Y2010643D1*
X2012223Y2007643D1*
X2013223Y2006643D1*
Y2002643D1*
X2012223Y2001643D1*
Y2000643D1*
X2009223Y1997643D1*
X2005223Y1995643D1*
X2003223D1*
X1997223Y1998643D1*
Y1999643D1*
X1992223Y2004643D1*
X1988223Y2006643D1*
X1980223D1*
X1977223Y2005643D1*
X1975223Y2004643D1*
X1972223Y2001643D1*
Y1998643D1*
X1973223Y1995643D1*
X1974223Y1993643D1*
X1975223Y1992643D1*
X1987223Y1986643D1*
X1990223Y1985643D1*
X2002223Y1979643D1*
X2007223Y1974643D1*
Y1973643D1*
X2010223Y1969643D1*
X2011223Y1966643D1*
X2012223Y1964643D1*
X2013223Y1963643D1*
Y1947643D1*
X2012223Y1946643D1*
X2010223Y1943643D1*
Y1942643D1*
X2002223Y1934643D1*
X1994223Y1930643D1*
X1987557Y1929643D1*
X1980890D1*
X1974223Y1930643D1*
X1972223Y1931643D1*
X1969223Y1932643D1*
X1965223Y1934643D1*
X1956223Y1943643D1*
Y1944643D1*
X1955223Y1946643D1*
X1954223Y1947643D1*
Y1951643D1*
X1955223Y1952643D1*
Y1953643D1*
X1958223Y1956643D1*
X1962223Y1958643D1*
X1964223D1*
X1968223Y1956643D1*
X1975223Y1949643D1*
X1977223Y1948643D1*
X1980223Y1947643D1*
X1988223D1*
X1992223Y1949643D1*
X1995223Y1952643D1*
Y1958643D1*
X1994223Y1961643D1*
X1993223Y1963643D1*
X1992223Y1964643D1*
X1982223Y1969643D1*
X1979223Y1970643D1*
X1965223Y1977643D1*
X1959223Y1983643D1*
Y1984643D1*
X1957223Y1987643D1*
X1956223Y1990643D1*
X1955223Y1992643D1*
X1954223Y1993643D1*
Y2006643D1*
X1955223Y2007643D1*
X1956223Y2009643D1*
X1962223Y2016643D1*
X1965223Y2019643D1*
X1969223Y2021643D1*
X1972223Y2022643D1*
X1974223Y2023643D1*
X1871223D1*
Y1885643D1*
X2248223D1*
Y1930643D1*
X2140223D1*
X2131223Y1929643D1*
X2122223D1*
X2113223Y1930643D1*
X2111223Y1931643D1*
X2108223Y1934643D1*
Y1935643D1*
X2107223Y1936643D1*
Y2017643D1*
X2108223Y2018643D1*
Y2019643D1*
X2111223Y2022643D1*
X2113223Y2023643D1*
X2122223Y2024643D1*
X2131223D1*
X2140223Y2023643D1*
X2144223Y2021643D1*
X2147223Y2020643D1*
X2149223Y2019643D1*
X2157223Y2011643D1*
Y2010643D1*
X2160223Y2005643D1*
X2161223Y2003643D1*
X2162223Y2000643D1*
X2163223Y1996643D1*
X2164223Y1993643D1*
X2165223Y1989643D1*
X2166223Y1988643D1*
Y1964643D1*
X2165223Y1963643D1*
X2164223Y1959643D1*
X2163223Y1956643D1*
X2162223Y1952643D1*
X2161223Y1950643D1*
X2160223Y1947643D1*
X2157223Y1943643D1*
Y1942643D1*
X2149223Y1934643D1*
X2147223Y1933643D1*
X2144223Y1932643D1*
X2140223Y1930643D1*
X2248223D1*
Y2070643D1*
X1871223D1*
Y2023643D1*
X1974223D1*
X1980890Y2024643D1*
X1987557D1*
X1994223Y2023643D1*
X2028223D1*
X2030223Y2024643D1*
X2032223D1*
X2036223Y2022643D1*
X2039223Y2019643D1*
Y2018643D1*
X2040223Y2013643D1*
X2041223Y2007643D1*
X2042223Y2002643D1*
X2043223Y1996643D1*
X2044223Y1991643D1*
X2045223Y1985643D1*
X2046223Y1987643D1*
X2047223Y1992643D1*
X2048223Y1998643D1*
X2052223Y2018643D1*
Y2019643D1*
X2055223Y2022643D1*
X2059223Y2024643D1*
X2061223D1*
X2065223Y2022643D1*
X2068223Y2019643D1*
Y2018643D1*
X2072223Y1998643D1*
X2073223Y1992643D1*
X2074223Y1987643D1*
X2075223Y1985643D1*
X2076223Y1991643D1*
X2077223Y1996643D1*
X2078223Y2002643D1*
X2079223Y2007643D1*
X2080223Y2013643D1*
X2081223Y2018643D1*
Y2019643D1*
X2084223Y2022643D1*
X2088223Y2024643D1*
X2090223D1*
X2094223Y2022643D1*
X2097223Y2019643D1*
Y2018643D1*
X2098223Y2017643D1*
Y2013643D1*
X2097223Y2012643D1*
X2096223Y2006643D1*
X2095223Y2001643D1*
X2094223Y1995643D1*
X2093223Y1990643D1*
X2092223Y1984643D1*
X2091223Y1979643D1*
X2090223Y1973643D1*
X2089223Y1968643D1*
X2088223Y1962643D1*
X2087223Y1957643D1*
X2086223Y1951643D1*
X2085223Y1946643D1*
X2084223Y1940643D1*
X2083223Y1935643D1*
Y1934643D1*
X2080223Y1931643D1*
X2076223Y1929643D1*
X2074223D1*
X2070223Y1931643D1*
X2067223Y1934643D1*
Y1935643D1*
X2063223Y1955643D1*
X2062223Y1961643D1*
X2060223Y1971643D1*
X2058223Y1961643D1*
X2057223Y1955643D1*
X2053223Y1935643D1*
Y1934643D1*
X2050223Y1931643D1*
X2046223Y1929643D1*
X2044223D1*
X2040223Y1931643D1*
X2037223Y1934643D1*
Y1935643D1*
X2036223Y1940643D1*
X2035223Y1946643D1*
X2034223Y1951643D1*
X2033223Y1957643D1*
X2032223Y1962643D1*
X2031223Y1968643D1*
X2030223Y1973643D1*
X2029223Y1979643D1*
X2028223Y1984643D1*
X2027223Y1990643D1*
X2026223Y1995643D1*
X2025223Y2001643D1*
X2024223Y2006643D1*
X2023223Y2012643D1*
X2022223Y2013643D1*
Y2017643D1*
X2023223Y2018643D1*
Y2019643D1*
X2026223Y2022643D1*
X2028223Y2023643D1*
X1994223D1*
G37*
G36*
X2125223Y2006643D2*
Y1947643D1*
X2134223D1*
X2139223Y1949643D1*
X2143223Y1953643D1*
X2144223Y1955643D1*
X2145223Y1958643D1*
X2146223Y1960643D1*
X2147223Y1964643D1*
X2148223Y1967643D1*
Y1985643D1*
X2147223Y1988643D1*
X2146223Y1992643D1*
X2145223Y1995643D1*
X2144223Y1997643D1*
X2143223Y2000643D1*
X2139223Y2004643D1*
X2134223Y2006643D1*
X2125223D1*
G37*
G36*
X4727267Y1608984D2*
Y1707651D1*
X4521934D1*
Y1670317D1*
X4586601D1*
X4587934Y1670984D1*
X4589267D1*
X4591934Y1669651D1*
X4593934Y1667651D1*
Y1666984D1*
X4594601Y1646984D1*
X4609934D1*
X4610601Y1666984D1*
Y1667651D1*
X4612601Y1669651D1*
X4615267Y1670984D1*
X4616601D1*
X4619267Y1669651D1*
X4621267Y1667651D1*
Y1666984D1*
X4621934Y1666317D1*
Y1612984D1*
X4621267Y1612317D1*
Y1611651D1*
X4619267Y1609651D1*
X4616601Y1608317D1*
X4615267D1*
X4612601Y1609651D1*
X4610601Y1611651D1*
Y1612317D1*
X4609934Y1634984D1*
X4594601D1*
X4593934Y1612317D1*
Y1611651D1*
X4591934Y1609651D1*
X4589267Y1608317D1*
X4587934D1*
X4585267Y1609651D1*
X4583267Y1611651D1*
Y1612317D1*
X4582601Y1612984D1*
Y1666317D1*
X4583267Y1666984D1*
Y1667651D1*
X4585267Y1669651D1*
X4586601Y1670317D1*
X4521934D1*
Y1572984D1*
X4727267D1*
Y1608984D1*
X4643267D1*
X4641934Y1608317D1*
X4640601D1*
X4637934Y1609651D1*
X4635934Y1611651D1*
Y1612317D1*
X4635267Y1612984D1*
Y1616317D1*
X4635934Y1616984D1*
X4636601Y1618984D1*
X4637267Y1620317D1*
X4637934Y1622317D1*
X4638601Y1623651D1*
X4639267Y1625651D1*
X4639934Y1626984D1*
X4640601Y1628984D1*
X4641267Y1630317D1*
X4641934Y1632317D1*
X4642601Y1633651D1*
X4643267Y1635651D1*
X4643934Y1636984D1*
X4644601Y1638984D1*
X4645267Y1640317D1*
X4646601Y1644317D1*
X4647267Y1645651D1*
X4647934Y1647651D1*
X4648601Y1648984D1*
X4649267Y1650984D1*
X4649934Y1652317D1*
X4650601Y1654317D1*
X4651267Y1655651D1*
X4651934Y1657651D1*
X4652601Y1658984D1*
X4631934Y1659651D1*
X4630601Y1660317D1*
X4628601Y1662317D1*
Y1662984D1*
X4627934Y1663651D1*
Y1666317D1*
X4628601Y1666984D1*
Y1667651D1*
X4630601Y1669651D1*
X4631934Y1670317D1*
X4642378Y1670984D1*
X4652823D1*
X4663267Y1670317D1*
X4664601Y1669651D1*
X4666601Y1667651D1*
Y1666984D1*
X4667267Y1666317D1*
Y1662984D1*
X4666601Y1662317D1*
X4665934Y1660317D1*
X4665267Y1658984D1*
X4664601Y1656984D1*
X4663934Y1655651D1*
X4663267Y1653651D1*
X4662601Y1652317D1*
X4661934Y1650317D1*
X4661267Y1648984D1*
X4660601Y1646984D1*
X4659934Y1645651D1*
X4659267Y1643651D1*
X4658601Y1642317D1*
X4657934Y1640317D1*
X4657267Y1638984D1*
X4655934Y1634984D1*
X4655267Y1633651D1*
X4654601Y1631651D1*
X4653934Y1630317D1*
X4653267Y1628317D1*
X4652601Y1626984D1*
X4651934Y1624984D1*
X4651267Y1623651D1*
X4650601Y1621651D1*
X4649934Y1620317D1*
X4649267Y1618317D1*
X4648601Y1616984D1*
X4647934Y1614984D1*
X4647267Y1613651D1*
Y1612317D1*
X4644601Y1609651D1*
X4643267Y1608984D1*
X4727267D1*
G37*
G36*
X6977290D2*
Y1707651D1*
X6771956D1*
Y1670317D1*
X6847956D1*
X6852179Y1670984D1*
X6856401D1*
X6860623Y1670317D1*
X6861956Y1669651D1*
X6862623Y1668984D1*
X6863956Y1668317D1*
X6869956Y1662317D1*
Y1661651D1*
X6871956Y1658984D1*
X6872623Y1656984D1*
X6873290Y1655651D1*
X6873956Y1654984D1*
Y1651651D1*
X6873290Y1650984D1*
Y1650317D1*
X6871290Y1648317D1*
X6868623Y1646984D1*
X6867290D1*
X6864623Y1648317D1*
X6861956Y1650984D1*
Y1651651D1*
X6861290Y1653651D1*
X6860623Y1654984D1*
X6856623Y1658984D1*
X6851956D1*
X6847956Y1654984D1*
X6847290Y1653651D1*
X6846623Y1651651D1*
X6845956Y1650317D1*
X6845290Y1647651D1*
X6844623Y1645651D1*
Y1633651D1*
X6845290Y1631651D1*
X6845956Y1628984D1*
X6846623Y1626984D1*
X6847290Y1625651D1*
X6847956Y1623651D1*
X6850623Y1620984D1*
X6851956Y1620317D1*
X6857290D1*
X6860623Y1623651D1*
X6861290Y1625651D1*
X6861956Y1626984D1*
Y1628317D1*
X6864623Y1630984D1*
X6867290Y1632317D1*
X6868623D1*
X6871290Y1630984D1*
X6873290Y1628984D1*
Y1628317D1*
X6873956Y1627651D1*
Y1624317D1*
X6873290Y1623651D1*
X6872623Y1621651D1*
X6871956Y1620317D1*
X6869956Y1616984D1*
Y1616317D1*
X6864623Y1610984D1*
X6863290Y1610317D1*
X6862623Y1609651D1*
X6861290Y1608984D1*
X6856845Y1608317D1*
X6852401D1*
X6847956Y1608984D1*
X6843956Y1610984D1*
X6837956Y1616984D1*
Y1617651D1*
X6835956Y1621651D1*
X6835290Y1623651D1*
X6834623Y1626317D1*
X6833956Y1628317D1*
X6833290Y1630984D1*
X6832623Y1631651D1*
Y1647651D1*
X6833290Y1648317D1*
X6833956Y1650984D1*
X6834623Y1652984D1*
X6835290Y1655651D1*
X6835956Y1656984D1*
X6836623Y1658984D1*
X6837956Y1660984D1*
X6841956Y1665651D1*
X6844623Y1668317D1*
X6845956Y1668984D1*
X6847956Y1670317D1*
X6771956D1*
Y1572984D1*
X6977290D1*
Y1608984D1*
X6901956D1*
X6899512Y1608317D1*
X6897067D1*
X6894623Y1608984D1*
X6892623Y1609651D1*
X6887290Y1612317D1*
Y1612984D1*
X6883290Y1617651D1*
X6882623Y1618984D1*
X6880623Y1628984D1*
X6879956Y1629651D1*
Y1644984D1*
X6880623Y1645651D1*
X6882623Y1657651D1*
X6883956Y1660317D1*
X6885290Y1662317D1*
X6885956Y1663651D1*
Y1664317D1*
X6889290Y1667651D1*
X6894623Y1670317D1*
X6897734Y1670984D1*
X6900845D1*
X6903956Y1670317D1*
X6906623Y1668984D1*
X6908623Y1668317D1*
X6909956Y1667651D1*
X6913290Y1664317D1*
Y1663651D1*
X6913956Y1661651D1*
X6914623Y1660317D1*
X6915290Y1659651D1*
Y1656317D1*
X6914623Y1655651D1*
Y1654984D1*
X6912623Y1652984D1*
X6909956Y1651651D1*
X6908623D1*
X6905956Y1652984D1*
X6903290Y1655651D1*
Y1656317D1*
X6902623Y1657651D1*
X6899956Y1658984D1*
X6898623D1*
X6897290Y1658317D1*
X6895290Y1656317D1*
X6893290Y1652317D1*
Y1650317D1*
X6894623Y1650984D1*
X6897067Y1651651D1*
X6899512D1*
X6901956Y1650984D1*
X6904623Y1649651D1*
X6906623Y1648984D1*
X6907956Y1648317D1*
X6913290Y1642984D1*
Y1642317D1*
X6915290Y1638317D1*
X6915956Y1636317D1*
X6916623Y1633651D1*
X6917290Y1632984D1*
Y1626317D1*
X6916623Y1625651D1*
X6915956Y1622984D1*
X6915290Y1620984D1*
X6913290Y1616984D1*
Y1616317D1*
X6907956Y1610984D1*
X6901956Y1608984D1*
X6977290D1*
G37*
G36*
X6897290Y1638984D2*
X6895956Y1638317D1*
X6893290Y1635651D1*
X6892623Y1632984D1*
X6891956Y1630984D1*
Y1629651D1*
X6892623Y1626317D1*
X6893290Y1623651D1*
X6895290Y1621651D1*
X6897956Y1620317D1*
X6898623D1*
X6900623Y1620984D1*
X6901956Y1621651D1*
X6903956Y1623651D1*
X6904623Y1626317D1*
X6905290Y1628317D1*
Y1630984D1*
X6904623Y1632984D1*
X6903956Y1635651D1*
X6901290Y1638317D1*
X6899290Y1638984D1*
X6897290D1*
G37*
G36*
X6646143Y2051785D2*
X6645143Y2049785D1*
X6642143Y2046785D1*
X6641143D1*
X6640143Y2045785D1*
X6636143D1*
X6635143Y2046785D1*
X6634143D1*
X6631143Y2049785D1*
X6630143Y2051785D1*
X6629143Y2083785D1*
X6610143D1*
X6609143Y2065785D1*
X6608143Y2063785D1*
X6605143Y2060785D1*
X6604143D1*
X6603143Y2059785D1*
X6599143D1*
X6598143Y2060785D1*
X6597143D1*
X6594143Y2063785D1*
X6593143Y2065785D1*
X6592143Y2083785D1*
X6570143D1*
X6569143Y2051785D1*
X6568143Y2049785D1*
X6565143Y2046785D1*
X6564143D1*
X6563143Y2045785D1*
X6559143D1*
X6558143Y2046785D1*
X6557143D1*
X6554143Y2049785D1*
X6553143Y2051785D1*
X6552143Y2066452D1*
Y2081118D1*
X6553143Y2095785D1*
X6554143Y2097785D1*
X6557143Y2100785D1*
X6558143D1*
X6559143Y2101785D1*
X6640143D1*
X6641143Y2100785D1*
X6642143D1*
X6645143Y2097785D1*
X6646143Y2095785D1*
Y2184785D1*
X6508143D1*
Y1760785D1*
X6553143D1*
Y1865785D1*
X6552143Y1871452D1*
Y1877118D1*
X6553143Y1882785D1*
X6557143Y1890785D1*
X6558143Y1891785D1*
X6559143Y1893785D1*
X6562143Y1896785D1*
X6563143D1*
X6569143Y1899785D1*
X6572143Y1900785D1*
X6573143Y1901785D1*
X6578143D1*
X6579143Y1900785D1*
X6580143D1*
X6583143Y1897785D1*
X6585143Y1893785D1*
Y1891785D1*
X6583143Y1887785D1*
X6579143Y1883785D1*
X6577143D1*
X6573143Y1881785D1*
X6572143Y1880785D1*
X6570143Y1876785D1*
Y1871785D1*
X6572143Y1866785D1*
X6576143Y1862785D1*
X6580143Y1861785D1*
X6583143Y1860785D1*
X6590143D1*
X6593143Y1861785D1*
X6597143Y1862785D1*
X6598143Y1863785D1*
X6599143Y1865785D1*
X6600143Y1875785D1*
X6601143Y1877785D1*
X6604143Y1880785D1*
X6605143D1*
X6606143Y1881785D1*
X6611143D1*
X6612143Y1880785D1*
X6618143Y1876785D1*
X6620143Y1875785D1*
X6623143Y1873785D1*
X6625143Y1872785D1*
X6628143Y1870785D1*
X6629143Y1889785D1*
X6630143Y1891785D1*
X6633143Y1894785D1*
X6634143D1*
X6635143Y1895785D1*
X6639143D1*
X6640143Y1894785D1*
X6641143D1*
X6644143Y1891785D1*
X6645143Y1889785D1*
X6646143Y1877118D1*
Y1864452D1*
X6645143Y1851785D1*
X6644143Y1849785D1*
X6641143Y1846785D1*
X6640143D1*
X6639143Y1845785D1*
X6634143D1*
X6633143Y1846785D1*
X6627143Y1850785D1*
X6625143Y1851785D1*
X6619143Y1855785D1*
X6615143Y1857785D1*
X6613143Y1853785D1*
X6608143Y1848785D1*
X6607143D1*
X6601143Y1845785D1*
X6598143Y1844785D1*
X6594143Y1843785D1*
X6593143Y1842785D1*
X6580143D1*
X6579143Y1843785D1*
X6575143Y1844785D1*
X6572143Y1845785D1*
X6566143Y1848785D1*
X6565143D1*
X6557143Y1856785D1*
X6556143Y1858785D1*
X6555143Y1861785D1*
X6553143Y1865785D1*
Y1760785D1*
X6646143D1*
Y1929785D1*
X6642143Y1921785D1*
X6637143Y1916785D1*
X6636143D1*
X6632143Y1913785D1*
X6629143Y1912785D1*
X6627143Y1911785D1*
X6626143Y1910785D1*
X6609143D1*
X6608143Y1911785D1*
X6606143Y1912785D1*
X6603143Y1913785D1*
X6599143Y1916785D1*
X6598143D1*
X6593143Y1921785D1*
X6589143Y1929785D1*
X6588143Y1951785D1*
X6558143Y1952785D1*
X6557143D1*
X6554143Y1955785D1*
X6552143Y1959785D1*
Y1961785D1*
X6554143Y1965785D1*
X6557143Y1968785D1*
X6558143D1*
X6559143Y1969785D1*
X6640143D1*
X6641143Y1968785D1*
X6642143D1*
X6645143Y1965785D1*
X6646143Y1963785D1*
X6647143Y1952452D1*
Y1941118D1*
X6646143Y1929785D1*
Y1760785D1*
X6693143D1*
Y2184785D1*
X6646143D1*
Y2095785D1*
X6647143Y2081118D1*
Y2066452D1*
X6646143Y2051785D1*
Y2030785D1*
X6647143Y2028785D1*
Y2026785D1*
X6645143Y2022785D1*
X6641143Y2018785D1*
X6640143D1*
X6634143Y2015785D1*
X6631143Y2013785D1*
X6619143Y2007785D1*
Y2006785D1*
X6631143Y2000785D1*
X6634143Y1998785D1*
X6640143Y1995785D1*
X6641143D1*
X6645143Y1991785D1*
X6647143Y1987785D1*
Y1985785D1*
X6645143Y1981785D1*
X6642143Y1978785D1*
X6641143D1*
X6640143Y1977785D1*
X6635143D1*
X6634143Y1978785D1*
X6628143Y1981785D1*
X6625143Y1983785D1*
X6613143Y1989785D1*
X6610143Y1991785D1*
X6600143Y1996785D1*
X6599143D1*
X6589143Y1991785D1*
X6586143Y1989785D1*
X6574143Y1983785D1*
X6571143Y1981785D1*
X6565143Y1978785D1*
X6564143Y1977785D1*
X6559143D1*
X6558143Y1978785D1*
X6557143D1*
X6554143Y1981785D1*
X6552143Y1985785D1*
Y1987785D1*
X6554143Y1991785D1*
X6558143Y1995785D1*
X6559143D1*
X6565143Y1998785D1*
X6568143Y2000785D1*
X6580143Y2006785D1*
Y2007785D1*
X6568143Y2013785D1*
X6565143Y2015785D1*
X6559143Y2018785D1*
X6558143D1*
X6554143Y2022785D1*
X6552143Y2026785D1*
Y2028785D1*
X6554143Y2032785D1*
X6557143Y2035785D1*
X6558143D1*
X6559143Y2036785D1*
X6564143D1*
X6565143Y2035785D1*
X6571143Y2032785D1*
X6574143Y2030785D1*
X6586143Y2024785D1*
X6589143Y2022785D1*
X6599143Y2017785D1*
X6600143D1*
X6610143Y2022785D1*
X6613143Y2024785D1*
X6625143Y2030785D1*
X6628143Y2032785D1*
X6634143Y2035785D1*
X6635143Y2036785D1*
X6640143D1*
X6641143Y2035785D1*
X6642143D1*
X6645143Y2032785D1*
X6646143Y2030785D1*
Y2051785D1*
G37*
G36*
X6629143Y1951785D2*
X6606143D1*
Y1935785D1*
X6608143Y1931785D1*
X6609143Y1930785D1*
X6611143Y1929785D1*
X6614143Y1928785D1*
X6621143D1*
X6624143Y1929785D1*
X6626143Y1930785D1*
X6627143Y1931785D1*
X6629143Y1935785D1*
Y1951785D1*
G37*
G36*
X7941369Y1765643D2*
X7939369Y1766643D1*
X7936369Y1769643D1*
Y1770643D1*
X7935369Y1771643D1*
Y1852643D1*
X7936369Y1853643D1*
Y1854643D1*
X7939369Y1857643D1*
X7941369Y1858643D1*
X7952702Y1859643D1*
X7964036D1*
X7975369Y1858643D1*
X7983369Y1854643D1*
X7988369Y1849643D1*
Y1848643D1*
X7991369Y1844643D1*
X7992369Y1841643D1*
X7993369Y1839643D1*
X7994369Y1838643D1*
Y1821643D1*
X7993369Y1820643D1*
X7992369Y1818643D1*
X7991369Y1815643D1*
X7988369Y1811643D1*
Y1810643D1*
X7983369Y1805643D1*
X7975369Y1801643D1*
X7953369Y1800643D1*
X7952369Y1770643D1*
Y1769643D1*
X7949369Y1766643D1*
X7947369Y1765643D1*
X8009369D1*
X8007369Y1766643D1*
X8004369Y1769643D1*
Y1770643D1*
X8003369Y1771643D1*
Y1852643D1*
X8004369Y1853643D1*
Y1854643D1*
X8007369Y1857643D1*
X8009369Y1858643D1*
X8020369Y1859643D1*
X8031369D1*
X8042369Y1858643D1*
X8046369Y1856643D1*
X8049369Y1855643D1*
X8051369Y1854643D1*
X8056369Y1849643D1*
Y1848643D1*
X8059369Y1844643D1*
X8060369Y1841643D1*
X8061369Y1839643D1*
X8062369Y1838643D1*
Y1825643D1*
X8061369Y1824643D1*
X8060369Y1821643D1*
X8059369Y1819643D1*
Y1817643D1*
X8051369Y1809643D1*
X8049369Y1808643D1*
X8046369Y1807643D1*
Y1806643D1*
X8055369Y1788643D1*
X8057369Y1785643D1*
X8061369Y1777643D1*
X8062369Y1776643D1*
Y1771643D1*
X8061369Y1770643D1*
Y1769643D1*
X8058369Y1766643D1*
X8056369Y1765643D1*
X8094369D1*
X8089369Y1768643D1*
X8086369Y1770643D1*
X8078369Y1778643D1*
Y1779643D1*
X8076369Y1782643D1*
X8075369Y1785643D1*
X8074369Y1787643D1*
X8073369Y1791643D1*
X8072369Y1794643D1*
X8071369Y1798643D1*
X8070369Y1799643D1*
Y1823643D1*
X8071369Y1824643D1*
X8072369Y1828643D1*
X8073369Y1831643D1*
X8074369Y1835643D1*
X8075369Y1838643D1*
X8078369Y1844643D1*
X8084369Y1851643D1*
X8088369Y1855643D1*
X8090369Y1856643D1*
X8091369Y1857643D1*
X8093369Y1858643D1*
X8099369Y1859643D1*
X8105369D1*
X8111369Y1858643D1*
X8113369Y1857643D1*
X8114369Y1856643D1*
X8117369Y1854643D1*
X8119369Y1853643D1*
X8126369Y1846643D1*
Y1845643D1*
X8129369Y1840643D1*
X8130369Y1838643D1*
X8131369Y1835643D1*
X8132369Y1834643D1*
Y1829643D1*
X8131369Y1828643D1*
Y1827643D1*
X8128369Y1824643D1*
X8124369Y1822643D1*
X8122369D1*
X8118369Y1824643D1*
X8114369Y1828643D1*
Y1830643D1*
X8113369Y1832643D1*
X8112369Y1835643D1*
X8106369Y1841643D1*
X8099369D1*
X8093369Y1835643D1*
X8092369Y1832643D1*
X8091369Y1830643D1*
X8090369Y1827643D1*
X8089369Y1823643D1*
X8088369Y1820643D1*
Y1802643D1*
X8089369Y1799643D1*
X8090369Y1795643D1*
X8091369Y1793643D1*
X8092369Y1790643D1*
X8093369Y1788643D1*
X8097369Y1783643D1*
X8099369Y1782643D1*
X8105369D1*
X8107369Y1783643D1*
X8112369Y1788643D1*
X8113369Y1790643D1*
X8114369Y1793643D1*
X8105369Y1794643D1*
X8103369Y1795643D1*
X8100369Y1798643D1*
Y1799643D1*
X8099369Y1800643D1*
Y1804643D1*
X8100369Y1805643D1*
Y1806643D1*
X8103369Y1809643D1*
X8105369Y1810643D1*
X8112369Y1811643D1*
X8119369D1*
X8126369Y1810643D1*
X8128369Y1809643D1*
X8131369Y1806643D1*
Y1805643D1*
X8132369Y1804643D1*
Y1788643D1*
X8131369Y1787643D1*
X8130369Y1785643D1*
X8129369Y1782643D1*
X8126369Y1778643D1*
Y1777643D1*
X8118369Y1769643D1*
X8116369Y1768643D1*
X8113369Y1766643D1*
X8112369Y1765643D1*
X8214369D1*
Y1905643D1*
X7544369D1*
Y1858643D1*
X7633369D1*
X7648036Y1859643D1*
X7662702D1*
X7677369Y1858643D1*
X7698369D1*
X7700369Y1859643D1*
X7702369D1*
X7706369Y1857643D1*
X7710369Y1853643D1*
Y1852643D1*
X7715369Y1842643D1*
X7717369Y1839643D1*
X7721369Y1831643D1*
X7725369Y1839643D1*
X7727369Y1842643D1*
X7732369Y1852643D1*
Y1853643D1*
X7736369Y1857643D1*
X7740369Y1859643D1*
X7742369D1*
X7744369Y1858643D1*
X7765369D1*
X7776369Y1859643D1*
X7787369D1*
X7798369Y1858643D1*
X7800369Y1857643D1*
X7847369D1*
X7849369Y1858643D1*
X7851369D1*
X7855369Y1856643D1*
X7858369Y1853643D1*
Y1852643D1*
X7859369Y1851643D1*
Y1771643D1*
X7858369Y1770643D1*
Y1769643D1*
X7855369Y1766643D1*
X7851369Y1764643D1*
X7849369D1*
X7845369Y1766643D1*
X7842369Y1769643D1*
Y1770643D1*
X7841369Y1828643D1*
X7837369Y1826643D1*
X7835369D1*
X7831369Y1828643D1*
X7828369Y1831643D1*
Y1832643D1*
X7827369Y1833643D1*
Y1837643D1*
X7828369Y1838643D1*
X7828869Y1839643D1*
X7829414Y1840554D1*
X7830378Y1841621D1*
X7831369Y1842643D1*
X7843369Y1854643D1*
X7847369Y1857643D1*
X7800369D1*
X7802369Y1856643D1*
X7805369Y1855643D1*
X7807369Y1854643D1*
X7812369Y1849643D1*
Y1848643D1*
X7815369Y1844643D1*
X7816369Y1841643D1*
X7817369Y1839643D1*
X7818369Y1838643D1*
Y1821643D1*
X7817369Y1820643D1*
X7816369Y1818643D1*
X7815369Y1815643D1*
X7812369Y1811643D1*
Y1810643D1*
X7807369Y1805643D1*
X7805369Y1804643D1*
X7802369Y1803643D1*
X7798369Y1801643D1*
X7777369Y1800643D1*
X7776369Y1770643D1*
Y1769643D1*
X7773369Y1766643D1*
X7769369Y1764643D1*
X7767369D1*
X7763369Y1766643D1*
X7760369Y1769643D1*
Y1770643D1*
X7759369Y1771643D1*
Y1852643D1*
X7760369Y1853643D1*
Y1854643D1*
X7763369Y1857643D1*
X7765369Y1858643D1*
X7744369D1*
X7746369Y1857643D1*
X7749369Y1854643D1*
Y1853643D1*
X7750369Y1852643D1*
Y1847643D1*
X7749369Y1846643D1*
X7744369Y1836643D1*
X7742369Y1833643D1*
X7732369Y1813643D1*
Y1810643D1*
X7742369Y1790643D1*
X7744369Y1787643D1*
X7749369Y1777643D1*
X7750369Y1776643D1*
Y1771643D1*
X7749369Y1770643D1*
Y1769643D1*
X7746369Y1766643D1*
X7742369Y1764643D1*
X7740369D1*
X7736369Y1766643D1*
X7732369Y1770643D1*
Y1771643D1*
X7727369Y1781643D1*
X7725369Y1784643D1*
X7721369Y1792643D1*
X7717369Y1784643D1*
X7715369Y1781643D1*
X7710369Y1771643D1*
Y1770643D1*
X7706369Y1766643D1*
X7702369Y1764643D1*
X7700369D1*
X7696369Y1766643D1*
X7693369Y1769643D1*
Y1770643D1*
X7692369Y1771643D1*
Y1776643D1*
X7693369Y1777643D1*
X7698369Y1787643D1*
X7700369Y1790643D1*
X7710369Y1810643D1*
Y1813643D1*
X7700369Y1833643D1*
X7698369Y1836643D1*
X7693369Y1846643D1*
X7692369Y1847643D1*
Y1852643D1*
X7693369Y1853643D1*
Y1854643D1*
X7696369Y1857643D1*
X7698369Y1858643D1*
X7677369D1*
X7679369Y1857643D1*
X7682369Y1854643D1*
Y1853643D1*
X7683369Y1852643D1*
Y1848643D1*
X7682369Y1847643D1*
Y1846643D1*
X7679369Y1843643D1*
X7677369Y1842643D1*
X7645369Y1841643D1*
Y1822643D1*
X7662369Y1821643D1*
X7664369Y1820643D1*
X7667369Y1817643D1*
Y1816643D1*
X7668369Y1815643D1*
Y1811643D1*
X7667369Y1810643D1*
Y1809643D1*
X7664369Y1806643D1*
X7662369Y1805643D1*
X7645369Y1804643D1*
Y1782643D1*
X7677369Y1781643D1*
X7679369Y1780643D1*
X7682369Y1777643D1*
Y1776643D1*
X7683369Y1775643D1*
Y1771643D1*
X7682369Y1770643D1*
Y1769643D1*
X7679369Y1766643D1*
X7677369Y1765643D1*
X7662702Y1764643D1*
X7648036D1*
X7633369Y1765643D1*
X7631369Y1766643D1*
X7628369Y1769643D1*
Y1770643D1*
X7627369Y1771643D1*
Y1852643D1*
X7628369Y1853643D1*
Y1854643D1*
X7631369Y1857643D1*
X7633369Y1858643D1*
X7544369D1*
Y1720643D1*
X8214369D1*
Y1765643D1*
X8112369D1*
X8106369Y1764643D1*
X8100369D1*
X8094369Y1765643D1*
X8056369D1*
X8054369Y1764643D1*
X8052369D1*
X8048369Y1766643D1*
X8044369Y1770643D1*
Y1771643D1*
X8040369Y1779643D1*
X8038369Y1782643D1*
X8030369Y1798643D1*
X8028369Y1801643D1*
X8027369Y1803643D1*
X8026369Y1804643D1*
X8021369D1*
X8020369Y1770643D1*
Y1769643D1*
X8017369Y1766643D1*
X8013369Y1764643D1*
X8011369D1*
X8009369Y1765643D1*
X7947369D1*
X7945369Y1764643D1*
X7943369D1*
X7941369Y1765643D1*
X7880369D1*
X7878369Y1764643D1*
X7876369D1*
X7872369Y1766643D1*
X7869369Y1769643D1*
Y1770643D1*
X7868369Y1771643D1*
Y1776643D1*
X7869369Y1777643D1*
X7871369Y1781643D1*
X7873369Y1784643D1*
X7878369Y1794643D1*
X7880369Y1797643D1*
X7885369Y1807643D1*
X7887369Y1810643D1*
X7891369Y1818643D1*
X7893369Y1821643D1*
X7898369Y1831643D1*
X7900369Y1834643D1*
X7905369Y1844643D1*
X7907369Y1847643D1*
X7909369Y1851643D1*
Y1852643D1*
X7913369Y1856643D1*
X7917369Y1858643D1*
X7919369D1*
X7923369Y1856643D1*
X7926369Y1853643D1*
Y1852643D1*
X7927369Y1851643D1*
Y1846643D1*
X7926369Y1845643D1*
X7924369Y1841643D1*
X7922369Y1838643D1*
X7917369Y1828643D1*
X7915369Y1825643D1*
X7910369Y1815643D1*
X7908369Y1812643D1*
X7904369Y1804643D1*
X7902369Y1801643D1*
X7897369Y1791643D1*
X7895369Y1788643D1*
X7890369Y1778643D1*
X7888369Y1775643D1*
X7886369Y1771643D1*
Y1770643D1*
X7882369Y1766643D1*
X7880369Y1765643D1*
X7941369D1*
G37*
G36*
X7777369Y1841643D2*
Y1818643D1*
X7792369D1*
X7797369Y1820643D1*
X7798369Y1821643D1*
X7799369Y1823643D1*
X7800369Y1826643D1*
Y1833643D1*
X7799369Y1836643D1*
X7798369Y1838643D1*
X7797369Y1839643D1*
X7792369Y1841643D1*
X7777369D1*
G37*
G36*
X7953369D2*
Y1818643D1*
X7969369D1*
X7973369Y1820643D1*
X7974369Y1821643D1*
X7975369Y1823643D1*
X7976369Y1826643D1*
Y1833643D1*
X7975369Y1836643D1*
X7974369Y1838643D1*
X7973369Y1839643D1*
X7969369Y1841643D1*
X7953369D1*
G37*
G36*
X8021369D2*
Y1822643D1*
X8036369D1*
X8041369Y1824643D1*
X8042369Y1825643D1*
X8044369Y1829643D1*
Y1833643D1*
X8043369Y1836643D1*
X8042369Y1838643D1*
X8041369Y1839643D1*
X8036369Y1841643D1*
X8021369D1*
G37*
G36*
X3540715Y1858643D2*
X3542715Y1857643D1*
X3545715Y1854643D1*
Y1853643D1*
X3546715Y1852643D1*
Y1848643D1*
X3545715Y1847643D1*
Y1846643D1*
X3542715Y1843643D1*
X3540715Y1842643D1*
X3508715Y1841643D1*
Y1822643D1*
X3526715Y1821643D1*
X3528715Y1820643D1*
X3531715Y1817643D1*
Y1816643D1*
X3532715Y1815643D1*
Y1811643D1*
X3531715Y1810643D1*
Y1809643D1*
X3528715Y1806643D1*
X3526715Y1805643D1*
X3508715Y1804643D1*
Y1782643D1*
X3540715Y1781643D1*
X3542715Y1780643D1*
X3545715Y1777643D1*
Y1776643D1*
X3546715Y1775643D1*
Y1771643D1*
X3545715Y1770643D1*
Y1769643D1*
X3542715Y1766643D1*
X3540715Y1765643D1*
X3526048Y1764643D1*
X3511382D1*
X3496715Y1765643D1*
X3494715Y1766643D1*
X3491715Y1769643D1*
Y1770643D1*
X3490715Y1771643D1*
Y1852643D1*
X3491715Y1853643D1*
Y1854643D1*
X3494715Y1857643D1*
X3496715Y1858643D1*
X3407715D1*
Y1720643D1*
X3831715D1*
Y1765643D1*
X3743715D1*
X3728048Y1764643D1*
X3712382D1*
X3696715Y1765643D1*
X3694715Y1766643D1*
X3691715Y1769643D1*
Y1770643D1*
X3690715Y1771643D1*
Y1775643D1*
X3691715Y1776643D1*
X3692715Y1778643D1*
X3697715Y1784643D1*
X3717715Y1809643D1*
X3720715Y1813643D1*
X3722715Y1817643D1*
X3724715Y1820643D1*
X3726715Y1824643D1*
X3727715Y1827643D1*
X3728715Y1829643D1*
Y1833643D1*
X3727715Y1836643D1*
X3726715Y1838643D1*
X3725715Y1839643D1*
X3723715Y1840643D1*
X3715715D1*
X3713715Y1838643D1*
X3712715Y1836643D1*
X3711715Y1833643D1*
X3710715Y1828643D1*
Y1827643D1*
X3707715Y1824643D1*
X3703715Y1822643D1*
X3701715D1*
X3697715Y1824643D1*
X3694715Y1827643D1*
Y1828643D1*
X3693715Y1829643D1*
Y1838643D1*
X3694715Y1839643D1*
X3695715Y1841643D1*
X3696715Y1844643D1*
X3698715Y1847643D1*
X3701715Y1851643D1*
X3704715Y1854643D1*
X3706715Y1855643D1*
X3707715Y1856643D1*
X3709715Y1857643D1*
X3716382Y1858643D1*
X3723048D1*
X3729715Y1857643D1*
X3735715Y1854643D1*
X3740715Y1849643D1*
Y1848643D1*
X3743715Y1844643D1*
X3744715Y1841643D1*
X3745715Y1839643D1*
X3746715Y1838643D1*
Y1825643D1*
X3745715Y1824643D1*
X3744715Y1821643D1*
X3743715Y1819643D1*
X3742715Y1816643D1*
X3741715Y1814643D1*
X3739715Y1811643D1*
X3737715Y1807643D1*
X3734715Y1803643D1*
X3718715Y1783643D1*
Y1782643D1*
X3743715Y1781643D1*
X3745715Y1780643D1*
X3748715Y1777643D1*
Y1776643D1*
X3749715Y1775643D1*
Y1771643D1*
X3748715Y1770643D1*
Y1769643D1*
X3745715Y1766643D1*
X3743715Y1765643D1*
X3831715D1*
Y1858643D1*
X3662715D1*
X3670715Y1854643D1*
X3675715Y1849643D1*
Y1848643D1*
X3678715Y1844643D1*
X3679715Y1841643D1*
X3680715Y1839643D1*
X3681715Y1838643D1*
Y1821643D1*
X3680715Y1820643D1*
X3679715Y1818643D1*
X3678715Y1815643D1*
X3675715Y1811643D1*
Y1810643D1*
X3670715Y1805643D1*
X3662715Y1801643D1*
X3640715Y1800643D1*
X3639715Y1770643D1*
Y1769643D1*
X3636715Y1766643D1*
X3632715Y1764643D1*
X3630715D1*
X3626715Y1766643D1*
X3623715Y1769643D1*
Y1770643D1*
X3622715Y1771643D1*
Y1852643D1*
X3623715Y1853643D1*
Y1854643D1*
X3626715Y1857643D1*
X3628715Y1858643D1*
X3640048Y1859643D1*
X3651382D1*
X3662715Y1858643D1*
X3831715D1*
Y1905643D1*
X3407715D1*
Y1858643D1*
X3496715D1*
X3511382Y1859643D1*
X3526048D1*
X3540715Y1858643D1*
X3561715D1*
X3563715Y1859643D1*
X3565715D1*
X3569715Y1857643D1*
X3573715Y1853643D1*
Y1852643D1*
X3576715Y1846643D1*
X3578715Y1843643D1*
X3584715Y1831643D1*
X3585715D1*
X3591715Y1843643D1*
X3593715Y1846643D1*
X3596715Y1852643D1*
Y1853643D1*
X3600715Y1857643D1*
X3604715Y1859643D1*
X3606715D1*
X3610715Y1857643D1*
X3613715Y1854643D1*
Y1853643D1*
X3614715Y1852643D1*
Y1847643D1*
X3613715Y1846643D1*
X3610715Y1840643D1*
X3608715Y1837643D1*
X3602715Y1825643D1*
X3600715Y1822643D1*
X3595715Y1812643D1*
Y1811643D1*
X3600715Y1801643D1*
X3602715Y1798643D1*
X3608715Y1786643D1*
X3610715Y1783643D1*
X3613715Y1777643D1*
X3614715Y1776643D1*
Y1771643D1*
X3613715Y1770643D1*
Y1769643D1*
X3610715Y1766643D1*
X3606715Y1764643D1*
X3604715D1*
X3600715Y1766643D1*
X3596715Y1770643D1*
Y1771643D1*
X3593715Y1777643D1*
X3591715Y1780643D1*
X3585715Y1792643D1*
X3584715D1*
X3578715Y1780643D1*
X3576715Y1777643D1*
X3573715Y1771643D1*
Y1770643D1*
X3569715Y1766643D1*
X3565715Y1764643D1*
X3563715D1*
X3559715Y1766643D1*
X3556715Y1769643D1*
Y1770643D1*
X3555715Y1771643D1*
Y1776643D1*
X3556715Y1777643D1*
X3559715Y1783643D1*
X3561715Y1786643D1*
X3567715Y1798643D1*
X3569715Y1801643D1*
X3574715Y1811643D1*
Y1812643D1*
X3569715Y1822643D1*
X3567715Y1825643D1*
X3561715Y1837643D1*
X3559715Y1840643D1*
X3556715Y1846643D1*
X3555715Y1847643D1*
Y1852643D1*
X3556715Y1853643D1*
Y1854643D1*
X3559715Y1857643D1*
X3561715Y1858643D1*
X3540715D1*
G37*
G36*
X3640715Y1841643D2*
Y1818643D1*
X3656715D1*
X3660715Y1820643D1*
X3661715Y1821643D1*
X3662715Y1823643D1*
X3663715Y1826643D1*
Y1833643D1*
X3662715Y1836643D1*
X3661715Y1838643D1*
X3660715Y1839643D1*
X3656715Y1841643D1*
X3640715D1*
G37*
G36*
X9146857Y1736141D2*
X9144857Y1732141D1*
X9133857Y1721141D1*
X9132857D1*
X9127857Y1719141D1*
X9124857Y1718141D1*
X9120857Y1717141D1*
X9119857Y1716141D1*
X9106857D1*
X9105857Y1717141D1*
X9101857Y1718141D1*
X9098857Y1719141D1*
X9093857Y1721141D1*
X9086857Y1727141D1*
X9081857Y1732141D1*
X9079857Y1736141D1*
X9078857Y1741141D1*
Y1746141D1*
X9079857Y1751141D1*
X9080857Y1753141D1*
X9081857Y1754141D1*
X9083857Y1757141D1*
X9084857Y1759141D1*
X9091857Y1766141D1*
X9092857D1*
X9098857Y1769141D1*
X9101857Y1770141D1*
X9105857Y1771141D1*
X9106857Y1772141D1*
X9119857D1*
X9120857Y1771141D1*
X9124857Y1770141D1*
X9127857Y1769141D1*
X9133857Y1766141D1*
X9134857D1*
X9142857Y1758141D1*
X9143857Y1756141D1*
X9145857Y1753141D1*
X9146857Y1752141D1*
Y1800141D1*
X9145857Y1798141D1*
X9144857Y1795141D1*
X9142857Y1791141D1*
X9133857Y1782141D1*
X9132857D1*
X9130857Y1781141D1*
X9129857Y1780141D1*
X9125857D1*
X9124857Y1781141D1*
X9123857D1*
X9120857Y1784141D1*
X9118857Y1788141D1*
Y1790141D1*
X9120857Y1794141D1*
X9127857Y1801141D1*
X9128857Y1803141D1*
X9129857Y1806141D1*
Y1814141D1*
X9127857Y1818141D1*
X9124857Y1821141D1*
X9118857D1*
X9115857Y1820141D1*
X9113857Y1819141D1*
X9111857Y1817141D1*
X9109857Y1813141D1*
X9105857Y1804141D1*
X9104857Y1801141D1*
X9099857Y1791141D1*
X9093857Y1785141D1*
X9092857D1*
X9089857Y1783141D1*
X9086857Y1782141D1*
X9084857Y1781141D1*
X9083857Y1780141D1*
X9070857D1*
X9069857Y1781141D1*
X9067857Y1782141D1*
X9060857Y1788141D1*
X9057857Y1791141D1*
X9055857Y1795141D1*
X9054857Y1798141D1*
X9053857Y1800141D1*
Y1590141D1*
X9058857Y1594141D1*
X9059857Y1595141D1*
X9063857D1*
X9064857Y1594141D1*
X9067857Y1592141D1*
X9068857D1*
X9072857Y1588141D1*
X9074857Y1584141D1*
Y1582141D1*
X9072857Y1578141D1*
X9068857Y1574141D1*
X9067857D1*
X9065857Y1573141D1*
X9064857Y1572141D1*
X9058857D1*
X9057857Y1573141D1*
X9056857D1*
X9051857Y1578141D1*
X9050857Y1580141D1*
Y1415141D1*
X9053857D1*
Y1504141D1*
X9052857Y1506141D1*
Y1508141D1*
X9054857Y1512141D1*
X9058857Y1516141D1*
X9060857D1*
X9063857Y1517141D1*
X9067857Y1518141D1*
X9079857Y1522141D1*
X9083857Y1523141D1*
X9092857Y1526141D1*
X9096857Y1527141D1*
X9105857Y1530141D1*
X9107857Y1531141D1*
X9101857Y1533141D1*
X9097857Y1534141D1*
X9094857Y1535141D1*
X9090857Y1536141D1*
X9084857Y1538141D1*
X9080857Y1539141D1*
X9074857Y1541141D1*
X9070857Y1542141D1*
X9064857Y1544141D1*
X9060857Y1545141D1*
X9058857D1*
X9054857Y1549141D1*
X9052857Y1553141D1*
Y1555141D1*
X9054857Y1559141D1*
X9057857Y1562141D1*
X9058857D1*
X9079857Y1563141D1*
Y1580141D1*
X9078857Y1582141D1*
Y1584141D1*
X9079857Y1586141D1*
Y1624141D1*
X9078857Y1629141D1*
Y1634141D1*
X9079857Y1639141D1*
X9080857Y1641141D1*
X9081857Y1642141D1*
X9083857Y1645141D1*
X9084857Y1647141D1*
X9091857Y1654141D1*
X9092857D1*
X9095857Y1656141D1*
X9096857Y1657141D1*
X9100857D1*
X9101857Y1656141D1*
X9102857D1*
X9105857Y1653141D1*
X9107857Y1649141D1*
Y1647141D1*
X9104857Y1641141D1*
X9103857D1*
X9096857Y1634141D1*
Y1630141D1*
X9102857Y1624141D1*
X9106857Y1623141D1*
X9109857Y1622141D1*
X9116857D1*
X9119857Y1623141D1*
X9123857Y1624141D1*
X9128857Y1628141D1*
X9129857Y1630141D1*
Y1633141D1*
X9128857Y1635141D1*
X9122857Y1641141D1*
X9121857D1*
X9118857Y1647141D1*
Y1649141D1*
X9120857Y1653141D1*
X9123857Y1656141D1*
X9124857D1*
X9125857Y1657141D1*
X9129857D1*
X9130857Y1656141D1*
X9133857Y1654141D1*
X9134857D1*
X9142857Y1646141D1*
X9143857Y1644141D1*
X9145857Y1641141D1*
X9146857Y1640141D1*
X9147857Y1635141D1*
Y1630141D1*
X9146857Y1625141D1*
X9144857Y1621141D1*
X9143857Y1620141D1*
X9141857Y1617141D1*
X9133857Y1609141D1*
X9132857D1*
X9127857Y1607141D1*
X9124857Y1606141D1*
X9120857Y1605141D1*
X9119857Y1604141D1*
X9106857D1*
X9105857Y1605141D1*
X9101857Y1606141D1*
X9098857Y1607141D1*
X9093857Y1609141D1*
X9086857Y1615141D1*
X9082857Y1619141D1*
X9081857Y1621141D1*
X9079857Y1624141D1*
Y1586141D1*
X9080857Y1588141D1*
X9083857Y1591141D1*
X9084857D1*
X9085857Y1592141D1*
X9140857D1*
X9141857Y1591141D1*
X9142857D1*
X9145857Y1588141D1*
X9147857Y1584141D1*
Y1582141D1*
X9145857Y1578141D1*
X9142857Y1575141D1*
X9141857D1*
X9140857Y1574141D1*
X9085857D1*
X9084857Y1575141D1*
X9083857D1*
X9080857Y1578141D1*
X9079857Y1580141D1*
Y1563141D1*
X9141857Y1562141D1*
X9142857D1*
X9145857Y1559141D1*
X9147857Y1555141D1*
Y1553141D1*
X9145857Y1549141D1*
X9142857Y1546141D1*
X9141857D1*
X9122857Y1545141D1*
X9125857Y1544141D1*
X9129857Y1543141D1*
X9135857Y1541141D1*
X9139857Y1540141D1*
X9141857D1*
X9145857Y1536141D1*
X9147857Y1532141D1*
Y1530141D1*
X9145857Y1526141D1*
X9141857Y1522141D1*
X9139857D1*
X9136857Y1521141D1*
X9132857Y1520141D1*
X9120857Y1516141D1*
X9141857Y1515141D1*
X9142857D1*
X9145857Y1512141D1*
X9147857Y1508141D1*
Y1506141D1*
X9145857Y1502141D1*
X9142857Y1499141D1*
X9141857D1*
X9140857Y1498141D1*
X9059857D1*
X9058857Y1499141D1*
X9057857D1*
X9054857Y1502141D1*
X9053857Y1504141D1*
Y1415141D1*
X9191857D1*
Y1989141D1*
X9146857D1*
Y1881141D1*
X9147857Y1872141D1*
Y1863141D1*
X9146857Y1854141D1*
X9145857Y1852141D1*
X9142857Y1849141D1*
X9141857D1*
X9140857Y1848141D1*
X9059857D1*
X9058857Y1849141D1*
X9057857D1*
X9054857Y1852141D1*
X9053857Y1854141D1*
X9052857Y1863141D1*
Y1872141D1*
X9053857Y1881141D1*
X9055857Y1885141D1*
X9056857Y1888141D1*
X9057857Y1890141D1*
X9065857Y1898141D1*
X9066857D1*
X9071857Y1901141D1*
X9073857Y1902141D1*
X9076857Y1903141D1*
X9080857Y1904141D1*
X9083857Y1905141D1*
X9087857Y1906141D1*
X9088857Y1907141D1*
X9112857D1*
X9113857Y1906141D1*
X9117857Y1905141D1*
X9120857Y1904141D1*
X9124857Y1903141D1*
X9126857Y1902141D1*
X9129857Y1901141D1*
X9133857Y1898141D1*
X9134857D1*
X9142857Y1890141D1*
X9143857Y1888141D1*
X9144857Y1885141D1*
X9146857Y1881141D1*
Y1989141D1*
X9006857D1*
Y1415141D1*
X9050857D1*
Y1580141D1*
X9049857Y1582141D1*
Y1584141D1*
X9051857Y1588141D1*
X9053857Y1590141D1*
Y1800141D1*
X9052857Y1806808D1*
Y1813474D1*
X9053857Y1820141D1*
X9057857Y1828141D1*
X9065857Y1836141D1*
X9066857D1*
X9069857Y1838141D1*
X9070857Y1839141D1*
X9074857D1*
X9075857Y1838141D1*
X9076857D1*
X9079857Y1835141D1*
X9081857Y1831141D1*
Y1829141D1*
X9078857Y1823141D1*
X9077857D1*
X9072857Y1818141D1*
X9070857Y1814141D1*
Y1806141D1*
X9071857Y1803141D1*
X9072857Y1801141D1*
X9075857Y1798141D1*
X9078857D1*
X9081857Y1799141D1*
X9083857Y1800141D1*
X9084857Y1801141D1*
X9088857Y1809141D1*
X9092857Y1818141D1*
X9093857Y1821141D1*
X9095857Y1825141D1*
X9096857Y1826141D1*
X9097857Y1828141D1*
X9102857Y1833141D1*
X9103857D1*
X9107857Y1836141D1*
X9110857Y1837141D1*
X9112857Y1838141D1*
X9113857Y1839141D1*
X9129857D1*
X9130857Y1838141D1*
X9133857Y1836141D1*
X9134857D1*
X9142857Y1828141D1*
X9146857Y1820141D1*
X9147857Y1813474D1*
Y1806808D1*
X9146857Y1800141D1*
Y1752141D1*
X9147857Y1746808D1*
Y1741474D1*
X9146857Y1736141D1*
Y1678141D1*
X9147857Y1676141D1*
Y1674141D1*
X9145857Y1670141D1*
X9142857Y1667141D1*
X9141857D1*
X9140857Y1666141D1*
X9085857D1*
X9084857Y1667141D1*
X9083857D1*
X9080857Y1670141D1*
X9078857Y1674141D1*
Y1676141D1*
X9080857Y1680141D1*
X9081857Y1681141D1*
Y1682141D1*
X9079857Y1686141D1*
X9078857Y1691141D1*
Y1696141D1*
X9079857Y1701141D1*
X9080857Y1703141D1*
X9083857Y1706141D1*
X9084857D1*
X9085857Y1707141D1*
X9089857D1*
X9090857Y1706141D1*
X9091857D1*
X9094857Y1703141D1*
X9095857Y1701141D1*
X9096857Y1692141D1*
X9097857Y1690141D1*
X9102857Y1686141D1*
X9106857Y1685141D1*
X9109857Y1684141D1*
X9141857Y1683141D1*
X9142857D1*
X9145857Y1680141D1*
X9146857Y1678141D1*
Y1736141D1*
G37*
G36*
X9070857Y1866141D2*
X9129857D1*
Y1875141D1*
X9127857Y1880141D1*
X9123857Y1884141D1*
X9121857Y1885141D1*
X9118857Y1886141D1*
X9116857Y1887141D1*
X9112857Y1888141D1*
X9109857Y1889141D1*
X9091857D1*
X9088857Y1888141D1*
X9084857Y1887141D1*
X9081857Y1886141D1*
X9079857Y1885141D1*
X9076857Y1884141D1*
X9072857Y1880141D1*
X9070857Y1875141D1*
Y1866141D1*
G37*
G36*
X9096857Y1742141D2*
X9097857Y1740141D1*
X9102857Y1736141D1*
X9106857Y1735141D1*
X9109857Y1734141D1*
X9116857D1*
X9119857Y1735141D1*
X9123857Y1736141D1*
X9128857Y1740141D1*
X9129857Y1742141D1*
Y1745141D1*
X9128857Y1747141D1*
X9123857Y1752141D1*
X9119857Y1753141D1*
X9116857Y1754141D1*
X9109857D1*
X9106857Y1753141D1*
X9102857Y1752141D1*
X9096857Y1746141D1*
Y1742141D1*
G37*
G36*
X1993269Y4349869D2*
X1991936Y4347202D1*
X1990603Y4345869D1*
X1989269Y4343202D1*
X1977269Y4331202D1*
X1975936D1*
X1969269Y4327202D1*
X1966603Y4325869D1*
X1962603Y4324536D1*
X1957269Y4323202D1*
X1953269Y4321869D1*
X1947936Y4320536D1*
X1946603Y4319202D1*
X1914603D1*
X1913269Y4320536D1*
X1907936Y4321869D1*
X1903936Y4323202D1*
X1898603Y4324536D1*
X1895936Y4325869D1*
X1891936Y4327202D1*
X1886603Y4331202D1*
X1885269D1*
X1873269Y4343202D1*
X1871936Y4345869D1*
X1870603Y4347202D1*
X1869269Y4349869D1*
X1867936Y4357869D1*
Y4365869D1*
X1869269Y4373869D1*
X1871936Y4379202D1*
X1873269Y4380536D1*
X1875936Y4384536D1*
X1886603Y4395202D1*
X1887936D1*
X1891936Y4397869D1*
X1895936Y4399202D1*
X1898603Y4400536D1*
X1903936Y4401869D1*
X1907936Y4403202D1*
X1913269Y4404536D1*
X1914603Y4405869D1*
X1946603D1*
X1947936Y4404536D1*
X1953269Y4403202D1*
X1957269Y4401869D1*
X1962603Y4400536D1*
X1966603Y4399202D1*
X1974603Y4395202D1*
X1983936Y4387202D1*
X1989269Y4381869D1*
X1990603Y4379202D1*
X1993269Y4375202D1*
Y4443202D1*
X1990603Y4437869D1*
X1989269Y4433869D1*
X1987936Y4431202D1*
X1981269Y4424536D1*
X1979936D1*
X1974603Y4420536D1*
X1970603Y4419202D1*
X1967936Y4417869D1*
X1966603Y4416536D1*
X1943936D1*
X1942603Y4417869D1*
X1939936Y4419202D1*
X1935936Y4420536D1*
X1930603Y4424536D1*
X1929269D1*
X1922603Y4431202D1*
X1921269Y4433869D1*
X1919936Y4437869D1*
X1917269Y4443202D1*
X1915936Y4471202D1*
X1875936Y4472536D1*
X1874603D1*
X1870603Y4476536D1*
X1867936Y4481869D1*
Y4484536D1*
X1870603Y4489869D1*
X1874603Y4493869D1*
X1875936D1*
X1877269Y4495202D1*
X1985269D1*
X1986603Y4493869D1*
X1987936D1*
X1991936Y4489869D1*
X1993269Y4487202D1*
Y4600536D1*
X1814603D1*
Y3925869D1*
X1869269D1*
Y4037869D1*
X1867936Y4040536D1*
Y4043202D1*
X1870603Y4048536D1*
X1875936Y4053869D1*
X1877269D1*
X1919936Y4075202D1*
X1921269Y4076536D1*
Y4084536D1*
X1875936Y4085869D1*
X1874603D1*
X1870603Y4089869D1*
X1867936Y4095202D1*
Y4097869D1*
X1869269Y4100536D1*
Y4127202D1*
X1867936Y4146758D1*
Y4166314D1*
X1869269Y4185869D1*
X1870603Y4188536D1*
X1874603Y4192536D1*
X1875936D1*
X1877269Y4193869D1*
X1985269D1*
X1986603Y4192536D1*
X1987936D1*
X1991936Y4188536D1*
X1993269Y4185869D1*
X1994603Y4166314D1*
Y4146758D1*
X1993269Y4127202D1*
X1991936Y4124536D1*
X1987936Y4120536D1*
X1986603D1*
X1985269Y4119202D1*
X1979936D1*
X1978603Y4120536D1*
X1977269D1*
X1973269Y4124536D1*
X1971936Y4127202D1*
X1970603Y4169869D1*
X1945269D1*
X1943936Y4147202D1*
X1942603Y4144536D1*
X1938603Y4140536D1*
X1937269D1*
X1935936Y4139202D1*
X1930603D1*
X1929269Y4140536D1*
X1927936D1*
X1923936Y4144536D1*
X1922603Y4147202D1*
X1921269Y4169869D1*
X1891936D1*
X1890603Y4127202D1*
X1889269Y4124536D1*
X1885269Y4120536D1*
X1883936D1*
X1882603Y4119202D1*
X1877269D1*
X1875936Y4120536D1*
X1874603D1*
X1870603Y4124536D1*
X1869269Y4127202D1*
Y4100536D1*
X1870603Y4103202D1*
X1874603Y4107202D1*
X1875936D1*
X1877269Y4108536D1*
X1985269D1*
X1986603Y4107202D1*
X1987936D1*
X1991936Y4103202D1*
X1993269Y4100536D1*
X1994603Y4085869D1*
Y4071202D1*
X1993269Y4056536D1*
X1990603Y4051202D1*
X1989269Y4047202D1*
X1987936Y4044536D1*
X1981269Y4037869D1*
X1979936D1*
X1974603Y4033869D1*
X1970603Y4032536D1*
X1967936Y4031202D1*
X1966603Y4029869D1*
X1949269D1*
X1947936Y4031202D1*
X1943936Y4032536D1*
X1941269Y4033869D1*
X1938603D1*
X1927936Y4044536D1*
X1926603Y4047202D1*
X1925269Y4051202D1*
X1885269Y4031202D1*
X1883936Y4029869D1*
X1877269D1*
X1875936Y4031202D1*
X1874603D1*
X1870603Y4035202D1*
X1869269Y4037869D1*
Y3925869D1*
X2050603D1*
Y4600536D1*
X1993269D1*
Y4487202D1*
X1994603Y4472536D1*
Y4457869D1*
X1993269Y4443202D1*
Y4375202D1*
X1994603Y4366758D1*
Y4358314D1*
X1993269Y4349869D1*
Y4299202D1*
X1994603Y4296536D1*
Y4293869D1*
X1991936Y4288536D1*
X1987936Y4284536D1*
X1986603D1*
X1979936Y4283202D1*
X1971936Y4281869D1*
X1965269Y4280536D1*
X1957269Y4279202D1*
X1950603Y4277869D1*
X1942603Y4276536D1*
X1945269Y4275202D1*
X1951936Y4273869D1*
X1959936Y4272536D1*
X1986603Y4267202D1*
X1987936D1*
X1991936Y4263202D1*
X1994603Y4257869D1*
Y4255202D1*
X1991936Y4249869D1*
X1987936Y4245869D1*
X1986603D1*
X1979936Y4244536D1*
X1971936Y4243202D1*
X1965269Y4241869D1*
X1957269Y4240536D1*
X1950603Y4239202D1*
X1942603Y4237869D1*
X1945269Y4236536D1*
X1951936Y4235202D1*
X1959936Y4233869D1*
X1986603Y4228536D1*
X1987936D1*
X1991936Y4224536D1*
X1994603Y4219202D1*
Y4216536D1*
X1991936Y4211202D1*
X1987936Y4207202D1*
X1986603D1*
X1985269Y4205869D1*
X1979936D1*
X1978603Y4207202D1*
X1958603Y4211202D1*
X1950603Y4212536D1*
X1910603Y4220536D1*
X1902603Y4221869D1*
X1875936Y4227202D1*
X1874603D1*
X1870603Y4231202D1*
X1867936Y4236536D1*
Y4239202D1*
X1870603Y4244536D1*
X1874603Y4248536D1*
X1875936D1*
X1882603Y4249869D1*
X1890603Y4251202D1*
X1897269Y4252536D1*
X1905269Y4253869D1*
X1911936Y4255202D1*
X1919936Y4256536D1*
X1917269Y4257869D1*
X1910603Y4259202D1*
X1902603Y4260536D1*
X1875936Y4265869D1*
X1874603D1*
X1870603Y4269869D1*
X1867936Y4275202D1*
Y4277869D1*
X1870603Y4283202D1*
X1874603Y4287202D1*
X1875936D1*
X1882603Y4288536D1*
X1890603Y4289869D1*
X1897269Y4291202D1*
X1905269Y4292536D1*
X1911936Y4293869D1*
X1919936Y4295202D1*
X1926603Y4296536D1*
X1934603Y4297869D1*
X1941269Y4299202D1*
X1949269Y4300536D1*
X1955936Y4301869D1*
X1963936Y4303202D1*
X1970603Y4304536D1*
X1978603Y4305869D1*
X1979936Y4307202D1*
X1985269D1*
X1986603Y4305869D1*
X1987936D1*
X1991936Y4301869D1*
X1993269Y4299202D1*
Y4349869D1*
G37*
G36*
X1970603Y4471202D2*
X1939936D1*
Y4451202D1*
X1942603Y4444536D1*
X1943936Y4443202D1*
X1946603Y4441869D1*
X1950603Y4440536D1*
X1959936D1*
X1963936Y4441869D1*
X1966603Y4443202D1*
X1967936Y4444536D1*
X1970603Y4451202D1*
Y4471202D1*
G37*
G36*
Y4367202D2*
X1962603Y4375202D1*
X1958603Y4376536D1*
X1955936Y4377869D1*
X1951936Y4379202D1*
X1946603Y4380536D1*
X1942603Y4381869D1*
X1918603D1*
X1914603Y4380536D1*
X1909269Y4379202D1*
X1906603Y4377869D1*
X1902603Y4376536D1*
X1899936Y4375202D1*
X1893269Y4369869D1*
X1891936Y4367202D1*
Y4357869D1*
X1899936Y4349869D1*
X1902603Y4348536D1*
X1906603Y4347202D1*
X1909269Y4345869D1*
X1914603Y4344536D1*
X1918603Y4343202D1*
X1942603D1*
X1946603Y4344536D1*
X1951936Y4345869D1*
X1955936Y4347202D1*
X1958603Y4348536D1*
X1962603Y4349869D1*
X1970603Y4357869D1*
Y4367202D1*
G37*
G36*
Y4084536D2*
X1945269D1*
Y4064536D1*
X1947936Y4057869D1*
X1949269Y4056536D1*
X1954603Y4053869D1*
X1959936D1*
X1963936Y4055202D1*
X1966603Y4056536D1*
X1967936Y4057869D1*
X1970603Y4064536D1*
Y4084536D1*
G37*
G36*
X3487654Y5365627D2*
Y5082293D1*
X3480987Y5075627D1*
X3477654Y5068960D1*
X3474320Y5058960D1*
Y5045627D1*
X3477654Y5035627D1*
X3480987Y5028960D1*
X3497654Y5012293D1*
X3507654Y5008960D1*
X3527654D1*
X3537654Y5012293D1*
X3547654Y5018960D1*
X3550987Y5022293D1*
X3557654Y5032293D1*
X3560987Y5038960D1*
Y5065627D1*
X3557654Y5072293D1*
X3547654Y5082293D1*
Y5275627D1*
X3550143Y5277767D1*
X3551829Y5277488D1*
X3553726Y5274732D1*
X3554320Y5272293D1*
X3664320Y5152293D1*
X3697654Y5115627D1*
X3770987Y5035627D1*
X3804320Y5002293D1*
Y5345627D1*
X3814320Y5355627D1*
X3817654Y5365627D1*
Y5385627D1*
X3814320Y5395627D1*
X3794320Y5415627D1*
X3784320Y5418960D1*
X3764320D1*
X3754320Y5415627D1*
X3737654Y5398960D1*
X3734320Y5392293D1*
X3730987Y5382293D1*
Y5368960D1*
X3734320Y5358960D1*
X3737654Y5352293D1*
X3744320Y5345627D1*
Y5152293D1*
X3740786Y5148673D1*
X3739060Y5149214D1*
X3737654Y5152293D1*
X3730987Y5162293D1*
X3697654Y5198960D1*
X3660987Y5238960D1*
X3627654Y5275627D1*
X3590987Y5315627D1*
X3557654Y5352293D1*
X3520987Y5392293D1*
X3487654Y5425627D1*
Y5365627D1*
X3510987D1*
X3513476Y5367767D1*
X3515204Y5367573D1*
X3517654Y5365627D1*
X3544320Y5335627D1*
X3577654Y5298960D1*
X3614320Y5258960D1*
X3714320Y5148960D1*
X3750987Y5108960D1*
X3764320Y5095627D1*
Y5358960D1*
X3757654Y5368960D1*
X3754320Y5372293D1*
Y5378960D1*
X3757654Y5382293D1*
Y5385627D1*
X3764320Y5392293D1*
X3770987Y5395627D1*
X3777654D1*
X3784320Y5392293D1*
X3794320Y5382293D1*
Y5372293D1*
X3790987Y5368960D1*
X3784320Y5358960D1*
Y5058960D1*
X3780786Y5055340D1*
X3779060Y5055881D1*
X3777654Y5058960D1*
X3744320Y5095627D1*
X3707654Y5135627D1*
X3640987Y5208960D1*
X3604320Y5248960D1*
X3537654Y5322293D1*
X3527654Y5332293D1*
Y5068960D1*
X3534320Y5058960D1*
X3537654Y5055627D1*
Y5045627D1*
X3527654Y5035627D1*
X3520987Y5032293D1*
X3514320D1*
X3507654Y5035627D1*
X3500987Y5042293D1*
Y5045627D1*
X3497034Y5049374D1*
X3498063Y5051600D1*
X3500987Y5055627D1*
X3510987Y5068960D1*
Y5365627D1*
X3487654D1*
G37*
G36*
X3097654Y5392293D2*
Y5385627D1*
X3094320Y5382293D1*
Y5368960D1*
X3097654Y5358960D1*
X3100987Y5352293D1*
X3107654Y5345627D1*
Y5082293D1*
X3100987Y5075627D1*
X3097654Y5068960D1*
X3094320Y5058960D1*
Y5045627D1*
X3097654Y5035627D1*
X3100987Y5028960D1*
X3117654Y5012293D1*
X3127654Y5008960D1*
X3147654D1*
X3157654Y5012293D1*
X3167654Y5018960D1*
X3170987Y5022293D1*
X3177654Y5032293D1*
X3180987Y5042293D1*
Y5062293D1*
X3174320Y5075627D1*
X3167654Y5082293D1*
Y5178960D1*
X3314320Y5182293D1*
X3330987Y5185627D1*
X3350987Y5192293D1*
X3357654Y5195627D1*
X3367654Y5202293D1*
X3380987Y5212293D1*
X3387654Y5218960D1*
X3397654Y5232293D1*
X3407654Y5252293D1*
X3410987Y5262293D1*
X3414320Y5278960D1*
Y5308960D1*
X3410987Y5325627D1*
X3407654Y5335627D1*
X3397654Y5355627D1*
X3384320Y5372293D1*
X3367654Y5385627D1*
X3357654Y5392293D1*
X3344320Y5398960D1*
X3334320Y5402293D1*
X3317654Y5405627D1*
X3164320Y5408960D1*
X3157654Y5415627D1*
X3147654Y5418960D1*
X3127654D1*
X3117654Y5415627D1*
X3100987Y5398960D1*
X3097654Y5392293D1*
X3127654D1*
X3134320Y5395627D1*
X3140987D1*
X3154320Y5388960D1*
Y5385627D1*
X3320987Y5382293D1*
X3334320Y5378960D1*
X3347654Y5372293D1*
X3350987Y5368960D1*
X3357654Y5365627D1*
X3374320Y5348960D1*
Y5345627D1*
X3380987Y5335627D1*
X3384320Y5328960D1*
X3387654Y5318960D1*
X3390987Y5302293D1*
X3394320Y5298960D1*
Y5288960D1*
X3390987Y5285627D1*
X3387654Y5265627D1*
X3377654Y5245627D1*
Y5242293D1*
X3357654Y5222293D1*
X3350987Y5218960D1*
X3347654Y5215627D1*
X3340987Y5212293D1*
X3330987Y5208960D1*
X3317654Y5205627D1*
X3147654Y5202293D1*
Y5065627D1*
X3157654Y5055627D1*
Y5045627D1*
X3147654Y5035627D1*
X3140987Y5032293D1*
X3134320D1*
X3127654Y5035627D1*
X3120987Y5042293D1*
Y5045627D1*
X3117034Y5049374D1*
X3118063Y5051600D1*
X3120987Y5055627D1*
X3127654Y5065627D1*
Y5358960D1*
X3120987Y5368960D1*
X3117654Y5372293D1*
Y5378960D1*
X3120987Y5382293D1*
X3127654Y5392293D1*
X3097654D1*
G37*
G36*
X3917654D2*
Y5385627D1*
X3914320Y5382293D1*
Y5368960D1*
X3917654Y5358960D1*
X3920987Y5352293D1*
X3927654Y5345627D1*
Y5082293D1*
X3920987Y5075627D1*
X3917654Y5068960D1*
X3914320Y5058960D1*
Y5045627D1*
X3917654Y5035627D1*
X3920987Y5028960D1*
X3937654Y5012293D1*
X3947654Y5008960D1*
X3967654D1*
X3977654Y5012293D1*
X3987654Y5018960D1*
X3990987Y5022293D1*
X3997654Y5032293D1*
X4000987Y5042293D1*
Y5062293D1*
X3994320Y5075627D1*
X3987654Y5082293D1*
Y5178960D1*
X4134320Y5182293D1*
X4150987Y5185627D1*
X4170987Y5192293D1*
X4177654Y5195627D1*
X4187654Y5202293D1*
X4200987Y5212293D1*
X4207654Y5218960D1*
X4217654Y5232293D1*
X4227654Y5252293D1*
X4230987Y5262293D1*
X4234320Y5278960D1*
Y5308960D1*
X4230987Y5325627D1*
X4227654Y5335627D1*
X4217654Y5355627D1*
X4204320Y5372293D1*
X4187654Y5385627D1*
X4177654Y5392293D1*
X4164320Y5398960D1*
X4154320Y5402293D1*
X4137654Y5405627D1*
X3984320Y5408960D1*
X3977654Y5415627D1*
X3967654Y5418960D1*
X3947654D1*
X3937654Y5415627D1*
X3920987Y5398960D1*
X3917654Y5392293D1*
X3947654D1*
X3954320Y5395627D1*
X3960987D1*
X3974320Y5388960D1*
Y5385627D1*
X4140987Y5382293D1*
X4154320Y5378960D1*
X4167654Y5372293D1*
X4170987Y5368960D1*
X4177654Y5365627D1*
X4194320Y5348960D1*
Y5345627D1*
X4200987Y5335627D1*
X4204320Y5328960D1*
X4207654Y5318960D1*
X4210987Y5302293D1*
X4214320Y5298960D1*
Y5288960D1*
X4210987Y5285627D1*
X4207654Y5265627D1*
X4197654Y5245627D1*
Y5242293D1*
X4177654Y5222293D1*
X4170987Y5218960D1*
X4167654Y5215627D1*
X4160987Y5212293D1*
X4150987Y5208960D1*
X4137654Y5205627D1*
X3967654Y5202293D1*
Y5065627D1*
X3977654Y5055627D1*
Y5045627D1*
X3967654Y5035627D1*
X3960987Y5032293D1*
X3954320D1*
X3947654Y5035627D1*
X3940987Y5042293D1*
Y5045627D1*
X3937034Y5049374D1*
X3938063Y5051600D1*
X3940987Y5055627D1*
X3947654Y5065627D1*
Y5358960D1*
X3940987Y5368960D1*
X3937654Y5372293D1*
Y5378960D1*
X3940987Y5382293D1*
X3947654Y5392293D1*
X3917654D1*
G37*
G36*
X3147654Y5345627D2*
Y5218960D1*
X3310987D1*
X3324320Y5222293D1*
X3344320Y5232293D1*
X3360987Y5248960D1*
X3367654Y5258960D1*
X3374320Y5278960D1*
Y5308960D1*
X3370987Y5318960D1*
X3360987Y5338960D1*
X3344320Y5355627D1*
X3334320Y5362293D1*
X3327654Y5365627D1*
X3314320Y5368960D1*
X3154320D1*
X3147654Y5358960D1*
Y5345627D1*
X3167654D1*
X3216542Y5348960D1*
X3265431D1*
X3314320Y5345627D1*
X3327654Y5338960D1*
X3347654Y5318960D1*
Y5315627D1*
X3350987Y5302293D1*
X3354320Y5298960D1*
Y5288960D1*
X3350987Y5285627D1*
X3347654Y5272293D1*
X3340987Y5262293D1*
X3339891Y5258249D1*
X3337654Y5255627D1*
X3330987Y5252293D1*
X3327654Y5248960D1*
X3320987Y5245627D1*
X3310987Y5242293D1*
X3263209Y5238960D1*
X3215431D1*
X3167654Y5242293D1*
Y5345627D1*
X3147654D1*
G37*
G36*
X3967654D2*
Y5218960D1*
X4130987D1*
X4144320Y5222293D1*
X4164320Y5232293D1*
X4180987Y5248960D1*
X4187654Y5258960D1*
X4194320Y5278960D1*
Y5308960D1*
X4190987Y5318960D1*
X4180987Y5338960D1*
X4164320Y5355627D1*
X4154320Y5362293D1*
X4147654Y5365627D1*
X4134320Y5368960D1*
X3974320D1*
X3967654Y5358960D1*
Y5345627D1*
X3987654D1*
X4036542Y5348960D1*
X4085431D1*
X4134320Y5345627D1*
X4147654Y5338960D1*
X4167654Y5318960D1*
Y5315627D1*
X4170987Y5302293D1*
X4174320Y5298960D1*
Y5288960D1*
X4170987Y5285627D1*
X4167654Y5272293D1*
X4160987Y5262293D1*
X4159891Y5258249D1*
X4157654Y5255627D1*
X4150987Y5252293D1*
X4147654Y5248960D1*
X4140987Y5245627D1*
X4130987Y5242293D1*
X4083209Y5238960D1*
X4035431D1*
X3987654Y5242293D1*
Y5345627D1*
X3967654D1*
G37*
G36*
X2937654Y6012293D2*
Y6008960D1*
X2930987Y6002293D1*
X2924320Y5992293D1*
X2920987Y5985627D1*
X2907654Y5965627D1*
X2904320Y5958960D1*
X2884320Y5928960D1*
X2880987Y5922293D1*
X2867654Y5902293D1*
X2864320Y5895627D1*
X2850987Y5875627D1*
X2847654Y5868960D1*
X2827654Y5838960D1*
X2824320Y5832293D1*
X2810987Y5812293D1*
X2807654Y5805627D1*
X2787654Y5775627D1*
X2784320Y5768960D1*
X2770987Y5748960D1*
X2767654Y5742293D1*
X2754320Y5722293D1*
X2750987Y5715627D1*
X2737654Y5695627D1*
X2734320Y5688960D1*
Y5685627D1*
X2727654Y5678960D1*
X2722745Y5679296D1*
X2719983Y5683052D1*
X2720987Y5685627D1*
X2717654Y5692293D1*
X2710987Y5702293D1*
X2707654Y5708960D1*
X2687654Y5738960D1*
X2684320Y5745627D1*
X2670987Y5765627D1*
X2667654Y5772293D1*
X2654320Y5792293D1*
X2650987Y5798960D1*
X2630987Y5828960D1*
X2627654Y5835627D1*
X2614320Y5855627D1*
X2610987Y5862293D1*
X2590987Y5892293D1*
X2587654Y5898960D1*
X2574320Y5918960D1*
X2570987Y5925627D1*
X2557654Y5945627D1*
X2554320Y5952293D1*
X2534320Y5982293D1*
X2530987Y5988960D1*
X2517654Y6008960D1*
Y5598960D1*
X2504320Y5585627D1*
X2497654Y5572293D1*
Y5545627D1*
X2504320Y5532293D1*
X2520987Y5515627D1*
X2534320Y5508960D1*
X2560987D1*
X2570987Y5512293D1*
X2577654Y5515627D1*
X2594320Y5532293D1*
X2597654Y5538960D1*
X2600987Y5548960D1*
Y5568960D1*
X2597654Y5578960D1*
X2594320Y5585627D1*
X2580987Y5598960D1*
Y5782293D1*
X2577654Y5785627D1*
Y5795627D1*
X2580143Y5797767D1*
X2581829Y5797488D1*
X2583726Y5794732D1*
X2584320Y5792293D1*
X2587654Y5785627D1*
X2590987Y5775627D1*
X2610987Y5745627D1*
X2614320Y5738960D1*
X2640987Y5698960D1*
X2644320Y5692293D1*
X2670987Y5652293D1*
X2674320Y5645627D1*
X2700987Y5605627D1*
X2704320Y5598960D1*
X2724320Y5568960D1*
X2727654Y5565627D1*
X2730987Y5572293D1*
X2757654Y5612293D1*
X2760987Y5618960D1*
X2787654Y5658960D1*
X2790987Y5665627D1*
X2810987Y5695627D1*
X2814320Y5702293D1*
X2840987Y5742293D1*
X2844320Y5748960D1*
X2857654Y5768960D1*
X2867654Y5788960D1*
X2868198Y5791538D1*
X2870242Y5794271D1*
X2871885Y5794192D1*
X2874320Y5792293D1*
Y5778960D1*
X2870987Y5775627D1*
Y5598960D1*
X2864320Y5592293D1*
X2857654Y5582293D1*
X2854320Y5575627D1*
X2850987Y5562293D1*
Y5558960D1*
X2854320Y5542293D1*
X2857654Y5535627D1*
X2864320Y5525627D1*
X2870987Y5518960D1*
X2880987Y5512293D1*
X2890987Y5508960D1*
X2917654D1*
X2927654Y5512293D1*
X2937654Y5518960D1*
X2944320Y5525627D1*
X2950987Y5535627D1*
X2954320Y5542293D1*
Y5575627D1*
X2950987Y5582293D1*
X2944320Y5592293D1*
X2937654Y5598960D1*
Y6012293D1*
G37*
G36*
X3154320Y5845627D2*
X3153224Y5841583D1*
X3150987Y5838960D1*
X3147654Y5828960D1*
X3140987Y5815627D1*
X3137654Y5805627D1*
X3130987Y5792293D1*
X3127654Y5782293D1*
X3120987Y5768960D1*
X3117654Y5758960D1*
X3110987Y5745627D1*
X3107654Y5735627D1*
X3100987Y5722293D1*
X3097654Y5712293D1*
X3090987Y5698960D1*
X3087654Y5688960D1*
X3080987Y5675627D1*
X3077654Y5665627D1*
X3070987Y5652293D1*
X3067654Y5642293D1*
X3064320Y5635627D1*
X3060987Y5625627D1*
X3057654Y5618960D1*
Y5615627D1*
X3047654Y5605627D1*
X3040987Y5602293D1*
X3030987Y5592293D1*
X3024320Y5578960D1*
X3020987Y5568960D1*
Y5552293D1*
X3024320Y5542293D1*
X3030987Y5528960D1*
X3044320Y5515627D1*
X3057654Y5508960D1*
X3087654D1*
X3100987Y5515627D1*
X3110987Y5522293D1*
X3117654Y5532293D1*
X3124320Y5545627D1*
X3127654Y5588960D1*
X3130987Y5595627D1*
X3134320Y5605627D1*
X3140987Y5618960D1*
Y5622293D1*
X3197654Y5625627D1*
X3254320D1*
X3310987Y5622293D1*
Y5618960D1*
X3314320Y5612293D1*
X3317654Y5602293D1*
X3324320Y5588960D1*
X3327654Y5545627D1*
X3330987Y5535627D1*
X3337654Y5525627D1*
X3344320Y5518960D1*
X3354320Y5512293D1*
X3364320Y5508960D1*
X3394320D1*
X3407654Y5515627D1*
X3420987Y5528960D1*
X3427654Y5542293D1*
X3430987Y5555627D1*
Y5565627D1*
X3427654Y5575627D1*
X3420987Y5588960D1*
X3414320Y5598960D1*
X3404320Y5605627D1*
X3397654Y5608960D1*
X3393700Y5612708D1*
X3394320Y5615627D1*
X3390987Y5625627D1*
X3387654Y5632293D1*
X3384320Y5642293D1*
X3377654Y5655627D1*
X3374320Y5665627D1*
X3367654Y5678960D1*
X3364320Y5688960D1*
X3357654Y5702293D1*
X3354320Y5712293D1*
X3347654Y5725627D1*
X3344320Y5735627D1*
X3340987Y5742293D1*
X3337654Y5752293D1*
X3330987Y5765627D1*
X3327654Y5775627D1*
X3320987Y5788960D1*
X3317654Y5798960D1*
X3310987Y5812293D1*
X3307654Y5822293D1*
X3300987Y5835627D1*
X3297654Y5845627D1*
X3290987Y5858960D1*
X3287654Y5868960D1*
X3284320Y5875627D1*
X3280987Y5885627D1*
X3274320Y5898960D1*
X3270987Y5908960D1*
X3264320Y5922293D1*
X3260987Y5932293D1*
X3254320Y5945627D1*
X3250987Y5955627D1*
X3244320Y5968960D1*
X3240987Y5978960D1*
X3234320Y5992293D1*
X3230987Y6002293D1*
X3227654Y6008960D1*
X3224320D1*
X3217654Y5995627D1*
X3214320Y5985627D1*
X3207654Y5972293D1*
X3204320Y5962293D1*
X3197654Y5948960D1*
X3194320Y5938960D1*
X3187654Y5925627D1*
X3184320Y5915627D1*
X3177654Y5902293D1*
X3174320Y5892293D1*
X3167654Y5878960D1*
X3164320Y5868960D1*
X3160987Y5862293D1*
X3157654Y5852293D1*
X3154320Y5845627D1*
X3220987D1*
X3224555Y5847617D1*
X3227449Y5847403D1*
X3230987Y5845627D1*
Y5835627D1*
X3240987Y5805627D1*
X3244320Y5798960D1*
X3250987Y5778960D1*
X3254320Y5772293D1*
X3260987Y5752293D1*
X3264320Y5745627D1*
X3270987Y5725627D1*
X3274320Y5718960D1*
X3280987Y5698960D1*
X3283672Y5694656D1*
X3284320Y5692293D1*
X3245431Y5688960D1*
X3206542D1*
X3167654Y5692293D1*
Y5698960D1*
X3170987Y5702293D1*
X3174320Y5708960D1*
X3180987Y5728960D1*
X3184320Y5735627D1*
X3190987Y5755627D1*
X3194320Y5762293D1*
X3200987Y5782293D1*
X3204320Y5788960D1*
X3210987Y5808960D1*
X3214320Y5815627D1*
X3220987Y5835627D1*
Y5845627D1*
X3154320D1*
G37*
G36*
X3537654Y5998960D2*
X3524320Y5992293D1*
X3507654Y5975627D1*
X3504320Y5968960D1*
X3500987Y5958960D1*
Y5938960D1*
X3504320Y5928960D1*
X3510987Y5915627D1*
X3517654Y5908960D1*
Y5598960D1*
X3510987Y5592293D1*
X3504320Y5582293D1*
X3500987Y5572293D1*
Y5548960D1*
X3510987Y5528960D1*
X3520987Y5518960D1*
X3530987Y5512293D1*
X3540987Y5508960D1*
X3564320D1*
X3574320Y5512293D1*
X3580987Y5515627D1*
X3594320Y5528960D1*
X3600987Y5538960D1*
X3604320Y5548960D1*
Y5572293D1*
X3600987Y5582293D1*
X3597654Y5588960D1*
X3587654Y5598960D1*
Y5728960D1*
X3590143Y5731101D1*
X3591870Y5730906D1*
X3594320Y5728960D1*
X3604320Y5718960D1*
X3630987Y5695627D1*
X3660987Y5668960D1*
X3740987Y5598960D1*
X3770987Y5572293D1*
X3777654Y5568960D1*
X3790987Y5555627D1*
Y5548960D1*
X3794320Y5538960D1*
X3797654Y5532293D1*
X3810987Y5518960D1*
X3820987Y5512293D1*
X3834320Y5508960D1*
X3854320D1*
X3864320Y5512293D1*
X3870987Y5515627D1*
X3887654Y5532293D1*
X3890987Y5538960D1*
X3894320Y5548960D1*
Y5572293D1*
X3890987Y5582293D1*
X3887654Y5588960D1*
X3870987Y5605627D1*
X3864320Y5608960D1*
X3854320Y5612293D1*
X3834320Y5615627D1*
X3824320Y5625627D1*
X3707654Y5725627D1*
X3680987Y5748960D1*
X3657654Y5768960D1*
X3650987Y5772293D1*
X3657654Y5778960D1*
X3664320Y5782293D1*
X3674320Y5788960D1*
X3740987Y5838960D1*
X3750987Y5845627D1*
X3804320Y5885627D1*
X3814320Y5892293D1*
X3817654Y5895627D1*
X3822098Y5898960D1*
X3826542D1*
X3830987Y5895627D1*
X3834320D1*
X3847654Y5898960D1*
X3860987Y5905627D1*
X3874320Y5918960D1*
X3877654Y5925627D1*
X3880987Y5935627D1*
Y5962293D1*
X3874320Y5975627D1*
X3867654Y5985627D1*
X3864320Y5988960D1*
X3844320Y5998960D1*
X3814320D1*
X3800987Y5992293D1*
X3784320Y5975627D1*
X3780987Y5968960D1*
Y5958960D1*
X3777654Y5955627D1*
X3770987Y5952293D1*
X3677654Y5882293D1*
X3660987Y5868960D1*
X3594320Y5818960D1*
X3590786Y5815340D1*
X3589060Y5815881D1*
X3587654Y5818960D1*
Y5908960D1*
X3594320Y5915627D1*
X3600987Y5925627D1*
X3604320Y5935627D1*
Y5962293D1*
X3597654Y5975627D1*
X3577654Y5995627D1*
X3567654Y5998960D1*
X3537654D1*
G37*
G36*
X4274320D2*
X4260987Y5992293D1*
X4250987Y5982293D1*
X3970987Y5978960D1*
Y5525627D1*
X4250987Y5518960D1*
X4257654Y5515627D1*
X4260987Y5512293D1*
X4267654Y5508960D1*
X4277654Y5505627D1*
X4290987D1*
X4304320Y5508960D1*
X4310987Y5512293D1*
X4330987Y5532293D1*
X4334320Y5538960D1*
X4337654Y5552293D1*
Y5565627D1*
X4334320Y5578960D1*
X4330987Y5585627D1*
X4310987Y5605627D1*
X4304320Y5608960D1*
X4290987Y5612293D1*
X4277654D1*
X4267654Y5608960D1*
X4260987Y5605627D1*
X4250987Y5595627D1*
X4180987Y5592293D1*
X4110987D1*
X4040987Y5595627D1*
Y5722293D1*
X4094320Y5725627D1*
X4147654D1*
X4200987Y5722293D1*
X4210987Y5712293D1*
X4217654Y5708960D1*
X4227654Y5705627D1*
X4244320D1*
X4254320Y5708960D1*
X4260987Y5712293D1*
X4270987Y5718960D1*
X4277654Y5725627D1*
X4284320Y5738960D1*
X4287654Y5748960D1*
Y5768960D1*
X4284320Y5778960D1*
X4280987Y5785627D1*
X4260987Y5805627D1*
X4254320Y5808960D1*
X4244320Y5812293D1*
X4227654D1*
X4217654Y5808960D1*
X4210987Y5805627D1*
X4200987Y5795627D1*
X4147654Y5792293D1*
X4094320D1*
X4040987Y5795627D1*
Y5912293D1*
X4110987Y5915627D1*
X4180987D1*
X4250987Y5912293D1*
Y5908960D1*
X4260987Y5902293D1*
X4267654Y5898960D1*
X4277654Y5895627D1*
X4290987D1*
X4304320Y5898960D1*
X4310987Y5902293D1*
X4320987Y5908960D1*
X4324320Y5912293D1*
X4330987Y5922293D1*
X4334320Y5928960D1*
X4337654Y5938960D1*
Y5955627D1*
X4334320Y5965627D1*
X4330987Y5972293D1*
X4324320Y5982293D1*
X4320987Y5985627D1*
X4310987Y5992293D1*
X4304320Y5995627D1*
X4294320Y5998960D1*
X4274320D1*
G37*
G36*
X4450987Y5908960D2*
Y5598960D1*
X4444320Y5592293D1*
X4437654Y5582293D1*
X4434320Y5572293D1*
Y5548960D1*
X4437654Y5538960D1*
X4440987Y5532293D1*
X4457654Y5515627D1*
X4464320Y5512293D1*
X4474320Y5508960D1*
X4497654D1*
X4507654Y5512293D1*
X4514320Y5515627D1*
X4530987Y5532293D1*
X4534320Y5538960D1*
X4537654Y5548960D1*
Y5572293D1*
X4534320Y5582293D1*
X4527654Y5592293D1*
X4520987Y5598960D1*
Y5722293D1*
X4550987Y5725627D1*
X4580987D1*
X4610987Y5722293D1*
X4620987Y5712293D1*
Y5708960D1*
X4627654Y5698960D1*
X4657654Y5658960D1*
X4664320Y5648960D1*
X4694320Y5608960D1*
X4700987Y5598960D1*
X4720987Y5572293D1*
X4724320Y5545627D1*
X4730987Y5532293D1*
X4747654Y5515627D1*
X4754320Y5512293D1*
X4764320Y5508960D1*
X4787654D1*
X4797654Y5512293D1*
X4807654Y5518960D1*
X4814320Y5525627D1*
X4820987Y5535627D1*
X4824320Y5545627D1*
Y5578960D1*
X4820987Y5585627D1*
X4810987Y5598960D1*
X4800987Y5605627D1*
X4794320Y5608960D1*
X4784320Y5612293D1*
X4777654Y5615627D1*
Y5618960D1*
X4757654Y5645627D1*
X4750987Y5655627D1*
X4720987Y5695627D1*
X4714320Y5705627D1*
X4704320Y5718960D1*
X4697654Y5725627D1*
X4720987Y5728960D1*
X4750987Y5738960D1*
X4757654Y5742293D1*
X4767654Y5748960D1*
X4780987Y5758960D1*
X4794320Y5772293D1*
X4807654Y5792293D1*
X4810987Y5802293D1*
X4814320Y5808960D1*
X4817654Y5822293D1*
Y5882293D1*
X4810987Y5902293D1*
X4804320Y5915627D1*
X4797654Y5925627D1*
X4767654Y5955627D1*
X4757654Y5962293D1*
X4737654Y5972293D1*
X4710987Y5978960D1*
X4520987Y5982293D1*
X4510987Y5992293D1*
X4504320Y5995627D1*
X4494320Y5998960D1*
X4477654D1*
X4467654Y5995627D1*
X4460987Y5992293D1*
X4450987Y5985627D1*
X4447654Y5982293D1*
X4440987Y5972293D1*
X4437654Y5965627D1*
X4434320Y5955627D1*
Y5935627D1*
X4437654Y5925627D1*
X4440987Y5918960D1*
X4450987Y5908960D1*
X4520987D1*
X4580987Y5912293D1*
X4640987D1*
X4700987Y5908960D1*
X4710987Y5905627D1*
X4717654Y5902293D1*
X4720987Y5898960D1*
X4727654Y5895627D1*
X4734320Y5888960D1*
Y5885627D1*
X4740987Y5875627D1*
X4744320Y5858960D1*
X4747654Y5855627D1*
Y5848960D1*
X4744320Y5845627D1*
X4740987Y5828960D1*
X4734320Y5818960D1*
Y5815627D1*
X4727654Y5808960D1*
X4720987Y5805627D1*
X4717654Y5802293D1*
X4710987Y5798960D1*
X4697654Y5795627D1*
X4638765Y5792293D1*
X4579876D1*
X4520987Y5795627D1*
Y5908960D1*
X4450987D1*
G37*
G36*
X2424320Y4405627D2*
Y4112293D1*
X2427654Y4105627D1*
X2437654Y4095627D1*
X2447654Y4092293D1*
X2450987D1*
X2460987Y4095627D1*
X2467654Y4098960D1*
X2537654Y4138960D1*
X2554320Y4148960D1*
X2600987Y4175627D1*
X2617654Y4185627D1*
X2687654Y4225627D1*
X2704320Y4235627D1*
X2714320Y4242293D1*
X2717654Y4245627D1*
X2720987Y4252293D1*
Y4268960D1*
X2717654Y4275627D1*
X2710987Y4282293D1*
X2694320Y4292293D1*
X2647654Y4318960D1*
X2630987Y4328960D1*
X2560987Y4368960D1*
X2544320Y4378960D1*
X2474320Y4418960D1*
X2454320Y4428960D1*
X2444320D1*
X2437654Y4425627D1*
X2427654Y4415627D1*
X2424320Y4408960D1*
Y4405627D1*
X2444320D1*
X2447888Y4407617D1*
X2450782Y4407403D1*
X2454320Y4405627D1*
X2470987Y4395627D1*
X2540987Y4355627D1*
X2557654Y4345627D1*
X2627654Y4305627D1*
X2644320Y4295627D1*
X2690987Y4268960D1*
X2697654Y4265627D1*
X2700175Y4261143D1*
X2699842Y4258141D1*
X2697654Y4255627D1*
X2684320Y4248960D1*
X2637654Y4222293D1*
X2620987Y4212293D1*
X2550987Y4172293D1*
X2534320Y4162293D1*
X2487654Y4135627D1*
X2454320Y4115627D1*
X2450256Y4112148D1*
X2446402Y4112579D1*
X2444320Y4115627D1*
Y4405627D1*
X2424320D1*
G37*
G36*
X2477654Y4275627D2*
X2470987Y4272293D1*
X2467654Y4268960D1*
Y4255627D1*
X2470987Y4248960D1*
X2480987Y4245627D1*
X2490987Y4248960D1*
X2494320Y4255627D1*
Y4268960D1*
X2490987Y4272293D1*
X2484320Y4275627D1*
X2477654D1*
G37*
G36*
X2520987D2*
X2510987Y4265627D1*
Y4258960D1*
X2514320Y4252293D1*
X2517654Y4248960D1*
X2524320Y4245627D1*
X2630987D1*
X2637654Y4248960D1*
X2640987Y4252293D1*
X2644320Y4258960D1*
Y4262293D1*
X2640987Y4268960D1*
X2637654Y4272293D1*
X2630987Y4275627D1*
X2520987D1*
G37*
G36*
X10111857Y4371032D2*
X10110857Y4369032D1*
X10107857Y4366032D1*
X10106857D1*
X10105857Y4365032D1*
X10024857D1*
X10023857Y4366032D1*
X10022857D1*
X10019857Y4369032D1*
X10018857Y4371032D1*
X10017857Y4382032D1*
Y4393032D1*
X10018857Y4404032D1*
X10020857Y4408032D1*
X10021857Y4411032D1*
X10022857Y4413032D1*
X10027857Y4418032D1*
X10028857D1*
X10032857Y4420032D1*
X10035857Y4421032D1*
X10037857Y4422032D1*
X10038857Y4423032D1*
X10051857D1*
X10052857Y4422032D1*
X10055857Y4421032D1*
X10061857Y4418032D1*
X10062857D1*
X10067857Y4413032D1*
X10068857Y4411032D1*
X10069857Y4408032D1*
X10071857D1*
X10099857Y4422032D1*
X10100857Y4423032D1*
X10105857D1*
X10106857Y4422032D1*
X10107857D1*
X10110857Y4419032D1*
X10111857Y4417032D1*
Y4458032D1*
X10110857Y4456032D1*
X10107857Y4453032D1*
X10106857D1*
X10035857Y4452032D1*
X10034857Y4438032D1*
X10033857Y4436032D1*
X10030857Y4433032D1*
X10029857D1*
X10028857Y4432032D1*
X10024857D1*
X10023857Y4433032D1*
X10022857D1*
X10019857Y4436032D1*
X10018857Y4438032D1*
X10017857Y4453698D1*
Y4469365D1*
X10018857Y4485032D1*
X10019857Y4487032D1*
X10022857Y4490032D1*
X10023857D1*
X10024857Y4491032D1*
X10028857D1*
X10029857Y4490032D1*
X10030857D1*
X10033857Y4487032D1*
X10034857Y4485032D1*
X10035857Y4470032D1*
X10106857Y4469032D1*
X10107857D1*
X10110857Y4466032D1*
X10111857Y4464032D1*
Y4573032D1*
X9971857D1*
Y3736032D1*
X10018857D1*
Y3825032D1*
X10017857Y3827032D1*
Y3829032D1*
X10019857Y3833032D1*
X10022857Y3836032D1*
X10023857D1*
X10054857Y3837032D1*
Y3860032D1*
X10023857Y3861032D1*
X10022857D1*
X10019857Y3864032D1*
X10017857Y3868032D1*
Y3870032D1*
X10018857Y3872032D1*
Y4044032D1*
X10017857Y4050365D1*
Y4056698D1*
X10018857Y4063032D1*
Y4230032D1*
X10017857Y4232032D1*
Y4234032D1*
X10019857Y4238032D1*
X10022857Y4241032D1*
X10023857D1*
X10081857Y4242032D1*
X10084857Y4243032D1*
X10088857Y4244032D1*
X10090857Y4245032D1*
X10092857Y4247032D1*
X10093857Y4249032D1*
X10094857Y4252032D1*
Y4254032D1*
X10092857Y4259032D1*
X10088857Y4263032D1*
X10084857Y4264032D1*
X10081857Y4265032D1*
X10023857Y4266032D1*
X10022857D1*
X10019857Y4269032D1*
X10017857Y4273032D1*
Y4275032D1*
X10019857Y4279032D1*
X10022857Y4282032D1*
X10023857D1*
X10024857Y4283032D1*
X10084857D1*
X10085857Y4282032D1*
X10089857Y4281032D1*
X10092857Y4280032D1*
X10098857Y4277032D1*
X10099857D1*
X10107857Y4269032D1*
X10108857Y4267032D1*
X10109857Y4264032D1*
X10111857Y4260032D1*
X10112857Y4255365D1*
Y4250698D1*
X10111857Y4246032D1*
X10110857Y4244032D1*
X10109857Y4241032D1*
X10107857Y4237032D1*
X10102857Y4232032D1*
X10101857D1*
X10097857Y4229032D1*
X10092857Y4227032D1*
X10089857Y4226032D1*
X10085857Y4225032D1*
X10084857Y4224032D1*
X10024857D1*
X10023857Y4225032D1*
X10022857D1*
X10019857Y4228032D1*
X10018857Y4230032D1*
Y4063032D1*
X10019857Y4065032D1*
Y4115032D1*
X10018857Y4119365D1*
Y4123698D1*
X10019857Y4128032D1*
X10022857Y4137032D1*
X10027857Y4142032D1*
X10028857D1*
X10031857Y4143032D1*
X10033857Y4144032D1*
X10034857Y4145032D1*
X10039857D1*
X10040857Y4144032D1*
X10041857D1*
X10044857Y4141032D1*
X10046857Y4137032D1*
Y4135032D1*
X10044857Y4131032D1*
X10040857Y4127032D1*
X10039857D1*
X10037857Y4126032D1*
X10036857Y4123032D1*
Y4120032D1*
X10037857Y4117032D1*
X10039857Y4115032D1*
X10045857Y4112032D1*
X10049857D1*
X10048857Y4115032D1*
X10047857Y4118365D1*
Y4121698D1*
X10048857Y4125032D1*
X10051857Y4134032D1*
X10056857Y4139032D1*
X10057857D1*
X10061857Y4142032D1*
X10066857Y4145032D1*
X10070857Y4146032D1*
X10073857Y4147032D1*
X10074857Y4148032D1*
X10084857D1*
X10085857Y4147032D1*
X10089857Y4146032D1*
X10092857Y4145032D1*
X10098857Y4142032D1*
X10099857D1*
X10107857Y4134032D1*
X10108857Y4132032D1*
X10109857Y4129032D1*
X10111857Y4125032D1*
X10112857Y4121698D1*
Y4118365D1*
X10111857Y4115032D1*
X10110857Y4113032D1*
X10109857Y4110032D1*
X10107857Y4106032D1*
X10098857Y4097032D1*
X10097857D1*
X10095857Y4096032D1*
X10080857Y4093032D1*
X10079857Y4092032D1*
X10056857D1*
X10055857Y4093032D1*
X10037857Y4096032D1*
X10033857Y4098032D1*
X10030857Y4100032D1*
X10028857Y4101032D1*
X10027857D1*
X10022857Y4106032D1*
X10019857Y4115032D1*
Y4065032D1*
X10020857Y4066032D1*
X10022857Y4069032D1*
X10023857Y4071032D1*
X10027857Y4075032D1*
X10028857D1*
X10031857Y4077032D1*
X10036857Y4080032D1*
X10038857Y4081032D1*
X10041857Y4082032D1*
X10042857Y4083032D1*
X10047857D1*
X10048857Y4082032D1*
X10049857D1*
X10052857Y4079032D1*
X10054857Y4075032D1*
Y4073032D1*
X10052857Y4069032D1*
X10048857Y4065032D1*
X10046857D1*
X10044857Y4064032D1*
X10041857Y4063032D1*
X10039857Y4062032D1*
X10035857Y4058032D1*
Y4050032D1*
X10041857Y4044032D1*
X10053857Y4041032D1*
X10056857Y4040032D1*
X10074857D1*
X10077857Y4041032D1*
X10085857Y4043032D1*
X10088857Y4044032D1*
X10093857Y4048032D1*
X10094857Y4050032D1*
Y4057032D1*
X10093857Y4059032D1*
X10090857Y4062032D1*
X10086857Y4064032D1*
X10083857Y4065032D1*
X10082857D1*
X10078857Y4069032D1*
X10076857Y4073032D1*
Y4075032D1*
X10078857Y4079032D1*
X10081857Y4082032D1*
X10082857D1*
X10083857Y4083032D1*
X10088857D1*
X10089857Y4082032D1*
X10091857Y4081032D1*
X10094857Y4080032D1*
X10098857Y4077032D1*
X10101857Y4075032D1*
X10102857D1*
X10107857Y4070032D1*
X10108857Y4068032D1*
X10110857Y4065032D1*
X10111857Y4064032D1*
X10112857Y4057698D1*
Y4051365D1*
X10111857Y4045032D1*
Y3966032D1*
X10112857Y3964032D1*
Y3962032D1*
X10110857Y3958032D1*
X10107857Y3955032D1*
X10106857D1*
X10105857Y3954032D1*
X10100857D1*
X10099857Y3955032D1*
X10095857Y3957032D1*
X10092857Y3959032D1*
X10082857Y3964032D1*
X10079857Y3966032D1*
X10069857Y3971032D1*
X10066857Y3973032D1*
X10058857Y3977032D1*
X10055857Y3979032D1*
X10045857Y3984032D1*
X10042857Y3986032D1*
X10032857Y3991032D1*
X10029857Y3993032D1*
X10025857Y3995032D1*
X10024857D1*
X10020857Y3999032D1*
X10018857Y4003032D1*
Y4005032D1*
X10020857Y4009032D1*
X10023857Y4012032D1*
X10024857D1*
X10025857Y4013032D1*
X10030857D1*
X10031857Y4012032D1*
X10035857Y4010032D1*
X10038857Y4008032D1*
X10048857Y4003032D1*
X10051857Y4001032D1*
X10061857Y3996032D1*
X10064857Y3994032D1*
X10072857Y3990032D1*
X10075857Y3988032D1*
X10085857Y3983032D1*
X10088857Y3981032D1*
X10098857Y3976032D1*
X10101857Y3974032D1*
X10105857Y3972032D1*
X10106857D1*
X10110857Y3968032D1*
X10111857Y3966032D1*
Y4045032D1*
X10108857Y4040032D1*
X10106857Y4037032D1*
X10098857Y4029032D1*
X10097857D1*
X10093857Y4027032D1*
X10085857Y4025032D1*
X10082857Y4024032D1*
X10078857Y4023032D1*
X10077857Y4022032D1*
X10053857D1*
X10052857Y4023032D1*
X10048857Y4024032D1*
X10045857Y4025032D1*
X10037857Y4027032D1*
X10032857Y4029032D1*
X10025857Y4035032D1*
X10021857Y4039032D1*
X10020857Y4041032D1*
X10018857Y4044032D1*
Y3872032D1*
X10019857Y3874032D1*
Y3893032D1*
X10018857Y3908365D1*
Y3923698D1*
X10019857Y3939032D1*
X10020857Y3941032D1*
X10023857Y3944032D1*
X10024857D1*
X10025857Y3945032D1*
X10030857D1*
X10031857Y3944032D1*
X10034857Y3943032D1*
X10036857Y3942032D1*
X10039857Y3941032D1*
X10041857Y3940032D1*
X10047857Y3938032D1*
X10049857Y3937032D1*
X10055857Y3935032D1*
X10057857Y3934032D1*
X10060857Y3933032D1*
X10062857Y3932032D1*
X10068857Y3930032D1*
X10070857Y3929032D1*
X10076857Y3927032D1*
X10078857Y3926032D1*
X10081857Y3925032D1*
X10083857Y3924032D1*
X10089857Y3922032D1*
X10091857Y3921032D1*
X10097857Y3919032D1*
X10099857Y3918032D1*
X10102857Y3917032D1*
X10104857Y3916032D1*
X10106857D1*
X10110857Y3912032D1*
X10112857Y3908032D1*
Y3906032D1*
X10110857Y3902032D1*
X10107857Y3899032D1*
X10106857D1*
X10105857Y3898032D1*
X10100857D1*
X10099857Y3899032D1*
X10096857Y3900032D1*
X10094857Y3901032D1*
X10091857Y3902032D1*
X10089857Y3903032D1*
X10083857Y3905032D1*
X10081857Y3906032D1*
X10075857Y3908032D1*
X10073857Y3909032D1*
X10070857Y3910032D1*
X10068857Y3911032D1*
X10062857Y3913032D1*
X10060857Y3914032D1*
X10054857Y3916032D1*
X10052857Y3917032D1*
X10049857Y3918032D1*
X10047857Y3919032D1*
X10041857Y3921032D1*
X10039857Y3922032D1*
X10036857Y3923032D1*
X10035857Y3893032D1*
X10034857Y3891032D1*
X10031857Y3888032D1*
X10030857D1*
X10029857Y3887032D1*
X10025857D1*
X10024857Y3888032D1*
X10023857D1*
X10020857Y3891032D1*
X10019857Y3893032D1*
Y3874032D1*
X10023857Y3877032D1*
X10024857Y3878032D1*
X10105857D1*
X10106857Y3877032D1*
X10107857D1*
X10110857Y3874032D1*
X10112857Y3870032D1*
Y3868032D1*
X10110857Y3864032D1*
X10107857Y3861032D1*
X10106857D1*
X10072857Y3860032D1*
Y3837032D1*
X10106857Y3836032D1*
X10107857D1*
X10110857Y3833032D1*
X10112857Y3829032D1*
Y3827032D1*
X10110857Y3823032D1*
X10107857Y3820032D1*
X10106857D1*
X10105857Y3819032D1*
X10024857D1*
X10023857Y3820032D1*
X10022857D1*
X10019857Y3823032D1*
X10018857Y3825032D1*
Y3736032D1*
X10156857D1*
Y4573032D1*
X10111857D1*
Y4464032D1*
X10112857Y4462032D1*
Y4460032D1*
X10111857Y4458032D1*
Y4417032D1*
X10112857Y4415032D1*
Y4413032D1*
X10110857Y4409032D1*
X10106857Y4405032D1*
X10105857D1*
X10073857Y4389032D1*
X10072857Y4388032D1*
Y4383032D1*
X10106857Y4382032D1*
X10107857D1*
X10110857Y4379032D1*
X10112857Y4375032D1*
Y4373032D1*
X10111857Y4371032D1*
Y4350032D1*
X10112857Y4348032D1*
Y4346032D1*
X10110857Y4342032D1*
X10106857Y4338032D1*
X10104857D1*
X10101857Y4337032D1*
X10097857Y4336032D1*
X10088857Y4333032D1*
X10086857Y4332032D1*
Y4315032D1*
X10087857Y4314032D1*
X10090857Y4313032D1*
X10094857Y4312032D1*
X10100857Y4310032D1*
X10104857Y4309032D1*
X10106857D1*
X10110857Y4305032D1*
X10112857Y4301032D1*
Y4299032D1*
X10110857Y4295032D1*
X10107857Y4292032D1*
X10106857D1*
X10105857Y4291032D1*
X10100857D1*
X10099857Y4292032D1*
X10096857Y4293032D1*
X10092857Y4294032D1*
X10086857Y4296032D1*
X10082857Y4297032D1*
X10076857Y4299032D1*
X10072857Y4300032D1*
X10066857Y4302032D1*
X10062857Y4303032D1*
X10059857Y4304032D1*
X10055857Y4305032D1*
X10049857Y4307032D1*
X10045857Y4308032D1*
X10039857Y4310032D1*
X10035857Y4311032D1*
X10029857Y4313032D1*
X10025857Y4314032D1*
X10023857D1*
X10019857Y4318032D1*
X10017857Y4322032D1*
Y4324032D1*
X10019857Y4328032D1*
X10023857Y4332032D1*
X10025857D1*
X10028857Y4333032D1*
X10032857Y4334032D1*
X10044857Y4338032D1*
X10048857Y4339032D1*
X10057857Y4342032D1*
X10061857Y4343032D1*
X10073857Y4347032D1*
X10077857Y4348032D1*
X10089857Y4352032D1*
X10093857Y4353032D1*
X10099857Y4355032D1*
X10100857Y4356032D1*
X10105857D1*
X10106857Y4355032D1*
X10107857D1*
X10110857Y4352032D1*
X10111857Y4350032D1*
Y4371032D1*
G37*
G36*
X10035857Y4383032D2*
X10054857D1*
Y4398032D1*
X10052857Y4403032D1*
X10049857Y4404032D1*
X10047857Y4405032D1*
X10043857D1*
X10040857Y4404032D1*
X10038857Y4403032D1*
X10037857Y4402032D1*
X10035857Y4398032D1*
Y4383032D1*
G37*
G36*
X10057857Y4323032D2*
X10059857D1*
X10060857Y4322032D1*
X10063857Y4321032D1*
X10067857Y4320032D1*
X10068857D1*
Y4326032D1*
X10065857D1*
X10059857Y4324032D1*
X10058733Y4322846D1*
X10057857Y4323032D1*
G37*
G36*
X10065857Y4120032D2*
X10066857Y4117032D1*
X10067857Y4115032D1*
X10069857Y4113032D1*
X10071857Y4112032D1*
X10074857Y4111032D1*
X10078857Y4110032D1*
X10079857D1*
X10084857Y4111032D1*
X10088857Y4112032D1*
X10092857Y4116032D1*
X10093857Y4118032D1*
Y4121032D1*
X10092857Y4124032D1*
X10088857Y4128032D1*
X10084857Y4129032D1*
X10081857Y4130032D1*
X10078857D1*
X10074857Y4129032D1*
X10071857Y4128032D1*
X10068857Y4126032D1*
X10067857Y4125032D1*
X10066857Y4123032D1*
X10065857Y4120032D1*
G37*
X3108144Y4328619D2*
D119*
Y4226532D1*
X3162591Y4328619D2*
Y4226532D1*
X3108144Y4279990D2*
X3162591D1*
X3213690Y4226532D2*
X3252593Y4328507D1*
X3198147D1*
X3288149Y4226532D2*
X3342596Y4328507D1*
X3436461Y4304361D2*
X3432598Y4314019D1*
X3424781Y4323790D1*
X3417055Y4328619D1*
X3401511D1*
X3393695Y4323790D1*
X3385968Y4314019D1*
X3382015Y4304361D1*
X3378151Y4289761D1*
Y4265390D1*
X3382015Y4250903D1*
X3385968Y4241132D1*
X3393695Y4231473D1*
X3401511Y4226532D1*
X3417055D1*
X3424781Y4231473D1*
X3432598Y4241132D1*
X3436461Y4250903D1*
X3518647Y4314019D2*
X3514784Y4323678D1*
X3503104Y4328507D1*
X3495377D1*
X3483697Y4323678D1*
X3475880Y4309078D1*
X3472017Y4284819D1*
Y4260561D1*
X3475880Y4241132D1*
X3483697Y4231361D1*
X3495377Y4226532D1*
X3499240D1*
X3510830Y4231361D1*
X3518647Y4241132D1*
X3522510Y4255732D1*
Y4260561D1*
X3518647Y4275161D1*
X3510830Y4284819D1*
X3499240Y4289649D1*
X3495377D1*
X3483697Y4284819D1*
X3475880Y4275161D1*
X3472017Y4260561D1*
X3558066Y4226532D2*
X3612513Y4328507D1*
X3648068Y4328619D2*
Y4226532D1*
X3741934Y4304361D2*
X3738071Y4314019D1*
X3730254Y4323790D1*
X3722527Y4328619D1*
X3706984D1*
X3699167Y4323790D1*
X3691440Y4314019D1*
X3687487Y4304361D1*
X3683624Y4289761D1*
Y4265390D1*
X3687487Y4250903D1*
X3691440Y4241132D1*
X3699167Y4231473D1*
X3706984Y4226532D1*
X3722527D1*
X3730254Y4231473D1*
X3738071Y4241132D1*
X3741934Y4250903D1*
X3827983Y4328619D2*
X3777490D1*
Y4226532D1*
X3827983D1*
X3777490Y4279990D2*
X3808576D1*
X3902442Y4226532D2*
Y4328507D1*
X3863539Y4260561D1*
X3921849D1*
X3980764Y4328507D2*
X3969084Y4323678D1*
X3961268Y4309078D1*
X3957404Y4284819D1*
Y4270219D1*
X3961268Y4245961D1*
X3969084Y4231361D1*
X3980764Y4226532D1*
X3988491D1*
X4000171Y4231361D1*
X4007898Y4245961D1*
X4011851Y4270219D1*
Y4284819D1*
X4007898Y4309078D1*
X4000171Y4323678D1*
X3988491Y4328507D1*
X3980764D1*
X4007898Y4309078D2*
X3961268Y4245961D1*
X4047407Y4328619D2*
Y4226532D1*
X4101853Y4328619D2*
Y4226532D1*
X4047407Y4279990D2*
X4101853D1*
X4137409Y4328619D2*
X4191856Y4226532D1*
Y4328619D2*
X4137409Y4226532D1*
X3313273Y4092301D2*
X3309409Y4101959D1*
X3301593Y4111730D1*
X3293866Y4116559D1*
X3278322D1*
X3270506Y4111730D1*
X3262779Y4101959D1*
X3258826Y4092301D1*
X3254962Y4077701D1*
Y4053330D1*
X3258826Y4038842D1*
X3262779Y4029071D1*
X3270506Y4019413D1*
X3278322Y4014471D1*
X3293866D1*
X3301593Y4019413D1*
X3309409Y4029071D1*
X3313273Y4038842D1*
X3368235Y4082530D2*
X3360508Y4077701D1*
X3352692Y4067930D1*
X3348828Y4053330D1*
Y4043671D1*
X3352692Y4029071D1*
X3360508Y4019413D1*
X3368235Y4014471D1*
X3379915D1*
X3387732Y4019413D1*
X3395458Y4029071D1*
X3399412Y4043671D1*
Y4053330D1*
X3395458Y4067930D1*
X3387732Y4077701D1*
X3379915Y4082530D1*
X3368235D1*
X3434967D2*
Y4014471D1*
Y4053330D2*
X3438920Y4067930D1*
X3446647Y4077701D1*
X3454464Y4082530D1*
X3466144D1*
X3501699Y4053330D2*
X3548329D1*
Y4063101D1*
X3544466Y4072871D1*
X3540603Y4077701D1*
X3532786Y4082530D1*
X3521106D1*
X3513379Y4077701D1*
X3505563Y4067930D1*
X3501699Y4053330D1*
Y4043671D1*
X3505563Y4029071D1*
X3513379Y4019413D1*
X3521106Y4014471D1*
X3532786D1*
X3540603Y4019413D1*
X3548329Y4029071D1*
X3673348Y4116559D2*
Y4014471D1*
X3708388D1*
X3720068Y4019413D1*
X3723932Y4024242D1*
X3727795Y4033901D1*
Y4048501D1*
X3723932Y4058271D1*
X3720068Y4063101D1*
X3708388Y4067930D1*
X3720068Y4072871D1*
X3723932Y4077701D1*
X3727795Y4087359D1*
Y4097130D1*
X3723932Y4106788D1*
X3720068Y4111730D1*
X3708388Y4116559D1*
X3673348D1*
Y4067930D2*
X3708388D1*
X3782757Y4082530D2*
X3775031Y4077701D1*
X3767214Y4067930D1*
X3763351Y4053330D1*
Y4043671D1*
X3767214Y4029071D1*
X3775031Y4019413D1*
X3782757Y4014471D1*
X3794437D1*
X3802254Y4019413D1*
X3809981Y4029071D1*
X3813934Y4043671D1*
Y4053330D1*
X3809981Y4067930D1*
X3802254Y4077701D1*
X3794437Y4082530D1*
X3782757D1*
X3896120D2*
Y4014471D1*
Y4067930D2*
X3888393Y4077701D1*
X3880576Y4082530D1*
X3868986D1*
X3861170Y4077701D1*
X3853443Y4067930D1*
X3849490Y4053330D1*
Y4043671D1*
X3853443Y4029071D1*
X3861170Y4019413D1*
X3868986Y4014471D1*
X3880576D1*
X3888393Y4019413D1*
X3896120Y4029071D1*
X3931675Y4082530D2*
Y4014471D1*
Y4053330D2*
X3935628Y4067930D1*
X3943355Y4077701D1*
X3951172Y4082530D1*
X3962852D1*
X4045038Y4116559D2*
Y4014471D1*
Y4067930D2*
X4037311Y4077701D1*
X4029494Y4082530D1*
X4017814D1*
X4010087Y4077701D1*
X4002271Y4067930D1*
X3998407Y4053330D1*
Y4043671D1*
X4002271Y4029071D1*
X4010087Y4019413D1*
X4017814Y4014471D1*
X4029494D1*
X4037311Y4019413D1*
X4045038Y4029071D1*
X7369503Y4328619D2*
Y4226532D1*
X7396726D1*
X7408406Y4231473D1*
X7416223Y4241132D1*
X7420086Y4250903D1*
X7423950Y4265390D1*
Y4289761D1*
X7420086Y4304361D1*
X7416223Y4314019D1*
X7408406Y4323790D1*
X7396726Y4328619D1*
X7369503D1*
X7459505Y4265390D2*
X7506135D1*
Y4275161D1*
X7502272Y4284932D1*
X7498409Y4289761D1*
X7490592Y4294590D1*
X7478912D1*
X7471185Y4289761D1*
X7463369Y4279990D1*
X7459505Y4265390D1*
Y4255732D1*
X7463369Y4241132D1*
X7471185Y4231473D1*
X7478912Y4226532D1*
X7490592D1*
X7498409Y4231473D1*
X7506135Y4241132D1*
X7584458Y4279990D2*
X7580594Y4289761D1*
X7568914Y4294590D1*
X7557234D1*
X7545554Y4289761D1*
X7541691Y4279990D1*
X7545554Y4270332D1*
X7553371Y4265390D1*
X7572778Y4260561D1*
X7580594Y4255732D1*
X7584458Y4245961D1*
Y4241132D1*
X7580594Y4231473D1*
X7568914Y4226532D1*
X7557234D1*
X7545554Y4231473D1*
X7541691Y4241132D1*
X7620013Y4328619D2*
X7623877Y4323790D1*
X7627830Y4328619D1*
X7623877Y4333561D1*
X7620013Y4328619D1*
X7623877Y4294590D2*
Y4226532D1*
X7710016Y4289761D2*
Y4211932D1*
X7706152Y4197444D1*
X7702289Y4192503D1*
X7694472Y4187673D1*
X7682792D1*
X7675065Y4192503D1*
X7710016Y4275161D2*
X7702289Y4284819D1*
X7694472Y4289761D1*
X7682792D1*
X7675065Y4284819D1*
X7667249Y4275161D1*
X7663385Y4260561D1*
Y4250790D1*
X7667249Y4236303D1*
X7675065Y4226532D1*
X7682792Y4221703D1*
X7694472D1*
X7702289Y4226532D1*
X7710016Y4236303D1*
X7745571Y4294590D2*
Y4226532D1*
Y4275161D2*
X7757251Y4289761D1*
X7765068Y4294590D1*
X7776658D1*
X7784474Y4289761D1*
X7788338Y4275161D1*
Y4226532D1*
X7823893Y4265390D2*
X7870524D1*
Y4275161D1*
X7866660Y4284932D1*
X7862797Y4289761D1*
X7854980Y4294590D1*
X7843300D1*
X7835573Y4289761D1*
X7827757Y4279990D1*
X7823893Y4265390D1*
Y4255732D1*
X7827757Y4241132D1*
X7835573Y4231473D1*
X7843300Y4226532D1*
X7854980D1*
X7862797Y4231473D1*
X7870524Y4241132D1*
X7952709Y4328619D2*
Y4226532D1*
Y4279990D2*
X7944982Y4289761D1*
X7937166Y4294590D1*
X7925486D1*
X7917759Y4289761D1*
X7909942Y4279990D1*
X7906079Y4265390D1*
Y4255732D1*
X7909942Y4241132D1*
X7917759Y4231473D1*
X7925486Y4226532D1*
X7937166D1*
X7944982Y4231473D1*
X7952709Y4241132D1*
X8077728Y4328619D2*
Y4226532D1*
Y4279990D2*
X8085545Y4289761D1*
X8093271Y4294590D1*
X8104951D1*
X8112678Y4289761D1*
X8120495Y4279990D1*
X8124358Y4265390D1*
Y4255732D1*
X8120495Y4241132D1*
X8112678Y4231473D1*
X8104951Y4226532D1*
X8093271D1*
X8085545Y4231473D1*
X8077728Y4241132D1*
X8163867Y4294590D2*
X8187137Y4226532D1*
X8179410Y4207103D1*
X8171594Y4197332D1*
X8163867Y4192503D1*
X8159914D1*
X8210497Y4294590D2*
X8187137Y4226532D1*
X7255445Y4116559D2*
Y4014471D1*
X7282669D1*
X7294349Y4019413D1*
X7302165Y4029071D1*
X7306029Y4038842D1*
X7309892Y4053330D1*
Y4077701D1*
X7306029Y4092301D1*
X7302165Y4101959D1*
X7294349Y4111730D1*
X7282669Y4116559D1*
X7255445D1*
X7364854Y4082530D2*
X7357128Y4077701D1*
X7349311Y4067930D1*
X7345448Y4053330D1*
Y4043671D1*
X7349311Y4029071D1*
X7357128Y4019413D1*
X7364854Y4014471D1*
X7376534D1*
X7384351Y4019413D1*
X7392078Y4029071D1*
X7396031Y4043671D1*
Y4053330D1*
X7392078Y4067930D1*
X7384351Y4077701D1*
X7376534Y4082530D1*
X7364854D1*
X7431587D2*
Y4014471D1*
Y4063101D2*
X7443267Y4077701D1*
X7451083Y4082530D1*
X7462673D1*
X7470490Y4077701D1*
X7474353Y4063101D1*
Y4014471D1*
Y4063101D2*
X7486033Y4077701D1*
X7493850Y4082530D1*
X7505440D1*
X7513257Y4077701D1*
X7517210Y4063101D1*
Y4014471D1*
X7552765Y4116559D2*
X7556629Y4111730D1*
X7560582Y4116559D1*
X7556629Y4121501D1*
X7552765Y4116559D1*
X7556629Y4082530D2*
Y4014471D1*
X7596138Y4082530D2*
Y4014471D1*
Y4063101D2*
X7607818Y4077701D1*
X7615634Y4082530D1*
X7627224D1*
X7635041Y4077701D1*
X7638904Y4063101D1*
Y4014471D1*
X7674460Y4116559D2*
X7678323Y4111730D1*
X7682277Y4116559D1*
X7678323Y4121501D1*
X7674460Y4116559D1*
X7678323Y4082530D2*
Y4014471D1*
X7764552Y4067930D2*
X7756736Y4077701D1*
X7748919Y4082530D1*
X7737329D1*
X7729512Y4077701D1*
X7721785Y4067930D1*
X7717832Y4053330D1*
Y4043671D1*
X7721785Y4029071D1*
X7729512Y4019413D1*
X7737329Y4014471D1*
X7748919D1*
X7756736Y4019413D1*
X7764552Y4029071D1*
X7947881Y4092301D2*
X7944018Y4101959D1*
X7936201Y4111730D1*
X7928474Y4116559D1*
X7912931D1*
X7905114Y4111730D1*
X7897388Y4101959D1*
X7893434Y4092301D1*
X7889571Y4077701D1*
Y4053330D1*
X7893434Y4038842D1*
X7897388Y4029071D1*
X7905114Y4019413D1*
X7912931Y4014471D1*
X7928474D1*
X7936201Y4019413D1*
X7944018Y4029071D1*
X7947881Y4038842D1*
X7983437Y4116559D2*
Y4014471D1*
X8018992Y4116559D2*
X8022856Y4111730D1*
X8026809Y4116559D1*
X8022856Y4121501D1*
X8018992Y4116559D1*
X8022856Y4082530D2*
Y4014471D1*
X8093451Y4116559D2*
X8085724D1*
X8077908Y4111730D1*
X8074044Y4097130D1*
Y4014471D1*
X8062364Y4082530D2*
X8089588D1*
X8140687Y4116559D2*
Y4033901D1*
X8144550Y4019413D1*
X8152367Y4014471D1*
X8160093D1*
X8129007Y4082530D2*
X8156230D1*
X8215056D2*
X8207329Y4077701D1*
X8199512Y4067930D1*
X8195649Y4053330D1*
Y4043671D1*
X8199512Y4029071D1*
X8207329Y4019413D1*
X8215056Y4014471D1*
X8226736D1*
X8234552Y4019413D1*
X8242279Y4029071D1*
X8246232Y4043671D1*
Y4053330D1*
X8242279Y4067930D1*
X8234552Y4077701D1*
X8226736Y4082530D1*
X8215056D1*
X8281788D2*
Y4014471D1*
Y4063101D2*
X8293468Y4077701D1*
X8301285Y4082530D1*
X8312875D1*
X8320691Y4077701D1*
X8324555Y4063101D1*
Y4014471D1*
X8965630Y2291095D2*
D120*
X8991843D1*
X9000603Y2294801D1*
X9003568Y2298423D1*
X9006465Y2305667D1*
Y2312995D1*
X9003568Y2320239D1*
X9000603Y2323945D1*
X8991843Y2327567D1*
X8965630D1*
Y2251001D1*
X8986048Y2291095D2*
X9006465Y2251001D1*
X9033132D2*
X9073967Y2327483D1*
X9121051Y2327567D2*
Y2251001D1*
X9100634Y2327567D2*
X9141469D1*
X9168135Y2251001D2*
X9208971Y2327483D1*
X9279370Y2309373D2*
X9276472Y2316617D1*
X9270610Y2323945D1*
X9264815Y2327567D1*
X9253157D1*
X9247295Y2323945D1*
X9241500Y2316617D1*
X9238535Y2309373D1*
X9235637Y2298423D1*
Y2280145D1*
X9238535Y2269279D1*
X9241500Y2261951D1*
X9247295Y2254707D1*
X9253157Y2251001D1*
X9264815D1*
X9270610Y2254707D1*
X9276472Y2261951D1*
X9279370Y2269279D1*
Y2280145D1*
X9264815D1*
X10230024Y5505921D2*
D123*
X10204777D1*
Y5454877D1*
X10230024D1*
X10204777Y5481606D2*
X10220320D1*
X10275025Y5498621D2*
X10271162Y5503506D1*
X10265322Y5505921D1*
X10257550D1*
X10251710Y5503506D1*
X10247802Y5498621D1*
Y5493791D1*
X10249778Y5488906D1*
X10251710Y5486491D1*
X10255573Y5484077D1*
X10267253Y5479191D1*
X10271162Y5476777D1*
X10273093Y5474306D1*
X10275025Y5469477D1*
Y5462177D1*
X10271162Y5457348D1*
X10265322Y5454877D1*
X10257550D1*
X10251710Y5457348D1*
X10247802Y5462177D1*
X10292803Y5479191D2*
X10310323D1*
X10316118Y5481606D1*
X10318094Y5484077D1*
X10320026Y5488906D1*
Y5496206D1*
X10318094Y5501035D1*
X10316118Y5503506D1*
X10310323Y5505921D1*
X10292803D1*
Y5454877D1*
X10337804Y5480371D2*
X10360266D1*
X10407198Y5493791D2*
X10405267Y5498621D1*
X10401358Y5503506D1*
X10397495Y5505921D1*
X10389723D1*
X10385815Y5503506D1*
X10381952Y5498621D1*
X10379975Y5493791D1*
X10378043Y5486491D1*
Y5474306D1*
X10379975Y5467062D1*
X10381952Y5462177D1*
X10385815Y5457348D1*
X10389723Y5454877D1*
X10397495D1*
X10401358Y5457348D1*
X10405267Y5462177D1*
X10407198Y5467062D1*
X10448291Y5498621D2*
X10446360Y5503450D1*
X10440520Y5505864D1*
X10436656D1*
X10430816Y5503450D1*
X10426908Y5496150D1*
X10424976Y5484021D1*
Y5471891D1*
X10426908Y5462177D1*
X10430816Y5457291D1*
X10436656Y5454877D1*
X10438588D1*
X10444383Y5457291D1*
X10448291Y5462177D1*
X10450223Y5469477D1*
Y5471891D1*
X10448291Y5479191D1*
X10444383Y5484021D1*
X10438588Y5486435D1*
X10436656D1*
X10430816Y5484021D1*
X10426908Y5479191D1*
X10424976Y5471891D1*
X10242523Y5419169D2*
Y5368125D1*
X10260043D1*
X10265883Y5370596D1*
X10267815Y5373010D1*
X10269747Y5377839D1*
Y5385139D1*
X10267815Y5390025D1*
X10265883Y5392439D1*
X10260043Y5394854D1*
X10265883Y5397325D1*
X10267815Y5399739D1*
X10269747Y5404569D1*
Y5409454D1*
X10267815Y5414283D1*
X10265883Y5416754D1*
X10260043Y5419169D1*
X10242523D1*
Y5394854D2*
X10260043D1*
X10299204Y5419169D2*
X10295296Y5416754D1*
X10291433Y5411869D1*
X10289456Y5407039D1*
X10287524Y5399739D1*
Y5387554D1*
X10289456Y5380310D1*
X10291433Y5375425D1*
X10295296Y5370596D1*
X10299204Y5368125D1*
X10306976D1*
X10310839Y5370596D1*
X10314748Y5375425D1*
X10316679Y5380310D1*
X10318611Y5387554D1*
Y5399739D1*
X10316679Y5407039D1*
X10314748Y5411869D1*
X10310839Y5416754D1*
X10306976Y5419169D1*
X10299204D1*
X10348069D2*
X10344161Y5416754D1*
X10340297Y5411869D1*
X10338321Y5407039D1*
X10336389Y5399739D1*
Y5387554D1*
X10338321Y5380310D1*
X10340297Y5375425D1*
X10344161Y5370596D1*
X10348069Y5368125D1*
X10355841D1*
X10359704Y5370596D1*
X10363612Y5375425D1*
X10365544Y5380310D1*
X10367476Y5387554D1*
Y5399739D1*
X10365544Y5407039D1*
X10363612Y5411869D1*
X10359704Y5416754D1*
X10355841Y5419169D1*
X10348069D1*
X10398865D2*
Y5368125D1*
X10385253Y5419169D2*
X10412477D1*
X1138888Y5505921D2*
Y5454877D1*
X1166111Y5505921D2*
Y5454877D1*
X1138888Y5481606D2*
X1166111D1*
X1191661Y5454877D2*
X1211112Y5505864D1*
X1183889D1*
X1090023Y5419169D2*
Y5368125D1*
X1107543D1*
X1113383Y5370596D1*
X1115315Y5373010D1*
X1117247Y5377839D1*
Y5385139D1*
X1115315Y5390025D1*
X1113383Y5392439D1*
X1107543Y5394854D1*
X1113383Y5397325D1*
X1115315Y5399739D1*
X1117247Y5404569D1*
Y5409454D1*
X1115315Y5414283D1*
X1113383Y5416754D1*
X1107543Y5419169D1*
X1090023D1*
Y5394854D2*
X1107543D1*
X1146704Y5419169D2*
X1142796Y5416754D1*
X1138933Y5411869D1*
X1136956Y5407039D1*
X1135024Y5399739D1*
Y5387554D1*
X1136956Y5380310D1*
X1138933Y5375425D1*
X1142796Y5370596D1*
X1146704Y5368125D1*
X1154476D1*
X1158339Y5370596D1*
X1162248Y5375425D1*
X1164179Y5380310D1*
X1166111Y5387554D1*
Y5399739D1*
X1164179Y5407039D1*
X1162248Y5411869D1*
X1158339Y5416754D1*
X1154476Y5419169D1*
X1146704D1*
X1195569D2*
X1191661Y5416754D1*
X1187797Y5411869D1*
X1185821Y5407039D1*
X1183889Y5399739D1*
Y5387554D1*
X1185821Y5380310D1*
X1187797Y5375425D1*
X1191661Y5370596D1*
X1195569Y5368125D1*
X1203341D1*
X1207204Y5370596D1*
X1211112Y5375425D1*
X1213044Y5380310D1*
X1214976Y5387554D1*
Y5399739D1*
X1213044Y5407039D1*
X1211112Y5411869D1*
X1207204Y5416754D1*
X1203341Y5419169D1*
X1195569D1*
X1246365D2*
Y5368125D1*
X1232753Y5419169D2*
X1259977D1*
X1904464Y1122488D2*
X1925802D1*
X1914167Y1103059D1*
X1920007D1*
X1923871Y1100645D1*
X1925802Y1098230D1*
X1927779Y1090930D1*
Y1086101D1*
X1925802Y1078801D1*
X1921939Y1073915D1*
X1916099Y1071501D1*
X1910259D1*
X1904464Y1073915D1*
X1902532Y1076386D1*
X1900556Y1081215D1*
X1945557Y1122545D2*
X1961100Y1071501D1*
X1976643Y1122545D1*
X1998330Y1122488D2*
X2019668D1*
X2008033Y1103059D1*
X2013873D1*
X2017736Y1100645D1*
X2019668Y1098230D1*
X2021645Y1090930D1*
Y1086101D1*
X2019668Y1078801D1*
X2015805Y1073915D1*
X2009965Y1071501D1*
X2004125D1*
X1998330Y1073915D1*
X1996398Y1076386D1*
X1994421Y1081215D1*
X2039422Y1063078D2*
X2076349D1*
X2119374Y1122545D2*
X2094127D1*
Y1071501D1*
X2119374D1*
X2094127Y1098230D2*
X2109670D1*
X2164375Y1115245D2*
X2160512Y1120130D1*
X2154672Y1122545D1*
X2146900D1*
X2141060Y1120130D1*
X2137152Y1115245D1*
Y1110415D1*
X2139128Y1105530D1*
X2141060Y1103115D1*
X2144923Y1100701D1*
X2156603Y1095815D1*
X2160512Y1093401D1*
X2162443Y1090930D1*
X2164375Y1086101D1*
Y1078801D1*
X2160512Y1073972D1*
X2154672Y1071501D1*
X2146900D1*
X2141060Y1073972D1*
X2137152Y1078801D1*
X2182153Y1095815D2*
X2199673D1*
X2205468Y1098230D1*
X2207444Y1100701D1*
X2209376Y1105530D1*
Y1112830D1*
X2207444Y1117659D1*
X2205468Y1120130D1*
X2199673Y1122545D1*
X2182153D1*
Y1071501D1*
X1904464Y1502488D2*
X1925802D1*
X1914167Y1483059D1*
X1920007D1*
X1923871Y1480645D1*
X1925802Y1478230D1*
X1927779Y1470930D1*
Y1466101D1*
X1925802Y1458801D1*
X1921939Y1453915D1*
X1916099Y1451501D1*
X1910259D1*
X1904464Y1453915D1*
X1902532Y1456386D1*
X1900556Y1461215D1*
X1945557Y1502545D2*
X1961100Y1451501D1*
X1976643Y1502545D1*
X1998330Y1502488D2*
X2019668D1*
X2008033Y1483059D1*
X2013873D1*
X2017736Y1480645D1*
X2019668Y1478230D1*
X2021645Y1470930D1*
Y1466101D1*
X2019668Y1458801D1*
X2015805Y1453915D1*
X2009965Y1451501D1*
X2004125D1*
X1998330Y1453915D1*
X1996398Y1456386D1*
X1994421Y1461215D1*
X2039422Y1443078D2*
X2076349D1*
X2094127Y1502545D2*
Y1451501D1*
X2121350Y1502545D2*
Y1451501D1*
X2094127Y1478230D2*
X2121350D1*
X2146900Y1451501D2*
X2166352Y1502488D1*
X2139128D1*
X2214464Y2242488D2*
X2235802D1*
X2224167Y2223059D1*
X2230007D1*
X2233871Y2220645D1*
X2235802Y2218230D1*
X2237779Y2210930D1*
Y2206101D1*
X2235802Y2198801D1*
X2231939Y2193915D1*
X2226099Y2191501D1*
X2220259D1*
X2214464Y2193915D1*
X2212532Y2196386D1*
X2210556Y2201215D1*
X2255557Y2242545D2*
X2271100Y2191501D1*
X2286643Y2242545D1*
X2308330Y2242488D2*
X2329668D1*
X2318033Y2223059D1*
X2323873D1*
X2327736Y2220645D1*
X2329668Y2218230D1*
X2331645Y2210930D1*
Y2206101D1*
X2329668Y2198801D1*
X2325805Y2193915D1*
X2319965Y2191501D1*
X2314125D1*
X2308330Y2193915D1*
X2306398Y2196386D1*
X2304421Y2201215D1*
X2239711Y2485415D2*
X2237779Y2490245D1*
X2233871Y2495130D1*
X2230007Y2497545D1*
X2222236D1*
X2218327Y2495130D1*
X2214464Y2490245D1*
X2212487Y2485415D1*
X2210556Y2478115D1*
Y2465930D1*
X2212487Y2458686D1*
X2214464Y2453801D1*
X2218327Y2448972D1*
X2222236Y2446501D1*
X2230007D1*
X2233871Y2448972D1*
X2237779Y2453801D1*
X2239711Y2458686D1*
Y2465930D1*
X2230007D1*
X2284712Y2497545D2*
Y2446501D1*
X2257488Y2497545D1*
Y2446501D1*
X2302490Y2497545D2*
Y2446501D1*
X2316101D1*
X2321941Y2448972D1*
X2325850Y2453801D1*
X2327781Y2458686D1*
X2329713Y2465930D1*
Y2478115D1*
X2327781Y2485415D1*
X2325850Y2490245D1*
X2321941Y2495130D1*
X2316101Y2497545D1*
X2302490D1*
X2239711Y2740415D2*
X2237779Y2745245D1*
X2233871Y2750130D1*
X2230007Y2752545D1*
X2222236D1*
X2218327Y2750130D1*
X2214464Y2745245D1*
X2212487Y2740415D1*
X2210556Y2733115D1*
Y2720930D1*
X2212487Y2713686D1*
X2214464Y2708801D1*
X2218327Y2703972D1*
X2222236Y2701501D1*
X2230007D1*
X2233871Y2703972D1*
X2237779Y2708801D1*
X2239711Y2713686D1*
X2257488Y2752545D2*
Y2701501D1*
X2280803D1*
X2298581Y2752545D2*
Y2701501D1*
X2325805Y2752545D2*
X2298581Y2718515D1*
X2308285Y2730701D2*
X2325805Y2701501D1*
X2210556Y3007545D2*
Y2956501D1*
X2224167D1*
X2230007Y2958972D1*
X2233916Y2963801D1*
X2235847Y2968686D1*
X2237779Y2975930D1*
Y2988115D1*
X2235847Y2995415D1*
X2233916Y3000245D1*
X2230007Y3005130D1*
X2224167Y3007545D1*
X2210556D1*
X2255557D2*
Y2956501D1*
X2285014Y3007545D2*
X2281106Y3005130D1*
X2277243Y3000245D1*
X2275266Y2995415D1*
X2273334Y2988115D1*
Y2975930D1*
X2275266Y2968686D1*
X2277243Y2963801D1*
X2281106Y2958972D1*
X2285014Y2956501D1*
X2292786D1*
X2296650Y2958972D1*
X2300558Y2963801D1*
X2302490Y2968686D1*
X2304421Y2975930D1*
Y2988115D1*
X2302490Y2995415D1*
X2300558Y3000245D1*
X2296650Y3005130D1*
X2292786Y3007545D1*
X2285014D1*
X3115939Y2843888D2*
X3166983D1*
Y2857500D1*
X3164512Y2863340D1*
X3159683Y2867248D1*
X3154798Y2869180D1*
X3147554Y2871112D1*
X3135369D1*
X3128069Y2869180D1*
X3123239Y2867248D1*
X3118354Y2863340D1*
X3115939Y2857500D1*
Y2843888D1*
X3128069Y2742078D2*
X3123239Y2740146D1*
X3118354Y2736238D1*
X3115939Y2732374D1*
Y2724602D1*
X3118354Y2720694D1*
X3123239Y2716831D1*
X3128069Y2714854D1*
X3135369Y2712922D1*
X3147554D1*
X3154798Y2714854D1*
X3159683Y2716831D1*
X3164512Y2720694D1*
X3166983Y2724602D1*
Y2732374D1*
X3164512Y2736238D1*
X3159683Y2740146D1*
X3154798Y2742078D1*
X3155254Y2333888D2*
Y2351363D1*
X3152783Y2357203D1*
X3150369Y2359180D1*
X3145539Y2361112D1*
X3140654D1*
X3135825Y2359180D1*
X3133354Y2357203D1*
X3130939Y2351363D1*
Y2333888D1*
X3181983D1*
X3155254Y2347500D2*
X3181983Y2361112D1*
X2384004Y2909136D2*
Y2887798D1*
X2364575Y2899433D1*
Y2893593D1*
X2362161Y2889729D1*
X2359746Y2887798D1*
X2352446Y2885821D1*
X2347617D1*
X2340317Y2887798D1*
X2335431Y2891661D1*
X2333017Y2897501D1*
Y2903341D1*
X2335431Y2909136D1*
X2337902Y2911068D1*
X2342731Y2913045D1*
X2384061Y2868043D2*
X2333017Y2852500D1*
X2384061Y2836957D1*
X2384004Y2815271D2*
Y2793932D1*
X2364575Y2805567D1*
Y2799727D1*
X2362161Y2795864D1*
X2359746Y2793932D1*
X2352446Y2791955D1*
X2347617D1*
X2340317Y2793932D1*
X2335431Y2797795D1*
X2333017Y2803635D1*
Y2809475D1*
X2335431Y2815271D1*
X2337902Y2817202D1*
X2342731Y2819179D1*
X2371931Y2632924D2*
X2376761Y2634855D1*
X2381646Y2638764D1*
X2384061Y2642627D1*
Y2650399D1*
X2381646Y2654307D1*
X2376761Y2658170D1*
X2371931Y2660147D1*
X2364631Y2662079D1*
X2352446D1*
X2345202Y2660147D1*
X2340317Y2658170D1*
X2335488Y2654307D1*
X2333017Y2650399D1*
Y2642627D1*
X2335488Y2638764D1*
X2340317Y2634855D1*
X2345202Y2632924D1*
X2352446D1*
Y2642627D1*
X2384061Y2587922D2*
X2333017D1*
X2384061Y2615146D1*
X2333017D1*
X2384061Y2570145D2*
X2333017D1*
Y2556533D1*
X2335488Y2550693D1*
X2340317Y2546785D1*
X2345202Y2544853D1*
X2352446Y2542921D1*
X2364631D1*
X2371931Y2544853D1*
X2376761Y2546785D1*
X2381646Y2550693D1*
X2384061Y2556533D1*
Y2570145D1*
X4074069Y1252517D2*
X4069240Y1250585D1*
X4064355Y1246677D1*
X4061940Y1242814D1*
Y1235042D1*
X4064355Y1231134D1*
X4069240Y1227270D1*
X4074069Y1225294D1*
X4081369Y1223362D1*
X4093555D1*
X4100799Y1225294D1*
X4105684Y1227270D1*
X4110513Y1231134D1*
X4112984Y1235042D1*
Y1242814D1*
X4110513Y1246677D1*
X4105684Y1250585D1*
X4100799Y1252517D1*
X4061940Y1270295D2*
X4112984D1*
Y1287815D1*
X4110513Y1293655D1*
X4108099Y1295587D1*
X4103269Y1297518D1*
X4095969D1*
X4091084Y1295587D1*
X4088669Y1293655D1*
X4086255Y1287815D1*
X4083784Y1293655D1*
X4081369Y1295587D1*
X4076540Y1297518D1*
X4071655D1*
X4066826Y1295587D1*
X4064355Y1293655D1*
X4061940Y1287815D1*
Y1270295D1*
X4086255D2*
Y1287815D1*
X4069240Y1342519D2*
X4064355Y1338656D1*
X4061940Y1332816D1*
Y1325044D1*
X4064355Y1319204D1*
X4069240Y1315296D1*
X4074069D1*
X4078955Y1317273D1*
X4081369Y1319204D1*
X4083784Y1323068D1*
X4088669Y1334748D1*
X4091084Y1338656D1*
X4093555Y1340588D1*
X4098384Y1342519D1*
X4105684D1*
X4110513Y1338656D1*
X4112984Y1332816D1*
Y1325044D1*
X4110513Y1319204D1*
X4105684Y1315296D1*
X4061940Y1385544D2*
Y1360297D1*
X4112984D1*
Y1385544D1*
X4086255Y1360297D2*
Y1375841D1*
X4061940Y1403322D2*
X4112984D1*
Y1426637D1*
X4061996Y1456095D2*
X4064411Y1450255D1*
X4071711Y1446346D1*
X4083840Y1444415D1*
X4091140D1*
X4103269Y1446346D1*
X4110569Y1450255D1*
X4112984Y1456095D1*
Y1459958D1*
X4110569Y1465798D1*
X4103269Y1469661D1*
X4091140Y1471638D1*
X4083840D1*
X4071711Y1469661D1*
X4064411Y1465798D1*
X4061996Y1459958D1*
Y1456095D1*
X4071711Y1469661D2*
X4103269Y1446346D1*
X4167971Y1217522D2*
X4204414D1*
X4211714Y1219454D1*
X4216544Y1223362D1*
X4219014Y1229202D1*
Y1233065D1*
X4216544Y1238905D1*
X4211714Y1242814D1*
X4204414Y1244745D1*
X4167971D1*
X4175271Y1289747D2*
X4170385Y1285883D1*
X4167971Y1280043D1*
Y1272271D1*
X4170385Y1266431D1*
X4175271Y1262523D1*
X4180100D1*
X4184985Y1264500D1*
X4187400Y1266431D1*
X4189814Y1270295D1*
X4194700Y1281975D1*
X4197114Y1285883D1*
X4199585Y1287815D1*
X4204414Y1289747D1*
X4211714D1*
X4216544Y1285883D1*
X4219014Y1280043D1*
Y1272271D1*
X4216544Y1266431D1*
X4211714Y1262523D1*
X4167971Y1332771D2*
Y1307524D1*
X4219014D1*
Y1332771D1*
X4192285Y1307524D2*
Y1323068D1*
Y1350549D2*
Y1368024D1*
X4189814Y1373864D1*
X4187400Y1375841D1*
X4182571Y1377772D1*
X4177685D1*
X4172856Y1375841D1*
X4170385Y1373864D1*
X4167971Y1368024D1*
Y1350549D1*
X4219014D1*
X4192285Y1364161D2*
X4219014Y1377772D1*
X4227437Y1395550D2*
Y1432477D1*
X4168027Y1461935D2*
X4170441Y1456095D1*
X4177741Y1452186D1*
X4189871Y1450255D1*
X4197171D1*
X4209300Y1452186D1*
X4216600Y1456095D1*
X4219014Y1461935D1*
Y1465798D1*
X4216600Y1471638D1*
X4209300Y1475501D1*
X4197171Y1477478D1*
X4189871D1*
X4177741Y1475501D1*
X4170441Y1471638D1*
X4168027Y1465798D1*
Y1461935D1*
X4177741Y1475501D2*
X4209300Y1452186D1*
X7430931Y1433745D2*
X7435760Y1435677D1*
X7440645Y1439585D1*
X7443060Y1443449D1*
Y1451220D1*
X7440645Y1455129D1*
X7435760Y1458992D1*
X7430931Y1460969D1*
X7423631Y1462900D1*
X7411445D1*
X7404201Y1460969D1*
X7399316Y1458992D1*
X7394487Y1455129D1*
X7392016Y1451220D1*
Y1443449D1*
X7394487Y1439585D1*
X7399316Y1435677D1*
X7404201Y1433745D1*
X7443060Y1415968D2*
X7392016D1*
Y1398448D1*
X7394487Y1392608D1*
X7396901Y1390676D1*
X7401731Y1388744D1*
X7409031D1*
X7413916Y1390676D1*
X7416331Y1392608D1*
X7418745Y1398448D1*
X7421216Y1392608D1*
X7423631Y1390676D1*
X7428460Y1388744D1*
X7433345D1*
X7438174Y1390676D1*
X7440645Y1392608D1*
X7443060Y1398448D1*
Y1415968D1*
X7418745D2*
Y1398448D1*
X7435760Y1343743D2*
X7440645Y1347606D1*
X7443060Y1353446D1*
Y1361218D1*
X7440645Y1367058D1*
X7435760Y1370966D1*
X7430931D1*
X7426045Y1368990D1*
X7423631Y1367058D1*
X7421216Y1363195D1*
X7416331Y1351515D1*
X7413916Y1347606D1*
X7411445Y1345675D1*
X7406616Y1343743D1*
X7399316D1*
X7394487Y1347606D1*
X7392016Y1353446D1*
Y1361218D1*
X7394487Y1367058D1*
X7399316Y1370966D1*
X7443060Y1300718D2*
Y1325965D1*
X7392016D1*
Y1300718D1*
X7418745Y1325965D2*
Y1310422D1*
X7443060Y1282941D2*
X7392016D1*
Y1259626D1*
X7433289Y1241848D2*
X7435760Y1237940D1*
X7443004Y1232100D1*
X7392016D1*
X7337029Y1468740D2*
X7300586D1*
X7293286Y1466809D1*
X7288456Y1462900D1*
X7285986Y1457060D1*
Y1453197D1*
X7288456Y1447357D1*
X7293286Y1443449D1*
X7300586Y1441517D1*
X7337029D1*
X7329729Y1396516D2*
X7334615Y1400379D1*
X7337029Y1406219D1*
Y1413991D1*
X7334615Y1419831D1*
X7329729Y1423739D1*
X7324900D1*
X7320015Y1421763D1*
X7317600Y1419831D1*
X7315186Y1415968D1*
X7310300Y1404288D1*
X7307886Y1400379D1*
X7305415Y1398448D1*
X7300586Y1396516D1*
X7293286D1*
X7288456Y1400379D1*
X7285986Y1406219D1*
Y1413991D1*
X7288456Y1419831D1*
X7293286Y1423739D1*
X7337029Y1353491D2*
Y1378738D1*
X7285986D1*
Y1353491D1*
X7312715Y1378738D2*
Y1363195D1*
Y1335714D2*
Y1318238D1*
X7315186Y1312398D1*
X7317600Y1310422D1*
X7322429Y1308490D1*
X7327315D1*
X7332144Y1310422D1*
X7334615Y1312398D1*
X7337029Y1318238D1*
Y1335714D1*
X7285986D1*
X7312715Y1322102D2*
X7285986Y1308490D1*
X7277563Y1290712D2*
Y1253786D1*
X7327259Y1236008D2*
X7329729Y1232100D1*
X7336973Y1226260D1*
X7285986D1*
X8429911Y2830048D2*
D119*
Y2779554D1*
X8531998D1*
Y2830048D1*
X8478540Y2779554D2*
Y2810641D1*
X8444511Y2920050D2*
X8434740Y2912323D1*
X8429911Y2900643D1*
Y2885100D1*
X8434740Y2873420D1*
X8444511Y2865603D1*
X8454169D1*
X8463940Y2869557D1*
X8468769Y2873420D1*
X8473598Y2881147D1*
X8483369Y2904507D1*
X8488198Y2912323D1*
X8493140Y2916187D1*
X8502798Y2920050D1*
X8517398D1*
X8527057Y2912323D1*
X8531998Y2900643D1*
Y2885100D1*
X8527057Y2873420D1*
X8517398Y2865603D1*
X8483369Y2955606D2*
Y2990646D1*
X8478540Y3002236D1*
X8473598Y3006189D1*
X8463940Y3010052D1*
X8449340D1*
X8439682Y3006189D1*
X8434740Y3002236D1*
X8429911Y2990646D1*
Y2955606D1*
X8531998D1*
X8481011Y3045608D2*
Y3090531D1*
X8454169Y3184397D2*
X8444511Y3180533D1*
X8434740Y3172717D1*
X8429911Y3164990D1*
Y3149447D1*
X8434740Y3141630D1*
X8444511Y3133903D1*
X8454169Y3129950D1*
X8468769Y3126087D1*
X8493140D1*
X8507628Y3129950D1*
X8517398Y3133903D1*
X8527057Y3141630D1*
X8531998Y3149447D1*
Y3164990D1*
X8527057Y3172717D1*
X8517398Y3180533D1*
X8507628Y3184397D1*
X8444511Y3266582D2*
X8434852Y3262719D1*
X8430023Y3251039D1*
Y3243312D1*
X8434852Y3231632D1*
X8449452Y3223816D1*
X8473711Y3219952D1*
X8497969D1*
X8517398Y3223816D1*
X8527169Y3231632D1*
X8531998Y3243312D1*
Y3247176D1*
X8527169Y3258766D1*
X8517398Y3266582D1*
X8502798Y3270446D1*
X8497969D1*
X8483369Y3266582D1*
X8473711Y3258766D1*
X8468882Y3247176D1*
Y3243312D1*
X8473711Y3231632D1*
X8483369Y3223816D1*
X8497969Y3219952D1*
X5463114Y5635489D2*
X5455387Y5645260D1*
X5443707Y5650089D1*
X5428164D1*
X5416484Y5645260D1*
X5408667Y5635489D1*
Y5625831D1*
X5412620Y5616060D1*
X5416484Y5611231D1*
X5424210Y5606402D1*
X5447570Y5596631D1*
X5455387Y5591802D1*
X5459250Y5586860D1*
X5463114Y5577202D1*
Y5562602D1*
X5455387Y5552943D1*
X5443707Y5548002D1*
X5428164D1*
X5416484Y5552943D1*
X5408667Y5562602D1*
X5525893Y5650089D2*
Y5548002D1*
X5498669Y5650089D2*
X5553116D1*
X5650845Y5548002D2*
Y5650089D1*
X5619758Y5548002D1*
X5588672Y5650089D1*
Y5548002D1*
X5694217Y5649977D2*
X5736894D1*
X5713624Y5611118D1*
X5725304D1*
X5733031Y5606289D1*
X5736894Y5601460D1*
X5740847Y5586860D1*
Y5577202D1*
X5736894Y5562602D1*
X5729167Y5552831D1*
X5717487Y5548002D1*
X5705807D1*
X5694217Y5552831D1*
X5690354Y5557772D1*
X5686401Y5567431D1*
X5780356Y5625718D2*
Y5630548D1*
X5784220Y5640318D1*
X5788083Y5645148D1*
X5795900Y5649977D1*
X5811443D1*
X5819170Y5645148D1*
X5823033Y5640318D1*
X5826986Y5630548D1*
Y5620889D1*
X5823033Y5611118D1*
X5815306Y5596631D1*
X5776403Y5548002D1*
X5830850D1*
X5866405Y5598989D2*
X5911328D1*
X5946884Y5650089D2*
Y5548002D1*
X6001331Y5650089D2*
Y5548002D1*
X5946884Y5601460D2*
X6001331D1*
X6052430Y5548002D2*
X6091333Y5649977D1*
X6036886D1*
X5478106Y3875089D2*
Y3773002D1*
X5571972Y3850831D2*
X5568109Y3860489D1*
X5560292Y3870260D1*
X5552565Y3875089D1*
X5537022D1*
X5529205Y3870260D1*
X5521478Y3860489D1*
X5517525Y3850831D1*
X5513662Y3836231D1*
Y3811860D1*
X5517525Y3797372D1*
X5521478Y3787602D1*
X5529205Y3777943D1*
X5537022Y3773002D1*
X5552565D1*
X5560292Y3777943D1*
X5568109Y3787602D1*
X5571972Y3797372D1*
X5658021Y3875089D2*
X5607528D1*
Y3773002D1*
X5658021D1*
X5607528Y3826460D2*
X5638614D1*
X5732480Y3773002D2*
Y3874977D1*
X5693577Y3807031D1*
X5751887D1*
X5810802Y3874977D2*
X5799122Y3870148D1*
X5791306Y3855548D1*
X5787442Y3831289D1*
Y3816689D1*
X5791306Y3792431D1*
X5799122Y3777831D1*
X5810802Y3773002D1*
X5818529D1*
X5830209Y3777831D1*
X5837936Y3792431D1*
X5841889Y3816689D1*
Y3831289D1*
X5837936Y3855548D1*
X5830209Y3870148D1*
X5818529Y3874977D1*
X5810802D1*
X5837936Y3855548D2*
X5791306Y3792431D1*
X5877445Y3875089D2*
Y3773002D1*
X5931891Y3875089D2*
Y3773002D1*
X5877445Y3826460D2*
X5931891D1*
X5967447Y3875089D2*
X6021894Y3773002D1*
Y3875089D2*
X5967447Y3773002D1*
X3224955Y2788347D2*
D123*
Y2763056D1*
X3275999D1*
X3249270D2*
Y2778599D1*
X3251685Y2806125D2*
Y2823645D1*
X3249270Y2829440D1*
X3246799Y2831417D1*
X3241970Y2833348D1*
X3234670D1*
X3229841Y2831417D1*
X3227370Y2829440D1*
X3224955Y2823645D1*
Y2806125D1*
X3275999D1*
X3237085Y2880281D2*
X3232255Y2878350D1*
X3227370Y2874441D1*
X3224955Y2870578D1*
Y2862806D1*
X3227370Y2858898D1*
X3232255Y2855034D1*
X3237085Y2853058D1*
X3244385Y2851126D1*
X3256570D1*
X3263814Y2853058D1*
X3268699Y2855034D1*
X3273528Y2858898D1*
X3275999Y2862806D1*
Y2870578D1*
X3273528Y2874441D1*
X3268699Y2878350D1*
X3263814Y2880281D1*
X3256570D1*
Y2870578D1*
X3275999Y2929191D2*
X3224955Y2913602D1*
X3275999Y2898059D1*
X3258985Y2903899D2*
Y2923351D1*
X3224955Y3423056D2*
X3275999D1*
X3224955Y3450279D2*
X3275999D1*
X3249270Y3423056D2*
Y3450279D1*
X3275999Y3475828D2*
X3225012Y3495280D1*
Y3468057D1*
X8232085Y2792211D2*
X8227255Y2790279D1*
X8222370Y2786371D1*
X8219955Y2782507D1*
Y2774736D1*
X8222370Y2770827D1*
X8227255Y2766964D1*
X8232085Y2764987D1*
X8239385Y2763056D1*
X8251570D1*
X8258814Y2764987D1*
X8263699Y2766964D1*
X8268528Y2770827D1*
X8270999Y2774736D1*
Y2782507D1*
X8268528Y2786371D1*
X8263699Y2790279D1*
X8258814Y2792211D1*
X8227255Y2833303D2*
X8222426Y2831372D1*
X8220012Y2825532D1*
Y2821668D1*
X8222426Y2815828D1*
X8229726Y2811920D1*
X8241855Y2809988D1*
X8253985D1*
X8263699Y2811920D1*
X8268585Y2815828D1*
X8270999Y2821668D1*
Y2823600D1*
X8268585Y2829395D1*
X8263699Y2833303D1*
X8256399Y2835235D1*
X8253985D1*
X8246685Y2833303D1*
X8241855Y2829395D1*
X8239441Y2823600D1*
Y2821668D1*
X8241855Y2815828D1*
X8246685Y2811920D1*
X8253985Y2809988D1*
X8232085Y3452211D2*
X8227255Y3450279D1*
X8222370Y3446371D1*
X8219955Y3442507D1*
Y3434736D1*
X8222370Y3430827D1*
X8227255Y3426964D1*
X8232085Y3424987D1*
X8239385Y3423056D1*
X8251570D1*
X8258814Y3424987D1*
X8263699Y3426964D1*
X8268528Y3430827D1*
X8270999Y3434736D1*
Y3442507D1*
X8268528Y3446371D1*
X8263699Y3450279D1*
X8258814Y3452211D1*
X8219955Y3469988D2*
X8270999D1*
Y3483600D1*
X8268528Y3489440D1*
X8263699Y3493348D1*
X8258814Y3495280D1*
X8251570Y3497212D1*
X8239385D1*
X8232085Y3495280D1*
X8227255Y3493348D1*
X8222370Y3489440D1*
X8219955Y3483600D1*
Y3469988D1*
Y3526670D2*
X8222370Y3522761D1*
X8227255Y3518898D1*
X8232085Y3516921D1*
X8239385Y3514990D1*
X8251570D1*
X8258814Y3516921D1*
X8263699Y3518898D1*
X8268528Y3522761D1*
X8270999Y3526670D1*
Y3534441D1*
X8268528Y3538305D1*
X8263699Y3542213D1*
X8258814Y3544145D1*
X8251570Y3546076D1*
X8239385D1*
X8232085Y3544145D1*
X8227255Y3542213D1*
X8222370Y3538305D1*
X8219955Y3534441D1*
Y3526670D1*
Y3591078D2*
X8270999D1*
X8219955Y3563854D1*
X8270999D1*
X8219955Y3634102D2*
Y3608855D1*
X8270999D1*
Y3634102D1*
X8244270Y3608855D2*
Y3624399D1*
X4478971Y4932101D2*
X4530015D1*
X4478971Y4918489D2*
Y4945712D1*
X4491101Y4992645D2*
X4486271Y4990714D1*
X4481386Y4986805D1*
X4478971Y4982942D1*
Y4975170D1*
X4481386Y4971262D1*
X4486271Y4967398D1*
X4491101Y4965422D1*
X4498401Y4963490D1*
X4510586D1*
X4517830Y4965422D1*
X4522715Y4967398D1*
X4527544Y4971262D1*
X4530015Y4975170D1*
Y4982942D1*
X4527544Y4986805D1*
X4522715Y4990714D1*
X4517830Y4992645D1*
X4478971Y5010423D2*
X4530015Y5037646D1*
X4478971D2*
X4530015Y5010423D1*
X4478971Y5067104D2*
X4481386Y5063196D1*
X4486271Y5059333D1*
X4491101Y5057356D1*
X4498401Y5055424D1*
X4510586D1*
X4517830Y5057356D1*
X4522715Y5059333D1*
X4527544Y5063196D1*
X4530015Y5067104D1*
Y5074876D1*
X4527544Y5078739D1*
X4522715Y5082648D1*
X4517830Y5084579D1*
X4510586Y5086511D1*
X4498401D1*
X4491101Y5084579D1*
X4486271Y5082648D1*
X4481386Y5078739D1*
X4478971Y5074876D1*
Y5067104D1*
X1746007Y4402093D2*
D120*
Y4431203D1*
X1713241Y4434101D1*
X1716863Y4431203D1*
X1720569Y4422443D1*
Y4413751D1*
X1716863Y4404991D1*
X1709619Y4399128D1*
X1698669Y4396231D1*
X1691425D1*
X1680475Y4399128D1*
X1673147Y4404991D1*
X1669525Y4413751D1*
Y4422443D1*
X1673147Y4431203D1*
X1676853Y4434101D1*
X1684097Y4437066D1*
X1746091Y4369564D2*
X1669525Y4346249D1*
X1746091Y4322934D1*
X1727897Y4180635D2*
X1735141Y4183533D1*
X1742469Y4189395D1*
X1746091Y4195191D1*
Y4206848D1*
X1742469Y4212711D1*
X1735141Y4218506D1*
X1727897Y4221471D1*
X1716947Y4224368D1*
X1698669D1*
X1687803Y4221471D1*
X1680475Y4218506D1*
X1673231Y4212711D1*
X1669525Y4206848D1*
Y4195191D1*
X1673231Y4189395D1*
X1680475Y4183533D1*
X1687803Y4180635D1*
X1698669D1*
Y4195191D1*
X1746091Y4113134D2*
X1669525D1*
X1746091Y4153969D1*
X1669525D1*
X1746091Y4086467D2*
X1669525D1*
Y4066049D1*
X1673231Y4057289D1*
X1680475Y4051427D1*
X1687803Y4048529D1*
X1698669Y4045632D1*
X1716947D1*
X1727897Y4048529D1*
X1735141Y4051427D1*
X1742469Y4057289D1*
X1746091Y4066049D1*
Y4086467D1*
X6535590Y5782656D2*
D124*
Y5604003D1*
Y5689104D2*
X6556030Y5714654D1*
X6569709Y5723105D1*
X6590149D1*
X6603671Y5714654D1*
X6610432Y5689104D1*
Y5604003D1*
X6693094Y5782656D2*
Y5638004D1*
X6699855Y5612650D1*
X6713534Y5604003D1*
X6727056D1*
X6672654Y5723105D2*
X6720295D1*
X6809718Y5782656D2*
Y5638004D1*
X6816479Y5612650D1*
X6830158Y5604003D1*
X6843680D1*
X6789278Y5723105D2*
X6836919D1*
X6905903D2*
Y5544452D1*
Y5697555D2*
X6919582Y5714457D1*
X6933103Y5723105D1*
X6953543D1*
X6967223Y5714457D1*
X6980744Y5697555D1*
X6987663Y5672005D1*
Y5654906D1*
X6980744Y5629553D1*
X6967223Y5612454D1*
X6953543Y5604003D1*
X6933103D1*
X6919582Y5612454D1*
X6905903Y5629553D1*
X7056803Y5723105D2*
X7049885Y5714457D1*
X7056803Y5706006D1*
X7063564Y5714457D1*
X7056803Y5723105D1*
Y5621102D2*
X7049885Y5612454D1*
X7056803Y5604003D1*
X7063564Y5612454D1*
X7056803Y5621102D1*
X7125786Y5604003D2*
X7221068Y5782460D1*
X7283290Y5604003D2*
X7378572Y5782460D1*
X7440794Y5723105D2*
Y5604003D1*
Y5689104D2*
X7461234Y5714654D1*
X7474913Y5723105D1*
X7495196D1*
X7508875Y5714654D1*
X7515636Y5689104D1*
Y5604003D1*
Y5689104D2*
X7536076Y5714654D1*
X7549755Y5723105D1*
X7570038D1*
X7583717Y5714654D1*
X7590635Y5689104D1*
Y5604003D1*
X7734460Y5723105D2*
Y5604003D1*
Y5697555D2*
X7720938Y5714654D1*
X7707259Y5723105D1*
X7686976D1*
X7673297Y5714654D1*
X7659775Y5697555D1*
X7652857Y5672005D1*
Y5655103D1*
X7659775Y5629553D1*
X7673297Y5612650D1*
X7686976Y5604003D1*
X7707259D1*
X7720938Y5612650D1*
X7734460Y5629553D1*
X7796682Y5782656D2*
Y5604003D1*
X7864763Y5723105D2*
X7796682Y5638004D1*
X7823883Y5672005D2*
X7871524Y5604003D1*
X7933746Y5672005D2*
X8015349D1*
Y5689104D1*
X8008588Y5706203D1*
X8001827Y5714654D1*
X7988148Y5723105D1*
X7967708D1*
X7954186Y5714654D1*
X7940507Y5697555D1*
X7933746Y5672005D1*
Y5655103D1*
X7940507Y5629553D1*
X7954186Y5612650D1*
X7967708Y5604003D1*
X7988148D1*
X8001827Y5612650D1*
X8015349Y5629553D1*
X8077571Y5723105D2*
Y5604003D1*
Y5672005D2*
X8084490Y5697555D1*
X8098011Y5714654D1*
X8111690Y5723105D1*
X8132130D1*
X8194353D2*
Y5544452D1*
Y5697555D2*
X8208032Y5714457D1*
X8221554Y5723105D1*
X8241994D1*
X8255673Y5714457D1*
X8269195Y5697555D1*
X8276113Y5672005D1*
Y5654906D1*
X8269195Y5629553D1*
X8255673Y5612454D1*
X8241994Y5604003D1*
X8221554D1*
X8208032Y5612454D1*
X8194353Y5629553D1*
X8338335Y5723105D2*
Y5604003D1*
Y5689104D2*
X8358775Y5714654D1*
X8372454Y5723105D1*
X8392737D1*
X8406416Y5714654D1*
X8413177Y5689104D1*
Y5604003D1*
X8475399Y5723105D2*
Y5544452D1*
Y5697555D2*
X8489078Y5714457D1*
X8502600Y5723105D1*
X8523040D1*
X8536719Y5714457D1*
X8550241Y5697555D1*
X8557159Y5672005D1*
Y5654906D1*
X8550241Y5629553D1*
X8536719Y5612454D1*
X8523040Y5604003D1*
X8502600D1*
X8489078Y5612454D1*
X8475399Y5629553D1*
X8626142Y5621102D2*
X8619381Y5612454D1*
X8626142Y5604003D1*
X8633060Y5612454D1*
X8626142Y5621102D1*
X8729244Y5723105D2*
X8715722Y5714654D1*
X8702043Y5697555D1*
X8695282Y5672005D1*
Y5655103D1*
X8702043Y5629553D1*
X8715722Y5612650D1*
X8729244Y5604003D1*
X8749684D1*
X8763363Y5612650D1*
X8776885Y5629553D1*
X8783803Y5655103D1*
Y5672005D1*
X8776885Y5697555D1*
X8763363Y5714654D1*
X8749684Y5723105D1*
X8729244D1*
X8846026D2*
Y5604003D1*
Y5672005D2*
X8852944Y5697555D1*
X8866466Y5714654D1*
X8880145Y5723105D1*
X8900585D1*
X9044410Y5714654D2*
Y5578453D1*
X9037649Y5553099D1*
X9030888Y5544452D1*
X9017209Y5536000D1*
X8996769D1*
X8983247Y5544452D1*
X9044410Y5689104D2*
X9030888Y5706006D1*
X9017209Y5714654D1*
X8996769D1*
X8983247Y5706006D1*
X8969568Y5689104D1*
X8962807Y5663554D1*
Y5646455D1*
X8969568Y5621102D1*
X8983247Y5604003D1*
X8996769Y5595552D1*
X9017209D1*
X9030888Y5604003D1*
X9044410Y5621102D1*
X9318999Y1456524D2*
D120*
X9242517D1*
X9293477Y1427347D1*
Y1471080D1*
X9280758Y1497746D2*
Y1531439D1*
X9242433Y1558105D2*
X9318999D1*
X9278905D2*
X9271577Y1563968D1*
X9267955Y1569763D1*
Y1578523D1*
X9271577Y1584318D1*
X9278905Y1590180D1*
X9289855Y1593078D1*
X9297099D1*
X9308049Y1590180D1*
X9315293Y1584318D1*
X9318999Y1578523D1*
Y1569763D1*
X9315293Y1563968D1*
X9308049Y1558105D1*
X9242433Y1619744D2*
X9246055Y1622642D1*
X9242433Y1625607D1*
X9238727Y1622642D1*
X9242433Y1619744D1*
X9267955Y1622642D2*
X9318999D1*
X9242433Y1661034D2*
X9304427D1*
X9315293Y1663931D1*
X9318999Y1669794D1*
Y1675589D1*
X9267955Y1652274D2*
Y1672691D1*
X9253383Y1810188D2*
X9246055Y1804393D1*
X9242433Y1795633D1*
Y1783975D1*
X9246055Y1775215D1*
X9253383Y1769353D1*
X9260627D1*
X9267955Y1772318D1*
X9271577Y1775215D1*
X9275199Y1781010D1*
X9282527Y1798530D1*
X9286149Y1804393D1*
X9289855Y1807290D1*
X9297099Y1810188D1*
X9308049D1*
X9315293Y1804393D1*
X9318999Y1795633D1*
Y1783975D1*
X9315293Y1775215D1*
X9308049Y1769353D1*
X9242433Y1836855D2*
X9318999D1*
Y1857272D1*
X9315293Y1866032D1*
X9308049Y1871895D1*
X9300721Y1874792D1*
X9289855Y1877690D1*
X9271577D1*
X9260627Y1874792D1*
X9253383Y1871895D1*
X9246055Y1866032D1*
X9242433Y1857272D1*
Y1836855D1*
Y1904356D2*
X9318999D1*
X9242433Y1948543D2*
X9246055Y1942680D1*
X9253383Y1936885D1*
X9260627Y1933920D1*
X9271577Y1931023D1*
X9289855D1*
X9300721Y1933920D1*
X9308049Y1936885D1*
X9315293Y1942680D1*
X9318999Y1948543D1*
Y1960200D1*
X9315293Y1965996D1*
X9308049Y1971858D1*
X9300721Y1974756D1*
X9289855Y1977653D1*
X9271577D1*
X9260627Y1974756D1*
X9253383Y1971858D1*
X9246055Y1965996D1*
X9242433Y1960200D1*
Y1948543D1*
X2317897Y4373103D2*
X2325141Y4376001D1*
X2332469Y4381863D1*
X2336091Y4387659D1*
Y4399316D1*
X2332469Y4405179D1*
X2325141Y4410974D1*
X2317897Y4413939D1*
X2306947Y4416836D1*
X2288669D1*
X2277803Y4413939D1*
X2270475Y4410974D1*
X2263231Y4405179D1*
X2259525Y4399316D1*
Y4387659D1*
X2263231Y4381863D1*
X2270475Y4376001D1*
X2277803Y4373103D1*
X2336091Y4346437D2*
X2259525D1*
X2336091Y4305602D2*
X2259525D1*
X2299619Y4346437D2*
Y4305602D1*
X2336091Y4241065D2*
Y4278935D1*
X2259525D1*
Y4241065D1*
X2299619Y4278935D2*
Y4255620D1*
X2317897Y4170666D2*
X2325141Y4173563D1*
X2332469Y4179426D1*
X2336091Y4185221D1*
Y4196878D1*
X2332469Y4202741D1*
X2325141Y4208536D1*
X2317897Y4211501D1*
X2306947Y4214398D1*
X2288669D1*
X2277803Y4211501D1*
X2270475Y4208536D1*
X2263231Y4202741D1*
X2259525Y4196878D1*
Y4185221D1*
X2263231Y4179426D1*
X2270475Y4173563D1*
X2277803Y4170666D1*
X2336091Y4143999D2*
X2259525D1*
X2336091Y4103164D2*
X2285047Y4143999D1*
X2303325Y4129444D2*
X2259525Y4103164D1*
X2165869Y4502051D2*
Y4475771D1*
X2169491Y4467079D1*
X2173197Y4464114D1*
X2180441Y4461216D1*
X2191391D1*
X2198635Y4464114D1*
X2202341Y4467079D1*
X2205963Y4475771D1*
Y4502051D1*
X2129397D1*
X2205963Y4417029D2*
X2202341Y4422892D1*
X2195013Y4428687D1*
X2187769Y4431652D1*
X2176819Y4434549D1*
X2158541D1*
X2147675Y4431652D1*
X2140347Y4428687D1*
X2133103Y4422892D1*
X2129397Y4417029D1*
Y4405372D1*
X2133103Y4399577D1*
X2140347Y4393714D1*
X2147675Y4390817D1*
X2158541Y4387919D1*
X2176819D1*
X2187769Y4390817D1*
X2195013Y4393714D1*
X2202341Y4399577D1*
X2205963Y4405372D1*
Y4417029D1*
Y4361253D2*
X2129397D1*
Y4326280D1*
Y4252916D2*
X2205963Y4276298D1*
X2129397Y4299613D1*
X2154919Y4290853D2*
Y4261676D1*
X2169491Y4226249D2*
Y4200037D1*
X2173197Y4191277D1*
X2176819Y4188312D1*
X2184063Y4185414D1*
X2191391D1*
X2198635Y4188312D1*
X2202341Y4191277D1*
X2205963Y4200037D1*
Y4226249D1*
X2129397D1*
X2169491Y4205832D2*
X2129397Y4185414D1*
X2205963Y4158747D2*
X2129397D1*
X2205963Y4111663D2*
X2129397D1*
X2205963Y4132081D2*
Y4091246D1*
Y4064579D2*
X2169491Y4041264D1*
X2129397D1*
X2205963Y4017949D2*
X2169491Y4041264D1*
X10230024Y4760921D2*
D123*
X10204777D1*
Y4709877D1*
X10230024D1*
X10204777Y4736606D2*
X10220320D1*
X10275025Y4753621D2*
X10271162Y4758506D1*
X10265322Y4760921D1*
X10257550D1*
X10251710Y4758506D1*
X10247802Y4753621D1*
Y4748791D1*
X10249778Y4743906D1*
X10251710Y4741491D1*
X10255573Y4739077D1*
X10267253Y4734191D1*
X10271162Y4731777D1*
X10273093Y4729306D1*
X10275025Y4724477D1*
Y4717177D1*
X10271162Y4712348D1*
X10265322Y4709877D1*
X10257550D1*
X10251710Y4712348D1*
X10247802Y4717177D1*
X10292803Y4734191D2*
X10310323D1*
X10316118Y4736606D1*
X10318094Y4739077D1*
X10320026Y4743906D1*
Y4751206D1*
X10318094Y4756035D1*
X10316118Y4758506D1*
X10310323Y4760921D1*
X10292803D1*
Y4709877D1*
X10337804Y4735371D2*
X10360266D1*
X10407198Y4748791D2*
X10405267Y4753621D1*
X10401358Y4758506D1*
X10397495Y4760921D1*
X10389723D1*
X10385815Y4758506D1*
X10381952Y4753621D1*
X10379975Y4748791D1*
X10378043Y4741491D1*
Y4729306D1*
X10379975Y4722062D1*
X10381952Y4717177D1*
X10385815Y4712348D1*
X10389723Y4709877D1*
X10397495D1*
X10401358Y4712348D1*
X10405267Y4717177D1*
X10407198Y4722062D1*
X10448291Y4753621D2*
X10446360Y4758450D1*
X10440520Y4760864D1*
X10436656D1*
X10430816Y4758450D1*
X10426908Y4751150D1*
X10424976Y4739021D1*
Y4726891D1*
X10426908Y4717177D1*
X10430816Y4712291D1*
X10436656Y4709877D1*
X10438588D1*
X10444383Y4712291D1*
X10448291Y4717177D1*
X10450223Y4724477D1*
Y4726891D1*
X10448291Y4734191D1*
X10444383Y4739021D1*
X10438588Y4741435D1*
X10436656D1*
X10430816Y4739021D1*
X10426908Y4734191D1*
X10424976Y4726891D1*
X10225863Y4649854D2*
X10243338D1*
X10249178Y4652325D1*
X10251154Y4654739D1*
X10253086Y4659569D1*
Y4664454D1*
X10251154Y4669283D1*
X10249178Y4671754D1*
X10243338Y4674169D1*
X10225863D1*
Y4623125D1*
X10239474Y4649854D2*
X10253086Y4623125D1*
X10296111Y4674169D2*
X10270864D1*
Y4623125D1*
X10296111D1*
X10270864Y4649854D2*
X10286407D1*
X10341112Y4666869D2*
X10337248Y4671754D1*
X10331408Y4674169D1*
X10323637D1*
X10317797Y4671754D1*
X10313888Y4666869D1*
Y4662039D1*
X10315865Y4657154D1*
X10317797Y4654739D1*
X10321660Y4652325D1*
X10333340Y4647439D1*
X10337248Y4645025D1*
X10339180Y4642554D1*
X10341112Y4637725D1*
Y4630425D1*
X10337248Y4625596D1*
X10331408Y4623125D1*
X10323637D1*
X10317797Y4625596D1*
X10313888Y4630425D1*
X10384136Y4674169D2*
X10358889D1*
Y4623125D1*
X10384136D1*
X10358889Y4649854D2*
X10374433D1*
X10415526Y4674169D2*
Y4623125D1*
X10401914Y4674169D2*
X10429137D1*
X1073363Y4693230D2*
X1090838D1*
X1096678Y4695701D1*
X1098654Y4698115D1*
X1100586Y4702945D1*
Y4707830D1*
X1098654Y4712659D1*
X1096678Y4715130D1*
X1090838Y4717545D1*
X1073363D1*
Y4666501D1*
X1086974Y4693230D2*
X1100586Y4666501D1*
X1143611Y4717545D2*
X1118364D1*
Y4666501D1*
X1143611D1*
X1118364Y4693230D2*
X1133907D1*
X1188612Y4710245D2*
X1184748Y4715130D1*
X1178908Y4717545D1*
X1171137D1*
X1165297Y4715130D1*
X1161388Y4710245D1*
Y4705415D1*
X1163365Y4700530D1*
X1165297Y4698115D1*
X1169160Y4695701D1*
X1180840Y4690815D1*
X1184748Y4688401D1*
X1186680Y4685930D1*
X1188612Y4681101D1*
Y4673801D1*
X1184748Y4668972D1*
X1178908Y4666501D1*
X1171137D1*
X1165297Y4668972D1*
X1161388Y4673801D1*
X1231636Y4717545D2*
X1206389D1*
Y4666501D1*
X1231636D1*
X1206389Y4693230D2*
X1221933D1*
X1263026Y4717545D2*
Y4666501D1*
X1249414Y4717545D2*
X1276637D1*
X5559640Y4253118D2*
D120*
X5592406D1*
X5603356Y4256824D1*
X5607062Y4260446D1*
X5610684Y4267690D1*
Y4275018D1*
X5607062Y4282262D1*
X5603356Y4285968D1*
X5592406Y4289590D1*
X5559640D1*
Y4213024D1*
X5585162Y4253118D2*
X5610684Y4213024D1*
X5644018Y4242168D2*
X5687733D1*
Y4249496D1*
X5684111Y4256824D1*
X5680490Y4260446D1*
X5673161Y4264068D1*
X5662211D1*
X5654968Y4260446D1*
X5647640Y4253118D1*
X5644018Y4242168D1*
Y4234924D1*
X5647640Y4223974D1*
X5654968Y4216730D1*
X5662211Y4213024D1*
X5673161D1*
X5680490Y4216730D1*
X5687733Y4223974D1*
X5721067Y4264068D2*
X5742967Y4213024D1*
X5764782Y4264068D1*
X5940360Y4213024D2*
X5911131Y4289590D1*
X5881988Y4213024D1*
X5892938Y4238546D2*
X5929410D1*
X5603472Y4112266D2*
Y4115888D1*
X5607093Y4123216D1*
X5610715Y4126838D1*
X5618043Y4130460D1*
X5632615D1*
X5639859Y4126838D1*
X5643481Y4123216D1*
X5647187Y4115888D1*
Y4108644D1*
X5643481Y4101316D1*
X5636237Y4090450D1*
X5599765Y4053978D1*
X5650809D1*
X5706043Y4130460D2*
X5695093Y4126838D1*
X5687764Y4115888D1*
X5684143Y4097694D1*
Y4086744D1*
X5687764Y4068550D1*
X5695093Y4057600D1*
X5706043Y4053978D1*
X5713286D1*
X5724236Y4057600D1*
X5731480Y4068550D1*
X5735186Y4086744D1*
Y4097694D1*
X5731480Y4115888D1*
X5724236Y4126838D1*
X5713286Y4130460D1*
X5706043D1*
X5731480Y4115888D2*
X5687764Y4068550D1*
X5772226Y4112266D2*
Y4115888D1*
X5775848Y4123216D1*
X5779470Y4126838D1*
X5786798Y4130460D1*
X5801370D1*
X5808614Y4126838D1*
X5812236Y4123216D1*
X5815942Y4115888D1*
Y4108644D1*
X5812236Y4101316D1*
X5804992Y4090450D1*
X5768520Y4053978D1*
X5819564D1*
X5896613Y4119594D2*
X5892991Y4126838D1*
X5882041Y4130460D1*
X5874797D1*
X5863847Y4126838D1*
X5856519Y4115888D1*
X5852897Y4097694D1*
Y4079500D1*
X5856519Y4064928D1*
X5863847Y4057600D1*
X5874797Y4053978D1*
X5878419D1*
X5889285Y4057600D1*
X5896613Y4064928D1*
X5900235Y4075878D1*
Y4079500D1*
X5896613Y4090450D1*
X5889285Y4097694D1*
X5878419Y4101316D1*
X5874797D1*
X5863847Y4097694D1*
X5856519Y4090450D1*
X5852897Y4079500D1*
X8749582Y2435067D2*
Y2358501D1*
X8775862D1*
X8784622Y2362207D1*
X8787520Y2365829D1*
X8790418Y2373073D1*
Y2384023D1*
X8787520Y2391351D1*
X8784622Y2394973D1*
X8775862Y2398595D1*
X8784622Y2402301D1*
X8787520Y2405923D1*
X8790418Y2413167D1*
Y2420495D1*
X8787520Y2427739D1*
X8784622Y2431445D1*
X8775862Y2435067D1*
X8749582D1*
Y2398595D2*
X8775862D1*
X1480833Y6047567D2*
Y5971001D1*
X1507113D1*
X1515873Y5974707D1*
X1518771Y5978329D1*
X1521668Y5985573D1*
Y5996523D1*
X1518771Y6003851D1*
X1515873Y6007473D1*
X1507113Y6011095D1*
X1515873Y6014801D1*
X1518771Y6018423D1*
X1521668Y6025667D1*
Y6032995D1*
X1518771Y6040239D1*
X1515873Y6043945D1*
X1507113Y6047567D1*
X1480833D1*
Y6011095D2*
X1507113D1*
X1486696Y5634983D2*
X1518703D1*
X1501251Y5605839D1*
X1510011D1*
X1515806Y5602217D1*
X1518703Y5598595D1*
X1521668Y5587645D1*
Y5580401D1*
X1518703Y5569451D1*
X1512908Y5562123D1*
X1504148Y5558501D1*
X1495388D1*
X1486696Y5562123D1*
X1483798Y5565829D1*
X1480833Y5573073D1*
X1524566Y5276873D2*
X1521668Y5284117D1*
X1515806Y5291445D1*
X1510011Y5295067D1*
X1498353D1*
X1492491Y5291445D1*
X1486696Y5284117D1*
X1483731Y5276873D1*
X1480833Y5265923D1*
Y5247645D1*
X1483731Y5236779D1*
X1486696Y5229451D1*
X1492491Y5222207D1*
X1498353Y5218501D1*
X1510011D1*
X1515806Y5222207D1*
X1521668Y5229451D1*
X1524566Y5236779D1*
Y5247645D1*
X1510011D1*
X1527463Y4803501D2*
Y4880067D1*
X1504148Y4803501D1*
X1480833Y4880067D1*
Y4803501D1*
X1554130Y4843595D2*
X1580343D1*
X1589103Y4847301D1*
X1592068Y4850923D1*
X1594965Y4858167D1*
Y4865495D1*
X1592068Y4872739D1*
X1589103Y4876445D1*
X1580343Y4880067D1*
X1554130D1*
Y4803501D1*
X1574548Y4843595D2*
X1594965Y4803501D1*
X8337085Y2924576D2*
D123*
X8332255Y2922644D1*
X8327370Y2918736D1*
X8324955Y2914872D1*
Y2907101D1*
X8327370Y2903192D1*
X8332255Y2899329D1*
X8337085Y2897352D1*
X8344385Y2895421D1*
X8356570D1*
X8363814Y2897352D1*
X8368699Y2899329D1*
X8373528Y2903192D1*
X8375999Y2907101D1*
Y2914872D1*
X8373528Y2918736D1*
X8368699Y2922644D1*
X8363814Y2924576D1*
X8349270Y2942354D2*
Y2959829D1*
X8346799Y2965669D1*
X8344385Y2967645D1*
X8339555Y2969577D1*
X8334670D1*
X8329841Y2967645D1*
X8327370Y2965669D1*
X8324955Y2959829D1*
Y2942354D1*
X8375999D1*
X8349270Y2955965D2*
X8375999Y2969577D1*
X8332255Y3014578D2*
X8327370Y3010715D1*
X8324955Y3004875D1*
Y2997103D1*
X8327370Y2991263D1*
X8332255Y2987355D1*
X8337085D1*
X8341970Y2989331D1*
X8344385Y2991263D1*
X8346799Y2995126D1*
X8351685Y3006806D1*
X8354099Y3010715D1*
X8356570Y3012646D1*
X8361399Y3014578D1*
X8368699D1*
X8373528Y3010715D1*
X8375999Y3004875D1*
Y2997103D1*
X8373528Y2991263D1*
X8368699Y2987355D1*
X8324955Y3045968D2*
X8375999D1*
X8324955Y3032356D2*
Y3059579D1*
X3120556Y2193230D2*
X3138031D1*
X3143871Y2195701D1*
X3145847Y2198115D1*
X3147779Y2202945D1*
Y2207830D1*
X3145847Y2212659D1*
X3143871Y2215130D1*
X3138031Y2217545D1*
X3120556D1*
Y2166501D1*
X3134167Y2193230D2*
X3147779Y2166501D1*
X2801944Y2205415D2*
X2800013Y2210245D1*
X2796104Y2215130D1*
X2792241Y2217545D1*
X2784469D1*
X2780561Y2215130D1*
X2776698Y2210245D1*
X2774721Y2205415D1*
X2772789Y2198115D1*
Y2185930D1*
X2774721Y2178686D1*
X2776698Y2173801D1*
X2780561Y2168972D1*
X2784469Y2166501D1*
X2792241D1*
X2796104Y2168972D1*
X2800013Y2173801D1*
X2801944Y2178686D1*
Y2185930D1*
X2792241D1*
M02*
